%TF.GenerationSoftware,KiCad,Pcbnew,8.0.6*%
%TF.CreationDate,2024-11-27T12:31:08-05:00*%
%TF.ProjectId,CAN Board,43414e20-426f-4617-9264-2e6b69636164,rev?*%
%TF.SameCoordinates,Original*%
%TF.FileFunction,Copper,L3,Inr*%
%TF.FilePolarity,Positive*%
%FSLAX46Y46*%
G04 Gerber Fmt 4.6, Leading zero omitted, Abs format (unit mm)*
G04 Created by KiCad (PCBNEW 8.0.6) date 2024-11-27 12:31:08*
%MOMM*%
%LPD*%
G01*
G04 APERTURE LIST*
%TA.AperFunction,ComponentPad*%
%ADD10C,0.700000*%
%TD*%
%TA.AperFunction,ComponentPad*%
%ADD11O,0.900000X2.400000*%
%TD*%
%TA.AperFunction,ComponentPad*%
%ADD12O,0.900000X1.700000*%
%TD*%
%TA.AperFunction,ComponentPad*%
%ADD13R,1.700000X1.700000*%
%TD*%
%TA.AperFunction,ComponentPad*%
%ADD14O,1.700000X1.700000*%
%TD*%
%TA.AperFunction,ComponentPad*%
%ADD15R,2.250000X2.250000*%
%TD*%
%TA.AperFunction,ComponentPad*%
%ADD16C,2.250000*%
%TD*%
%TA.AperFunction,ViaPad*%
%ADD17C,0.457200*%
%TD*%
%TA.AperFunction,ViaPad*%
%ADD18C,0.610000*%
%TD*%
%TA.AperFunction,Conductor*%
%ADD19C,0.152400*%
%TD*%
G04 APERTURE END LIST*
D10*
%TO.N,GND*%
%TO.C,J3*%
X39975000Y-18025000D03*
%TO.N,+5V*%
X39125000Y-18025000D03*
%TO.N,unconnected-(J3-CC1-PadA5)*%
X38275000Y-18025000D03*
%TO.N,D+*%
X37425000Y-18025000D03*
%TO.N,D-*%
X36575000Y-18025000D03*
%TO.N,unconnected-(J3-SBU1-PadA8)*%
X35725000Y-18025000D03*
%TO.N,+5V*%
X34875000Y-18025000D03*
%TO.N,GND*%
X34025000Y-18025000D03*
X34025000Y-16675000D03*
%TO.N,+5V*%
X34875000Y-16675000D03*
%TO.N,unconnected-(J3-CC2-PadB5)*%
X35725000Y-16675000D03*
%TO.N,D+*%
X36575000Y-16675000D03*
%TO.N,D-*%
X37425000Y-16675000D03*
%TO.N,unconnected-(J3-SBU2-PadB8)*%
X38275000Y-16675000D03*
%TO.N,+5V*%
X39125000Y-16675000D03*
%TO.N,GND*%
X39975000Y-16675000D03*
D11*
X41325000Y-17045000D03*
D12*
X41325000Y-13665000D03*
D11*
X32675000Y-17045000D03*
D12*
X32675000Y-13665000D03*
%TD*%
D13*
%TO.N,+5V*%
%TO.C,J1*%
X28225000Y-45375000D03*
D14*
%TO.N,+3V3*%
X30765000Y-45375000D03*
%TO.N,GND*%
X28225000Y-47915000D03*
%TO.N,TX0*%
X30765000Y-47915000D03*
%TO.N,SPI1 TX*%
X28225000Y-50455000D03*
%TO.N,RX0*%
X30765000Y-50455000D03*
%TO.N,SPI1 RX*%
X28225000Y-52995000D03*
%TO.N,ADC 0*%
X30765000Y-52995000D03*
%TO.N,SPI1 CSn*%
X28225000Y-55535000D03*
%TO.N,ADC 1*%
X30765000Y-55535000D03*
%TO.N,SPI1 SCK*%
X28225000Y-58075000D03*
%TO.N,SWCLK*%
X30765000Y-58075000D03*
%TO.N,GPIO 15*%
X28225000Y-60615000D03*
%TO.N,SWD*%
X30765000Y-60615000D03*
%TD*%
D13*
%TO.N,CAN5H*%
%TO.C,J8*%
X60500000Y-48625000D03*
D14*
%TO.N,CAN5L*%
X60500000Y-51165000D03*
%TD*%
D15*
%TO.N,Net-(R5-Pad2)*%
%TO.C,SW2*%
X28250000Y-22500000D03*
D16*
%TO.N,GND*%
X34750000Y-22500000D03*
%TD*%
D13*
%TO.N,CAN4H*%
%TO.C,J7*%
X60500000Y-40025000D03*
D14*
%TO.N,CAN4L*%
X60500000Y-42565000D03*
%TD*%
D13*
%TO.N,CAN3H*%
%TO.C,J6*%
X60500000Y-31425000D03*
D14*
%TO.N,CAN3L*%
X60500000Y-33965000D03*
%TD*%
D13*
%TO.N,CAN6H*%
%TO.C,J9*%
X60500000Y-57225000D03*
D14*
%TO.N,CAN6L*%
X60500000Y-59765000D03*
%TD*%
D13*
%TO.N,CAN2H*%
%TO.C,J5*%
X60500000Y-22825000D03*
D14*
%TO.N,CAN2L*%
X60500000Y-25365000D03*
%TD*%
D13*
%TO.N,CAN1H*%
%TO.C,J4*%
X60500000Y-14225000D03*
D14*
%TO.N,CAN1L*%
X60500000Y-16765000D03*
%TD*%
D15*
%TO.N,RUN*%
%TO.C,SW1*%
X38000000Y-53750000D03*
D16*
%TO.N,GND*%
X38000000Y-60250000D03*
%TD*%
D17*
%TO.N,GND*%
X56225000Y-41500000D03*
X51000000Y-44347600D03*
X43500000Y-33045200D03*
X40500000Y-27000000D03*
X51000000Y-28424800D03*
X48000000Y-43000000D03*
X43000000Y-49045200D03*
X56225000Y-24000000D03*
X56225000Y-15500000D03*
X56225000Y-50000000D03*
X48500000Y-19000000D03*
X33542800Y-43500000D03*
X43000000Y-41000000D03*
X38554802Y-37054802D03*
X44197600Y-16347600D03*
X48500000Y-27000000D03*
X51000000Y-60500000D03*
X51000000Y-52347600D03*
X43000000Y-57000000D03*
X40500000Y-45000000D03*
X51000000Y-36347600D03*
X48000000Y-59000000D03*
X36000000Y-35500000D03*
X48500000Y-35000000D03*
X40704600Y-47500000D03*
X44210100Y-24500000D03*
X56225000Y-58500000D03*
X48000000Y-51000000D03*
X56225000Y-32500000D03*
X51000000Y-20424800D03*
X28400000Y-32500000D03*
%TO.N,+1V1*%
X38857200Y-31000000D03*
X37000000Y-32500000D03*
X38225000Y-43261282D03*
%TO.N,+3V3*%
X47500000Y-12500000D03*
X42818928Y-29043928D03*
X54425700Y-19425700D03*
X54425700Y-35425700D03*
X40500000Y-23500000D03*
X54425700Y-27425700D03*
X42870254Y-21095254D03*
X31000000Y-36000000D03*
X54425700Y-51425700D03*
X36943750Y-26443750D03*
X42326200Y-53173800D03*
X54425700Y-43425700D03*
D18*
X31000000Y-18500000D03*
D17*
X42475263Y-45043928D03*
X40500000Y-33500000D03*
X54425700Y-59425700D03*
%TO.N,+5V*%
X50000000Y-20882000D03*
D18*
X28725000Y-14342515D03*
D17*
X50000000Y-52804800D03*
X50000000Y-44804800D03*
X50029478Y-36542800D03*
X48000000Y-61033400D03*
X50000000Y-28882000D03*
%TO.N,SWCLK*%
X38114400Y-41185936D03*
%TO.N,SWD*%
X38400000Y-39608000D03*
%TO.N,/QSPI_SS*%
X30000000Y-27500000D03*
X33500000Y-32500000D03*
%TO.N,SPI0 RX*%
X52500000Y-13500000D03*
X52500000Y-53500000D03*
X52500000Y-45500000D03*
X52500000Y-29500000D03*
X32500000Y-36000000D03*
X52500000Y-21500000D03*
X52500000Y-37500000D03*
%TO.N,SPI0 6CS*%
X52033401Y-53926161D03*
X32500025Y-39304213D03*
%TO.N,SPI0 2CS*%
X32700000Y-37200000D03*
X52042799Y-21936625D03*
%TO.N,SPI0 SCK*%
X53500000Y-45500000D03*
X34480996Y-35011004D03*
X53500000Y-37500000D03*
X53500000Y-21500000D03*
X53500000Y-13500000D03*
X53500000Y-29500000D03*
X53500000Y-53500000D03*
%TO.N,SPI0 TX*%
X34492000Y-36000000D03*
X53000000Y-45000000D03*
X53000000Y-53000000D03*
X53000000Y-21000000D03*
X53000000Y-29000000D03*
X53000000Y-37000000D03*
X53000000Y-13000000D03*
%TO.N,SPI0 4CS*%
X52042800Y-37923891D03*
%TO.N,SPI0 1CS*%
X52000000Y-13000000D03*
X34492000Y-36650000D03*
%TO.N,SPI0 5CS*%
X32481512Y-38694891D03*
X52042799Y-45923891D03*
%TO.N,SPI0 3CS*%
X52042799Y-29923891D03*
X34492000Y-37600000D03*
%TO.N,Net-(U4-TXCAN)*%
X55000000Y-15000000D03*
X50500000Y-13500000D03*
%TO.N,Net-(U4-RXCAN)*%
X49500000Y-15000000D03*
X52000000Y-20390397D03*
%TO.N,Net-(U5-TXCAN)*%
X55000000Y-23000000D03*
X50000000Y-22500000D03*
%TO.N,Net-(U5-RXCAN)*%
X49500000Y-23000000D03*
X52000000Y-28390397D03*
%TO.N,Net-(U6-RXCAN)*%
X52000000Y-36347600D03*
X49500000Y-31000000D03*
%TO.N,Net-(U6-TXCAN)*%
X55000000Y-31000000D03*
X50000000Y-30500000D03*
%TO.N,Net-(U7-RXCAN)*%
X52000000Y-44347600D03*
X49500000Y-39000000D03*
%TO.N,ADC 1*%
X39500000Y-35500000D03*
%TO.N,Net-(U7-TXCAN)*%
X55000000Y-39000000D03*
X50000000Y-38500000D03*
%TO.N,SPI1 TX*%
X32500000Y-40000000D03*
%TO.N,Net-(U8-RXCAN)*%
X49500000Y-47000000D03*
X52000000Y-52347600D03*
%TO.N,Net-(U8-TXCAN)*%
X55000000Y-47000000D03*
X50000000Y-46500000D03*
%TO.N,Net-(U9-RXCAN)*%
X52000000Y-60500000D03*
X49500000Y-55000000D03*
%TO.N,Net-(U9-TXCAN)*%
X55000000Y-55000000D03*
X50000000Y-54500000D03*
%TO.N,SPI1 SCK*%
X35172039Y-41472039D03*
%TO.N,SPI1 RX*%
X34000000Y-41500000D03*
%TO.N,SPI1 CSn*%
X34800000Y-39500000D03*
%TO.N,ADC 0*%
X39500000Y-36109603D03*
X39500000Y-50500000D03*
%TO.N,GPIO 15*%
X35599999Y-39500000D03*
%TO.N,SPI0 4CS*%
X32500000Y-38066800D03*
%TO.N,+3V3*%
X42573290Y-37073290D03*
%TD*%
D19*
%TO.N,SWCLK*%
X38695200Y-49347600D02*
X30765000Y-57277800D01*
X38114400Y-41185936D02*
X38695200Y-41766736D01*
X30765000Y-57277800D02*
X30765000Y-58075000D01*
X38695200Y-41766736D02*
X38695200Y-49347600D01*
%TO.N,SWD*%
X38400000Y-39608000D02*
X39000000Y-40208000D01*
X32000000Y-56521400D02*
X32000000Y-59380000D01*
X39000000Y-49521400D02*
X32000000Y-56521400D01*
X39000000Y-40208000D02*
X39000000Y-49521400D01*
X32000000Y-59380000D02*
X30765000Y-60615000D01*
%TO.N,SPI0 SCK*%
X52618909Y-30381091D02*
X53500000Y-29500000D01*
X34480996Y-35011004D02*
X34480996Y-33647870D01*
X38086066Y-30042800D02*
X51161709Y-30042800D01*
X51500000Y-30381091D02*
X52618909Y-30381091D01*
X34480996Y-33647870D02*
X38086066Y-30042800D01*
X51161709Y-30042800D02*
X51500000Y-30381091D01*
%TO.N,SPI0 TX*%
X35992000Y-34500000D02*
X40500000Y-34500000D01*
X43500000Y-36000000D02*
X44500000Y-37000000D01*
X40500000Y-34500000D02*
X42000000Y-36000000D01*
X42000000Y-36000000D02*
X43500000Y-36000000D01*
X34492000Y-36000000D02*
X35992000Y-34500000D01*
X44500000Y-37000000D02*
X53000000Y-37000000D01*
%TO.N,Net-(U4-TXCAN)*%
X52000000Y-15000000D02*
X50500000Y-13500000D01*
X55000000Y-15000000D02*
X52000000Y-15000000D01*
%TO.N,Net-(U4-RXCAN)*%
X49500000Y-15000000D02*
X49500000Y-15500000D01*
X49500000Y-15500000D02*
X52000000Y-18000000D01*
X52000000Y-18000000D02*
X52000000Y-20390397D01*
%TO.N,Net-(U5-TXCAN)*%
X50000000Y-22500000D02*
X50500000Y-23000000D01*
X50500000Y-23000000D02*
X55000000Y-23000000D01*
%TO.N,Net-(U5-RXCAN)*%
X52000000Y-26000000D02*
X52000000Y-28390397D01*
X49500000Y-23500000D02*
X52000000Y-26000000D01*
X49500000Y-23000000D02*
X49500000Y-23500000D01*
%TO.N,Net-(U6-RXCAN)*%
X49500000Y-31000000D02*
X49500000Y-31500000D01*
X52000000Y-34000000D02*
X52000000Y-36347600D01*
X49500000Y-31500000D02*
X52000000Y-34000000D01*
%TO.N,Net-(U6-TXCAN)*%
X50500000Y-31000000D02*
X55000000Y-31000000D01*
X50000000Y-30500000D02*
X50500000Y-31000000D01*
%TO.N,Net-(U7-RXCAN)*%
X52000000Y-42000000D02*
X52000000Y-44347600D01*
X49500000Y-39500000D02*
X52000000Y-42000000D01*
X49500000Y-39000000D02*
X49500000Y-39500000D01*
%TO.N,ADC 1*%
X39463024Y-35500000D02*
X37000000Y-37963024D01*
X37000000Y-50542800D02*
X32007800Y-55535000D01*
X37000000Y-37963024D02*
X37000000Y-50542800D01*
X39500000Y-35500000D02*
X39463024Y-35500000D01*
X32007800Y-55535000D02*
X30765000Y-55535000D01*
%TO.N,Net-(U7-TXCAN)*%
X50000000Y-38500000D02*
X50500000Y-39000000D01*
X50500000Y-39000000D02*
X55000000Y-39000000D01*
%TO.N,SPI1 TX*%
X29500000Y-49180000D02*
X28225000Y-50455000D01*
X29500000Y-43000000D02*
X29500000Y-49180000D01*
X32500000Y-40000000D02*
X29500000Y-43000000D01*
%TO.N,Net-(U8-RXCAN)*%
X49500000Y-47500000D02*
X52000000Y-50000000D01*
X49500000Y-47000000D02*
X49500000Y-47500000D01*
X52000000Y-50000000D02*
X52000000Y-52347600D01*
%TO.N,Net-(U8-TXCAN)*%
X50000000Y-46500000D02*
X50500000Y-47000000D01*
X50500000Y-47000000D02*
X55000000Y-47000000D01*
%TO.N,Net-(U9-RXCAN)*%
X49500000Y-55000000D02*
X49500000Y-55500000D01*
X49500000Y-55500000D02*
X52000000Y-58000000D01*
X52000000Y-58000000D02*
X52000000Y-60500000D01*
%TO.N,Net-(U9-TXCAN)*%
X50500000Y-55000000D02*
X55000000Y-55000000D01*
X50000000Y-54500000D02*
X50500000Y-55000000D01*
%TO.N,SPI1 SCK*%
X32357452Y-54073600D02*
X29926400Y-54073600D01*
X29303600Y-56996400D02*
X28225000Y-58075000D01*
X35172039Y-51259013D02*
X32357452Y-54073600D01*
X29303600Y-54696400D02*
X29303600Y-56996400D01*
X35172039Y-41472039D02*
X35172039Y-51259013D01*
X29926400Y-54073600D02*
X29303600Y-54696400D01*
%TO.N,SPI1 RX*%
X29608400Y-51611600D02*
X28225000Y-52995000D01*
X33388400Y-51611600D02*
X29608400Y-51611600D01*
X34000000Y-51000000D02*
X33388400Y-51611600D01*
X34000000Y-41500000D02*
X34000000Y-51000000D01*
%TO.N,SPI1 CSn*%
X33916400Y-51916400D02*
X29950914Y-51916400D01*
X29950914Y-51916400D02*
X29500000Y-52367314D01*
X34714839Y-39585161D02*
X34714839Y-51117961D01*
X34800000Y-39500000D02*
X34714839Y-39585161D01*
X29500000Y-52367314D02*
X29500000Y-53880000D01*
X28225000Y-55155000D02*
X28225000Y-55535000D01*
X29500000Y-53880000D02*
X28225000Y-55155000D01*
X34714839Y-51117961D02*
X33916400Y-51916400D01*
%TO.N,ADC 0*%
X39500000Y-50500000D02*
X39500000Y-36109603D01*
%TO.N,GPIO 15*%
X35629239Y-51370761D02*
X32621600Y-54378400D01*
X35599999Y-39500000D02*
X35629239Y-39529240D01*
X35629239Y-39529240D02*
X35629239Y-51370761D01*
X32621600Y-54378400D02*
X30121600Y-54378400D01*
X30121600Y-54378400D02*
X29608400Y-54891600D01*
X29608400Y-54891600D02*
X29608400Y-59231600D01*
X29608400Y-59231600D02*
X28225000Y-60615000D01*
%TO.N,SPI0 RX*%
X44373748Y-37304800D02*
X52304800Y-37304800D01*
X43373748Y-36304800D02*
X44373748Y-37304800D01*
X40373748Y-34804800D02*
X41873748Y-36304800D01*
X35168148Y-37107200D02*
X37470548Y-34804800D01*
X32500000Y-36000000D02*
X33607200Y-37107200D01*
X37470548Y-34804800D02*
X40373748Y-34804800D01*
X33607200Y-37107200D02*
X35168148Y-37107200D01*
X41873748Y-36304800D02*
X43373748Y-36304800D01*
X52304800Y-37304800D02*
X52500000Y-37500000D01*
%TD*%
%TA.AperFunction,Conductor*%
%TO.N,+3V3*%
G36*
X61943039Y-12019685D02*
G01*
X61988794Y-12072489D01*
X62000000Y-12124000D01*
X62000000Y-13035565D01*
X61980315Y-13102604D01*
X61927511Y-13148359D01*
X61858353Y-13158303D01*
X61794797Y-13129278D01*
X61776734Y-13109876D01*
X61707547Y-13017455D01*
X61707544Y-13017452D01*
X61592335Y-12931206D01*
X61592328Y-12931202D01*
X61457482Y-12880908D01*
X61457483Y-12880908D01*
X61397883Y-12874501D01*
X61397881Y-12874500D01*
X61397873Y-12874500D01*
X61397864Y-12874500D01*
X59602129Y-12874500D01*
X59602123Y-12874501D01*
X59542516Y-12880908D01*
X59407671Y-12931202D01*
X59407664Y-12931206D01*
X59292455Y-13017452D01*
X59292452Y-13017455D01*
X59206206Y-13132664D01*
X59206202Y-13132671D01*
X59155908Y-13267517D01*
X59149501Y-13327116D01*
X59149500Y-13327135D01*
X59149500Y-15122870D01*
X59149501Y-15122876D01*
X59155908Y-15182483D01*
X59206202Y-15317328D01*
X59206206Y-15317335D01*
X59292452Y-15432544D01*
X59292455Y-15432547D01*
X59407664Y-15518793D01*
X59407671Y-15518797D01*
X59539081Y-15567810D01*
X59595015Y-15609681D01*
X59619432Y-15675145D01*
X59604580Y-15743418D01*
X59583430Y-15771673D01*
X59461503Y-15893600D01*
X59325965Y-16087169D01*
X59325964Y-16087171D01*
X59226098Y-16301335D01*
X59226094Y-16301344D01*
X59164938Y-16529586D01*
X59164936Y-16529596D01*
X59144341Y-16764999D01*
X59144341Y-16765000D01*
X59164936Y-17000403D01*
X59164938Y-17000413D01*
X59226094Y-17228655D01*
X59226096Y-17228659D01*
X59226097Y-17228663D01*
X59325965Y-17442830D01*
X59325967Y-17442834D01*
X59434281Y-17597521D01*
X59461505Y-17636401D01*
X59628599Y-17803495D01*
X59725384Y-17871265D01*
X59822165Y-17939032D01*
X59822167Y-17939033D01*
X59822170Y-17939035D01*
X60036337Y-18038903D01*
X60264592Y-18100063D01*
X60452918Y-18116539D01*
X60499999Y-18120659D01*
X60500000Y-18120659D01*
X60500001Y-18120659D01*
X60539234Y-18117226D01*
X60735408Y-18100063D01*
X60963663Y-18038903D01*
X61177830Y-17939035D01*
X61371401Y-17803495D01*
X61538495Y-17636401D01*
X61674035Y-17442830D01*
X61763619Y-17250716D01*
X61809790Y-17198279D01*
X61876984Y-17179127D01*
X61943865Y-17199343D01*
X61989199Y-17252508D01*
X62000000Y-17303123D01*
X62000000Y-21635565D01*
X61980315Y-21702604D01*
X61927511Y-21748359D01*
X61858353Y-21758303D01*
X61794797Y-21729278D01*
X61776734Y-21709876D01*
X61707547Y-21617455D01*
X61707544Y-21617452D01*
X61592335Y-21531206D01*
X61592328Y-21531202D01*
X61457482Y-21480908D01*
X61457483Y-21480908D01*
X61397883Y-21474501D01*
X61397881Y-21474500D01*
X61397873Y-21474500D01*
X61397864Y-21474500D01*
X59602129Y-21474500D01*
X59602123Y-21474501D01*
X59542516Y-21480908D01*
X59407671Y-21531202D01*
X59407664Y-21531206D01*
X59292455Y-21617452D01*
X59292452Y-21617455D01*
X59206206Y-21732664D01*
X59206202Y-21732671D01*
X59155908Y-21867517D01*
X59149501Y-21927116D01*
X59149500Y-21927135D01*
X59149500Y-23722870D01*
X59149501Y-23722876D01*
X59155908Y-23782483D01*
X59206202Y-23917328D01*
X59206206Y-23917335D01*
X59292452Y-24032544D01*
X59292455Y-24032547D01*
X59407664Y-24118793D01*
X59407671Y-24118797D01*
X59539081Y-24167810D01*
X59595015Y-24209681D01*
X59619432Y-24275145D01*
X59604580Y-24343418D01*
X59583430Y-24371673D01*
X59461503Y-24493600D01*
X59325965Y-24687169D01*
X59325964Y-24687171D01*
X59226098Y-24901335D01*
X59226094Y-24901344D01*
X59164938Y-25129586D01*
X59164936Y-25129596D01*
X59144341Y-25364999D01*
X59144341Y-25365000D01*
X59164936Y-25600403D01*
X59164938Y-25600413D01*
X59226094Y-25828655D01*
X59226096Y-25828659D01*
X59226097Y-25828663D01*
X59290531Y-25966841D01*
X59325965Y-26042830D01*
X59325967Y-26042834D01*
X59434281Y-26197521D01*
X59461505Y-26236401D01*
X59628599Y-26403495D01*
X59661254Y-26426360D01*
X59822165Y-26539032D01*
X59822167Y-26539033D01*
X59822170Y-26539035D01*
X60036337Y-26638903D01*
X60264592Y-26700063D01*
X60452918Y-26716539D01*
X60499999Y-26720659D01*
X60500000Y-26720659D01*
X60500001Y-26720659D01*
X60539234Y-26717226D01*
X60735408Y-26700063D01*
X60963663Y-26638903D01*
X61177830Y-26539035D01*
X61371401Y-26403495D01*
X61538495Y-26236401D01*
X61674035Y-26042830D01*
X61763619Y-25850716D01*
X61809790Y-25798279D01*
X61876984Y-25779127D01*
X61943865Y-25799343D01*
X61989199Y-25852508D01*
X62000000Y-25903123D01*
X62000000Y-30235565D01*
X61980315Y-30302604D01*
X61927511Y-30348359D01*
X61858353Y-30358303D01*
X61794797Y-30329278D01*
X61776734Y-30309876D01*
X61707547Y-30217455D01*
X61707544Y-30217452D01*
X61592335Y-30131206D01*
X61592328Y-30131202D01*
X61457482Y-30080908D01*
X61457483Y-30080908D01*
X61397883Y-30074501D01*
X61397881Y-30074500D01*
X61397873Y-30074500D01*
X61397864Y-30074500D01*
X59602129Y-30074500D01*
X59602123Y-30074501D01*
X59542516Y-30080908D01*
X59407671Y-30131202D01*
X59407664Y-30131206D01*
X59292455Y-30217452D01*
X59292452Y-30217455D01*
X59206206Y-30332664D01*
X59206202Y-30332671D01*
X59155908Y-30467517D01*
X59149501Y-30527116D01*
X59149500Y-30527135D01*
X59149500Y-32322870D01*
X59149501Y-32322876D01*
X59155908Y-32382483D01*
X59206202Y-32517328D01*
X59206206Y-32517335D01*
X59292452Y-32632544D01*
X59292455Y-32632547D01*
X59407664Y-32718793D01*
X59407671Y-32718797D01*
X59539081Y-32767810D01*
X59595015Y-32809681D01*
X59619432Y-32875145D01*
X59604580Y-32943418D01*
X59583430Y-32971673D01*
X59461503Y-33093600D01*
X59325965Y-33287169D01*
X59325964Y-33287171D01*
X59226098Y-33501335D01*
X59226094Y-33501344D01*
X59164938Y-33729586D01*
X59164936Y-33729596D01*
X59144341Y-33964999D01*
X59144341Y-33965000D01*
X59164936Y-34200403D01*
X59164938Y-34200413D01*
X59226094Y-34428655D01*
X59226096Y-34428659D01*
X59226097Y-34428663D01*
X59284328Y-34553540D01*
X59325965Y-34642830D01*
X59325967Y-34642834D01*
X59425292Y-34784683D01*
X59461505Y-34836401D01*
X59628599Y-35003495D01*
X59688473Y-35045419D01*
X59822165Y-35139032D01*
X59822167Y-35139033D01*
X59822170Y-35139035D01*
X60036337Y-35238903D01*
X60264592Y-35300063D01*
X60452918Y-35316539D01*
X60499999Y-35320659D01*
X60500000Y-35320659D01*
X60500001Y-35320659D01*
X60539234Y-35317226D01*
X60735408Y-35300063D01*
X60963663Y-35238903D01*
X61177830Y-35139035D01*
X61371401Y-35003495D01*
X61538495Y-34836401D01*
X61674035Y-34642830D01*
X61763619Y-34450716D01*
X61809790Y-34398279D01*
X61876984Y-34379127D01*
X61943865Y-34399343D01*
X61989199Y-34452508D01*
X62000000Y-34503123D01*
X62000000Y-38835565D01*
X61980315Y-38902604D01*
X61927511Y-38948359D01*
X61858353Y-38958303D01*
X61794797Y-38929278D01*
X61776734Y-38909876D01*
X61707547Y-38817455D01*
X61707544Y-38817452D01*
X61592335Y-38731206D01*
X61592328Y-38731202D01*
X61457482Y-38680908D01*
X61457483Y-38680908D01*
X61397883Y-38674501D01*
X61397881Y-38674500D01*
X61397873Y-38674500D01*
X61397864Y-38674500D01*
X59602129Y-38674500D01*
X59602123Y-38674501D01*
X59542516Y-38680908D01*
X59407671Y-38731202D01*
X59407664Y-38731206D01*
X59292455Y-38817452D01*
X59292452Y-38817455D01*
X59206206Y-38932664D01*
X59206202Y-38932671D01*
X59155908Y-39067517D01*
X59149501Y-39127116D01*
X59149500Y-39127135D01*
X59149500Y-40922870D01*
X59149501Y-40922876D01*
X59155908Y-40982483D01*
X59206202Y-41117328D01*
X59206206Y-41117335D01*
X59292452Y-41232544D01*
X59292455Y-41232547D01*
X59407664Y-41318793D01*
X59407671Y-41318797D01*
X59539081Y-41367810D01*
X59595015Y-41409681D01*
X59619432Y-41475145D01*
X59604580Y-41543418D01*
X59583430Y-41571673D01*
X59461503Y-41693600D01*
X59325965Y-41887169D01*
X59325964Y-41887171D01*
X59226098Y-42101335D01*
X59226094Y-42101344D01*
X59164938Y-42329586D01*
X59164936Y-42329596D01*
X59144341Y-42564999D01*
X59144341Y-42565000D01*
X59164936Y-42800403D01*
X59164938Y-42800413D01*
X59226094Y-43028655D01*
X59226096Y-43028659D01*
X59226097Y-43028663D01*
X59268880Y-43120411D01*
X59325965Y-43242830D01*
X59325967Y-43242834D01*
X59391717Y-43336734D01*
X59461505Y-43436401D01*
X59628599Y-43603495D01*
X59671428Y-43633484D01*
X59822165Y-43739032D01*
X59822167Y-43739033D01*
X59822170Y-43739035D01*
X60036337Y-43838903D01*
X60264592Y-43900063D01*
X60452918Y-43916539D01*
X60499999Y-43920659D01*
X60500000Y-43920659D01*
X60500001Y-43920659D01*
X60539234Y-43917226D01*
X60735408Y-43900063D01*
X60963663Y-43838903D01*
X61177830Y-43739035D01*
X61371401Y-43603495D01*
X61538495Y-43436401D01*
X61674035Y-43242830D01*
X61763619Y-43050716D01*
X61809790Y-42998279D01*
X61876984Y-42979127D01*
X61943865Y-42999343D01*
X61989199Y-43052508D01*
X62000000Y-43103123D01*
X62000000Y-47435565D01*
X61980315Y-47502604D01*
X61927511Y-47548359D01*
X61858353Y-47558303D01*
X61794797Y-47529278D01*
X61776734Y-47509876D01*
X61707547Y-47417455D01*
X61707544Y-47417452D01*
X61592335Y-47331206D01*
X61592328Y-47331202D01*
X61457482Y-47280908D01*
X61457483Y-47280908D01*
X61397883Y-47274501D01*
X61397881Y-47274500D01*
X61397873Y-47274500D01*
X61397864Y-47274500D01*
X59602129Y-47274500D01*
X59602123Y-47274501D01*
X59542516Y-47280908D01*
X59407671Y-47331202D01*
X59407664Y-47331206D01*
X59292455Y-47417452D01*
X59292452Y-47417455D01*
X59206206Y-47532664D01*
X59206202Y-47532671D01*
X59155908Y-47667517D01*
X59149501Y-47727116D01*
X59149500Y-47727135D01*
X59149500Y-49522870D01*
X59149501Y-49522876D01*
X59155908Y-49582483D01*
X59206202Y-49717328D01*
X59206206Y-49717335D01*
X59292452Y-49832544D01*
X59292455Y-49832547D01*
X59407664Y-49918793D01*
X59407671Y-49918797D01*
X59539081Y-49967810D01*
X59595015Y-50009681D01*
X59619432Y-50075145D01*
X59604580Y-50143418D01*
X59583430Y-50171673D01*
X59461503Y-50293600D01*
X59325965Y-50487169D01*
X59325964Y-50487171D01*
X59226098Y-50701335D01*
X59226094Y-50701344D01*
X59164938Y-50929586D01*
X59164936Y-50929596D01*
X59144341Y-51164999D01*
X59144341Y-51165000D01*
X59164936Y-51400403D01*
X59164938Y-51400413D01*
X59226094Y-51628655D01*
X59226096Y-51628659D01*
X59226097Y-51628663D01*
X59313686Y-51816497D01*
X59325965Y-51842830D01*
X59325967Y-51842834D01*
X59385762Y-51928229D01*
X59461505Y-52036401D01*
X59628599Y-52203495D01*
X59658950Y-52224747D01*
X59822165Y-52339032D01*
X59822167Y-52339033D01*
X59822170Y-52339035D01*
X60036337Y-52438903D01*
X60264592Y-52500063D01*
X60452918Y-52516539D01*
X60499999Y-52520659D01*
X60500000Y-52520659D01*
X60500001Y-52520659D01*
X60539234Y-52517226D01*
X60735408Y-52500063D01*
X60963663Y-52438903D01*
X61177830Y-52339035D01*
X61371401Y-52203495D01*
X61538495Y-52036401D01*
X61674035Y-51842830D01*
X61763619Y-51650716D01*
X61809790Y-51598279D01*
X61876984Y-51579127D01*
X61943865Y-51599343D01*
X61989199Y-51652508D01*
X62000000Y-51703123D01*
X62000000Y-56035565D01*
X61980315Y-56102604D01*
X61927511Y-56148359D01*
X61858353Y-56158303D01*
X61794797Y-56129278D01*
X61776734Y-56109876D01*
X61707547Y-56017455D01*
X61707544Y-56017452D01*
X61592335Y-55931206D01*
X61592328Y-55931202D01*
X61457482Y-55880908D01*
X61457483Y-55880908D01*
X61397883Y-55874501D01*
X61397881Y-55874500D01*
X61397873Y-55874500D01*
X61397864Y-55874500D01*
X59602129Y-55874500D01*
X59602123Y-55874501D01*
X59542516Y-55880908D01*
X59407671Y-55931202D01*
X59407664Y-55931206D01*
X59292455Y-56017452D01*
X59292452Y-56017455D01*
X59206206Y-56132664D01*
X59206202Y-56132671D01*
X59155908Y-56267517D01*
X59149501Y-56327116D01*
X59149500Y-56327135D01*
X59149500Y-58122870D01*
X59149501Y-58122876D01*
X59155908Y-58182483D01*
X59206202Y-58317328D01*
X59206206Y-58317335D01*
X59292452Y-58432544D01*
X59292455Y-58432547D01*
X59407664Y-58518793D01*
X59407671Y-58518797D01*
X59539081Y-58567810D01*
X59595015Y-58609681D01*
X59619432Y-58675145D01*
X59604580Y-58743418D01*
X59583430Y-58771673D01*
X59461503Y-58893600D01*
X59325965Y-59087169D01*
X59325964Y-59087171D01*
X59226098Y-59301335D01*
X59226094Y-59301344D01*
X59164938Y-59529586D01*
X59164936Y-59529596D01*
X59144341Y-59764999D01*
X59144341Y-59765000D01*
X59164936Y-60000403D01*
X59164938Y-60000413D01*
X59226094Y-60228655D01*
X59226096Y-60228659D01*
X59226097Y-60228663D01*
X59325965Y-60442830D01*
X59325967Y-60442834D01*
X59419167Y-60575936D01*
X59461505Y-60636401D01*
X59628599Y-60803495D01*
X59649810Y-60818347D01*
X59822165Y-60939032D01*
X59822167Y-60939033D01*
X59822170Y-60939035D01*
X60036337Y-61038903D01*
X60264592Y-61100063D01*
X60452918Y-61116539D01*
X60499999Y-61120659D01*
X60500000Y-61120659D01*
X60500001Y-61120659D01*
X60539234Y-61117226D01*
X60735408Y-61100063D01*
X60963663Y-61038903D01*
X61177830Y-60939035D01*
X61371401Y-60803495D01*
X61538495Y-60636401D01*
X61674035Y-60442830D01*
X61763619Y-60250716D01*
X61809790Y-60198279D01*
X61876984Y-60179127D01*
X61943865Y-60199343D01*
X61989199Y-60252508D01*
X62000000Y-60303123D01*
X62000000Y-61876000D01*
X61980315Y-61943039D01*
X61927511Y-61988794D01*
X61876000Y-62000000D01*
X48141097Y-62000000D01*
X48074058Y-61980315D01*
X48028303Y-61927511D01*
X48018359Y-61858353D01*
X48047384Y-61794797D01*
X48106162Y-61757023D01*
X48127213Y-61752780D01*
X48163262Y-61748718D01*
X48163263Y-61748717D01*
X48163267Y-61748717D01*
X48318346Y-61694453D01*
X48457463Y-61607040D01*
X48573640Y-61490863D01*
X48661053Y-61351746D01*
X48715317Y-61196667D01*
X48733093Y-61038903D01*
X48733713Y-61033403D01*
X48733713Y-61033396D01*
X48715318Y-60870138D01*
X48715317Y-60870134D01*
X48708416Y-60850413D01*
X48661053Y-60715054D01*
X48573640Y-60575937D01*
X48457463Y-60459760D01*
X48318347Y-60372347D01*
X48163265Y-60318082D01*
X48163261Y-60318081D01*
X48000004Y-60299687D01*
X47999996Y-60299687D01*
X47836738Y-60318081D01*
X47836734Y-60318082D01*
X47681652Y-60372347D01*
X47542536Y-60459760D01*
X47426360Y-60575936D01*
X47338947Y-60715052D01*
X47284682Y-60870134D01*
X47284681Y-60870138D01*
X47266287Y-61033396D01*
X47266287Y-61033403D01*
X47284681Y-61196661D01*
X47284682Y-61196665D01*
X47338947Y-61351747D01*
X47371124Y-61402956D01*
X47426360Y-61490863D01*
X47542537Y-61607040D01*
X47681654Y-61694453D01*
X47836733Y-61748717D01*
X47836734Y-61748717D01*
X47836737Y-61748718D01*
X47872787Y-61752780D01*
X47937201Y-61779847D01*
X47976756Y-61837441D01*
X47978893Y-61907278D01*
X47942935Y-61967185D01*
X47880297Y-61998140D01*
X47858903Y-62000000D01*
X38646150Y-62000000D01*
X38579111Y-61980315D01*
X38533356Y-61927511D01*
X38523412Y-61858353D01*
X38552437Y-61794797D01*
X38598698Y-61761439D01*
X38740239Y-61702811D01*
X38740240Y-61702810D01*
X38740243Y-61702809D01*
X38958399Y-61569123D01*
X39152956Y-61402956D01*
X39319123Y-61208399D01*
X39452809Y-60990243D01*
X39474021Y-60939034D01*
X39510728Y-60850413D01*
X39550722Y-60753860D01*
X39610452Y-60505070D01*
X39630526Y-60250000D01*
X39610452Y-59994930D01*
X39550722Y-59746140D01*
X39550720Y-59746135D01*
X39452811Y-59509760D01*
X39452809Y-59509757D01*
X39393614Y-59413159D01*
X39319123Y-59291601D01*
X39319122Y-59291600D01*
X39319121Y-59291598D01*
X39239557Y-59198441D01*
X39152956Y-59097044D01*
X39039327Y-58999996D01*
X47266287Y-58999996D01*
X47266287Y-59000003D01*
X47284681Y-59163261D01*
X47284682Y-59163265D01*
X47338947Y-59318347D01*
X47398522Y-59413159D01*
X47426360Y-59457463D01*
X47542537Y-59573640D01*
X47681654Y-59661053D01*
X47836733Y-59715317D01*
X47836734Y-59715317D01*
X47836738Y-59715318D01*
X47999996Y-59733713D01*
X48000000Y-59733713D01*
X48000004Y-59733713D01*
X48163261Y-59715318D01*
X48163263Y-59715317D01*
X48163267Y-59715317D01*
X48318346Y-59661053D01*
X48457463Y-59573640D01*
X48573640Y-59457463D01*
X48661053Y-59318346D01*
X48715317Y-59163267D01*
X48715398Y-59162550D01*
X48733713Y-59000003D01*
X48733713Y-58999996D01*
X48715318Y-58836738D01*
X48715317Y-58836734D01*
X48708883Y-58818347D01*
X48661053Y-58681654D01*
X48649498Y-58663265D01*
X48573639Y-58542536D01*
X48457463Y-58426360D01*
X48318347Y-58338947D01*
X48163265Y-58284682D01*
X48163261Y-58284681D01*
X48000004Y-58266287D01*
X47999996Y-58266287D01*
X47836738Y-58284681D01*
X47836734Y-58284682D01*
X47681652Y-58338947D01*
X47542536Y-58426360D01*
X47426360Y-58542536D01*
X47338947Y-58681652D01*
X47284682Y-58836734D01*
X47284681Y-58836738D01*
X47266287Y-58999996D01*
X39039327Y-58999996D01*
X39031426Y-58993248D01*
X38958401Y-58930878D01*
X38958396Y-58930875D01*
X38740242Y-58797190D01*
X38740239Y-58797188D01*
X38503864Y-58699279D01*
X38503860Y-58699278D01*
X38255070Y-58639548D01*
X38255067Y-58639547D01*
X38255064Y-58639547D01*
X38000000Y-58619474D01*
X37744935Y-58639547D01*
X37744931Y-58639547D01*
X37744930Y-58639548D01*
X37654186Y-58661334D01*
X37496135Y-58699279D01*
X37259760Y-58797188D01*
X37259757Y-58797190D01*
X37041603Y-58930875D01*
X37041598Y-58930878D01*
X36847044Y-59097044D01*
X36680878Y-59291598D01*
X36680875Y-59291603D01*
X36547190Y-59509757D01*
X36547188Y-59509760D01*
X36449279Y-59746135D01*
X36439736Y-59785884D01*
X36403415Y-59937173D01*
X36389547Y-59994935D01*
X36369474Y-60250000D01*
X36389547Y-60505064D01*
X36389547Y-60505067D01*
X36389548Y-60505070D01*
X36427527Y-60663261D01*
X36449279Y-60753864D01*
X36547188Y-60990239D01*
X36547190Y-60990242D01*
X36680875Y-61208396D01*
X36680878Y-61208401D01*
X36686786Y-61215318D01*
X36847044Y-61402956D01*
X36933177Y-61476520D01*
X37041598Y-61569121D01*
X37041600Y-61569122D01*
X37041601Y-61569123D01*
X37103476Y-61607040D01*
X37259757Y-61702809D01*
X37259760Y-61702811D01*
X37401302Y-61761439D01*
X37455706Y-61805280D01*
X37477771Y-61871574D01*
X37460492Y-61939273D01*
X37409355Y-61986884D01*
X37353850Y-62000000D01*
X31534819Y-62000000D01*
X31467780Y-61980315D01*
X31422025Y-61927511D01*
X31412081Y-61858353D01*
X31441106Y-61794797D01*
X31463695Y-61774425D01*
X31636401Y-61653495D01*
X31803495Y-61486401D01*
X31939035Y-61292830D01*
X32038903Y-61078663D01*
X32100063Y-60850408D01*
X32120659Y-60615000D01*
X32100063Y-60379592D01*
X32038903Y-60151337D01*
X31939035Y-59937171D01*
X31891447Y-59869209D01*
X31869121Y-59803005D01*
X31886131Y-59735237D01*
X31905334Y-59710414D01*
X32141322Y-59474428D01*
X32166701Y-59413159D01*
X32166701Y-59346841D01*
X32166701Y-59336852D01*
X32166700Y-59336838D01*
X32166700Y-56999996D01*
X42266287Y-56999996D01*
X42266287Y-57000003D01*
X42284681Y-57163261D01*
X42284682Y-57163265D01*
X42338947Y-57318347D01*
X42388476Y-57397171D01*
X42426360Y-57457463D01*
X42542537Y-57573640D01*
X42681654Y-57661053D01*
X42836733Y-57715317D01*
X42836734Y-57715317D01*
X42836738Y-57715318D01*
X42999996Y-57733713D01*
X43000000Y-57733713D01*
X43000004Y-57733713D01*
X43163261Y-57715318D01*
X43163263Y-57715317D01*
X43163267Y-57715317D01*
X43318346Y-57661053D01*
X43457463Y-57573640D01*
X43573640Y-57457463D01*
X43661053Y-57318346D01*
X43715317Y-57163267D01*
X43733713Y-57000000D01*
X43725527Y-56927350D01*
X43715318Y-56836738D01*
X43715317Y-56836734D01*
X43661052Y-56681652D01*
X43573639Y-56542536D01*
X43457463Y-56426360D01*
X43318347Y-56338947D01*
X43163265Y-56284682D01*
X43163261Y-56284681D01*
X43000004Y-56266287D01*
X42999996Y-56266287D01*
X42836738Y-56284681D01*
X42836734Y-56284682D01*
X42681652Y-56338947D01*
X42542536Y-56426360D01*
X42426360Y-56542536D01*
X42338947Y-56681652D01*
X42284682Y-56836734D01*
X42284681Y-56836738D01*
X42266287Y-56999996D01*
X32166700Y-56999996D01*
X32166700Y-56641812D01*
X32186385Y-56574773D01*
X32203019Y-56554131D01*
X34174973Y-54582177D01*
X36162821Y-52594328D01*
X36224142Y-52560845D01*
X36293834Y-52565829D01*
X36349767Y-52607701D01*
X36374184Y-52673165D01*
X36374500Y-52682011D01*
X36374500Y-54922870D01*
X36374501Y-54922876D01*
X36380908Y-54982483D01*
X36431202Y-55117328D01*
X36431206Y-55117335D01*
X36517452Y-55232544D01*
X36517455Y-55232547D01*
X36632664Y-55318793D01*
X36632671Y-55318797D01*
X36767517Y-55369091D01*
X36767516Y-55369091D01*
X36774444Y-55369835D01*
X36827127Y-55375500D01*
X39172872Y-55375499D01*
X39232483Y-55369091D01*
X39367331Y-55318796D01*
X39482546Y-55232546D01*
X39568796Y-55117331D01*
X39619091Y-54982483D01*
X39625500Y-54922873D01*
X39625499Y-52577128D01*
X39619091Y-52517517D01*
X39612580Y-52500061D01*
X39568797Y-52382671D01*
X39568793Y-52382664D01*
X39482547Y-52267455D01*
X39482544Y-52267452D01*
X39367335Y-52181206D01*
X39367328Y-52181202D01*
X39232482Y-52130908D01*
X39232483Y-52130908D01*
X39172883Y-52124501D01*
X39172881Y-52124500D01*
X39172873Y-52124500D01*
X39172865Y-52124500D01*
X36932011Y-52124500D01*
X36864972Y-52104815D01*
X36819217Y-52052011D01*
X36809273Y-51982853D01*
X36838298Y-51919297D01*
X36844316Y-51912833D01*
X38596598Y-50160551D01*
X38657919Y-50127068D01*
X38727611Y-50132052D01*
X38783544Y-50173924D01*
X38807961Y-50239388D01*
X38801319Y-50289187D01*
X38784683Y-50336730D01*
X38784681Y-50336738D01*
X38766287Y-50499996D01*
X38766287Y-50500003D01*
X38784681Y-50663261D01*
X38784682Y-50663265D01*
X38838947Y-50818347D01*
X38850503Y-50836738D01*
X38926360Y-50957463D01*
X39042537Y-51073640D01*
X39075621Y-51094428D01*
X39165845Y-51151120D01*
X39181654Y-51161053D01*
X39336733Y-51215317D01*
X39336734Y-51215317D01*
X39336738Y-51215318D01*
X39499996Y-51233713D01*
X39500000Y-51233713D01*
X39500004Y-51233713D01*
X39663261Y-51215318D01*
X39663263Y-51215317D01*
X39663267Y-51215317D01*
X39818346Y-51161053D01*
X39957463Y-51073640D01*
X40031107Y-50999996D01*
X47266287Y-50999996D01*
X47266287Y-51000003D01*
X47284681Y-51163261D01*
X47284682Y-51163265D01*
X47338947Y-51318347D01*
X47395645Y-51408581D01*
X47426360Y-51457463D01*
X47542537Y-51573640D01*
X47606590Y-51613887D01*
X47668054Y-51652508D01*
X47681654Y-51661053D01*
X47836733Y-51715317D01*
X47836734Y-51715317D01*
X47836738Y-51715318D01*
X47999996Y-51733713D01*
X48000000Y-51733713D01*
X48000004Y-51733713D01*
X48163261Y-51715318D01*
X48163263Y-51715317D01*
X48163267Y-51715317D01*
X48318346Y-51661053D01*
X48457463Y-51573640D01*
X48573640Y-51457463D01*
X48661053Y-51318346D01*
X48715317Y-51163267D01*
X48715318Y-51163261D01*
X48733713Y-51000003D01*
X48733713Y-50999996D01*
X48715318Y-50836738D01*
X48715317Y-50836734D01*
X48708883Y-50818347D01*
X48661053Y-50681654D01*
X48649498Y-50663265D01*
X48593183Y-50573640D01*
X48573640Y-50542537D01*
X48457463Y-50426360D01*
X48439856Y-50415297D01*
X48318347Y-50338947D01*
X48163265Y-50284682D01*
X48163261Y-50284681D01*
X48000004Y-50266287D01*
X47999996Y-50266287D01*
X47836738Y-50284681D01*
X47836734Y-50284682D01*
X47681652Y-50338947D01*
X47542536Y-50426360D01*
X47426360Y-50542536D01*
X47338947Y-50681652D01*
X47284682Y-50836734D01*
X47284681Y-50836738D01*
X47266287Y-50999996D01*
X40031107Y-50999996D01*
X40073640Y-50957463D01*
X40161053Y-50818346D01*
X40215317Y-50663267D01*
X40215318Y-50663261D01*
X40233713Y-50500003D01*
X40233713Y-50499996D01*
X40215318Y-50336738D01*
X40215317Y-50336734D01*
X40208883Y-50318347D01*
X40161053Y-50181654D01*
X40149498Y-50163265D01*
X40073639Y-50042536D01*
X39957463Y-49926360D01*
X39818345Y-49838946D01*
X39749744Y-49814941D01*
X39692969Y-49774219D01*
X39667222Y-49709266D01*
X39666700Y-49697900D01*
X39666700Y-49045196D01*
X42266287Y-49045196D01*
X42266287Y-49045203D01*
X42284681Y-49208461D01*
X42284682Y-49208465D01*
X42338947Y-49363547D01*
X42390285Y-49445250D01*
X42426360Y-49502663D01*
X42542537Y-49618840D01*
X42681654Y-49706253D01*
X42836733Y-49760517D01*
X42836734Y-49760517D01*
X42836738Y-49760518D01*
X42999996Y-49778913D01*
X43000000Y-49778913D01*
X43000004Y-49778913D01*
X43163261Y-49760518D01*
X43163263Y-49760517D01*
X43163267Y-49760517D01*
X43318346Y-49706253D01*
X43457463Y-49618840D01*
X43573640Y-49502663D01*
X43661053Y-49363546D01*
X43715317Y-49208467D01*
X43717961Y-49185000D01*
X43733713Y-49045203D01*
X43733713Y-49045196D01*
X43715318Y-48881938D01*
X43715317Y-48881934D01*
X43690698Y-48811577D01*
X43661053Y-48726854D01*
X43573640Y-48587737D01*
X43457463Y-48471560D01*
X43318347Y-48384147D01*
X43163265Y-48329882D01*
X43163261Y-48329881D01*
X43000004Y-48311487D01*
X42999996Y-48311487D01*
X42836738Y-48329881D01*
X42836734Y-48329882D01*
X42681652Y-48384147D01*
X42542536Y-48471560D01*
X42426360Y-48587736D01*
X42338947Y-48726852D01*
X42284682Y-48881934D01*
X42284681Y-48881938D01*
X42266287Y-49045196D01*
X39666700Y-49045196D01*
X39666700Y-47499996D01*
X39970887Y-47499996D01*
X39970887Y-47500003D01*
X39989281Y-47663261D01*
X39989282Y-47663265D01*
X40043547Y-47818347D01*
X40104278Y-47914999D01*
X40130960Y-47957463D01*
X40247137Y-48073640D01*
X40329421Y-48125343D01*
X40369320Y-48150413D01*
X40386254Y-48161053D01*
X40541333Y-48215317D01*
X40541334Y-48215317D01*
X40541338Y-48215318D01*
X40704596Y-48233713D01*
X40704600Y-48233713D01*
X40704604Y-48233713D01*
X40867861Y-48215318D01*
X40867863Y-48215317D01*
X40867867Y-48215317D01*
X41022946Y-48161053D01*
X41162063Y-48073640D01*
X41278240Y-47957463D01*
X41365653Y-47818346D01*
X41419917Y-47663267D01*
X41419918Y-47663261D01*
X41438313Y-47500003D01*
X41438313Y-47499996D01*
X41419918Y-47336738D01*
X41419917Y-47336734D01*
X41417981Y-47331202D01*
X41365653Y-47181654D01*
X41356257Y-47166701D01*
X41278239Y-47042536D01*
X41162063Y-46926360D01*
X41022947Y-46838947D01*
X40867865Y-46784682D01*
X40867861Y-46784681D01*
X40704604Y-46766287D01*
X40704596Y-46766287D01*
X40541338Y-46784681D01*
X40541334Y-46784682D01*
X40386252Y-46838947D01*
X40247136Y-46926360D01*
X40130960Y-47042536D01*
X40043547Y-47181652D01*
X39989282Y-47336734D01*
X39989281Y-47336738D01*
X39970887Y-47499996D01*
X39666700Y-47499996D01*
X39666700Y-45474630D01*
X39686385Y-45407591D01*
X39739189Y-45361836D01*
X39808347Y-45351892D01*
X39871903Y-45380917D01*
X39895693Y-45408657D01*
X39926360Y-45457463D01*
X40042537Y-45573640D01*
X40181654Y-45661053D01*
X40336733Y-45715317D01*
X40336734Y-45715317D01*
X40336738Y-45715318D01*
X40499996Y-45733713D01*
X40500000Y-45733713D01*
X40500004Y-45733713D01*
X40663261Y-45715318D01*
X40663263Y-45715317D01*
X40663267Y-45715317D01*
X40818346Y-45661053D01*
X40957463Y-45573640D01*
X41073640Y-45457463D01*
X41161053Y-45318346D01*
X41215317Y-45163267D01*
X41215318Y-45163261D01*
X41233713Y-45000003D01*
X41233713Y-44999996D01*
X41215318Y-44836738D01*
X41215317Y-44836734D01*
X41201824Y-44798174D01*
X41161053Y-44681654D01*
X41135846Y-44641538D01*
X41073639Y-44542536D01*
X40957463Y-44426360D01*
X40818347Y-44338947D01*
X40663265Y-44284682D01*
X40663261Y-44284681D01*
X40500004Y-44266287D01*
X40499996Y-44266287D01*
X40336738Y-44284681D01*
X40336734Y-44284682D01*
X40181652Y-44338947D01*
X40042536Y-44426360D01*
X39926360Y-44542536D01*
X39926358Y-44542539D01*
X39895693Y-44591342D01*
X39843358Y-44637633D01*
X39774305Y-44648280D01*
X39710456Y-44619905D01*
X39672085Y-44561514D01*
X39666700Y-44525369D01*
X39666700Y-42999996D01*
X47266287Y-42999996D01*
X47266287Y-43000003D01*
X47284681Y-43163261D01*
X47284682Y-43163265D01*
X47338947Y-43318347D01*
X47405679Y-43424549D01*
X47426360Y-43457463D01*
X47542537Y-43573640D01*
X47681654Y-43661053D01*
X47836733Y-43715317D01*
X47836734Y-43715317D01*
X47836738Y-43715318D01*
X47999996Y-43733713D01*
X48000000Y-43733713D01*
X48000004Y-43733713D01*
X48163261Y-43715318D01*
X48163263Y-43715317D01*
X48163267Y-43715317D01*
X48318346Y-43661053D01*
X48457463Y-43573640D01*
X48573640Y-43457463D01*
X48661053Y-43318346D01*
X48715317Y-43163267D01*
X48722669Y-43098016D01*
X48733713Y-43000003D01*
X48733713Y-42999996D01*
X48715318Y-42836738D01*
X48715317Y-42836734D01*
X48703799Y-42803818D01*
X48661053Y-42681654D01*
X48573640Y-42542537D01*
X48457463Y-42426360D01*
X48452130Y-42423009D01*
X48318347Y-42338947D01*
X48163265Y-42284682D01*
X48163261Y-42284681D01*
X48000004Y-42266287D01*
X47999996Y-42266287D01*
X47836738Y-42284681D01*
X47836734Y-42284682D01*
X47681652Y-42338947D01*
X47542536Y-42426360D01*
X47426360Y-42542536D01*
X47338947Y-42681652D01*
X47284682Y-42836734D01*
X47284681Y-42836738D01*
X47266287Y-42999996D01*
X39666700Y-42999996D01*
X39666700Y-40999996D01*
X42266287Y-40999996D01*
X42266287Y-41000003D01*
X42284681Y-41163261D01*
X42284682Y-41163265D01*
X42338947Y-41318347D01*
X42399618Y-41414903D01*
X42426360Y-41457463D01*
X42542537Y-41573640D01*
X42681654Y-41661053D01*
X42836733Y-41715317D01*
X42836734Y-41715317D01*
X42836738Y-41715318D01*
X42999996Y-41733713D01*
X43000000Y-41733713D01*
X43000004Y-41733713D01*
X43163261Y-41715318D01*
X43163263Y-41715317D01*
X43163267Y-41715317D01*
X43318346Y-41661053D01*
X43457463Y-41573640D01*
X43573640Y-41457463D01*
X43661053Y-41318346D01*
X43715317Y-41163267D01*
X43717925Y-41140123D01*
X43733713Y-41000003D01*
X43733713Y-40999996D01*
X43715318Y-40836738D01*
X43715317Y-40836734D01*
X43697103Y-40784682D01*
X43661053Y-40681654D01*
X43573640Y-40542537D01*
X43457463Y-40426360D01*
X43405668Y-40393815D01*
X43318347Y-40338947D01*
X43163265Y-40284682D01*
X43163261Y-40284681D01*
X43000004Y-40266287D01*
X42999996Y-40266287D01*
X42836738Y-40284681D01*
X42836734Y-40284682D01*
X42681652Y-40338947D01*
X42542536Y-40426360D01*
X42426360Y-40542536D01*
X42338947Y-40681652D01*
X42284682Y-40836734D01*
X42284681Y-40836738D01*
X42266287Y-40999996D01*
X39666700Y-40999996D01*
X39666700Y-36911701D01*
X39686385Y-36844662D01*
X39739189Y-36798907D01*
X39749741Y-36794661D01*
X39818346Y-36770656D01*
X39957463Y-36683243D01*
X40073640Y-36567066D01*
X40161053Y-36427949D01*
X40215317Y-36272870D01*
X40216059Y-36266287D01*
X40233713Y-36109606D01*
X40233713Y-36109599D01*
X40215317Y-35946336D01*
X40215317Y-35946333D01*
X40180123Y-35845756D01*
X40176561Y-35775977D01*
X40180117Y-35763860D01*
X40215317Y-35663267D01*
X40215399Y-35662541D01*
X40233713Y-35500003D01*
X40233713Y-35499996D01*
X40215318Y-35336738D01*
X40215317Y-35336734D01*
X40212733Y-35329350D01*
X40161053Y-35181654D01*
X40161052Y-35181652D01*
X40161052Y-35181651D01*
X40148423Y-35161553D01*
X40129422Y-35094317D01*
X40149789Y-35027481D01*
X40203057Y-34982267D01*
X40272313Y-34973028D01*
X40335569Y-35002699D01*
X40341097Y-35007899D01*
X41725355Y-36392156D01*
X41725358Y-36392160D01*
X41732426Y-36399228D01*
X41779320Y-36446122D01*
X41840589Y-36471500D01*
X43253336Y-36471500D01*
X43320375Y-36491185D01*
X43341017Y-36507819D01*
X44225355Y-37392156D01*
X44225358Y-37392160D01*
X44225359Y-37392160D01*
X44232425Y-37399226D01*
X44232426Y-37399228D01*
X44279320Y-37446122D01*
X44285603Y-37448724D01*
X44285605Y-37448726D01*
X44319989Y-37462968D01*
X44340589Y-37471501D01*
X44340592Y-37471501D01*
X44421341Y-37471501D01*
X44421349Y-37471500D01*
X51253890Y-37471500D01*
X51320929Y-37491185D01*
X51366684Y-37543989D01*
X51376628Y-37613147D01*
X51370933Y-37636447D01*
X51346388Y-37706594D01*
X51327481Y-37760628D01*
X51327481Y-37760629D01*
X51309087Y-37923887D01*
X51309087Y-37923894D01*
X51327481Y-38087152D01*
X51327482Y-38087156D01*
X51381747Y-38242238D01*
X51456196Y-38360722D01*
X51469160Y-38381354D01*
X51585337Y-38497531D01*
X51637040Y-38530018D01*
X51724453Y-38584944D01*
X51724457Y-38584945D01*
X51745357Y-38592259D01*
X51802133Y-38632980D01*
X51827880Y-38697933D01*
X51814424Y-38766495D01*
X51766036Y-38816897D01*
X51704402Y-38833300D01*
X50830582Y-38833300D01*
X50763543Y-38813615D01*
X50717788Y-38760811D01*
X50707844Y-38691653D01*
X50713540Y-38668347D01*
X50715316Y-38663269D01*
X50715317Y-38663267D01*
X50724142Y-38584944D01*
X50733713Y-38500003D01*
X50733713Y-38499996D01*
X50715318Y-38336738D01*
X50715317Y-38336734D01*
X50708725Y-38317896D01*
X50661053Y-38181654D01*
X50656017Y-38173640D01*
X50625343Y-38124821D01*
X50573640Y-38042537D01*
X50457463Y-37926360D01*
X50421134Y-37903533D01*
X50318347Y-37838947D01*
X50163265Y-37784682D01*
X50163261Y-37784681D01*
X50000004Y-37766287D01*
X49999996Y-37766287D01*
X49836738Y-37784681D01*
X49836734Y-37784682D01*
X49681652Y-37838947D01*
X49542536Y-37926360D01*
X49426360Y-38042536D01*
X49338948Y-38181651D01*
X49317896Y-38241812D01*
X49277173Y-38298587D01*
X49241812Y-38317896D01*
X49181651Y-38338948D01*
X49042536Y-38426360D01*
X48926360Y-38542536D01*
X48838947Y-38681652D01*
X48784682Y-38836734D01*
X48784681Y-38836738D01*
X48766287Y-38999996D01*
X48766287Y-39000003D01*
X48784681Y-39163261D01*
X48784682Y-39163265D01*
X48838947Y-39318347D01*
X48850503Y-39336738D01*
X48926360Y-39457463D01*
X49042537Y-39573640D01*
X49102180Y-39611116D01*
X49167446Y-39652126D01*
X49181654Y-39661053D01*
X49336733Y-39715317D01*
X49418654Y-39724547D01*
X49454587Y-39728596D01*
X49519001Y-39755662D01*
X49528385Y-39764135D01*
X51796981Y-42032731D01*
X51830466Y-42094054D01*
X51833300Y-42120412D01*
X51833300Y-43545500D01*
X51813615Y-43612539D01*
X51760811Y-43658294D01*
X51750256Y-43662541D01*
X51681655Y-43686546D01*
X51681653Y-43686547D01*
X51565972Y-43759234D01*
X51498735Y-43778234D01*
X51434028Y-43759234D01*
X51318346Y-43686547D01*
X51318347Y-43686547D01*
X51163265Y-43632282D01*
X51163261Y-43632281D01*
X51000004Y-43613887D01*
X50999996Y-43613887D01*
X50836738Y-43632281D01*
X50836734Y-43632282D01*
X50681652Y-43686547D01*
X50542536Y-43773960D01*
X50426360Y-43890136D01*
X50338943Y-44029259D01*
X50336863Y-44033578D01*
X50290034Y-44085432D01*
X50222605Y-44103737D01*
X50184197Y-44096805D01*
X50163271Y-44089483D01*
X50163266Y-44089482D01*
X50000004Y-44071087D01*
X49999996Y-44071087D01*
X49836738Y-44089481D01*
X49836734Y-44089482D01*
X49681652Y-44143747D01*
X49542536Y-44231160D01*
X49426360Y-44347336D01*
X49338947Y-44486452D01*
X49284682Y-44641534D01*
X49284681Y-44641538D01*
X49266287Y-44804796D01*
X49266287Y-44804803D01*
X49284681Y-44968061D01*
X49284682Y-44968065D01*
X49338947Y-45123147D01*
X49387505Y-45200426D01*
X49426360Y-45262263D01*
X49542537Y-45378440D01*
X49681654Y-45465853D01*
X49836733Y-45520117D01*
X49836734Y-45520117D01*
X49836737Y-45520118D01*
X49917163Y-45529180D01*
X49981577Y-45556247D01*
X49999769Y-45582736D01*
X50012688Y-45561215D01*
X50075326Y-45530260D01*
X50082837Y-45529180D01*
X50163261Y-45520118D01*
X50163263Y-45520117D01*
X50163267Y-45520117D01*
X50318346Y-45465853D01*
X50457463Y-45378440D01*
X50573640Y-45262263D01*
X50661053Y-45123146D01*
X50661055Y-45123138D01*
X50663128Y-45118836D01*
X50709949Y-45066975D01*
X50777375Y-45048660D01*
X50815802Y-45055592D01*
X50836733Y-45062917D01*
X50836736Y-45062917D01*
X50836738Y-45062918D01*
X50836736Y-45062918D01*
X50999996Y-45081313D01*
X51000000Y-45081313D01*
X51000004Y-45081313D01*
X51163261Y-45062918D01*
X51163263Y-45062917D01*
X51163267Y-45062917D01*
X51318346Y-45008653D01*
X51434028Y-44935964D01*
X51501264Y-44916965D01*
X51565972Y-44935965D01*
X51681653Y-45008653D01*
X51709134Y-45018268D01*
X51731776Y-45026191D01*
X51788553Y-45066912D01*
X51814301Y-45131864D01*
X51800845Y-45200426D01*
X51752459Y-45250830D01*
X51731784Y-45260272D01*
X51724456Y-45262836D01*
X51724450Y-45262839D01*
X51585335Y-45350251D01*
X51469159Y-45466427D01*
X51381746Y-45605543D01*
X51327481Y-45760625D01*
X51327480Y-45760629D01*
X51309086Y-45923887D01*
X51309086Y-45923894D01*
X51327480Y-46087152D01*
X51327481Y-46087156D01*
X51381746Y-46242238D01*
X51457320Y-46362512D01*
X51469159Y-46381354D01*
X51585336Y-46497531D01*
X51637039Y-46530018D01*
X51724452Y-46584944D01*
X51724456Y-46584945D01*
X51745356Y-46592259D01*
X51802132Y-46632980D01*
X51827879Y-46697933D01*
X51814423Y-46766495D01*
X51766035Y-46816897D01*
X51704401Y-46833300D01*
X50830582Y-46833300D01*
X50763543Y-46813615D01*
X50717788Y-46760811D01*
X50707844Y-46691653D01*
X50713540Y-46668347D01*
X50715316Y-46663269D01*
X50715317Y-46663267D01*
X50724142Y-46584944D01*
X50733713Y-46500003D01*
X50733713Y-46499996D01*
X50715318Y-46336738D01*
X50715317Y-46336734D01*
X50708725Y-46317896D01*
X50661053Y-46181654D01*
X50573640Y-46042537D01*
X50457463Y-45926360D01*
X50453527Y-45923887D01*
X50318347Y-45838947D01*
X50163265Y-45784682D01*
X50163261Y-45784681D01*
X50082837Y-45775620D01*
X50018423Y-45748554D01*
X50000229Y-45722063D01*
X49987311Y-45743585D01*
X49924673Y-45774540D01*
X49917163Y-45775620D01*
X49836737Y-45784681D01*
X49836734Y-45784682D01*
X49681652Y-45838947D01*
X49542536Y-45926360D01*
X49426360Y-46042536D01*
X49338948Y-46181651D01*
X49317896Y-46241812D01*
X49277173Y-46298587D01*
X49241812Y-46317896D01*
X49181651Y-46338948D01*
X49042536Y-46426360D01*
X48926360Y-46542536D01*
X48838947Y-46681652D01*
X48784682Y-46836734D01*
X48784681Y-46836738D01*
X48766287Y-46999996D01*
X48766287Y-47000003D01*
X48784681Y-47163261D01*
X48784682Y-47163265D01*
X48838947Y-47318347D01*
X48922511Y-47451337D01*
X48926360Y-47457463D01*
X49042537Y-47573640D01*
X49181654Y-47661053D01*
X49336733Y-47715317D01*
X49418654Y-47724547D01*
X49454587Y-47728596D01*
X49519001Y-47755662D01*
X49528385Y-47764135D01*
X51796981Y-50032731D01*
X51830466Y-50094054D01*
X51833300Y-50120412D01*
X51833300Y-51545500D01*
X51813615Y-51612539D01*
X51760811Y-51658294D01*
X51750256Y-51662541D01*
X51681655Y-51686546D01*
X51681653Y-51686547D01*
X51565972Y-51759234D01*
X51498735Y-51778234D01*
X51434028Y-51759234D01*
X51318346Y-51686547D01*
X51318347Y-51686547D01*
X51163265Y-51632282D01*
X51163261Y-51632281D01*
X51000004Y-51613887D01*
X50999996Y-51613887D01*
X50836738Y-51632281D01*
X50836734Y-51632282D01*
X50681652Y-51686547D01*
X50542536Y-51773960D01*
X50426360Y-51890136D01*
X50338943Y-52029259D01*
X50336863Y-52033578D01*
X50290034Y-52085432D01*
X50222605Y-52103737D01*
X50184197Y-52096805D01*
X50163271Y-52089483D01*
X50163266Y-52089482D01*
X50000004Y-52071087D01*
X49999996Y-52071087D01*
X49836738Y-52089481D01*
X49836734Y-52089482D01*
X49681652Y-52143747D01*
X49542536Y-52231160D01*
X49426360Y-52347336D01*
X49338947Y-52486452D01*
X49284682Y-52641534D01*
X49284681Y-52641538D01*
X49266287Y-52804796D01*
X49266287Y-52804803D01*
X49284681Y-52968061D01*
X49284682Y-52968065D01*
X49338947Y-53123147D01*
X49375710Y-53181654D01*
X49426360Y-53262263D01*
X49542537Y-53378440D01*
X49624821Y-53430143D01*
X49670212Y-53458664D01*
X49681654Y-53465853D01*
X49836733Y-53520117D01*
X49836734Y-53520117D01*
X49836737Y-53520118D01*
X49917163Y-53529180D01*
X49981577Y-53556247D01*
X49999769Y-53582736D01*
X50012688Y-53561215D01*
X50075326Y-53530260D01*
X50082837Y-53529180D01*
X50163261Y-53520118D01*
X50163263Y-53520117D01*
X50163267Y-53520117D01*
X50318346Y-53465853D01*
X50457463Y-53378440D01*
X50573640Y-53262263D01*
X50661053Y-53123146D01*
X50661055Y-53123138D01*
X50663128Y-53118836D01*
X50709949Y-53066975D01*
X50777375Y-53048660D01*
X50815802Y-53055592D01*
X50836733Y-53062917D01*
X50836736Y-53062917D01*
X50836738Y-53062918D01*
X50836736Y-53062918D01*
X50999996Y-53081313D01*
X51000000Y-53081313D01*
X51000004Y-53081313D01*
X51163261Y-53062918D01*
X51163263Y-53062917D01*
X51163267Y-53062917D01*
X51318346Y-53008653D01*
X51434028Y-52935964D01*
X51501264Y-52916965D01*
X51565971Y-52935964D01*
X51681654Y-53008653D01*
X51730321Y-53025682D01*
X51787097Y-53066404D01*
X51812845Y-53131356D01*
X51799389Y-53199918D01*
X51751002Y-53250321D01*
X51730326Y-53259764D01*
X51715054Y-53265108D01*
X51715052Y-53265109D01*
X51575937Y-53352521D01*
X51459761Y-53468697D01*
X51372348Y-53607813D01*
X51318083Y-53762895D01*
X51318082Y-53762899D01*
X51299688Y-53926157D01*
X51299688Y-53926164D01*
X51318082Y-54089422D01*
X51318083Y-54089426D01*
X51372348Y-54244508D01*
X51445523Y-54360965D01*
X51459761Y-54383624D01*
X51575938Y-54499801D01*
X51715055Y-54587214D01*
X51729471Y-54592258D01*
X51786247Y-54632980D01*
X51811994Y-54697933D01*
X51798538Y-54766494D01*
X51750151Y-54816897D01*
X51688516Y-54833300D01*
X50830582Y-54833300D01*
X50763543Y-54813615D01*
X50717788Y-54760811D01*
X50707844Y-54691653D01*
X50713540Y-54668347D01*
X50715316Y-54663269D01*
X50715317Y-54663267D01*
X50715318Y-54663261D01*
X50733713Y-54500003D01*
X50733713Y-54499996D01*
X50715318Y-54336738D01*
X50715317Y-54336734D01*
X50708725Y-54317896D01*
X50661053Y-54181654D01*
X50573640Y-54042537D01*
X50457463Y-53926360D01*
X50426493Y-53906900D01*
X50318347Y-53838947D01*
X50163265Y-53784682D01*
X50163261Y-53784681D01*
X50082837Y-53775620D01*
X50018423Y-53748554D01*
X50000229Y-53722063D01*
X49987311Y-53743585D01*
X49924673Y-53774540D01*
X49917163Y-53775620D01*
X49836737Y-53784681D01*
X49836734Y-53784682D01*
X49681652Y-53838947D01*
X49542536Y-53926360D01*
X49426360Y-54042536D01*
X49338948Y-54181651D01*
X49317896Y-54241812D01*
X49277173Y-54298587D01*
X49241812Y-54317896D01*
X49181651Y-54338948D01*
X49042536Y-54426360D01*
X48926360Y-54542536D01*
X48838947Y-54681652D01*
X48784682Y-54836734D01*
X48784681Y-54836738D01*
X48766287Y-54999996D01*
X48766287Y-55000003D01*
X48784681Y-55163261D01*
X48784682Y-55163265D01*
X48838947Y-55318347D01*
X48874859Y-55375500D01*
X48926360Y-55457463D01*
X49042537Y-55573640D01*
X49181654Y-55661053D01*
X49336733Y-55715317D01*
X49418654Y-55724547D01*
X49454587Y-55728596D01*
X49519001Y-55755662D01*
X49528385Y-55764135D01*
X51796981Y-58032731D01*
X51830466Y-58094054D01*
X51833300Y-58120412D01*
X51833300Y-59697900D01*
X51813615Y-59764939D01*
X51760811Y-59810694D01*
X51750256Y-59814941D01*
X51681655Y-59838946D01*
X51681653Y-59838947D01*
X51565972Y-59911634D01*
X51498735Y-59930634D01*
X51434028Y-59911634D01*
X51318346Y-59838947D01*
X51318347Y-59838947D01*
X51163265Y-59784682D01*
X51163261Y-59784681D01*
X51000004Y-59766287D01*
X50999996Y-59766287D01*
X50836738Y-59784681D01*
X50836734Y-59784682D01*
X50681652Y-59838947D01*
X50542536Y-59926360D01*
X50426360Y-60042536D01*
X50338947Y-60181652D01*
X50284682Y-60336734D01*
X50284681Y-60336738D01*
X50266287Y-60499996D01*
X50266287Y-60500003D01*
X50284681Y-60663261D01*
X50284682Y-60663265D01*
X50338947Y-60818347D01*
X50371490Y-60870138D01*
X50426360Y-60957463D01*
X50542537Y-61073640D01*
X50681654Y-61161053D01*
X50836733Y-61215317D01*
X50836734Y-61215317D01*
X50836738Y-61215318D01*
X50999996Y-61233713D01*
X51000000Y-61233713D01*
X51000004Y-61233713D01*
X51163261Y-61215318D01*
X51163263Y-61215317D01*
X51163267Y-61215317D01*
X51318346Y-61161053D01*
X51434028Y-61088364D01*
X51501264Y-61069365D01*
X51565971Y-61088364D01*
X51681654Y-61161053D01*
X51836733Y-61215317D01*
X51836734Y-61215317D01*
X51836738Y-61215318D01*
X51999996Y-61233713D01*
X52000000Y-61233713D01*
X52000004Y-61233713D01*
X52163261Y-61215318D01*
X52163263Y-61215317D01*
X52163267Y-61215317D01*
X52318346Y-61161053D01*
X52457463Y-61073640D01*
X52573640Y-60957463D01*
X52661053Y-60818346D01*
X52715317Y-60663267D01*
X52718345Y-60636395D01*
X52733713Y-60500003D01*
X52733713Y-60499996D01*
X52715318Y-60336738D01*
X52715317Y-60336734D01*
X52708790Y-60318082D01*
X52661053Y-60181654D01*
X52573640Y-60042537D01*
X52457463Y-59926360D01*
X52366511Y-59869211D01*
X52318345Y-59838946D01*
X52249744Y-59814941D01*
X52192969Y-59774219D01*
X52167222Y-59709266D01*
X52166700Y-59697900D01*
X52166700Y-58499996D01*
X55491287Y-58499996D01*
X55491287Y-58500003D01*
X55509681Y-58663261D01*
X55509682Y-58663265D01*
X55563947Y-58818347D01*
X55638201Y-58936520D01*
X55651360Y-58957463D01*
X55767537Y-59073640D01*
X55906654Y-59161053D01*
X56061733Y-59215317D01*
X56061734Y-59215317D01*
X56061738Y-59215318D01*
X56224996Y-59233713D01*
X56225000Y-59233713D01*
X56225004Y-59233713D01*
X56388261Y-59215318D01*
X56388263Y-59215317D01*
X56388267Y-59215317D01*
X56543346Y-59161053D01*
X56682463Y-59073640D01*
X56798640Y-58957463D01*
X56886053Y-58818346D01*
X56940317Y-58663267D01*
X56940535Y-58661334D01*
X56958713Y-58500003D01*
X56958713Y-58499996D01*
X56940318Y-58336738D01*
X56940317Y-58336734D01*
X56931105Y-58310408D01*
X56886053Y-58181654D01*
X56798640Y-58042537D01*
X56682463Y-57926360D01*
X56649379Y-57905572D01*
X56543347Y-57838947D01*
X56388265Y-57784682D01*
X56388261Y-57784681D01*
X56225004Y-57766287D01*
X56224996Y-57766287D01*
X56061738Y-57784681D01*
X56061734Y-57784682D01*
X55906652Y-57838947D01*
X55767536Y-57926360D01*
X55651360Y-58042536D01*
X55563947Y-58181652D01*
X55509682Y-58336734D01*
X55509681Y-58336738D01*
X55491287Y-58499996D01*
X52166700Y-58499996D01*
X52166700Y-57966842D01*
X52166700Y-57966841D01*
X52141322Y-57905572D01*
X52094428Y-57858678D01*
X49971107Y-55735357D01*
X49937622Y-55674034D01*
X49942606Y-55604342D01*
X49971103Y-55559999D01*
X50073640Y-55457463D01*
X50161053Y-55318346D01*
X50182102Y-55258189D01*
X50222823Y-55201414D01*
X50258191Y-55182102D01*
X50269573Y-55178118D01*
X50318346Y-55161053D01*
X50318352Y-55161049D01*
X50324612Y-55158035D01*
X50325239Y-55159337D01*
X50384899Y-55142467D01*
X50431110Y-55151901D01*
X50466836Y-55166699D01*
X50466841Y-55166701D01*
X50466842Y-55166701D01*
X50547593Y-55166701D01*
X50547601Y-55166700D01*
X54197901Y-55166700D01*
X54264940Y-55186385D01*
X54310695Y-55239189D01*
X54314943Y-55249746D01*
X54338947Y-55318347D01*
X54374859Y-55375500D01*
X54426360Y-55457463D01*
X54542537Y-55573640D01*
X54681654Y-55661053D01*
X54836733Y-55715317D01*
X54836734Y-55715317D01*
X54836738Y-55715318D01*
X54999996Y-55733713D01*
X55000000Y-55733713D01*
X55000004Y-55733713D01*
X55163261Y-55715318D01*
X55163263Y-55715317D01*
X55163267Y-55715317D01*
X55318346Y-55661053D01*
X55457463Y-55573640D01*
X55573640Y-55457463D01*
X55661053Y-55318346D01*
X55715317Y-55163267D01*
X55715318Y-55163261D01*
X55733713Y-55000003D01*
X55733713Y-54999996D01*
X55715318Y-54836738D01*
X55715317Y-54836734D01*
X55714115Y-54833300D01*
X55661053Y-54681654D01*
X55656254Y-54674017D01*
X55620798Y-54617589D01*
X55573640Y-54542537D01*
X55457463Y-54426360D01*
X55318347Y-54338947D01*
X55163265Y-54284682D01*
X55163261Y-54284681D01*
X55000004Y-54266287D01*
X54999996Y-54266287D01*
X54836738Y-54284681D01*
X54836734Y-54284682D01*
X54681652Y-54338947D01*
X54542536Y-54426360D01*
X54426360Y-54542536D01*
X54338947Y-54681652D01*
X54314943Y-54750254D01*
X54274221Y-54807030D01*
X54209268Y-54832778D01*
X54197901Y-54833300D01*
X52378286Y-54833300D01*
X52311247Y-54813615D01*
X52265492Y-54760811D01*
X52255548Y-54691653D01*
X52284573Y-54628097D01*
X52337329Y-54592258D01*
X52351747Y-54587214D01*
X52490864Y-54499801D01*
X52607041Y-54383624D01*
X52694454Y-54244507D01*
X52694458Y-54244495D01*
X52695395Y-54242552D01*
X52696339Y-54241506D01*
X52698159Y-54238610D01*
X52698666Y-54238928D01*
X52742218Y-54190693D01*
X52766161Y-54179313D01*
X52818346Y-54161053D01*
X52934028Y-54088364D01*
X53001264Y-54069365D01*
X53065971Y-54088364D01*
X53181654Y-54161053D01*
X53336733Y-54215317D01*
X53336734Y-54215317D01*
X53336738Y-54215318D01*
X53499996Y-54233713D01*
X53500000Y-54233713D01*
X53500004Y-54233713D01*
X53663261Y-54215318D01*
X53663263Y-54215317D01*
X53663267Y-54215317D01*
X53818346Y-54161053D01*
X53957463Y-54073640D01*
X54073640Y-53957463D01*
X54161053Y-53818346D01*
X54215317Y-53663267D01*
X54221565Y-53607815D01*
X54233713Y-53500003D01*
X54233713Y-53499996D01*
X54215318Y-53336738D01*
X54215317Y-53336734D01*
X54190254Y-53265108D01*
X54161053Y-53181654D01*
X54073640Y-53042537D01*
X53957463Y-52926360D01*
X53942511Y-52916965D01*
X53818348Y-52838948D01*
X53818345Y-52838946D01*
X53758189Y-52817897D01*
X53701413Y-52777176D01*
X53682102Y-52741810D01*
X53661052Y-52681652D01*
X53606184Y-52594330D01*
X53573640Y-52542537D01*
X53457463Y-52426360D01*
X53318347Y-52338947D01*
X53163265Y-52284682D01*
X53163261Y-52284681D01*
X53000004Y-52266287D01*
X52999996Y-52266287D01*
X52850807Y-52283096D01*
X52781985Y-52271041D01*
X52730606Y-52223692D01*
X52716033Y-52187468D01*
X52715318Y-52184336D01*
X52701115Y-52143747D01*
X52661053Y-52029254D01*
X52573640Y-51890137D01*
X52457463Y-51773960D01*
X52318345Y-51686546D01*
X52249744Y-51662541D01*
X52192969Y-51621819D01*
X52167222Y-51556866D01*
X52166700Y-51545500D01*
X52166700Y-49999996D01*
X55491287Y-49999996D01*
X55491287Y-50000003D01*
X55509681Y-50163261D01*
X55509682Y-50163265D01*
X55563947Y-50318347D01*
X55624865Y-50415297D01*
X55651360Y-50457463D01*
X55767537Y-50573640D01*
X55906654Y-50661053D01*
X56061733Y-50715317D01*
X56061734Y-50715317D01*
X56061738Y-50715318D01*
X56224996Y-50733713D01*
X56225000Y-50733713D01*
X56225004Y-50733713D01*
X56388261Y-50715318D01*
X56388263Y-50715317D01*
X56388267Y-50715317D01*
X56543346Y-50661053D01*
X56682463Y-50573640D01*
X56798640Y-50457463D01*
X56886053Y-50318346D01*
X56940317Y-50163267D01*
X56940623Y-50160553D01*
X56958713Y-50000003D01*
X56958713Y-49999996D01*
X56940318Y-49836738D01*
X56940317Y-49836734D01*
X56934453Y-49819976D01*
X56886053Y-49681654D01*
X56798640Y-49542537D01*
X56682463Y-49426360D01*
X56543347Y-49338947D01*
X56388265Y-49284682D01*
X56388261Y-49284681D01*
X56225004Y-49266287D01*
X56224996Y-49266287D01*
X56061738Y-49284681D01*
X56061734Y-49284682D01*
X55906652Y-49338947D01*
X55767536Y-49426360D01*
X55651360Y-49542536D01*
X55563947Y-49681652D01*
X55509682Y-49836734D01*
X55509681Y-49836738D01*
X55491287Y-49999996D01*
X52166700Y-49999996D01*
X52166700Y-49966842D01*
X52166700Y-49966841D01*
X52141322Y-49905572D01*
X52094428Y-49858678D01*
X49971107Y-47735357D01*
X49937622Y-47674034D01*
X49942606Y-47604342D01*
X49971103Y-47559999D01*
X50073640Y-47457463D01*
X50161053Y-47318346D01*
X50182102Y-47258189D01*
X50222823Y-47201414D01*
X50258191Y-47182102D01*
X50269573Y-47178118D01*
X50318346Y-47161053D01*
X50318352Y-47161049D01*
X50324612Y-47158035D01*
X50325239Y-47159337D01*
X50384899Y-47142467D01*
X50431110Y-47151901D01*
X50466836Y-47166699D01*
X50466841Y-47166701D01*
X50466842Y-47166701D01*
X50547593Y-47166701D01*
X50547601Y-47166700D01*
X54197901Y-47166700D01*
X54264940Y-47186385D01*
X54310695Y-47239189D01*
X54314943Y-47249746D01*
X54338947Y-47318347D01*
X54422511Y-47451337D01*
X54426360Y-47457463D01*
X54542537Y-47573640D01*
X54681654Y-47661053D01*
X54836733Y-47715317D01*
X54836734Y-47715317D01*
X54836738Y-47715318D01*
X54999996Y-47733713D01*
X55000000Y-47733713D01*
X55000004Y-47733713D01*
X55163261Y-47715318D01*
X55163263Y-47715317D01*
X55163267Y-47715317D01*
X55318346Y-47661053D01*
X55457463Y-47573640D01*
X55573640Y-47457463D01*
X55661053Y-47318346D01*
X55715317Y-47163267D01*
X55715318Y-47163261D01*
X55733713Y-47000003D01*
X55733713Y-46999996D01*
X55715318Y-46836738D01*
X55715317Y-46836734D01*
X55714115Y-46833300D01*
X55661053Y-46681654D01*
X55645941Y-46657604D01*
X55597140Y-46579937D01*
X55573640Y-46542537D01*
X55457463Y-46426360D01*
X55436368Y-46413105D01*
X55318347Y-46338947D01*
X55163265Y-46284682D01*
X55163261Y-46284681D01*
X55000004Y-46266287D01*
X54999996Y-46266287D01*
X54836738Y-46284681D01*
X54836734Y-46284682D01*
X54681652Y-46338947D01*
X54542536Y-46426360D01*
X54426360Y-46542536D01*
X54338947Y-46681652D01*
X54314943Y-46750254D01*
X54274221Y-46807030D01*
X54209268Y-46832778D01*
X54197901Y-46833300D01*
X52381197Y-46833300D01*
X52314158Y-46813615D01*
X52268403Y-46760811D01*
X52258459Y-46691653D01*
X52287484Y-46628097D01*
X52340242Y-46592259D01*
X52354119Y-46587402D01*
X52361145Y-46584944D01*
X52500262Y-46497531D01*
X52616439Y-46381354D01*
X52703852Y-46242237D01*
X52703855Y-46242225D01*
X52705378Y-46239067D01*
X52706909Y-46237370D01*
X52707557Y-46236340D01*
X52707737Y-46236453D01*
X52752197Y-46187203D01*
X52776149Y-46175818D01*
X52781462Y-46173958D01*
X52818346Y-46161053D01*
X52934030Y-46088363D01*
X53001263Y-46069364D01*
X53065971Y-46088364D01*
X53181654Y-46161053D01*
X53336733Y-46215317D01*
X53336734Y-46215317D01*
X53336738Y-46215318D01*
X53499996Y-46233713D01*
X53500000Y-46233713D01*
X53500004Y-46233713D01*
X53663261Y-46215318D01*
X53663263Y-46215317D01*
X53663267Y-46215317D01*
X53818346Y-46161053D01*
X53957463Y-46073640D01*
X54073640Y-45957463D01*
X54161053Y-45818346D01*
X54215317Y-45663267D01*
X54215318Y-45663261D01*
X54233713Y-45500003D01*
X54233713Y-45499996D01*
X54215318Y-45336738D01*
X54215317Y-45336734D01*
X54208883Y-45318347D01*
X54161053Y-45181654D01*
X54149498Y-45163265D01*
X54121582Y-45118836D01*
X54073640Y-45042537D01*
X53957463Y-44926360D01*
X53929954Y-44909075D01*
X53818348Y-44838948D01*
X53818345Y-44838946D01*
X53758189Y-44817897D01*
X53701413Y-44777176D01*
X53682102Y-44741810D01*
X53666569Y-44697420D01*
X53661053Y-44681654D01*
X53635846Y-44641538D01*
X53573639Y-44542536D01*
X53457463Y-44426360D01*
X53318347Y-44338947D01*
X53163265Y-44284682D01*
X53163261Y-44284681D01*
X53000004Y-44266287D01*
X52999996Y-44266287D01*
X52850807Y-44283096D01*
X52781985Y-44271041D01*
X52730606Y-44223692D01*
X52716033Y-44187468D01*
X52715318Y-44184336D01*
X52701115Y-44143747D01*
X52661053Y-44029254D01*
X52658066Y-44024501D01*
X52593871Y-43922335D01*
X52573640Y-43890137D01*
X52457463Y-43773960D01*
X52401879Y-43739034D01*
X52318345Y-43686546D01*
X52249744Y-43662541D01*
X52192969Y-43621819D01*
X52167222Y-43556866D01*
X52166700Y-43545500D01*
X52166700Y-41966842D01*
X52166700Y-41966841D01*
X52141322Y-41905572D01*
X52094428Y-41858678D01*
X51735746Y-41499996D01*
X55491287Y-41499996D01*
X55491287Y-41500003D01*
X55509681Y-41663261D01*
X55509682Y-41663265D01*
X55563947Y-41818347D01*
X55627600Y-41919649D01*
X55651360Y-41957463D01*
X55767537Y-42073640D01*
X55906654Y-42161053D01*
X56061733Y-42215317D01*
X56061734Y-42215317D01*
X56061738Y-42215318D01*
X56224996Y-42233713D01*
X56225000Y-42233713D01*
X56225004Y-42233713D01*
X56388261Y-42215318D01*
X56388263Y-42215317D01*
X56388267Y-42215317D01*
X56543346Y-42161053D01*
X56682463Y-42073640D01*
X56798640Y-41957463D01*
X56886053Y-41818346D01*
X56940317Y-41663267D01*
X56940318Y-41663261D01*
X56958713Y-41500003D01*
X56958713Y-41499996D01*
X56940318Y-41336738D01*
X56940317Y-41336734D01*
X56934040Y-41318796D01*
X56886053Y-41181654D01*
X56874498Y-41163265D01*
X56806282Y-41054699D01*
X56798640Y-41042537D01*
X56682463Y-40926360D01*
X56676918Y-40922876D01*
X56543347Y-40838947D01*
X56388265Y-40784682D01*
X56388261Y-40784681D01*
X56225004Y-40766287D01*
X56224996Y-40766287D01*
X56061738Y-40784681D01*
X56061734Y-40784682D01*
X55906652Y-40838947D01*
X55767536Y-40926360D01*
X55651360Y-41042536D01*
X55563947Y-41181652D01*
X55509682Y-41336734D01*
X55509681Y-41336738D01*
X55491287Y-41499996D01*
X51735746Y-41499996D01*
X49971107Y-39735357D01*
X49937622Y-39674034D01*
X49942606Y-39604342D01*
X49971103Y-39559999D01*
X50073640Y-39457463D01*
X50161053Y-39318346D01*
X50182102Y-39258189D01*
X50222823Y-39201414D01*
X50258191Y-39182102D01*
X50269573Y-39178118D01*
X50318346Y-39161053D01*
X50318352Y-39161049D01*
X50324612Y-39158035D01*
X50325239Y-39159337D01*
X50384899Y-39142467D01*
X50431110Y-39151901D01*
X50466836Y-39166699D01*
X50466841Y-39166701D01*
X50466842Y-39166701D01*
X50547593Y-39166701D01*
X50547601Y-39166700D01*
X54197901Y-39166700D01*
X54264940Y-39186385D01*
X54310695Y-39239189D01*
X54314943Y-39249746D01*
X54338947Y-39318347D01*
X54350503Y-39336738D01*
X54426360Y-39457463D01*
X54542537Y-39573640D01*
X54602180Y-39611116D01*
X54667446Y-39652126D01*
X54681654Y-39661053D01*
X54836733Y-39715317D01*
X54836734Y-39715317D01*
X54836738Y-39715318D01*
X54999996Y-39733713D01*
X55000000Y-39733713D01*
X55000004Y-39733713D01*
X55163261Y-39715318D01*
X55163263Y-39715317D01*
X55163267Y-39715317D01*
X55318346Y-39661053D01*
X55457463Y-39573640D01*
X55573640Y-39457463D01*
X55661053Y-39318346D01*
X55715317Y-39163267D01*
X55715318Y-39163261D01*
X55733713Y-39000003D01*
X55733713Y-38999996D01*
X55715318Y-38836738D01*
X55715317Y-38836734D01*
X55714115Y-38833300D01*
X55661053Y-38681654D01*
X55660584Y-38680908D01*
X55573639Y-38542536D01*
X55457463Y-38426360D01*
X55318347Y-38338947D01*
X55163265Y-38284682D01*
X55163261Y-38284681D01*
X55000004Y-38266287D01*
X54999996Y-38266287D01*
X54836738Y-38284681D01*
X54836734Y-38284682D01*
X54681652Y-38338947D01*
X54542536Y-38426360D01*
X54426360Y-38542536D01*
X54338947Y-38681652D01*
X54314943Y-38750254D01*
X54274221Y-38807030D01*
X54209268Y-38832778D01*
X54197901Y-38833300D01*
X52381198Y-38833300D01*
X52314159Y-38813615D01*
X52268404Y-38760811D01*
X52258460Y-38691653D01*
X52287485Y-38628097D01*
X52340243Y-38592259D01*
X52354120Y-38587402D01*
X52361146Y-38584944D01*
X52500263Y-38497531D01*
X52616440Y-38381354D01*
X52703853Y-38242237D01*
X52703855Y-38242229D01*
X52705377Y-38239070D01*
X52706909Y-38237372D01*
X52707558Y-38236340D01*
X52707738Y-38236453D01*
X52752193Y-38187205D01*
X52776139Y-38175821D01*
X52818346Y-38161053D01*
X52934028Y-38088364D01*
X53001264Y-38069365D01*
X53065972Y-38088365D01*
X53181650Y-38161051D01*
X53181654Y-38161053D01*
X53336733Y-38215317D01*
X53336734Y-38215317D01*
X53336738Y-38215318D01*
X53499996Y-38233713D01*
X53500000Y-38233713D01*
X53500004Y-38233713D01*
X53663261Y-38215318D01*
X53663263Y-38215317D01*
X53663267Y-38215317D01*
X53818346Y-38161053D01*
X53957463Y-38073640D01*
X54073640Y-37957463D01*
X54161053Y-37818346D01*
X54215317Y-37663267D01*
X54219241Y-37628441D01*
X54233713Y-37500003D01*
X54233713Y-37499996D01*
X54215318Y-37336738D01*
X54215317Y-37336734D01*
X54210400Y-37322683D01*
X54161053Y-37181654D01*
X54073640Y-37042537D01*
X53957463Y-36926360D01*
X53844730Y-36855525D01*
X53818348Y-36838948D01*
X53818345Y-36838946D01*
X53758189Y-36817897D01*
X53701413Y-36777176D01*
X53682102Y-36741810D01*
X53680229Y-36736458D01*
X53661053Y-36681654D01*
X53641163Y-36650000D01*
X53593183Y-36573640D01*
X53573640Y-36542537D01*
X53457463Y-36426360D01*
X53414283Y-36399228D01*
X53318347Y-36338947D01*
X53163265Y-36284682D01*
X53163261Y-36284681D01*
X53000004Y-36266287D01*
X52999996Y-36266287D01*
X52850807Y-36283096D01*
X52781985Y-36271041D01*
X52730606Y-36223692D01*
X52716033Y-36187468D01*
X52715318Y-36184336D01*
X52661052Y-36029252D01*
X52599444Y-35931204D01*
X52573640Y-35890137D01*
X52457463Y-35773960D01*
X52434027Y-35759234D01*
X52318345Y-35686546D01*
X52249744Y-35662541D01*
X52192969Y-35621819D01*
X52167222Y-35556866D01*
X52166700Y-35545500D01*
X52166700Y-33966842D01*
X52166700Y-33966841D01*
X52141322Y-33905572D01*
X52094428Y-33858678D01*
X50735746Y-32499996D01*
X55491287Y-32499996D01*
X55491287Y-32500003D01*
X55509681Y-32663261D01*
X55509682Y-32663265D01*
X55563947Y-32818347D01*
X55631908Y-32926505D01*
X55651360Y-32957463D01*
X55767537Y-33073640D01*
X55906654Y-33161053D01*
X56061733Y-33215317D01*
X56061734Y-33215317D01*
X56061738Y-33215318D01*
X56224996Y-33233713D01*
X56225000Y-33233713D01*
X56225004Y-33233713D01*
X56388261Y-33215318D01*
X56388263Y-33215317D01*
X56388267Y-33215317D01*
X56543346Y-33161053D01*
X56682463Y-33073640D01*
X56798640Y-32957463D01*
X56886053Y-32818346D01*
X56940317Y-32663267D01*
X56940318Y-32663261D01*
X56958713Y-32500003D01*
X56958713Y-32499996D01*
X56940318Y-32336738D01*
X56940317Y-32336734D01*
X56937919Y-32329882D01*
X56886053Y-32181654D01*
X56798640Y-32042537D01*
X56682463Y-31926360D01*
X56543347Y-31838947D01*
X56388265Y-31784682D01*
X56388261Y-31784681D01*
X56225004Y-31766287D01*
X56224996Y-31766287D01*
X56061738Y-31784681D01*
X56061734Y-31784682D01*
X55906652Y-31838947D01*
X55767536Y-31926360D01*
X55651360Y-32042536D01*
X55563947Y-32181652D01*
X55509682Y-32336734D01*
X55509681Y-32336738D01*
X55491287Y-32499996D01*
X50735746Y-32499996D01*
X49971107Y-31735357D01*
X49937622Y-31674034D01*
X49942606Y-31604342D01*
X49971103Y-31559999D01*
X50073640Y-31457463D01*
X50161053Y-31318346D01*
X50182102Y-31258189D01*
X50222823Y-31201414D01*
X50258191Y-31182102D01*
X50269573Y-31178118D01*
X50318346Y-31161053D01*
X50318352Y-31161049D01*
X50324612Y-31158035D01*
X50325239Y-31159337D01*
X50384899Y-31142467D01*
X50431110Y-31151901D01*
X50466836Y-31166699D01*
X50466841Y-31166701D01*
X50466842Y-31166701D01*
X50547593Y-31166701D01*
X50547601Y-31166700D01*
X54197901Y-31166700D01*
X54264940Y-31186385D01*
X54310695Y-31239189D01*
X54314943Y-31249746D01*
X54338947Y-31318347D01*
X54426358Y-31457460D01*
X54426360Y-31457463D01*
X54542537Y-31573640D01*
X54681654Y-31661053D01*
X54836733Y-31715317D01*
X54836734Y-31715317D01*
X54836738Y-31715318D01*
X54999996Y-31733713D01*
X55000000Y-31733713D01*
X55000004Y-31733713D01*
X55163261Y-31715318D01*
X55163263Y-31715317D01*
X55163267Y-31715317D01*
X55318346Y-31661053D01*
X55457463Y-31573640D01*
X55573640Y-31457463D01*
X55661053Y-31318346D01*
X55715317Y-31163267D01*
X55715318Y-31163261D01*
X55733713Y-31000003D01*
X55733713Y-30999996D01*
X55715318Y-30836738D01*
X55715317Y-30836734D01*
X55714115Y-30833300D01*
X55661053Y-30681654D01*
X55645941Y-30657604D01*
X55600286Y-30584944D01*
X55573640Y-30542537D01*
X55457463Y-30426360D01*
X55318347Y-30338947D01*
X55163265Y-30284682D01*
X55163261Y-30284681D01*
X55000004Y-30266287D01*
X54999996Y-30266287D01*
X54836738Y-30284681D01*
X54836734Y-30284682D01*
X54681652Y-30338947D01*
X54542536Y-30426360D01*
X54426360Y-30542536D01*
X54338947Y-30681652D01*
X54314943Y-30750254D01*
X54274221Y-30807030D01*
X54209268Y-30832778D01*
X54197901Y-30833300D01*
X52381197Y-30833300D01*
X52314158Y-30813615D01*
X52268403Y-30760811D01*
X52258459Y-30691653D01*
X52287484Y-30628097D01*
X52340242Y-30592259D01*
X52361143Y-30584945D01*
X52390027Y-30566797D01*
X52455998Y-30547791D01*
X52652066Y-30547791D01*
X52652068Y-30547791D01*
X52713337Y-30522413D01*
X53047328Y-30188420D01*
X53108649Y-30154937D01*
X53175961Y-30159061D01*
X53181654Y-30161053D01*
X53336733Y-30215317D01*
X53336734Y-30215317D01*
X53336738Y-30215318D01*
X53499996Y-30233713D01*
X53500000Y-30233713D01*
X53500004Y-30233713D01*
X53663261Y-30215318D01*
X53663263Y-30215317D01*
X53663267Y-30215317D01*
X53818346Y-30161053D01*
X53957463Y-30073640D01*
X54073640Y-29957463D01*
X54161053Y-29818346D01*
X54215317Y-29663267D01*
X54215318Y-29663261D01*
X54233713Y-29500003D01*
X54233713Y-29499996D01*
X54215318Y-29336738D01*
X54215317Y-29336734D01*
X54167593Y-29200346D01*
X54161053Y-29181654D01*
X54073640Y-29042537D01*
X53957463Y-28926360D01*
X53886869Y-28882003D01*
X53818348Y-28838948D01*
X53818345Y-28838946D01*
X53758189Y-28817897D01*
X53701413Y-28777176D01*
X53682102Y-28741810D01*
X53674027Y-28718734D01*
X53661053Y-28681654D01*
X53573640Y-28542537D01*
X53457463Y-28426360D01*
X53454560Y-28424536D01*
X53318347Y-28338947D01*
X53163265Y-28284682D01*
X53163261Y-28284681D01*
X53000004Y-28266287D01*
X52999996Y-28266287D01*
X52837561Y-28284588D01*
X52768739Y-28272533D01*
X52717360Y-28225184D01*
X52706636Y-28202322D01*
X52699153Y-28180937D01*
X52661053Y-28072051D01*
X52573640Y-27932934D01*
X52457463Y-27816757D01*
X52373098Y-27763747D01*
X52318345Y-27729343D01*
X52249744Y-27705338D01*
X52192969Y-27664616D01*
X52167222Y-27599663D01*
X52166700Y-27588297D01*
X52166700Y-25966842D01*
X52166700Y-25966841D01*
X52141322Y-25905572D01*
X52094428Y-25858678D01*
X49971107Y-23735357D01*
X49937622Y-23674034D01*
X49942606Y-23604342D01*
X49971103Y-23559999D01*
X50073640Y-23457463D01*
X50161053Y-23318346D01*
X50182102Y-23258189D01*
X50222823Y-23201414D01*
X50258191Y-23182102D01*
X50269573Y-23178118D01*
X50318346Y-23161053D01*
X50318352Y-23161049D01*
X50324612Y-23158035D01*
X50325239Y-23159337D01*
X50384899Y-23142467D01*
X50431110Y-23151901D01*
X50466836Y-23166699D01*
X50466841Y-23166701D01*
X50466842Y-23166701D01*
X50547593Y-23166701D01*
X50547601Y-23166700D01*
X54197901Y-23166700D01*
X54264940Y-23186385D01*
X54310695Y-23239189D01*
X54314943Y-23249746D01*
X54338947Y-23318347D01*
X54406817Y-23426360D01*
X54426360Y-23457463D01*
X54542537Y-23573640D01*
X54591399Y-23604342D01*
X54668767Y-23652956D01*
X54681654Y-23661053D01*
X54836733Y-23715317D01*
X54836734Y-23715317D01*
X54836738Y-23715318D01*
X54999996Y-23733713D01*
X55000000Y-23733713D01*
X55000004Y-23733713D01*
X55163261Y-23715318D01*
X55163263Y-23715317D01*
X55163267Y-23715317D01*
X55318346Y-23661053D01*
X55331233Y-23652956D01*
X55342349Y-23645971D01*
X55409585Y-23626970D01*
X55476421Y-23647337D01*
X55521635Y-23700604D01*
X55530874Y-23769860D01*
X55525364Y-23791918D01*
X55509682Y-23836733D01*
X55509681Y-23836738D01*
X55491287Y-23999996D01*
X55491287Y-24000003D01*
X55509681Y-24163261D01*
X55509682Y-24163265D01*
X55563947Y-24318347D01*
X55597455Y-24371674D01*
X55651360Y-24457463D01*
X55767537Y-24573640D01*
X55906654Y-24661053D01*
X56061733Y-24715317D01*
X56061734Y-24715317D01*
X56061738Y-24715318D01*
X56224996Y-24733713D01*
X56225000Y-24733713D01*
X56225004Y-24733713D01*
X56388261Y-24715318D01*
X56388263Y-24715317D01*
X56388267Y-24715317D01*
X56543346Y-24661053D01*
X56682463Y-24573640D01*
X56798640Y-24457463D01*
X56886053Y-24318346D01*
X56940317Y-24163267D01*
X56944006Y-24130526D01*
X56958713Y-24000003D01*
X56958713Y-23999996D01*
X56940318Y-23836738D01*
X56940317Y-23836734D01*
X56924635Y-23791918D01*
X56886053Y-23681654D01*
X56854085Y-23630778D01*
X56818183Y-23573640D01*
X56798640Y-23542537D01*
X56682463Y-23426360D01*
X56543347Y-23338947D01*
X56388265Y-23284682D01*
X56388261Y-23284681D01*
X56225004Y-23266287D01*
X56224996Y-23266287D01*
X56061738Y-23284681D01*
X56061734Y-23284682D01*
X55906652Y-23338947D01*
X55906646Y-23338950D01*
X55882646Y-23354030D01*
X55815409Y-23373029D01*
X55748574Y-23352660D01*
X55703362Y-23299390D01*
X55694126Y-23230134D01*
X55699634Y-23208086D01*
X55715317Y-23163267D01*
X55715318Y-23163261D01*
X55733713Y-23000003D01*
X55733713Y-22999996D01*
X55715318Y-22836738D01*
X55715317Y-22836734D01*
X55714115Y-22833300D01*
X55661053Y-22681654D01*
X55573640Y-22542537D01*
X55457463Y-22426360D01*
X55318347Y-22338947D01*
X55163265Y-22284682D01*
X55163261Y-22284681D01*
X55000004Y-22266287D01*
X54999996Y-22266287D01*
X54836738Y-22284681D01*
X54836734Y-22284682D01*
X54681652Y-22338947D01*
X54542536Y-22426360D01*
X54426360Y-22542536D01*
X54338947Y-22681652D01*
X54314943Y-22750254D01*
X54274221Y-22807030D01*
X54209268Y-22832778D01*
X54197901Y-22833300D01*
X52415151Y-22833300D01*
X52348112Y-22813615D01*
X52302357Y-22760811D01*
X52292413Y-22691653D01*
X52321438Y-22628097D01*
X52355614Y-22601965D01*
X52355249Y-22601383D01*
X52448901Y-22542537D01*
X52500262Y-22510265D01*
X52616439Y-22394088D01*
X52703852Y-22254971D01*
X52705601Y-22249970D01*
X52746317Y-22193195D01*
X52781690Y-22173878D01*
X52818346Y-22161053D01*
X52934030Y-22088363D01*
X53001263Y-22069364D01*
X53065971Y-22088364D01*
X53181654Y-22161053D01*
X53336733Y-22215317D01*
X53336734Y-22215317D01*
X53336738Y-22215318D01*
X53499996Y-22233713D01*
X53500000Y-22233713D01*
X53500004Y-22233713D01*
X53663261Y-22215318D01*
X53663263Y-22215317D01*
X53663267Y-22215317D01*
X53818346Y-22161053D01*
X53957463Y-22073640D01*
X54073640Y-21957463D01*
X54161053Y-21818346D01*
X54215317Y-21663267D01*
X54215318Y-21663261D01*
X54233713Y-21500003D01*
X54233713Y-21499996D01*
X54215318Y-21336738D01*
X54215317Y-21336734D01*
X54211955Y-21327127D01*
X54161053Y-21181654D01*
X54160565Y-21180878D01*
X54100857Y-21085853D01*
X54073640Y-21042537D01*
X53957463Y-20926360D01*
X53898877Y-20889548D01*
X53818348Y-20838948D01*
X53818345Y-20838946D01*
X53758189Y-20817897D01*
X53701413Y-20777176D01*
X53682102Y-20741810D01*
X53674027Y-20718734D01*
X53661053Y-20681654D01*
X53573640Y-20542537D01*
X53457463Y-20426360D01*
X53454560Y-20424536D01*
X53318347Y-20338947D01*
X53163265Y-20284682D01*
X53163261Y-20284681D01*
X53000004Y-20266287D01*
X52999996Y-20266287D01*
X52837561Y-20284588D01*
X52768739Y-20272533D01*
X52717360Y-20225184D01*
X52706636Y-20202322D01*
X52699153Y-20180937D01*
X52661053Y-20072051D01*
X52573640Y-19932934D01*
X52457463Y-19816757D01*
X52373098Y-19763747D01*
X52318345Y-19729343D01*
X52249744Y-19705338D01*
X52192969Y-19664616D01*
X52167222Y-19599663D01*
X52166700Y-19588297D01*
X52166700Y-17966842D01*
X52166700Y-17966841D01*
X52141322Y-17905572D01*
X52094428Y-17858678D01*
X49971107Y-15735357D01*
X49937622Y-15674034D01*
X49942606Y-15604342D01*
X49971103Y-15559999D01*
X50073640Y-15457463D01*
X50161053Y-15318346D01*
X50215317Y-15163267D01*
X50215318Y-15163261D01*
X50233713Y-15000003D01*
X50233713Y-14999996D01*
X50215318Y-14836738D01*
X50215317Y-14836734D01*
X50214115Y-14833300D01*
X50161053Y-14681654D01*
X50073640Y-14542537D01*
X49957463Y-14426360D01*
X49818347Y-14338947D01*
X49663265Y-14284682D01*
X49663261Y-14284681D01*
X49500004Y-14266287D01*
X49499996Y-14266287D01*
X49336738Y-14284681D01*
X49336734Y-14284682D01*
X49181652Y-14338947D01*
X49042536Y-14426360D01*
X48926360Y-14542536D01*
X48838947Y-14681652D01*
X48784682Y-14836734D01*
X48784681Y-14836738D01*
X48766287Y-14999996D01*
X48766287Y-15000003D01*
X48784681Y-15163261D01*
X48784682Y-15163265D01*
X48838947Y-15318347D01*
X48910704Y-15432547D01*
X48926360Y-15457463D01*
X49042537Y-15573640D01*
X49060179Y-15584725D01*
X49159269Y-15646988D01*
X49181654Y-15661053D01*
X49336733Y-15715317D01*
X49418654Y-15724547D01*
X49454587Y-15728596D01*
X49519001Y-15755662D01*
X49528385Y-15764135D01*
X51796981Y-18032731D01*
X51830466Y-18094054D01*
X51833300Y-18120412D01*
X51833300Y-19588297D01*
X51813615Y-19655336D01*
X51760811Y-19701091D01*
X51750256Y-19705338D01*
X51681655Y-19729343D01*
X51681653Y-19729344D01*
X51538596Y-19819233D01*
X51471359Y-19838233D01*
X51406652Y-19819233D01*
X51318346Y-19763747D01*
X51318347Y-19763747D01*
X51163265Y-19709482D01*
X51163261Y-19709481D01*
X51000004Y-19691087D01*
X50999996Y-19691087D01*
X50836738Y-19709481D01*
X50836734Y-19709482D01*
X50681652Y-19763747D01*
X50542536Y-19851160D01*
X50426360Y-19967336D01*
X50338943Y-20106459D01*
X50336863Y-20110778D01*
X50290034Y-20162632D01*
X50222605Y-20180937D01*
X50184197Y-20174005D01*
X50163271Y-20166683D01*
X50163266Y-20166682D01*
X50000004Y-20148287D01*
X49999996Y-20148287D01*
X49836738Y-20166681D01*
X49836734Y-20166682D01*
X49681652Y-20220947D01*
X49542536Y-20308360D01*
X49426360Y-20424536D01*
X49338947Y-20563652D01*
X49284682Y-20718734D01*
X49284681Y-20718738D01*
X49266287Y-20881996D01*
X49266287Y-20882003D01*
X49284681Y-21045261D01*
X49284682Y-21045265D01*
X49338947Y-21200347D01*
X49387883Y-21278227D01*
X49426360Y-21339463D01*
X49542537Y-21455640D01*
X49613129Y-21499996D01*
X49662799Y-21531206D01*
X49681654Y-21543053D01*
X49752494Y-21567841D01*
X49769976Y-21573958D01*
X49826752Y-21614680D01*
X49852500Y-21679633D01*
X49839044Y-21748194D01*
X49790657Y-21798597D01*
X49769976Y-21808042D01*
X49681652Y-21838947D01*
X49542536Y-21926360D01*
X49426360Y-22042536D01*
X49338948Y-22181651D01*
X49317896Y-22241812D01*
X49277173Y-22298587D01*
X49241812Y-22317896D01*
X49181651Y-22338948D01*
X49042536Y-22426360D01*
X48926360Y-22542536D01*
X48838947Y-22681652D01*
X48784682Y-22836734D01*
X48784681Y-22836738D01*
X48766287Y-22999996D01*
X48766287Y-23000003D01*
X48784681Y-23163261D01*
X48784682Y-23163265D01*
X48838947Y-23318347D01*
X48906817Y-23426360D01*
X48926360Y-23457463D01*
X49042537Y-23573640D01*
X49091399Y-23604342D01*
X49168767Y-23652956D01*
X49181654Y-23661053D01*
X49336733Y-23715317D01*
X49418654Y-23724547D01*
X49454587Y-23728596D01*
X49519001Y-23755662D01*
X49528385Y-23764135D01*
X51796981Y-26032731D01*
X51830466Y-26094054D01*
X51833300Y-26120412D01*
X51833300Y-27588297D01*
X51813615Y-27655336D01*
X51760811Y-27701091D01*
X51750256Y-27705338D01*
X51681655Y-27729343D01*
X51681653Y-27729344D01*
X51538596Y-27819233D01*
X51471359Y-27838233D01*
X51406652Y-27819233D01*
X51318346Y-27763747D01*
X51318347Y-27763747D01*
X51163265Y-27709482D01*
X51163261Y-27709481D01*
X51000004Y-27691087D01*
X50999996Y-27691087D01*
X50836738Y-27709481D01*
X50836734Y-27709482D01*
X50681652Y-27763747D01*
X50542536Y-27851160D01*
X50426360Y-27967336D01*
X50338943Y-28106459D01*
X50336863Y-28110778D01*
X50290034Y-28162632D01*
X50222605Y-28180937D01*
X50184197Y-28174005D01*
X50163271Y-28166683D01*
X50163266Y-28166682D01*
X50000004Y-28148287D01*
X49999996Y-28148287D01*
X49836738Y-28166681D01*
X49836734Y-28166682D01*
X49681652Y-28220947D01*
X49542536Y-28308360D01*
X49426360Y-28424536D01*
X49338947Y-28563652D01*
X49284682Y-28718734D01*
X49284681Y-28718738D01*
X49266287Y-28881996D01*
X49266287Y-28882003D01*
X49284681Y-29045261D01*
X49284682Y-29045265D01*
X49338947Y-29200347D01*
X49424645Y-29336733D01*
X49426360Y-29339463D01*
X49542537Y-29455640D01*
X49681654Y-29543053D01*
X49752494Y-29567841D01*
X49769976Y-29573958D01*
X49826752Y-29614680D01*
X49852500Y-29679633D01*
X49839044Y-29748194D01*
X49790657Y-29798597D01*
X49769976Y-29808042D01*
X49681652Y-29838947D01*
X49652772Y-29857094D01*
X49586801Y-29876100D01*
X38133667Y-29876100D01*
X38133659Y-29876099D01*
X38119225Y-29876099D01*
X38052907Y-29876099D01*
X38052906Y-29876099D01*
X37991635Y-29901479D01*
X34386568Y-33506548D01*
X34339674Y-33553441D01*
X34314296Y-33614711D01*
X34314296Y-34208904D01*
X34294611Y-34275943D01*
X34241807Y-34321698D01*
X34231252Y-34325945D01*
X34162651Y-34349950D01*
X34162649Y-34349950D01*
X34023532Y-34437364D01*
X33907356Y-34553540D01*
X33819943Y-34692656D01*
X33765678Y-34847738D01*
X33765677Y-34847742D01*
X33747283Y-35011000D01*
X33747283Y-35011007D01*
X33765677Y-35174265D01*
X33765678Y-35174269D01*
X33819943Y-35329351D01*
X33894675Y-35448286D01*
X33913675Y-35515523D01*
X33894675Y-35580230D01*
X33830947Y-35681652D01*
X33776682Y-35836734D01*
X33776681Y-35836738D01*
X33758287Y-35999996D01*
X33758287Y-36000003D01*
X33776681Y-36163261D01*
X33776682Y-36163265D01*
X33818945Y-36284046D01*
X33822506Y-36353825D01*
X33818945Y-36365954D01*
X33776682Y-36486734D01*
X33776681Y-36486738D01*
X33758287Y-36649996D01*
X33758287Y-36650004D01*
X33765914Y-36717700D01*
X33753859Y-36786522D01*
X33706510Y-36837901D01*
X33638899Y-36855525D01*
X33572494Y-36833798D01*
X33555013Y-36819264D01*
X33396802Y-36661053D01*
X33188422Y-36452672D01*
X33154937Y-36391349D01*
X33159062Y-36324036D01*
X33215316Y-36163271D01*
X33215318Y-36163261D01*
X33233713Y-36000003D01*
X33233713Y-35999996D01*
X33215318Y-35836738D01*
X33215317Y-35836734D01*
X33214115Y-35833300D01*
X33161053Y-35681654D01*
X33073640Y-35542537D01*
X32957463Y-35426360D01*
X32818347Y-35338947D01*
X32663265Y-35284682D01*
X32663261Y-35284681D01*
X32500004Y-35266287D01*
X32499996Y-35266287D01*
X32336738Y-35284681D01*
X32336734Y-35284682D01*
X32181652Y-35338947D01*
X32042536Y-35426360D01*
X31926360Y-35542536D01*
X31838947Y-35681652D01*
X31784682Y-35836734D01*
X31784681Y-35836738D01*
X31766287Y-35999996D01*
X31766287Y-36000003D01*
X31784681Y-36163261D01*
X31784682Y-36163265D01*
X31838947Y-36318347D01*
X31906817Y-36426360D01*
X31926360Y-36457463D01*
X32042537Y-36573640D01*
X32073724Y-36593236D01*
X32120015Y-36645571D01*
X32130663Y-36714625D01*
X32112746Y-36764202D01*
X32038947Y-36881652D01*
X31984682Y-37036734D01*
X31984681Y-37036738D01*
X31966287Y-37199996D01*
X31966287Y-37200003D01*
X31984682Y-37363265D01*
X32007615Y-37428805D01*
X32011176Y-37498584D01*
X31978256Y-37557439D01*
X31926361Y-37609335D01*
X31838947Y-37748452D01*
X31784682Y-37903534D01*
X31784681Y-37903538D01*
X31766287Y-38066796D01*
X31766287Y-38066802D01*
X31784682Y-38230066D01*
X31813867Y-38313475D01*
X31817428Y-38383254D01*
X31813867Y-38395382D01*
X31766194Y-38531624D01*
X31766193Y-38531629D01*
X31747799Y-38694887D01*
X31747799Y-38694894D01*
X31766193Y-38858152D01*
X31766194Y-38858157D01*
X31810596Y-38985051D01*
X31814157Y-39054830D01*
X31810596Y-39066958D01*
X31784707Y-39140946D01*
X31766312Y-39304210D01*
X31766312Y-39304216D01*
X31784706Y-39467474D01*
X31784707Y-39467478D01*
X31834968Y-39611116D01*
X31838529Y-39680895D01*
X31834968Y-39693024D01*
X31784682Y-39836733D01*
X31784681Y-39836738D01*
X31766287Y-39999996D01*
X31766287Y-40000003D01*
X31784681Y-40163261D01*
X31784682Y-40163265D01*
X31840938Y-40324036D01*
X31844499Y-40393815D01*
X31811577Y-40452671D01*
X29405572Y-42858678D01*
X29358678Y-42905571D01*
X29333300Y-42966841D01*
X29333300Y-43909830D01*
X29313615Y-43976869D01*
X29260811Y-44022624D01*
X29191653Y-44032568D01*
X29183444Y-44031012D01*
X29122883Y-44024501D01*
X29122881Y-44024500D01*
X29122873Y-44024500D01*
X29122864Y-44024500D01*
X27327129Y-44024500D01*
X27327123Y-44024501D01*
X27267515Y-44030909D01*
X27167332Y-44068274D01*
X27097640Y-44073258D01*
X27036318Y-44039772D01*
X27002833Y-43978449D01*
X27000000Y-43952092D01*
X27000000Y-32499996D01*
X27666287Y-32499996D01*
X27666287Y-32500003D01*
X27684681Y-32663261D01*
X27684682Y-32663265D01*
X27738947Y-32818347D01*
X27806908Y-32926505D01*
X27826360Y-32957463D01*
X27942537Y-33073640D01*
X28081654Y-33161053D01*
X28236733Y-33215317D01*
X28236734Y-33215317D01*
X28236738Y-33215318D01*
X28399996Y-33233713D01*
X28400000Y-33233713D01*
X28400004Y-33233713D01*
X28563261Y-33215318D01*
X28563263Y-33215317D01*
X28563267Y-33215317D01*
X28718346Y-33161053D01*
X28857463Y-33073640D01*
X28973640Y-32957463D01*
X29061053Y-32818346D01*
X29115317Y-32663267D01*
X29115318Y-32663261D01*
X29133713Y-32500003D01*
X29133713Y-32499996D01*
X32766287Y-32499996D01*
X32766287Y-32500003D01*
X32784681Y-32663261D01*
X32784682Y-32663265D01*
X32838947Y-32818347D01*
X32906908Y-32926505D01*
X32926360Y-32957463D01*
X33042537Y-33073640D01*
X33181654Y-33161053D01*
X33336733Y-33215317D01*
X33336734Y-33215317D01*
X33336738Y-33215318D01*
X33499996Y-33233713D01*
X33500000Y-33233713D01*
X33500004Y-33233713D01*
X33663261Y-33215318D01*
X33663263Y-33215317D01*
X33663267Y-33215317D01*
X33818346Y-33161053D01*
X33957463Y-33073640D01*
X34073640Y-32957463D01*
X34161053Y-32818346D01*
X34215317Y-32663267D01*
X34215318Y-32663261D01*
X34233713Y-32500003D01*
X34233713Y-32499996D01*
X34215318Y-32336738D01*
X34215317Y-32336734D01*
X34212919Y-32329882D01*
X34161053Y-32181654D01*
X34073640Y-32042537D01*
X33957463Y-31926360D01*
X33818347Y-31838947D01*
X33663265Y-31784682D01*
X33663261Y-31784681D01*
X33500004Y-31766287D01*
X33499996Y-31766287D01*
X33336738Y-31784681D01*
X33336734Y-31784682D01*
X33181652Y-31838947D01*
X33042536Y-31926360D01*
X32926360Y-32042536D01*
X32838947Y-32181652D01*
X32784682Y-32336734D01*
X32784681Y-32336738D01*
X32766287Y-32499996D01*
X29133713Y-32499996D01*
X29115318Y-32336738D01*
X29115317Y-32336734D01*
X29112919Y-32329882D01*
X29061053Y-32181654D01*
X28973640Y-32042537D01*
X28857463Y-31926360D01*
X28718347Y-31838947D01*
X28563265Y-31784682D01*
X28563261Y-31784681D01*
X28400004Y-31766287D01*
X28399996Y-31766287D01*
X28236738Y-31784681D01*
X28236734Y-31784682D01*
X28081652Y-31838947D01*
X27942536Y-31926360D01*
X27826360Y-32042536D01*
X27738947Y-32181652D01*
X27684682Y-32336734D01*
X27684681Y-32336738D01*
X27666287Y-32499996D01*
X27000000Y-32499996D01*
X27000000Y-27499996D01*
X29266287Y-27499996D01*
X29266287Y-27500003D01*
X29284681Y-27663261D01*
X29284682Y-27663265D01*
X29338947Y-27818347D01*
X29359565Y-27851160D01*
X29426360Y-27957463D01*
X29542537Y-28073640D01*
X29681654Y-28161053D01*
X29836733Y-28215317D01*
X29836734Y-28215317D01*
X29836738Y-28215318D01*
X29999996Y-28233713D01*
X30000000Y-28233713D01*
X30000004Y-28233713D01*
X30163261Y-28215318D01*
X30163263Y-28215317D01*
X30163267Y-28215317D01*
X30318346Y-28161053D01*
X30457463Y-28073640D01*
X30573640Y-27957463D01*
X30661053Y-27818346D01*
X30715317Y-27663267D01*
X30715318Y-27663261D01*
X30733713Y-27500003D01*
X30733713Y-27499996D01*
X30715318Y-27336738D01*
X30715317Y-27336734D01*
X30708883Y-27318347D01*
X30661053Y-27181654D01*
X30649498Y-27163265D01*
X30573639Y-27042536D01*
X30531099Y-26999996D01*
X39766287Y-26999996D01*
X39766287Y-27000003D01*
X39784681Y-27163261D01*
X39784682Y-27163265D01*
X39838947Y-27318347D01*
X39850503Y-27336738D01*
X39926360Y-27457463D01*
X40042537Y-27573640D01*
X40181654Y-27661053D01*
X40336733Y-27715317D01*
X40336734Y-27715317D01*
X40336738Y-27715318D01*
X40499996Y-27733713D01*
X40500000Y-27733713D01*
X40500004Y-27733713D01*
X40663261Y-27715318D01*
X40663263Y-27715317D01*
X40663267Y-27715317D01*
X40818346Y-27661053D01*
X40957463Y-27573640D01*
X41073640Y-27457463D01*
X41161053Y-27318346D01*
X41215317Y-27163267D01*
X41215318Y-27163261D01*
X41233713Y-27000003D01*
X41233713Y-26999996D01*
X47766287Y-26999996D01*
X47766287Y-27000003D01*
X47784681Y-27163261D01*
X47784682Y-27163265D01*
X47838947Y-27318347D01*
X47850503Y-27336738D01*
X47926360Y-27457463D01*
X48042537Y-27573640D01*
X48181654Y-27661053D01*
X48336733Y-27715317D01*
X48336734Y-27715317D01*
X48336738Y-27715318D01*
X48499996Y-27733713D01*
X48500000Y-27733713D01*
X48500004Y-27733713D01*
X48663261Y-27715318D01*
X48663263Y-27715317D01*
X48663267Y-27715317D01*
X48818346Y-27661053D01*
X48957463Y-27573640D01*
X49073640Y-27457463D01*
X49161053Y-27318346D01*
X49215317Y-27163267D01*
X49215318Y-27163261D01*
X49233713Y-27000003D01*
X49233713Y-26999996D01*
X49215318Y-26836738D01*
X49215317Y-26836734D01*
X49197103Y-26784682D01*
X49161053Y-26681654D01*
X49073640Y-26542537D01*
X48957463Y-26426360D01*
X48818347Y-26338947D01*
X48663265Y-26284682D01*
X48663261Y-26284681D01*
X48500004Y-26266287D01*
X48499996Y-26266287D01*
X48336738Y-26284681D01*
X48336734Y-26284682D01*
X48181652Y-26338947D01*
X48042536Y-26426360D01*
X47926360Y-26542536D01*
X47838947Y-26681652D01*
X47784682Y-26836734D01*
X47784681Y-26836738D01*
X47766287Y-26999996D01*
X41233713Y-26999996D01*
X41215318Y-26836738D01*
X41215317Y-26836734D01*
X41197103Y-26784682D01*
X41161053Y-26681654D01*
X41073640Y-26542537D01*
X40957463Y-26426360D01*
X40818347Y-26338947D01*
X40663265Y-26284682D01*
X40663261Y-26284681D01*
X40500004Y-26266287D01*
X40499996Y-26266287D01*
X40336738Y-26284681D01*
X40336734Y-26284682D01*
X40181652Y-26338947D01*
X40042536Y-26426360D01*
X39926360Y-26542536D01*
X39838947Y-26681652D01*
X39784682Y-26836734D01*
X39784681Y-26836738D01*
X39766287Y-26999996D01*
X30531099Y-26999996D01*
X30457463Y-26926360D01*
X30318347Y-26838947D01*
X30163265Y-26784682D01*
X30163261Y-26784681D01*
X30000004Y-26766287D01*
X29999996Y-26766287D01*
X29836738Y-26784681D01*
X29836734Y-26784682D01*
X29681652Y-26838947D01*
X29542536Y-26926360D01*
X29426360Y-27042536D01*
X29338947Y-27181652D01*
X29284682Y-27336734D01*
X29284681Y-27336738D01*
X29266287Y-27499996D01*
X27000000Y-27499996D01*
X27000000Y-24499996D01*
X43476387Y-24499996D01*
X43476387Y-24500003D01*
X43494781Y-24663261D01*
X43494782Y-24663265D01*
X43549047Y-24818347D01*
X43625280Y-24939670D01*
X43636460Y-24957463D01*
X43752637Y-25073640D01*
X43891754Y-25161053D01*
X44046833Y-25215317D01*
X44046834Y-25215317D01*
X44046838Y-25215318D01*
X44210096Y-25233713D01*
X44210100Y-25233713D01*
X44210104Y-25233713D01*
X44373361Y-25215318D01*
X44373363Y-25215317D01*
X44373367Y-25215317D01*
X44528446Y-25161053D01*
X44667563Y-25073640D01*
X44783740Y-24957463D01*
X44871153Y-24818346D01*
X44925417Y-24663267D01*
X44925418Y-24663261D01*
X44943813Y-24500003D01*
X44943813Y-24499996D01*
X44925418Y-24336738D01*
X44925417Y-24336734D01*
X44918983Y-24318347D01*
X44871153Y-24181654D01*
X44859598Y-24163265D01*
X44800240Y-24068797D01*
X44783740Y-24042537D01*
X44667563Y-23926360D01*
X44653200Y-23917335D01*
X44528447Y-23838947D01*
X44373365Y-23784682D01*
X44373361Y-23784681D01*
X44210104Y-23766287D01*
X44210096Y-23766287D01*
X44046838Y-23784681D01*
X44046834Y-23784682D01*
X43891752Y-23838947D01*
X43752636Y-23926360D01*
X43636460Y-24042536D01*
X43549047Y-24181652D01*
X43494782Y-24336734D01*
X43494781Y-24336738D01*
X43476387Y-24499996D01*
X27000000Y-24499996D01*
X27000000Y-24249499D01*
X27019685Y-24182460D01*
X27072489Y-24136705D01*
X27123995Y-24125499D01*
X29422872Y-24125499D01*
X29482483Y-24119091D01*
X29617331Y-24068796D01*
X29732546Y-23982546D01*
X29818796Y-23867331D01*
X29869091Y-23732483D01*
X29875500Y-23672873D01*
X29875499Y-22500000D01*
X33119474Y-22500000D01*
X33139547Y-22755064D01*
X33139547Y-22755067D01*
X33139548Y-22755070D01*
X33158330Y-22833300D01*
X33199279Y-23003864D01*
X33297188Y-23240239D01*
X33297190Y-23240242D01*
X33430875Y-23458396D01*
X33430878Y-23458401D01*
X33502737Y-23542536D01*
X33597044Y-23652956D01*
X33717298Y-23755662D01*
X33791598Y-23819121D01*
X33791600Y-23819122D01*
X33791601Y-23819123D01*
X33870276Y-23867335D01*
X34009757Y-23952809D01*
X34009760Y-23952811D01*
X34246135Y-24050720D01*
X34246140Y-24050722D01*
X34494930Y-24110452D01*
X34750000Y-24130526D01*
X35005070Y-24110452D01*
X35253860Y-24050722D01*
X35376323Y-23999996D01*
X35490239Y-23952811D01*
X35490240Y-23952810D01*
X35490243Y-23952809D01*
X35708399Y-23819123D01*
X35902956Y-23652956D01*
X36069123Y-23458399D01*
X36202809Y-23240243D01*
X36206997Y-23230134D01*
X36300720Y-23003864D01*
X36300722Y-23003860D01*
X36360452Y-22755070D01*
X36380526Y-22500000D01*
X36360452Y-22244930D01*
X36300722Y-21996140D01*
X36300720Y-21996135D01*
X36202811Y-21759760D01*
X36202809Y-21759757D01*
X36069124Y-21541603D01*
X36069121Y-21541598D01*
X36009319Y-21471579D01*
X35902956Y-21347044D01*
X35766415Y-21230427D01*
X35708401Y-21180878D01*
X35708396Y-21180875D01*
X35490242Y-21047190D01*
X35490239Y-21047188D01*
X35253864Y-20949279D01*
X35209804Y-20938701D01*
X35005070Y-20889548D01*
X35005067Y-20889547D01*
X35005064Y-20889547D01*
X34750000Y-20869474D01*
X34494935Y-20889547D01*
X34494931Y-20889547D01*
X34494930Y-20889548D01*
X34370535Y-20919413D01*
X34246135Y-20949279D01*
X34009760Y-21047188D01*
X34009757Y-21047190D01*
X33791603Y-21180875D01*
X33791598Y-21180878D01*
X33597044Y-21347044D01*
X33430878Y-21541598D01*
X33430875Y-21541603D01*
X33297190Y-21759757D01*
X33297188Y-21759760D01*
X33199279Y-21996135D01*
X33199278Y-21996140D01*
X33154740Y-22181654D01*
X33139547Y-22244935D01*
X33119474Y-22500000D01*
X29875499Y-22500000D01*
X29875499Y-21327128D01*
X29869091Y-21267517D01*
X29859955Y-21243023D01*
X29818797Y-21132671D01*
X29818793Y-21132664D01*
X29732547Y-21017455D01*
X29732544Y-21017452D01*
X29617335Y-20931206D01*
X29617328Y-20931202D01*
X29482482Y-20880908D01*
X29482483Y-20880908D01*
X29422883Y-20874501D01*
X29422881Y-20874500D01*
X29422873Y-20874500D01*
X29422865Y-20874500D01*
X27124000Y-20874500D01*
X27056961Y-20854815D01*
X27011206Y-20802011D01*
X27000000Y-20750500D01*
X27000000Y-18999996D01*
X47766287Y-18999996D01*
X47766287Y-19000003D01*
X47784681Y-19163261D01*
X47784682Y-19163265D01*
X47838947Y-19318347D01*
X47926360Y-19457463D01*
X48042537Y-19573640D01*
X48181654Y-19661053D01*
X48336733Y-19715317D01*
X48336734Y-19715317D01*
X48336738Y-19715318D01*
X48499996Y-19733713D01*
X48500000Y-19733713D01*
X48500004Y-19733713D01*
X48663261Y-19715318D01*
X48663263Y-19715317D01*
X48663267Y-19715317D01*
X48818346Y-19661053D01*
X48957463Y-19573640D01*
X49073640Y-19457463D01*
X49161053Y-19318346D01*
X49215317Y-19163267D01*
X49233713Y-19000000D01*
X49215317Y-18836733D01*
X49161053Y-18681654D01*
X49147777Y-18660526D01*
X49090278Y-18569016D01*
X49073640Y-18542537D01*
X48957463Y-18426360D01*
X48916961Y-18400911D01*
X48818347Y-18338947D01*
X48663265Y-18284682D01*
X48663261Y-18284681D01*
X48500004Y-18266287D01*
X48499996Y-18266287D01*
X48336738Y-18284681D01*
X48336734Y-18284682D01*
X48181652Y-18338947D01*
X48042536Y-18426360D01*
X47926360Y-18542536D01*
X47838947Y-18681652D01*
X47784682Y-18836734D01*
X47784681Y-18836738D01*
X47766287Y-18999996D01*
X27000000Y-18999996D01*
X27000000Y-16201379D01*
X31724500Y-16201379D01*
X31724500Y-17888620D01*
X31761025Y-18072243D01*
X31761027Y-18072251D01*
X31832676Y-18245228D01*
X31832681Y-18245237D01*
X31936697Y-18400907D01*
X31936700Y-18400911D01*
X32069088Y-18533299D01*
X32069092Y-18533302D01*
X32224762Y-18637318D01*
X32224768Y-18637321D01*
X32224769Y-18637322D01*
X32397749Y-18708973D01*
X32581379Y-18745499D01*
X32581383Y-18745500D01*
X32581384Y-18745500D01*
X32768617Y-18745500D01*
X32768618Y-18745499D01*
X32952251Y-18708973D01*
X33125231Y-18637322D01*
X33227458Y-18569015D01*
X33294135Y-18548138D01*
X33361515Y-18566622D01*
X33388498Y-18589145D01*
X33452770Y-18660526D01*
X33597407Y-18765612D01*
X33760733Y-18838329D01*
X33935609Y-18875500D01*
X33935610Y-18875500D01*
X34114389Y-18875500D01*
X34114391Y-18875500D01*
X34289267Y-18838329D01*
X34399565Y-18789220D01*
X34468814Y-18779937D01*
X34500432Y-18789219D01*
X34610733Y-18838329D01*
X34785609Y-18875500D01*
X34785610Y-18875500D01*
X34964389Y-18875500D01*
X34964391Y-18875500D01*
X35139267Y-18838329D01*
X35249565Y-18789220D01*
X35318814Y-18779937D01*
X35350432Y-18789219D01*
X35460733Y-18838329D01*
X35635609Y-18875500D01*
X35635610Y-18875500D01*
X35814389Y-18875500D01*
X35814391Y-18875500D01*
X35989267Y-18838329D01*
X36099565Y-18789220D01*
X36168814Y-18779937D01*
X36200432Y-18789219D01*
X36310733Y-18838329D01*
X36485609Y-18875500D01*
X36485610Y-18875500D01*
X36664389Y-18875500D01*
X36664391Y-18875500D01*
X36839267Y-18838329D01*
X36949565Y-18789220D01*
X37018814Y-18779937D01*
X37050432Y-18789219D01*
X37160733Y-18838329D01*
X37335609Y-18875500D01*
X37335610Y-18875500D01*
X37514389Y-18875500D01*
X37514391Y-18875500D01*
X37689267Y-18838329D01*
X37799565Y-18789220D01*
X37868814Y-18779937D01*
X37900432Y-18789219D01*
X38010733Y-18838329D01*
X38185609Y-18875500D01*
X38185610Y-18875500D01*
X38364389Y-18875500D01*
X38364391Y-18875500D01*
X38539267Y-18838329D01*
X38649565Y-18789220D01*
X38718814Y-18779937D01*
X38750432Y-18789219D01*
X38860733Y-18838329D01*
X39035609Y-18875500D01*
X39035610Y-18875500D01*
X39214389Y-18875500D01*
X39214391Y-18875500D01*
X39389267Y-18838329D01*
X39499565Y-18789220D01*
X39568814Y-18779937D01*
X39600432Y-18789219D01*
X39710733Y-18838329D01*
X39885609Y-18875500D01*
X39885610Y-18875500D01*
X40064389Y-18875500D01*
X40064391Y-18875500D01*
X40239267Y-18838329D01*
X40402593Y-18765612D01*
X40547230Y-18660526D01*
X40611501Y-18589145D01*
X40670987Y-18552498D01*
X40740844Y-18553827D01*
X40772542Y-18569016D01*
X40874762Y-18637318D01*
X40874768Y-18637321D01*
X40874769Y-18637322D01*
X41047749Y-18708973D01*
X41231379Y-18745499D01*
X41231383Y-18745500D01*
X41231384Y-18745500D01*
X41418617Y-18745500D01*
X41418618Y-18745499D01*
X41602251Y-18708973D01*
X41775231Y-18637322D01*
X41930908Y-18533302D01*
X42063302Y-18400908D01*
X42167322Y-18245231D01*
X42238973Y-18072251D01*
X42275500Y-17888616D01*
X42275500Y-16347596D01*
X43463887Y-16347596D01*
X43463887Y-16347603D01*
X43482281Y-16510861D01*
X43482282Y-16510865D01*
X43536547Y-16665947D01*
X43598786Y-16764999D01*
X43623960Y-16805063D01*
X43740137Y-16921240D01*
X43879254Y-17008653D01*
X44034333Y-17062917D01*
X44034334Y-17062917D01*
X44034338Y-17062918D01*
X44197596Y-17081313D01*
X44197600Y-17081313D01*
X44197604Y-17081313D01*
X44360861Y-17062918D01*
X44360863Y-17062917D01*
X44360867Y-17062917D01*
X44515946Y-17008653D01*
X44655063Y-16921240D01*
X44771240Y-16805063D01*
X44858653Y-16665946D01*
X44912917Y-16510867D01*
X44931313Y-16347600D01*
X44930419Y-16339670D01*
X44912918Y-16184338D01*
X44912917Y-16184334D01*
X44904770Y-16161052D01*
X44858653Y-16029254D01*
X44851428Y-16017756D01*
X44790043Y-15920062D01*
X44771240Y-15890137D01*
X44655063Y-15773960D01*
X44593627Y-15735357D01*
X44515947Y-15686547D01*
X44360865Y-15632282D01*
X44360861Y-15632281D01*
X44197604Y-15613887D01*
X44197596Y-15613887D01*
X44034338Y-15632281D01*
X44034334Y-15632282D01*
X43879252Y-15686547D01*
X43740136Y-15773960D01*
X43623960Y-15890136D01*
X43536547Y-16029252D01*
X43482282Y-16184334D01*
X43482281Y-16184338D01*
X43463887Y-16347596D01*
X42275500Y-16347596D01*
X42275500Y-16201384D01*
X42238973Y-16017749D01*
X42181372Y-15878688D01*
X42167323Y-15844771D01*
X42167318Y-15844762D01*
X42063302Y-15689092D01*
X42063299Y-15689088D01*
X41930911Y-15556700D01*
X41930907Y-15556697D01*
X41775237Y-15452681D01*
X41775228Y-15452676D01*
X41602251Y-15381027D01*
X41602243Y-15381025D01*
X41418620Y-15344500D01*
X41418616Y-15344500D01*
X41231384Y-15344500D01*
X41231379Y-15344500D01*
X41047756Y-15381025D01*
X41047748Y-15381027D01*
X40874771Y-15452676D01*
X40874762Y-15452681D01*
X40719092Y-15556697D01*
X40719088Y-15556700D01*
X40586700Y-15689088D01*
X40586697Y-15689092D01*
X40479293Y-15849834D01*
X40478183Y-15849092D01*
X40433997Y-15894060D01*
X40365857Y-15909510D01*
X40323184Y-15899033D01*
X40277488Y-15878688D01*
X40239267Y-15861671D01*
X40239265Y-15861670D01*
X40111594Y-15834533D01*
X40064391Y-15824500D01*
X39885609Y-15824500D01*
X39848439Y-15832400D01*
X39710734Y-15861670D01*
X39710729Y-15861672D01*
X39600434Y-15910778D01*
X39531184Y-15920062D01*
X39499566Y-15910778D01*
X39389270Y-15861672D01*
X39389265Y-15861670D01*
X39261594Y-15834533D01*
X39214391Y-15824500D01*
X39035609Y-15824500D01*
X38998439Y-15832400D01*
X38860734Y-15861670D01*
X38860729Y-15861672D01*
X38750434Y-15910778D01*
X38681184Y-15920062D01*
X38649566Y-15910778D01*
X38539270Y-15861672D01*
X38539265Y-15861670D01*
X38411594Y-15834533D01*
X38364391Y-15824500D01*
X38185609Y-15824500D01*
X38148439Y-15832400D01*
X38010734Y-15861670D01*
X38010729Y-15861672D01*
X37900434Y-15910778D01*
X37831184Y-15920062D01*
X37799566Y-15910778D01*
X37689270Y-15861672D01*
X37689265Y-15861670D01*
X37561594Y-15834533D01*
X37514391Y-15824500D01*
X37335609Y-15824500D01*
X37298439Y-15832400D01*
X37160734Y-15861670D01*
X37160729Y-15861672D01*
X37050434Y-15910778D01*
X36981184Y-15920062D01*
X36949566Y-15910778D01*
X36839270Y-15861672D01*
X36839265Y-15861670D01*
X36711594Y-15834533D01*
X36664391Y-15824500D01*
X36485609Y-15824500D01*
X36448439Y-15832400D01*
X36310734Y-15861670D01*
X36310729Y-15861672D01*
X36200434Y-15910778D01*
X36131184Y-15920062D01*
X36099566Y-15910778D01*
X35989270Y-15861672D01*
X35989265Y-15861670D01*
X35861594Y-15834533D01*
X35814391Y-15824500D01*
X35635609Y-15824500D01*
X35598439Y-15832400D01*
X35460734Y-15861670D01*
X35460729Y-15861672D01*
X35350434Y-15910778D01*
X35281184Y-15920062D01*
X35249566Y-15910778D01*
X35139270Y-15861672D01*
X35139265Y-15861670D01*
X35011594Y-15834533D01*
X34964391Y-15824500D01*
X34785609Y-15824500D01*
X34748439Y-15832400D01*
X34610734Y-15861670D01*
X34610729Y-15861672D01*
X34500434Y-15910778D01*
X34431184Y-15920062D01*
X34399566Y-15910778D01*
X34289270Y-15861672D01*
X34289265Y-15861670D01*
X34161594Y-15834533D01*
X34114391Y-15824500D01*
X33935609Y-15824500D01*
X33904954Y-15831015D01*
X33760733Y-15861670D01*
X33760732Y-15861670D01*
X33676815Y-15899033D01*
X33607565Y-15908317D01*
X33544288Y-15878688D01*
X33521207Y-15849499D01*
X33520707Y-15849834D01*
X33413302Y-15689092D01*
X33413299Y-15689088D01*
X33280911Y-15556700D01*
X33280907Y-15556697D01*
X33125237Y-15452681D01*
X33125228Y-15452676D01*
X32952251Y-15381027D01*
X32952243Y-15381025D01*
X32768620Y-15344500D01*
X32768616Y-15344500D01*
X32581384Y-15344500D01*
X32581379Y-15344500D01*
X32397756Y-15381025D01*
X32397748Y-15381027D01*
X32224771Y-15452676D01*
X32224762Y-15452681D01*
X32069092Y-15556697D01*
X32069088Y-15556700D01*
X31936700Y-15689088D01*
X31936697Y-15689092D01*
X31832681Y-15844762D01*
X31832676Y-15844771D01*
X31761027Y-16017748D01*
X31761025Y-16017756D01*
X31724500Y-16201379D01*
X27000000Y-16201379D01*
X27000000Y-14342511D01*
X27914403Y-14342511D01*
X27914403Y-14342518D01*
X27934724Y-14522884D01*
X27934725Y-14522889D01*
X27994677Y-14694221D01*
X28091249Y-14847913D01*
X28219601Y-14976265D01*
X28325071Y-15042537D01*
X28373295Y-15072838D01*
X28434990Y-15094426D01*
X28544625Y-15132789D01*
X28544630Y-15132790D01*
X28724996Y-15153112D01*
X28725000Y-15153112D01*
X28725004Y-15153112D01*
X28905369Y-15132790D01*
X28905372Y-15132789D01*
X28905375Y-15132789D01*
X29076705Y-15072838D01*
X29230399Y-14976265D01*
X29358750Y-14847914D01*
X29455323Y-14694220D01*
X29515274Y-14522890D01*
X29515275Y-14522884D01*
X29535597Y-14342518D01*
X29535597Y-14342511D01*
X29515275Y-14162145D01*
X29515274Y-14162140D01*
X29484306Y-14073639D01*
X29455323Y-13990810D01*
X29358750Y-13837116D01*
X29230399Y-13708765D01*
X29230398Y-13708764D01*
X29076706Y-13612192D01*
X28905374Y-13552240D01*
X28905369Y-13552239D01*
X28725004Y-13531918D01*
X28724996Y-13531918D01*
X28544630Y-13552239D01*
X28544625Y-13552240D01*
X28373293Y-13612192D01*
X28219601Y-13708764D01*
X28091249Y-13837116D01*
X27994677Y-13990808D01*
X27934725Y-14162140D01*
X27934724Y-14162145D01*
X27914403Y-14342511D01*
X27000000Y-14342511D01*
X27000000Y-13171379D01*
X31724500Y-13171379D01*
X31724500Y-14158620D01*
X31761025Y-14342243D01*
X31761027Y-14342251D01*
X31832676Y-14515228D01*
X31832681Y-14515237D01*
X31936697Y-14670907D01*
X31936700Y-14670911D01*
X32069088Y-14803299D01*
X32069092Y-14803302D01*
X32224762Y-14907318D01*
X32224768Y-14907321D01*
X32224769Y-14907322D01*
X32397749Y-14978973D01*
X32581379Y-15015499D01*
X32581383Y-15015500D01*
X32581384Y-15015500D01*
X32768617Y-15015500D01*
X32768618Y-15015499D01*
X32952251Y-14978973D01*
X33125231Y-14907322D01*
X33280908Y-14803302D01*
X33413302Y-14670908D01*
X33517322Y-14515231D01*
X33588973Y-14342251D01*
X33625500Y-14158616D01*
X33625500Y-13171384D01*
X33625499Y-13171379D01*
X40374500Y-13171379D01*
X40374500Y-14158620D01*
X40411025Y-14342243D01*
X40411027Y-14342251D01*
X40482676Y-14515228D01*
X40482681Y-14515237D01*
X40586697Y-14670907D01*
X40586700Y-14670911D01*
X40719088Y-14803299D01*
X40719092Y-14803302D01*
X40874762Y-14907318D01*
X40874768Y-14907321D01*
X40874769Y-14907322D01*
X41047749Y-14978973D01*
X41231379Y-15015499D01*
X41231383Y-15015500D01*
X41231384Y-15015500D01*
X41418617Y-15015500D01*
X41418618Y-15015499D01*
X41602251Y-14978973D01*
X41775231Y-14907322D01*
X41930908Y-14803302D01*
X42063302Y-14670908D01*
X42167322Y-14515231D01*
X42238973Y-14342251D01*
X42275500Y-14158616D01*
X42275500Y-13499996D01*
X49766287Y-13499996D01*
X49766287Y-13500003D01*
X49784681Y-13663261D01*
X49784682Y-13663265D01*
X49838947Y-13818347D01*
X49880219Y-13884030D01*
X49926360Y-13957463D01*
X50042537Y-14073640D01*
X50065972Y-14088365D01*
X50177775Y-14158616D01*
X50181654Y-14161053D01*
X50336733Y-14215317D01*
X50336734Y-14215317D01*
X50336738Y-14215318D01*
X50499996Y-14233713D01*
X50500000Y-14233713D01*
X50500004Y-14233713D01*
X50663261Y-14215318D01*
X50663264Y-14215317D01*
X50663267Y-14215317D01*
X50663268Y-14215316D01*
X50663271Y-14215316D01*
X50824036Y-14159062D01*
X50893815Y-14155500D01*
X50952672Y-14188422D01*
X51851607Y-15087356D01*
X51851610Y-15087360D01*
X51858678Y-15094428D01*
X51905572Y-15141322D01*
X51966841Y-15166700D01*
X54197901Y-15166700D01*
X54264940Y-15186385D01*
X54310695Y-15239189D01*
X54314943Y-15249746D01*
X54338947Y-15318347D01*
X54410704Y-15432547D01*
X54426360Y-15457463D01*
X54542537Y-15573640D01*
X54560179Y-15584725D01*
X54659269Y-15646988D01*
X54681654Y-15661053D01*
X54836733Y-15715317D01*
X54836734Y-15715317D01*
X54836738Y-15715318D01*
X54999996Y-15733713D01*
X55000000Y-15733713D01*
X55000004Y-15733713D01*
X55163261Y-15715318D01*
X55163263Y-15715317D01*
X55163267Y-15715317D01*
X55318346Y-15661053D01*
X55342902Y-15645623D01*
X55410137Y-15626622D01*
X55476972Y-15646988D01*
X55522188Y-15700255D01*
X55525917Y-15709662D01*
X55563947Y-15818347D01*
X55621229Y-15909510D01*
X55651360Y-15957463D01*
X55767537Y-16073640D01*
X55906654Y-16161053D01*
X56061733Y-16215317D01*
X56061734Y-16215317D01*
X56061738Y-16215318D01*
X56224996Y-16233713D01*
X56225000Y-16233713D01*
X56225004Y-16233713D01*
X56388261Y-16215318D01*
X56388263Y-16215317D01*
X56388267Y-16215317D01*
X56543346Y-16161053D01*
X56682463Y-16073640D01*
X56798640Y-15957463D01*
X56886053Y-15818346D01*
X56940317Y-15663267D01*
X56940318Y-15663261D01*
X56958713Y-15500003D01*
X56958713Y-15499996D01*
X56940318Y-15336738D01*
X56940317Y-15336734D01*
X56933883Y-15318347D01*
X56886053Y-15181654D01*
X56874498Y-15163265D01*
X56826804Y-15087360D01*
X56798640Y-15042537D01*
X56682463Y-14926360D01*
X56652158Y-14907318D01*
X56543347Y-14838947D01*
X56388265Y-14784682D01*
X56388261Y-14784681D01*
X56225004Y-14766287D01*
X56224996Y-14766287D01*
X56061738Y-14784681D01*
X56061734Y-14784682D01*
X55906653Y-14838947D01*
X55882095Y-14854378D01*
X55814858Y-14873377D01*
X55748023Y-14853008D01*
X55702809Y-14799740D01*
X55699082Y-14790337D01*
X55697103Y-14784682D01*
X55661053Y-14681654D01*
X55573640Y-14542537D01*
X55457463Y-14426360D01*
X55318347Y-14338947D01*
X55163265Y-14284682D01*
X55163261Y-14284681D01*
X55000004Y-14266287D01*
X54999996Y-14266287D01*
X54836738Y-14284681D01*
X54836734Y-14284682D01*
X54681652Y-14338947D01*
X54542536Y-14426360D01*
X54426360Y-14542536D01*
X54338947Y-14681652D01*
X54314943Y-14750254D01*
X54274221Y-14807030D01*
X54209268Y-14832778D01*
X54197901Y-14833300D01*
X52120411Y-14833300D01*
X52053372Y-14813615D01*
X52032730Y-14796981D01*
X51188422Y-13952672D01*
X51154937Y-13891349D01*
X51159062Y-13824036D01*
X51215316Y-13663271D01*
X51215318Y-13663261D01*
X51228699Y-13544501D01*
X51255765Y-13480087D01*
X51313360Y-13440532D01*
X51383197Y-13438394D01*
X51439600Y-13470703D01*
X51542537Y-13573640D01*
X51681654Y-13661053D01*
X51741811Y-13682102D01*
X51798586Y-13722823D01*
X51817897Y-13758189D01*
X51838946Y-13818345D01*
X51838948Y-13818348D01*
X51926360Y-13957463D01*
X52042537Y-14073640D01*
X52065972Y-14088365D01*
X52177775Y-14158616D01*
X52181654Y-14161053D01*
X52336733Y-14215317D01*
X52336734Y-14215317D01*
X52336738Y-14215318D01*
X52499996Y-14233713D01*
X52500000Y-14233713D01*
X52500004Y-14233713D01*
X52663261Y-14215318D01*
X52663263Y-14215317D01*
X52663267Y-14215317D01*
X52818346Y-14161053D01*
X52934028Y-14088364D01*
X53001264Y-14069365D01*
X53065972Y-14088365D01*
X53177775Y-14158616D01*
X53181654Y-14161053D01*
X53336733Y-14215317D01*
X53336734Y-14215317D01*
X53336738Y-14215318D01*
X53499996Y-14233713D01*
X53500000Y-14233713D01*
X53500004Y-14233713D01*
X53663261Y-14215318D01*
X53663263Y-14215317D01*
X53663267Y-14215317D01*
X53818346Y-14161053D01*
X53957463Y-14073640D01*
X54073640Y-13957463D01*
X54161053Y-13818346D01*
X54215317Y-13663267D01*
X54215318Y-13663261D01*
X54233713Y-13500003D01*
X54233713Y-13499996D01*
X54215318Y-13336738D01*
X54215317Y-13336734D01*
X54211958Y-13327135D01*
X54161053Y-13181654D01*
X54154599Y-13171383D01*
X54115952Y-13109876D01*
X54073640Y-13042537D01*
X53957463Y-12926360D01*
X53874930Y-12874501D01*
X53818348Y-12838948D01*
X53818345Y-12838946D01*
X53758189Y-12817897D01*
X53701413Y-12777176D01*
X53682102Y-12741810D01*
X53661052Y-12681652D01*
X53573639Y-12542536D01*
X53457463Y-12426360D01*
X53318347Y-12338947D01*
X53163265Y-12284682D01*
X53163261Y-12284681D01*
X53000004Y-12266287D01*
X52999996Y-12266287D01*
X52836738Y-12284681D01*
X52836734Y-12284682D01*
X52681652Y-12338947D01*
X52565972Y-12411634D01*
X52498735Y-12430634D01*
X52434028Y-12411634D01*
X52318346Y-12338947D01*
X52318347Y-12338947D01*
X52163265Y-12284682D01*
X52163261Y-12284681D01*
X52000004Y-12266287D01*
X51999996Y-12266287D01*
X51836738Y-12284681D01*
X51836734Y-12284682D01*
X51681652Y-12338947D01*
X51542536Y-12426360D01*
X51426360Y-12542536D01*
X51338947Y-12681652D01*
X51284682Y-12836734D01*
X51284681Y-12836737D01*
X51271300Y-12955499D01*
X51244233Y-13019913D01*
X51186638Y-13059468D01*
X51116801Y-13061605D01*
X51060399Y-13029296D01*
X50957463Y-12926360D01*
X50818347Y-12838947D01*
X50663265Y-12784682D01*
X50663261Y-12784681D01*
X50500004Y-12766287D01*
X50499996Y-12766287D01*
X50336738Y-12784681D01*
X50336734Y-12784682D01*
X50181652Y-12838947D01*
X50042536Y-12926360D01*
X49926360Y-13042536D01*
X49838947Y-13181652D01*
X49784682Y-13336734D01*
X49784681Y-13336738D01*
X49766287Y-13499996D01*
X42275500Y-13499996D01*
X42275500Y-13171384D01*
X42238973Y-12987749D01*
X42177337Y-12838947D01*
X42167323Y-12814771D01*
X42167318Y-12814762D01*
X42063302Y-12659092D01*
X42063299Y-12659088D01*
X41930911Y-12526700D01*
X41930907Y-12526697D01*
X41775237Y-12422681D01*
X41775228Y-12422676D01*
X41602251Y-12351027D01*
X41602243Y-12351025D01*
X41418620Y-12314500D01*
X41418616Y-12314500D01*
X41231384Y-12314500D01*
X41231379Y-12314500D01*
X41047756Y-12351025D01*
X41047748Y-12351027D01*
X40874771Y-12422676D01*
X40874762Y-12422681D01*
X40719092Y-12526697D01*
X40719088Y-12526700D01*
X40586700Y-12659088D01*
X40586697Y-12659092D01*
X40482681Y-12814762D01*
X40482676Y-12814771D01*
X40411027Y-12987748D01*
X40411025Y-12987756D01*
X40374500Y-13171379D01*
X33625499Y-13171379D01*
X33588973Y-12987749D01*
X33527337Y-12838947D01*
X33517323Y-12814771D01*
X33517318Y-12814762D01*
X33413302Y-12659092D01*
X33413299Y-12659088D01*
X33280911Y-12526700D01*
X33280907Y-12526697D01*
X33125237Y-12422681D01*
X33125228Y-12422676D01*
X32952251Y-12351027D01*
X32952243Y-12351025D01*
X32768620Y-12314500D01*
X32768616Y-12314500D01*
X32581384Y-12314500D01*
X32581379Y-12314500D01*
X32397756Y-12351025D01*
X32397748Y-12351027D01*
X32224771Y-12422676D01*
X32224762Y-12422681D01*
X32069092Y-12526697D01*
X32069088Y-12526700D01*
X31936700Y-12659088D01*
X31936697Y-12659092D01*
X31832681Y-12814762D01*
X31832676Y-12814771D01*
X31761027Y-12987748D01*
X31761025Y-12987756D01*
X31724500Y-13171379D01*
X27000000Y-13171379D01*
X27000000Y-12124000D01*
X27019685Y-12056961D01*
X27072489Y-12011206D01*
X27124000Y-12000000D01*
X61876000Y-12000000D01*
X61943039Y-12019685D01*
G37*
%TD.AperFunction*%
%TA.AperFunction,Conductor*%
G36*
X38813673Y-34991185D02*
G01*
X38859428Y-35043989D01*
X38869372Y-35113147D01*
X38851628Y-35161472D01*
X38838947Y-35181652D01*
X38784682Y-35336734D01*
X38784681Y-35336738D01*
X38766287Y-35499996D01*
X38766287Y-35500002D01*
X38784682Y-35663264D01*
X38819876Y-35763846D01*
X38823437Y-35833625D01*
X38819876Y-35845754D01*
X38796045Y-35913861D01*
X38766684Y-35960588D01*
X38405786Y-36321486D01*
X38359060Y-36350846D01*
X38236458Y-36393746D01*
X38097338Y-36481162D01*
X37981162Y-36597338D01*
X37893746Y-36736458D01*
X37850846Y-36859060D01*
X37821486Y-36905786D01*
X36905572Y-37821702D01*
X36858678Y-37868595D01*
X36833300Y-37929865D01*
X36833300Y-50422387D01*
X36813615Y-50489426D01*
X36796981Y-50510068D01*
X36007620Y-51299429D01*
X35946297Y-51332914D01*
X35876605Y-51327930D01*
X35820672Y-51286058D01*
X35796255Y-51220594D01*
X35795939Y-51211748D01*
X35795939Y-41885237D01*
X35814945Y-41819264D01*
X35833092Y-41790385D01*
X35887356Y-41635306D01*
X35888471Y-41625413D01*
X35905752Y-41472042D01*
X35905752Y-41472035D01*
X35887357Y-41308777D01*
X35887356Y-41308773D01*
X35885024Y-41302109D01*
X35833092Y-41153693D01*
X35833091Y-41153691D01*
X35814945Y-41124811D01*
X35795939Y-41058840D01*
X35795939Y-40291867D01*
X35815624Y-40224828D01*
X35868428Y-40179073D01*
X35878986Y-40174825D01*
X35918345Y-40161053D01*
X36057462Y-40073640D01*
X36173639Y-39957463D01*
X36261052Y-39818346D01*
X36315316Y-39663267D01*
X36315317Y-39663261D01*
X36333712Y-39500003D01*
X36333712Y-39499996D01*
X36315317Y-39336738D01*
X36315316Y-39336734D01*
X36308882Y-39318347D01*
X36261052Y-39181654D01*
X36251656Y-39166701D01*
X36189335Y-39067517D01*
X36173639Y-39042537D01*
X36057462Y-38926360D01*
X36019655Y-38902604D01*
X35918346Y-38838947D01*
X35763264Y-38784682D01*
X35763260Y-38784681D01*
X35600003Y-38766287D01*
X35599995Y-38766287D01*
X35436737Y-38784681D01*
X35436733Y-38784682D01*
X35281653Y-38838946D01*
X35265968Y-38848802D01*
X35198730Y-38867800D01*
X35134026Y-38848799D01*
X35118348Y-38838947D01*
X34963265Y-38784682D01*
X34963261Y-38784681D01*
X34800004Y-38766287D01*
X34799996Y-38766287D01*
X34636738Y-38784681D01*
X34636734Y-38784682D01*
X34481652Y-38838947D01*
X34342536Y-38926360D01*
X34226360Y-39042536D01*
X34138947Y-39181652D01*
X34084682Y-39336734D01*
X34084681Y-39336738D01*
X34066287Y-39499996D01*
X34066287Y-39500003D01*
X34084681Y-39663261D01*
X34084682Y-39663265D01*
X34138947Y-39818347D01*
X34226360Y-39957463D01*
X34342537Y-40073640D01*
X34481654Y-40161053D01*
X34481655Y-40161053D01*
X34487551Y-40164758D01*
X34486271Y-40166794D01*
X34529783Y-40206059D01*
X34548139Y-40270984D01*
X34548139Y-40758974D01*
X34528454Y-40826013D01*
X34475650Y-40871768D01*
X34406492Y-40881712D01*
X34358167Y-40863968D01*
X34318347Y-40838947D01*
X34163265Y-40784682D01*
X34163261Y-40784681D01*
X34000004Y-40766287D01*
X33999996Y-40766287D01*
X33836738Y-40784681D01*
X33836734Y-40784682D01*
X33681652Y-40838947D01*
X33542536Y-40926360D01*
X33426360Y-41042536D01*
X33338947Y-41181652D01*
X33284682Y-41336734D01*
X33284681Y-41336738D01*
X33266287Y-41499996D01*
X33266287Y-41500003D01*
X33284681Y-41663261D01*
X33284682Y-41663265D01*
X33338947Y-41818347D01*
X33402600Y-41919649D01*
X33426360Y-41957463D01*
X33542537Y-42073640D01*
X33681654Y-42161053D01*
X33750253Y-42185056D01*
X33807030Y-42225777D01*
X33832778Y-42290729D01*
X33833300Y-42302098D01*
X33833300Y-42660262D01*
X33813615Y-42727301D01*
X33760811Y-42773056D01*
X33695417Y-42783482D01*
X33542804Y-42766287D01*
X33542796Y-42766287D01*
X33379538Y-42784681D01*
X33379534Y-42784682D01*
X33224452Y-42838947D01*
X33085336Y-42926360D01*
X32969160Y-43042536D01*
X32881747Y-43181652D01*
X32827482Y-43336734D01*
X32827481Y-43336738D01*
X32809087Y-43499996D01*
X32809087Y-43500003D01*
X32827481Y-43663261D01*
X32827482Y-43663265D01*
X32881747Y-43818347D01*
X32950351Y-43927529D01*
X32969160Y-43957463D01*
X33085337Y-44073640D01*
X33133236Y-44103737D01*
X33196911Y-44143747D01*
X33224454Y-44161053D01*
X33379533Y-44215317D01*
X33379534Y-44215317D01*
X33379538Y-44215318D01*
X33542796Y-44233713D01*
X33542800Y-44233713D01*
X33542802Y-44233713D01*
X33650393Y-44221589D01*
X33695416Y-44216517D01*
X33764238Y-44228571D01*
X33815617Y-44275920D01*
X33833300Y-44339737D01*
X33833300Y-50879588D01*
X33813615Y-50946627D01*
X33796981Y-50967269D01*
X33355669Y-51408581D01*
X33294346Y-51442066D01*
X33267988Y-51444900D01*
X31958723Y-51444900D01*
X31891684Y-51425215D01*
X31845929Y-51372411D01*
X31835985Y-51303253D01*
X31857148Y-51249776D01*
X31939035Y-51132830D01*
X32038903Y-50918663D01*
X32100063Y-50690408D01*
X32120659Y-50455000D01*
X32100063Y-50219592D01*
X32038903Y-49991337D01*
X31939035Y-49777171D01*
X31933425Y-49769158D01*
X31803494Y-49583597D01*
X31636402Y-49416506D01*
X31636396Y-49416501D01*
X31450842Y-49286575D01*
X31407217Y-49231998D01*
X31400023Y-49162500D01*
X31431546Y-49100145D01*
X31450842Y-49083425D01*
X31473026Y-49067891D01*
X31636401Y-48953495D01*
X31803495Y-48786401D01*
X31939035Y-48592830D01*
X32038903Y-48378663D01*
X32100063Y-48150408D01*
X32120659Y-47915000D01*
X32100063Y-47679592D01*
X32051941Y-47499996D01*
X32038905Y-47451344D01*
X32038904Y-47451343D01*
X32038903Y-47451337D01*
X31939035Y-47237171D01*
X31903475Y-47186385D01*
X31803494Y-47043597D01*
X31636402Y-46876506D01*
X31636401Y-46876505D01*
X31450405Y-46746269D01*
X31406781Y-46691692D01*
X31399588Y-46622193D01*
X31431110Y-46559839D01*
X31450405Y-46543119D01*
X31636082Y-46413105D01*
X31803105Y-46246082D01*
X31938600Y-46052578D01*
X32038429Y-45838492D01*
X32038432Y-45838486D01*
X32095636Y-45625000D01*
X31198012Y-45625000D01*
X31230925Y-45567993D01*
X31265000Y-45440826D01*
X31265000Y-45309174D01*
X31230925Y-45182007D01*
X31198012Y-45125000D01*
X32095636Y-45125000D01*
X32095635Y-45124999D01*
X32038432Y-44911513D01*
X32038429Y-44911507D01*
X31938600Y-44697422D01*
X31938599Y-44697420D01*
X31803113Y-44503926D01*
X31803108Y-44503920D01*
X31636082Y-44336894D01*
X31442578Y-44201399D01*
X31228492Y-44101570D01*
X31228486Y-44101567D01*
X31015000Y-44044364D01*
X31015000Y-44941988D01*
X30957993Y-44909075D01*
X30830826Y-44875000D01*
X30699174Y-44875000D01*
X30572007Y-44909075D01*
X30515000Y-44941988D01*
X30515000Y-44044364D01*
X30514999Y-44044364D01*
X30301513Y-44101567D01*
X30301507Y-44101570D01*
X30087422Y-44201399D01*
X30087420Y-44201400D01*
X29893926Y-44336886D01*
X29893920Y-44336891D01*
X29878381Y-44352431D01*
X29817058Y-44385916D01*
X29747366Y-44380932D01*
X29691433Y-44339060D01*
X29667016Y-44273596D01*
X29666700Y-44264750D01*
X29666700Y-43120411D01*
X29686385Y-43053372D01*
X29703014Y-43032735D01*
X32047328Y-40688420D01*
X32108649Y-40654937D01*
X32175961Y-40659061D01*
X32181654Y-40661053D01*
X32336733Y-40715317D01*
X32336734Y-40715317D01*
X32336738Y-40715318D01*
X32499996Y-40733713D01*
X32500000Y-40733713D01*
X32500004Y-40733713D01*
X32663261Y-40715318D01*
X32663263Y-40715317D01*
X32663267Y-40715317D01*
X32818346Y-40661053D01*
X32957463Y-40573640D01*
X33073640Y-40457463D01*
X33161053Y-40318346D01*
X33215317Y-40163267D01*
X33215318Y-40163261D01*
X33233713Y-40000003D01*
X33233713Y-39999996D01*
X33215318Y-39836738D01*
X33215317Y-39836734D01*
X33208883Y-39818347D01*
X33165056Y-39693094D01*
X33161495Y-39623315D01*
X33165052Y-39611200D01*
X33215342Y-39467480D01*
X33215343Y-39467474D01*
X33233738Y-39304216D01*
X33233738Y-39304209D01*
X33215343Y-39140951D01*
X33215341Y-39140941D01*
X33170940Y-39014051D01*
X33167378Y-38944272D01*
X33170932Y-38932166D01*
X33196829Y-38858158D01*
X33196830Y-38858152D01*
X33215225Y-38694894D01*
X33215225Y-38694887D01*
X33196830Y-38531629D01*
X33196829Y-38531625D01*
X33167644Y-38448217D01*
X33164083Y-38378438D01*
X33167640Y-38366319D01*
X33215317Y-38230067D01*
X33219226Y-38195378D01*
X33233713Y-38066803D01*
X33233713Y-38066796D01*
X33215318Y-37903539D01*
X33215317Y-37903537D01*
X33215317Y-37903533D01*
X33192382Y-37837991D01*
X33188822Y-37768215D01*
X33221744Y-37709358D01*
X33273640Y-37657463D01*
X33361053Y-37518346D01*
X33415317Y-37363267D01*
X33415316Y-37363267D01*
X33417617Y-37356694D01*
X33419172Y-37357238D01*
X33449082Y-37303750D01*
X33510738Y-37270883D01*
X33561366Y-37275016D01*
X33562062Y-37271517D01*
X33574039Y-37273899D01*
X33574041Y-37273900D01*
X33658899Y-37273900D01*
X33725938Y-37293585D01*
X33771693Y-37346389D01*
X33781637Y-37415547D01*
X33778123Y-37429921D01*
X33778232Y-37429946D01*
X33776681Y-37436738D01*
X33758287Y-37599996D01*
X33758287Y-37600003D01*
X33776681Y-37763261D01*
X33776682Y-37763265D01*
X33830947Y-37918347D01*
X33892556Y-38016396D01*
X33918360Y-38057463D01*
X34034537Y-38173640D01*
X34056126Y-38187205D01*
X34143711Y-38242239D01*
X34173654Y-38261053D01*
X34328733Y-38315317D01*
X34328734Y-38315317D01*
X34328738Y-38315318D01*
X34491996Y-38333713D01*
X34492000Y-38333713D01*
X34492004Y-38333713D01*
X34655261Y-38315318D01*
X34655263Y-38315317D01*
X34655267Y-38315317D01*
X34810346Y-38261053D01*
X34949463Y-38173640D01*
X35065640Y-38057463D01*
X35153053Y-37918346D01*
X35207317Y-37763267D01*
X35207318Y-37763261D01*
X35225713Y-37600003D01*
X35225713Y-37599996D01*
X35207318Y-37436738D01*
X35207317Y-37436732D01*
X35195511Y-37402994D01*
X35191948Y-37333215D01*
X35226677Y-37272587D01*
X35252629Y-37255627D01*
X35252418Y-37255310D01*
X35262573Y-37248523D01*
X35262576Y-37248522D01*
X36393759Y-36117337D01*
X36415459Y-36100032D01*
X36457463Y-36073640D01*
X36573640Y-35957463D01*
X36600032Y-35915459D01*
X36617337Y-35893759D01*
X37503278Y-35007819D01*
X37564601Y-34974334D01*
X37590959Y-34971500D01*
X38746634Y-34971500D01*
X38813673Y-34991185D01*
G37*
%TD.AperFunction*%
%TA.AperFunction,Conductor*%
G36*
X38384339Y-30229185D02*
G01*
X38430094Y-30281989D01*
X38440038Y-30351147D01*
X38411013Y-30414703D01*
X38404335Y-30421110D01*
X38404661Y-30421436D01*
X38283560Y-30542536D01*
X38196147Y-30681652D01*
X38141882Y-30836734D01*
X38141881Y-30836738D01*
X38123487Y-30999996D01*
X38123487Y-31000003D01*
X38141881Y-31163261D01*
X38141882Y-31163265D01*
X38196147Y-31318347D01*
X38283558Y-31457460D01*
X38283560Y-31457463D01*
X38399737Y-31573640D01*
X38538854Y-31661053D01*
X38693933Y-31715317D01*
X38693934Y-31715317D01*
X38693938Y-31715318D01*
X38857196Y-31733713D01*
X38857200Y-31733713D01*
X38857204Y-31733713D01*
X39020461Y-31715318D01*
X39020463Y-31715317D01*
X39020467Y-31715317D01*
X39175546Y-31661053D01*
X39314663Y-31573640D01*
X39430840Y-31457463D01*
X39518253Y-31318346D01*
X39572517Y-31163267D01*
X39572518Y-31163261D01*
X39590913Y-31000003D01*
X39590913Y-30999996D01*
X39572518Y-30836738D01*
X39572517Y-30836734D01*
X39571315Y-30833300D01*
X39518253Y-30681654D01*
X39503141Y-30657604D01*
X39457486Y-30584944D01*
X39430840Y-30542537D01*
X39314663Y-30426360D01*
X39309739Y-30421436D01*
X39311932Y-30419242D01*
X39279661Y-30373302D01*
X39276786Y-30303491D01*
X39312109Y-30243208D01*
X39374417Y-30211592D01*
X39397100Y-30209500D01*
X48960100Y-30209500D01*
X49027139Y-30229185D01*
X49072894Y-30281989D01*
X49082838Y-30351147D01*
X49053813Y-30414703D01*
X49047135Y-30421110D01*
X49047461Y-30421436D01*
X48926360Y-30542536D01*
X48838947Y-30681652D01*
X48784682Y-30836734D01*
X48784681Y-30836738D01*
X48766287Y-30999996D01*
X48766287Y-31000003D01*
X48784681Y-31163261D01*
X48784682Y-31163265D01*
X48838947Y-31318347D01*
X48926358Y-31457460D01*
X48926360Y-31457463D01*
X49042537Y-31573640D01*
X49181654Y-31661053D01*
X49336733Y-31715317D01*
X49418654Y-31724547D01*
X49454587Y-31728596D01*
X49519001Y-31755662D01*
X49528385Y-31764135D01*
X51796981Y-34032731D01*
X51830466Y-34094054D01*
X51833300Y-34120412D01*
X51833300Y-35545500D01*
X51813615Y-35612539D01*
X51760811Y-35658294D01*
X51750256Y-35662541D01*
X51681655Y-35686546D01*
X51681653Y-35686547D01*
X51565972Y-35759234D01*
X51498735Y-35778234D01*
X51434028Y-35759234D01*
X51318346Y-35686547D01*
X51318347Y-35686547D01*
X51163265Y-35632282D01*
X51163261Y-35632281D01*
X51000004Y-35613887D01*
X50999996Y-35613887D01*
X50836738Y-35632281D01*
X50836734Y-35632282D01*
X50681652Y-35686547D01*
X50542538Y-35773959D01*
X50467311Y-35849186D01*
X50405987Y-35882670D01*
X50338676Y-35878546D01*
X50192743Y-35827482D01*
X50192739Y-35827481D01*
X50029482Y-35809087D01*
X50029474Y-35809087D01*
X49866216Y-35827481D01*
X49866212Y-35827482D01*
X49711130Y-35881747D01*
X49572014Y-35969160D01*
X49455838Y-36085336D01*
X49368425Y-36224452D01*
X49314160Y-36379534D01*
X49314159Y-36379538D01*
X49295765Y-36542796D01*
X49295765Y-36542803D01*
X49312960Y-36695417D01*
X49300905Y-36764239D01*
X49253556Y-36815618D01*
X49189740Y-36833300D01*
X44620411Y-36833300D01*
X44553372Y-36813615D01*
X44532730Y-36796981D01*
X44077250Y-36341501D01*
X43594428Y-35858678D01*
X43533159Y-35833300D01*
X43533158Y-35833300D01*
X42120411Y-35833300D01*
X42053372Y-35813615D01*
X42032730Y-35796981D01*
X41330066Y-35094317D01*
X41235745Y-34999996D01*
X47766287Y-34999996D01*
X47766287Y-35000003D01*
X47784681Y-35163261D01*
X47784682Y-35163265D01*
X47838947Y-35318347D01*
X47850503Y-35336738D01*
X47926360Y-35457463D01*
X48042537Y-35573640D01*
X48181654Y-35661053D01*
X48336733Y-35715317D01*
X48336734Y-35715317D01*
X48336738Y-35715318D01*
X48499996Y-35733713D01*
X48500000Y-35733713D01*
X48500004Y-35733713D01*
X48663261Y-35715318D01*
X48663263Y-35715317D01*
X48663267Y-35715317D01*
X48818346Y-35661053D01*
X48957463Y-35573640D01*
X49073640Y-35457463D01*
X49161053Y-35318346D01*
X49215317Y-35163267D01*
X49215510Y-35161553D01*
X49233713Y-35000003D01*
X49233713Y-34999996D01*
X49215318Y-34836738D01*
X49215317Y-34836734D01*
X49215200Y-34836401D01*
X49161053Y-34681654D01*
X49155040Y-34672085D01*
X49080554Y-34553541D01*
X49073640Y-34542537D01*
X48957463Y-34426360D01*
X48914466Y-34399343D01*
X48818347Y-34338947D01*
X48663265Y-34284682D01*
X48663261Y-34284681D01*
X48500004Y-34266287D01*
X48499996Y-34266287D01*
X48336738Y-34284681D01*
X48336734Y-34284682D01*
X48181652Y-34338947D01*
X48042536Y-34426360D01*
X47926360Y-34542536D01*
X47838947Y-34681652D01*
X47784682Y-34836734D01*
X47784681Y-34836738D01*
X47766287Y-34999996D01*
X41235745Y-34999996D01*
X40594428Y-34358678D01*
X40533159Y-34333300D01*
X35958841Y-34333300D01*
X35897571Y-34358678D01*
X35850677Y-34405573D01*
X35390861Y-34865388D01*
X35329538Y-34898873D01*
X35259846Y-34893889D01*
X35203913Y-34852017D01*
X35186140Y-34818666D01*
X35142049Y-34692658D01*
X35138107Y-34686385D01*
X35054635Y-34553540D01*
X34938459Y-34437364D01*
X34799341Y-34349950D01*
X34730740Y-34325945D01*
X34673965Y-34285223D01*
X34648218Y-34220270D01*
X34647696Y-34208904D01*
X34647696Y-33768282D01*
X34667381Y-33701243D01*
X34684015Y-33680601D01*
X35319420Y-33045196D01*
X36066714Y-32297901D01*
X36128035Y-32264418D01*
X36197727Y-32269402D01*
X36253660Y-32311274D01*
X36278077Y-32376738D01*
X36277613Y-32399467D01*
X36266287Y-32499995D01*
X36266287Y-32500003D01*
X36284681Y-32663261D01*
X36284682Y-32663265D01*
X36338947Y-32818347D01*
X36406908Y-32926505D01*
X36426360Y-32957463D01*
X36542537Y-33073640D01*
X36681654Y-33161053D01*
X36836733Y-33215317D01*
X36836734Y-33215317D01*
X36836738Y-33215318D01*
X36999996Y-33233713D01*
X37000000Y-33233713D01*
X37000004Y-33233713D01*
X37163261Y-33215318D01*
X37163263Y-33215317D01*
X37163267Y-33215317D01*
X37318346Y-33161053D01*
X37457463Y-33073640D01*
X37485907Y-33045196D01*
X42766287Y-33045196D01*
X42766287Y-33045203D01*
X42784681Y-33208461D01*
X42784682Y-33208465D01*
X42838947Y-33363547D01*
X42878740Y-33426876D01*
X42926360Y-33502663D01*
X43042537Y-33618840D01*
X43124821Y-33670543D01*
X43173680Y-33701243D01*
X43181654Y-33706253D01*
X43336733Y-33760517D01*
X43336734Y-33760517D01*
X43336738Y-33760518D01*
X43499996Y-33778913D01*
X43500000Y-33778913D01*
X43500004Y-33778913D01*
X43663261Y-33760518D01*
X43663263Y-33760517D01*
X43663267Y-33760517D01*
X43818346Y-33706253D01*
X43957463Y-33618840D01*
X44073640Y-33502663D01*
X44161053Y-33363546D01*
X44215317Y-33208467D01*
X44215318Y-33208461D01*
X44233713Y-33045203D01*
X44233713Y-33045196D01*
X44215318Y-32881938D01*
X44215317Y-32881934D01*
X44212941Y-32875145D01*
X44161053Y-32726854D01*
X44155990Y-32718797D01*
X44090415Y-32614434D01*
X44073640Y-32587737D01*
X43957463Y-32471560D01*
X43842728Y-32399467D01*
X43818347Y-32384147D01*
X43663265Y-32329882D01*
X43663261Y-32329881D01*
X43500004Y-32311487D01*
X43499996Y-32311487D01*
X43336738Y-32329881D01*
X43336734Y-32329882D01*
X43181652Y-32384147D01*
X43042536Y-32471560D01*
X42926360Y-32587736D01*
X42838947Y-32726852D01*
X42784682Y-32881934D01*
X42784681Y-32881938D01*
X42766287Y-33045196D01*
X37485907Y-33045196D01*
X37573640Y-32957463D01*
X37661053Y-32818346D01*
X37715317Y-32663267D01*
X37715318Y-32663261D01*
X37733713Y-32500003D01*
X37733713Y-32499996D01*
X37715318Y-32336738D01*
X37715317Y-32336734D01*
X37712919Y-32329882D01*
X37661053Y-32181654D01*
X37573640Y-32042537D01*
X37457463Y-31926360D01*
X37318347Y-31838947D01*
X37163265Y-31784682D01*
X37163261Y-31784681D01*
X37000004Y-31766287D01*
X36999996Y-31766287D01*
X36899467Y-31777613D01*
X36830645Y-31765558D01*
X36779266Y-31718209D01*
X36761642Y-31650598D01*
X36783369Y-31584192D01*
X36797898Y-31566717D01*
X38118797Y-30245819D01*
X38180120Y-30212334D01*
X38206478Y-30209500D01*
X38317300Y-30209500D01*
X38384339Y-30229185D01*
G37*
%TD.AperFunction*%
%TD*%
M02*
