%TF.GenerationSoftware,KiCad,Pcbnew,8.0.6*%
%TF.CreationDate,2024-11-27T12:31:08-05:00*%
%TF.ProjectId,CAN Board,43414e20-426f-4617-9264-2e6b69636164,rev?*%
%TF.SameCoordinates,Original*%
%TF.FileFunction,Copper,L2,Inr*%
%TF.FilePolarity,Positive*%
%FSLAX46Y46*%
G04 Gerber Fmt 4.6, Leading zero omitted, Abs format (unit mm)*
G04 Created by KiCad (PCBNEW 8.0.6) date 2024-11-27 12:31:08*
%MOMM*%
%LPD*%
G01*
G04 APERTURE LIST*
%TA.AperFunction,ComponentPad*%
%ADD10C,0.700000*%
%TD*%
%TA.AperFunction,ComponentPad*%
%ADD11O,0.900000X2.400000*%
%TD*%
%TA.AperFunction,ComponentPad*%
%ADD12O,0.900000X1.700000*%
%TD*%
%TA.AperFunction,ComponentPad*%
%ADD13R,1.700000X1.700000*%
%TD*%
%TA.AperFunction,ComponentPad*%
%ADD14O,1.700000X1.700000*%
%TD*%
%TA.AperFunction,ComponentPad*%
%ADD15R,2.250000X2.250000*%
%TD*%
%TA.AperFunction,ComponentPad*%
%ADD16C,2.250000*%
%TD*%
%TA.AperFunction,ViaPad*%
%ADD17C,0.457200*%
%TD*%
%TA.AperFunction,ViaPad*%
%ADD18C,0.610000*%
%TD*%
%TA.AperFunction,Conductor*%
%ADD19C,0.762000*%
%TD*%
%TA.AperFunction,Conductor*%
%ADD20C,0.152400*%
%TD*%
G04 APERTURE END LIST*
D10*
%TO.N,GND*%
%TO.C,J3*%
X39975000Y-18025000D03*
%TO.N,+5V*%
X39125000Y-18025000D03*
%TO.N,unconnected-(J3-CC1-PadA5)*%
X38275000Y-18025000D03*
%TO.N,D+*%
X37425000Y-18025000D03*
%TO.N,D-*%
X36575000Y-18025000D03*
%TO.N,unconnected-(J3-SBU1-PadA8)*%
X35725000Y-18025000D03*
%TO.N,+5V*%
X34875000Y-18025000D03*
%TO.N,GND*%
X34025000Y-18025000D03*
X34025000Y-16675000D03*
%TO.N,+5V*%
X34875000Y-16675000D03*
%TO.N,unconnected-(J3-CC2-PadB5)*%
X35725000Y-16675000D03*
%TO.N,D+*%
X36575000Y-16675000D03*
%TO.N,D-*%
X37425000Y-16675000D03*
%TO.N,unconnected-(J3-SBU2-PadB8)*%
X38275000Y-16675000D03*
%TO.N,+5V*%
X39125000Y-16675000D03*
%TO.N,GND*%
X39975000Y-16675000D03*
D11*
X41325000Y-17045000D03*
D12*
X41325000Y-13665000D03*
D11*
X32675000Y-17045000D03*
D12*
X32675000Y-13665000D03*
%TD*%
D13*
%TO.N,+5V*%
%TO.C,J1*%
X28225000Y-45375000D03*
D14*
%TO.N,+3V3*%
X30765000Y-45375000D03*
%TO.N,GND*%
X28225000Y-47915000D03*
%TO.N,TX0*%
X30765000Y-47915000D03*
%TO.N,SPI1 TX*%
X28225000Y-50455000D03*
%TO.N,RX0*%
X30765000Y-50455000D03*
%TO.N,SPI1 RX*%
X28225000Y-52995000D03*
%TO.N,ADC 0*%
X30765000Y-52995000D03*
%TO.N,SPI1 CSn*%
X28225000Y-55535000D03*
%TO.N,ADC 1*%
X30765000Y-55535000D03*
%TO.N,SPI1 SCK*%
X28225000Y-58075000D03*
%TO.N,SWCLK*%
X30765000Y-58075000D03*
%TO.N,GPIO 15*%
X28225000Y-60615000D03*
%TO.N,SWD*%
X30765000Y-60615000D03*
%TD*%
D13*
%TO.N,CAN5H*%
%TO.C,J8*%
X60500000Y-48625000D03*
D14*
%TO.N,CAN5L*%
X60500000Y-51165000D03*
%TD*%
D15*
%TO.N,Net-(R5-Pad2)*%
%TO.C,SW2*%
X28250000Y-22500000D03*
D16*
%TO.N,GND*%
X34750000Y-22500000D03*
%TD*%
D13*
%TO.N,CAN4H*%
%TO.C,J7*%
X60500000Y-40025000D03*
D14*
%TO.N,CAN4L*%
X60500000Y-42565000D03*
%TD*%
D13*
%TO.N,CAN3H*%
%TO.C,J6*%
X60500000Y-31425000D03*
D14*
%TO.N,CAN3L*%
X60500000Y-33965000D03*
%TD*%
D13*
%TO.N,CAN6H*%
%TO.C,J9*%
X60500000Y-57225000D03*
D14*
%TO.N,CAN6L*%
X60500000Y-59765000D03*
%TD*%
D13*
%TO.N,CAN2H*%
%TO.C,J5*%
X60500000Y-22825000D03*
D14*
%TO.N,CAN2L*%
X60500000Y-25365000D03*
%TD*%
D13*
%TO.N,CAN1H*%
%TO.C,J4*%
X60500000Y-14225000D03*
D14*
%TO.N,CAN1L*%
X60500000Y-16765000D03*
%TD*%
D15*
%TO.N,RUN*%
%TO.C,SW1*%
X38000000Y-53750000D03*
D16*
%TO.N,GND*%
X38000000Y-60250000D03*
%TD*%
D17*
%TO.N,GND*%
X56225000Y-41500000D03*
X51000000Y-44347600D03*
X43500000Y-33045200D03*
X40500000Y-27000000D03*
X51000000Y-28424800D03*
X48000000Y-43000000D03*
X43000000Y-49045200D03*
X56225000Y-24000000D03*
X56225000Y-15500000D03*
X56225000Y-50000000D03*
X48500000Y-19000000D03*
X33542800Y-43500000D03*
X43000000Y-41000000D03*
X38554802Y-37054802D03*
X44197600Y-16347600D03*
X48500000Y-27000000D03*
X51000000Y-60500000D03*
X51000000Y-52347600D03*
X43000000Y-57000000D03*
X40500000Y-45000000D03*
X51000000Y-36347600D03*
X48000000Y-59000000D03*
X36000000Y-35500000D03*
X48500000Y-35000000D03*
X40704600Y-47500000D03*
X44210100Y-24500000D03*
X56225000Y-58500000D03*
X48000000Y-51000000D03*
X56225000Y-32500000D03*
X51000000Y-20424800D03*
X28400000Y-32500000D03*
%TO.N,+1V1*%
X38857200Y-31000000D03*
X37000000Y-32500000D03*
X38225000Y-43261282D03*
%TO.N,+3V3*%
X47500000Y-12500000D03*
X42818928Y-29043928D03*
X54425700Y-19425700D03*
X54425700Y-35425700D03*
X40500000Y-23500000D03*
X54425700Y-27425700D03*
X42870254Y-21095254D03*
X31000000Y-36000000D03*
X54425700Y-51425700D03*
X36943750Y-26443750D03*
X42326200Y-53173800D03*
X54425700Y-43425700D03*
D18*
X31000000Y-18500000D03*
D17*
X42475263Y-45043928D03*
X40500000Y-33500000D03*
X54425700Y-59425700D03*
%TO.N,+5V*%
X50000000Y-20882000D03*
D18*
X28725000Y-14342515D03*
D17*
X50000000Y-52804800D03*
X50000000Y-44804800D03*
X50029478Y-36542800D03*
X48000000Y-61033400D03*
X50000000Y-28882000D03*
%TO.N,SWCLK*%
X38114400Y-41185936D03*
%TO.N,SWD*%
X38400000Y-39608000D03*
%TO.N,/QSPI_SS*%
X30000000Y-27500000D03*
X33500000Y-32500000D03*
%TO.N,SPI0 RX*%
X52500000Y-13500000D03*
X52500000Y-53500000D03*
X52500000Y-45500000D03*
X52500000Y-29500000D03*
X32500000Y-36000000D03*
X52500000Y-21500000D03*
X52500000Y-37500000D03*
%TO.N,SPI0 6CS*%
X52033401Y-53926161D03*
X32500025Y-39304213D03*
%TO.N,SPI0 2CS*%
X32700000Y-37200000D03*
X52042799Y-21936625D03*
%TO.N,SPI0 SCK*%
X53500000Y-45500000D03*
X34480996Y-35011004D03*
X53500000Y-37500000D03*
X53500000Y-21500000D03*
X53500000Y-13500000D03*
X53500000Y-29500000D03*
X53500000Y-53500000D03*
%TO.N,SPI0 TX*%
X34492000Y-36000000D03*
X53000000Y-45000000D03*
X53000000Y-53000000D03*
X53000000Y-21000000D03*
X53000000Y-29000000D03*
X53000000Y-37000000D03*
X53000000Y-13000000D03*
%TO.N,SPI0 4CS*%
X52042800Y-37923891D03*
%TO.N,SPI0 1CS*%
X52000000Y-13000000D03*
X34492000Y-36650000D03*
%TO.N,SPI0 5CS*%
X32481512Y-38694891D03*
X52042799Y-45923891D03*
%TO.N,SPI0 3CS*%
X52042799Y-29923891D03*
X34492000Y-37600000D03*
%TO.N,Net-(U4-TXCAN)*%
X55000000Y-15000000D03*
X50500000Y-13500000D03*
%TO.N,Net-(U4-RXCAN)*%
X49500000Y-15000000D03*
X52000000Y-20390397D03*
%TO.N,Net-(U5-TXCAN)*%
X55000000Y-23000000D03*
X50000000Y-22500000D03*
%TO.N,Net-(U5-RXCAN)*%
X49500000Y-23000000D03*
X52000000Y-28390397D03*
%TO.N,Net-(U6-RXCAN)*%
X52000000Y-36347600D03*
X49500000Y-31000000D03*
%TO.N,Net-(U6-TXCAN)*%
X55000000Y-31000000D03*
X50000000Y-30500000D03*
%TO.N,Net-(U7-RXCAN)*%
X52000000Y-44347600D03*
X49500000Y-39000000D03*
%TO.N,ADC 1*%
X39500000Y-35500000D03*
%TO.N,Net-(U7-TXCAN)*%
X55000000Y-39000000D03*
X50000000Y-38500000D03*
%TO.N,SPI1 TX*%
X32500000Y-40000000D03*
%TO.N,Net-(U8-RXCAN)*%
X49500000Y-47000000D03*
X52000000Y-52347600D03*
%TO.N,Net-(U8-TXCAN)*%
X55000000Y-47000000D03*
X50000000Y-46500000D03*
%TO.N,Net-(U9-RXCAN)*%
X52000000Y-60500000D03*
X49500000Y-55000000D03*
%TO.N,Net-(U9-TXCAN)*%
X55000000Y-55000000D03*
X50000000Y-54500000D03*
%TO.N,SPI1 SCK*%
X35172039Y-41472039D03*
%TO.N,SPI1 RX*%
X34000000Y-41500000D03*
%TO.N,SPI1 CSn*%
X34800000Y-39500000D03*
%TO.N,ADC 0*%
X39500000Y-36109603D03*
X39500000Y-50500000D03*
%TO.N,GPIO 15*%
X35599999Y-39500000D03*
%TO.N,SPI0 4CS*%
X32500000Y-38066800D03*
%TO.N,+3V3*%
X42573290Y-37073290D03*
%TD*%
D19*
%TO.N,+5V*%
X28225000Y-45375000D02*
X28225000Y-42275000D01*
X28225000Y-42275000D02*
X28500000Y-42000000D01*
D20*
%TO.N,D-*%
X37425000Y-16675000D02*
X37425000Y-17175000D01*
X37425000Y-17175000D02*
X36575000Y-18025000D01*
%TO.N,/QSPI_SS*%
X30500000Y-29000000D02*
X33500000Y-32000000D01*
X30500000Y-28000000D02*
X30500000Y-29000000D01*
X30000000Y-27500000D02*
X30500000Y-28000000D01*
X33500000Y-32000000D02*
X33500000Y-32500000D01*
%TO.N,SPI0 RX*%
X52500000Y-53500000D02*
X52500000Y-13500000D01*
%TO.N,SPI0 6CS*%
X45552872Y-53926161D02*
X33000000Y-41373289D01*
X33000000Y-41373289D02*
X33000000Y-39804188D01*
X33000000Y-39804188D02*
X32500025Y-39304213D01*
X52033401Y-53926161D02*
X45552872Y-53926161D01*
%TO.N,SPI0 2CS*%
X35254000Y-30246000D02*
X43563375Y-21936625D01*
X32700000Y-37200000D02*
X32757200Y-37142800D01*
X34645779Y-37142800D02*
X35254000Y-36534579D01*
X35254000Y-36534579D02*
X35254000Y-30246000D01*
X32757200Y-37142800D02*
X34645779Y-37142800D01*
X43563375Y-21936625D02*
X52042799Y-21936625D01*
%TO.N,SPI0 SCK*%
X53500000Y-53500000D02*
X53500000Y-13500000D01*
%TO.N,SPI0 TX*%
X53000000Y-13000000D02*
X53000000Y-53000000D01*
%TO.N,SPI0 1CS*%
X34492000Y-36650000D02*
X34949200Y-36192800D01*
X34949200Y-26550800D02*
X48500000Y-13000000D01*
X34949200Y-36192800D02*
X34949200Y-26550800D01*
X48500000Y-13000000D02*
X52000000Y-13000000D01*
%TO.N,SPI0 5CS*%
X36000000Y-42500000D02*
X36000000Y-41500000D01*
X36000000Y-41500000D02*
X33194891Y-38694891D01*
X39423891Y-45923891D02*
X36000000Y-42500000D01*
X33194891Y-38694891D02*
X32481512Y-38694891D01*
X52042799Y-45923891D02*
X39423891Y-45923891D01*
%TO.N,SPI0 3CS*%
X34654000Y-37762000D02*
X34492000Y-37600000D01*
X44204690Y-37762000D02*
X34654000Y-37762000D01*
X52042799Y-29923891D02*
X44204690Y-37762000D01*
%TO.N,ADC 0*%
X33260000Y-50500000D02*
X39500000Y-50500000D01*
X30765000Y-52995000D02*
X33260000Y-50500000D01*
%TO.N,SPI0 4CS*%
X48330942Y-38066800D02*
X32500000Y-38066800D01*
X48473851Y-37923891D02*
X48330942Y-38066800D01*
X52042800Y-37923891D02*
X48473851Y-37923891D01*
%TD*%
%TA.AperFunction,Conductor*%
%TO.N,+5V*%
G36*
X46796121Y-12019685D02*
G01*
X46841876Y-12072489D01*
X46851820Y-12141647D01*
X46840802Y-12177802D01*
X46838947Y-12181653D01*
X46784682Y-12336734D01*
X46784681Y-12336738D01*
X46766287Y-12499996D01*
X46766287Y-12500003D01*
X46784681Y-12663261D01*
X46784682Y-12663265D01*
X46838947Y-12818347D01*
X46878257Y-12880908D01*
X46926360Y-12957463D01*
X47042537Y-13073640D01*
X47088633Y-13102604D01*
X47161451Y-13148359D01*
X47181654Y-13161053D01*
X47336733Y-13215317D01*
X47336734Y-13215317D01*
X47336738Y-13215318D01*
X47499996Y-13233713D01*
X47500000Y-13233713D01*
X47500004Y-13233713D01*
X47663261Y-13215318D01*
X47663264Y-13215317D01*
X47663267Y-13215317D01*
X47663268Y-13215316D01*
X47663271Y-13215316D01*
X47743728Y-13187163D01*
X47813507Y-13183601D01*
X47874134Y-13218329D01*
X47906362Y-13280323D01*
X47899957Y-13349898D01*
X47872364Y-13391885D01*
X45095749Y-16168499D01*
X45034426Y-16201984D01*
X44964734Y-16197000D01*
X44908801Y-16155128D01*
X44891026Y-16121772D01*
X44858652Y-16029252D01*
X44790043Y-15920062D01*
X44771240Y-15890137D01*
X44655063Y-15773960D01*
X44606456Y-15743418D01*
X44515947Y-15686547D01*
X44360865Y-15632282D01*
X44360861Y-15632281D01*
X44197604Y-15613887D01*
X44197596Y-15613887D01*
X44034338Y-15632281D01*
X44034334Y-15632282D01*
X43879252Y-15686547D01*
X43740136Y-15773960D01*
X43623960Y-15890136D01*
X43536547Y-16029252D01*
X43482282Y-16184334D01*
X43482281Y-16184338D01*
X43463887Y-16347596D01*
X43463887Y-16347603D01*
X43482281Y-16510861D01*
X43482282Y-16510865D01*
X43536547Y-16665947D01*
X43598786Y-16764999D01*
X43623960Y-16805063D01*
X43740137Y-16921240D01*
X43879254Y-17008653D01*
X43971772Y-17041026D01*
X44028548Y-17081748D01*
X44054296Y-17146700D01*
X44040840Y-17215262D01*
X44018499Y-17245749D01*
X34854772Y-26409478D01*
X34807878Y-26456371D01*
X34782500Y-26517641D01*
X34782500Y-34172506D01*
X34762815Y-34239545D01*
X34710011Y-34285300D01*
X34644617Y-34295726D01*
X34481000Y-34277291D01*
X34480992Y-34277291D01*
X34317734Y-34295685D01*
X34317730Y-34295686D01*
X34162648Y-34349951D01*
X34023532Y-34437364D01*
X33907356Y-34553540D01*
X33819943Y-34692656D01*
X33765678Y-34847738D01*
X33765677Y-34847742D01*
X33747283Y-35011000D01*
X33747283Y-35011007D01*
X33765677Y-35174265D01*
X33765678Y-35174269D01*
X33819943Y-35329351D01*
X33894675Y-35448286D01*
X33913675Y-35515523D01*
X33894675Y-35580230D01*
X33830947Y-35681652D01*
X33776682Y-35836734D01*
X33776681Y-35836738D01*
X33758287Y-35999996D01*
X33758287Y-36000003D01*
X33776681Y-36163261D01*
X33776682Y-36163265D01*
X33818945Y-36284046D01*
X33822506Y-36353825D01*
X33818945Y-36365954D01*
X33776682Y-36486734D01*
X33776681Y-36486738D01*
X33758287Y-36649996D01*
X33758287Y-36650003D01*
X33776681Y-36813261D01*
X33778232Y-36820054D01*
X33776415Y-36820468D01*
X33779503Y-36880920D01*
X33744777Y-36941549D01*
X33682784Y-36973778D01*
X33658899Y-36976100D01*
X33482084Y-36976100D01*
X33415045Y-36956415D01*
X33369290Y-36903611D01*
X33365042Y-36893054D01*
X33364511Y-36891536D01*
X33361053Y-36881654D01*
X33273640Y-36742537D01*
X33157463Y-36626360D01*
X33140700Y-36615827D01*
X33126274Y-36606762D01*
X33079983Y-36554427D01*
X33069336Y-36485373D01*
X33087254Y-36435796D01*
X33125241Y-36375340D01*
X33161053Y-36318346D01*
X33215317Y-36163267D01*
X33215318Y-36163261D01*
X33233713Y-36000003D01*
X33233713Y-35999996D01*
X33215318Y-35836738D01*
X33215317Y-35836734D01*
X33208883Y-35818347D01*
X33161053Y-35681654D01*
X33149498Y-35663265D01*
X33102814Y-35588967D01*
X33073640Y-35542537D01*
X32957463Y-35426360D01*
X32956406Y-35425696D01*
X32818347Y-35338947D01*
X32663265Y-35284682D01*
X32663261Y-35284681D01*
X32500004Y-35266287D01*
X32499996Y-35266287D01*
X32336738Y-35284681D01*
X32336734Y-35284682D01*
X32181652Y-35338947D01*
X32042536Y-35426360D01*
X31926360Y-35542536D01*
X31854994Y-35656115D01*
X31802659Y-35702406D01*
X31733605Y-35713054D01*
X31669757Y-35684679D01*
X31645006Y-35656115D01*
X31593183Y-35573640D01*
X31573640Y-35542537D01*
X31457463Y-35426360D01*
X31456406Y-35425696D01*
X31318347Y-35338947D01*
X31163265Y-35284682D01*
X31163261Y-35284681D01*
X31000004Y-35266287D01*
X30999996Y-35266287D01*
X30836738Y-35284681D01*
X30836734Y-35284682D01*
X30681652Y-35338947D01*
X30542536Y-35426360D01*
X30426360Y-35542536D01*
X30338947Y-35681652D01*
X30284682Y-35836734D01*
X30284681Y-35836738D01*
X30266287Y-35999996D01*
X30266287Y-36000003D01*
X30284681Y-36163261D01*
X30284682Y-36163265D01*
X30338947Y-36318347D01*
X30407815Y-36427949D01*
X30426360Y-36457463D01*
X30542537Y-36573640D01*
X30609676Y-36615826D01*
X30657014Y-36645571D01*
X30681654Y-36661053D01*
X30836733Y-36715317D01*
X30836734Y-36715317D01*
X30836738Y-36715318D01*
X30999996Y-36733713D01*
X31000000Y-36733713D01*
X31000004Y-36733713D01*
X31163261Y-36715318D01*
X31163263Y-36715317D01*
X31163267Y-36715317D01*
X31318346Y-36661053D01*
X31457463Y-36573640D01*
X31573640Y-36457463D01*
X31645006Y-36343883D01*
X31697341Y-36297593D01*
X31766394Y-36286945D01*
X31830243Y-36315320D01*
X31854992Y-36343882D01*
X31926360Y-36457463D01*
X32042537Y-36573640D01*
X32073724Y-36593236D01*
X32120015Y-36645571D01*
X32130663Y-36714625D01*
X32112746Y-36764202D01*
X32038947Y-36881652D01*
X31984682Y-37036734D01*
X31984681Y-37036738D01*
X31966287Y-37199996D01*
X31966287Y-37200003D01*
X31984682Y-37363265D01*
X32007615Y-37428805D01*
X32011176Y-37498584D01*
X31978256Y-37557439D01*
X31926361Y-37609335D01*
X31838947Y-37748452D01*
X31784682Y-37903534D01*
X31784681Y-37903538D01*
X31766287Y-38066796D01*
X31766287Y-38066802D01*
X31784682Y-38230066D01*
X31813867Y-38313475D01*
X31817428Y-38383254D01*
X31813867Y-38395382D01*
X31766194Y-38531624D01*
X31766193Y-38531629D01*
X31747799Y-38694887D01*
X31747799Y-38694894D01*
X31766193Y-38858152D01*
X31766194Y-38858157D01*
X31810596Y-38985051D01*
X31814157Y-39054830D01*
X31810596Y-39066958D01*
X31784707Y-39140946D01*
X31766312Y-39304210D01*
X31766312Y-39304216D01*
X31784706Y-39467474D01*
X31784707Y-39467478D01*
X31834968Y-39611116D01*
X31838529Y-39680895D01*
X31834968Y-39693024D01*
X31784682Y-39836733D01*
X31784681Y-39836738D01*
X31766287Y-39999996D01*
X31766287Y-40000003D01*
X31784681Y-40163261D01*
X31784682Y-40163265D01*
X31838947Y-40318347D01*
X31871237Y-40369736D01*
X31926360Y-40457463D01*
X32042537Y-40573640D01*
X32104058Y-40612296D01*
X32166698Y-40651656D01*
X32181654Y-40661053D01*
X32336733Y-40715317D01*
X32336734Y-40715317D01*
X32336738Y-40715318D01*
X32499996Y-40733713D01*
X32500000Y-40733713D01*
X32500004Y-40733713D01*
X32663261Y-40715318D01*
X32663261Y-40715317D01*
X32663267Y-40715317D01*
X32668339Y-40713541D01*
X32738117Y-40709976D01*
X32798746Y-40744701D01*
X32830977Y-40806693D01*
X32833300Y-40830581D01*
X32833300Y-41340130D01*
X32833300Y-41406448D01*
X32854431Y-41457463D01*
X32858678Y-41467717D01*
X34075160Y-42684199D01*
X34108645Y-42745522D01*
X34103661Y-42815214D01*
X34061789Y-42871147D01*
X33996325Y-42895564D01*
X33928052Y-42880712D01*
X33921507Y-42876874D01*
X33861146Y-42838947D01*
X33861147Y-42838947D01*
X33706065Y-42784682D01*
X33706061Y-42784681D01*
X33542804Y-42766287D01*
X33542796Y-42766287D01*
X33379538Y-42784681D01*
X33379534Y-42784682D01*
X33224452Y-42838947D01*
X33085336Y-42926360D01*
X32969160Y-43042536D01*
X32881747Y-43181652D01*
X32827482Y-43336734D01*
X32827481Y-43336738D01*
X32809087Y-43499996D01*
X32809087Y-43500003D01*
X32827481Y-43663261D01*
X32827482Y-43663265D01*
X32881747Y-43818347D01*
X32951983Y-43930126D01*
X32969160Y-43957463D01*
X33085337Y-44073640D01*
X33224454Y-44161053D01*
X33379533Y-44215317D01*
X33379534Y-44215317D01*
X33379538Y-44215318D01*
X33542796Y-44233713D01*
X33542800Y-44233713D01*
X33542804Y-44233713D01*
X33706061Y-44215318D01*
X33706063Y-44215317D01*
X33706067Y-44215317D01*
X33861146Y-44161053D01*
X34000263Y-44073640D01*
X34116440Y-43957463D01*
X34203853Y-43818346D01*
X34258117Y-43663267D01*
X34258118Y-43663261D01*
X34276513Y-43500003D01*
X34276513Y-43499996D01*
X34258118Y-43336738D01*
X34258117Y-43336734D01*
X34251683Y-43318347D01*
X34203853Y-43181654D01*
X34192298Y-43163265D01*
X34165925Y-43121292D01*
X34146925Y-43054056D01*
X34167293Y-42987220D01*
X34220560Y-42942006D01*
X34289817Y-42932768D01*
X34353073Y-42962440D01*
X34358600Y-42967639D01*
X45458441Y-54067481D01*
X45458442Y-54067481D01*
X45458444Y-54067483D01*
X45519713Y-54092862D01*
X45519714Y-54092862D01*
X45600465Y-54092862D01*
X45600473Y-54092861D01*
X49155116Y-54092861D01*
X49222155Y-54112546D01*
X49267910Y-54165350D01*
X49277854Y-54234508D01*
X49248829Y-54298064D01*
X49196072Y-54333901D01*
X49193039Y-54334962D01*
X49181652Y-54338947D01*
X49181651Y-54338948D01*
X49042536Y-54426360D01*
X48926360Y-54542536D01*
X48838947Y-54681652D01*
X48784682Y-54836734D01*
X48784681Y-54836738D01*
X48766287Y-54999996D01*
X48766287Y-55000003D01*
X48784681Y-55163261D01*
X48784682Y-55163265D01*
X48838947Y-55318347D01*
X48874859Y-55375500D01*
X48926360Y-55457463D01*
X49042537Y-55573640D01*
X49181654Y-55661053D01*
X49336733Y-55715317D01*
X49336734Y-55715317D01*
X49336738Y-55715318D01*
X49499996Y-55733713D01*
X49500000Y-55733713D01*
X49500004Y-55733713D01*
X49663261Y-55715318D01*
X49663263Y-55715317D01*
X49663267Y-55715317D01*
X49818346Y-55661053D01*
X49957463Y-55573640D01*
X50073640Y-55457463D01*
X50161053Y-55318346D01*
X50182102Y-55258189D01*
X50222823Y-55201414D01*
X50258188Y-55182102D01*
X50318346Y-55161053D01*
X50457463Y-55073640D01*
X50531107Y-54999996D01*
X54266287Y-54999996D01*
X54266287Y-55000003D01*
X54284681Y-55163261D01*
X54284682Y-55163265D01*
X54338947Y-55318347D01*
X54374859Y-55375500D01*
X54426360Y-55457463D01*
X54542537Y-55573640D01*
X54681654Y-55661053D01*
X54836733Y-55715317D01*
X54836734Y-55715317D01*
X54836738Y-55715318D01*
X54999996Y-55733713D01*
X55000000Y-55733713D01*
X55000004Y-55733713D01*
X55163261Y-55715318D01*
X55163263Y-55715317D01*
X55163267Y-55715317D01*
X55318346Y-55661053D01*
X55457463Y-55573640D01*
X55573640Y-55457463D01*
X55661053Y-55318346D01*
X55715317Y-55163267D01*
X55715318Y-55163261D01*
X55733713Y-55000003D01*
X55733713Y-54999996D01*
X55715318Y-54836738D01*
X55715317Y-54836734D01*
X55708883Y-54818347D01*
X55661053Y-54681654D01*
X55649498Y-54663265D01*
X55573639Y-54542536D01*
X55457463Y-54426360D01*
X55318347Y-54338947D01*
X55163265Y-54284682D01*
X55163261Y-54284681D01*
X55000004Y-54266287D01*
X54999996Y-54266287D01*
X54836738Y-54284681D01*
X54836734Y-54284682D01*
X54681652Y-54338947D01*
X54542536Y-54426360D01*
X54426360Y-54542536D01*
X54338947Y-54681652D01*
X54284682Y-54836734D01*
X54284681Y-54836738D01*
X54266287Y-54999996D01*
X50531107Y-54999996D01*
X50573640Y-54957463D01*
X50661053Y-54818346D01*
X50715317Y-54663267D01*
X50715318Y-54663261D01*
X50733713Y-54500003D01*
X50733713Y-54499996D01*
X50715318Y-54336738D01*
X50715317Y-54336733D01*
X50687703Y-54257815D01*
X50684142Y-54188036D01*
X50718871Y-54127409D01*
X50780865Y-54095182D01*
X50804745Y-54092861D01*
X51231302Y-54092861D01*
X51298341Y-54112546D01*
X51344096Y-54165350D01*
X51348344Y-54175907D01*
X51372348Y-54244508D01*
X51445523Y-54360965D01*
X51459761Y-54383624D01*
X51575938Y-54499801D01*
X51715055Y-54587214D01*
X51870134Y-54641478D01*
X51870135Y-54641478D01*
X51870139Y-54641479D01*
X52033397Y-54659874D01*
X52033401Y-54659874D01*
X52033405Y-54659874D01*
X52196662Y-54641479D01*
X52196664Y-54641478D01*
X52196668Y-54641478D01*
X52351747Y-54587214D01*
X52490864Y-54499801D01*
X52607041Y-54383624D01*
X52694454Y-54244507D01*
X52694458Y-54244495D01*
X52695395Y-54242552D01*
X52696339Y-54241506D01*
X52698159Y-54238610D01*
X52698666Y-54238928D01*
X52742218Y-54190693D01*
X52766161Y-54179313D01*
X52775895Y-54175907D01*
X52818346Y-54161053D01*
X52934028Y-54088364D01*
X53001264Y-54069365D01*
X53065971Y-54088364D01*
X53181654Y-54161053D01*
X53336733Y-54215317D01*
X53336734Y-54215317D01*
X53336738Y-54215318D01*
X53499996Y-54233713D01*
X53500000Y-54233713D01*
X53500004Y-54233713D01*
X53663261Y-54215318D01*
X53663263Y-54215317D01*
X53663267Y-54215317D01*
X53818346Y-54161053D01*
X53957463Y-54073640D01*
X54073640Y-53957463D01*
X54161053Y-53818346D01*
X54215317Y-53663267D01*
X54221565Y-53607815D01*
X54233713Y-53500003D01*
X54233713Y-53499996D01*
X54215318Y-53336738D01*
X54215317Y-53336734D01*
X54190254Y-53265108D01*
X54161053Y-53181654D01*
X54156115Y-53173796D01*
X54125343Y-53124821D01*
X54073640Y-53042537D01*
X53957463Y-52926360D01*
X53942511Y-52916965D01*
X53818348Y-52838948D01*
X53818345Y-52838946D01*
X53758189Y-52817897D01*
X53701413Y-52777176D01*
X53682101Y-52741807D01*
X53673657Y-52717673D01*
X53666700Y-52676722D01*
X53666700Y-51997165D01*
X53686385Y-51930126D01*
X53739189Y-51884371D01*
X53808347Y-51874427D01*
X53871903Y-51903452D01*
X53878381Y-51909484D01*
X53968237Y-51999340D01*
X54107354Y-52086753D01*
X54262433Y-52141017D01*
X54262434Y-52141017D01*
X54262438Y-52141018D01*
X54425696Y-52159413D01*
X54425700Y-52159413D01*
X54425704Y-52159413D01*
X54588961Y-52141018D01*
X54588963Y-52141017D01*
X54588967Y-52141017D01*
X54744046Y-52086753D01*
X54883163Y-51999340D01*
X54999340Y-51883163D01*
X55086753Y-51744046D01*
X55141017Y-51588967D01*
X55141018Y-51588961D01*
X55159413Y-51425703D01*
X55159413Y-51425696D01*
X55141018Y-51262438D01*
X55141017Y-51262434D01*
X55130967Y-51233713D01*
X55086753Y-51107354D01*
X55065568Y-51073639D01*
X55019298Y-51000000D01*
X54999340Y-50968237D01*
X54883163Y-50852060D01*
X54829509Y-50818347D01*
X54744047Y-50764647D01*
X54588965Y-50710382D01*
X54588961Y-50710381D01*
X54425704Y-50691987D01*
X54425696Y-50691987D01*
X54262438Y-50710381D01*
X54262434Y-50710382D01*
X54107352Y-50764647D01*
X53968236Y-50852060D01*
X53878381Y-50941916D01*
X53817058Y-50975401D01*
X53747366Y-50970417D01*
X53691433Y-50928545D01*
X53667016Y-50863081D01*
X53666700Y-50854235D01*
X53666700Y-49999996D01*
X55491287Y-49999996D01*
X55491287Y-50000003D01*
X55509681Y-50163261D01*
X55509682Y-50163265D01*
X55563947Y-50318347D01*
X55631817Y-50426360D01*
X55651360Y-50457463D01*
X55767537Y-50573640D01*
X55906654Y-50661053D01*
X56061733Y-50715317D01*
X56061734Y-50715317D01*
X56061738Y-50715318D01*
X56224996Y-50733713D01*
X56225000Y-50733713D01*
X56225004Y-50733713D01*
X56388261Y-50715318D01*
X56388263Y-50715317D01*
X56388267Y-50715317D01*
X56543346Y-50661053D01*
X56682463Y-50573640D01*
X56798640Y-50457463D01*
X56886053Y-50318346D01*
X56940317Y-50163267D01*
X56940318Y-50163261D01*
X56958713Y-50000003D01*
X56958713Y-49999996D01*
X56940318Y-49836738D01*
X56940317Y-49836734D01*
X56931936Y-49812783D01*
X56886053Y-49681654D01*
X56798640Y-49542537D01*
X56682463Y-49426360D01*
X56543347Y-49338947D01*
X56388265Y-49284682D01*
X56388261Y-49284681D01*
X56225004Y-49266287D01*
X56224996Y-49266287D01*
X56061738Y-49284681D01*
X56061734Y-49284682D01*
X55906652Y-49338947D01*
X55767536Y-49426360D01*
X55651360Y-49542536D01*
X55563947Y-49681652D01*
X55509682Y-49836734D01*
X55509681Y-49836738D01*
X55491287Y-49999996D01*
X53666700Y-49999996D01*
X53666700Y-46999996D01*
X54266287Y-46999996D01*
X54266287Y-47000003D01*
X54284681Y-47163261D01*
X54284682Y-47163265D01*
X54338947Y-47318347D01*
X54422511Y-47451337D01*
X54426360Y-47457463D01*
X54542537Y-47573640D01*
X54681654Y-47661053D01*
X54836733Y-47715317D01*
X54836734Y-47715317D01*
X54836738Y-47715318D01*
X54999996Y-47733713D01*
X55000000Y-47733713D01*
X55000004Y-47733713D01*
X55163261Y-47715318D01*
X55163263Y-47715317D01*
X55163267Y-47715317D01*
X55318346Y-47661053D01*
X55457463Y-47573640D01*
X55573640Y-47457463D01*
X55661053Y-47318346D01*
X55715317Y-47163267D01*
X55715318Y-47163261D01*
X55733713Y-47000003D01*
X55733713Y-46999996D01*
X55715318Y-46836738D01*
X55715317Y-46836734D01*
X55708883Y-46818347D01*
X55661053Y-46681654D01*
X55652159Y-46667500D01*
X55600285Y-46584943D01*
X55573640Y-46542537D01*
X55457463Y-46426360D01*
X55436993Y-46413498D01*
X55318347Y-46338947D01*
X55163265Y-46284682D01*
X55163261Y-46284681D01*
X55000004Y-46266287D01*
X54999996Y-46266287D01*
X54836738Y-46284681D01*
X54836734Y-46284682D01*
X54681652Y-46338947D01*
X54542536Y-46426360D01*
X54426360Y-46542536D01*
X54338947Y-46681652D01*
X54284682Y-46836734D01*
X54284681Y-46836738D01*
X54266287Y-46999996D01*
X53666700Y-46999996D01*
X53666700Y-46302098D01*
X53686385Y-46235059D01*
X53739189Y-46189304D01*
X53749741Y-46185058D01*
X53818346Y-46161053D01*
X53957463Y-46073640D01*
X54073640Y-45957463D01*
X54161053Y-45818346D01*
X54215317Y-45663267D01*
X54215318Y-45663261D01*
X54233713Y-45500003D01*
X54233713Y-45499996D01*
X54215318Y-45336738D01*
X54215317Y-45336734D01*
X54208883Y-45318347D01*
X54161053Y-45181654D01*
X54149498Y-45163265D01*
X54125343Y-45124821D01*
X54073640Y-45042537D01*
X53957463Y-44926360D01*
X53929954Y-44909075D01*
X53818348Y-44838948D01*
X53818345Y-44838946D01*
X53758189Y-44817897D01*
X53701413Y-44777176D01*
X53682101Y-44741807D01*
X53673657Y-44717673D01*
X53666700Y-44676722D01*
X53666700Y-43997165D01*
X53686385Y-43930126D01*
X53739189Y-43884371D01*
X53808347Y-43874427D01*
X53871903Y-43903452D01*
X53878381Y-43909484D01*
X53968237Y-43999340D01*
X54035621Y-44041680D01*
X54099224Y-44081645D01*
X54107354Y-44086753D01*
X54262433Y-44141017D01*
X54262434Y-44141017D01*
X54262438Y-44141018D01*
X54425696Y-44159413D01*
X54425700Y-44159413D01*
X54425704Y-44159413D01*
X54588961Y-44141018D01*
X54588963Y-44141017D01*
X54588967Y-44141017D01*
X54744046Y-44086753D01*
X54883163Y-43999340D01*
X54999340Y-43883163D01*
X55086753Y-43744046D01*
X55141017Y-43588967D01*
X55141018Y-43588961D01*
X55159413Y-43425703D01*
X55159413Y-43425696D01*
X55141018Y-43262438D01*
X55141017Y-43262434D01*
X55134157Y-43242830D01*
X55086753Y-43107354D01*
X55084094Y-43103123D01*
X55019298Y-43000000D01*
X54999340Y-42968237D01*
X54883163Y-42852060D01*
X54806388Y-42803819D01*
X54744047Y-42764647D01*
X54588965Y-42710382D01*
X54588961Y-42710381D01*
X54425704Y-42691987D01*
X54425696Y-42691987D01*
X54262438Y-42710381D01*
X54262434Y-42710382D01*
X54107352Y-42764647D01*
X53968236Y-42852060D01*
X53878381Y-42941916D01*
X53817058Y-42975401D01*
X53747366Y-42970417D01*
X53691433Y-42928545D01*
X53667016Y-42863081D01*
X53666700Y-42854235D01*
X53666700Y-41499996D01*
X55491287Y-41499996D01*
X55491287Y-41500003D01*
X55509681Y-41663261D01*
X55509682Y-41663265D01*
X55563947Y-41818347D01*
X55633791Y-41929502D01*
X55651360Y-41957463D01*
X55767537Y-42073640D01*
X55811617Y-42101337D01*
X55874171Y-42140643D01*
X55906654Y-42161053D01*
X56061733Y-42215317D01*
X56061734Y-42215317D01*
X56061738Y-42215318D01*
X56224996Y-42233713D01*
X56225000Y-42233713D01*
X56225004Y-42233713D01*
X56388261Y-42215318D01*
X56388263Y-42215317D01*
X56388267Y-42215317D01*
X56543346Y-42161053D01*
X56682463Y-42073640D01*
X56798640Y-41957463D01*
X56886053Y-41818346D01*
X56940317Y-41663267D01*
X56940318Y-41663261D01*
X56958713Y-41500003D01*
X56958713Y-41499996D01*
X56940318Y-41336738D01*
X56940317Y-41336734D01*
X56934040Y-41318796D01*
X56886053Y-41181654D01*
X56874498Y-41163265D01*
X56810564Y-41061514D01*
X56798640Y-41042537D01*
X56682463Y-40926360D01*
X56676918Y-40922876D01*
X56543347Y-40838947D01*
X56388265Y-40784682D01*
X56388261Y-40784681D01*
X56225004Y-40766287D01*
X56224996Y-40766287D01*
X56061738Y-40784681D01*
X56061734Y-40784682D01*
X55906652Y-40838947D01*
X55767536Y-40926360D01*
X55651360Y-41042536D01*
X55563947Y-41181652D01*
X55509682Y-41336734D01*
X55509681Y-41336738D01*
X55491287Y-41499996D01*
X53666700Y-41499996D01*
X53666700Y-38999996D01*
X54266287Y-38999996D01*
X54266287Y-39000003D01*
X54284681Y-39163261D01*
X54284682Y-39163265D01*
X54338947Y-39318347D01*
X54350503Y-39336738D01*
X54426360Y-39457463D01*
X54542537Y-39573640D01*
X54602180Y-39611116D01*
X54667446Y-39652126D01*
X54681654Y-39661053D01*
X54836733Y-39715317D01*
X54836734Y-39715317D01*
X54836738Y-39715318D01*
X54999996Y-39733713D01*
X55000000Y-39733713D01*
X55000004Y-39733713D01*
X55163261Y-39715318D01*
X55163263Y-39715317D01*
X55163267Y-39715317D01*
X55318346Y-39661053D01*
X55457463Y-39573640D01*
X55573640Y-39457463D01*
X55661053Y-39318346D01*
X55715317Y-39163267D01*
X55715344Y-39163026D01*
X55733713Y-39000003D01*
X55733713Y-38999996D01*
X55715318Y-38836738D01*
X55715317Y-38836734D01*
X55708883Y-38818347D01*
X55661053Y-38681654D01*
X55660584Y-38680908D01*
X55573639Y-38542536D01*
X55457463Y-38426360D01*
X55318347Y-38338947D01*
X55163265Y-38284682D01*
X55163261Y-38284681D01*
X55000004Y-38266287D01*
X54999996Y-38266287D01*
X54836738Y-38284681D01*
X54836734Y-38284682D01*
X54681652Y-38338947D01*
X54542536Y-38426360D01*
X54426360Y-38542536D01*
X54338947Y-38681652D01*
X54284682Y-38836734D01*
X54284681Y-38836738D01*
X54266287Y-38999996D01*
X53666700Y-38999996D01*
X53666700Y-38302098D01*
X53686385Y-38235059D01*
X53739189Y-38189304D01*
X53749741Y-38185058D01*
X53818346Y-38161053D01*
X53957463Y-38073640D01*
X54073640Y-37957463D01*
X54161053Y-37818346D01*
X54215317Y-37663267D01*
X54221821Y-37605543D01*
X54233713Y-37500003D01*
X54233713Y-37499996D01*
X54215318Y-37336738D01*
X54215317Y-37336734D01*
X54205970Y-37310022D01*
X54161053Y-37181654D01*
X54073640Y-37042537D01*
X53957463Y-36926360D01*
X53885146Y-36880920D01*
X53818348Y-36838948D01*
X53818345Y-36838946D01*
X53765537Y-36820468D01*
X53758188Y-36817896D01*
X53701413Y-36777176D01*
X53682101Y-36741807D01*
X53673657Y-36717673D01*
X53666700Y-36676722D01*
X53666700Y-35997165D01*
X53686385Y-35930126D01*
X53739189Y-35884371D01*
X53808347Y-35874427D01*
X53871903Y-35903452D01*
X53878381Y-35909484D01*
X53968237Y-35999340D01*
X54107354Y-36086753D01*
X54262433Y-36141017D01*
X54262434Y-36141017D01*
X54262438Y-36141018D01*
X54425696Y-36159413D01*
X54425700Y-36159413D01*
X54425704Y-36159413D01*
X54588961Y-36141018D01*
X54588963Y-36141017D01*
X54588967Y-36141017D01*
X54744046Y-36086753D01*
X54883163Y-35999340D01*
X54999340Y-35883163D01*
X55086753Y-35744046D01*
X55141017Y-35588967D01*
X55141018Y-35588961D01*
X55159413Y-35425703D01*
X55159413Y-35425696D01*
X55141018Y-35262438D01*
X55141017Y-35262434D01*
X55132783Y-35238903D01*
X55086753Y-35107354D01*
X54999340Y-34968237D01*
X54883163Y-34852060D01*
X54858770Y-34836733D01*
X54744047Y-34764647D01*
X54588965Y-34710382D01*
X54588961Y-34710381D01*
X54425704Y-34691987D01*
X54425696Y-34691987D01*
X54262438Y-34710381D01*
X54262434Y-34710382D01*
X54107352Y-34764647D01*
X53968236Y-34852060D01*
X53878381Y-34941916D01*
X53817058Y-34975401D01*
X53747366Y-34970417D01*
X53691433Y-34928545D01*
X53667016Y-34863081D01*
X53666700Y-34854235D01*
X53666700Y-32499996D01*
X55491287Y-32499996D01*
X55491287Y-32500003D01*
X55509681Y-32663261D01*
X55509682Y-32663265D01*
X55563947Y-32818347D01*
X55631817Y-32926360D01*
X55651360Y-32957463D01*
X55767537Y-33073640D01*
X55906654Y-33161053D01*
X56061733Y-33215317D01*
X56061734Y-33215317D01*
X56061738Y-33215318D01*
X56224996Y-33233713D01*
X56225000Y-33233713D01*
X56225004Y-33233713D01*
X56388261Y-33215318D01*
X56388263Y-33215317D01*
X56388267Y-33215317D01*
X56543346Y-33161053D01*
X56682463Y-33073640D01*
X56798640Y-32957463D01*
X56886053Y-32818346D01*
X56940317Y-32663267D01*
X56940318Y-32663261D01*
X56958713Y-32500003D01*
X56958713Y-32499996D01*
X56940318Y-32336738D01*
X56940317Y-32336734D01*
X56937919Y-32329882D01*
X56886053Y-32181654D01*
X56798640Y-32042537D01*
X56682463Y-31926360D01*
X56656130Y-31909814D01*
X56543347Y-31838947D01*
X56388265Y-31784682D01*
X56388261Y-31784681D01*
X56225004Y-31766287D01*
X56224996Y-31766287D01*
X56061738Y-31784681D01*
X56061734Y-31784682D01*
X55906652Y-31838947D01*
X55767536Y-31926360D01*
X55651360Y-32042536D01*
X55563947Y-32181652D01*
X55509682Y-32336734D01*
X55509681Y-32336738D01*
X55491287Y-32499996D01*
X53666700Y-32499996D01*
X53666700Y-30999996D01*
X54266287Y-30999996D01*
X54266287Y-31000003D01*
X54284681Y-31163261D01*
X54284682Y-31163265D01*
X54338947Y-31318347D01*
X54426360Y-31457463D01*
X54542537Y-31573640D01*
X54681654Y-31661053D01*
X54836733Y-31715317D01*
X54836734Y-31715317D01*
X54836738Y-31715318D01*
X54999996Y-31733713D01*
X55000000Y-31733713D01*
X55000004Y-31733713D01*
X55163261Y-31715318D01*
X55163263Y-31715317D01*
X55163267Y-31715317D01*
X55318346Y-31661053D01*
X55457463Y-31573640D01*
X55573640Y-31457463D01*
X55661053Y-31318346D01*
X55715317Y-31163267D01*
X55715318Y-31163261D01*
X55733713Y-31000003D01*
X55733713Y-30999996D01*
X55715318Y-30836738D01*
X55715317Y-30836734D01*
X55705176Y-30807753D01*
X55661053Y-30681654D01*
X55645941Y-30657604D01*
X55596443Y-30578828D01*
X55573640Y-30542537D01*
X55457463Y-30426360D01*
X55318347Y-30338947D01*
X55163265Y-30284682D01*
X55163261Y-30284681D01*
X55000004Y-30266287D01*
X54999996Y-30266287D01*
X54836738Y-30284681D01*
X54836734Y-30284682D01*
X54681652Y-30338947D01*
X54542536Y-30426360D01*
X54426360Y-30542536D01*
X54338947Y-30681652D01*
X54284682Y-30836734D01*
X54284681Y-30836738D01*
X54266287Y-30999996D01*
X53666700Y-30999996D01*
X53666700Y-30302098D01*
X53686385Y-30235059D01*
X53739189Y-30189304D01*
X53749741Y-30185058D01*
X53818346Y-30161053D01*
X53957463Y-30073640D01*
X54073640Y-29957463D01*
X54161053Y-29818346D01*
X54215317Y-29663267D01*
X54220466Y-29617568D01*
X54233713Y-29500003D01*
X54233713Y-29499996D01*
X54215318Y-29336738D01*
X54215317Y-29336734D01*
X54161052Y-29181652D01*
X54100857Y-29085853D01*
X54073640Y-29042537D01*
X53957463Y-28926360D01*
X53887283Y-28882263D01*
X53818348Y-28838948D01*
X53818345Y-28838946D01*
X53758189Y-28817897D01*
X53701413Y-28777176D01*
X53682101Y-28741807D01*
X53673657Y-28717673D01*
X53666700Y-28676722D01*
X53666700Y-27997165D01*
X53686385Y-27930126D01*
X53739189Y-27884371D01*
X53808347Y-27874427D01*
X53871903Y-27903452D01*
X53878381Y-27909484D01*
X53968237Y-27999340D01*
X54107354Y-28086753D01*
X54262433Y-28141017D01*
X54262434Y-28141017D01*
X54262438Y-28141018D01*
X54425696Y-28159413D01*
X54425700Y-28159413D01*
X54425704Y-28159413D01*
X54588961Y-28141018D01*
X54588963Y-28141017D01*
X54588967Y-28141017D01*
X54744046Y-28086753D01*
X54883163Y-27999340D01*
X54999340Y-27883163D01*
X55086753Y-27744046D01*
X55141017Y-27588967D01*
X55151041Y-27500003D01*
X55159413Y-27425703D01*
X55159413Y-27425696D01*
X55141018Y-27262438D01*
X55141017Y-27262434D01*
X55112750Y-27181652D01*
X55086753Y-27107354D01*
X55085149Y-27104802D01*
X55019298Y-27000000D01*
X54999340Y-26968237D01*
X54883163Y-26852060D01*
X54858770Y-26836733D01*
X54744047Y-26764647D01*
X54588965Y-26710382D01*
X54588961Y-26710381D01*
X54425704Y-26691987D01*
X54425696Y-26691987D01*
X54262438Y-26710381D01*
X54262434Y-26710382D01*
X54107352Y-26764647D01*
X53968236Y-26852060D01*
X53878381Y-26941916D01*
X53817058Y-26975401D01*
X53747366Y-26970417D01*
X53691433Y-26928545D01*
X53667016Y-26863081D01*
X53666700Y-26854235D01*
X53666700Y-22999996D01*
X54266287Y-22999996D01*
X54266287Y-23000003D01*
X54284681Y-23163261D01*
X54284682Y-23163265D01*
X54338947Y-23318347D01*
X54406817Y-23426360D01*
X54426360Y-23457463D01*
X54542537Y-23573640D01*
X54624821Y-23625343D01*
X54668767Y-23652956D01*
X54681654Y-23661053D01*
X54836733Y-23715317D01*
X54836734Y-23715317D01*
X54836738Y-23715318D01*
X54999996Y-23733713D01*
X55000000Y-23733713D01*
X55000004Y-23733713D01*
X55163261Y-23715318D01*
X55163263Y-23715317D01*
X55163267Y-23715317D01*
X55318346Y-23661053D01*
X55331233Y-23652956D01*
X55342349Y-23645971D01*
X55409585Y-23626970D01*
X55476421Y-23647337D01*
X55521635Y-23700604D01*
X55530874Y-23769860D01*
X55525364Y-23791918D01*
X55509682Y-23836733D01*
X55509681Y-23836738D01*
X55491287Y-23999996D01*
X55491287Y-24000003D01*
X55509681Y-24163261D01*
X55509682Y-24163265D01*
X55563947Y-24318347D01*
X55651360Y-24457463D01*
X55767537Y-24573640D01*
X55906654Y-24661053D01*
X56061733Y-24715317D01*
X56061734Y-24715317D01*
X56061738Y-24715318D01*
X56224996Y-24733713D01*
X56225000Y-24733713D01*
X56225004Y-24733713D01*
X56388261Y-24715318D01*
X56388263Y-24715317D01*
X56388267Y-24715317D01*
X56543346Y-24661053D01*
X56682463Y-24573640D01*
X56798640Y-24457463D01*
X56886053Y-24318346D01*
X56940317Y-24163267D01*
X56940318Y-24163261D01*
X56958713Y-24000003D01*
X56958713Y-23999996D01*
X56940318Y-23836738D01*
X56940317Y-23836734D01*
X56933883Y-23818347D01*
X56886053Y-23681654D01*
X56874498Y-23663265D01*
X56818183Y-23573640D01*
X56798640Y-23542537D01*
X56682463Y-23426360D01*
X56543347Y-23338947D01*
X56388265Y-23284682D01*
X56388261Y-23284681D01*
X56225004Y-23266287D01*
X56224996Y-23266287D01*
X56061738Y-23284681D01*
X56061734Y-23284682D01*
X55906652Y-23338947D01*
X55906646Y-23338950D01*
X55882646Y-23354030D01*
X55815409Y-23373029D01*
X55748574Y-23352660D01*
X55703362Y-23299390D01*
X55694126Y-23230134D01*
X55699634Y-23208086D01*
X55715317Y-23163267D01*
X55715318Y-23163261D01*
X55733713Y-23000003D01*
X55733713Y-22999996D01*
X55715318Y-22836738D01*
X55715317Y-22836734D01*
X55708883Y-22818347D01*
X55661053Y-22681654D01*
X55649498Y-22663265D01*
X55573639Y-22542536D01*
X55457463Y-22426360D01*
X55318347Y-22338947D01*
X55163265Y-22284682D01*
X55163261Y-22284681D01*
X55000004Y-22266287D01*
X54999996Y-22266287D01*
X54836738Y-22284681D01*
X54836734Y-22284682D01*
X54681652Y-22338947D01*
X54542536Y-22426360D01*
X54426360Y-22542536D01*
X54338947Y-22681652D01*
X54284682Y-22836734D01*
X54284681Y-22836738D01*
X54266287Y-22999996D01*
X53666700Y-22999996D01*
X53666700Y-22302098D01*
X53686385Y-22235059D01*
X53739189Y-22189304D01*
X53749741Y-22185058D01*
X53818346Y-22161053D01*
X53957463Y-22073640D01*
X54073640Y-21957463D01*
X54161053Y-21818346D01*
X54215317Y-21663267D01*
X54215318Y-21663261D01*
X54233713Y-21500003D01*
X54233713Y-21499996D01*
X54215318Y-21336738D01*
X54215317Y-21336734D01*
X54211955Y-21327127D01*
X54161053Y-21181654D01*
X54160565Y-21180878D01*
X54100857Y-21085853D01*
X54073640Y-21042537D01*
X53957463Y-20926360D01*
X53898877Y-20889548D01*
X53818348Y-20838948D01*
X53818345Y-20838946D01*
X53758189Y-20817897D01*
X53701413Y-20777176D01*
X53682101Y-20741807D01*
X53673657Y-20717673D01*
X53666700Y-20676722D01*
X53666700Y-19997165D01*
X53686385Y-19930126D01*
X53739189Y-19884371D01*
X53808347Y-19874427D01*
X53871903Y-19903452D01*
X53878381Y-19909484D01*
X53968237Y-19999340D01*
X54107354Y-20086753D01*
X54262433Y-20141017D01*
X54262434Y-20141017D01*
X54262438Y-20141018D01*
X54425696Y-20159413D01*
X54425700Y-20159413D01*
X54425704Y-20159413D01*
X54588961Y-20141018D01*
X54588963Y-20141017D01*
X54588967Y-20141017D01*
X54744046Y-20086753D01*
X54883163Y-19999340D01*
X54999340Y-19883163D01*
X55086753Y-19744046D01*
X55141017Y-19588967D01*
X55159413Y-19425700D01*
X55147317Y-19318347D01*
X55141018Y-19262438D01*
X55141017Y-19262434D01*
X55106317Y-19163267D01*
X55086753Y-19107354D01*
X54999340Y-18968237D01*
X54883163Y-18852060D01*
X54858770Y-18836733D01*
X54744047Y-18764647D01*
X54588965Y-18710382D01*
X54588961Y-18710381D01*
X54425704Y-18691987D01*
X54425696Y-18691987D01*
X54262438Y-18710381D01*
X54262434Y-18710382D01*
X54107352Y-18764647D01*
X53968236Y-18852060D01*
X53878381Y-18941916D01*
X53817058Y-18975401D01*
X53747366Y-18970417D01*
X53691433Y-18928545D01*
X53667016Y-18863081D01*
X53666700Y-18854235D01*
X53666700Y-14999996D01*
X54266287Y-14999996D01*
X54266287Y-15000003D01*
X54284681Y-15163261D01*
X54284682Y-15163265D01*
X54338947Y-15318347D01*
X54410704Y-15432547D01*
X54426360Y-15457463D01*
X54542537Y-15573640D01*
X54560179Y-15584725D01*
X54659269Y-15646988D01*
X54681654Y-15661053D01*
X54836733Y-15715317D01*
X54836734Y-15715317D01*
X54836738Y-15715318D01*
X54999996Y-15733713D01*
X55000000Y-15733713D01*
X55000004Y-15733713D01*
X55163261Y-15715318D01*
X55163263Y-15715317D01*
X55163267Y-15715317D01*
X55318346Y-15661053D01*
X55342902Y-15645623D01*
X55410137Y-15626622D01*
X55476972Y-15646988D01*
X55522188Y-15700255D01*
X55525917Y-15709662D01*
X55563947Y-15818347D01*
X55636135Y-15933233D01*
X55651360Y-15957463D01*
X55767537Y-16073640D01*
X55906654Y-16161053D01*
X56061733Y-16215317D01*
X56061734Y-16215317D01*
X56061738Y-16215318D01*
X56224996Y-16233713D01*
X56225000Y-16233713D01*
X56225004Y-16233713D01*
X56388261Y-16215318D01*
X56388263Y-16215317D01*
X56388267Y-16215317D01*
X56543346Y-16161053D01*
X56682463Y-16073640D01*
X56798640Y-15957463D01*
X56886053Y-15818346D01*
X56940317Y-15663267D01*
X56940318Y-15663261D01*
X56958713Y-15500003D01*
X56958713Y-15499996D01*
X56940318Y-15336738D01*
X56940317Y-15336734D01*
X56933883Y-15318347D01*
X56886053Y-15181654D01*
X56874498Y-15163265D01*
X56798639Y-15042536D01*
X56682463Y-14926360D01*
X56543347Y-14838947D01*
X56388265Y-14784682D01*
X56388261Y-14784681D01*
X56225004Y-14766287D01*
X56224996Y-14766287D01*
X56061738Y-14784681D01*
X56061734Y-14784682D01*
X55906653Y-14838947D01*
X55882095Y-14854378D01*
X55814858Y-14873377D01*
X55748023Y-14853008D01*
X55702809Y-14799740D01*
X55699082Y-14790337D01*
X55697103Y-14784682D01*
X55661053Y-14681654D01*
X55573640Y-14542537D01*
X55457463Y-14426360D01*
X55318347Y-14338947D01*
X55163265Y-14284682D01*
X55163261Y-14284681D01*
X55000004Y-14266287D01*
X54999996Y-14266287D01*
X54836738Y-14284681D01*
X54836734Y-14284682D01*
X54681652Y-14338947D01*
X54542536Y-14426360D01*
X54426360Y-14542536D01*
X54338947Y-14681652D01*
X54284682Y-14836734D01*
X54284681Y-14836738D01*
X54266287Y-14999996D01*
X53666700Y-14999996D01*
X53666700Y-14302098D01*
X53686385Y-14235059D01*
X53739189Y-14189304D01*
X53749741Y-14185058D01*
X53818346Y-14161053D01*
X53957463Y-14073640D01*
X54073640Y-13957463D01*
X54161053Y-13818346D01*
X54215317Y-13663267D01*
X54215318Y-13663261D01*
X54233713Y-13500003D01*
X54233713Y-13499996D01*
X54215318Y-13336738D01*
X54215317Y-13336734D01*
X54211958Y-13327135D01*
X54161053Y-13181654D01*
X54154599Y-13171383D01*
X54115952Y-13109876D01*
X54073640Y-13042537D01*
X53957463Y-12926360D01*
X53874930Y-12874501D01*
X53818348Y-12838948D01*
X53818345Y-12838946D01*
X53759475Y-12818347D01*
X53758188Y-12817896D01*
X53701413Y-12777176D01*
X53682102Y-12741810D01*
X53661052Y-12681652D01*
X53573639Y-12542536D01*
X53457463Y-12426360D01*
X53318347Y-12338947D01*
X53163265Y-12284682D01*
X53163261Y-12284681D01*
X53000004Y-12266287D01*
X52999996Y-12266287D01*
X52836738Y-12284681D01*
X52836734Y-12284682D01*
X52681652Y-12338947D01*
X52565972Y-12411634D01*
X52498735Y-12430634D01*
X52434028Y-12411634D01*
X52318346Y-12338947D01*
X52318347Y-12338947D01*
X52163265Y-12284682D01*
X52163261Y-12284681D01*
X52000004Y-12266287D01*
X51999996Y-12266287D01*
X51836738Y-12284681D01*
X51836734Y-12284682D01*
X51681652Y-12338947D01*
X51542536Y-12426360D01*
X51426360Y-12542536D01*
X51338947Y-12681652D01*
X51314943Y-12750254D01*
X51274221Y-12807030D01*
X51209268Y-12832778D01*
X51197901Y-12833300D01*
X50823277Y-12833300D01*
X50782323Y-12826342D01*
X50663265Y-12784682D01*
X50663261Y-12784681D01*
X50500004Y-12766287D01*
X50499996Y-12766287D01*
X50336738Y-12784681D01*
X50336734Y-12784682D01*
X50217677Y-12826342D01*
X50176723Y-12833300D01*
X48466841Y-12833300D01*
X48405571Y-12858678D01*
X48391883Y-12872366D01*
X48330559Y-12905850D01*
X48260868Y-12900864D01*
X48204935Y-12858991D01*
X48180520Y-12793526D01*
X48187163Y-12743728D01*
X48215316Y-12663271D01*
X48215318Y-12663261D01*
X48233713Y-12500003D01*
X48233713Y-12499996D01*
X48215318Y-12336738D01*
X48215317Y-12336734D01*
X48197104Y-12284683D01*
X48161053Y-12181654D01*
X48161050Y-12181650D01*
X48159198Y-12177802D01*
X48147846Y-12108861D01*
X48175568Y-12044726D01*
X48233563Y-12005761D01*
X48270918Y-12000000D01*
X61876000Y-12000000D01*
X61943039Y-12019685D01*
X61988794Y-12072489D01*
X62000000Y-12124000D01*
X62000000Y-13035565D01*
X61980315Y-13102604D01*
X61927511Y-13148359D01*
X61858353Y-13158303D01*
X61794797Y-13129278D01*
X61776734Y-13109876D01*
X61707547Y-13017455D01*
X61707544Y-13017452D01*
X61592335Y-12931206D01*
X61592328Y-12931202D01*
X61457482Y-12880908D01*
X61457483Y-12880908D01*
X61397883Y-12874501D01*
X61397881Y-12874500D01*
X61397873Y-12874500D01*
X61397864Y-12874500D01*
X59602129Y-12874500D01*
X59602123Y-12874501D01*
X59542516Y-12880908D01*
X59407671Y-12931202D01*
X59407664Y-12931206D01*
X59292455Y-13017452D01*
X59292452Y-13017455D01*
X59206206Y-13132664D01*
X59206202Y-13132671D01*
X59155908Y-13267517D01*
X59149501Y-13327116D01*
X59149500Y-13327135D01*
X59149500Y-15122870D01*
X59149501Y-15122876D01*
X59155908Y-15182483D01*
X59206202Y-15317328D01*
X59206206Y-15317335D01*
X59292452Y-15432544D01*
X59292455Y-15432547D01*
X59407664Y-15518793D01*
X59407671Y-15518797D01*
X59539081Y-15567810D01*
X59595015Y-15609681D01*
X59619432Y-15675145D01*
X59604580Y-15743418D01*
X59583430Y-15771673D01*
X59461503Y-15893600D01*
X59325965Y-16087169D01*
X59325964Y-16087171D01*
X59226098Y-16301335D01*
X59226094Y-16301344D01*
X59164938Y-16529586D01*
X59164936Y-16529596D01*
X59144341Y-16764999D01*
X59144341Y-16765000D01*
X59164936Y-17000403D01*
X59164938Y-17000413D01*
X59226094Y-17228655D01*
X59226096Y-17228659D01*
X59226097Y-17228663D01*
X59282678Y-17350000D01*
X59325965Y-17442830D01*
X59325967Y-17442834D01*
X59381635Y-17522335D01*
X59461505Y-17636401D01*
X59628599Y-17803495D01*
X59702796Y-17855448D01*
X59822165Y-17939032D01*
X59822167Y-17939033D01*
X59822170Y-17939035D01*
X60036337Y-18038903D01*
X60264592Y-18100063D01*
X60452918Y-18116539D01*
X60499999Y-18120659D01*
X60500000Y-18120659D01*
X60500001Y-18120659D01*
X60539234Y-18117226D01*
X60735408Y-18100063D01*
X60963663Y-18038903D01*
X61177830Y-17939035D01*
X61371401Y-17803495D01*
X61538495Y-17636401D01*
X61674035Y-17442830D01*
X61763619Y-17250716D01*
X61809790Y-17198279D01*
X61876984Y-17179127D01*
X61943865Y-17199343D01*
X61989199Y-17252508D01*
X62000000Y-17303123D01*
X62000000Y-21635565D01*
X61980315Y-21702604D01*
X61927511Y-21748359D01*
X61858353Y-21758303D01*
X61794797Y-21729278D01*
X61776734Y-21709876D01*
X61707547Y-21617455D01*
X61707544Y-21617452D01*
X61592335Y-21531206D01*
X61592328Y-21531202D01*
X61457482Y-21480908D01*
X61457483Y-21480908D01*
X61397883Y-21474501D01*
X61397881Y-21474500D01*
X61397873Y-21474500D01*
X61397864Y-21474500D01*
X59602129Y-21474500D01*
X59602123Y-21474501D01*
X59542516Y-21480908D01*
X59407671Y-21531202D01*
X59407664Y-21531206D01*
X59292455Y-21617452D01*
X59292452Y-21617455D01*
X59206206Y-21732664D01*
X59206202Y-21732671D01*
X59155908Y-21867517D01*
X59149501Y-21927116D01*
X59149500Y-21927135D01*
X59149500Y-23722870D01*
X59149501Y-23722876D01*
X59155908Y-23782483D01*
X59206202Y-23917328D01*
X59206206Y-23917335D01*
X59292452Y-24032544D01*
X59292455Y-24032547D01*
X59407664Y-24118793D01*
X59407671Y-24118797D01*
X59539081Y-24167810D01*
X59595015Y-24209681D01*
X59619432Y-24275145D01*
X59604580Y-24343418D01*
X59583430Y-24371673D01*
X59461503Y-24493600D01*
X59325965Y-24687169D01*
X59325964Y-24687171D01*
X59226098Y-24901335D01*
X59226094Y-24901344D01*
X59164938Y-25129586D01*
X59164936Y-25129596D01*
X59144341Y-25364999D01*
X59144341Y-25365000D01*
X59164936Y-25600403D01*
X59164938Y-25600413D01*
X59226094Y-25828655D01*
X59226096Y-25828659D01*
X59226097Y-25828663D01*
X59325965Y-26042830D01*
X59325967Y-26042834D01*
X59383784Y-26125404D01*
X59461505Y-26236401D01*
X59628599Y-26403495D01*
X59704114Y-26456371D01*
X59822165Y-26539032D01*
X59822167Y-26539033D01*
X59822170Y-26539035D01*
X60036337Y-26638903D01*
X60264592Y-26700063D01*
X60452918Y-26716539D01*
X60499999Y-26720659D01*
X60500000Y-26720659D01*
X60500001Y-26720659D01*
X60539234Y-26717226D01*
X60735408Y-26700063D01*
X60963663Y-26638903D01*
X61177830Y-26539035D01*
X61371401Y-26403495D01*
X61538495Y-26236401D01*
X61674035Y-26042830D01*
X61763619Y-25850716D01*
X61809790Y-25798279D01*
X61876984Y-25779127D01*
X61943865Y-25799343D01*
X61989199Y-25852508D01*
X62000000Y-25903123D01*
X62000000Y-30235565D01*
X61980315Y-30302604D01*
X61927511Y-30348359D01*
X61858353Y-30358303D01*
X61794797Y-30329278D01*
X61776734Y-30309876D01*
X61707547Y-30217455D01*
X61707544Y-30217452D01*
X61592335Y-30131206D01*
X61592328Y-30131202D01*
X61457482Y-30080908D01*
X61457483Y-30080908D01*
X61397883Y-30074501D01*
X61397881Y-30074500D01*
X61397873Y-30074500D01*
X61397864Y-30074500D01*
X59602129Y-30074500D01*
X59602123Y-30074501D01*
X59542516Y-30080908D01*
X59407671Y-30131202D01*
X59407664Y-30131206D01*
X59292455Y-30217452D01*
X59292452Y-30217455D01*
X59206206Y-30332664D01*
X59206202Y-30332671D01*
X59155908Y-30467517D01*
X59149501Y-30527116D01*
X59149500Y-30527135D01*
X59149500Y-32322870D01*
X59149501Y-32322876D01*
X59155908Y-32382483D01*
X59206202Y-32517328D01*
X59206206Y-32517335D01*
X59292452Y-32632544D01*
X59292455Y-32632547D01*
X59407664Y-32718793D01*
X59407671Y-32718797D01*
X59539081Y-32767810D01*
X59595015Y-32809681D01*
X59619432Y-32875145D01*
X59604580Y-32943418D01*
X59583430Y-32971673D01*
X59461503Y-33093600D01*
X59325965Y-33287169D01*
X59325964Y-33287171D01*
X59260819Y-33426876D01*
X59226721Y-33500000D01*
X59226098Y-33501335D01*
X59226094Y-33501344D01*
X59164938Y-33729586D01*
X59164936Y-33729596D01*
X59144341Y-33964999D01*
X59144341Y-33965000D01*
X59164936Y-34200403D01*
X59164938Y-34200413D01*
X59226094Y-34428655D01*
X59226096Y-34428659D01*
X59226097Y-34428663D01*
X59284328Y-34553540D01*
X59325965Y-34642830D01*
X59325967Y-34642834D01*
X59420999Y-34778553D01*
X59461505Y-34836401D01*
X59628599Y-35003495D01*
X59684357Y-35042537D01*
X59822165Y-35139032D01*
X59822167Y-35139033D01*
X59822170Y-35139035D01*
X60036337Y-35238903D01*
X60264592Y-35300063D01*
X60452918Y-35316539D01*
X60499999Y-35320659D01*
X60500000Y-35320659D01*
X60500001Y-35320659D01*
X60539234Y-35317226D01*
X60735408Y-35300063D01*
X60963663Y-35238903D01*
X61177830Y-35139035D01*
X61371401Y-35003495D01*
X61538495Y-34836401D01*
X61674035Y-34642830D01*
X61763619Y-34450716D01*
X61809790Y-34398279D01*
X61876984Y-34379127D01*
X61943865Y-34399343D01*
X61989199Y-34452508D01*
X62000000Y-34503123D01*
X62000000Y-38835565D01*
X61980315Y-38902604D01*
X61927511Y-38948359D01*
X61858353Y-38958303D01*
X61794797Y-38929278D01*
X61776734Y-38909876D01*
X61707547Y-38817455D01*
X61707544Y-38817452D01*
X61592335Y-38731206D01*
X61592328Y-38731202D01*
X61457482Y-38680908D01*
X61457483Y-38680908D01*
X61397883Y-38674501D01*
X61397881Y-38674500D01*
X61397873Y-38674500D01*
X61397864Y-38674500D01*
X59602129Y-38674500D01*
X59602123Y-38674501D01*
X59542516Y-38680908D01*
X59407671Y-38731202D01*
X59407664Y-38731206D01*
X59292455Y-38817452D01*
X59292452Y-38817455D01*
X59206206Y-38932664D01*
X59206202Y-38932671D01*
X59155908Y-39067517D01*
X59149501Y-39127116D01*
X59149500Y-39127135D01*
X59149500Y-40922870D01*
X59149501Y-40922876D01*
X59155908Y-40982483D01*
X59206202Y-41117328D01*
X59206206Y-41117335D01*
X59292452Y-41232544D01*
X59292455Y-41232547D01*
X59407664Y-41318793D01*
X59407671Y-41318797D01*
X59539081Y-41367810D01*
X59595015Y-41409681D01*
X59619432Y-41475145D01*
X59604580Y-41543418D01*
X59583430Y-41571673D01*
X59461503Y-41693600D01*
X59325965Y-41887169D01*
X59325964Y-41887171D01*
X59226098Y-42101335D01*
X59226094Y-42101344D01*
X59164938Y-42329586D01*
X59164936Y-42329596D01*
X59144341Y-42564999D01*
X59144341Y-42565000D01*
X59164936Y-42800403D01*
X59164938Y-42800413D01*
X59226094Y-43028655D01*
X59226096Y-43028659D01*
X59226097Y-43028663D01*
X59269291Y-43121292D01*
X59325965Y-43242830D01*
X59325967Y-43242834D01*
X59391717Y-43336734D01*
X59461505Y-43436401D01*
X59628599Y-43603495D01*
X59680385Y-43639756D01*
X59822165Y-43739032D01*
X59822167Y-43739033D01*
X59822170Y-43739035D01*
X60036337Y-43838903D01*
X60264592Y-43900063D01*
X60452918Y-43916539D01*
X60499999Y-43920659D01*
X60500000Y-43920659D01*
X60500001Y-43920659D01*
X60539234Y-43917226D01*
X60735408Y-43900063D01*
X60963663Y-43838903D01*
X61177830Y-43739035D01*
X61371401Y-43603495D01*
X61538495Y-43436401D01*
X61674035Y-43242830D01*
X61763619Y-43050716D01*
X61809790Y-42998279D01*
X61876984Y-42979127D01*
X61943865Y-42999343D01*
X61989199Y-43052508D01*
X62000000Y-43103123D01*
X62000000Y-47435565D01*
X61980315Y-47502604D01*
X61927511Y-47548359D01*
X61858353Y-47558303D01*
X61794797Y-47529278D01*
X61776734Y-47509876D01*
X61707547Y-47417455D01*
X61707544Y-47417452D01*
X61592335Y-47331206D01*
X61592328Y-47331202D01*
X61457482Y-47280908D01*
X61457483Y-47280908D01*
X61397883Y-47274501D01*
X61397881Y-47274500D01*
X61397873Y-47274500D01*
X61397864Y-47274500D01*
X59602129Y-47274500D01*
X59602123Y-47274501D01*
X59542516Y-47280908D01*
X59407671Y-47331202D01*
X59407664Y-47331206D01*
X59292455Y-47417452D01*
X59292452Y-47417455D01*
X59206206Y-47532664D01*
X59206202Y-47532671D01*
X59155908Y-47667517D01*
X59149501Y-47727116D01*
X59149500Y-47727135D01*
X59149500Y-49522870D01*
X59149501Y-49522876D01*
X59155908Y-49582483D01*
X59206202Y-49717328D01*
X59206206Y-49717335D01*
X59292452Y-49832544D01*
X59292455Y-49832547D01*
X59407664Y-49918793D01*
X59407671Y-49918797D01*
X59539081Y-49967810D01*
X59595015Y-50009681D01*
X59619432Y-50075145D01*
X59604580Y-50143418D01*
X59583430Y-50171673D01*
X59461503Y-50293600D01*
X59325965Y-50487169D01*
X59325964Y-50487171D01*
X59226098Y-50701335D01*
X59226094Y-50701344D01*
X59164938Y-50929586D01*
X59164936Y-50929596D01*
X59144341Y-51164999D01*
X59144341Y-51165000D01*
X59164936Y-51400403D01*
X59164938Y-51400413D01*
X59226094Y-51628655D01*
X59226096Y-51628659D01*
X59226097Y-51628663D01*
X59313686Y-51816497D01*
X59325965Y-51842830D01*
X59325967Y-51842834D01*
X59385762Y-51928229D01*
X59461505Y-52036401D01*
X59628599Y-52203495D01*
X59693888Y-52249211D01*
X59822165Y-52339032D01*
X59822167Y-52339033D01*
X59822170Y-52339035D01*
X60036337Y-52438903D01*
X60036343Y-52438904D01*
X60036344Y-52438905D01*
X60091285Y-52453626D01*
X60264592Y-52500063D01*
X60452918Y-52516539D01*
X60499999Y-52520659D01*
X60500000Y-52520659D01*
X60500001Y-52520659D01*
X60539234Y-52517226D01*
X60735408Y-52500063D01*
X60963663Y-52438903D01*
X61177830Y-52339035D01*
X61371401Y-52203495D01*
X61538495Y-52036401D01*
X61674035Y-51842830D01*
X61763619Y-51650716D01*
X61809790Y-51598279D01*
X61876984Y-51579127D01*
X61943865Y-51599343D01*
X61989199Y-51652508D01*
X62000000Y-51703123D01*
X62000000Y-56035565D01*
X61980315Y-56102604D01*
X61927511Y-56148359D01*
X61858353Y-56158303D01*
X61794797Y-56129278D01*
X61776734Y-56109876D01*
X61707547Y-56017455D01*
X61707544Y-56017452D01*
X61592335Y-55931206D01*
X61592328Y-55931202D01*
X61457482Y-55880908D01*
X61457483Y-55880908D01*
X61397883Y-55874501D01*
X61397881Y-55874500D01*
X61397873Y-55874500D01*
X61397864Y-55874500D01*
X59602129Y-55874500D01*
X59602123Y-55874501D01*
X59542516Y-55880908D01*
X59407671Y-55931202D01*
X59407664Y-55931206D01*
X59292455Y-56017452D01*
X59292452Y-56017455D01*
X59206206Y-56132664D01*
X59206202Y-56132671D01*
X59155908Y-56267517D01*
X59149501Y-56327116D01*
X59149500Y-56327135D01*
X59149500Y-58122870D01*
X59149501Y-58122876D01*
X59155908Y-58182483D01*
X59206202Y-58317328D01*
X59206206Y-58317335D01*
X59292452Y-58432544D01*
X59292455Y-58432547D01*
X59407664Y-58518793D01*
X59407671Y-58518797D01*
X59539081Y-58567810D01*
X59595015Y-58609681D01*
X59619432Y-58675145D01*
X59604580Y-58743418D01*
X59583430Y-58771673D01*
X59461503Y-58893600D01*
X59325965Y-59087169D01*
X59325964Y-59087171D01*
X59226098Y-59301335D01*
X59226094Y-59301344D01*
X59164938Y-59529586D01*
X59164936Y-59529596D01*
X59144341Y-59764999D01*
X59144341Y-59765000D01*
X59164936Y-60000403D01*
X59164938Y-60000413D01*
X59226094Y-60228655D01*
X59226096Y-60228659D01*
X59226097Y-60228663D01*
X59325965Y-60442830D01*
X59325967Y-60442834D01*
X59434281Y-60597521D01*
X59461505Y-60636401D01*
X59628599Y-60803495D01*
X59649810Y-60818347D01*
X59822165Y-60939032D01*
X59822167Y-60939033D01*
X59822170Y-60939035D01*
X60036337Y-61038903D01*
X60264592Y-61100063D01*
X60452918Y-61116539D01*
X60499999Y-61120659D01*
X60500000Y-61120659D01*
X60500001Y-61120659D01*
X60539234Y-61117226D01*
X60735408Y-61100063D01*
X60963663Y-61038903D01*
X61177830Y-60939035D01*
X61371401Y-60803495D01*
X61538495Y-60636401D01*
X61674035Y-60442830D01*
X61763619Y-60250716D01*
X61809790Y-60198279D01*
X61876984Y-60179127D01*
X61943865Y-60199343D01*
X61989199Y-60252508D01*
X62000000Y-60303123D01*
X62000000Y-61876000D01*
X61980315Y-61943039D01*
X61927511Y-61988794D01*
X61876000Y-62000000D01*
X38646150Y-62000000D01*
X38579111Y-61980315D01*
X38533356Y-61927511D01*
X38523412Y-61858353D01*
X38552437Y-61794797D01*
X38598698Y-61761439D01*
X38740239Y-61702811D01*
X38740240Y-61702810D01*
X38740243Y-61702809D01*
X38958399Y-61569123D01*
X39152956Y-61402956D01*
X39319123Y-61208399D01*
X39452809Y-60990243D01*
X39474021Y-60939034D01*
X39510728Y-60850413D01*
X39550722Y-60753860D01*
X39610452Y-60505070D01*
X39610851Y-60499996D01*
X50266287Y-60499996D01*
X50266287Y-60500003D01*
X50284681Y-60663261D01*
X50284682Y-60663265D01*
X50338947Y-60818347D01*
X50359096Y-60850413D01*
X50426360Y-60957463D01*
X50542537Y-61073640D01*
X50681654Y-61161053D01*
X50836733Y-61215317D01*
X50836734Y-61215317D01*
X50836738Y-61215318D01*
X50999996Y-61233713D01*
X51000000Y-61233713D01*
X51000004Y-61233713D01*
X51163261Y-61215318D01*
X51163263Y-61215317D01*
X51163267Y-61215317D01*
X51318346Y-61161053D01*
X51434028Y-61088364D01*
X51501264Y-61069365D01*
X51565971Y-61088364D01*
X51681654Y-61161053D01*
X51836733Y-61215317D01*
X51836734Y-61215317D01*
X51836738Y-61215318D01*
X51999996Y-61233713D01*
X52000000Y-61233713D01*
X52000004Y-61233713D01*
X52163261Y-61215318D01*
X52163263Y-61215317D01*
X52163267Y-61215317D01*
X52318346Y-61161053D01*
X52457463Y-61073640D01*
X52573640Y-60957463D01*
X52661053Y-60818346D01*
X52715317Y-60663267D01*
X52718345Y-60636395D01*
X52733713Y-60500003D01*
X52733713Y-60499996D01*
X52715318Y-60336738D01*
X52715317Y-60336734D01*
X52685845Y-60252508D01*
X52661053Y-60181654D01*
X52573640Y-60042537D01*
X52457463Y-59926360D01*
X52434027Y-59911634D01*
X52318347Y-59838947D01*
X52163265Y-59784682D01*
X52163261Y-59784681D01*
X52000004Y-59766287D01*
X51999996Y-59766287D01*
X51836738Y-59784681D01*
X51836734Y-59784682D01*
X51681652Y-59838947D01*
X51565972Y-59911634D01*
X51498735Y-59930634D01*
X51434028Y-59911634D01*
X51318346Y-59838947D01*
X51318347Y-59838947D01*
X51163265Y-59784682D01*
X51163261Y-59784681D01*
X51000004Y-59766287D01*
X50999996Y-59766287D01*
X50836738Y-59784681D01*
X50836734Y-59784682D01*
X50681652Y-59838947D01*
X50542536Y-59926360D01*
X50426360Y-60042536D01*
X50338947Y-60181652D01*
X50284682Y-60336734D01*
X50284681Y-60336738D01*
X50266287Y-60499996D01*
X39610851Y-60499996D01*
X39630526Y-60250000D01*
X39610452Y-59994930D01*
X39550722Y-59746140D01*
X39549855Y-59744046D01*
X39452811Y-59509760D01*
X39452809Y-59509757D01*
X39335512Y-59318346D01*
X39319123Y-59291601D01*
X39319122Y-59291600D01*
X39319121Y-59291598D01*
X39253970Y-59215317D01*
X39152956Y-59097044D01*
X39039327Y-58999996D01*
X47266287Y-58999996D01*
X47266287Y-59000003D01*
X47284681Y-59163261D01*
X47284682Y-59163265D01*
X47338947Y-59318347D01*
X47406399Y-59425696D01*
X47426360Y-59457463D01*
X47542537Y-59573640D01*
X47681654Y-59661053D01*
X47836733Y-59715317D01*
X47836734Y-59715317D01*
X47836738Y-59715318D01*
X47999996Y-59733713D01*
X48000000Y-59733713D01*
X48000004Y-59733713D01*
X48163261Y-59715318D01*
X48163263Y-59715317D01*
X48163267Y-59715317D01*
X48318346Y-59661053D01*
X48457463Y-59573640D01*
X48573640Y-59457463D01*
X48593601Y-59425696D01*
X53691987Y-59425696D01*
X53691987Y-59425703D01*
X53710381Y-59588961D01*
X53710382Y-59588965D01*
X53764647Y-59744047D01*
X53824277Y-59838947D01*
X53852060Y-59883163D01*
X53968237Y-59999340D01*
X54107354Y-60086753D01*
X54262433Y-60141017D01*
X54262434Y-60141017D01*
X54262438Y-60141018D01*
X54425696Y-60159413D01*
X54425700Y-60159413D01*
X54425704Y-60159413D01*
X54588961Y-60141018D01*
X54588963Y-60141017D01*
X54588967Y-60141017D01*
X54744046Y-60086753D01*
X54883163Y-59999340D01*
X54999340Y-59883163D01*
X55086753Y-59744046D01*
X55141017Y-59588967D01*
X55159413Y-59425700D01*
X55152855Y-59367500D01*
X55141018Y-59262438D01*
X55141017Y-59262434D01*
X55130967Y-59233713D01*
X55086753Y-59107354D01*
X55065568Y-59073639D01*
X55019298Y-59000000D01*
X54999340Y-58968237D01*
X54883163Y-58852060D01*
X54829509Y-58818347D01*
X54744047Y-58764647D01*
X54588965Y-58710382D01*
X54588961Y-58710381D01*
X54425704Y-58691987D01*
X54425696Y-58691987D01*
X54262438Y-58710381D01*
X54262434Y-58710382D01*
X54107352Y-58764647D01*
X53968236Y-58852060D01*
X53852060Y-58968236D01*
X53764647Y-59107352D01*
X53710382Y-59262434D01*
X53710381Y-59262438D01*
X53691987Y-59425696D01*
X48593601Y-59425696D01*
X48661053Y-59318346D01*
X48715317Y-59163267D01*
X48715318Y-59163261D01*
X48733713Y-59000003D01*
X48733713Y-58999996D01*
X48715318Y-58836738D01*
X48715317Y-58836734D01*
X48708883Y-58818347D01*
X48661053Y-58681654D01*
X48649498Y-58663265D01*
X48573639Y-58542536D01*
X48531099Y-58499996D01*
X55491287Y-58499996D01*
X55491287Y-58500003D01*
X55509681Y-58663261D01*
X55509682Y-58663265D01*
X55563947Y-58818347D01*
X55644406Y-58946396D01*
X55651360Y-58957463D01*
X55767537Y-59073640D01*
X55906654Y-59161053D01*
X56061733Y-59215317D01*
X56061734Y-59215317D01*
X56061738Y-59215318D01*
X56224996Y-59233713D01*
X56225000Y-59233713D01*
X56225004Y-59233713D01*
X56388261Y-59215318D01*
X56388263Y-59215317D01*
X56388267Y-59215317D01*
X56543346Y-59161053D01*
X56682463Y-59073640D01*
X56798640Y-58957463D01*
X56886053Y-58818346D01*
X56940317Y-58663267D01*
X56940318Y-58663261D01*
X56958713Y-58500003D01*
X56958713Y-58499996D01*
X56940318Y-58336738D01*
X56940317Y-58336734D01*
X56931105Y-58310408D01*
X56886053Y-58181654D01*
X56798640Y-58042537D01*
X56682463Y-57926360D01*
X56543347Y-57838947D01*
X56388265Y-57784682D01*
X56388261Y-57784681D01*
X56225004Y-57766287D01*
X56224996Y-57766287D01*
X56061738Y-57784681D01*
X56061734Y-57784682D01*
X55906652Y-57838947D01*
X55767536Y-57926360D01*
X55651360Y-58042536D01*
X55563947Y-58181652D01*
X55509682Y-58336734D01*
X55509681Y-58336738D01*
X55491287Y-58499996D01*
X48531099Y-58499996D01*
X48457463Y-58426360D01*
X48318347Y-58338947D01*
X48163265Y-58284682D01*
X48163261Y-58284681D01*
X48000004Y-58266287D01*
X47999996Y-58266287D01*
X47836738Y-58284681D01*
X47836734Y-58284682D01*
X47681652Y-58338947D01*
X47542536Y-58426360D01*
X47426360Y-58542536D01*
X47338947Y-58681652D01*
X47284682Y-58836734D01*
X47284681Y-58836738D01*
X47266287Y-58999996D01*
X39039327Y-58999996D01*
X38958401Y-58930878D01*
X38958396Y-58930875D01*
X38740242Y-58797190D01*
X38740239Y-58797188D01*
X38503864Y-58699279D01*
X38473491Y-58691987D01*
X38255070Y-58639548D01*
X38255067Y-58639547D01*
X38255064Y-58639547D01*
X38000000Y-58619474D01*
X37744935Y-58639547D01*
X37744931Y-58639547D01*
X37744930Y-58639548D01*
X37646160Y-58663261D01*
X37496135Y-58699279D01*
X37259760Y-58797188D01*
X37259757Y-58797190D01*
X37041603Y-58930875D01*
X37041598Y-58930878D01*
X36847044Y-59097044D01*
X36680878Y-59291598D01*
X36680875Y-59291603D01*
X36547190Y-59509757D01*
X36547188Y-59509760D01*
X36449279Y-59746135D01*
X36426997Y-59838947D01*
X36406011Y-59926360D01*
X36389547Y-59994935D01*
X36369474Y-60250000D01*
X36389547Y-60505064D01*
X36389547Y-60505067D01*
X36389548Y-60505070D01*
X36427527Y-60663261D01*
X36449279Y-60753864D01*
X36547188Y-60990239D01*
X36547190Y-60990242D01*
X36680875Y-61208396D01*
X36680878Y-61208401D01*
X36686786Y-61215318D01*
X36847044Y-61402956D01*
X36933177Y-61476520D01*
X37041598Y-61569121D01*
X37041603Y-61569124D01*
X37259757Y-61702809D01*
X37259760Y-61702811D01*
X37401302Y-61761439D01*
X37455706Y-61805280D01*
X37477771Y-61871574D01*
X37460492Y-61939273D01*
X37409355Y-61986884D01*
X37353850Y-62000000D01*
X31534819Y-62000000D01*
X31467780Y-61980315D01*
X31422025Y-61927511D01*
X31412081Y-61858353D01*
X31441106Y-61794797D01*
X31463695Y-61774425D01*
X31482241Y-61761439D01*
X31636401Y-61653495D01*
X31803495Y-61486401D01*
X31939035Y-61292830D01*
X32038903Y-61078663D01*
X32100063Y-60850408D01*
X32120659Y-60615000D01*
X32100063Y-60379592D01*
X32038903Y-60151337D01*
X31939035Y-59937171D01*
X31933425Y-59929158D01*
X31803494Y-59743597D01*
X31636402Y-59576506D01*
X31636396Y-59576501D01*
X31450842Y-59446575D01*
X31407217Y-59391998D01*
X31400023Y-59322500D01*
X31431546Y-59260145D01*
X31450842Y-59243425D01*
X31565322Y-59163265D01*
X31636401Y-59113495D01*
X31803495Y-58946401D01*
X31939035Y-58752830D01*
X32038903Y-58538663D01*
X32100063Y-58310408D01*
X32120659Y-58075000D01*
X32100063Y-57839592D01*
X32038903Y-57611337D01*
X31939035Y-57397171D01*
X31933425Y-57389158D01*
X31803494Y-57203597D01*
X31636402Y-57036506D01*
X31636396Y-57036501D01*
X31584261Y-56999996D01*
X42266287Y-56999996D01*
X42266287Y-57000003D01*
X42284681Y-57163261D01*
X42284682Y-57163265D01*
X42338947Y-57318347D01*
X42415373Y-57439977D01*
X42426360Y-57457463D01*
X42542537Y-57573640D01*
X42681654Y-57661053D01*
X42836733Y-57715317D01*
X42836734Y-57715317D01*
X42836738Y-57715318D01*
X42999996Y-57733713D01*
X43000000Y-57733713D01*
X43000004Y-57733713D01*
X43163261Y-57715318D01*
X43163263Y-57715317D01*
X43163267Y-57715317D01*
X43318346Y-57661053D01*
X43457463Y-57573640D01*
X43573640Y-57457463D01*
X43661053Y-57318346D01*
X43715317Y-57163267D01*
X43729600Y-57036505D01*
X43733713Y-57000003D01*
X43733713Y-56999996D01*
X43715318Y-56836738D01*
X43715317Y-56836734D01*
X43661052Y-56681652D01*
X43573639Y-56542536D01*
X43457463Y-56426360D01*
X43318347Y-56338947D01*
X43163265Y-56284682D01*
X43163261Y-56284681D01*
X43000004Y-56266287D01*
X42999996Y-56266287D01*
X42836738Y-56284681D01*
X42836734Y-56284682D01*
X42681652Y-56338947D01*
X42542536Y-56426360D01*
X42426360Y-56542536D01*
X42338947Y-56681652D01*
X42284682Y-56836734D01*
X42284681Y-56836738D01*
X42266287Y-56999996D01*
X31584261Y-56999996D01*
X31450842Y-56906575D01*
X31407217Y-56851998D01*
X31400023Y-56782500D01*
X31431546Y-56720145D01*
X31450842Y-56703425D01*
X31481937Y-56681652D01*
X31636401Y-56573495D01*
X31803495Y-56406401D01*
X31939035Y-56212830D01*
X32038903Y-55998663D01*
X32100063Y-55770408D01*
X32120659Y-55535000D01*
X32100063Y-55299592D01*
X32038903Y-55071337D01*
X31939035Y-54857171D01*
X31933425Y-54849158D01*
X31803494Y-54663597D01*
X31636402Y-54496506D01*
X31636396Y-54496501D01*
X31450842Y-54366575D01*
X31407217Y-54311998D01*
X31400023Y-54242500D01*
X31431546Y-54180145D01*
X31450842Y-54163425D01*
X31502278Y-54127409D01*
X31636401Y-54033495D01*
X31803495Y-53866401D01*
X31939035Y-53672830D01*
X32038903Y-53458663D01*
X32100063Y-53230408D01*
X32120659Y-52995000D01*
X32100063Y-52759592D01*
X32051174Y-52577135D01*
X36374500Y-52577135D01*
X36374500Y-54922870D01*
X36374501Y-54922876D01*
X36380908Y-54982483D01*
X36431202Y-55117328D01*
X36431206Y-55117335D01*
X36517452Y-55232544D01*
X36517455Y-55232547D01*
X36632664Y-55318793D01*
X36632671Y-55318797D01*
X36767517Y-55369091D01*
X36767516Y-55369091D01*
X36774444Y-55369835D01*
X36827127Y-55375500D01*
X39172872Y-55375499D01*
X39232483Y-55369091D01*
X39367331Y-55318796D01*
X39482546Y-55232546D01*
X39568796Y-55117331D01*
X39619091Y-54982483D01*
X39625500Y-54922873D01*
X39625499Y-53173796D01*
X41592487Y-53173796D01*
X41592487Y-53173803D01*
X41610881Y-53337061D01*
X41610882Y-53337065D01*
X41665147Y-53492147D01*
X41737825Y-53607813D01*
X41752560Y-53631263D01*
X41868737Y-53747440D01*
X42007854Y-53834853D01*
X42162933Y-53889117D01*
X42162934Y-53889117D01*
X42162938Y-53889118D01*
X42326196Y-53907513D01*
X42326200Y-53907513D01*
X42326204Y-53907513D01*
X42489461Y-53889118D01*
X42489463Y-53889117D01*
X42489467Y-53889117D01*
X42644546Y-53834853D01*
X42783663Y-53747440D01*
X42899840Y-53631263D01*
X42987253Y-53492146D01*
X43041517Y-53337067D01*
X43051291Y-53250321D01*
X43059913Y-53173803D01*
X43059913Y-53173796D01*
X43041518Y-53010538D01*
X43041517Y-53010534D01*
X43040858Y-53008652D01*
X42987253Y-52855454D01*
X42976880Y-52838946D01*
X42899839Y-52716336D01*
X42783663Y-52600160D01*
X42644547Y-52512747D01*
X42489465Y-52458482D01*
X42489461Y-52458481D01*
X42326204Y-52440087D01*
X42326196Y-52440087D01*
X42162938Y-52458481D01*
X42162934Y-52458482D01*
X42007852Y-52512747D01*
X41868736Y-52600160D01*
X41752560Y-52716336D01*
X41665147Y-52855452D01*
X41610882Y-53010534D01*
X41610881Y-53010538D01*
X41592487Y-53173796D01*
X39625499Y-53173796D01*
X39625499Y-52577128D01*
X39619091Y-52517517D01*
X39616608Y-52510861D01*
X39568797Y-52382671D01*
X39568793Y-52382664D01*
X39482547Y-52267455D01*
X39482544Y-52267452D01*
X39367335Y-52181206D01*
X39367328Y-52181202D01*
X39232482Y-52130908D01*
X39232483Y-52130908D01*
X39172883Y-52124501D01*
X39172881Y-52124500D01*
X39172873Y-52124500D01*
X39172864Y-52124500D01*
X36827129Y-52124500D01*
X36827123Y-52124501D01*
X36767516Y-52130908D01*
X36632671Y-52181202D01*
X36632664Y-52181206D01*
X36517455Y-52267452D01*
X36517452Y-52267455D01*
X36431206Y-52382664D01*
X36431202Y-52382671D01*
X36380908Y-52517517D01*
X36379422Y-52531344D01*
X36374501Y-52577123D01*
X36374500Y-52577135D01*
X32051174Y-52577135D01*
X32038903Y-52531337D01*
X31939035Y-52317171D01*
X31891447Y-52249209D01*
X31869121Y-52183005D01*
X31886131Y-52115237D01*
X31905338Y-52090410D01*
X33292731Y-50703019D01*
X33354054Y-50669534D01*
X33380412Y-50666700D01*
X38697901Y-50666700D01*
X38764940Y-50686385D01*
X38810695Y-50739189D01*
X38814943Y-50749746D01*
X38838947Y-50818347D01*
X38908844Y-50929586D01*
X38926360Y-50957463D01*
X39042537Y-51073640D01*
X39181654Y-51161053D01*
X39336733Y-51215317D01*
X39336734Y-51215317D01*
X39336738Y-51215318D01*
X39499996Y-51233713D01*
X39500000Y-51233713D01*
X39500004Y-51233713D01*
X39663261Y-51215318D01*
X39663263Y-51215317D01*
X39663267Y-51215317D01*
X39818346Y-51161053D01*
X39957463Y-51073640D01*
X40073640Y-50957463D01*
X40161053Y-50818346D01*
X40215317Y-50663267D01*
X40215318Y-50663261D01*
X40233713Y-50500003D01*
X40233713Y-50499996D01*
X40215318Y-50336738D01*
X40215317Y-50336734D01*
X40214115Y-50333300D01*
X40161053Y-50181654D01*
X40149498Y-50163265D01*
X40073639Y-50042536D01*
X39957463Y-49926360D01*
X39818347Y-49838947D01*
X39663265Y-49784682D01*
X39663261Y-49784681D01*
X39500004Y-49766287D01*
X39499996Y-49766287D01*
X39336738Y-49784681D01*
X39336734Y-49784682D01*
X39181652Y-49838947D01*
X39042536Y-49926360D01*
X38926360Y-50042536D01*
X38838947Y-50181652D01*
X38814943Y-50250254D01*
X38774221Y-50307030D01*
X38709268Y-50332778D01*
X38697901Y-50333300D01*
X33307601Y-50333300D01*
X33307593Y-50333299D01*
X33293159Y-50333299D01*
X33226841Y-50333299D01*
X33226840Y-50333299D01*
X33165569Y-50358679D01*
X31669592Y-51854656D01*
X31608269Y-51888141D01*
X31538577Y-51883157D01*
X31510791Y-51868551D01*
X31450839Y-51826573D01*
X31407216Y-51771998D01*
X31400022Y-51702500D01*
X31431545Y-51640145D01*
X31450837Y-51623428D01*
X31636401Y-51493495D01*
X31803495Y-51326401D01*
X31939035Y-51132830D01*
X32038903Y-50918663D01*
X32100063Y-50690408D01*
X32120659Y-50455000D01*
X32100063Y-50219592D01*
X32038903Y-49991337D01*
X31939035Y-49777171D01*
X31933425Y-49769158D01*
X31803494Y-49583597D01*
X31636402Y-49416506D01*
X31636396Y-49416501D01*
X31450842Y-49286575D01*
X31407217Y-49231998D01*
X31400023Y-49162500D01*
X31431546Y-49100145D01*
X31450842Y-49083425D01*
X31473026Y-49067891D01*
X31636401Y-48953495D01*
X31803495Y-48786401D01*
X31939035Y-48592830D01*
X32038903Y-48378663D01*
X32100063Y-48150408D01*
X32120659Y-47915000D01*
X32100063Y-47679592D01*
X32051941Y-47499996D01*
X32038905Y-47451344D01*
X32038904Y-47451343D01*
X32038903Y-47451337D01*
X31939035Y-47237171D01*
X31933425Y-47229158D01*
X31803494Y-47043597D01*
X31636402Y-46876506D01*
X31636396Y-46876501D01*
X31450842Y-46746575D01*
X31407217Y-46691998D01*
X31400023Y-46622500D01*
X31431546Y-46560145D01*
X31450842Y-46543425D01*
X31559865Y-46467086D01*
X31636401Y-46413495D01*
X31803495Y-46246401D01*
X31939035Y-46052830D01*
X32038903Y-45838663D01*
X32100063Y-45610408D01*
X32120659Y-45375000D01*
X32100063Y-45139592D01*
X32042928Y-44926360D01*
X32038905Y-44911344D01*
X32038904Y-44911343D01*
X32038903Y-44911337D01*
X31939035Y-44697171D01*
X31917172Y-44665946D01*
X31803494Y-44503597D01*
X31636402Y-44336506D01*
X31636395Y-44336501D01*
X31442834Y-44200967D01*
X31442830Y-44200965D01*
X31407165Y-44184334D01*
X31228663Y-44101097D01*
X31228659Y-44101096D01*
X31228655Y-44101094D01*
X31000413Y-44039938D01*
X31000403Y-44039936D01*
X30765001Y-44019341D01*
X30764999Y-44019341D01*
X30529596Y-44039936D01*
X30529586Y-44039938D01*
X30301344Y-44101094D01*
X30301335Y-44101098D01*
X30087171Y-44200964D01*
X30087169Y-44200965D01*
X29893600Y-44336503D01*
X29771284Y-44458819D01*
X29709961Y-44492303D01*
X29640269Y-44487319D01*
X29584336Y-44445447D01*
X29567421Y-44414470D01*
X29518354Y-44282913D01*
X29518350Y-44282906D01*
X29432190Y-44167812D01*
X29432187Y-44167809D01*
X29317093Y-44081649D01*
X29317086Y-44081645D01*
X29182379Y-44031403D01*
X29182372Y-44031401D01*
X29122844Y-44025000D01*
X28475000Y-44025000D01*
X28475000Y-44941988D01*
X28417993Y-44909075D01*
X28290826Y-44875000D01*
X28159174Y-44875000D01*
X28032007Y-44909075D01*
X27975000Y-44941988D01*
X27975000Y-44025000D01*
X27327155Y-44025000D01*
X27267627Y-44031401D01*
X27267616Y-44031403D01*
X27167332Y-44068807D01*
X27097640Y-44073791D01*
X27036318Y-44040305D01*
X27002833Y-43978982D01*
X27000000Y-43952625D01*
X27000000Y-32499996D01*
X27666287Y-32499996D01*
X27666287Y-32500003D01*
X27684681Y-32663261D01*
X27684682Y-32663265D01*
X27738947Y-32818347D01*
X27806817Y-32926360D01*
X27826360Y-32957463D01*
X27942537Y-33073640D01*
X28081654Y-33161053D01*
X28236733Y-33215317D01*
X28236734Y-33215317D01*
X28236738Y-33215318D01*
X28399996Y-33233713D01*
X28400000Y-33233713D01*
X28400004Y-33233713D01*
X28563261Y-33215318D01*
X28563263Y-33215317D01*
X28563267Y-33215317D01*
X28718346Y-33161053D01*
X28857463Y-33073640D01*
X28973640Y-32957463D01*
X29061053Y-32818346D01*
X29115317Y-32663267D01*
X29115318Y-32663261D01*
X29133713Y-32500003D01*
X29133713Y-32499996D01*
X29115318Y-32336738D01*
X29115317Y-32336734D01*
X29112919Y-32329882D01*
X29061053Y-32181654D01*
X28973640Y-32042537D01*
X28857463Y-31926360D01*
X28831130Y-31909814D01*
X28718347Y-31838947D01*
X28563265Y-31784682D01*
X28563261Y-31784681D01*
X28400004Y-31766287D01*
X28399996Y-31766287D01*
X28236738Y-31784681D01*
X28236734Y-31784682D01*
X28081652Y-31838947D01*
X27942536Y-31926360D01*
X27826360Y-32042536D01*
X27738947Y-32181652D01*
X27684682Y-32336734D01*
X27684681Y-32336738D01*
X27666287Y-32499996D01*
X27000000Y-32499996D01*
X27000000Y-27499996D01*
X29266287Y-27499996D01*
X29266287Y-27500003D01*
X29284681Y-27663261D01*
X29284682Y-27663265D01*
X29338947Y-27818347D01*
X29396213Y-27909484D01*
X29426360Y-27957463D01*
X29542537Y-28073640D01*
X29565692Y-28088189D01*
X29666698Y-28151656D01*
X29681654Y-28161053D01*
X29836733Y-28215317D01*
X29836734Y-28215317D01*
X29836738Y-28215318D01*
X29999996Y-28233713D01*
X30000000Y-28233713D01*
X30000004Y-28233713D01*
X30163261Y-28215318D01*
X30163261Y-28215317D01*
X30163267Y-28215317D01*
X30168339Y-28213541D01*
X30238117Y-28209976D01*
X30298746Y-28244701D01*
X30330977Y-28306693D01*
X30333300Y-28330581D01*
X30333300Y-28966841D01*
X30333300Y-29033159D01*
X30355125Y-29085849D01*
X30358678Y-29094428D01*
X33028892Y-31764642D01*
X33062377Y-31825965D01*
X33057393Y-31895657D01*
X33028893Y-31940004D01*
X32926359Y-32042538D01*
X32838947Y-32181652D01*
X32784682Y-32336734D01*
X32784681Y-32336738D01*
X32766287Y-32499996D01*
X32766287Y-32500003D01*
X32784681Y-32663261D01*
X32784682Y-32663265D01*
X32838947Y-32818347D01*
X32906817Y-32926360D01*
X32926360Y-32957463D01*
X33042537Y-33073640D01*
X33181654Y-33161053D01*
X33336733Y-33215317D01*
X33336734Y-33215317D01*
X33336738Y-33215318D01*
X33499996Y-33233713D01*
X33500000Y-33233713D01*
X33500004Y-33233713D01*
X33663261Y-33215318D01*
X33663263Y-33215317D01*
X33663267Y-33215317D01*
X33818346Y-33161053D01*
X33957463Y-33073640D01*
X34073640Y-32957463D01*
X34161053Y-32818346D01*
X34215317Y-32663267D01*
X34215318Y-32663261D01*
X34233713Y-32500003D01*
X34233713Y-32499996D01*
X34215318Y-32336738D01*
X34215317Y-32336734D01*
X34212919Y-32329882D01*
X34161053Y-32181654D01*
X34073640Y-32042537D01*
X33957463Y-31926360D01*
X33931130Y-31909814D01*
X33818348Y-31838948D01*
X33818347Y-31838947D01*
X33818346Y-31838947D01*
X33781119Y-31825920D01*
X33663264Y-31784681D01*
X33545411Y-31771403D01*
X33480997Y-31744336D01*
X33471614Y-31735864D01*
X30703019Y-28967269D01*
X30669534Y-28905946D01*
X30666700Y-28879588D01*
X30666700Y-28047601D01*
X30666701Y-28047592D01*
X30666701Y-27966842D01*
X30666699Y-27966836D01*
X30651901Y-27931110D01*
X30644431Y-27861641D01*
X30658668Y-27824916D01*
X30658035Y-27824612D01*
X30661052Y-27818347D01*
X30661053Y-27818346D01*
X30715317Y-27663267D01*
X30715318Y-27663261D01*
X30733713Y-27500003D01*
X30733713Y-27499996D01*
X30715318Y-27336738D01*
X30715317Y-27336734D01*
X30708883Y-27318347D01*
X30661053Y-27181654D01*
X30649498Y-27163265D01*
X30573639Y-27042536D01*
X30457463Y-26926360D01*
X30318347Y-26838947D01*
X30163265Y-26784682D01*
X30163261Y-26784681D01*
X30000004Y-26766287D01*
X29999996Y-26766287D01*
X29836738Y-26784681D01*
X29836734Y-26784682D01*
X29681652Y-26838947D01*
X29542536Y-26926360D01*
X29426360Y-27042536D01*
X29338947Y-27181652D01*
X29284682Y-27336734D01*
X29284681Y-27336738D01*
X29266287Y-27499996D01*
X27000000Y-27499996D01*
X27000000Y-24249499D01*
X27019685Y-24182460D01*
X27072489Y-24136705D01*
X27123995Y-24125499D01*
X29422872Y-24125499D01*
X29482483Y-24119091D01*
X29617331Y-24068796D01*
X29732546Y-23982546D01*
X29818796Y-23867331D01*
X29869091Y-23732483D01*
X29875500Y-23672873D01*
X29875499Y-22500000D01*
X33119474Y-22500000D01*
X33139547Y-22755064D01*
X33139547Y-22755067D01*
X33139548Y-22755070D01*
X33180672Y-22926360D01*
X33199279Y-23003864D01*
X33297188Y-23240239D01*
X33297190Y-23240242D01*
X33430875Y-23458396D01*
X33430878Y-23458401D01*
X33466410Y-23500003D01*
X33597044Y-23652956D01*
X33721579Y-23759319D01*
X33791598Y-23819121D01*
X33791600Y-23819122D01*
X33791601Y-23819123D01*
X33933124Y-23905848D01*
X34009757Y-23952809D01*
X34009760Y-23952811D01*
X34246135Y-24050720D01*
X34246140Y-24050722D01*
X34494930Y-24110452D01*
X34750000Y-24130526D01*
X35005070Y-24110452D01*
X35253860Y-24050722D01*
X35376323Y-23999996D01*
X35490239Y-23952811D01*
X35490240Y-23952810D01*
X35490243Y-23952809D01*
X35708399Y-23819123D01*
X35902956Y-23652956D01*
X36069123Y-23458399D01*
X36202809Y-23240243D01*
X36206997Y-23230134D01*
X36271818Y-23073640D01*
X36300722Y-23003860D01*
X36360452Y-22755070D01*
X36380526Y-22500000D01*
X36360452Y-22244930D01*
X36300722Y-21996140D01*
X36289304Y-21968574D01*
X36202811Y-21759760D01*
X36202809Y-21759757D01*
X36147128Y-21668894D01*
X36069123Y-21541601D01*
X36069122Y-21541600D01*
X36069121Y-21541598D01*
X36009319Y-21471579D01*
X35902956Y-21347044D01*
X35766415Y-21230427D01*
X35708401Y-21180878D01*
X35708396Y-21180875D01*
X35490242Y-21047190D01*
X35490239Y-21047188D01*
X35253864Y-20949279D01*
X35209804Y-20938701D01*
X35005070Y-20889548D01*
X35005067Y-20889547D01*
X35005064Y-20889547D01*
X34750000Y-20869474D01*
X34494935Y-20889547D01*
X34494931Y-20889547D01*
X34494930Y-20889548D01*
X34370535Y-20919413D01*
X34246135Y-20949279D01*
X34009760Y-21047188D01*
X34009757Y-21047190D01*
X33791603Y-21180875D01*
X33791598Y-21180878D01*
X33597044Y-21347044D01*
X33430878Y-21541598D01*
X33430875Y-21541603D01*
X33297190Y-21759757D01*
X33297188Y-21759760D01*
X33199279Y-21996135D01*
X33199278Y-21996140D01*
X33154740Y-22181654D01*
X33139547Y-22244935D01*
X33119474Y-22500000D01*
X29875499Y-22500000D01*
X29875499Y-21327128D01*
X29869091Y-21267517D01*
X29865733Y-21258515D01*
X29818797Y-21132671D01*
X29818793Y-21132664D01*
X29732547Y-21017455D01*
X29732544Y-21017452D01*
X29617335Y-20931206D01*
X29617328Y-20931202D01*
X29482482Y-20880908D01*
X29482483Y-20880908D01*
X29422883Y-20874501D01*
X29422881Y-20874500D01*
X29422873Y-20874500D01*
X29422865Y-20874500D01*
X27124000Y-20874500D01*
X27056961Y-20854815D01*
X27011206Y-20802011D01*
X27000000Y-20750500D01*
X27000000Y-18499996D01*
X30189403Y-18499996D01*
X30189403Y-18500003D01*
X30209724Y-18680369D01*
X30209725Y-18680374D01*
X30269677Y-18851706D01*
X30366249Y-19005398D01*
X30494601Y-19133750D01*
X30541573Y-19163265D01*
X30648295Y-19230323D01*
X30819625Y-19290274D01*
X30819630Y-19290275D01*
X30999996Y-19310597D01*
X31000000Y-19310597D01*
X31000004Y-19310597D01*
X31180369Y-19290275D01*
X31180372Y-19290274D01*
X31180375Y-19290274D01*
X31351705Y-19230323D01*
X31505399Y-19133750D01*
X31633750Y-19005399D01*
X31730323Y-18851705D01*
X31790274Y-18680375D01*
X31792511Y-18660526D01*
X31804571Y-18553482D01*
X31831637Y-18489067D01*
X31889231Y-18449512D01*
X31959068Y-18447373D01*
X32015472Y-18479683D01*
X32069088Y-18533299D01*
X32069092Y-18533302D01*
X32224762Y-18637318D01*
X32224768Y-18637321D01*
X32224769Y-18637322D01*
X32397749Y-18708973D01*
X32581379Y-18745499D01*
X32581383Y-18745500D01*
X32581384Y-18745500D01*
X32768617Y-18745500D01*
X32768618Y-18745499D01*
X32952251Y-18708973D01*
X33125231Y-18637322D01*
X33227458Y-18569015D01*
X33294135Y-18548138D01*
X33361515Y-18566622D01*
X33388498Y-18589145D01*
X33452770Y-18660526D01*
X33597407Y-18765612D01*
X33760733Y-18838329D01*
X33935609Y-18875500D01*
X33935610Y-18875500D01*
X34114389Y-18875500D01*
X34114391Y-18875500D01*
X34289267Y-18838329D01*
X34400179Y-18788947D01*
X34469428Y-18779663D01*
X34501050Y-18788947D01*
X34610891Y-18837851D01*
X34785661Y-18875000D01*
X34964339Y-18875000D01*
X35139110Y-18837851D01*
X35139111Y-18837851D01*
X35248946Y-18788948D01*
X35318196Y-18779662D01*
X35349818Y-18788947D01*
X35457148Y-18836733D01*
X35460733Y-18838329D01*
X35635609Y-18875500D01*
X35635610Y-18875500D01*
X35814389Y-18875500D01*
X35814391Y-18875500D01*
X35989267Y-18838329D01*
X36099565Y-18789220D01*
X36168814Y-18779937D01*
X36200432Y-18789219D01*
X36310733Y-18838329D01*
X36485609Y-18875500D01*
X36485610Y-18875500D01*
X36664389Y-18875500D01*
X36664391Y-18875500D01*
X36839267Y-18838329D01*
X36949565Y-18789220D01*
X37018814Y-18779937D01*
X37050432Y-18789219D01*
X37160733Y-18838329D01*
X37335609Y-18875500D01*
X37335610Y-18875500D01*
X37514389Y-18875500D01*
X37514391Y-18875500D01*
X37689267Y-18838329D01*
X37799565Y-18789220D01*
X37868814Y-18779937D01*
X37900432Y-18789219D01*
X38010733Y-18838329D01*
X38185609Y-18875500D01*
X38185610Y-18875500D01*
X38364389Y-18875500D01*
X38364391Y-18875500D01*
X38539267Y-18838329D01*
X38650179Y-18788947D01*
X38719428Y-18779663D01*
X38751050Y-18788947D01*
X38860891Y-18837851D01*
X39035661Y-18875000D01*
X39214339Y-18875000D01*
X39389110Y-18837851D01*
X39389111Y-18837851D01*
X39498946Y-18788948D01*
X39568196Y-18779662D01*
X39599818Y-18788947D01*
X39707148Y-18836733D01*
X39710733Y-18838329D01*
X39885609Y-18875500D01*
X39885610Y-18875500D01*
X40064389Y-18875500D01*
X40064391Y-18875500D01*
X40239267Y-18838329D01*
X40402593Y-18765612D01*
X40547230Y-18660526D01*
X40611501Y-18589145D01*
X40670987Y-18552498D01*
X40740844Y-18553827D01*
X40772542Y-18569016D01*
X40874762Y-18637318D01*
X40874768Y-18637321D01*
X40874769Y-18637322D01*
X41047749Y-18708973D01*
X41231379Y-18745499D01*
X41231383Y-18745500D01*
X41231384Y-18745500D01*
X41418617Y-18745500D01*
X41418618Y-18745499D01*
X41602251Y-18708973D01*
X41775231Y-18637322D01*
X41930908Y-18533302D01*
X42063302Y-18400908D01*
X42167322Y-18245231D01*
X42238973Y-18072251D01*
X42275500Y-17888616D01*
X42275500Y-16201384D01*
X42238973Y-16017749D01*
X42174521Y-15862148D01*
X42167323Y-15844771D01*
X42167318Y-15844762D01*
X42063302Y-15689092D01*
X42063299Y-15689088D01*
X41930911Y-15556700D01*
X41930907Y-15556697D01*
X41775237Y-15452681D01*
X41775228Y-15452676D01*
X41602251Y-15381027D01*
X41602243Y-15381025D01*
X41418620Y-15344500D01*
X41418616Y-15344500D01*
X41231384Y-15344500D01*
X41231379Y-15344500D01*
X41047756Y-15381025D01*
X41047748Y-15381027D01*
X40874771Y-15452676D01*
X40874762Y-15452681D01*
X40719092Y-15556697D01*
X40719088Y-15556700D01*
X40586700Y-15689088D01*
X40586697Y-15689092D01*
X40479293Y-15849834D01*
X40478183Y-15849092D01*
X40433997Y-15894060D01*
X40365857Y-15909510D01*
X40323184Y-15899033D01*
X40277488Y-15878688D01*
X40239267Y-15861671D01*
X40239265Y-15861670D01*
X40111594Y-15834533D01*
X40064391Y-15824500D01*
X39885609Y-15824500D01*
X39848439Y-15832400D01*
X39710734Y-15861670D01*
X39710729Y-15861672D01*
X39599818Y-15911052D01*
X39530568Y-15920336D01*
X39498949Y-15911052D01*
X39389110Y-15862148D01*
X39214339Y-15825000D01*
X39035661Y-15825000D01*
X38860890Y-15862148D01*
X38860887Y-15862149D01*
X38751048Y-15911052D01*
X38681798Y-15920336D01*
X38650179Y-15911052D01*
X38539265Y-15861670D01*
X38411594Y-15834533D01*
X38364391Y-15824500D01*
X38185609Y-15824500D01*
X38148439Y-15832400D01*
X38010734Y-15861670D01*
X38010729Y-15861672D01*
X37900434Y-15910778D01*
X37831184Y-15920062D01*
X37799566Y-15910778D01*
X37689270Y-15861672D01*
X37689265Y-15861670D01*
X37561594Y-15834533D01*
X37514391Y-15824500D01*
X37335609Y-15824500D01*
X37298439Y-15832400D01*
X37160734Y-15861670D01*
X37160729Y-15861672D01*
X37050434Y-15910778D01*
X36981184Y-15920062D01*
X36949566Y-15910778D01*
X36839270Y-15861672D01*
X36839265Y-15861670D01*
X36711594Y-15834533D01*
X36664391Y-15824500D01*
X36485609Y-15824500D01*
X36448439Y-15832400D01*
X36310734Y-15861670D01*
X36310729Y-15861672D01*
X36200434Y-15910778D01*
X36131184Y-15920062D01*
X36099566Y-15910778D01*
X35989270Y-15861672D01*
X35989265Y-15861670D01*
X35861594Y-15834533D01*
X35814391Y-15824500D01*
X35635609Y-15824500D01*
X35598439Y-15832400D01*
X35460734Y-15861670D01*
X35460729Y-15861672D01*
X35349818Y-15911052D01*
X35280568Y-15920336D01*
X35248949Y-15911052D01*
X35139110Y-15862148D01*
X34964339Y-15825000D01*
X34785661Y-15825000D01*
X34610890Y-15862148D01*
X34610887Y-15862149D01*
X34501048Y-15911052D01*
X34431798Y-15920336D01*
X34400179Y-15911052D01*
X34289265Y-15861670D01*
X34161594Y-15834533D01*
X34114391Y-15824500D01*
X33935609Y-15824500D01*
X33904954Y-15831015D01*
X33760733Y-15861670D01*
X33760732Y-15861670D01*
X33676815Y-15899033D01*
X33607565Y-15908317D01*
X33544288Y-15878688D01*
X33521207Y-15849499D01*
X33520707Y-15849834D01*
X33413302Y-15689092D01*
X33413299Y-15689088D01*
X33280911Y-15556700D01*
X33280907Y-15556697D01*
X33125237Y-15452681D01*
X33125228Y-15452676D01*
X32952251Y-15381027D01*
X32952243Y-15381025D01*
X32768620Y-15344500D01*
X32768616Y-15344500D01*
X32581384Y-15344500D01*
X32581379Y-15344500D01*
X32397756Y-15381025D01*
X32397748Y-15381027D01*
X32224771Y-15452676D01*
X32224762Y-15452681D01*
X32069092Y-15556697D01*
X32069088Y-15556700D01*
X31936700Y-15689088D01*
X31936697Y-15689092D01*
X31832681Y-15844762D01*
X31832676Y-15844771D01*
X31761027Y-16017748D01*
X31761025Y-16017756D01*
X31724500Y-16201379D01*
X31724500Y-17785989D01*
X31704815Y-17853028D01*
X31652011Y-17898783D01*
X31582853Y-17908727D01*
X31519297Y-17879702D01*
X31512819Y-17873670D01*
X31505398Y-17866249D01*
X31351706Y-17769677D01*
X31180374Y-17709725D01*
X31180369Y-17709724D01*
X31000004Y-17689403D01*
X30999996Y-17689403D01*
X30819630Y-17709724D01*
X30819625Y-17709725D01*
X30648293Y-17769677D01*
X30494601Y-17866249D01*
X30366249Y-17994601D01*
X30269677Y-18148293D01*
X30209725Y-18319625D01*
X30209724Y-18319630D01*
X30189403Y-18499996D01*
X27000000Y-18499996D01*
X27000000Y-13171379D01*
X31724500Y-13171379D01*
X31724500Y-14158620D01*
X31761025Y-14342243D01*
X31761027Y-14342251D01*
X31832676Y-14515228D01*
X31832681Y-14515237D01*
X31936697Y-14670907D01*
X31936700Y-14670911D01*
X32069088Y-14803299D01*
X32069092Y-14803302D01*
X32224762Y-14907318D01*
X32224768Y-14907321D01*
X32224769Y-14907322D01*
X32397749Y-14978973D01*
X32581379Y-15015499D01*
X32581383Y-15015500D01*
X32581384Y-15015500D01*
X32768617Y-15015500D01*
X32768618Y-15015499D01*
X32952251Y-14978973D01*
X33125231Y-14907322D01*
X33280908Y-14803302D01*
X33413302Y-14670908D01*
X33517322Y-14515231D01*
X33588973Y-14342251D01*
X33625500Y-14158616D01*
X33625500Y-13171384D01*
X33625499Y-13171379D01*
X40374500Y-13171379D01*
X40374500Y-14158620D01*
X40411025Y-14342243D01*
X40411027Y-14342251D01*
X40482676Y-14515228D01*
X40482681Y-14515237D01*
X40586697Y-14670907D01*
X40586700Y-14670911D01*
X40719088Y-14803299D01*
X40719092Y-14803302D01*
X40874762Y-14907318D01*
X40874768Y-14907321D01*
X40874769Y-14907322D01*
X41047749Y-14978973D01*
X41231379Y-15015499D01*
X41231383Y-15015500D01*
X41231384Y-15015500D01*
X41418617Y-15015500D01*
X41418618Y-15015499D01*
X41602251Y-14978973D01*
X41775231Y-14907322D01*
X41930908Y-14803302D01*
X42063302Y-14670908D01*
X42167322Y-14515231D01*
X42238973Y-14342251D01*
X42275500Y-14158616D01*
X42275500Y-13171384D01*
X42238973Y-12987749D01*
X42177337Y-12838947D01*
X42167323Y-12814771D01*
X42167318Y-12814762D01*
X42063302Y-12659092D01*
X42063299Y-12659088D01*
X41930911Y-12526700D01*
X41930907Y-12526697D01*
X41775237Y-12422681D01*
X41775228Y-12422676D01*
X41602251Y-12351027D01*
X41602243Y-12351025D01*
X41418620Y-12314500D01*
X41418616Y-12314500D01*
X41231384Y-12314500D01*
X41231379Y-12314500D01*
X41047756Y-12351025D01*
X41047748Y-12351027D01*
X40874771Y-12422676D01*
X40874762Y-12422681D01*
X40719092Y-12526697D01*
X40719088Y-12526700D01*
X40586700Y-12659088D01*
X40586697Y-12659092D01*
X40482681Y-12814762D01*
X40482676Y-12814771D01*
X40411027Y-12987748D01*
X40411025Y-12987756D01*
X40374500Y-13171379D01*
X33625499Y-13171379D01*
X33588973Y-12987749D01*
X33527337Y-12838947D01*
X33517323Y-12814771D01*
X33517318Y-12814762D01*
X33413302Y-12659092D01*
X33413299Y-12659088D01*
X33280911Y-12526700D01*
X33280907Y-12526697D01*
X33125237Y-12422681D01*
X33125228Y-12422676D01*
X32952251Y-12351027D01*
X32952243Y-12351025D01*
X32768620Y-12314500D01*
X32768616Y-12314500D01*
X32581384Y-12314500D01*
X32581379Y-12314500D01*
X32397756Y-12351025D01*
X32397748Y-12351027D01*
X32224771Y-12422676D01*
X32224762Y-12422681D01*
X32069092Y-12526697D01*
X32069088Y-12526700D01*
X31936700Y-12659088D01*
X31936697Y-12659092D01*
X31832681Y-12814762D01*
X31832676Y-12814771D01*
X31761027Y-12987748D01*
X31761025Y-12987756D01*
X31724500Y-13171379D01*
X27000000Y-13171379D01*
X27000000Y-12124000D01*
X27019685Y-12056961D01*
X27072489Y-12011206D01*
X27124000Y-12000000D01*
X46729082Y-12000000D01*
X46796121Y-12019685D01*
G37*
%TD.AperFunction*%
%TA.AperFunction,Conductor*%
G36*
X34643334Y-41990283D02*
G01*
X34687681Y-42018784D01*
X34714576Y-42045679D01*
X34759074Y-42073639D01*
X34833794Y-42120589D01*
X34853693Y-42133092D01*
X35008772Y-42187356D01*
X35008773Y-42187356D01*
X35008777Y-42187357D01*
X35172035Y-42205752D01*
X35172039Y-42205752D01*
X35172043Y-42205752D01*
X35335300Y-42187357D01*
X35335302Y-42187356D01*
X35335306Y-42187356D01*
X35490385Y-42133092D01*
X35629502Y-42045679D01*
X35629509Y-42045671D01*
X35631980Y-42043702D01*
X35633887Y-42042922D01*
X35635398Y-42041974D01*
X35635564Y-42042238D01*
X35696664Y-42017288D01*
X35765360Y-42030039D01*
X35816258Y-42077906D01*
X35833300Y-42140643D01*
X35833300Y-42466841D01*
X35833300Y-42533159D01*
X35858678Y-42594428D01*
X39282569Y-46018319D01*
X39329463Y-46065213D01*
X39390732Y-46090591D01*
X49161604Y-46090591D01*
X49228643Y-46110276D01*
X49274398Y-46163080D01*
X49284342Y-46232238D01*
X49255317Y-46295794D01*
X49202559Y-46331632D01*
X49181654Y-46338946D01*
X49181651Y-46338948D01*
X49042536Y-46426360D01*
X48926360Y-46542536D01*
X48838947Y-46681652D01*
X48784682Y-46836734D01*
X48784681Y-46836738D01*
X48766287Y-46999996D01*
X48766287Y-47000003D01*
X48784681Y-47163261D01*
X48784682Y-47163265D01*
X48838947Y-47318347D01*
X48922511Y-47451337D01*
X48926360Y-47457463D01*
X49042537Y-47573640D01*
X49181654Y-47661053D01*
X49336733Y-47715317D01*
X49336734Y-47715317D01*
X49336738Y-47715318D01*
X49499996Y-47733713D01*
X49500000Y-47733713D01*
X49500004Y-47733713D01*
X49663261Y-47715318D01*
X49663263Y-47715317D01*
X49663267Y-47715317D01*
X49818346Y-47661053D01*
X49957463Y-47573640D01*
X50073640Y-47457463D01*
X50161053Y-47318346D01*
X50182102Y-47258189D01*
X50222823Y-47201414D01*
X50258188Y-47182102D01*
X50318346Y-47161053D01*
X50457463Y-47073640D01*
X50573640Y-46957463D01*
X50661053Y-46818346D01*
X50715317Y-46663267D01*
X50715955Y-46657604D01*
X50733713Y-46500003D01*
X50733713Y-46499996D01*
X50715318Y-46336738D01*
X50715316Y-46336728D01*
X50686909Y-46255546D01*
X50683347Y-46185767D01*
X50718075Y-46125140D01*
X50780069Y-46092912D01*
X50803950Y-46090591D01*
X51240700Y-46090591D01*
X51307739Y-46110276D01*
X51353494Y-46163080D01*
X51357742Y-46173637D01*
X51381746Y-46242238D01*
X51469159Y-46381354D01*
X51585336Y-46497531D01*
X51656961Y-46542536D01*
X51684985Y-46560145D01*
X51724453Y-46584944D01*
X51879532Y-46639208D01*
X51879533Y-46639208D01*
X51879537Y-46639209D01*
X52042795Y-46657604D01*
X52042799Y-46657604D01*
X52042801Y-46657604D01*
X52195416Y-46640408D01*
X52264238Y-46652462D01*
X52315617Y-46699811D01*
X52333300Y-46763628D01*
X52333300Y-51517018D01*
X52313615Y-51584057D01*
X52260811Y-51629812D01*
X52191653Y-51639756D01*
X52168347Y-51634060D01*
X52163269Y-51632283D01*
X52163261Y-51632281D01*
X52000004Y-51613887D01*
X51999996Y-51613887D01*
X51836738Y-51632281D01*
X51836734Y-51632282D01*
X51681652Y-51686547D01*
X51565972Y-51759234D01*
X51498735Y-51778234D01*
X51434028Y-51759234D01*
X51318346Y-51686547D01*
X51318347Y-51686547D01*
X51163265Y-51632282D01*
X51163261Y-51632281D01*
X51000004Y-51613887D01*
X50999996Y-51613887D01*
X50836738Y-51632281D01*
X50836734Y-51632282D01*
X50681652Y-51686547D01*
X50542536Y-51773960D01*
X50426360Y-51890136D01*
X50338947Y-52029252D01*
X50284682Y-52184334D01*
X50284681Y-52184338D01*
X50266287Y-52347596D01*
X50266287Y-52347603D01*
X50284681Y-52510861D01*
X50284682Y-52510865D01*
X50338947Y-52665947D01*
X50397791Y-52759596D01*
X50426360Y-52805063D01*
X50542537Y-52921240D01*
X50681654Y-53008653D01*
X50836733Y-53062917D01*
X50836734Y-53062917D01*
X50836738Y-53062918D01*
X50999996Y-53081313D01*
X51000000Y-53081313D01*
X51000004Y-53081313D01*
X51163261Y-53062918D01*
X51163263Y-53062917D01*
X51163267Y-53062917D01*
X51318346Y-53008653D01*
X51434028Y-52935964D01*
X51501264Y-52916965D01*
X51565971Y-52935964D01*
X51681654Y-53008653D01*
X51730321Y-53025682D01*
X51787097Y-53066404D01*
X51812845Y-53131356D01*
X51799389Y-53199918D01*
X51751002Y-53250321D01*
X51730326Y-53259764D01*
X51715054Y-53265108D01*
X51715052Y-53265109D01*
X51575937Y-53352521D01*
X51459761Y-53468697D01*
X51372348Y-53607813D01*
X51348344Y-53676415D01*
X51307622Y-53733191D01*
X51242669Y-53758939D01*
X51231302Y-53759461D01*
X45673284Y-53759461D01*
X45606245Y-53739776D01*
X45585603Y-53723142D01*
X42862457Y-50999996D01*
X47266287Y-50999996D01*
X47266287Y-51000003D01*
X47284681Y-51163261D01*
X47284682Y-51163265D01*
X47338947Y-51318347D01*
X47390507Y-51400403D01*
X47426360Y-51457463D01*
X47542537Y-51573640D01*
X47566927Y-51588965D01*
X47668054Y-51652508D01*
X47681654Y-51661053D01*
X47836733Y-51715317D01*
X47836734Y-51715317D01*
X47836738Y-51715318D01*
X47999996Y-51733713D01*
X48000000Y-51733713D01*
X48000004Y-51733713D01*
X48163261Y-51715318D01*
X48163263Y-51715317D01*
X48163267Y-51715317D01*
X48318346Y-51661053D01*
X48457463Y-51573640D01*
X48573640Y-51457463D01*
X48661053Y-51318346D01*
X48715317Y-51163267D01*
X48715318Y-51163261D01*
X48733713Y-51000003D01*
X48733713Y-50999996D01*
X48715318Y-50836738D01*
X48715317Y-50836734D01*
X48708883Y-50818347D01*
X48661053Y-50681654D01*
X48653437Y-50669534D01*
X48593183Y-50573640D01*
X48573640Y-50542537D01*
X48457463Y-50426360D01*
X48318347Y-50338947D01*
X48163265Y-50284682D01*
X48163261Y-50284681D01*
X48000004Y-50266287D01*
X47999996Y-50266287D01*
X47836738Y-50284681D01*
X47836734Y-50284682D01*
X47681652Y-50338947D01*
X47542536Y-50426360D01*
X47426360Y-50542536D01*
X47338947Y-50681652D01*
X47284682Y-50836734D01*
X47284681Y-50836738D01*
X47266287Y-50999996D01*
X42862457Y-50999996D01*
X40907657Y-49045196D01*
X42266287Y-49045196D01*
X42266287Y-49045203D01*
X42284681Y-49208461D01*
X42284682Y-49208465D01*
X42338947Y-49363547D01*
X42406302Y-49470741D01*
X42426360Y-49502663D01*
X42542537Y-49618840D01*
X42681654Y-49706253D01*
X42836733Y-49760517D01*
X42836734Y-49760517D01*
X42836738Y-49760518D01*
X42999996Y-49778913D01*
X43000000Y-49778913D01*
X43000004Y-49778913D01*
X43163261Y-49760518D01*
X43163263Y-49760517D01*
X43163267Y-49760517D01*
X43318346Y-49706253D01*
X43457463Y-49618840D01*
X43573640Y-49502663D01*
X43661053Y-49363546D01*
X43715317Y-49208467D01*
X43717961Y-49185000D01*
X43733713Y-49045203D01*
X43733713Y-49045196D01*
X43715318Y-48881938D01*
X43715317Y-48881934D01*
X43690698Y-48811577D01*
X43661053Y-48726854D01*
X43573640Y-48587737D01*
X43457463Y-48471560D01*
X43318347Y-48384147D01*
X43163265Y-48329882D01*
X43163261Y-48329881D01*
X43000004Y-48311487D01*
X42999996Y-48311487D01*
X42836738Y-48329881D01*
X42836734Y-48329882D01*
X42681652Y-48384147D01*
X42542536Y-48471560D01*
X42426360Y-48587736D01*
X42338947Y-48726852D01*
X42284682Y-48881934D01*
X42284681Y-48881938D01*
X42266287Y-49045196D01*
X40907657Y-49045196D01*
X40188442Y-48325981D01*
X40154957Y-48264658D01*
X40159941Y-48194966D01*
X40201813Y-48139033D01*
X40267277Y-48114616D01*
X40335550Y-48129468D01*
X40342096Y-48133307D01*
X40374273Y-48153525D01*
X40386254Y-48161053D01*
X40541333Y-48215317D01*
X40541334Y-48215317D01*
X40541338Y-48215318D01*
X40704596Y-48233713D01*
X40704600Y-48233713D01*
X40704604Y-48233713D01*
X40867861Y-48215318D01*
X40867863Y-48215317D01*
X40867867Y-48215317D01*
X41022946Y-48161053D01*
X41162063Y-48073640D01*
X41278240Y-47957463D01*
X41365653Y-47818346D01*
X41419917Y-47663267D01*
X41419918Y-47663261D01*
X41438313Y-47500003D01*
X41438313Y-47499996D01*
X41419918Y-47336738D01*
X41419917Y-47336734D01*
X41417981Y-47331202D01*
X41365653Y-47181654D01*
X41354098Y-47163265D01*
X41297783Y-47073640D01*
X41278240Y-47042537D01*
X41162063Y-46926360D01*
X41082721Y-46876506D01*
X41022947Y-46838947D01*
X40867865Y-46784682D01*
X40867861Y-46784681D01*
X40704604Y-46766287D01*
X40704596Y-46766287D01*
X40541338Y-46784681D01*
X40541334Y-46784682D01*
X40386252Y-46838947D01*
X40247136Y-46926360D01*
X40130960Y-47042536D01*
X40043547Y-47181652D01*
X39989282Y-47336734D01*
X39989281Y-47336738D01*
X39970887Y-47499996D01*
X39970887Y-47500003D01*
X39989281Y-47663261D01*
X39989282Y-47663265D01*
X40043547Y-47818347D01*
X40071293Y-47862504D01*
X40090293Y-47929741D01*
X40069925Y-47996576D01*
X40016657Y-48041790D01*
X39947401Y-48051027D01*
X39884145Y-48021356D01*
X39878618Y-48016157D01*
X34239482Y-42377021D01*
X34205997Y-42315698D01*
X34210981Y-42246006D01*
X34252853Y-42190073D01*
X34286209Y-42172298D01*
X34318346Y-42161053D01*
X34457463Y-42073640D01*
X34512319Y-42018784D01*
X34573642Y-41985299D01*
X34643334Y-41990283D01*
G37*
%TD.AperFunction*%
%TA.AperFunction,Conductor*%
G36*
X49228643Y-38110276D02*
G01*
X49274398Y-38163080D01*
X49284342Y-38232238D01*
X49255317Y-38295794D01*
X49202559Y-38331632D01*
X49181654Y-38338946D01*
X49181651Y-38338948D01*
X49042536Y-38426360D01*
X48926360Y-38542536D01*
X48838947Y-38681652D01*
X48784682Y-38836734D01*
X48784681Y-38836738D01*
X48766287Y-38999996D01*
X48766287Y-39000003D01*
X48784681Y-39163261D01*
X48784682Y-39163265D01*
X48838947Y-39318347D01*
X48850503Y-39336738D01*
X48926360Y-39457463D01*
X49042537Y-39573640D01*
X49102180Y-39611116D01*
X49167446Y-39652126D01*
X49181654Y-39661053D01*
X49336733Y-39715317D01*
X49336734Y-39715317D01*
X49336738Y-39715318D01*
X49499996Y-39733713D01*
X49500000Y-39733713D01*
X49500004Y-39733713D01*
X49663261Y-39715318D01*
X49663263Y-39715317D01*
X49663267Y-39715317D01*
X49818346Y-39661053D01*
X49957463Y-39573640D01*
X50073640Y-39457463D01*
X50161053Y-39318346D01*
X50182102Y-39258189D01*
X50222823Y-39201414D01*
X50258188Y-39182102D01*
X50318346Y-39161053D01*
X50457463Y-39073640D01*
X50573640Y-38957463D01*
X50661053Y-38818346D01*
X50715317Y-38663267D01*
X50715955Y-38657604D01*
X50733713Y-38500003D01*
X50733713Y-38499996D01*
X50715318Y-38336738D01*
X50715316Y-38336728D01*
X50686909Y-38255546D01*
X50683347Y-38185767D01*
X50718075Y-38125140D01*
X50780069Y-38092912D01*
X50803950Y-38090591D01*
X51240701Y-38090591D01*
X51307740Y-38110276D01*
X51353495Y-38163080D01*
X51357743Y-38173637D01*
X51381747Y-38242238D01*
X51456196Y-38360722D01*
X51469160Y-38381354D01*
X51585337Y-38497531D01*
X51724454Y-38584944D01*
X51879533Y-38639208D01*
X51879534Y-38639208D01*
X51879538Y-38639209D01*
X52042796Y-38657604D01*
X52042800Y-38657604D01*
X52042802Y-38657604D01*
X52150393Y-38645480D01*
X52195416Y-38640408D01*
X52264238Y-38652462D01*
X52315617Y-38699811D01*
X52333300Y-38763628D01*
X52333300Y-43517018D01*
X52313615Y-43584057D01*
X52260811Y-43629812D01*
X52191653Y-43639756D01*
X52168347Y-43634060D01*
X52163269Y-43632283D01*
X52163261Y-43632281D01*
X52000004Y-43613887D01*
X51999996Y-43613887D01*
X51836738Y-43632281D01*
X51836734Y-43632282D01*
X51681652Y-43686547D01*
X51565972Y-43759234D01*
X51498735Y-43778234D01*
X51434028Y-43759234D01*
X51318346Y-43686547D01*
X51318347Y-43686547D01*
X51163265Y-43632282D01*
X51163261Y-43632281D01*
X51000004Y-43613887D01*
X50999996Y-43613887D01*
X50836738Y-43632281D01*
X50836734Y-43632282D01*
X50681652Y-43686547D01*
X50542536Y-43773960D01*
X50426360Y-43890136D01*
X50338947Y-44029252D01*
X50284682Y-44184334D01*
X50284681Y-44184338D01*
X50266287Y-44347596D01*
X50266287Y-44347603D01*
X50284681Y-44510861D01*
X50284682Y-44510865D01*
X50338947Y-44665947D01*
X50408837Y-44777176D01*
X50426360Y-44805063D01*
X50542537Y-44921240D01*
X50565972Y-44935965D01*
X50667887Y-45000003D01*
X50681654Y-45008653D01*
X50836733Y-45062917D01*
X50836734Y-45062917D01*
X50836738Y-45062918D01*
X50999996Y-45081313D01*
X51000000Y-45081313D01*
X51000004Y-45081313D01*
X51163261Y-45062918D01*
X51163263Y-45062917D01*
X51163267Y-45062917D01*
X51318346Y-45008653D01*
X51434028Y-44935964D01*
X51501264Y-44916965D01*
X51565972Y-44935965D01*
X51681653Y-45008653D01*
X51709134Y-45018268D01*
X51731776Y-45026191D01*
X51788553Y-45066912D01*
X51814301Y-45131864D01*
X51800845Y-45200426D01*
X51752459Y-45250830D01*
X51731784Y-45260272D01*
X51724456Y-45262836D01*
X51724450Y-45262839D01*
X51585335Y-45350251D01*
X51469159Y-45466427D01*
X51381746Y-45605543D01*
X51357742Y-45674145D01*
X51317020Y-45730921D01*
X51252067Y-45756669D01*
X51240700Y-45757191D01*
X43092465Y-45757191D01*
X43025426Y-45737506D01*
X42979671Y-45684702D01*
X42969727Y-45615544D01*
X42998752Y-45551988D01*
X43004784Y-45545510D01*
X43048903Y-45501391D01*
X43136316Y-45362274D01*
X43190580Y-45207195D01*
X43195530Y-45163265D01*
X43208976Y-45043931D01*
X43208976Y-45043924D01*
X43190581Y-44880666D01*
X43190580Y-44880662D01*
X43175983Y-44838947D01*
X43136316Y-44725582D01*
X43131346Y-44717673D01*
X43048902Y-44586464D01*
X42932726Y-44470288D01*
X42793610Y-44382875D01*
X42638528Y-44328610D01*
X42638524Y-44328609D01*
X42475267Y-44310215D01*
X42475259Y-44310215D01*
X42312001Y-44328609D01*
X42311997Y-44328610D01*
X42156915Y-44382875D01*
X42017799Y-44470288D01*
X41901623Y-44586464D01*
X41814210Y-44725580D01*
X41759945Y-44880662D01*
X41759944Y-44880666D01*
X41741550Y-45043924D01*
X41741550Y-45043931D01*
X41759944Y-45207189D01*
X41759945Y-45207193D01*
X41814210Y-45362275D01*
X41901623Y-45501391D01*
X41945742Y-45545510D01*
X41979227Y-45606833D01*
X41974243Y-45676525D01*
X41932371Y-45732458D01*
X41866907Y-45756875D01*
X41858061Y-45757191D01*
X41073274Y-45757191D01*
X41006235Y-45737506D01*
X40960480Y-45684702D01*
X40950536Y-45615544D01*
X40979561Y-45551988D01*
X40985593Y-45545510D01*
X41073640Y-45457463D01*
X41161053Y-45318346D01*
X41215317Y-45163267D01*
X41217985Y-45139592D01*
X41233713Y-45000003D01*
X41233713Y-44999996D01*
X41215318Y-44836738D01*
X41215317Y-44836734D01*
X41201824Y-44798174D01*
X41161053Y-44681654D01*
X41073640Y-44542537D01*
X40957463Y-44426360D01*
X40938540Y-44414470D01*
X40818347Y-44338947D01*
X40663265Y-44284682D01*
X40663261Y-44284681D01*
X40500004Y-44266287D01*
X40499996Y-44266287D01*
X40336738Y-44284681D01*
X40336734Y-44284682D01*
X40181652Y-44338947D01*
X40042536Y-44426360D01*
X39926360Y-44542536D01*
X39838947Y-44681652D01*
X39784682Y-44836734D01*
X39784681Y-44836738D01*
X39766287Y-44999996D01*
X39766287Y-45000003D01*
X39784681Y-45163261D01*
X39784682Y-45163265D01*
X39838947Y-45318347D01*
X39926360Y-45457463D01*
X40014407Y-45545510D01*
X40047892Y-45606833D01*
X40042908Y-45676525D01*
X40001036Y-45732458D01*
X39935572Y-45756875D01*
X39926726Y-45757191D01*
X39544303Y-45757191D01*
X39477264Y-45737506D01*
X39456622Y-45720872D01*
X37908445Y-44172695D01*
X37874960Y-44111372D01*
X37879944Y-44041680D01*
X37921816Y-43985747D01*
X37987280Y-43961330D01*
X38037080Y-43967972D01*
X38048852Y-43972091D01*
X38061732Y-43976599D01*
X38061738Y-43976600D01*
X38224996Y-43994995D01*
X38225000Y-43994995D01*
X38225004Y-43994995D01*
X38388261Y-43976600D01*
X38388263Y-43976599D01*
X38388267Y-43976599D01*
X38543346Y-43922335D01*
X38682463Y-43834922D01*
X38798640Y-43718745D01*
X38886053Y-43579628D01*
X38940317Y-43424549D01*
X38950211Y-43336738D01*
X38958713Y-43261285D01*
X38958713Y-43261278D01*
X38940318Y-43098020D01*
X38940317Y-43098016D01*
X38924393Y-43052508D01*
X38906019Y-42999996D01*
X47266287Y-42999996D01*
X47266287Y-43000003D01*
X47284681Y-43163261D01*
X47284682Y-43163265D01*
X47338947Y-43318347D01*
X47405679Y-43424549D01*
X47426360Y-43457463D01*
X47542537Y-43573640D01*
X47681654Y-43661053D01*
X47836733Y-43715317D01*
X47836734Y-43715317D01*
X47836738Y-43715318D01*
X47999996Y-43733713D01*
X48000000Y-43733713D01*
X48000004Y-43733713D01*
X48163261Y-43715318D01*
X48163263Y-43715317D01*
X48163267Y-43715317D01*
X48318346Y-43661053D01*
X48457463Y-43573640D01*
X48573640Y-43457463D01*
X48661053Y-43318346D01*
X48715317Y-43163267D01*
X48721617Y-43107354D01*
X48733713Y-43000003D01*
X48733713Y-42999996D01*
X48715318Y-42836738D01*
X48715317Y-42836734D01*
X48703799Y-42803818D01*
X48661053Y-42681654D01*
X48573640Y-42542537D01*
X48457463Y-42426360D01*
X48318347Y-42338947D01*
X48163265Y-42284682D01*
X48163261Y-42284681D01*
X48000004Y-42266287D01*
X47999996Y-42266287D01*
X47836738Y-42284681D01*
X47836734Y-42284682D01*
X47681652Y-42338947D01*
X47542536Y-42426360D01*
X47426360Y-42542536D01*
X47338947Y-42681652D01*
X47284682Y-42836734D01*
X47284681Y-42836738D01*
X47266287Y-42999996D01*
X38906019Y-42999996D01*
X38886053Y-42942936D01*
X38798640Y-42803819D01*
X38682463Y-42687642D01*
X38543347Y-42600229D01*
X38388265Y-42545964D01*
X38388261Y-42545963D01*
X38225004Y-42527569D01*
X38224996Y-42527569D01*
X38061738Y-42545963D01*
X38061734Y-42545964D01*
X37906652Y-42600229D01*
X37767536Y-42687642D01*
X37651360Y-42803818D01*
X37563947Y-42942934D01*
X37509682Y-43098016D01*
X37509681Y-43098020D01*
X37491287Y-43261278D01*
X37491287Y-43261285D01*
X37509681Y-43424543D01*
X37509682Y-43424547D01*
X37518309Y-43449201D01*
X37521870Y-43518980D01*
X37487141Y-43579607D01*
X37425148Y-43611834D01*
X37355572Y-43605429D01*
X37313586Y-43577836D01*
X36203019Y-42467269D01*
X36169534Y-42405946D01*
X36166700Y-42379588D01*
X36166700Y-41466842D01*
X36166700Y-41466841D01*
X36141322Y-41405572D01*
X36094428Y-41358678D01*
X35921682Y-41185932D01*
X37380687Y-41185932D01*
X37380687Y-41185939D01*
X37399081Y-41349197D01*
X37399082Y-41349201D01*
X37453347Y-41504283D01*
X37540760Y-41643399D01*
X37656937Y-41759576D01*
X37705969Y-41790385D01*
X37750470Y-41818347D01*
X37796054Y-41846989D01*
X37951133Y-41901253D01*
X37951134Y-41901253D01*
X37951138Y-41901254D01*
X38114396Y-41919649D01*
X38114400Y-41919649D01*
X38114404Y-41919649D01*
X38277661Y-41901254D01*
X38277663Y-41901253D01*
X38277667Y-41901253D01*
X38432746Y-41846989D01*
X38571863Y-41759576D01*
X38688040Y-41643399D01*
X38775453Y-41504282D01*
X38829717Y-41349203D01*
X38829718Y-41349197D01*
X38848113Y-41185939D01*
X38848113Y-41185932D01*
X38829718Y-41022674D01*
X38829717Y-41022670D01*
X38821783Y-40999996D01*
X42266287Y-40999996D01*
X42266287Y-41000003D01*
X42284681Y-41163261D01*
X42284682Y-41163265D01*
X42338947Y-41318347D01*
X42398777Y-41413565D01*
X42426360Y-41457463D01*
X42542537Y-41573640D01*
X42681654Y-41661053D01*
X42836733Y-41715317D01*
X42836734Y-41715317D01*
X42836738Y-41715318D01*
X42999996Y-41733713D01*
X43000000Y-41733713D01*
X43000004Y-41733713D01*
X43163261Y-41715318D01*
X43163263Y-41715317D01*
X43163267Y-41715317D01*
X43318346Y-41661053D01*
X43457463Y-41573640D01*
X43573640Y-41457463D01*
X43661053Y-41318346D01*
X43715317Y-41163267D01*
X43717925Y-41140123D01*
X43733713Y-41000003D01*
X43733713Y-40999996D01*
X43715318Y-40836738D01*
X43715317Y-40836734D01*
X43706307Y-40810986D01*
X43661053Y-40681654D01*
X43573640Y-40542537D01*
X43457463Y-40426360D01*
X43454024Y-40424199D01*
X43318347Y-40338947D01*
X43163265Y-40284682D01*
X43163261Y-40284681D01*
X43000004Y-40266287D01*
X42999996Y-40266287D01*
X42836738Y-40284681D01*
X42836734Y-40284682D01*
X42681652Y-40338947D01*
X42542536Y-40426360D01*
X42426360Y-40542536D01*
X42338947Y-40681652D01*
X42284682Y-40836734D01*
X42284681Y-40836738D01*
X42266287Y-40999996D01*
X38821783Y-40999996D01*
X38805428Y-40953256D01*
X38775453Y-40867590D01*
X38757455Y-40838947D01*
X38705013Y-40755486D01*
X38688040Y-40728473D01*
X38571863Y-40612296D01*
X38480634Y-40554973D01*
X38434343Y-40502638D01*
X38423695Y-40433584D01*
X38452070Y-40369736D01*
X38510460Y-40331364D01*
X38532723Y-40326759D01*
X38563261Y-40323318D01*
X38563263Y-40323317D01*
X38563267Y-40323317D01*
X38718346Y-40269053D01*
X38857463Y-40181640D01*
X38973640Y-40065463D01*
X39061053Y-39926346D01*
X39115317Y-39771267D01*
X39115318Y-39771261D01*
X39133713Y-39608003D01*
X39133713Y-39607996D01*
X39115318Y-39444738D01*
X39115317Y-39444734D01*
X39077526Y-39336733D01*
X39061053Y-39289654D01*
X39054440Y-39279130D01*
X38995955Y-39186051D01*
X38973640Y-39150537D01*
X38857463Y-39034360D01*
X38823846Y-39013237D01*
X38718347Y-38946947D01*
X38563265Y-38892682D01*
X38563261Y-38892681D01*
X38400004Y-38874287D01*
X38399996Y-38874287D01*
X38236738Y-38892681D01*
X38236734Y-38892682D01*
X38081652Y-38946947D01*
X37942536Y-39034360D01*
X37826360Y-39150536D01*
X37738947Y-39289652D01*
X37684682Y-39444734D01*
X37684681Y-39444738D01*
X37666287Y-39607996D01*
X37666287Y-39608003D01*
X37684681Y-39771261D01*
X37684682Y-39771265D01*
X37738947Y-39926347D01*
X37826360Y-40065463D01*
X37942537Y-40181640D01*
X38033765Y-40238962D01*
X38080056Y-40291297D01*
X38090704Y-40360350D01*
X38062329Y-40424199D01*
X38003940Y-40462571D01*
X37981679Y-40467176D01*
X37951137Y-40470617D01*
X37951134Y-40470618D01*
X37796052Y-40524883D01*
X37656936Y-40612296D01*
X37540760Y-40728472D01*
X37453347Y-40867588D01*
X37399082Y-41022670D01*
X37399081Y-41022674D01*
X37380687Y-41185932D01*
X35921682Y-41185932D01*
X35092240Y-40356490D01*
X35058755Y-40295167D01*
X35063739Y-40225475D01*
X35105611Y-40169542D01*
X35113946Y-40163817D01*
X35118342Y-40161054D01*
X35118346Y-40161053D01*
X35134026Y-40151199D01*
X35201259Y-40132199D01*
X35265970Y-40151199D01*
X35273655Y-40156027D01*
X35281653Y-40161053D01*
X35436732Y-40215317D01*
X35436733Y-40215317D01*
X35436737Y-40215318D01*
X35599995Y-40233713D01*
X35599999Y-40233713D01*
X35600003Y-40233713D01*
X35763260Y-40215318D01*
X35763262Y-40215317D01*
X35763266Y-40215317D01*
X35918345Y-40161053D01*
X36057462Y-40073640D01*
X36173639Y-39957463D01*
X36261052Y-39818346D01*
X36315316Y-39663267D01*
X36315317Y-39663261D01*
X36333712Y-39500003D01*
X36333712Y-39499996D01*
X36315317Y-39336738D01*
X36315316Y-39336734D01*
X36308882Y-39318347D01*
X36261052Y-39181654D01*
X36249497Y-39163265D01*
X36193182Y-39073640D01*
X36173639Y-39042537D01*
X36057462Y-38926360D01*
X36019655Y-38902604D01*
X35918346Y-38838947D01*
X35763264Y-38784682D01*
X35763260Y-38784681D01*
X35600003Y-38766287D01*
X35599995Y-38766287D01*
X35436737Y-38784681D01*
X35436733Y-38784682D01*
X35281653Y-38838946D01*
X35265968Y-38848802D01*
X35198730Y-38867800D01*
X35134026Y-38848799D01*
X35118348Y-38838947D01*
X34963265Y-38784682D01*
X34963261Y-38784681D01*
X34800004Y-38766287D01*
X34799996Y-38766287D01*
X34636738Y-38784681D01*
X34636734Y-38784682D01*
X34481652Y-38838947D01*
X34342536Y-38926360D01*
X34226358Y-39042538D01*
X34136183Y-39186051D01*
X34083849Y-39232341D01*
X34014795Y-39242989D01*
X33950947Y-39214614D01*
X33943509Y-39207759D01*
X33289316Y-38553566D01*
X33241396Y-38533718D01*
X33186992Y-38489878D01*
X33171809Y-38460118D01*
X33167646Y-38448223D01*
X33164080Y-38378445D01*
X33167639Y-38366323D01*
X33179778Y-38331632D01*
X33185059Y-38316542D01*
X33225782Y-38259767D01*
X33290735Y-38234022D01*
X33302099Y-38233500D01*
X34094079Y-38233500D01*
X34160051Y-38252506D01*
X34164890Y-38255546D01*
X34173654Y-38261053D01*
X34328733Y-38315317D01*
X34328734Y-38315317D01*
X34328738Y-38315318D01*
X34491996Y-38333713D01*
X34492000Y-38333713D01*
X34492004Y-38333713D01*
X34655261Y-38315318D01*
X34655263Y-38315317D01*
X34655267Y-38315317D01*
X34810346Y-38261053D01*
X34819110Y-38255546D01*
X34823949Y-38252506D01*
X34889921Y-38233500D01*
X48364099Y-38233500D01*
X48364101Y-38233500D01*
X48425370Y-38208122D01*
X48506582Y-38126910D01*
X48567905Y-38093425D01*
X48594263Y-38090591D01*
X49161604Y-38090591D01*
X49228643Y-38110276D01*
G37*
%TD.AperFunction*%
%TA.AperFunction,Conductor*%
G36*
X51718760Y-30582952D02*
G01*
X51724453Y-30584944D01*
X51879532Y-30639208D01*
X51879533Y-30639208D01*
X51879537Y-30639209D01*
X52042795Y-30657604D01*
X52042799Y-30657604D01*
X52042801Y-30657604D01*
X52195416Y-30640408D01*
X52264238Y-30652462D01*
X52315617Y-30699811D01*
X52333300Y-30763628D01*
X52333300Y-35517018D01*
X52313615Y-35584057D01*
X52260811Y-35629812D01*
X52191653Y-35639756D01*
X52168347Y-35634060D01*
X52163269Y-35632283D01*
X52163261Y-35632281D01*
X52000004Y-35613887D01*
X51999996Y-35613887D01*
X51836738Y-35632281D01*
X51836734Y-35632282D01*
X51681652Y-35686547D01*
X51565972Y-35759234D01*
X51498735Y-35778234D01*
X51434028Y-35759234D01*
X51318346Y-35686547D01*
X51318347Y-35686547D01*
X51163265Y-35632282D01*
X51163261Y-35632281D01*
X51000004Y-35613887D01*
X50999996Y-35613887D01*
X50836738Y-35632281D01*
X50836734Y-35632282D01*
X50681652Y-35686547D01*
X50542536Y-35773960D01*
X50426360Y-35890136D01*
X50338947Y-36029252D01*
X50284682Y-36184334D01*
X50284681Y-36184338D01*
X50266287Y-36347596D01*
X50266287Y-36347603D01*
X50284681Y-36510861D01*
X50284682Y-36510865D01*
X50338947Y-36665947D01*
X50408837Y-36777176D01*
X50426360Y-36805063D01*
X50542537Y-36921240D01*
X50681654Y-37008653D01*
X50836733Y-37062917D01*
X50836734Y-37062917D01*
X50836738Y-37062918D01*
X50999996Y-37081313D01*
X51000000Y-37081313D01*
X51000004Y-37081313D01*
X51163261Y-37062918D01*
X51163263Y-37062917D01*
X51163267Y-37062917D01*
X51318346Y-37008653D01*
X51434028Y-36935964D01*
X51501264Y-36916965D01*
X51565972Y-36935965D01*
X51681653Y-37008653D01*
X51709134Y-37018268D01*
X51731776Y-37026191D01*
X51788553Y-37066912D01*
X51814301Y-37131864D01*
X51800845Y-37200426D01*
X51752459Y-37250830D01*
X51731787Y-37260271D01*
X51724458Y-37262836D01*
X51724451Y-37262839D01*
X51585336Y-37350251D01*
X51469160Y-37466427D01*
X51381747Y-37605543D01*
X51357743Y-37674145D01*
X51317021Y-37730921D01*
X51252068Y-37756669D01*
X51240701Y-37757191D01*
X48521452Y-37757191D01*
X48521444Y-37757190D01*
X48507010Y-37757190D01*
X48440692Y-37757190D01*
X48440691Y-37757190D01*
X48379422Y-37782569D01*
X48343646Y-37818346D01*
X48298209Y-37863782D01*
X48236889Y-37897266D01*
X48210530Y-37900100D01*
X44601702Y-37900100D01*
X44534663Y-37880415D01*
X44488908Y-37827611D01*
X44478964Y-37758453D01*
X44507989Y-37694897D01*
X44514021Y-37688419D01*
X46061423Y-36141017D01*
X47626045Y-34576394D01*
X47687367Y-34542910D01*
X47757059Y-34547894D01*
X47812992Y-34589766D01*
X47837409Y-34655230D01*
X47830767Y-34705030D01*
X47784682Y-34836733D01*
X47784681Y-34836738D01*
X47766287Y-34999996D01*
X47766287Y-35000003D01*
X47784681Y-35163261D01*
X47784682Y-35163265D01*
X47838947Y-35318347D01*
X47850503Y-35336738D01*
X47926360Y-35457463D01*
X48042537Y-35573640D01*
X48181654Y-35661053D01*
X48336733Y-35715317D01*
X48336734Y-35715317D01*
X48336738Y-35715318D01*
X48499996Y-35733713D01*
X48500000Y-35733713D01*
X48500004Y-35733713D01*
X48663261Y-35715318D01*
X48663263Y-35715317D01*
X48663267Y-35715317D01*
X48818346Y-35661053D01*
X48957463Y-35573640D01*
X49073640Y-35457463D01*
X49161053Y-35318346D01*
X49215317Y-35163267D01*
X49215318Y-35163261D01*
X49233713Y-35000003D01*
X49233713Y-34999996D01*
X49215318Y-34836738D01*
X49215317Y-34836734D01*
X49215200Y-34836401D01*
X49161053Y-34681654D01*
X49073640Y-34542537D01*
X48957463Y-34426360D01*
X48914466Y-34399343D01*
X48818347Y-34338947D01*
X48663265Y-34284682D01*
X48663261Y-34284681D01*
X48500004Y-34266287D01*
X48499996Y-34266287D01*
X48336738Y-34284681D01*
X48336733Y-34284682D01*
X48205030Y-34330767D01*
X48135251Y-34334328D01*
X48074624Y-34299599D01*
X48042397Y-34237605D01*
X48048803Y-34168030D01*
X48076395Y-34126044D01*
X49819956Y-32382483D01*
X51590127Y-30612311D01*
X51651448Y-30578828D01*
X51718760Y-30582952D01*
G37*
%TD.AperFunction*%
%TA.AperFunction,Conductor*%
G36*
X49194687Y-22123010D02*
G01*
X49240442Y-22175814D01*
X49250386Y-22244972D01*
X49221361Y-22308528D01*
X49187184Y-22334659D01*
X49187550Y-22335242D01*
X49042536Y-22426360D01*
X48926360Y-22542536D01*
X48838947Y-22681652D01*
X48784682Y-22836734D01*
X48784681Y-22836738D01*
X48766287Y-22999996D01*
X48766287Y-23000003D01*
X48784681Y-23163261D01*
X48784682Y-23163265D01*
X48838947Y-23318347D01*
X48906817Y-23426360D01*
X48926360Y-23457463D01*
X49042537Y-23573640D01*
X49124821Y-23625343D01*
X49168767Y-23652956D01*
X49181654Y-23661053D01*
X49336733Y-23715317D01*
X49336734Y-23715317D01*
X49336738Y-23715318D01*
X49499996Y-23733713D01*
X49500000Y-23733713D01*
X49500004Y-23733713D01*
X49663261Y-23715318D01*
X49663263Y-23715317D01*
X49663267Y-23715317D01*
X49818346Y-23661053D01*
X49957463Y-23573640D01*
X50073640Y-23457463D01*
X50161053Y-23318346D01*
X50182102Y-23258189D01*
X50222823Y-23201414D01*
X50258188Y-23182102D01*
X50318346Y-23161053D01*
X50457463Y-23073640D01*
X50573640Y-22957463D01*
X50661053Y-22818346D01*
X50715317Y-22663267D01*
X50716593Y-22651942D01*
X50733713Y-22500003D01*
X50733713Y-22499996D01*
X50715318Y-22336738D01*
X50715317Y-22336734D01*
X50707396Y-22314098D01*
X50691363Y-22268278D01*
X50687803Y-22198501D01*
X50722532Y-22137873D01*
X50784525Y-22105646D01*
X50808406Y-22103325D01*
X51240700Y-22103325D01*
X51307739Y-22123010D01*
X51353494Y-22175814D01*
X51357742Y-22186371D01*
X51381746Y-22254972D01*
X51469159Y-22394088D01*
X51585336Y-22510265D01*
X51724453Y-22597678D01*
X51879532Y-22651942D01*
X51879533Y-22651942D01*
X51879537Y-22651943D01*
X52042795Y-22670338D01*
X52042799Y-22670338D01*
X52042801Y-22670338D01*
X52195416Y-22653142D01*
X52264238Y-22665196D01*
X52315617Y-22712545D01*
X52333300Y-22776362D01*
X52333300Y-27559815D01*
X52313615Y-27626854D01*
X52260811Y-27672609D01*
X52191653Y-27682553D01*
X52168347Y-27676857D01*
X52163269Y-27675080D01*
X52163261Y-27675078D01*
X52000004Y-27656684D01*
X51999996Y-27656684D01*
X51836738Y-27675078D01*
X51836734Y-27675079D01*
X51681652Y-27729344D01*
X51538596Y-27819233D01*
X51471359Y-27838233D01*
X51406652Y-27819233D01*
X51318346Y-27763747D01*
X51318347Y-27763747D01*
X51163265Y-27709482D01*
X51163261Y-27709481D01*
X51000004Y-27691087D01*
X50999996Y-27691087D01*
X50836738Y-27709481D01*
X50836734Y-27709482D01*
X50681652Y-27763747D01*
X50542536Y-27851160D01*
X50426360Y-27967336D01*
X50338947Y-28106452D01*
X50284682Y-28261534D01*
X50284681Y-28261538D01*
X50266287Y-28424796D01*
X50266287Y-28424803D01*
X50284681Y-28588061D01*
X50284682Y-28588065D01*
X50338947Y-28743147D01*
X50360329Y-28777176D01*
X50426360Y-28882263D01*
X50542537Y-28998440D01*
X50597792Y-29033159D01*
X50681647Y-29085849D01*
X50681654Y-29085853D01*
X50836733Y-29140117D01*
X50836734Y-29140117D01*
X50836738Y-29140118D01*
X50999996Y-29158513D01*
X51000000Y-29158513D01*
X51000004Y-29158513D01*
X51163261Y-29140118D01*
X51163263Y-29140117D01*
X51163267Y-29140117D01*
X51318346Y-29085853D01*
X51318349Y-29085850D01*
X51318353Y-29085849D01*
X51461404Y-28995964D01*
X51528640Y-28976963D01*
X51593348Y-28995963D01*
X51669683Y-29043928D01*
X51681651Y-29051448D01*
X51681651Y-29051449D01*
X51682183Y-29051635D01*
X51682479Y-29051847D01*
X51687927Y-29054471D01*
X51687467Y-29055424D01*
X51738961Y-29092352D01*
X51764713Y-29157303D01*
X51751262Y-29225866D01*
X51707209Y-29273672D01*
X51585337Y-29350249D01*
X51469159Y-29466427D01*
X51381746Y-29605543D01*
X51327481Y-29760625D01*
X51327480Y-29760629D01*
X51309086Y-29923887D01*
X51309086Y-29923894D01*
X51327480Y-30087152D01*
X51327481Y-30087156D01*
X51383737Y-30247927D01*
X51387298Y-30317706D01*
X51354376Y-30376562D01*
X50909814Y-30821124D01*
X50848491Y-30854609D01*
X50778799Y-30849625D01*
X50722866Y-30807753D01*
X50698449Y-30742289D01*
X50705091Y-30692490D01*
X50715317Y-30663267D01*
X50715955Y-30657604D01*
X50733713Y-30500003D01*
X50733713Y-30499996D01*
X50715318Y-30336738D01*
X50715317Y-30336734D01*
X50713895Y-30332671D01*
X50661053Y-30181654D01*
X50573640Y-30042537D01*
X50457463Y-29926360D01*
X50452588Y-29923297D01*
X50318347Y-29838947D01*
X50163265Y-29784682D01*
X50163261Y-29784681D01*
X50000004Y-29766287D01*
X49999996Y-29766287D01*
X49836738Y-29784681D01*
X49836734Y-29784682D01*
X49681652Y-29838947D01*
X49542536Y-29926360D01*
X49426360Y-30042536D01*
X49338948Y-30181651D01*
X49317896Y-30241812D01*
X49277173Y-30298587D01*
X49241812Y-30317896D01*
X49181651Y-30338948D01*
X49042536Y-30426360D01*
X48926360Y-30542536D01*
X48838947Y-30681652D01*
X48784682Y-30836734D01*
X48784681Y-30836738D01*
X48766287Y-30999996D01*
X48766287Y-31000003D01*
X48784681Y-31163261D01*
X48784682Y-31163265D01*
X48838947Y-31318347D01*
X48926360Y-31457463D01*
X49042537Y-31573640D01*
X49181654Y-31661053D01*
X49336733Y-31715317D01*
X49336734Y-31715317D01*
X49336738Y-31715318D01*
X49499996Y-31733713D01*
X49500000Y-31733713D01*
X49500004Y-31733713D01*
X49663261Y-31715318D01*
X49663262Y-31715317D01*
X49663267Y-31715317D01*
X49692489Y-31705091D01*
X49762265Y-31701529D01*
X49822893Y-31736257D01*
X49855121Y-31798250D01*
X49848718Y-31867825D01*
X49821124Y-31909814D01*
X44171959Y-37558981D01*
X44110636Y-37592466D01*
X44084278Y-37595300D01*
X43330734Y-37595300D01*
X43263695Y-37575615D01*
X43217940Y-37522811D01*
X43207996Y-37453653D01*
X43225740Y-37405328D01*
X43234342Y-37391637D01*
X43234343Y-37391636D01*
X43288607Y-37236557D01*
X43288608Y-37236551D01*
X43307003Y-37073293D01*
X43307003Y-37073286D01*
X43288608Y-36910028D01*
X43288607Y-36910024D01*
X43282139Y-36891540D01*
X43234343Y-36754944D01*
X43226088Y-36741807D01*
X43184677Y-36675901D01*
X43146930Y-36615827D01*
X43030753Y-36499650D01*
X42963613Y-36457463D01*
X42891637Y-36412237D01*
X42736555Y-36357972D01*
X42736551Y-36357971D01*
X42573294Y-36339577D01*
X42573286Y-36339577D01*
X42410028Y-36357971D01*
X42410024Y-36357972D01*
X42254942Y-36412237D01*
X42115826Y-36499650D01*
X41999650Y-36615826D01*
X41912237Y-36754942D01*
X41857972Y-36910024D01*
X41857971Y-36910028D01*
X41839577Y-37073286D01*
X41839577Y-37073293D01*
X41857971Y-37236551D01*
X41857972Y-37236555D01*
X41912237Y-37391637D01*
X41920840Y-37405328D01*
X41939840Y-37472565D01*
X41919472Y-37539400D01*
X41866204Y-37584614D01*
X41815846Y-37595300D01*
X39300629Y-37595300D01*
X39233590Y-37575615D01*
X39187835Y-37522811D01*
X39177891Y-37453653D01*
X39195636Y-37405328D01*
X39215851Y-37373155D01*
X39215854Y-37373149D01*
X39215855Y-37373148D01*
X39270119Y-37218069D01*
X39272155Y-37200000D01*
X39288515Y-37054805D01*
X39288515Y-37054799D01*
X39279070Y-36970975D01*
X39291124Y-36902153D01*
X39338473Y-36850774D01*
X39406083Y-36833149D01*
X39416174Y-36833871D01*
X39499998Y-36843316D01*
X39500000Y-36843316D01*
X39500004Y-36843316D01*
X39663261Y-36824921D01*
X39663263Y-36824920D01*
X39663267Y-36824920D01*
X39818346Y-36770656D01*
X39957463Y-36683243D01*
X40073640Y-36567066D01*
X40161053Y-36427949D01*
X40215317Y-36272870D01*
X40215318Y-36272864D01*
X40233713Y-36109606D01*
X40233713Y-36109599D01*
X40215317Y-35946336D01*
X40215317Y-35946333D01*
X40180123Y-35845756D01*
X40176561Y-35775977D01*
X40180117Y-35763860D01*
X40215317Y-35663267D01*
X40215318Y-35663259D01*
X40233713Y-35500003D01*
X40233713Y-35499996D01*
X40215318Y-35336738D01*
X40215317Y-35336734D01*
X40212733Y-35329350D01*
X40161053Y-35181654D01*
X40149498Y-35163265D01*
X40073639Y-35042536D01*
X39957463Y-34926360D01*
X39818347Y-34838947D01*
X39663265Y-34784682D01*
X39663261Y-34784681D01*
X39500004Y-34766287D01*
X39499996Y-34766287D01*
X39336738Y-34784681D01*
X39336734Y-34784682D01*
X39181652Y-34838947D01*
X39042536Y-34926360D01*
X38926360Y-35042536D01*
X38838947Y-35181652D01*
X38784682Y-35336734D01*
X38784681Y-35336738D01*
X38766287Y-35499996D01*
X38766287Y-35500002D01*
X38784682Y-35663266D01*
X38819876Y-35763848D01*
X38823437Y-35833627D01*
X38819876Y-35845754D01*
X38784682Y-35946336D01*
X38766287Y-36109600D01*
X38766287Y-36109607D01*
X38775731Y-36193430D01*
X38763676Y-36262252D01*
X38716327Y-36313631D01*
X38648716Y-36331255D01*
X38638628Y-36330533D01*
X38554806Y-36321089D01*
X38554798Y-36321089D01*
X38391540Y-36339483D01*
X38391536Y-36339484D01*
X38236454Y-36393749D01*
X38097338Y-36481162D01*
X37981162Y-36597338D01*
X37893749Y-36736454D01*
X37839484Y-36891536D01*
X37839483Y-36891540D01*
X37821089Y-37054798D01*
X37821089Y-37054805D01*
X37839483Y-37218063D01*
X37839484Y-37218067D01*
X37893749Y-37373149D01*
X37893752Y-37373155D01*
X37913968Y-37405328D01*
X37932969Y-37472564D01*
X37912602Y-37539399D01*
X37859334Y-37584614D01*
X37808975Y-37595300D01*
X35335996Y-37595300D01*
X35268957Y-37575615D01*
X35223202Y-37522811D01*
X35212776Y-37485182D01*
X35207318Y-37436735D01*
X35177056Y-37350251D01*
X35153053Y-37281654D01*
X35124715Y-37236555D01*
X35096073Y-37190971D01*
X35077073Y-37123735D01*
X35096073Y-37059028D01*
X35153053Y-36968346D01*
X35195954Y-36845737D01*
X35225312Y-36799014D01*
X35330986Y-36693341D01*
X35330989Y-36693339D01*
X35348427Y-36675901D01*
X35348428Y-36675901D01*
X35395322Y-36629007D01*
X35420700Y-36567738D01*
X35420700Y-36221446D01*
X35440385Y-36154407D01*
X35493189Y-36108652D01*
X35562347Y-36098708D01*
X35610671Y-36116451D01*
X35681654Y-36161053D01*
X35836733Y-36215317D01*
X35836734Y-36215317D01*
X35836738Y-36215318D01*
X35999996Y-36233713D01*
X36000000Y-36233713D01*
X36000004Y-36233713D01*
X36163261Y-36215318D01*
X36163263Y-36215317D01*
X36163267Y-36215317D01*
X36318346Y-36161053D01*
X36457463Y-36073640D01*
X36573640Y-35957463D01*
X36661053Y-35818346D01*
X36715317Y-35663267D01*
X36715318Y-35663259D01*
X36733713Y-35500003D01*
X36733713Y-35499996D01*
X36715318Y-35336738D01*
X36715317Y-35336734D01*
X36712733Y-35329350D01*
X36661053Y-35181654D01*
X36649498Y-35163265D01*
X36573639Y-35042536D01*
X36457463Y-34926360D01*
X36318347Y-34838947D01*
X36163265Y-34784682D01*
X36163261Y-34784681D01*
X36000004Y-34766287D01*
X35999996Y-34766287D01*
X35836738Y-34784681D01*
X35836734Y-34784682D01*
X35681652Y-34838947D01*
X35681648Y-34838949D01*
X35610671Y-34883547D01*
X35543434Y-34902547D01*
X35476599Y-34882179D01*
X35431386Y-34828911D01*
X35420700Y-34778553D01*
X35420700Y-33499996D01*
X39766287Y-33499996D01*
X39766287Y-33500003D01*
X39784681Y-33663261D01*
X39784682Y-33663265D01*
X39838947Y-33818347D01*
X39926360Y-33957463D01*
X40042537Y-34073640D01*
X40181654Y-34161053D01*
X40336733Y-34215317D01*
X40336734Y-34215317D01*
X40336738Y-34215318D01*
X40499996Y-34233713D01*
X40500000Y-34233713D01*
X40500004Y-34233713D01*
X40663261Y-34215318D01*
X40663263Y-34215317D01*
X40663267Y-34215317D01*
X40818346Y-34161053D01*
X40957463Y-34073640D01*
X41073640Y-33957463D01*
X41161053Y-33818346D01*
X41215317Y-33663267D01*
X41228123Y-33549614D01*
X41233713Y-33500003D01*
X41233713Y-33499996D01*
X41215318Y-33336738D01*
X41215317Y-33336734D01*
X41197974Y-33287171D01*
X41161053Y-33181654D01*
X41075311Y-33045196D01*
X42766287Y-33045196D01*
X42766287Y-33045203D01*
X42784681Y-33208461D01*
X42784682Y-33208465D01*
X42838947Y-33363547D01*
X42878740Y-33426876D01*
X42926360Y-33502663D01*
X43042537Y-33618840D01*
X43181654Y-33706253D01*
X43336733Y-33760517D01*
X43336734Y-33760517D01*
X43336738Y-33760518D01*
X43499996Y-33778913D01*
X43500000Y-33778913D01*
X43500004Y-33778913D01*
X43663261Y-33760518D01*
X43663263Y-33760517D01*
X43663267Y-33760517D01*
X43818346Y-33706253D01*
X43957463Y-33618840D01*
X44073640Y-33502663D01*
X44161053Y-33363546D01*
X44215317Y-33208467D01*
X44218338Y-33181654D01*
X44233713Y-33045203D01*
X44233713Y-33045196D01*
X44215318Y-32881938D01*
X44215317Y-32881934D01*
X44212941Y-32875145D01*
X44161053Y-32726854D01*
X44155990Y-32718797D01*
X44090415Y-32614434D01*
X44073640Y-32587737D01*
X43957463Y-32471560D01*
X43818347Y-32384147D01*
X43663265Y-32329882D01*
X43663261Y-32329881D01*
X43500004Y-32311487D01*
X43499996Y-32311487D01*
X43336738Y-32329881D01*
X43336734Y-32329882D01*
X43181652Y-32384147D01*
X43042536Y-32471560D01*
X42926360Y-32587736D01*
X42838947Y-32726852D01*
X42784682Y-32881934D01*
X42784681Y-32881938D01*
X42766287Y-33045196D01*
X41075311Y-33045196D01*
X41073640Y-33042537D01*
X40957463Y-32926360D01*
X40886766Y-32881938D01*
X40818347Y-32838947D01*
X40663265Y-32784682D01*
X40663261Y-32784681D01*
X40500004Y-32766287D01*
X40499996Y-32766287D01*
X40336738Y-32784681D01*
X40336734Y-32784682D01*
X40181652Y-32838947D01*
X40042536Y-32926360D01*
X39926360Y-33042536D01*
X39838947Y-33181652D01*
X39784682Y-33336734D01*
X39784681Y-33336738D01*
X39766287Y-33499996D01*
X35420700Y-33499996D01*
X35420700Y-32499996D01*
X36266287Y-32499996D01*
X36266287Y-32500003D01*
X36284681Y-32663261D01*
X36284682Y-32663265D01*
X36338947Y-32818347D01*
X36406817Y-32926360D01*
X36426360Y-32957463D01*
X36542537Y-33073640D01*
X36681654Y-33161053D01*
X36836733Y-33215317D01*
X36836734Y-33215317D01*
X36836738Y-33215318D01*
X36999996Y-33233713D01*
X37000000Y-33233713D01*
X37000004Y-33233713D01*
X37163261Y-33215318D01*
X37163263Y-33215317D01*
X37163267Y-33215317D01*
X37318346Y-33161053D01*
X37457463Y-33073640D01*
X37573640Y-32957463D01*
X37661053Y-32818346D01*
X37715317Y-32663267D01*
X37715318Y-32663261D01*
X37733713Y-32500003D01*
X37733713Y-32499996D01*
X37715318Y-32336738D01*
X37715317Y-32336734D01*
X37712919Y-32329882D01*
X37661053Y-32181654D01*
X37573640Y-32042537D01*
X37457463Y-31926360D01*
X37431130Y-31909814D01*
X37318347Y-31838947D01*
X37163265Y-31784682D01*
X37163261Y-31784681D01*
X37000004Y-31766287D01*
X36999996Y-31766287D01*
X36836738Y-31784681D01*
X36836734Y-31784682D01*
X36681652Y-31838947D01*
X36542536Y-31926360D01*
X36426360Y-32042536D01*
X36338947Y-32181652D01*
X36284682Y-32336734D01*
X36284681Y-32336738D01*
X36266287Y-32499996D01*
X35420700Y-32499996D01*
X35420700Y-30999996D01*
X38123487Y-30999996D01*
X38123487Y-31000003D01*
X38141881Y-31163261D01*
X38141882Y-31163265D01*
X38196147Y-31318347D01*
X38283560Y-31457463D01*
X38399737Y-31573640D01*
X38538854Y-31661053D01*
X38693933Y-31715317D01*
X38693934Y-31715317D01*
X38693938Y-31715318D01*
X38857196Y-31733713D01*
X38857200Y-31733713D01*
X38857204Y-31733713D01*
X39020461Y-31715318D01*
X39020463Y-31715317D01*
X39020467Y-31715317D01*
X39175546Y-31661053D01*
X39314663Y-31573640D01*
X39430840Y-31457463D01*
X39518253Y-31318346D01*
X39572517Y-31163267D01*
X39572518Y-31163261D01*
X39590913Y-31000003D01*
X39590913Y-30999996D01*
X39572518Y-30836738D01*
X39572517Y-30836734D01*
X39562376Y-30807753D01*
X39518253Y-30681654D01*
X39503141Y-30657604D01*
X39453643Y-30578828D01*
X39430840Y-30542537D01*
X39314663Y-30426360D01*
X39175547Y-30338947D01*
X39020465Y-30284682D01*
X39020461Y-30284681D01*
X38857204Y-30266287D01*
X38857196Y-30266287D01*
X38693938Y-30284681D01*
X38693934Y-30284682D01*
X38538852Y-30338947D01*
X38399736Y-30426360D01*
X38283560Y-30542536D01*
X38196147Y-30681652D01*
X38141882Y-30836734D01*
X38141881Y-30836738D01*
X38123487Y-30999996D01*
X35420700Y-30999996D01*
X35420700Y-30366412D01*
X35440385Y-30299373D01*
X35457019Y-30278731D01*
X36691826Y-29043924D01*
X42085215Y-29043924D01*
X42085215Y-29043931D01*
X42103609Y-29207189D01*
X42103610Y-29207193D01*
X42157875Y-29362275D01*
X42223319Y-29466427D01*
X42245288Y-29501391D01*
X42361465Y-29617568D01*
X42500582Y-29704981D01*
X42655661Y-29759245D01*
X42655662Y-29759245D01*
X42655666Y-29759246D01*
X42818924Y-29777641D01*
X42818928Y-29777641D01*
X42818932Y-29777641D01*
X42982189Y-29759246D01*
X42982191Y-29759245D01*
X42982195Y-29759245D01*
X43137274Y-29704981D01*
X43276391Y-29617568D01*
X43392568Y-29501391D01*
X43479981Y-29362274D01*
X43534245Y-29207195D01*
X43537123Y-29181652D01*
X43552641Y-29043931D01*
X43552641Y-29043924D01*
X43534246Y-28880666D01*
X43534245Y-28880662D01*
X43533869Y-28879588D01*
X43479981Y-28725582D01*
X43475011Y-28717673D01*
X43444271Y-28668749D01*
X43392568Y-28586465D01*
X43276391Y-28470288D01*
X43137275Y-28382875D01*
X42982193Y-28328610D01*
X42982189Y-28328609D01*
X42818932Y-28310215D01*
X42818924Y-28310215D01*
X42655666Y-28328609D01*
X42655662Y-28328610D01*
X42500580Y-28382875D01*
X42361464Y-28470288D01*
X42245288Y-28586464D01*
X42157875Y-28725580D01*
X42103610Y-28880662D01*
X42103609Y-28880666D01*
X42085215Y-29043924D01*
X36691826Y-29043924D01*
X38735754Y-26999996D01*
X39766287Y-26999996D01*
X39766287Y-27000003D01*
X39784681Y-27163261D01*
X39784682Y-27163265D01*
X39838947Y-27318347D01*
X39850503Y-27336738D01*
X39926360Y-27457463D01*
X40042537Y-27573640D01*
X40066927Y-27588965D01*
X40174700Y-27656684D01*
X40181654Y-27661053D01*
X40336733Y-27715317D01*
X40336734Y-27715317D01*
X40336738Y-27715318D01*
X40499996Y-27733713D01*
X40500000Y-27733713D01*
X40500004Y-27733713D01*
X40663261Y-27715318D01*
X40663263Y-27715317D01*
X40663267Y-27715317D01*
X40818346Y-27661053D01*
X40957463Y-27573640D01*
X41073640Y-27457463D01*
X41161053Y-27318346D01*
X41215317Y-27163267D01*
X41215790Y-27159068D01*
X41233713Y-27000003D01*
X41233713Y-26999996D01*
X47766287Y-26999996D01*
X47766287Y-27000003D01*
X47784681Y-27163261D01*
X47784682Y-27163265D01*
X47838947Y-27318347D01*
X47850503Y-27336738D01*
X47926360Y-27457463D01*
X48042537Y-27573640D01*
X48066927Y-27588965D01*
X48174700Y-27656684D01*
X48181654Y-27661053D01*
X48336733Y-27715317D01*
X48336734Y-27715317D01*
X48336738Y-27715318D01*
X48499996Y-27733713D01*
X48500000Y-27733713D01*
X48500004Y-27733713D01*
X48663261Y-27715318D01*
X48663263Y-27715317D01*
X48663267Y-27715317D01*
X48818346Y-27661053D01*
X48957463Y-27573640D01*
X49073640Y-27457463D01*
X49161053Y-27318346D01*
X49215317Y-27163267D01*
X49215790Y-27159068D01*
X49233713Y-27000003D01*
X49233713Y-26999996D01*
X49215318Y-26836738D01*
X49215317Y-26836734D01*
X49197103Y-26784682D01*
X49161053Y-26681654D01*
X49073640Y-26542537D01*
X48957463Y-26426360D01*
X48818347Y-26338947D01*
X48663265Y-26284682D01*
X48663261Y-26284681D01*
X48500004Y-26266287D01*
X48499996Y-26266287D01*
X48336738Y-26284681D01*
X48336734Y-26284682D01*
X48181652Y-26338947D01*
X48042536Y-26426360D01*
X47926360Y-26542536D01*
X47838947Y-26681652D01*
X47784682Y-26836734D01*
X47784681Y-26836738D01*
X47766287Y-26999996D01*
X41233713Y-26999996D01*
X41215318Y-26836738D01*
X41215317Y-26836734D01*
X41197103Y-26784682D01*
X41161053Y-26681654D01*
X41073640Y-26542537D01*
X40957463Y-26426360D01*
X40818347Y-26338947D01*
X40663265Y-26284682D01*
X40663261Y-26284681D01*
X40500004Y-26266287D01*
X40499996Y-26266287D01*
X40336738Y-26284681D01*
X40336734Y-26284682D01*
X40181652Y-26338947D01*
X40042536Y-26426360D01*
X39926360Y-26542536D01*
X39838947Y-26681652D01*
X39784682Y-26836734D01*
X39784681Y-26836738D01*
X39766287Y-26999996D01*
X38735754Y-26999996D01*
X41235754Y-24499996D01*
X43476387Y-24499996D01*
X43476387Y-24500003D01*
X43494781Y-24663261D01*
X43494782Y-24663265D01*
X43549047Y-24818347D01*
X43625280Y-24939670D01*
X43636460Y-24957463D01*
X43752637Y-25073640D01*
X43891754Y-25161053D01*
X44046833Y-25215317D01*
X44046834Y-25215317D01*
X44046838Y-25215318D01*
X44210096Y-25233713D01*
X44210100Y-25233713D01*
X44210104Y-25233713D01*
X44373361Y-25215318D01*
X44373363Y-25215317D01*
X44373367Y-25215317D01*
X44528446Y-25161053D01*
X44667563Y-25073640D01*
X44783740Y-24957463D01*
X44871153Y-24818346D01*
X44925417Y-24663267D01*
X44925418Y-24663261D01*
X44943813Y-24500003D01*
X44943813Y-24499996D01*
X44925418Y-24336738D01*
X44925417Y-24336734D01*
X44918983Y-24318347D01*
X44871153Y-24181654D01*
X44859598Y-24163265D01*
X44803283Y-24073640D01*
X44783740Y-24042537D01*
X44667563Y-23926360D01*
X44653200Y-23917335D01*
X44528447Y-23838947D01*
X44373365Y-23784682D01*
X44373361Y-23784681D01*
X44210104Y-23766287D01*
X44210096Y-23766287D01*
X44046838Y-23784681D01*
X44046834Y-23784682D01*
X43891752Y-23838947D01*
X43752636Y-23926360D01*
X43636460Y-24042536D01*
X43549047Y-24181652D01*
X43494782Y-24336734D01*
X43494781Y-24336738D01*
X43476387Y-24499996D01*
X41235754Y-24499996D01*
X43596106Y-22139644D01*
X43657429Y-22106159D01*
X43683787Y-22103325D01*
X49127648Y-22103325D01*
X49194687Y-22123010D01*
G37*
%TD.AperFunction*%
%TA.AperFunction,Conductor*%
G36*
X49736457Y-13186385D02*
G01*
X49782212Y-13239189D01*
X49792156Y-13308347D01*
X49786460Y-13331653D01*
X49784683Y-13336730D01*
X49784681Y-13336738D01*
X49766287Y-13499996D01*
X49766287Y-13500003D01*
X49784681Y-13663261D01*
X49784682Y-13663265D01*
X49838947Y-13818347D01*
X49838948Y-13818348D01*
X49926360Y-13957463D01*
X50042537Y-14073640D01*
X50124821Y-14125343D01*
X50177775Y-14158616D01*
X50181654Y-14161053D01*
X50336733Y-14215317D01*
X50336734Y-14215317D01*
X50336738Y-14215318D01*
X50499996Y-14233713D01*
X50500000Y-14233713D01*
X50500004Y-14233713D01*
X50663261Y-14215318D01*
X50663263Y-14215317D01*
X50663267Y-14215317D01*
X50818346Y-14161053D01*
X50957463Y-14073640D01*
X51073640Y-13957463D01*
X51161053Y-13818346D01*
X51215317Y-13663267D01*
X51215567Y-13661053D01*
X51228699Y-13544501D01*
X51255765Y-13480087D01*
X51313360Y-13440532D01*
X51383197Y-13438394D01*
X51439600Y-13470703D01*
X51542537Y-13573640D01*
X51681654Y-13661053D01*
X51741811Y-13682102D01*
X51798586Y-13722823D01*
X51817897Y-13758189D01*
X51838946Y-13818345D01*
X51838948Y-13818348D01*
X51926360Y-13957463D01*
X52042537Y-14073640D01*
X52181654Y-14161053D01*
X52250253Y-14185056D01*
X52307030Y-14225777D01*
X52332778Y-14290729D01*
X52333300Y-14302098D01*
X52333300Y-19559815D01*
X52313615Y-19626854D01*
X52260811Y-19672609D01*
X52191653Y-19682553D01*
X52168347Y-19676857D01*
X52163269Y-19675080D01*
X52163261Y-19675078D01*
X52000004Y-19656684D01*
X51999996Y-19656684D01*
X51836738Y-19675078D01*
X51836734Y-19675079D01*
X51681652Y-19729344D01*
X51538596Y-19819233D01*
X51471359Y-19838233D01*
X51406652Y-19819233D01*
X51318346Y-19763747D01*
X51318347Y-19763747D01*
X51163265Y-19709482D01*
X51163261Y-19709481D01*
X51000004Y-19691087D01*
X50999996Y-19691087D01*
X50836738Y-19709481D01*
X50836734Y-19709482D01*
X50681652Y-19763747D01*
X50542536Y-19851160D01*
X50426360Y-19967336D01*
X50338947Y-20106452D01*
X50284682Y-20261534D01*
X50284681Y-20261538D01*
X50266287Y-20424796D01*
X50266287Y-20424803D01*
X50284681Y-20588061D01*
X50284682Y-20588065D01*
X50338947Y-20743147D01*
X50360161Y-20776908D01*
X50426360Y-20882263D01*
X50542537Y-20998440D01*
X50612715Y-21042536D01*
X50681647Y-21085849D01*
X50681654Y-21085853D01*
X50836733Y-21140117D01*
X50836734Y-21140117D01*
X50836738Y-21140118D01*
X50999996Y-21158513D01*
X51000000Y-21158513D01*
X51000004Y-21158513D01*
X51163261Y-21140118D01*
X51163263Y-21140117D01*
X51163267Y-21140117D01*
X51318346Y-21085853D01*
X51318349Y-21085850D01*
X51318353Y-21085849D01*
X51461404Y-20995964D01*
X51528640Y-20976963D01*
X51593348Y-20995963D01*
X51667469Y-21042537D01*
X51681651Y-21051448D01*
X51681653Y-21051450D01*
X51695206Y-21056192D01*
X51751982Y-21096912D01*
X51777731Y-21161865D01*
X51764276Y-21230427D01*
X51720225Y-21278227D01*
X51585341Y-21362980D01*
X51585335Y-21362985D01*
X51469159Y-21479161D01*
X51381746Y-21618277D01*
X51357742Y-21686879D01*
X51317020Y-21743655D01*
X51252067Y-21769403D01*
X51240700Y-21769925D01*
X50039250Y-21769925D01*
X50025365Y-21769145D01*
X50000001Y-21766287D01*
X49999999Y-21766287D01*
X49974635Y-21769145D01*
X49960750Y-21769925D01*
X43610976Y-21769925D01*
X43610968Y-21769924D01*
X43596534Y-21769924D01*
X43530216Y-21769924D01*
X43526049Y-21769924D01*
X43459010Y-21750239D01*
X43413255Y-21697435D01*
X43403311Y-21628277D01*
X43432336Y-21564721D01*
X43438368Y-21558243D01*
X43443894Y-21552717D01*
X43531307Y-21413600D01*
X43585571Y-21258521D01*
X43585572Y-21258515D01*
X43603967Y-21095257D01*
X43603967Y-21095250D01*
X43585572Y-20931992D01*
X43585571Y-20931988D01*
X43585297Y-20931206D01*
X43531307Y-20776908D01*
X43443894Y-20637791D01*
X43327717Y-20521614D01*
X43188601Y-20434201D01*
X43033519Y-20379936D01*
X43033515Y-20379935D01*
X42870258Y-20361541D01*
X42870250Y-20361541D01*
X42706992Y-20379935D01*
X42706988Y-20379936D01*
X42551906Y-20434201D01*
X42412790Y-20521614D01*
X42296614Y-20637790D01*
X42209201Y-20776906D01*
X42154936Y-20931988D01*
X42154935Y-20931992D01*
X42136541Y-21095250D01*
X42136541Y-21095257D01*
X42154935Y-21258515D01*
X42154936Y-21258519D01*
X42209201Y-21413601D01*
X42283095Y-21531202D01*
X42296614Y-21552717D01*
X42412791Y-21668894D01*
X42495075Y-21720597D01*
X42542250Y-21750239D01*
X42551908Y-21756307D01*
X42706987Y-21810571D01*
X42706988Y-21810571D01*
X42706992Y-21810572D01*
X42870250Y-21828967D01*
X42870254Y-21828967D01*
X42870258Y-21828967D01*
X43033515Y-21810572D01*
X43033516Y-21810572D01*
X43033517Y-21810571D01*
X43033521Y-21810571D01*
X43167040Y-21763850D01*
X43236817Y-21760290D01*
X43297445Y-21795019D01*
X43329672Y-21857012D01*
X43323267Y-21926587D01*
X43295674Y-21968574D01*
X41391885Y-23872363D01*
X41330562Y-23905848D01*
X41260870Y-23900864D01*
X41204937Y-23858992D01*
X41180520Y-23793528D01*
X41187163Y-23743727D01*
X41215316Y-23663270D01*
X41215318Y-23663261D01*
X41233713Y-23500003D01*
X41233713Y-23499996D01*
X41215318Y-23336738D01*
X41215317Y-23336734D01*
X41208883Y-23318347D01*
X41161053Y-23181654D01*
X41149498Y-23163265D01*
X41093183Y-23073640D01*
X41073640Y-23042537D01*
X40957463Y-22926360D01*
X40818347Y-22838947D01*
X40663265Y-22784682D01*
X40663261Y-22784681D01*
X40500004Y-22766287D01*
X40499996Y-22766287D01*
X40336738Y-22784681D01*
X40336734Y-22784682D01*
X40181652Y-22838947D01*
X40042536Y-22926360D01*
X39926360Y-23042536D01*
X39838947Y-23181652D01*
X39784682Y-23336734D01*
X39784681Y-23336738D01*
X39766287Y-23499996D01*
X39766287Y-23500003D01*
X39784681Y-23663261D01*
X39784682Y-23663265D01*
X39838947Y-23818347D01*
X39923436Y-23952809D01*
X39926360Y-23957463D01*
X40042537Y-24073640D01*
X40101123Y-24110452D01*
X40133070Y-24130526D01*
X40181654Y-24161053D01*
X40336733Y-24215317D01*
X40336734Y-24215317D01*
X40336738Y-24215318D01*
X40499996Y-24233713D01*
X40500000Y-24233713D01*
X40500004Y-24233713D01*
X40663261Y-24215318D01*
X40663263Y-24215317D01*
X40663267Y-24215317D01*
X40743727Y-24187162D01*
X40813506Y-24183601D01*
X40874133Y-24218329D01*
X40906361Y-24280322D01*
X40899956Y-24349898D01*
X40872363Y-24391885D01*
X35327581Y-29936668D01*
X35266258Y-29970153D01*
X35196566Y-29965169D01*
X35140633Y-29923297D01*
X35116216Y-29857833D01*
X35115900Y-29848987D01*
X35115900Y-26671212D01*
X35135585Y-26604173D01*
X35152219Y-26583531D01*
X35292004Y-26443746D01*
X36210037Y-26443746D01*
X36210037Y-26443753D01*
X36228431Y-26607011D01*
X36228432Y-26607015D01*
X36282697Y-26762097D01*
X36339225Y-26852060D01*
X36370110Y-26901213D01*
X36486287Y-27017390D01*
X36625404Y-27104803D01*
X36780483Y-27159067D01*
X36780484Y-27159067D01*
X36780488Y-27159068D01*
X36943746Y-27177463D01*
X36943750Y-27177463D01*
X36943754Y-27177463D01*
X37107011Y-27159068D01*
X37107013Y-27159067D01*
X37107017Y-27159067D01*
X37262096Y-27104803D01*
X37401213Y-27017390D01*
X37517390Y-26901213D01*
X37604803Y-26762096D01*
X37659067Y-26607017D01*
X37659068Y-26607011D01*
X37677463Y-26443753D01*
X37677463Y-26443746D01*
X37659068Y-26280488D01*
X37659067Y-26280484D01*
X37654099Y-26266287D01*
X37604803Y-26125404D01*
X37517390Y-25986287D01*
X37401213Y-25870110D01*
X37370351Y-25850718D01*
X37262097Y-25782697D01*
X37107015Y-25728432D01*
X37107011Y-25728431D01*
X36943754Y-25710037D01*
X36943746Y-25710037D01*
X36780488Y-25728431D01*
X36780484Y-25728432D01*
X36625402Y-25782697D01*
X36486286Y-25870110D01*
X36370110Y-25986286D01*
X36282697Y-26125402D01*
X36228432Y-26280484D01*
X36228431Y-26280488D01*
X36210037Y-26443746D01*
X35292004Y-26443746D01*
X42735754Y-18999996D01*
X47766287Y-18999996D01*
X47766287Y-19000003D01*
X47784681Y-19163261D01*
X47784682Y-19163265D01*
X47838947Y-19318347D01*
X47906399Y-19425696D01*
X47926360Y-19457463D01*
X48042537Y-19573640D01*
X48066927Y-19588965D01*
X48174700Y-19656684D01*
X48181654Y-19661053D01*
X48336733Y-19715317D01*
X48336734Y-19715317D01*
X48336738Y-19715318D01*
X48499996Y-19733713D01*
X48500000Y-19733713D01*
X48500004Y-19733713D01*
X48663261Y-19715318D01*
X48663263Y-19715317D01*
X48663267Y-19715317D01*
X48818346Y-19661053D01*
X48957463Y-19573640D01*
X49073640Y-19457463D01*
X49161053Y-19318346D01*
X49215317Y-19163267D01*
X49221617Y-19107354D01*
X49233713Y-19000003D01*
X49233713Y-18999996D01*
X49215318Y-18836738D01*
X49215317Y-18836734D01*
X49195347Y-18779663D01*
X49161053Y-18681654D01*
X49160249Y-18680375D01*
X49090278Y-18569016D01*
X49073640Y-18542537D01*
X48957463Y-18426360D01*
X48916961Y-18400911D01*
X48818347Y-18338947D01*
X48663265Y-18284682D01*
X48663261Y-18284681D01*
X48500004Y-18266287D01*
X48499996Y-18266287D01*
X48336738Y-18284681D01*
X48336734Y-18284682D01*
X48181652Y-18338947D01*
X48042536Y-18426360D01*
X47926360Y-18542536D01*
X47838947Y-18681652D01*
X47784682Y-18836734D01*
X47784681Y-18836738D01*
X47766287Y-18999996D01*
X42735754Y-18999996D01*
X46735754Y-14999996D01*
X48766287Y-14999996D01*
X48766287Y-15000003D01*
X48784681Y-15163261D01*
X48784682Y-15163265D01*
X48838947Y-15318347D01*
X48910704Y-15432547D01*
X48926360Y-15457463D01*
X49042537Y-15573640D01*
X49060179Y-15584725D01*
X49159269Y-15646988D01*
X49181654Y-15661053D01*
X49336733Y-15715317D01*
X49336734Y-15715317D01*
X49336738Y-15715318D01*
X49499996Y-15733713D01*
X49500000Y-15733713D01*
X49500004Y-15733713D01*
X49663261Y-15715318D01*
X49663263Y-15715317D01*
X49663267Y-15715317D01*
X49818346Y-15661053D01*
X49957463Y-15573640D01*
X50073640Y-15457463D01*
X50161053Y-15318346D01*
X50215317Y-15163267D01*
X50219868Y-15122876D01*
X50233713Y-15000003D01*
X50233713Y-14999996D01*
X50215318Y-14836738D01*
X50215317Y-14836734D01*
X50202372Y-14799740D01*
X50161053Y-14681654D01*
X50073640Y-14542537D01*
X49957463Y-14426360D01*
X49818347Y-14338947D01*
X49663265Y-14284682D01*
X49663261Y-14284681D01*
X49500004Y-14266287D01*
X49499996Y-14266287D01*
X49336738Y-14284681D01*
X49336734Y-14284682D01*
X49181652Y-14338947D01*
X49042536Y-14426360D01*
X48926360Y-14542536D01*
X48838947Y-14681652D01*
X48784682Y-14836734D01*
X48784681Y-14836738D01*
X48766287Y-14999996D01*
X46735754Y-14999996D01*
X48532731Y-13203019D01*
X48594054Y-13169534D01*
X48620412Y-13166700D01*
X49669418Y-13166700D01*
X49736457Y-13186385D01*
G37*
%TD.AperFunction*%
%TD*%
M02*
