%TF.GenerationSoftware,KiCad,Pcbnew,8.0.6*%
%TF.CreationDate,2024-11-27T12:31:09-05:00*%
%TF.ProjectId,CAN Board,43414e20-426f-4617-9264-2e6b69636164,rev?*%
%TF.SameCoordinates,Original*%
%TF.FileFunction,Soldermask,Top*%
%TF.FilePolarity,Negative*%
%FSLAX46Y46*%
G04 Gerber Fmt 4.6, Leading zero omitted, Abs format (unit mm)*
G04 Created by KiCad (PCBNEW 8.0.6) date 2024-11-27 12:31:09*
%MOMM*%
%LPD*%
G01*
G04 APERTURE LIST*
G04 APERTURE END LIST*
G36*
X56451537Y-60540224D02*
G01*
X56516421Y-60583579D01*
X56559776Y-60648463D01*
X56575000Y-60725000D01*
X56575000Y-61275000D01*
X56559776Y-61351537D01*
X56516421Y-61416421D01*
X56451537Y-61459776D01*
X56375000Y-61475000D01*
X55975000Y-61475000D01*
X55898463Y-61459776D01*
X55833579Y-61416421D01*
X55790224Y-61351537D01*
X55775000Y-61275000D01*
X55775000Y-60725000D01*
X55790224Y-60648463D01*
X55833579Y-60583579D01*
X55898463Y-60540224D01*
X55975000Y-60525000D01*
X56375000Y-60525000D01*
X56451537Y-60540224D01*
G37*
G36*
X58101537Y-60540224D02*
G01*
X58166421Y-60583579D01*
X58209776Y-60648463D01*
X58225000Y-60725000D01*
X58225000Y-61275000D01*
X58209776Y-61351537D01*
X58166421Y-61416421D01*
X58101537Y-61459776D01*
X58025000Y-61475000D01*
X57625000Y-61475000D01*
X57548463Y-61459776D01*
X57483579Y-61416421D01*
X57440224Y-61351537D01*
X57425000Y-61275000D01*
X57425000Y-60725000D01*
X57440224Y-60648463D01*
X57483579Y-60583579D01*
X57548463Y-60540224D01*
X57625000Y-60525000D01*
X58025000Y-60525000D01*
X58101537Y-60540224D01*
G37*
G36*
X28487664Y-59806602D02*
G01*
X28650000Y-59878878D01*
X28793761Y-59983327D01*
X28912664Y-60115383D01*
X29001514Y-60269274D01*
X29056425Y-60438275D01*
X29075000Y-60615000D01*
X29056425Y-60791725D01*
X29001514Y-60960726D01*
X28912664Y-61114617D01*
X28793761Y-61246673D01*
X28650000Y-61351122D01*
X28487664Y-61423398D01*
X28313849Y-61460344D01*
X28136151Y-61460344D01*
X27962336Y-61423398D01*
X27800000Y-61351122D01*
X27656239Y-61246673D01*
X27537336Y-61114617D01*
X27448486Y-60960726D01*
X27393575Y-60791725D01*
X27375000Y-60615000D01*
X27393575Y-60438275D01*
X27448486Y-60269274D01*
X27537336Y-60115383D01*
X27656239Y-59983327D01*
X27800000Y-59878878D01*
X27962336Y-59806602D01*
X28136151Y-59769656D01*
X28313849Y-59769656D01*
X28487664Y-59806602D01*
G37*
G36*
X31027664Y-59806602D02*
G01*
X31190000Y-59878878D01*
X31333761Y-59983327D01*
X31452664Y-60115383D01*
X31541514Y-60269274D01*
X31596425Y-60438275D01*
X31615000Y-60615000D01*
X31596425Y-60791725D01*
X31541514Y-60960726D01*
X31452664Y-61114617D01*
X31333761Y-61246673D01*
X31190000Y-61351122D01*
X31027664Y-61423398D01*
X30853849Y-61460344D01*
X30676151Y-61460344D01*
X30502336Y-61423398D01*
X30340000Y-61351122D01*
X30196239Y-61246673D01*
X30077336Y-61114617D01*
X29988486Y-60960726D01*
X29933575Y-60791725D01*
X29915000Y-60615000D01*
X29933575Y-60438275D01*
X29988486Y-60269274D01*
X30077336Y-60115383D01*
X30196239Y-59983327D01*
X30340000Y-59878878D01*
X30502336Y-59806602D01*
X30676151Y-59769656D01*
X30853849Y-59769656D01*
X31027664Y-59806602D01*
G37*
G36*
X38307871Y-59167946D02*
G01*
X38501456Y-59242941D01*
X38677964Y-59352231D01*
X38831385Y-59492092D01*
X38956494Y-59657764D01*
X39049031Y-59843603D01*
X39105845Y-60043282D01*
X39125000Y-60250000D01*
X39105845Y-60456718D01*
X39049031Y-60656397D01*
X38956494Y-60842236D01*
X38831385Y-61007908D01*
X38677964Y-61147769D01*
X38501456Y-61257059D01*
X38307871Y-61332054D01*
X38103802Y-61370201D01*
X37896198Y-61370201D01*
X37692129Y-61332054D01*
X37498544Y-61257059D01*
X37322036Y-61147769D01*
X37168615Y-61007908D01*
X37043506Y-60842236D01*
X36950969Y-60656397D01*
X36894155Y-60456718D01*
X36875000Y-60250000D01*
X36894155Y-60043282D01*
X36950969Y-59843603D01*
X37043506Y-59657764D01*
X37168615Y-59492092D01*
X37322036Y-59352231D01*
X37498544Y-59242941D01*
X37692129Y-59167946D01*
X37896198Y-59129799D01*
X38103802Y-59129799D01*
X38307871Y-59167946D01*
G37*
G36*
X43336104Y-59842127D02*
G01*
X43409099Y-59890901D01*
X43457873Y-59963896D01*
X43475000Y-60050000D01*
X43475000Y-60500000D01*
X43457873Y-60586104D01*
X43409099Y-60659099D01*
X43336104Y-60707873D01*
X43250000Y-60725000D01*
X42750000Y-60725000D01*
X42663896Y-60707873D01*
X42590901Y-60659099D01*
X42542127Y-60586104D01*
X42525000Y-60500000D01*
X42525000Y-60050000D01*
X42542127Y-59963896D01*
X42590901Y-59890901D01*
X42663896Y-59842127D01*
X42750000Y-59825000D01*
X43250000Y-59825000D01*
X43336104Y-59842127D01*
G37*
G36*
X60762664Y-58956602D02*
G01*
X60925000Y-59028878D01*
X61068761Y-59133327D01*
X61187664Y-59265383D01*
X61276514Y-59419274D01*
X61331425Y-59588275D01*
X61350000Y-59765000D01*
X61331425Y-59941725D01*
X61276514Y-60110726D01*
X61187664Y-60264617D01*
X61068761Y-60396673D01*
X60925000Y-60501122D01*
X60762664Y-60573398D01*
X60588849Y-60610344D01*
X60411151Y-60610344D01*
X60237336Y-60573398D01*
X60075000Y-60501122D01*
X59931239Y-60396673D01*
X59812336Y-60264617D01*
X59723486Y-60110726D01*
X59668575Y-59941725D01*
X59650000Y-59765000D01*
X59668575Y-59588275D01*
X59723486Y-59419274D01*
X59812336Y-59265383D01*
X59931239Y-59133327D01*
X60075000Y-59028878D01*
X60237336Y-58956602D01*
X60411151Y-58919656D01*
X60588849Y-58919656D01*
X60762664Y-58956602D01*
G37*
G36*
X45536104Y-59042127D02*
G01*
X45609099Y-59090901D01*
X45657873Y-59163896D01*
X45675000Y-59250000D01*
X45675000Y-59750000D01*
X45657873Y-59836104D01*
X45609099Y-59909099D01*
X45536104Y-59957873D01*
X45450000Y-59975000D01*
X45000000Y-59975000D01*
X44913896Y-59957873D01*
X44840901Y-59909099D01*
X44792127Y-59836104D01*
X44775000Y-59750000D01*
X44775000Y-59250000D01*
X44792127Y-59163896D01*
X44840901Y-59090901D01*
X44913896Y-59042127D01*
X45000000Y-59025000D01*
X45450000Y-59025000D01*
X45536104Y-59042127D01*
G37*
G36*
X47086104Y-59042127D02*
G01*
X47159099Y-59090901D01*
X47207873Y-59163896D01*
X47225000Y-59250000D01*
X47225000Y-59750000D01*
X47207873Y-59836104D01*
X47159099Y-59909099D01*
X47086104Y-59957873D01*
X47000000Y-59975000D01*
X46550000Y-59975000D01*
X46463896Y-59957873D01*
X46390901Y-59909099D01*
X46342127Y-59836104D01*
X46325000Y-59750000D01*
X46325000Y-59250000D01*
X46342127Y-59163896D01*
X46390901Y-59090901D01*
X46463896Y-59042127D01*
X46550000Y-59025000D01*
X47000000Y-59025000D01*
X47086104Y-59042127D01*
G37*
G36*
X56536104Y-59042127D02*
G01*
X56609099Y-59090901D01*
X56657873Y-59163896D01*
X56675000Y-59250000D01*
X56675000Y-59750000D01*
X56657873Y-59836104D01*
X56609099Y-59909099D01*
X56536104Y-59957873D01*
X56450000Y-59975000D01*
X56000000Y-59975000D01*
X55913896Y-59957873D01*
X55840901Y-59909099D01*
X55792127Y-59836104D01*
X55775000Y-59750000D01*
X55775000Y-59250000D01*
X55792127Y-59163896D01*
X55840901Y-59090901D01*
X55913896Y-59042127D01*
X56000000Y-59025000D01*
X56450000Y-59025000D01*
X56536104Y-59042127D01*
G37*
G36*
X58086104Y-59042127D02*
G01*
X58159099Y-59090901D01*
X58207873Y-59163896D01*
X58225000Y-59250000D01*
X58225000Y-59750000D01*
X58207873Y-59836104D01*
X58159099Y-59909099D01*
X58086104Y-59957873D01*
X58000000Y-59975000D01*
X57550000Y-59975000D01*
X57463896Y-59957873D01*
X57390901Y-59909099D01*
X57342127Y-59836104D01*
X57325000Y-59750000D01*
X57325000Y-59250000D01*
X57342127Y-59163896D01*
X57390901Y-59090901D01*
X57463896Y-59042127D01*
X57550000Y-59025000D01*
X58000000Y-59025000D01*
X58086104Y-59042127D01*
G37*
G36*
X50627000Y-59806700D02*
G01*
X50373000Y-59806700D01*
X50373000Y-59044700D01*
X50627000Y-59044700D01*
X50627000Y-59806700D01*
G37*
G36*
X51126999Y-59806700D02*
G01*
X50872999Y-59806700D01*
X50872999Y-59044700D01*
X51126999Y-59044700D01*
X51126999Y-59806700D01*
G37*
G36*
X51627001Y-59806700D02*
G01*
X51373001Y-59806700D01*
X51373001Y-59044700D01*
X51627001Y-59044700D01*
X51627001Y-59806700D01*
G37*
G36*
X52127000Y-59806700D02*
G01*
X51873000Y-59806700D01*
X51873000Y-59044700D01*
X52127000Y-59044700D01*
X52127000Y-59806700D01*
G37*
G36*
X52626999Y-59806700D02*
G01*
X52372999Y-59806700D01*
X52372999Y-59044700D01*
X52626999Y-59044700D01*
X52626999Y-59806700D01*
G37*
G36*
X53127001Y-59806700D02*
G01*
X52873001Y-59806700D01*
X52873001Y-59044700D01*
X53127001Y-59044700D01*
X53127001Y-59806700D01*
G37*
G36*
X53627000Y-59806700D02*
G01*
X53373000Y-59806700D01*
X53373000Y-59044700D01*
X53627000Y-59044700D01*
X53627000Y-59806700D01*
G37*
G36*
X43336104Y-58292127D02*
G01*
X43409099Y-58340901D01*
X43457873Y-58413896D01*
X43475000Y-58500000D01*
X43475000Y-58950000D01*
X43457873Y-59036104D01*
X43409099Y-59109099D01*
X43336104Y-59157873D01*
X43250000Y-59175000D01*
X42750000Y-59175000D01*
X42663896Y-59157873D01*
X42590901Y-59109099D01*
X42542127Y-59036104D01*
X42525000Y-58950000D01*
X42525000Y-58500000D01*
X42542127Y-58413896D01*
X42590901Y-58340901D01*
X42663896Y-58292127D01*
X42750000Y-58275000D01*
X43250000Y-58275000D01*
X43336104Y-58292127D01*
G37*
G36*
X28487664Y-57266602D02*
G01*
X28650000Y-57338878D01*
X28793761Y-57443327D01*
X28912664Y-57575383D01*
X29001514Y-57729274D01*
X29056425Y-57898275D01*
X29075000Y-58075000D01*
X29056425Y-58251725D01*
X29001514Y-58420726D01*
X28912664Y-58574617D01*
X28793761Y-58706673D01*
X28650000Y-58811122D01*
X28487664Y-58883398D01*
X28313849Y-58920344D01*
X28136151Y-58920344D01*
X27962336Y-58883398D01*
X27800000Y-58811122D01*
X27656239Y-58706673D01*
X27537336Y-58574617D01*
X27448486Y-58420726D01*
X27393575Y-58251725D01*
X27375000Y-58075000D01*
X27393575Y-57898275D01*
X27448486Y-57729274D01*
X27537336Y-57575383D01*
X27656239Y-57443327D01*
X27800000Y-57338878D01*
X27962336Y-57266602D01*
X28136151Y-57229656D01*
X28313849Y-57229656D01*
X28487664Y-57266602D01*
G37*
G36*
X31027664Y-57266602D02*
G01*
X31190000Y-57338878D01*
X31333761Y-57443327D01*
X31452664Y-57575383D01*
X31541514Y-57729274D01*
X31596425Y-57898275D01*
X31615000Y-58075000D01*
X31596425Y-58251725D01*
X31541514Y-58420726D01*
X31452664Y-58574617D01*
X31333761Y-58706673D01*
X31190000Y-58811122D01*
X31027664Y-58883398D01*
X30853849Y-58920344D01*
X30676151Y-58920344D01*
X30502336Y-58883398D01*
X30340000Y-58811122D01*
X30196239Y-58706673D01*
X30077336Y-58574617D01*
X29988486Y-58420726D01*
X29933575Y-58251725D01*
X29915000Y-58075000D01*
X29933575Y-57898275D01*
X29988486Y-57729274D01*
X30077336Y-57575383D01*
X30196239Y-57443327D01*
X30340000Y-57338878D01*
X30502336Y-57266602D01*
X30676151Y-57229656D01*
X30853849Y-57229656D01*
X31027664Y-57266602D01*
G37*
G36*
X53676400Y-58676400D02*
G01*
X50323600Y-58676400D01*
X50323600Y-55323600D01*
X53676400Y-55323600D01*
X53676400Y-58676400D01*
G37*
G36*
X49955300Y-58627000D02*
G01*
X49193300Y-58627000D01*
X49193300Y-58373000D01*
X49955300Y-58373000D01*
X49955300Y-58627000D01*
G37*
G36*
X54806700Y-58627000D02*
G01*
X54044700Y-58627000D01*
X54044700Y-58373000D01*
X54806700Y-58373000D01*
X54806700Y-58627000D01*
G37*
G36*
X45600000Y-58450000D02*
G01*
X44200000Y-58450000D01*
X44200000Y-57250000D01*
X45600000Y-57250000D01*
X45600000Y-58450000D01*
G37*
G36*
X47800000Y-58450000D02*
G01*
X46400000Y-58450000D01*
X46400000Y-57250000D01*
X47800000Y-57250000D01*
X47800000Y-58450000D01*
G37*
G36*
X49955300Y-58127001D02*
G01*
X49193300Y-58127001D01*
X49193300Y-57873001D01*
X49955300Y-57873001D01*
X49955300Y-58127001D01*
G37*
G36*
X54806700Y-58127001D02*
G01*
X54044700Y-58127001D01*
X54044700Y-57873001D01*
X54806700Y-57873001D01*
X54806700Y-58127001D01*
G37*
G36*
X61350000Y-58075000D02*
G01*
X59650000Y-58075000D01*
X59650000Y-56375000D01*
X61350000Y-56375000D01*
X61350000Y-58075000D01*
G37*
G36*
X56536104Y-57042127D02*
G01*
X56609099Y-57090901D01*
X56657873Y-57163896D01*
X56675000Y-57250000D01*
X56675000Y-57750000D01*
X56657873Y-57836104D01*
X56609099Y-57909099D01*
X56536104Y-57957873D01*
X56450000Y-57975000D01*
X56000000Y-57975000D01*
X55913896Y-57957873D01*
X55840901Y-57909099D01*
X55792127Y-57836104D01*
X55775000Y-57750000D01*
X55775000Y-57250000D01*
X55792127Y-57163896D01*
X55840901Y-57090901D01*
X55913896Y-57042127D01*
X56000000Y-57025000D01*
X56450000Y-57025000D01*
X56536104Y-57042127D01*
G37*
G36*
X58086104Y-57042127D02*
G01*
X58159099Y-57090901D01*
X58207873Y-57163896D01*
X58225000Y-57250000D01*
X58225000Y-57750000D01*
X58207873Y-57836104D01*
X58159099Y-57909099D01*
X58086104Y-57957873D01*
X58000000Y-57975000D01*
X57550000Y-57975000D01*
X57463896Y-57957873D01*
X57390901Y-57909099D01*
X57342127Y-57836104D01*
X57325000Y-57750000D01*
X57325000Y-57250000D01*
X57342127Y-57163896D01*
X57390901Y-57090901D01*
X57463896Y-57042127D01*
X57550000Y-57025000D01*
X58000000Y-57025000D01*
X58086104Y-57042127D01*
G37*
G36*
X49955300Y-57626999D02*
G01*
X49193300Y-57626999D01*
X49193300Y-57372999D01*
X49955300Y-57372999D01*
X49955300Y-57626999D01*
G37*
G36*
X54806700Y-57626999D02*
G01*
X54044700Y-57626999D01*
X54044700Y-57372999D01*
X54806700Y-57372999D01*
X54806700Y-57626999D01*
G37*
G36*
X49955300Y-57127000D02*
G01*
X49193300Y-57127000D01*
X49193300Y-56873000D01*
X49955300Y-56873000D01*
X49955300Y-57127000D01*
G37*
G36*
X54806700Y-57127000D02*
G01*
X54044700Y-57127000D01*
X54044700Y-56873000D01*
X54806700Y-56873000D01*
X54806700Y-57127000D01*
G37*
G36*
X45600000Y-56750000D02*
G01*
X44200000Y-56750000D01*
X44200000Y-55550000D01*
X45600000Y-55550000D01*
X45600000Y-56750000D01*
G37*
G36*
X47800000Y-56750000D02*
G01*
X46400000Y-56750000D01*
X46400000Y-55550000D01*
X47800000Y-55550000D01*
X47800000Y-56750000D01*
G37*
G36*
X49955300Y-56627001D02*
G01*
X49193300Y-56627001D01*
X49193300Y-56373001D01*
X49955300Y-56373001D01*
X49955300Y-56627001D01*
G37*
G36*
X54806700Y-56627001D02*
G01*
X54044700Y-56627001D01*
X54044700Y-56373001D01*
X54806700Y-56373001D01*
X54806700Y-56627001D01*
G37*
G36*
X56451537Y-55540224D02*
G01*
X56516421Y-55583579D01*
X56559776Y-55648463D01*
X56575000Y-55725000D01*
X56575000Y-56275000D01*
X56559776Y-56351537D01*
X56516421Y-56416421D01*
X56451537Y-56459776D01*
X56375000Y-56475000D01*
X55975000Y-56475000D01*
X55898463Y-56459776D01*
X55833579Y-56416421D01*
X55790224Y-56351537D01*
X55775000Y-56275000D01*
X55775000Y-55725000D01*
X55790224Y-55648463D01*
X55833579Y-55583579D01*
X55898463Y-55540224D01*
X55975000Y-55525000D01*
X56375000Y-55525000D01*
X56451537Y-55540224D01*
G37*
G36*
X58101537Y-55540224D02*
G01*
X58166421Y-55583579D01*
X58209776Y-55648463D01*
X58225000Y-55725000D01*
X58225000Y-56275000D01*
X58209776Y-56351537D01*
X58166421Y-56416421D01*
X58101537Y-56459776D01*
X58025000Y-56475000D01*
X57625000Y-56475000D01*
X57548463Y-56459776D01*
X57483579Y-56416421D01*
X57440224Y-56351537D01*
X57425000Y-56275000D01*
X57425000Y-55725000D01*
X57440224Y-55648463D01*
X57483579Y-55583579D01*
X57548463Y-55540224D01*
X57625000Y-55525000D01*
X58025000Y-55525000D01*
X58101537Y-55540224D01*
G37*
G36*
X28487664Y-54726602D02*
G01*
X28650000Y-54798878D01*
X28793761Y-54903327D01*
X28912664Y-55035383D01*
X29001514Y-55189274D01*
X29056425Y-55358275D01*
X29075000Y-55535000D01*
X29056425Y-55711725D01*
X29001514Y-55880726D01*
X28912664Y-56034617D01*
X28793761Y-56166673D01*
X28650000Y-56271122D01*
X28487664Y-56343398D01*
X28313849Y-56380344D01*
X28136151Y-56380344D01*
X27962336Y-56343398D01*
X27800000Y-56271122D01*
X27656239Y-56166673D01*
X27537336Y-56034617D01*
X27448486Y-55880726D01*
X27393575Y-55711725D01*
X27375000Y-55535000D01*
X27393575Y-55358275D01*
X27448486Y-55189274D01*
X27537336Y-55035383D01*
X27656239Y-54903327D01*
X27800000Y-54798878D01*
X27962336Y-54726602D01*
X28136151Y-54689656D01*
X28313849Y-54689656D01*
X28487664Y-54726602D01*
G37*
G36*
X31027664Y-54726602D02*
G01*
X31190000Y-54798878D01*
X31333761Y-54903327D01*
X31452664Y-55035383D01*
X31541514Y-55189274D01*
X31596425Y-55358275D01*
X31615000Y-55535000D01*
X31596425Y-55711725D01*
X31541514Y-55880726D01*
X31452664Y-56034617D01*
X31333761Y-56166673D01*
X31190000Y-56271122D01*
X31027664Y-56343398D01*
X30853849Y-56380344D01*
X30676151Y-56380344D01*
X30502336Y-56343398D01*
X30340000Y-56271122D01*
X30196239Y-56166673D01*
X30077336Y-56034617D01*
X29988486Y-55880726D01*
X29933575Y-55711725D01*
X29915000Y-55535000D01*
X29933575Y-55358275D01*
X29988486Y-55189274D01*
X30077336Y-55035383D01*
X30196239Y-54903327D01*
X30340000Y-54798878D01*
X30502336Y-54726602D01*
X30676151Y-54689656D01*
X30853849Y-54689656D01*
X31027664Y-54726602D01*
G37*
G36*
X49955300Y-56126999D02*
G01*
X49193300Y-56126999D01*
X49193300Y-55872999D01*
X49955300Y-55872999D01*
X49955300Y-56126999D01*
G37*
G36*
X54806700Y-56126999D02*
G01*
X54044700Y-56126999D01*
X54044700Y-55872999D01*
X54806700Y-55872999D01*
X54806700Y-56126999D01*
G37*
G36*
X43336104Y-54842127D02*
G01*
X43409099Y-54890901D01*
X43457873Y-54963896D01*
X43475000Y-55050000D01*
X43475000Y-55500000D01*
X43457873Y-55586104D01*
X43409099Y-55659099D01*
X43336104Y-55707873D01*
X43250000Y-55725000D01*
X42750000Y-55725000D01*
X42663896Y-55707873D01*
X42590901Y-55659099D01*
X42542127Y-55586104D01*
X42525000Y-55500000D01*
X42525000Y-55050000D01*
X42542127Y-54963896D01*
X42590901Y-54890901D01*
X42663896Y-54842127D01*
X42750000Y-54825000D01*
X43250000Y-54825000D01*
X43336104Y-54842127D01*
G37*
G36*
X49955300Y-55627000D02*
G01*
X49193300Y-55627000D01*
X49193300Y-55373000D01*
X49955300Y-55373000D01*
X49955300Y-55627000D01*
G37*
G36*
X54806700Y-55627000D02*
G01*
X54044700Y-55627000D01*
X54044700Y-55373000D01*
X54806700Y-55373000D01*
X54806700Y-55627000D01*
G37*
G36*
X45536104Y-54042127D02*
G01*
X45609099Y-54090901D01*
X45657873Y-54163896D01*
X45675000Y-54250000D01*
X45675000Y-54750000D01*
X45657873Y-54836104D01*
X45609099Y-54909099D01*
X45536104Y-54957873D01*
X45450000Y-54975000D01*
X45000000Y-54975000D01*
X44913896Y-54957873D01*
X44840901Y-54909099D01*
X44792127Y-54836104D01*
X44775000Y-54750000D01*
X44775000Y-54250000D01*
X44792127Y-54163896D01*
X44840901Y-54090901D01*
X44913896Y-54042127D01*
X45000000Y-54025000D01*
X45450000Y-54025000D01*
X45536104Y-54042127D01*
G37*
G36*
X47086104Y-54042127D02*
G01*
X47159099Y-54090901D01*
X47207873Y-54163896D01*
X47225000Y-54250000D01*
X47225000Y-54750000D01*
X47207873Y-54836104D01*
X47159099Y-54909099D01*
X47086104Y-54957873D01*
X47000000Y-54975000D01*
X46550000Y-54975000D01*
X46463896Y-54957873D01*
X46390901Y-54909099D01*
X46342127Y-54836104D01*
X46325000Y-54750000D01*
X46325000Y-54250000D01*
X46342127Y-54163896D01*
X46390901Y-54090901D01*
X46463896Y-54042127D01*
X46550000Y-54025000D01*
X47000000Y-54025000D01*
X47086104Y-54042127D01*
G37*
G36*
X50627000Y-54955300D02*
G01*
X50373000Y-54955300D01*
X50373000Y-54193300D01*
X50627000Y-54193300D01*
X50627000Y-54955300D01*
G37*
G36*
X51126999Y-54955300D02*
G01*
X50872999Y-54955300D01*
X50872999Y-54193300D01*
X51126999Y-54193300D01*
X51126999Y-54955300D01*
G37*
G36*
X51627001Y-54955300D02*
G01*
X51373001Y-54955300D01*
X51373001Y-54193300D01*
X51627001Y-54193300D01*
X51627001Y-54955300D01*
G37*
G36*
X52127000Y-54955300D02*
G01*
X51873000Y-54955300D01*
X51873000Y-54193300D01*
X52127000Y-54193300D01*
X52127000Y-54955300D01*
G37*
G36*
X52626999Y-54955300D02*
G01*
X52372999Y-54955300D01*
X52372999Y-54193300D01*
X52626999Y-54193300D01*
X52626999Y-54955300D01*
G37*
G36*
X53127001Y-54955300D02*
G01*
X52873001Y-54955300D01*
X52873001Y-54193300D01*
X53127001Y-54193300D01*
X53127001Y-54955300D01*
G37*
G36*
X53627000Y-54955300D02*
G01*
X53373000Y-54955300D01*
X53373000Y-54193300D01*
X53627000Y-54193300D01*
X53627000Y-54955300D01*
G37*
G36*
X39125000Y-54875000D02*
G01*
X36875000Y-54875000D01*
X36875000Y-52625000D01*
X39125000Y-52625000D01*
X39125000Y-54875000D01*
G37*
G36*
X43336104Y-53292127D02*
G01*
X43409099Y-53340901D01*
X43457873Y-53413896D01*
X43475000Y-53500000D01*
X43475000Y-53950000D01*
X43457873Y-54036104D01*
X43409099Y-54109099D01*
X43336104Y-54157873D01*
X43250000Y-54175000D01*
X42750000Y-54175000D01*
X42663896Y-54157873D01*
X42590901Y-54109099D01*
X42542127Y-54036104D01*
X42525000Y-53950000D01*
X42525000Y-53500000D01*
X42542127Y-53413896D01*
X42590901Y-53340901D01*
X42663896Y-53292127D01*
X42750000Y-53275000D01*
X43250000Y-53275000D01*
X43336104Y-53292127D01*
G37*
G36*
X28487664Y-52186602D02*
G01*
X28650000Y-52258878D01*
X28793761Y-52363327D01*
X28912664Y-52495383D01*
X29001514Y-52649274D01*
X29056425Y-52818275D01*
X29075000Y-52995000D01*
X29056425Y-53171725D01*
X29001514Y-53340726D01*
X28912664Y-53494617D01*
X28793761Y-53626673D01*
X28650000Y-53731122D01*
X28487664Y-53803398D01*
X28313849Y-53840344D01*
X28136151Y-53840344D01*
X27962336Y-53803398D01*
X27800000Y-53731122D01*
X27656239Y-53626673D01*
X27537336Y-53494617D01*
X27448486Y-53340726D01*
X27393575Y-53171725D01*
X27375000Y-52995000D01*
X27393575Y-52818275D01*
X27448486Y-52649274D01*
X27537336Y-52495383D01*
X27656239Y-52363327D01*
X27800000Y-52258878D01*
X27962336Y-52186602D01*
X28136151Y-52149656D01*
X28313849Y-52149656D01*
X28487664Y-52186602D01*
G37*
G36*
X31027664Y-52186602D02*
G01*
X31190000Y-52258878D01*
X31333761Y-52363327D01*
X31452664Y-52495383D01*
X31541514Y-52649274D01*
X31596425Y-52818275D01*
X31615000Y-52995000D01*
X31596425Y-53171725D01*
X31541514Y-53340726D01*
X31452664Y-53494617D01*
X31333761Y-53626673D01*
X31190000Y-53731122D01*
X31027664Y-53803398D01*
X30853849Y-53840344D01*
X30676151Y-53840344D01*
X30502336Y-53803398D01*
X30340000Y-53731122D01*
X30196239Y-53626673D01*
X30077336Y-53494617D01*
X29988486Y-53340726D01*
X29933575Y-53171725D01*
X29915000Y-52995000D01*
X29933575Y-52818275D01*
X29988486Y-52649274D01*
X30077336Y-52495383D01*
X30196239Y-52363327D01*
X30340000Y-52258878D01*
X30502336Y-52186602D01*
X30676151Y-52149656D01*
X30853849Y-52149656D01*
X31027664Y-52186602D01*
G37*
G36*
X56451537Y-52040224D02*
G01*
X56516421Y-52083579D01*
X56559776Y-52148463D01*
X56575000Y-52225000D01*
X56575000Y-52775000D01*
X56559776Y-52851537D01*
X56516421Y-52916421D01*
X56451537Y-52959776D01*
X56375000Y-52975000D01*
X55975000Y-52975000D01*
X55898463Y-52959776D01*
X55833579Y-52916421D01*
X55790224Y-52851537D01*
X55775000Y-52775000D01*
X55775000Y-52225000D01*
X55790224Y-52148463D01*
X55833579Y-52083579D01*
X55898463Y-52040224D01*
X55975000Y-52025000D01*
X56375000Y-52025000D01*
X56451537Y-52040224D01*
G37*
G36*
X58101537Y-52040224D02*
G01*
X58166421Y-52083579D01*
X58209776Y-52148463D01*
X58225000Y-52225000D01*
X58225000Y-52775000D01*
X58209776Y-52851537D01*
X58166421Y-52916421D01*
X58101537Y-52959776D01*
X58025000Y-52975000D01*
X57625000Y-52975000D01*
X57548463Y-52959776D01*
X57483579Y-52916421D01*
X57440224Y-52851537D01*
X57425000Y-52775000D01*
X57425000Y-52225000D01*
X57440224Y-52148463D01*
X57483579Y-52083579D01*
X57548463Y-52040224D01*
X57625000Y-52025000D01*
X58025000Y-52025000D01*
X58101537Y-52040224D01*
G37*
G36*
X43336104Y-51842127D02*
G01*
X43409099Y-51890901D01*
X43457873Y-51963896D01*
X43475000Y-52050000D01*
X43475000Y-52500000D01*
X43457873Y-52586104D01*
X43409099Y-52659099D01*
X43336104Y-52707873D01*
X43250000Y-52725000D01*
X42750000Y-52725000D01*
X42663896Y-52707873D01*
X42590901Y-52659099D01*
X42542127Y-52586104D01*
X42525000Y-52500000D01*
X42525000Y-52050000D01*
X42542127Y-51963896D01*
X42590901Y-51890901D01*
X42663896Y-51842127D01*
X42750000Y-51825000D01*
X43250000Y-51825000D01*
X43336104Y-51842127D01*
G37*
G36*
X60762664Y-50356602D02*
G01*
X60925000Y-50428878D01*
X61068761Y-50533327D01*
X61187664Y-50665383D01*
X61276514Y-50819274D01*
X61331425Y-50988275D01*
X61350000Y-51165000D01*
X61331425Y-51341725D01*
X61276514Y-51510726D01*
X61187664Y-51664617D01*
X61068761Y-51796673D01*
X60925000Y-51901122D01*
X60762664Y-51973398D01*
X60588849Y-52010344D01*
X60411151Y-52010344D01*
X60237336Y-51973398D01*
X60075000Y-51901122D01*
X59931239Y-51796673D01*
X59812336Y-51664617D01*
X59723486Y-51510726D01*
X59668575Y-51341725D01*
X59650000Y-51165000D01*
X59668575Y-50988275D01*
X59723486Y-50819274D01*
X59812336Y-50665383D01*
X59931239Y-50533327D01*
X60075000Y-50428878D01*
X60237336Y-50356602D01*
X60411151Y-50319656D01*
X60588849Y-50319656D01*
X60762664Y-50356602D01*
G37*
G36*
X45536104Y-51042127D02*
G01*
X45609099Y-51090901D01*
X45657873Y-51163896D01*
X45675000Y-51250000D01*
X45675000Y-51750000D01*
X45657873Y-51836104D01*
X45609099Y-51909099D01*
X45536104Y-51957873D01*
X45450000Y-51975000D01*
X45000000Y-51975000D01*
X44913896Y-51957873D01*
X44840901Y-51909099D01*
X44792127Y-51836104D01*
X44775000Y-51750000D01*
X44775000Y-51250000D01*
X44792127Y-51163896D01*
X44840901Y-51090901D01*
X44913896Y-51042127D01*
X45000000Y-51025000D01*
X45450000Y-51025000D01*
X45536104Y-51042127D01*
G37*
G36*
X47086104Y-51042127D02*
G01*
X47159099Y-51090901D01*
X47207873Y-51163896D01*
X47225000Y-51250000D01*
X47225000Y-51750000D01*
X47207873Y-51836104D01*
X47159099Y-51909099D01*
X47086104Y-51957873D01*
X47000000Y-51975000D01*
X46550000Y-51975000D01*
X46463896Y-51957873D01*
X46390901Y-51909099D01*
X46342127Y-51836104D01*
X46325000Y-51750000D01*
X46325000Y-51250000D01*
X46342127Y-51163896D01*
X46390901Y-51090901D01*
X46463896Y-51042127D01*
X46550000Y-51025000D01*
X47000000Y-51025000D01*
X47086104Y-51042127D01*
G37*
G36*
X50627000Y-51806700D02*
G01*
X50373000Y-51806700D01*
X50373000Y-51044700D01*
X50627000Y-51044700D01*
X50627000Y-51806700D01*
G37*
G36*
X51126999Y-51806700D02*
G01*
X50872999Y-51806700D01*
X50872999Y-51044700D01*
X51126999Y-51044700D01*
X51126999Y-51806700D01*
G37*
G36*
X51627001Y-51806700D02*
G01*
X51373001Y-51806700D01*
X51373001Y-51044700D01*
X51627001Y-51044700D01*
X51627001Y-51806700D01*
G37*
G36*
X52127000Y-51806700D02*
G01*
X51873000Y-51806700D01*
X51873000Y-51044700D01*
X52127000Y-51044700D01*
X52127000Y-51806700D01*
G37*
G36*
X52626999Y-51806700D02*
G01*
X52372999Y-51806700D01*
X52372999Y-51044700D01*
X52626999Y-51044700D01*
X52626999Y-51806700D01*
G37*
G36*
X53127001Y-51806700D02*
G01*
X52873001Y-51806700D01*
X52873001Y-51044700D01*
X53127001Y-51044700D01*
X53127001Y-51806700D01*
G37*
G36*
X53627000Y-51806700D02*
G01*
X53373000Y-51806700D01*
X53373000Y-51044700D01*
X53627000Y-51044700D01*
X53627000Y-51806700D01*
G37*
G36*
X56536104Y-50542127D02*
G01*
X56609099Y-50590901D01*
X56657873Y-50663896D01*
X56675000Y-50750000D01*
X56675000Y-51250000D01*
X56657873Y-51336104D01*
X56609099Y-51409099D01*
X56536104Y-51457873D01*
X56450000Y-51475000D01*
X56000000Y-51475000D01*
X55913896Y-51457873D01*
X55840901Y-51409099D01*
X55792127Y-51336104D01*
X55775000Y-51250000D01*
X55775000Y-50750000D01*
X55792127Y-50663896D01*
X55840901Y-50590901D01*
X55913896Y-50542127D01*
X56000000Y-50525000D01*
X56450000Y-50525000D01*
X56536104Y-50542127D01*
G37*
G36*
X58086104Y-50542127D02*
G01*
X58159099Y-50590901D01*
X58207873Y-50663896D01*
X58225000Y-50750000D01*
X58225000Y-51250000D01*
X58207873Y-51336104D01*
X58159099Y-51409099D01*
X58086104Y-51457873D01*
X58000000Y-51475000D01*
X57550000Y-51475000D01*
X57463896Y-51457873D01*
X57390901Y-51409099D01*
X57342127Y-51336104D01*
X57325000Y-51250000D01*
X57325000Y-50750000D01*
X57342127Y-50663896D01*
X57390901Y-50590901D01*
X57463896Y-50542127D01*
X57550000Y-50525000D01*
X58000000Y-50525000D01*
X58086104Y-50542127D01*
G37*
G36*
X28487664Y-49646602D02*
G01*
X28650000Y-49718878D01*
X28793761Y-49823327D01*
X28912664Y-49955383D01*
X29001514Y-50109274D01*
X29056425Y-50278275D01*
X29075000Y-50455000D01*
X29056425Y-50631725D01*
X29001514Y-50800726D01*
X28912664Y-50954617D01*
X28793761Y-51086673D01*
X28650000Y-51191122D01*
X28487664Y-51263398D01*
X28313849Y-51300344D01*
X28136151Y-51300344D01*
X27962336Y-51263398D01*
X27800000Y-51191122D01*
X27656239Y-51086673D01*
X27537336Y-50954617D01*
X27448486Y-50800726D01*
X27393575Y-50631725D01*
X27375000Y-50455000D01*
X27393575Y-50278275D01*
X27448486Y-50109274D01*
X27537336Y-49955383D01*
X27656239Y-49823327D01*
X27800000Y-49718878D01*
X27962336Y-49646602D01*
X28136151Y-49609656D01*
X28313849Y-49609656D01*
X28487664Y-49646602D01*
G37*
G36*
X31027664Y-49646602D02*
G01*
X31190000Y-49718878D01*
X31333761Y-49823327D01*
X31452664Y-49955383D01*
X31541514Y-50109274D01*
X31596425Y-50278275D01*
X31615000Y-50455000D01*
X31596425Y-50631725D01*
X31541514Y-50800726D01*
X31452664Y-50954617D01*
X31333761Y-51086673D01*
X31190000Y-51191122D01*
X31027664Y-51263398D01*
X30853849Y-51300344D01*
X30676151Y-51300344D01*
X30502336Y-51263398D01*
X30340000Y-51191122D01*
X30196239Y-51086673D01*
X30077336Y-50954617D01*
X29988486Y-50800726D01*
X29933575Y-50631725D01*
X29915000Y-50455000D01*
X29933575Y-50278275D01*
X29988486Y-50109274D01*
X30077336Y-49955383D01*
X30196239Y-49823327D01*
X30340000Y-49718878D01*
X30502336Y-49646602D01*
X30676151Y-49609656D01*
X30853849Y-49609656D01*
X31027664Y-49646602D01*
G37*
G36*
X43336104Y-50292127D02*
G01*
X43409099Y-50340901D01*
X43457873Y-50413896D01*
X43475000Y-50500000D01*
X43475000Y-50950000D01*
X43457873Y-51036104D01*
X43409099Y-51109099D01*
X43336104Y-51157873D01*
X43250000Y-51175000D01*
X42750000Y-51175000D01*
X42663896Y-51157873D01*
X42590901Y-51109099D01*
X42542127Y-51036104D01*
X42525000Y-50950000D01*
X42525000Y-50500000D01*
X42542127Y-50413896D01*
X42590901Y-50340901D01*
X42663896Y-50292127D01*
X42750000Y-50275000D01*
X43250000Y-50275000D01*
X43336104Y-50292127D01*
G37*
G36*
X53676400Y-50676400D02*
G01*
X50323600Y-50676400D01*
X50323600Y-47323600D01*
X53676400Y-47323600D01*
X53676400Y-50676400D01*
G37*
G36*
X49955300Y-50627000D02*
G01*
X49193300Y-50627000D01*
X49193300Y-50373000D01*
X49955300Y-50373000D01*
X49955300Y-50627000D01*
G37*
G36*
X54806700Y-50627000D02*
G01*
X54044700Y-50627000D01*
X54044700Y-50373000D01*
X54806700Y-50373000D01*
X54806700Y-50627000D01*
G37*
G36*
X45600000Y-50450000D02*
G01*
X44200000Y-50450000D01*
X44200000Y-49250000D01*
X45600000Y-49250000D01*
X45600000Y-50450000D01*
G37*
G36*
X47800000Y-50450000D02*
G01*
X46400000Y-50450000D01*
X46400000Y-49250000D01*
X47800000Y-49250000D01*
X47800000Y-50450000D01*
G37*
G36*
X49955300Y-50127001D02*
G01*
X49193300Y-50127001D01*
X49193300Y-49873001D01*
X49955300Y-49873001D01*
X49955300Y-50127001D01*
G37*
G36*
X54806700Y-50127001D02*
G01*
X54044700Y-50127001D01*
X54044700Y-49873001D01*
X54806700Y-49873001D01*
X54806700Y-50127001D01*
G37*
G36*
X34451537Y-49040224D02*
G01*
X34516421Y-49083579D01*
X34559776Y-49148463D01*
X34575000Y-49225000D01*
X34575000Y-49775000D01*
X34559776Y-49851537D01*
X34516421Y-49916421D01*
X34451537Y-49959776D01*
X34375000Y-49975000D01*
X33975000Y-49975000D01*
X33898463Y-49959776D01*
X33833579Y-49916421D01*
X33790224Y-49851537D01*
X33775000Y-49775000D01*
X33775000Y-49225000D01*
X33790224Y-49148463D01*
X33833579Y-49083579D01*
X33898463Y-49040224D01*
X33975000Y-49025000D01*
X34375000Y-49025000D01*
X34451537Y-49040224D01*
G37*
G36*
X36101537Y-49040224D02*
G01*
X36166421Y-49083579D01*
X36209776Y-49148463D01*
X36225000Y-49225000D01*
X36225000Y-49775000D01*
X36209776Y-49851537D01*
X36166421Y-49916421D01*
X36101537Y-49959776D01*
X36025000Y-49975000D01*
X35625000Y-49975000D01*
X35548463Y-49959776D01*
X35483579Y-49916421D01*
X35440224Y-49851537D01*
X35425000Y-49775000D01*
X35425000Y-49225000D01*
X35440224Y-49148463D01*
X35483579Y-49083579D01*
X35548463Y-49040224D01*
X35625000Y-49025000D01*
X36025000Y-49025000D01*
X36101537Y-49040224D01*
G37*
G36*
X49955300Y-49626999D02*
G01*
X49193300Y-49626999D01*
X49193300Y-49372999D01*
X49955300Y-49372999D01*
X49955300Y-49626999D01*
G37*
G36*
X54806700Y-49626999D02*
G01*
X54044700Y-49626999D01*
X54044700Y-49372999D01*
X54806700Y-49372999D01*
X54806700Y-49626999D01*
G37*
G36*
X56536104Y-48542127D02*
G01*
X56609099Y-48590901D01*
X56657873Y-48663896D01*
X56675000Y-48750000D01*
X56675000Y-49250000D01*
X56657873Y-49336104D01*
X56609099Y-49409099D01*
X56536104Y-49457873D01*
X56450000Y-49475000D01*
X56000000Y-49475000D01*
X55913896Y-49457873D01*
X55840901Y-49409099D01*
X55792127Y-49336104D01*
X55775000Y-49250000D01*
X55775000Y-48750000D01*
X55792127Y-48663896D01*
X55840901Y-48590901D01*
X55913896Y-48542127D01*
X56000000Y-48525000D01*
X56450000Y-48525000D01*
X56536104Y-48542127D01*
G37*
G36*
X58086104Y-48542127D02*
G01*
X58159099Y-48590901D01*
X58207873Y-48663896D01*
X58225000Y-48750000D01*
X58225000Y-49250000D01*
X58207873Y-49336104D01*
X58159099Y-49409099D01*
X58086104Y-49457873D01*
X58000000Y-49475000D01*
X57550000Y-49475000D01*
X57463896Y-49457873D01*
X57390901Y-49409099D01*
X57342127Y-49336104D01*
X57325000Y-49250000D01*
X57325000Y-48750000D01*
X57342127Y-48663896D01*
X57390901Y-48590901D01*
X57463896Y-48542127D01*
X57550000Y-48525000D01*
X58000000Y-48525000D01*
X58086104Y-48542127D01*
G37*
G36*
X61350000Y-49475000D02*
G01*
X59650000Y-49475000D01*
X59650000Y-47775000D01*
X61350000Y-47775000D01*
X61350000Y-49475000D01*
G37*
G36*
X49955300Y-49127000D02*
G01*
X49193300Y-49127000D01*
X49193300Y-48873000D01*
X49955300Y-48873000D01*
X49955300Y-49127000D01*
G37*
G36*
X54806700Y-49127000D02*
G01*
X54044700Y-49127000D01*
X54044700Y-48873000D01*
X54806700Y-48873000D01*
X54806700Y-49127000D01*
G37*
G36*
X38536104Y-48042127D02*
G01*
X38609099Y-48090901D01*
X38657873Y-48163896D01*
X38675000Y-48250000D01*
X38675000Y-48750000D01*
X38657873Y-48836104D01*
X38609099Y-48909099D01*
X38536104Y-48957873D01*
X38450000Y-48975000D01*
X38000000Y-48975000D01*
X37913896Y-48957873D01*
X37840901Y-48909099D01*
X37792127Y-48836104D01*
X37775000Y-48750000D01*
X37775000Y-48250000D01*
X37792127Y-48163896D01*
X37840901Y-48090901D01*
X37913896Y-48042127D01*
X38000000Y-48025000D01*
X38450000Y-48025000D01*
X38536104Y-48042127D01*
G37*
G36*
X40086104Y-48042127D02*
G01*
X40159099Y-48090901D01*
X40207873Y-48163896D01*
X40225000Y-48250000D01*
X40225000Y-48750000D01*
X40207873Y-48836104D01*
X40159099Y-48909099D01*
X40086104Y-48957873D01*
X40000000Y-48975000D01*
X39550000Y-48975000D01*
X39463896Y-48957873D01*
X39390901Y-48909099D01*
X39342127Y-48836104D01*
X39325000Y-48750000D01*
X39325000Y-48250000D01*
X39342127Y-48163896D01*
X39390901Y-48090901D01*
X39463896Y-48042127D01*
X39550000Y-48025000D01*
X40000000Y-48025000D01*
X40086104Y-48042127D01*
G37*
G36*
X28487664Y-47106602D02*
G01*
X28650000Y-47178878D01*
X28793761Y-47283327D01*
X28912664Y-47415383D01*
X29001514Y-47569274D01*
X29056425Y-47738275D01*
X29075000Y-47915000D01*
X29056425Y-48091725D01*
X29001514Y-48260726D01*
X28912664Y-48414617D01*
X28793761Y-48546673D01*
X28650000Y-48651122D01*
X28487664Y-48723398D01*
X28313849Y-48760344D01*
X28136151Y-48760344D01*
X27962336Y-48723398D01*
X27800000Y-48651122D01*
X27656239Y-48546673D01*
X27537336Y-48414617D01*
X27448486Y-48260726D01*
X27393575Y-48091725D01*
X27375000Y-47915000D01*
X27393575Y-47738275D01*
X27448486Y-47569274D01*
X27537336Y-47415383D01*
X27656239Y-47283327D01*
X27800000Y-47178878D01*
X27962336Y-47106602D01*
X28136151Y-47069656D01*
X28313849Y-47069656D01*
X28487664Y-47106602D01*
G37*
G36*
X31027664Y-47106602D02*
G01*
X31190000Y-47178878D01*
X31333761Y-47283327D01*
X31452664Y-47415383D01*
X31541514Y-47569274D01*
X31596425Y-47738275D01*
X31615000Y-47915000D01*
X31596425Y-48091725D01*
X31541514Y-48260726D01*
X31452664Y-48414617D01*
X31333761Y-48546673D01*
X31190000Y-48651122D01*
X31027664Y-48723398D01*
X30853849Y-48760344D01*
X30676151Y-48760344D01*
X30502336Y-48723398D01*
X30340000Y-48651122D01*
X30196239Y-48546673D01*
X30077336Y-48414617D01*
X29988486Y-48260726D01*
X29933575Y-48091725D01*
X29915000Y-47915000D01*
X29933575Y-47738275D01*
X29988486Y-47569274D01*
X30077336Y-47415383D01*
X30196239Y-47283327D01*
X30340000Y-47178878D01*
X30502336Y-47106602D01*
X30676151Y-47069656D01*
X30853849Y-47069656D01*
X31027664Y-47106602D01*
G37*
G36*
X45600000Y-48750000D02*
G01*
X44200000Y-48750000D01*
X44200000Y-47550000D01*
X45600000Y-47550000D01*
X45600000Y-48750000D01*
G37*
G36*
X47800000Y-48750000D02*
G01*
X46400000Y-48750000D01*
X46400000Y-47550000D01*
X47800000Y-47550000D01*
X47800000Y-48750000D01*
G37*
G36*
X49955300Y-48627001D02*
G01*
X49193300Y-48627001D01*
X49193300Y-48373001D01*
X49955300Y-48373001D01*
X49955300Y-48627001D01*
G37*
G36*
X54806700Y-48627001D02*
G01*
X54044700Y-48627001D01*
X54044700Y-48373001D01*
X54806700Y-48373001D01*
X54806700Y-48627001D01*
G37*
G36*
X34536104Y-47542127D02*
G01*
X34609099Y-47590901D01*
X34657873Y-47663896D01*
X34675000Y-47750000D01*
X34675000Y-48250000D01*
X34657873Y-48336104D01*
X34609099Y-48409099D01*
X34536104Y-48457873D01*
X34450000Y-48475000D01*
X34000000Y-48475000D01*
X33913896Y-48457873D01*
X33840901Y-48409099D01*
X33792127Y-48336104D01*
X33775000Y-48250000D01*
X33775000Y-47750000D01*
X33792127Y-47663896D01*
X33840901Y-47590901D01*
X33913896Y-47542127D01*
X34000000Y-47525000D01*
X34450000Y-47525000D01*
X34536104Y-47542127D01*
G37*
G36*
X36086104Y-47542127D02*
G01*
X36159099Y-47590901D01*
X36207873Y-47663896D01*
X36225000Y-47750000D01*
X36225000Y-48250000D01*
X36207873Y-48336104D01*
X36159099Y-48409099D01*
X36086104Y-48457873D01*
X36000000Y-48475000D01*
X35550000Y-48475000D01*
X35463896Y-48457873D01*
X35390901Y-48409099D01*
X35342127Y-48336104D01*
X35325000Y-48250000D01*
X35325000Y-47750000D01*
X35342127Y-47663896D01*
X35390901Y-47590901D01*
X35463896Y-47542127D01*
X35550000Y-47525000D01*
X36000000Y-47525000D01*
X36086104Y-47542127D01*
G37*
G36*
X49955300Y-48126999D02*
G01*
X49193300Y-48126999D01*
X49193300Y-47872999D01*
X49955300Y-47872999D01*
X49955300Y-48126999D01*
G37*
G36*
X54806700Y-48126999D02*
G01*
X54044700Y-48126999D01*
X54044700Y-47872999D01*
X54806700Y-47872999D01*
X54806700Y-48126999D01*
G37*
G36*
X56451537Y-47040224D02*
G01*
X56516421Y-47083579D01*
X56559776Y-47148463D01*
X56575000Y-47225000D01*
X56575000Y-47775000D01*
X56559776Y-47851537D01*
X56516421Y-47916421D01*
X56451537Y-47959776D01*
X56375000Y-47975000D01*
X55975000Y-47975000D01*
X55898463Y-47959776D01*
X55833579Y-47916421D01*
X55790224Y-47851537D01*
X55775000Y-47775000D01*
X55775000Y-47225000D01*
X55790224Y-47148463D01*
X55833579Y-47083579D01*
X55898463Y-47040224D01*
X55975000Y-47025000D01*
X56375000Y-47025000D01*
X56451537Y-47040224D01*
G37*
G36*
X58101537Y-47040224D02*
G01*
X58166421Y-47083579D01*
X58209776Y-47148463D01*
X58225000Y-47225000D01*
X58225000Y-47775000D01*
X58209776Y-47851537D01*
X58166421Y-47916421D01*
X58101537Y-47959776D01*
X58025000Y-47975000D01*
X57625000Y-47975000D01*
X57548463Y-47959776D01*
X57483579Y-47916421D01*
X57440224Y-47851537D01*
X57425000Y-47775000D01*
X57425000Y-47225000D01*
X57440224Y-47148463D01*
X57483579Y-47083579D01*
X57548463Y-47040224D01*
X57625000Y-47025000D01*
X58025000Y-47025000D01*
X58101537Y-47040224D01*
G37*
G36*
X43336104Y-46842127D02*
G01*
X43409099Y-46890901D01*
X43457873Y-46963896D01*
X43475000Y-47050000D01*
X43475000Y-47500000D01*
X43457873Y-47586104D01*
X43409099Y-47659099D01*
X43336104Y-47707873D01*
X43250000Y-47725000D01*
X42750000Y-47725000D01*
X42663896Y-47707873D01*
X42590901Y-47659099D01*
X42542127Y-47586104D01*
X42525000Y-47500000D01*
X42525000Y-47050000D01*
X42542127Y-46963896D01*
X42590901Y-46890901D01*
X42663896Y-46842127D01*
X42750000Y-46825000D01*
X43250000Y-46825000D01*
X43336104Y-46842127D01*
G37*
G36*
X49955300Y-47627000D02*
G01*
X49193300Y-47627000D01*
X49193300Y-47373000D01*
X49955300Y-47373000D01*
X49955300Y-47627000D01*
G37*
G36*
X54806700Y-47627000D02*
G01*
X54044700Y-47627000D01*
X54044700Y-47373000D01*
X54806700Y-47373000D01*
X54806700Y-47627000D01*
G37*
G36*
X38451537Y-46540224D02*
G01*
X38516421Y-46583579D01*
X38559776Y-46648463D01*
X38575000Y-46725000D01*
X38575000Y-47275000D01*
X38559776Y-47351537D01*
X38516421Y-47416421D01*
X38451537Y-47459776D01*
X38375000Y-47475000D01*
X37975000Y-47475000D01*
X37898463Y-47459776D01*
X37833579Y-47416421D01*
X37790224Y-47351537D01*
X37775000Y-47275000D01*
X37775000Y-46725000D01*
X37790224Y-46648463D01*
X37833579Y-46583579D01*
X37898463Y-46540224D01*
X37975000Y-46525000D01*
X38375000Y-46525000D01*
X38451537Y-46540224D01*
G37*
G36*
X40101537Y-46540224D02*
G01*
X40166421Y-46583579D01*
X40209776Y-46648463D01*
X40225000Y-46725000D01*
X40225000Y-47275000D01*
X40209776Y-47351537D01*
X40166421Y-47416421D01*
X40101537Y-47459776D01*
X40025000Y-47475000D01*
X39625000Y-47475000D01*
X39548463Y-47459776D01*
X39483579Y-47416421D01*
X39440224Y-47351537D01*
X39425000Y-47275000D01*
X39425000Y-46725000D01*
X39440224Y-46648463D01*
X39483579Y-46583579D01*
X39548463Y-46540224D01*
X39625000Y-46525000D01*
X40025000Y-46525000D01*
X40101537Y-46540224D01*
G37*
G36*
X45536104Y-46042127D02*
G01*
X45609099Y-46090901D01*
X45657873Y-46163896D01*
X45675000Y-46250000D01*
X45675000Y-46750000D01*
X45657873Y-46836104D01*
X45609099Y-46909099D01*
X45536104Y-46957873D01*
X45450000Y-46975000D01*
X45000000Y-46975000D01*
X44913896Y-46957873D01*
X44840901Y-46909099D01*
X44792127Y-46836104D01*
X44775000Y-46750000D01*
X44775000Y-46250000D01*
X44792127Y-46163896D01*
X44840901Y-46090901D01*
X44913896Y-46042127D01*
X45000000Y-46025000D01*
X45450000Y-46025000D01*
X45536104Y-46042127D01*
G37*
G36*
X47086104Y-46042127D02*
G01*
X47159099Y-46090901D01*
X47207873Y-46163896D01*
X47225000Y-46250000D01*
X47225000Y-46750000D01*
X47207873Y-46836104D01*
X47159099Y-46909099D01*
X47086104Y-46957873D01*
X47000000Y-46975000D01*
X46550000Y-46975000D01*
X46463896Y-46957873D01*
X46390901Y-46909099D01*
X46342127Y-46836104D01*
X46325000Y-46750000D01*
X46325000Y-46250000D01*
X46342127Y-46163896D01*
X46390901Y-46090901D01*
X46463896Y-46042127D01*
X46550000Y-46025000D01*
X47000000Y-46025000D01*
X47086104Y-46042127D01*
G37*
G36*
X50627000Y-46955300D02*
G01*
X50373000Y-46955300D01*
X50373000Y-46193300D01*
X50627000Y-46193300D01*
X50627000Y-46955300D01*
G37*
G36*
X51126999Y-46955300D02*
G01*
X50872999Y-46955300D01*
X50872999Y-46193300D01*
X51126999Y-46193300D01*
X51126999Y-46955300D01*
G37*
G36*
X51627001Y-46955300D02*
G01*
X51373001Y-46955300D01*
X51373001Y-46193300D01*
X51627001Y-46193300D01*
X51627001Y-46955300D01*
G37*
G36*
X52127000Y-46955300D02*
G01*
X51873000Y-46955300D01*
X51873000Y-46193300D01*
X52127000Y-46193300D01*
X52127000Y-46955300D01*
G37*
G36*
X52626999Y-46955300D02*
G01*
X52372999Y-46955300D01*
X52372999Y-46193300D01*
X52626999Y-46193300D01*
X52626999Y-46955300D01*
G37*
G36*
X53127001Y-46955300D02*
G01*
X52873001Y-46955300D01*
X52873001Y-46193300D01*
X53127001Y-46193300D01*
X53127001Y-46955300D01*
G37*
G36*
X53627000Y-46955300D02*
G01*
X53373000Y-46955300D01*
X53373000Y-46193300D01*
X53627000Y-46193300D01*
X53627000Y-46955300D01*
G37*
G36*
X34600000Y-46950000D02*
G01*
X33200000Y-46950000D01*
X33200000Y-45750000D01*
X34600000Y-45750000D01*
X34600000Y-46950000D01*
G37*
G36*
X36800000Y-46950000D02*
G01*
X35400000Y-46950000D01*
X35400000Y-45750000D01*
X36800000Y-45750000D01*
X36800000Y-46950000D01*
G37*
G36*
X29075000Y-46225000D02*
G01*
X27375000Y-46225000D01*
X27375000Y-44525000D01*
X29075000Y-44525000D01*
X29075000Y-46225000D01*
G37*
G36*
X31027664Y-44566602D02*
G01*
X31190000Y-44638878D01*
X31333761Y-44743327D01*
X31452664Y-44875383D01*
X31541514Y-45029274D01*
X31596425Y-45198275D01*
X31615000Y-45375000D01*
X31596425Y-45551725D01*
X31541514Y-45720726D01*
X31452664Y-45874617D01*
X31333761Y-46006673D01*
X31190000Y-46111122D01*
X31027664Y-46183398D01*
X30853849Y-46220344D01*
X30676151Y-46220344D01*
X30502336Y-46183398D01*
X30340000Y-46111122D01*
X30196239Y-46006673D01*
X30077336Y-45874617D01*
X29988486Y-45720726D01*
X29933575Y-45551725D01*
X29915000Y-45375000D01*
X29933575Y-45198275D01*
X29988486Y-45029274D01*
X30077336Y-44875383D01*
X30196239Y-44743327D01*
X30340000Y-44638878D01*
X30502336Y-44566602D01*
X30676151Y-44529656D01*
X30853849Y-44529656D01*
X31027664Y-44566602D01*
G37*
G36*
X43336104Y-45292127D02*
G01*
X43409099Y-45340901D01*
X43457873Y-45413896D01*
X43475000Y-45500000D01*
X43475000Y-45950000D01*
X43457873Y-46036104D01*
X43409099Y-46109099D01*
X43336104Y-46157873D01*
X43250000Y-46175000D01*
X42750000Y-46175000D01*
X42663896Y-46157873D01*
X42590901Y-46109099D01*
X42542127Y-46036104D01*
X42525000Y-45950000D01*
X42525000Y-45500000D01*
X42542127Y-45413896D01*
X42590901Y-45340901D01*
X42663896Y-45292127D01*
X42750000Y-45275000D01*
X43250000Y-45275000D01*
X43336104Y-45292127D01*
G37*
G36*
X38536104Y-45042127D02*
G01*
X38609099Y-45090901D01*
X38657873Y-45163896D01*
X38675000Y-45250000D01*
X38675000Y-45750000D01*
X38657873Y-45836104D01*
X38609099Y-45909099D01*
X38536104Y-45957873D01*
X38450000Y-45975000D01*
X38000000Y-45975000D01*
X37913896Y-45957873D01*
X37840901Y-45909099D01*
X37792127Y-45836104D01*
X37775000Y-45750000D01*
X37775000Y-45250000D01*
X37792127Y-45163896D01*
X37840901Y-45090901D01*
X37913896Y-45042127D01*
X38000000Y-45025000D01*
X38450000Y-45025000D01*
X38536104Y-45042127D01*
G37*
G36*
X40086104Y-45042127D02*
G01*
X40159099Y-45090901D01*
X40207873Y-45163896D01*
X40225000Y-45250000D01*
X40225000Y-45750000D01*
X40207873Y-45836104D01*
X40159099Y-45909099D01*
X40086104Y-45957873D01*
X40000000Y-45975000D01*
X39550000Y-45975000D01*
X39463896Y-45957873D01*
X39390901Y-45909099D01*
X39342127Y-45836104D01*
X39325000Y-45750000D01*
X39325000Y-45250000D01*
X39342127Y-45163896D01*
X39390901Y-45090901D01*
X39463896Y-45042127D01*
X39550000Y-45025000D01*
X40000000Y-45025000D01*
X40086104Y-45042127D01*
G37*
G36*
X34600000Y-45250000D02*
G01*
X33200000Y-45250000D01*
X33200000Y-44050000D01*
X34600000Y-44050000D01*
X34600000Y-45250000D01*
G37*
G36*
X36800000Y-45250000D02*
G01*
X35400000Y-45250000D01*
X35400000Y-44050000D01*
X36800000Y-44050000D01*
X36800000Y-45250000D01*
G37*
G36*
X43336104Y-43842127D02*
G01*
X43409099Y-43890901D01*
X43457873Y-43963896D01*
X43475000Y-44050000D01*
X43475000Y-44500000D01*
X43457873Y-44586104D01*
X43409099Y-44659099D01*
X43336104Y-44707873D01*
X43250000Y-44725000D01*
X42750000Y-44725000D01*
X42663896Y-44707873D01*
X42590901Y-44659099D01*
X42542127Y-44586104D01*
X42525000Y-44500000D01*
X42525000Y-44050000D01*
X42542127Y-43963896D01*
X42590901Y-43890901D01*
X42663896Y-43842127D01*
X42750000Y-43825000D01*
X43250000Y-43825000D01*
X43336104Y-43842127D01*
G37*
G36*
X38536104Y-43542127D02*
G01*
X38609099Y-43590901D01*
X38657873Y-43663896D01*
X38675000Y-43750000D01*
X38675000Y-44250000D01*
X38657873Y-44336104D01*
X38609099Y-44409099D01*
X38536104Y-44457873D01*
X38450000Y-44475000D01*
X38000000Y-44475000D01*
X37913896Y-44457873D01*
X37840901Y-44409099D01*
X37792127Y-44336104D01*
X37775000Y-44250000D01*
X37775000Y-43750000D01*
X37792127Y-43663896D01*
X37840901Y-43590901D01*
X37913896Y-43542127D01*
X38000000Y-43525000D01*
X38450000Y-43525000D01*
X38536104Y-43542127D01*
G37*
G36*
X40086104Y-43542127D02*
G01*
X40159099Y-43590901D01*
X40207873Y-43663896D01*
X40225000Y-43750000D01*
X40225000Y-44250000D01*
X40207873Y-44336104D01*
X40159099Y-44409099D01*
X40086104Y-44457873D01*
X40000000Y-44475000D01*
X39550000Y-44475000D01*
X39463896Y-44457873D01*
X39390901Y-44409099D01*
X39342127Y-44336104D01*
X39325000Y-44250000D01*
X39325000Y-43750000D01*
X39342127Y-43663896D01*
X39390901Y-43590901D01*
X39463896Y-43542127D01*
X39550000Y-43525000D01*
X40000000Y-43525000D01*
X40086104Y-43542127D01*
G37*
G36*
X56451537Y-43540224D02*
G01*
X56516421Y-43583579D01*
X56559776Y-43648463D01*
X56575000Y-43725000D01*
X56575000Y-44275000D01*
X56559776Y-44351537D01*
X56516421Y-44416421D01*
X56451537Y-44459776D01*
X56375000Y-44475000D01*
X55975000Y-44475000D01*
X55898463Y-44459776D01*
X55833579Y-44416421D01*
X55790224Y-44351537D01*
X55775000Y-44275000D01*
X55775000Y-43725000D01*
X55790224Y-43648463D01*
X55833579Y-43583579D01*
X55898463Y-43540224D01*
X55975000Y-43525000D01*
X56375000Y-43525000D01*
X56451537Y-43540224D01*
G37*
G36*
X58101537Y-43540224D02*
G01*
X58166421Y-43583579D01*
X58209776Y-43648463D01*
X58225000Y-43725000D01*
X58225000Y-44275000D01*
X58209776Y-44351537D01*
X58166421Y-44416421D01*
X58101537Y-44459776D01*
X58025000Y-44475000D01*
X57625000Y-44475000D01*
X57548463Y-44459776D01*
X57483579Y-44416421D01*
X57440224Y-44351537D01*
X57425000Y-44275000D01*
X57425000Y-43725000D01*
X57440224Y-43648463D01*
X57483579Y-43583579D01*
X57548463Y-43540224D01*
X57625000Y-43525000D01*
X58025000Y-43525000D01*
X58101537Y-43540224D01*
G37*
G36*
X45536104Y-43042127D02*
G01*
X45609099Y-43090901D01*
X45657873Y-43163896D01*
X45675000Y-43250000D01*
X45675000Y-43750000D01*
X45657873Y-43836104D01*
X45609099Y-43909099D01*
X45536104Y-43957873D01*
X45450000Y-43975000D01*
X45000000Y-43975000D01*
X44913896Y-43957873D01*
X44840901Y-43909099D01*
X44792127Y-43836104D01*
X44775000Y-43750000D01*
X44775000Y-43250000D01*
X44792127Y-43163896D01*
X44840901Y-43090901D01*
X44913896Y-43042127D01*
X45000000Y-43025000D01*
X45450000Y-43025000D01*
X45536104Y-43042127D01*
G37*
G36*
X47086104Y-43042127D02*
G01*
X47159099Y-43090901D01*
X47207873Y-43163896D01*
X47225000Y-43250000D01*
X47225000Y-43750000D01*
X47207873Y-43836104D01*
X47159099Y-43909099D01*
X47086104Y-43957873D01*
X47000000Y-43975000D01*
X46550000Y-43975000D01*
X46463896Y-43957873D01*
X46390901Y-43909099D01*
X46342127Y-43836104D01*
X46325000Y-43750000D01*
X46325000Y-43250000D01*
X46342127Y-43163896D01*
X46390901Y-43090901D01*
X46463896Y-43042127D01*
X46550000Y-43025000D01*
X47000000Y-43025000D01*
X47086104Y-43042127D01*
G37*
G36*
X50627000Y-43806700D02*
G01*
X50373000Y-43806700D01*
X50373000Y-43044700D01*
X50627000Y-43044700D01*
X50627000Y-43806700D01*
G37*
G36*
X51126999Y-43806700D02*
G01*
X50872999Y-43806700D01*
X50872999Y-43044700D01*
X51126999Y-43044700D01*
X51126999Y-43806700D01*
G37*
G36*
X51627001Y-43806700D02*
G01*
X51373001Y-43806700D01*
X51373001Y-43044700D01*
X51627001Y-43044700D01*
X51627001Y-43806700D01*
G37*
G36*
X52127000Y-43806700D02*
G01*
X51873000Y-43806700D01*
X51873000Y-43044700D01*
X52127000Y-43044700D01*
X52127000Y-43806700D01*
G37*
G36*
X52626999Y-43806700D02*
G01*
X52372999Y-43806700D01*
X52372999Y-43044700D01*
X52626999Y-43044700D01*
X52626999Y-43806700D01*
G37*
G36*
X53127001Y-43806700D02*
G01*
X52873001Y-43806700D01*
X52873001Y-43044700D01*
X53127001Y-43044700D01*
X53127001Y-43806700D01*
G37*
G36*
X53627000Y-43806700D02*
G01*
X53373000Y-43806700D01*
X53373000Y-43044700D01*
X53627000Y-43044700D01*
X53627000Y-43806700D01*
G37*
G36*
X34536104Y-42542127D02*
G01*
X34609099Y-42590901D01*
X34657873Y-42663896D01*
X34675000Y-42750000D01*
X34675000Y-43250000D01*
X34657873Y-43336104D01*
X34609099Y-43409099D01*
X34536104Y-43457873D01*
X34450000Y-43475000D01*
X34000000Y-43475000D01*
X33913896Y-43457873D01*
X33840901Y-43409099D01*
X33792127Y-43336104D01*
X33775000Y-43250000D01*
X33775000Y-42750000D01*
X33792127Y-42663896D01*
X33840901Y-42590901D01*
X33913896Y-42542127D01*
X34000000Y-42525000D01*
X34450000Y-42525000D01*
X34536104Y-42542127D01*
G37*
G36*
X36086104Y-42542127D02*
G01*
X36159099Y-42590901D01*
X36207873Y-42663896D01*
X36225000Y-42750000D01*
X36225000Y-43250000D01*
X36207873Y-43336104D01*
X36159099Y-43409099D01*
X36086104Y-43457873D01*
X36000000Y-43475000D01*
X35550000Y-43475000D01*
X35463896Y-43457873D01*
X35390901Y-43409099D01*
X35342127Y-43336104D01*
X35325000Y-43250000D01*
X35325000Y-42750000D01*
X35342127Y-42663896D01*
X35390901Y-42590901D01*
X35463896Y-42542127D01*
X35550000Y-42525000D01*
X36000000Y-42525000D01*
X36086104Y-42542127D01*
G37*
G36*
X60762664Y-41756602D02*
G01*
X60925000Y-41828878D01*
X61068761Y-41933327D01*
X61187664Y-42065383D01*
X61276514Y-42219274D01*
X61331425Y-42388275D01*
X61350000Y-42565000D01*
X61331425Y-42741725D01*
X61276514Y-42910726D01*
X61187664Y-43064617D01*
X61068761Y-43196673D01*
X60925000Y-43301122D01*
X60762664Y-43373398D01*
X60588849Y-43410344D01*
X60411151Y-43410344D01*
X60237336Y-43373398D01*
X60075000Y-43301122D01*
X59931239Y-43196673D01*
X59812336Y-43064617D01*
X59723486Y-42910726D01*
X59668575Y-42741725D01*
X59650000Y-42565000D01*
X59668575Y-42388275D01*
X59723486Y-42219274D01*
X59812336Y-42065383D01*
X59931239Y-41933327D01*
X60075000Y-41828878D01*
X60237336Y-41756602D01*
X60411151Y-41719656D01*
X60588849Y-41719656D01*
X60762664Y-41756602D01*
G37*
G36*
X43336104Y-42292127D02*
G01*
X43409099Y-42340901D01*
X43457873Y-42413896D01*
X43475000Y-42500000D01*
X43475000Y-42950000D01*
X43457873Y-43036104D01*
X43409099Y-43109099D01*
X43336104Y-43157873D01*
X43250000Y-43175000D01*
X42750000Y-43175000D01*
X42663896Y-43157873D01*
X42590901Y-43109099D01*
X42542127Y-43036104D01*
X42525000Y-42950000D01*
X42525000Y-42500000D01*
X42542127Y-42413896D01*
X42590901Y-42340901D01*
X42663896Y-42292127D01*
X42750000Y-42275000D01*
X43250000Y-42275000D01*
X43336104Y-42292127D01*
G37*
G36*
X38536104Y-42042127D02*
G01*
X38609099Y-42090901D01*
X38657873Y-42163896D01*
X38675000Y-42250000D01*
X38675000Y-42750000D01*
X38657873Y-42836104D01*
X38609099Y-42909099D01*
X38536104Y-42957873D01*
X38450000Y-42975000D01*
X38000000Y-42975000D01*
X37913896Y-42957873D01*
X37840901Y-42909099D01*
X37792127Y-42836104D01*
X37775000Y-42750000D01*
X37775000Y-42250000D01*
X37792127Y-42163896D01*
X37840901Y-42090901D01*
X37913896Y-42042127D01*
X38000000Y-42025000D01*
X38450000Y-42025000D01*
X38536104Y-42042127D01*
G37*
G36*
X40086104Y-42042127D02*
G01*
X40159099Y-42090901D01*
X40207873Y-42163896D01*
X40225000Y-42250000D01*
X40225000Y-42750000D01*
X40207873Y-42836104D01*
X40159099Y-42909099D01*
X40086104Y-42957873D01*
X40000000Y-42975000D01*
X39550000Y-42975000D01*
X39463896Y-42957873D01*
X39390901Y-42909099D01*
X39342127Y-42836104D01*
X39325000Y-42750000D01*
X39325000Y-42250000D01*
X39342127Y-42163896D01*
X39390901Y-42090901D01*
X39463896Y-42042127D01*
X39550000Y-42025000D01*
X40000000Y-42025000D01*
X40086104Y-42042127D01*
G37*
G36*
X56536104Y-42042127D02*
G01*
X56609099Y-42090901D01*
X56657873Y-42163896D01*
X56675000Y-42250000D01*
X56675000Y-42750000D01*
X56657873Y-42836104D01*
X56609099Y-42909099D01*
X56536104Y-42957873D01*
X56450000Y-42975000D01*
X56000000Y-42975000D01*
X55913896Y-42957873D01*
X55840901Y-42909099D01*
X55792127Y-42836104D01*
X55775000Y-42750000D01*
X55775000Y-42250000D01*
X55792127Y-42163896D01*
X55840901Y-42090901D01*
X55913896Y-42042127D01*
X56000000Y-42025000D01*
X56450000Y-42025000D01*
X56536104Y-42042127D01*
G37*
G36*
X58086104Y-42042127D02*
G01*
X58159099Y-42090901D01*
X58207873Y-42163896D01*
X58225000Y-42250000D01*
X58225000Y-42750000D01*
X58207873Y-42836104D01*
X58159099Y-42909099D01*
X58086104Y-42957873D01*
X58000000Y-42975000D01*
X57550000Y-42975000D01*
X57463896Y-42957873D01*
X57390901Y-42909099D01*
X57342127Y-42836104D01*
X57325000Y-42750000D01*
X57325000Y-42250000D01*
X57342127Y-42163896D01*
X57390901Y-42090901D01*
X57463896Y-42042127D01*
X57550000Y-42025000D01*
X58000000Y-42025000D01*
X58086104Y-42042127D01*
G37*
G36*
X53676400Y-42676400D02*
G01*
X50323600Y-42676400D01*
X50323600Y-39323600D01*
X53676400Y-39323600D01*
X53676400Y-42676400D01*
G37*
G36*
X49955300Y-42627000D02*
G01*
X49193300Y-42627000D01*
X49193300Y-42373000D01*
X49955300Y-42373000D01*
X49955300Y-42627000D01*
G37*
G36*
X54806700Y-42627000D02*
G01*
X54044700Y-42627000D01*
X54044700Y-42373000D01*
X54806700Y-42373000D01*
X54806700Y-42627000D01*
G37*
G36*
X45600000Y-42450000D02*
G01*
X44200000Y-42450000D01*
X44200000Y-41250000D01*
X45600000Y-41250000D01*
X45600000Y-42450000D01*
G37*
G36*
X47800000Y-42450000D02*
G01*
X46400000Y-42450000D01*
X46400000Y-41250000D01*
X47800000Y-41250000D01*
X47800000Y-42450000D01*
G37*
G36*
X49955300Y-42127001D02*
G01*
X49193300Y-42127001D01*
X49193300Y-41873001D01*
X49955300Y-41873001D01*
X49955300Y-42127001D01*
G37*
G36*
X54806700Y-42127001D02*
G01*
X54044700Y-42127001D01*
X54044700Y-41873001D01*
X54806700Y-41873001D01*
X54806700Y-42127001D01*
G37*
G36*
X49955300Y-41626999D02*
G01*
X49193300Y-41626999D01*
X49193300Y-41372999D01*
X49955300Y-41372999D01*
X49955300Y-41626999D01*
G37*
G36*
X54806700Y-41626999D02*
G01*
X54044700Y-41626999D01*
X54044700Y-41372999D01*
X54806700Y-41372999D01*
X54806700Y-41626999D01*
G37*
G36*
X49955300Y-41127000D02*
G01*
X49193300Y-41127000D01*
X49193300Y-40873000D01*
X49955300Y-40873000D01*
X49955300Y-41127000D01*
G37*
G36*
X54806700Y-41127000D02*
G01*
X54044700Y-41127000D01*
X54044700Y-40873000D01*
X54806700Y-40873000D01*
X54806700Y-41127000D01*
G37*
G36*
X56536104Y-40042127D02*
G01*
X56609099Y-40090901D01*
X56657873Y-40163896D01*
X56675000Y-40250000D01*
X56675000Y-40750000D01*
X56657873Y-40836104D01*
X56609099Y-40909099D01*
X56536104Y-40957873D01*
X56450000Y-40975000D01*
X56000000Y-40975000D01*
X55913896Y-40957873D01*
X55840901Y-40909099D01*
X55792127Y-40836104D01*
X55775000Y-40750000D01*
X55775000Y-40250000D01*
X55792127Y-40163896D01*
X55840901Y-40090901D01*
X55913896Y-40042127D01*
X56000000Y-40025000D01*
X56450000Y-40025000D01*
X56536104Y-40042127D01*
G37*
G36*
X58086104Y-40042127D02*
G01*
X58159099Y-40090901D01*
X58207873Y-40163896D01*
X58225000Y-40250000D01*
X58225000Y-40750000D01*
X58207873Y-40836104D01*
X58159099Y-40909099D01*
X58086104Y-40957873D01*
X58000000Y-40975000D01*
X57550000Y-40975000D01*
X57463896Y-40957873D01*
X57390901Y-40909099D01*
X57342127Y-40836104D01*
X57325000Y-40750000D01*
X57325000Y-40250000D01*
X57342127Y-40163896D01*
X57390901Y-40090901D01*
X57463896Y-40042127D01*
X57550000Y-40025000D01*
X58000000Y-40025000D01*
X58086104Y-40042127D01*
G37*
G36*
X34469134Y-40003806D02*
G01*
X34485355Y-40014645D01*
X34496194Y-40030866D01*
X34500000Y-40050000D01*
X34500000Y-40825000D01*
X34496194Y-40844134D01*
X34485355Y-40860355D01*
X34469134Y-40871194D01*
X34450000Y-40875000D01*
X34350000Y-40875000D01*
X34330866Y-40871194D01*
X34314645Y-40860355D01*
X34303806Y-40844134D01*
X34300000Y-40825000D01*
X34300000Y-40050000D01*
X34303806Y-40030866D01*
X34314645Y-40014645D01*
X34330866Y-40003806D01*
X34350000Y-40000000D01*
X34450000Y-40000000D01*
X34469134Y-40003806D01*
G37*
G36*
X34869134Y-40003806D02*
G01*
X34885355Y-40014645D01*
X34896194Y-40030866D01*
X34900000Y-40050000D01*
X34900000Y-40825000D01*
X34896194Y-40844134D01*
X34885355Y-40860355D01*
X34869134Y-40871194D01*
X34850000Y-40875000D01*
X34750000Y-40875000D01*
X34730866Y-40871194D01*
X34714645Y-40860355D01*
X34703806Y-40844134D01*
X34700000Y-40825000D01*
X34700000Y-40050000D01*
X34703806Y-40030866D01*
X34714645Y-40014645D01*
X34730866Y-40003806D01*
X34750000Y-40000000D01*
X34850000Y-40000000D01*
X34869134Y-40003806D01*
G37*
G36*
X35269134Y-40003806D02*
G01*
X35285355Y-40014645D01*
X35296194Y-40030866D01*
X35300000Y-40050000D01*
X35300000Y-40825000D01*
X35296194Y-40844134D01*
X35285355Y-40860355D01*
X35269134Y-40871194D01*
X35250000Y-40875000D01*
X35150000Y-40875000D01*
X35130866Y-40871194D01*
X35114645Y-40860355D01*
X35103806Y-40844134D01*
X35100000Y-40825000D01*
X35100000Y-40050000D01*
X35103806Y-40030866D01*
X35114645Y-40014645D01*
X35130866Y-40003806D01*
X35150000Y-40000000D01*
X35250000Y-40000000D01*
X35269134Y-40003806D01*
G37*
G36*
X35669134Y-40003806D02*
G01*
X35685355Y-40014645D01*
X35696194Y-40030866D01*
X35700000Y-40050000D01*
X35700000Y-40825000D01*
X35696194Y-40844134D01*
X35685355Y-40860355D01*
X35669134Y-40871194D01*
X35650000Y-40875000D01*
X35550000Y-40875000D01*
X35530866Y-40871194D01*
X35514645Y-40860355D01*
X35503806Y-40844134D01*
X35500000Y-40825000D01*
X35500000Y-40050000D01*
X35503806Y-40030866D01*
X35514645Y-40014645D01*
X35530866Y-40003806D01*
X35550000Y-40000000D01*
X35650000Y-40000000D01*
X35669134Y-40003806D01*
G37*
G36*
X36069134Y-40003806D02*
G01*
X36085355Y-40014645D01*
X36096194Y-40030866D01*
X36100000Y-40050000D01*
X36100000Y-40825000D01*
X36096194Y-40844134D01*
X36085355Y-40860355D01*
X36069134Y-40871194D01*
X36050000Y-40875000D01*
X35950000Y-40875000D01*
X35930866Y-40871194D01*
X35914645Y-40860355D01*
X35903806Y-40844134D01*
X35900000Y-40825000D01*
X35900000Y-40050000D01*
X35903806Y-40030866D01*
X35914645Y-40014645D01*
X35930866Y-40003806D01*
X35950000Y-40000000D01*
X36050000Y-40000000D01*
X36069134Y-40003806D01*
G37*
G36*
X36469134Y-40003806D02*
G01*
X36485355Y-40014645D01*
X36496194Y-40030866D01*
X36500000Y-40050000D01*
X36500000Y-40825000D01*
X36496194Y-40844134D01*
X36485355Y-40860355D01*
X36469134Y-40871194D01*
X36450000Y-40875000D01*
X36350000Y-40875000D01*
X36330866Y-40871194D01*
X36314645Y-40860355D01*
X36303806Y-40844134D01*
X36300000Y-40825000D01*
X36300000Y-40050000D01*
X36303806Y-40030866D01*
X36314645Y-40014645D01*
X36330866Y-40003806D01*
X36350000Y-40000000D01*
X36450000Y-40000000D01*
X36469134Y-40003806D01*
G37*
G36*
X36869134Y-40003806D02*
G01*
X36885355Y-40014645D01*
X36896194Y-40030866D01*
X36900000Y-40050000D01*
X36900000Y-40825000D01*
X36896194Y-40844134D01*
X36885355Y-40860355D01*
X36869134Y-40871194D01*
X36850000Y-40875000D01*
X36750000Y-40875000D01*
X36730866Y-40871194D01*
X36714645Y-40860355D01*
X36703806Y-40844134D01*
X36700000Y-40825000D01*
X36700000Y-40050000D01*
X36703806Y-40030866D01*
X36714645Y-40014645D01*
X36730866Y-40003806D01*
X36750000Y-40000000D01*
X36850000Y-40000000D01*
X36869134Y-40003806D01*
G37*
G36*
X37269134Y-40003806D02*
G01*
X37285355Y-40014645D01*
X37296194Y-40030866D01*
X37300000Y-40050000D01*
X37300000Y-40825000D01*
X37296194Y-40844134D01*
X37285355Y-40860355D01*
X37269134Y-40871194D01*
X37250000Y-40875000D01*
X37150000Y-40875000D01*
X37130866Y-40871194D01*
X37114645Y-40860355D01*
X37103806Y-40844134D01*
X37100000Y-40825000D01*
X37100000Y-40050000D01*
X37103806Y-40030866D01*
X37114645Y-40014645D01*
X37130866Y-40003806D01*
X37150000Y-40000000D01*
X37250000Y-40000000D01*
X37269134Y-40003806D01*
G37*
G36*
X37669134Y-40003806D02*
G01*
X37685355Y-40014645D01*
X37696194Y-40030866D01*
X37700000Y-40050000D01*
X37700000Y-40825000D01*
X37696194Y-40844134D01*
X37685355Y-40860355D01*
X37669134Y-40871194D01*
X37650000Y-40875000D01*
X37550000Y-40875000D01*
X37530866Y-40871194D01*
X37514645Y-40860355D01*
X37503806Y-40844134D01*
X37500000Y-40825000D01*
X37500000Y-40050000D01*
X37503806Y-40030866D01*
X37514645Y-40014645D01*
X37530866Y-40003806D01*
X37550000Y-40000000D01*
X37650000Y-40000000D01*
X37669134Y-40003806D01*
G37*
G36*
X38069134Y-40003806D02*
G01*
X38085355Y-40014645D01*
X38096194Y-40030866D01*
X38100000Y-40050000D01*
X38100000Y-40825000D01*
X38096194Y-40844134D01*
X38085355Y-40860355D01*
X38069134Y-40871194D01*
X38050000Y-40875000D01*
X37950000Y-40875000D01*
X37930866Y-40871194D01*
X37914645Y-40860355D01*
X37903806Y-40844134D01*
X37900000Y-40825000D01*
X37900000Y-40050000D01*
X37903806Y-40030866D01*
X37914645Y-40014645D01*
X37930866Y-40003806D01*
X37950000Y-40000000D01*
X38050000Y-40000000D01*
X38069134Y-40003806D01*
G37*
G36*
X38469134Y-40003806D02*
G01*
X38485355Y-40014645D01*
X38496194Y-40030866D01*
X38500000Y-40050000D01*
X38500000Y-40825000D01*
X38496194Y-40844134D01*
X38485355Y-40860355D01*
X38469134Y-40871194D01*
X38450000Y-40875000D01*
X38350000Y-40875000D01*
X38330866Y-40871194D01*
X38314645Y-40860355D01*
X38303806Y-40844134D01*
X38300000Y-40825000D01*
X38300000Y-40050000D01*
X38303806Y-40030866D01*
X38314645Y-40014645D01*
X38330866Y-40003806D01*
X38350000Y-40000000D01*
X38450000Y-40000000D01*
X38469134Y-40003806D01*
G37*
G36*
X38869134Y-40003806D02*
G01*
X38885355Y-40014645D01*
X38896194Y-40030866D01*
X38900000Y-40050000D01*
X38900000Y-40825000D01*
X38896194Y-40844134D01*
X38885355Y-40860355D01*
X38869134Y-40871194D01*
X38850000Y-40875000D01*
X38750000Y-40875000D01*
X38730866Y-40871194D01*
X38714645Y-40860355D01*
X38703806Y-40844134D01*
X38700000Y-40825000D01*
X38700000Y-40050000D01*
X38703806Y-40030866D01*
X38714645Y-40014645D01*
X38730866Y-40003806D01*
X38750000Y-40000000D01*
X38850000Y-40000000D01*
X38869134Y-40003806D01*
G37*
G36*
X39269134Y-40003806D02*
G01*
X39285355Y-40014645D01*
X39296194Y-40030866D01*
X39300000Y-40050000D01*
X39300000Y-40825000D01*
X39296194Y-40844134D01*
X39285355Y-40860355D01*
X39269134Y-40871194D01*
X39250000Y-40875000D01*
X39150000Y-40875000D01*
X39130866Y-40871194D01*
X39114645Y-40860355D01*
X39103806Y-40844134D01*
X39100000Y-40825000D01*
X39100000Y-40050000D01*
X39103806Y-40030866D01*
X39114645Y-40014645D01*
X39130866Y-40003806D01*
X39150000Y-40000000D01*
X39250000Y-40000000D01*
X39269134Y-40003806D01*
G37*
G36*
X39669134Y-40003806D02*
G01*
X39685355Y-40014645D01*
X39696194Y-40030866D01*
X39700000Y-40050000D01*
X39700000Y-40825000D01*
X39696194Y-40844134D01*
X39685355Y-40860355D01*
X39669134Y-40871194D01*
X39650000Y-40875000D01*
X39550000Y-40875000D01*
X39530866Y-40871194D01*
X39514645Y-40860355D01*
X39503806Y-40844134D01*
X39500000Y-40825000D01*
X39500000Y-40050000D01*
X39503806Y-40030866D01*
X39514645Y-40014645D01*
X39530866Y-40003806D01*
X39550000Y-40000000D01*
X39650000Y-40000000D01*
X39669134Y-40003806D01*
G37*
G36*
X61350000Y-40875000D02*
G01*
X59650000Y-40875000D01*
X59650000Y-39175000D01*
X61350000Y-39175000D01*
X61350000Y-40875000D01*
G37*
G36*
X45600000Y-40750000D02*
G01*
X44200000Y-40750000D01*
X44200000Y-39550000D01*
X45600000Y-39550000D01*
X45600000Y-40750000D01*
G37*
G36*
X47800000Y-40750000D02*
G01*
X46400000Y-40750000D01*
X46400000Y-39550000D01*
X47800000Y-39550000D01*
X47800000Y-40750000D01*
G37*
G36*
X49955300Y-40627001D02*
G01*
X49193300Y-40627001D01*
X49193300Y-40373001D01*
X49955300Y-40373001D01*
X49955300Y-40627001D01*
G37*
G36*
X54806700Y-40627001D02*
G01*
X54044700Y-40627001D01*
X54044700Y-40373001D01*
X54806700Y-40373001D01*
X54806700Y-40627001D01*
G37*
G36*
X49955300Y-40126999D02*
G01*
X49193300Y-40126999D01*
X49193300Y-39872999D01*
X49955300Y-39872999D01*
X49955300Y-40126999D01*
G37*
G36*
X54806700Y-40126999D02*
G01*
X54044700Y-40126999D01*
X54044700Y-39872999D01*
X54806700Y-39872999D01*
X54806700Y-40126999D01*
G37*
G36*
X43336104Y-38842127D02*
G01*
X43409099Y-38890901D01*
X43457873Y-38963896D01*
X43475000Y-39050000D01*
X43475000Y-39500000D01*
X43457873Y-39586104D01*
X43409099Y-39659099D01*
X43336104Y-39707873D01*
X43250000Y-39725000D01*
X42750000Y-39725000D01*
X42663896Y-39707873D01*
X42590901Y-39659099D01*
X42542127Y-39586104D01*
X42525000Y-39500000D01*
X42525000Y-39050000D01*
X42542127Y-38963896D01*
X42590901Y-38890901D01*
X42663896Y-38842127D01*
X42750000Y-38825000D01*
X43250000Y-38825000D01*
X43336104Y-38842127D01*
G37*
G36*
X33969134Y-39503806D02*
G01*
X33985355Y-39514645D01*
X33996194Y-39530866D01*
X34000000Y-39550000D01*
X34000000Y-39650000D01*
X33996194Y-39669134D01*
X33985355Y-39685355D01*
X33969134Y-39696194D01*
X33950000Y-39700000D01*
X33175000Y-39700000D01*
X33155866Y-39696194D01*
X33139645Y-39685355D01*
X33128806Y-39669134D01*
X33125000Y-39650000D01*
X33125000Y-39550000D01*
X33128806Y-39530866D01*
X33139645Y-39514645D01*
X33155866Y-39503806D01*
X33175000Y-39500000D01*
X33950000Y-39500000D01*
X33969134Y-39503806D01*
G37*
G36*
X40844134Y-39503806D02*
G01*
X40860355Y-39514645D01*
X40871194Y-39530866D01*
X40875000Y-39550000D01*
X40875000Y-39650000D01*
X40871194Y-39669134D01*
X40860355Y-39685355D01*
X40844134Y-39696194D01*
X40825000Y-39700000D01*
X40050000Y-39700000D01*
X40030866Y-39696194D01*
X40014645Y-39685355D01*
X40003806Y-39669134D01*
X40000000Y-39650000D01*
X40000000Y-39550000D01*
X40003806Y-39530866D01*
X40014645Y-39514645D01*
X40030866Y-39503806D01*
X40050000Y-39500000D01*
X40825000Y-39500000D01*
X40844134Y-39503806D01*
G37*
G36*
X49955300Y-39627000D02*
G01*
X49193300Y-39627000D01*
X49193300Y-39373000D01*
X49955300Y-39373000D01*
X49955300Y-39627000D01*
G37*
G36*
X54806700Y-39627000D02*
G01*
X54044700Y-39627000D01*
X54044700Y-39373000D01*
X54806700Y-39373000D01*
X54806700Y-39627000D01*
G37*
G36*
X56451537Y-38540224D02*
G01*
X56516421Y-38583579D01*
X56559776Y-38648463D01*
X56575000Y-38725000D01*
X56575000Y-39275000D01*
X56559776Y-39351537D01*
X56516421Y-39416421D01*
X56451537Y-39459776D01*
X56375000Y-39475000D01*
X55975000Y-39475000D01*
X55898463Y-39459776D01*
X55833579Y-39416421D01*
X55790224Y-39351537D01*
X55775000Y-39275000D01*
X55775000Y-38725000D01*
X55790224Y-38648463D01*
X55833579Y-38583579D01*
X55898463Y-38540224D01*
X55975000Y-38525000D01*
X56375000Y-38525000D01*
X56451537Y-38540224D01*
G37*
G36*
X58101537Y-38540224D02*
G01*
X58166421Y-38583579D01*
X58209776Y-38648463D01*
X58225000Y-38725000D01*
X58225000Y-39275000D01*
X58209776Y-39351537D01*
X58166421Y-39416421D01*
X58101537Y-39459776D01*
X58025000Y-39475000D01*
X57625000Y-39475000D01*
X57548463Y-39459776D01*
X57483579Y-39416421D01*
X57440224Y-39351537D01*
X57425000Y-39275000D01*
X57425000Y-38725000D01*
X57440224Y-38648463D01*
X57483579Y-38583579D01*
X57548463Y-38540224D01*
X57625000Y-38525000D01*
X58025000Y-38525000D01*
X58101537Y-38540224D01*
G37*
G36*
X33969134Y-39103806D02*
G01*
X33985355Y-39114645D01*
X33996194Y-39130866D01*
X34000000Y-39150000D01*
X34000000Y-39250000D01*
X33996194Y-39269134D01*
X33985355Y-39285355D01*
X33969134Y-39296194D01*
X33950000Y-39300000D01*
X33175000Y-39300000D01*
X33155866Y-39296194D01*
X33139645Y-39285355D01*
X33128806Y-39269134D01*
X33125000Y-39250000D01*
X33125000Y-39150000D01*
X33128806Y-39130866D01*
X33139645Y-39114645D01*
X33155866Y-39103806D01*
X33175000Y-39100000D01*
X33950000Y-39100000D01*
X33969134Y-39103806D01*
G37*
G36*
X40844134Y-39103806D02*
G01*
X40860355Y-39114645D01*
X40871194Y-39130866D01*
X40875000Y-39150000D01*
X40875000Y-39250000D01*
X40871194Y-39269134D01*
X40860355Y-39285355D01*
X40844134Y-39296194D01*
X40825000Y-39300000D01*
X40050000Y-39300000D01*
X40030866Y-39296194D01*
X40014645Y-39285355D01*
X40003806Y-39269134D01*
X40000000Y-39250000D01*
X40000000Y-39150000D01*
X40003806Y-39130866D01*
X40014645Y-39114645D01*
X40030866Y-39103806D01*
X40050000Y-39100000D01*
X40825000Y-39100000D01*
X40844134Y-39103806D01*
G37*
G36*
X45536104Y-38042127D02*
G01*
X45609099Y-38090901D01*
X45657873Y-38163896D01*
X45675000Y-38250000D01*
X45675000Y-38750000D01*
X45657873Y-38836104D01*
X45609099Y-38909099D01*
X45536104Y-38957873D01*
X45450000Y-38975000D01*
X45000000Y-38975000D01*
X44913896Y-38957873D01*
X44840901Y-38909099D01*
X44792127Y-38836104D01*
X44775000Y-38750000D01*
X44775000Y-38250000D01*
X44792127Y-38163896D01*
X44840901Y-38090901D01*
X44913896Y-38042127D01*
X45000000Y-38025000D01*
X45450000Y-38025000D01*
X45536104Y-38042127D01*
G37*
G36*
X47086104Y-38042127D02*
G01*
X47159099Y-38090901D01*
X47207873Y-38163896D01*
X47225000Y-38250000D01*
X47225000Y-38750000D01*
X47207873Y-38836104D01*
X47159099Y-38909099D01*
X47086104Y-38957873D01*
X47000000Y-38975000D01*
X46550000Y-38975000D01*
X46463896Y-38957873D01*
X46390901Y-38909099D01*
X46342127Y-38836104D01*
X46325000Y-38750000D01*
X46325000Y-38250000D01*
X46342127Y-38163896D01*
X46390901Y-38090901D01*
X46463896Y-38042127D01*
X46550000Y-38025000D01*
X47000000Y-38025000D01*
X47086104Y-38042127D01*
G37*
G36*
X50627000Y-38955300D02*
G01*
X50373000Y-38955300D01*
X50373000Y-38193300D01*
X50627000Y-38193300D01*
X50627000Y-38955300D01*
G37*
G36*
X51126999Y-38955300D02*
G01*
X50872999Y-38955300D01*
X50872999Y-38193300D01*
X51126999Y-38193300D01*
X51126999Y-38955300D01*
G37*
G36*
X51627001Y-38955300D02*
G01*
X51373001Y-38955300D01*
X51373001Y-38193300D01*
X51627001Y-38193300D01*
X51627001Y-38955300D01*
G37*
G36*
X52127000Y-38955300D02*
G01*
X51873000Y-38955300D01*
X51873000Y-38193300D01*
X52127000Y-38193300D01*
X52127000Y-38955300D01*
G37*
G36*
X52626999Y-38955300D02*
G01*
X52372999Y-38955300D01*
X52372999Y-38193300D01*
X52626999Y-38193300D01*
X52626999Y-38955300D01*
G37*
G36*
X53127001Y-38955300D02*
G01*
X52873001Y-38955300D01*
X52873001Y-38193300D01*
X53127001Y-38193300D01*
X53127001Y-38955300D01*
G37*
G36*
X53627000Y-38955300D02*
G01*
X53373000Y-38955300D01*
X53373000Y-38193300D01*
X53627000Y-38193300D01*
X53627000Y-38955300D01*
G37*
G36*
X33969134Y-38703806D02*
G01*
X33985355Y-38714645D01*
X33996194Y-38730866D01*
X34000000Y-38750000D01*
X34000000Y-38850000D01*
X33996194Y-38869134D01*
X33985355Y-38885355D01*
X33969134Y-38896194D01*
X33950000Y-38900000D01*
X33175000Y-38900000D01*
X33155866Y-38896194D01*
X33139645Y-38885355D01*
X33128806Y-38869134D01*
X33125000Y-38850000D01*
X33125000Y-38750000D01*
X33128806Y-38730866D01*
X33139645Y-38714645D01*
X33155866Y-38703806D01*
X33175000Y-38700000D01*
X33950000Y-38700000D01*
X33969134Y-38703806D01*
G37*
G36*
X40844134Y-38703806D02*
G01*
X40860355Y-38714645D01*
X40871194Y-38730866D01*
X40875000Y-38750000D01*
X40875000Y-38850000D01*
X40871194Y-38869134D01*
X40860355Y-38885355D01*
X40844134Y-38896194D01*
X40825000Y-38900000D01*
X40050000Y-38900000D01*
X40030866Y-38896194D01*
X40014645Y-38885355D01*
X40003806Y-38869134D01*
X40000000Y-38850000D01*
X40000000Y-38750000D01*
X40003806Y-38730866D01*
X40014645Y-38714645D01*
X40030866Y-38703806D01*
X40050000Y-38700000D01*
X40825000Y-38700000D01*
X40844134Y-38703806D01*
G37*
G36*
X38600000Y-38600000D02*
G01*
X35400000Y-38600000D01*
X35400000Y-35400000D01*
X38600000Y-35400000D01*
X38600000Y-38600000D01*
G37*
G36*
X33969134Y-38303806D02*
G01*
X33985355Y-38314645D01*
X33996194Y-38330866D01*
X34000000Y-38350000D01*
X34000000Y-38450000D01*
X33996194Y-38469134D01*
X33985355Y-38485355D01*
X33969134Y-38496194D01*
X33950000Y-38500000D01*
X33175000Y-38500000D01*
X33155866Y-38496194D01*
X33139645Y-38485355D01*
X33128806Y-38469134D01*
X33125000Y-38450000D01*
X33125000Y-38350000D01*
X33128806Y-38330866D01*
X33139645Y-38314645D01*
X33155866Y-38303806D01*
X33175000Y-38300000D01*
X33950000Y-38300000D01*
X33969134Y-38303806D01*
G37*
G36*
X40844134Y-38303806D02*
G01*
X40860355Y-38314645D01*
X40871194Y-38330866D01*
X40875000Y-38350000D01*
X40875000Y-38450000D01*
X40871194Y-38469134D01*
X40860355Y-38485355D01*
X40844134Y-38496194D01*
X40825000Y-38500000D01*
X40050000Y-38500000D01*
X40030866Y-38496194D01*
X40014645Y-38485355D01*
X40003806Y-38469134D01*
X40000000Y-38450000D01*
X40000000Y-38350000D01*
X40003806Y-38330866D01*
X40014645Y-38314645D01*
X40030866Y-38303806D01*
X40050000Y-38300000D01*
X40825000Y-38300000D01*
X40844134Y-38303806D01*
G37*
G36*
X43336104Y-37292127D02*
G01*
X43409099Y-37340901D01*
X43457873Y-37413896D01*
X43475000Y-37500000D01*
X43475000Y-37950000D01*
X43457873Y-38036104D01*
X43409099Y-38109099D01*
X43336104Y-38157873D01*
X43250000Y-38175000D01*
X42750000Y-38175000D01*
X42663896Y-38157873D01*
X42590901Y-38109099D01*
X42542127Y-38036104D01*
X42525000Y-37950000D01*
X42525000Y-37500000D01*
X42542127Y-37413896D01*
X42590901Y-37340901D01*
X42663896Y-37292127D01*
X42750000Y-37275000D01*
X43250000Y-37275000D01*
X43336104Y-37292127D01*
G37*
G36*
X33969134Y-37903806D02*
G01*
X33985355Y-37914645D01*
X33996194Y-37930866D01*
X34000000Y-37950000D01*
X34000000Y-38050000D01*
X33996194Y-38069134D01*
X33985355Y-38085355D01*
X33969134Y-38096194D01*
X33950000Y-38100000D01*
X33175000Y-38100000D01*
X33155866Y-38096194D01*
X33139645Y-38085355D01*
X33128806Y-38069134D01*
X33125000Y-38050000D01*
X33125000Y-37950000D01*
X33128806Y-37930866D01*
X33139645Y-37914645D01*
X33155866Y-37903806D01*
X33175000Y-37900000D01*
X33950000Y-37900000D01*
X33969134Y-37903806D01*
G37*
G36*
X40844134Y-37903806D02*
G01*
X40860355Y-37914645D01*
X40871194Y-37930866D01*
X40875000Y-37950000D01*
X40875000Y-38050000D01*
X40871194Y-38069134D01*
X40860355Y-38085355D01*
X40844134Y-38096194D01*
X40825000Y-38100000D01*
X40050000Y-38100000D01*
X40030866Y-38096194D01*
X40014645Y-38085355D01*
X40003806Y-38069134D01*
X40000000Y-38050000D01*
X40000000Y-37950000D01*
X40003806Y-37930866D01*
X40014645Y-37914645D01*
X40030866Y-37903806D01*
X40050000Y-37900000D01*
X40825000Y-37900000D01*
X40844134Y-37903806D01*
G37*
G36*
X33969134Y-37503806D02*
G01*
X33985355Y-37514645D01*
X33996194Y-37530866D01*
X34000000Y-37550000D01*
X34000000Y-37650000D01*
X33996194Y-37669134D01*
X33985355Y-37685355D01*
X33969134Y-37696194D01*
X33950000Y-37700000D01*
X33175000Y-37700000D01*
X33155866Y-37696194D01*
X33139645Y-37685355D01*
X33128806Y-37669134D01*
X33125000Y-37650000D01*
X33125000Y-37550000D01*
X33128806Y-37530866D01*
X33139645Y-37514645D01*
X33155866Y-37503806D01*
X33175000Y-37500000D01*
X33950000Y-37500000D01*
X33969134Y-37503806D01*
G37*
G36*
X40844134Y-37503806D02*
G01*
X40860355Y-37514645D01*
X40871194Y-37530866D01*
X40875000Y-37550000D01*
X40875000Y-37650000D01*
X40871194Y-37669134D01*
X40860355Y-37685355D01*
X40844134Y-37696194D01*
X40825000Y-37700000D01*
X40050000Y-37700000D01*
X40030866Y-37696194D01*
X40014645Y-37685355D01*
X40003806Y-37669134D01*
X40000000Y-37650000D01*
X40000000Y-37550000D01*
X40003806Y-37530866D01*
X40014645Y-37514645D01*
X40030866Y-37503806D01*
X40050000Y-37500000D01*
X40825000Y-37500000D01*
X40844134Y-37503806D01*
G37*
G36*
X33969134Y-37103806D02*
G01*
X33985355Y-37114645D01*
X33996194Y-37130866D01*
X34000000Y-37150000D01*
X34000000Y-37250000D01*
X33996194Y-37269134D01*
X33985355Y-37285355D01*
X33969134Y-37296194D01*
X33950000Y-37300000D01*
X33175000Y-37300000D01*
X33155866Y-37296194D01*
X33139645Y-37285355D01*
X33128806Y-37269134D01*
X33125000Y-37250000D01*
X33125000Y-37150000D01*
X33128806Y-37130866D01*
X33139645Y-37114645D01*
X33155866Y-37103806D01*
X33175000Y-37100000D01*
X33950000Y-37100000D01*
X33969134Y-37103806D01*
G37*
G36*
X40844134Y-37103806D02*
G01*
X40860355Y-37114645D01*
X40871194Y-37130866D01*
X40875000Y-37150000D01*
X40875000Y-37250000D01*
X40871194Y-37269134D01*
X40860355Y-37285355D01*
X40844134Y-37296194D01*
X40825000Y-37300000D01*
X40050000Y-37300000D01*
X40030866Y-37296194D01*
X40014645Y-37285355D01*
X40003806Y-37269134D01*
X40000000Y-37250000D01*
X40000000Y-37150000D01*
X40003806Y-37130866D01*
X40014645Y-37114645D01*
X40030866Y-37103806D01*
X40050000Y-37100000D01*
X40825000Y-37100000D01*
X40844134Y-37103806D01*
G37*
G36*
X33969134Y-36703806D02*
G01*
X33985355Y-36714645D01*
X33996194Y-36730866D01*
X34000000Y-36750000D01*
X34000000Y-36850000D01*
X33996194Y-36869134D01*
X33985355Y-36885355D01*
X33969134Y-36896194D01*
X33950000Y-36900000D01*
X33175000Y-36900000D01*
X33155866Y-36896194D01*
X33139645Y-36885355D01*
X33128806Y-36869134D01*
X33125000Y-36850000D01*
X33125000Y-36750000D01*
X33128806Y-36730866D01*
X33139645Y-36714645D01*
X33155866Y-36703806D01*
X33175000Y-36700000D01*
X33950000Y-36700000D01*
X33969134Y-36703806D01*
G37*
G36*
X40844134Y-36703806D02*
G01*
X40860355Y-36714645D01*
X40871194Y-36730866D01*
X40875000Y-36750000D01*
X40875000Y-36850000D01*
X40871194Y-36869134D01*
X40860355Y-36885355D01*
X40844134Y-36896194D01*
X40825000Y-36900000D01*
X40050000Y-36900000D01*
X40030866Y-36896194D01*
X40014645Y-36885355D01*
X40003806Y-36869134D01*
X40000000Y-36850000D01*
X40000000Y-36750000D01*
X40003806Y-36730866D01*
X40014645Y-36714645D01*
X40030866Y-36703806D01*
X40050000Y-36700000D01*
X40825000Y-36700000D01*
X40844134Y-36703806D01*
G37*
G36*
X43836104Y-35842127D02*
G01*
X43909099Y-35890901D01*
X43957873Y-35963896D01*
X43975000Y-36050000D01*
X43975000Y-36500000D01*
X43957873Y-36586104D01*
X43909099Y-36659099D01*
X43836104Y-36707873D01*
X43750000Y-36725000D01*
X43250000Y-36725000D01*
X43163896Y-36707873D01*
X43090901Y-36659099D01*
X43042127Y-36586104D01*
X43025000Y-36500000D01*
X43025000Y-36050000D01*
X43042127Y-35963896D01*
X43090901Y-35890901D01*
X43163896Y-35842127D01*
X43250000Y-35825000D01*
X43750000Y-35825000D01*
X43836104Y-35842127D01*
G37*
G36*
X33969134Y-36303806D02*
G01*
X33985355Y-36314645D01*
X33996194Y-36330866D01*
X34000000Y-36350000D01*
X34000000Y-36450000D01*
X33996194Y-36469134D01*
X33985355Y-36485355D01*
X33969134Y-36496194D01*
X33950000Y-36500000D01*
X33175000Y-36500000D01*
X33155866Y-36496194D01*
X33139645Y-36485355D01*
X33128806Y-36469134D01*
X33125000Y-36450000D01*
X33125000Y-36350000D01*
X33128806Y-36330866D01*
X33139645Y-36314645D01*
X33155866Y-36303806D01*
X33175000Y-36300000D01*
X33950000Y-36300000D01*
X33969134Y-36303806D01*
G37*
G36*
X40844134Y-36303806D02*
G01*
X40860355Y-36314645D01*
X40871194Y-36330866D01*
X40875000Y-36350000D01*
X40875000Y-36450000D01*
X40871194Y-36469134D01*
X40860355Y-36485355D01*
X40844134Y-36496194D01*
X40825000Y-36500000D01*
X40050000Y-36500000D01*
X40030866Y-36496194D01*
X40014645Y-36485355D01*
X40003806Y-36469134D01*
X40000000Y-36450000D01*
X40000000Y-36350000D01*
X40003806Y-36330866D01*
X40014645Y-36314645D01*
X40030866Y-36303806D01*
X40050000Y-36300000D01*
X40825000Y-36300000D01*
X40844134Y-36303806D01*
G37*
G36*
X33969134Y-35903806D02*
G01*
X33985355Y-35914645D01*
X33996194Y-35930866D01*
X34000000Y-35950000D01*
X34000000Y-36050000D01*
X33996194Y-36069134D01*
X33985355Y-36085355D01*
X33969134Y-36096194D01*
X33950000Y-36100000D01*
X33175000Y-36100000D01*
X33155866Y-36096194D01*
X33139645Y-36085355D01*
X33128806Y-36069134D01*
X33125000Y-36050000D01*
X33125000Y-35950000D01*
X33128806Y-35930866D01*
X33139645Y-35914645D01*
X33155866Y-35903806D01*
X33175000Y-35900000D01*
X33950000Y-35900000D01*
X33969134Y-35903806D01*
G37*
G36*
X40844134Y-35903806D02*
G01*
X40860355Y-35914645D01*
X40871194Y-35930866D01*
X40875000Y-35950000D01*
X40875000Y-36050000D01*
X40871194Y-36069134D01*
X40860355Y-36085355D01*
X40844134Y-36096194D01*
X40825000Y-36100000D01*
X40050000Y-36100000D01*
X40030866Y-36096194D01*
X40014645Y-36085355D01*
X40003806Y-36069134D01*
X40000000Y-36050000D01*
X40000000Y-35950000D01*
X40003806Y-35930866D01*
X40014645Y-35914645D01*
X40030866Y-35903806D01*
X40050000Y-35900000D01*
X40825000Y-35900000D01*
X40844134Y-35903806D01*
G37*
G36*
X46036104Y-35042127D02*
G01*
X46109099Y-35090901D01*
X46157873Y-35163896D01*
X46175000Y-35250000D01*
X46175000Y-35750000D01*
X46157873Y-35836104D01*
X46109099Y-35909099D01*
X46036104Y-35957873D01*
X45950000Y-35975000D01*
X45500000Y-35975000D01*
X45413896Y-35957873D01*
X45340901Y-35909099D01*
X45292127Y-35836104D01*
X45275000Y-35750000D01*
X45275000Y-35250000D01*
X45292127Y-35163896D01*
X45340901Y-35090901D01*
X45413896Y-35042127D01*
X45500000Y-35025000D01*
X45950000Y-35025000D01*
X46036104Y-35042127D01*
G37*
G36*
X47586104Y-35042127D02*
G01*
X47659099Y-35090901D01*
X47707873Y-35163896D01*
X47725000Y-35250000D01*
X47725000Y-35750000D01*
X47707873Y-35836104D01*
X47659099Y-35909099D01*
X47586104Y-35957873D01*
X47500000Y-35975000D01*
X47050000Y-35975000D01*
X46963896Y-35957873D01*
X46890901Y-35909099D01*
X46842127Y-35836104D01*
X46825000Y-35750000D01*
X46825000Y-35250000D01*
X46842127Y-35163896D01*
X46890901Y-35090901D01*
X46963896Y-35042127D01*
X47050000Y-35025000D01*
X47500000Y-35025000D01*
X47586104Y-35042127D01*
G37*
G36*
X50627000Y-35806700D02*
G01*
X50373000Y-35806700D01*
X50373000Y-35044700D01*
X50627000Y-35044700D01*
X50627000Y-35806700D01*
G37*
G36*
X51126999Y-35806700D02*
G01*
X50872999Y-35806700D01*
X50872999Y-35044700D01*
X51126999Y-35044700D01*
X51126999Y-35806700D01*
G37*
G36*
X51627001Y-35806700D02*
G01*
X51373001Y-35806700D01*
X51373001Y-35044700D01*
X51627001Y-35044700D01*
X51627001Y-35806700D01*
G37*
G36*
X52127000Y-35806700D02*
G01*
X51873000Y-35806700D01*
X51873000Y-35044700D01*
X52127000Y-35044700D01*
X52127000Y-35806700D01*
G37*
G36*
X52626999Y-35806700D02*
G01*
X52372999Y-35806700D01*
X52372999Y-35044700D01*
X52626999Y-35044700D01*
X52626999Y-35806700D01*
G37*
G36*
X53127001Y-35806700D02*
G01*
X52873001Y-35806700D01*
X52873001Y-35044700D01*
X53127001Y-35044700D01*
X53127001Y-35806700D01*
G37*
G36*
X53627000Y-35806700D02*
G01*
X53373000Y-35806700D01*
X53373000Y-35044700D01*
X53627000Y-35044700D01*
X53627000Y-35806700D01*
G37*
G36*
X33969134Y-35503806D02*
G01*
X33985355Y-35514645D01*
X33996194Y-35530866D01*
X34000000Y-35550000D01*
X34000000Y-35650000D01*
X33996194Y-35669134D01*
X33985355Y-35685355D01*
X33969134Y-35696194D01*
X33950000Y-35700000D01*
X33175000Y-35700000D01*
X33155866Y-35696194D01*
X33139645Y-35685355D01*
X33128806Y-35669134D01*
X33125000Y-35650000D01*
X33125000Y-35550000D01*
X33128806Y-35530866D01*
X33139645Y-35514645D01*
X33155866Y-35503806D01*
X33175000Y-35500000D01*
X33950000Y-35500000D01*
X33969134Y-35503806D01*
G37*
G36*
X40844134Y-35503806D02*
G01*
X40860355Y-35514645D01*
X40871194Y-35530866D01*
X40875000Y-35550000D01*
X40875000Y-35650000D01*
X40871194Y-35669134D01*
X40860355Y-35685355D01*
X40844134Y-35696194D01*
X40825000Y-35700000D01*
X40050000Y-35700000D01*
X40030866Y-35696194D01*
X40014645Y-35685355D01*
X40003806Y-35669134D01*
X40000000Y-35650000D01*
X40000000Y-35550000D01*
X40003806Y-35530866D01*
X40014645Y-35514645D01*
X40030866Y-35503806D01*
X40050000Y-35500000D01*
X40825000Y-35500000D01*
X40844134Y-35503806D01*
G37*
G36*
X56451537Y-34540224D02*
G01*
X56516421Y-34583579D01*
X56559776Y-34648463D01*
X56575000Y-34725000D01*
X56575000Y-35275000D01*
X56559776Y-35351537D01*
X56516421Y-35416421D01*
X56451537Y-35459776D01*
X56375000Y-35475000D01*
X55975000Y-35475000D01*
X55898463Y-35459776D01*
X55833579Y-35416421D01*
X55790224Y-35351537D01*
X55775000Y-35275000D01*
X55775000Y-34725000D01*
X55790224Y-34648463D01*
X55833579Y-34583579D01*
X55898463Y-34540224D01*
X55975000Y-34525000D01*
X56375000Y-34525000D01*
X56451537Y-34540224D01*
G37*
G36*
X58101537Y-34540224D02*
G01*
X58166421Y-34583579D01*
X58209776Y-34648463D01*
X58225000Y-34725000D01*
X58225000Y-35275000D01*
X58209776Y-35351537D01*
X58166421Y-35416421D01*
X58101537Y-35459776D01*
X58025000Y-35475000D01*
X57625000Y-35475000D01*
X57548463Y-35459776D01*
X57483579Y-35416421D01*
X57440224Y-35351537D01*
X57425000Y-35275000D01*
X57425000Y-34725000D01*
X57440224Y-34648463D01*
X57483579Y-34583579D01*
X57548463Y-34540224D01*
X57625000Y-34525000D01*
X58025000Y-34525000D01*
X58101537Y-34540224D01*
G37*
G36*
X33969134Y-35103806D02*
G01*
X33985355Y-35114645D01*
X33996194Y-35130866D01*
X34000000Y-35150000D01*
X34000000Y-35250000D01*
X33996194Y-35269134D01*
X33985355Y-35285355D01*
X33969134Y-35296194D01*
X33950000Y-35300000D01*
X33175000Y-35300000D01*
X33155866Y-35296194D01*
X33139645Y-35285355D01*
X33128806Y-35269134D01*
X33125000Y-35250000D01*
X33125000Y-35150000D01*
X33128806Y-35130866D01*
X33139645Y-35114645D01*
X33155866Y-35103806D01*
X33175000Y-35100000D01*
X33950000Y-35100000D01*
X33969134Y-35103806D01*
G37*
G36*
X40844134Y-35103806D02*
G01*
X40860355Y-35114645D01*
X40871194Y-35130866D01*
X40875000Y-35150000D01*
X40875000Y-35250000D01*
X40871194Y-35269134D01*
X40860355Y-35285355D01*
X40844134Y-35296194D01*
X40825000Y-35300000D01*
X40050000Y-35300000D01*
X40030866Y-35296194D01*
X40014645Y-35285355D01*
X40003806Y-35269134D01*
X40000000Y-35250000D01*
X40000000Y-35150000D01*
X40003806Y-35130866D01*
X40014645Y-35114645D01*
X40030866Y-35103806D01*
X40050000Y-35100000D01*
X40825000Y-35100000D01*
X40844134Y-35103806D01*
G37*
G36*
X28336104Y-34342127D02*
G01*
X28409099Y-34390901D01*
X28457873Y-34463896D01*
X28475000Y-34550000D01*
X28475000Y-35000000D01*
X28457873Y-35086104D01*
X28409099Y-35159099D01*
X28336104Y-35207873D01*
X28250000Y-35225000D01*
X27750000Y-35225000D01*
X27663896Y-35207873D01*
X27590901Y-35159099D01*
X27542127Y-35086104D01*
X27525000Y-35000000D01*
X27525000Y-34550000D01*
X27542127Y-34463896D01*
X27590901Y-34390901D01*
X27663896Y-34342127D01*
X27750000Y-34325000D01*
X28250000Y-34325000D01*
X28336104Y-34342127D01*
G37*
G36*
X29836104Y-34342127D02*
G01*
X29909099Y-34390901D01*
X29957873Y-34463896D01*
X29975000Y-34550000D01*
X29975000Y-35000000D01*
X29957873Y-35086104D01*
X29909099Y-35159099D01*
X29836104Y-35207873D01*
X29750000Y-35225000D01*
X29250000Y-35225000D01*
X29163896Y-35207873D01*
X29090901Y-35159099D01*
X29042127Y-35086104D01*
X29025000Y-35000000D01*
X29025000Y-34550000D01*
X29042127Y-34463896D01*
X29090901Y-34390901D01*
X29163896Y-34342127D01*
X29250000Y-34325000D01*
X29750000Y-34325000D01*
X29836104Y-34342127D01*
G37*
G36*
X31336104Y-34342127D02*
G01*
X31409099Y-34390901D01*
X31457873Y-34463896D01*
X31475000Y-34550000D01*
X31475000Y-35000000D01*
X31457873Y-35086104D01*
X31409099Y-35159099D01*
X31336104Y-35207873D01*
X31250000Y-35225000D01*
X30750000Y-35225000D01*
X30663896Y-35207873D01*
X30590901Y-35159099D01*
X30542127Y-35086104D01*
X30525000Y-35000000D01*
X30525000Y-34550000D01*
X30542127Y-34463896D01*
X30590901Y-34390901D01*
X30663896Y-34342127D01*
X30750000Y-34325000D01*
X31250000Y-34325000D01*
X31336104Y-34342127D01*
G37*
G36*
X43836104Y-34292127D02*
G01*
X43909099Y-34340901D01*
X43957873Y-34413896D01*
X43975000Y-34500000D01*
X43975000Y-34950000D01*
X43957873Y-35036104D01*
X43909099Y-35109099D01*
X43836104Y-35157873D01*
X43750000Y-35175000D01*
X43250000Y-35175000D01*
X43163896Y-35157873D01*
X43090901Y-35109099D01*
X43042127Y-35036104D01*
X43025000Y-34950000D01*
X43025000Y-34500000D01*
X43042127Y-34413896D01*
X43090901Y-34340901D01*
X43163896Y-34292127D01*
X43250000Y-34275000D01*
X43750000Y-34275000D01*
X43836104Y-34292127D01*
G37*
G36*
X33969134Y-34703806D02*
G01*
X33985355Y-34714645D01*
X33996194Y-34730866D01*
X34000000Y-34750000D01*
X34000000Y-34850000D01*
X33996194Y-34869134D01*
X33985355Y-34885355D01*
X33969134Y-34896194D01*
X33950000Y-34900000D01*
X33175000Y-34900000D01*
X33155866Y-34896194D01*
X33139645Y-34885355D01*
X33128806Y-34869134D01*
X33125000Y-34850000D01*
X33125000Y-34750000D01*
X33128806Y-34730866D01*
X33139645Y-34714645D01*
X33155866Y-34703806D01*
X33175000Y-34700000D01*
X33950000Y-34700000D01*
X33969134Y-34703806D01*
G37*
G36*
X40844134Y-34703806D02*
G01*
X40860355Y-34714645D01*
X40871194Y-34730866D01*
X40875000Y-34750000D01*
X40875000Y-34850000D01*
X40871194Y-34869134D01*
X40860355Y-34885355D01*
X40844134Y-34896194D01*
X40825000Y-34900000D01*
X40050000Y-34900000D01*
X40030866Y-34896194D01*
X40014645Y-34885355D01*
X40003806Y-34869134D01*
X40000000Y-34850000D01*
X40000000Y-34750000D01*
X40003806Y-34730866D01*
X40014645Y-34714645D01*
X40030866Y-34703806D01*
X40050000Y-34700000D01*
X40825000Y-34700000D01*
X40844134Y-34703806D01*
G37*
G36*
X60762664Y-33156602D02*
G01*
X60925000Y-33228878D01*
X61068761Y-33333327D01*
X61187664Y-33465383D01*
X61276514Y-33619274D01*
X61331425Y-33788275D01*
X61350000Y-33965000D01*
X61331425Y-34141725D01*
X61276514Y-34310726D01*
X61187664Y-34464617D01*
X61068761Y-34596673D01*
X60925000Y-34701122D01*
X60762664Y-34773398D01*
X60588849Y-34810344D01*
X60411151Y-34810344D01*
X60237336Y-34773398D01*
X60075000Y-34701122D01*
X59931239Y-34596673D01*
X59812336Y-34464617D01*
X59723486Y-34310726D01*
X59668575Y-34141725D01*
X59650000Y-33965000D01*
X59668575Y-33788275D01*
X59723486Y-33619274D01*
X59812336Y-33465383D01*
X59931239Y-33333327D01*
X60075000Y-33228878D01*
X60237336Y-33156602D01*
X60411151Y-33119656D01*
X60588849Y-33119656D01*
X60762664Y-33156602D01*
G37*
G36*
X53676400Y-34676400D02*
G01*
X50323600Y-34676400D01*
X50323600Y-31323600D01*
X53676400Y-31323600D01*
X53676400Y-34676400D01*
G37*
G36*
X49955300Y-34627000D02*
G01*
X49193300Y-34627000D01*
X49193300Y-34373000D01*
X49955300Y-34373000D01*
X49955300Y-34627000D01*
G37*
G36*
X54806700Y-34627000D02*
G01*
X54044700Y-34627000D01*
X54044700Y-34373000D01*
X54806700Y-34373000D01*
X54806700Y-34627000D01*
G37*
G36*
X33969134Y-34303806D02*
G01*
X33985355Y-34314645D01*
X33996194Y-34330866D01*
X34000000Y-34350000D01*
X34000000Y-34450000D01*
X33996194Y-34469134D01*
X33985355Y-34485355D01*
X33969134Y-34496194D01*
X33950000Y-34500000D01*
X33175000Y-34500000D01*
X33155866Y-34496194D01*
X33139645Y-34485355D01*
X33128806Y-34469134D01*
X33125000Y-34450000D01*
X33125000Y-34350000D01*
X33128806Y-34330866D01*
X33139645Y-34314645D01*
X33155866Y-34303806D01*
X33175000Y-34300000D01*
X33950000Y-34300000D01*
X33969134Y-34303806D01*
G37*
G36*
X40844134Y-34303806D02*
G01*
X40860355Y-34314645D01*
X40871194Y-34330866D01*
X40875000Y-34350000D01*
X40875000Y-34450000D01*
X40871194Y-34469134D01*
X40860355Y-34485355D01*
X40844134Y-34496194D01*
X40825000Y-34500000D01*
X40050000Y-34500000D01*
X40030866Y-34496194D01*
X40014645Y-34485355D01*
X40003806Y-34469134D01*
X40000000Y-34450000D01*
X40000000Y-34350000D01*
X40003806Y-34330866D01*
X40014645Y-34314645D01*
X40030866Y-34303806D01*
X40050000Y-34300000D01*
X40825000Y-34300000D01*
X40844134Y-34303806D01*
G37*
G36*
X46100000Y-34450000D02*
G01*
X44700000Y-34450000D01*
X44700000Y-33250000D01*
X46100000Y-33250000D01*
X46100000Y-34450000D01*
G37*
G36*
X48300000Y-34450000D02*
G01*
X46900000Y-34450000D01*
X46900000Y-33250000D01*
X48300000Y-33250000D01*
X48300000Y-34450000D01*
G37*
G36*
X49955300Y-34127001D02*
G01*
X49193300Y-34127001D01*
X49193300Y-33873001D01*
X49955300Y-33873001D01*
X49955300Y-34127001D01*
G37*
G36*
X54806700Y-34127001D02*
G01*
X54044700Y-34127001D01*
X54044700Y-33873001D01*
X54806700Y-33873001D01*
X54806700Y-34127001D01*
G37*
G36*
X34469134Y-33128806D02*
G01*
X34485355Y-33139645D01*
X34496194Y-33155866D01*
X34500000Y-33175000D01*
X34500000Y-33950000D01*
X34496194Y-33969134D01*
X34485355Y-33985355D01*
X34469134Y-33996194D01*
X34450000Y-34000000D01*
X34350000Y-34000000D01*
X34330866Y-33996194D01*
X34314645Y-33985355D01*
X34303806Y-33969134D01*
X34300000Y-33950000D01*
X34300000Y-33175000D01*
X34303806Y-33155866D01*
X34314645Y-33139645D01*
X34330866Y-33128806D01*
X34350000Y-33125000D01*
X34450000Y-33125000D01*
X34469134Y-33128806D01*
G37*
G36*
X34869134Y-33128806D02*
G01*
X34885355Y-33139645D01*
X34896194Y-33155866D01*
X34900000Y-33175000D01*
X34900000Y-33950000D01*
X34896194Y-33969134D01*
X34885355Y-33985355D01*
X34869134Y-33996194D01*
X34850000Y-34000000D01*
X34750000Y-34000000D01*
X34730866Y-33996194D01*
X34714645Y-33985355D01*
X34703806Y-33969134D01*
X34700000Y-33950000D01*
X34700000Y-33175000D01*
X34703806Y-33155866D01*
X34714645Y-33139645D01*
X34730866Y-33128806D01*
X34750000Y-33125000D01*
X34850000Y-33125000D01*
X34869134Y-33128806D01*
G37*
G36*
X35269134Y-33128806D02*
G01*
X35285355Y-33139645D01*
X35296194Y-33155866D01*
X35300000Y-33175000D01*
X35300000Y-33950000D01*
X35296194Y-33969134D01*
X35285355Y-33985355D01*
X35269134Y-33996194D01*
X35250000Y-34000000D01*
X35150000Y-34000000D01*
X35130866Y-33996194D01*
X35114645Y-33985355D01*
X35103806Y-33969134D01*
X35100000Y-33950000D01*
X35100000Y-33175000D01*
X35103806Y-33155866D01*
X35114645Y-33139645D01*
X35130866Y-33128806D01*
X35150000Y-33125000D01*
X35250000Y-33125000D01*
X35269134Y-33128806D01*
G37*
G36*
X35669134Y-33128806D02*
G01*
X35685355Y-33139645D01*
X35696194Y-33155866D01*
X35700000Y-33175000D01*
X35700000Y-33950000D01*
X35696194Y-33969134D01*
X35685355Y-33985355D01*
X35669134Y-33996194D01*
X35650000Y-34000000D01*
X35550000Y-34000000D01*
X35530866Y-33996194D01*
X35514645Y-33985355D01*
X35503806Y-33969134D01*
X35500000Y-33950000D01*
X35500000Y-33175000D01*
X35503806Y-33155866D01*
X35514645Y-33139645D01*
X35530866Y-33128806D01*
X35550000Y-33125000D01*
X35650000Y-33125000D01*
X35669134Y-33128806D01*
G37*
G36*
X36069134Y-33128806D02*
G01*
X36085355Y-33139645D01*
X36096194Y-33155866D01*
X36100000Y-33175000D01*
X36100000Y-33950000D01*
X36096194Y-33969134D01*
X36085355Y-33985355D01*
X36069134Y-33996194D01*
X36050000Y-34000000D01*
X35950000Y-34000000D01*
X35930866Y-33996194D01*
X35914645Y-33985355D01*
X35903806Y-33969134D01*
X35900000Y-33950000D01*
X35900000Y-33175000D01*
X35903806Y-33155866D01*
X35914645Y-33139645D01*
X35930866Y-33128806D01*
X35950000Y-33125000D01*
X36050000Y-33125000D01*
X36069134Y-33128806D01*
G37*
G36*
X36469134Y-33128806D02*
G01*
X36485355Y-33139645D01*
X36496194Y-33155866D01*
X36500000Y-33175000D01*
X36500000Y-33950000D01*
X36496194Y-33969134D01*
X36485355Y-33985355D01*
X36469134Y-33996194D01*
X36450000Y-34000000D01*
X36350000Y-34000000D01*
X36330866Y-33996194D01*
X36314645Y-33985355D01*
X36303806Y-33969134D01*
X36300000Y-33950000D01*
X36300000Y-33175000D01*
X36303806Y-33155866D01*
X36314645Y-33139645D01*
X36330866Y-33128806D01*
X36350000Y-33125000D01*
X36450000Y-33125000D01*
X36469134Y-33128806D01*
G37*
G36*
X36869134Y-33128806D02*
G01*
X36885355Y-33139645D01*
X36896194Y-33155866D01*
X36900000Y-33175000D01*
X36900000Y-33950000D01*
X36896194Y-33969134D01*
X36885355Y-33985355D01*
X36869134Y-33996194D01*
X36850000Y-34000000D01*
X36750000Y-34000000D01*
X36730866Y-33996194D01*
X36714645Y-33985355D01*
X36703806Y-33969134D01*
X36700000Y-33950000D01*
X36700000Y-33175000D01*
X36703806Y-33155866D01*
X36714645Y-33139645D01*
X36730866Y-33128806D01*
X36750000Y-33125000D01*
X36850000Y-33125000D01*
X36869134Y-33128806D01*
G37*
G36*
X37269134Y-33128806D02*
G01*
X37285355Y-33139645D01*
X37296194Y-33155866D01*
X37300000Y-33175000D01*
X37300000Y-33950000D01*
X37296194Y-33969134D01*
X37285355Y-33985355D01*
X37269134Y-33996194D01*
X37250000Y-34000000D01*
X37150000Y-34000000D01*
X37130866Y-33996194D01*
X37114645Y-33985355D01*
X37103806Y-33969134D01*
X37100000Y-33950000D01*
X37100000Y-33175000D01*
X37103806Y-33155866D01*
X37114645Y-33139645D01*
X37130866Y-33128806D01*
X37150000Y-33125000D01*
X37250000Y-33125000D01*
X37269134Y-33128806D01*
G37*
G36*
X37669134Y-33128806D02*
G01*
X37685355Y-33139645D01*
X37696194Y-33155866D01*
X37700000Y-33175000D01*
X37700000Y-33950000D01*
X37696194Y-33969134D01*
X37685355Y-33985355D01*
X37669134Y-33996194D01*
X37650000Y-34000000D01*
X37550000Y-34000000D01*
X37530866Y-33996194D01*
X37514645Y-33985355D01*
X37503806Y-33969134D01*
X37500000Y-33950000D01*
X37500000Y-33175000D01*
X37503806Y-33155866D01*
X37514645Y-33139645D01*
X37530866Y-33128806D01*
X37550000Y-33125000D01*
X37650000Y-33125000D01*
X37669134Y-33128806D01*
G37*
G36*
X38069134Y-33128806D02*
G01*
X38085355Y-33139645D01*
X38096194Y-33155866D01*
X38100000Y-33175000D01*
X38100000Y-33950000D01*
X38096194Y-33969134D01*
X38085355Y-33985355D01*
X38069134Y-33996194D01*
X38050000Y-34000000D01*
X37950000Y-34000000D01*
X37930866Y-33996194D01*
X37914645Y-33985355D01*
X37903806Y-33969134D01*
X37900000Y-33950000D01*
X37900000Y-33175000D01*
X37903806Y-33155866D01*
X37914645Y-33139645D01*
X37930866Y-33128806D01*
X37950000Y-33125000D01*
X38050000Y-33125000D01*
X38069134Y-33128806D01*
G37*
G36*
X38469134Y-33128806D02*
G01*
X38485355Y-33139645D01*
X38496194Y-33155866D01*
X38500000Y-33175000D01*
X38500000Y-33950000D01*
X38496194Y-33969134D01*
X38485355Y-33985355D01*
X38469134Y-33996194D01*
X38450000Y-34000000D01*
X38350000Y-34000000D01*
X38330866Y-33996194D01*
X38314645Y-33985355D01*
X38303806Y-33969134D01*
X38300000Y-33950000D01*
X38300000Y-33175000D01*
X38303806Y-33155866D01*
X38314645Y-33139645D01*
X38330866Y-33128806D01*
X38350000Y-33125000D01*
X38450000Y-33125000D01*
X38469134Y-33128806D01*
G37*
G36*
X38869134Y-33128806D02*
G01*
X38885355Y-33139645D01*
X38896194Y-33155866D01*
X38900000Y-33175000D01*
X38900000Y-33950000D01*
X38896194Y-33969134D01*
X38885355Y-33985355D01*
X38869134Y-33996194D01*
X38850000Y-34000000D01*
X38750000Y-34000000D01*
X38730866Y-33996194D01*
X38714645Y-33985355D01*
X38703806Y-33969134D01*
X38700000Y-33950000D01*
X38700000Y-33175000D01*
X38703806Y-33155866D01*
X38714645Y-33139645D01*
X38730866Y-33128806D01*
X38750000Y-33125000D01*
X38850000Y-33125000D01*
X38869134Y-33128806D01*
G37*
G36*
X39269134Y-33128806D02*
G01*
X39285355Y-33139645D01*
X39296194Y-33155866D01*
X39300000Y-33175000D01*
X39300000Y-33950000D01*
X39296194Y-33969134D01*
X39285355Y-33985355D01*
X39269134Y-33996194D01*
X39250000Y-34000000D01*
X39150000Y-34000000D01*
X39130866Y-33996194D01*
X39114645Y-33985355D01*
X39103806Y-33969134D01*
X39100000Y-33950000D01*
X39100000Y-33175000D01*
X39103806Y-33155866D01*
X39114645Y-33139645D01*
X39130866Y-33128806D01*
X39150000Y-33125000D01*
X39250000Y-33125000D01*
X39269134Y-33128806D01*
G37*
G36*
X39669134Y-33128806D02*
G01*
X39685355Y-33139645D01*
X39696194Y-33155866D01*
X39700000Y-33175000D01*
X39700000Y-33950000D01*
X39696194Y-33969134D01*
X39685355Y-33985355D01*
X39669134Y-33996194D01*
X39650000Y-34000000D01*
X39550000Y-34000000D01*
X39530866Y-33996194D01*
X39514645Y-33985355D01*
X39503806Y-33969134D01*
X39500000Y-33950000D01*
X39500000Y-33175000D01*
X39503806Y-33155866D01*
X39514645Y-33139645D01*
X39530866Y-33128806D01*
X39550000Y-33125000D01*
X39650000Y-33125000D01*
X39669134Y-33128806D01*
G37*
G36*
X56536104Y-33042127D02*
G01*
X56609099Y-33090901D01*
X56657873Y-33163896D01*
X56675000Y-33250000D01*
X56675000Y-33750000D01*
X56657873Y-33836104D01*
X56609099Y-33909099D01*
X56536104Y-33957873D01*
X56450000Y-33975000D01*
X56000000Y-33975000D01*
X55913896Y-33957873D01*
X55840901Y-33909099D01*
X55792127Y-33836104D01*
X55775000Y-33750000D01*
X55775000Y-33250000D01*
X55792127Y-33163896D01*
X55840901Y-33090901D01*
X55913896Y-33042127D01*
X56000000Y-33025000D01*
X56450000Y-33025000D01*
X56536104Y-33042127D01*
G37*
G36*
X58086104Y-33042127D02*
G01*
X58159099Y-33090901D01*
X58207873Y-33163896D01*
X58225000Y-33250000D01*
X58225000Y-33750000D01*
X58207873Y-33836104D01*
X58159099Y-33909099D01*
X58086104Y-33957873D01*
X58000000Y-33975000D01*
X57550000Y-33975000D01*
X57463896Y-33957873D01*
X57390901Y-33909099D01*
X57342127Y-33836104D01*
X57325000Y-33750000D01*
X57325000Y-33250000D01*
X57342127Y-33163896D01*
X57390901Y-33090901D01*
X57463896Y-33042127D01*
X57550000Y-33025000D01*
X58000000Y-33025000D01*
X58086104Y-33042127D01*
G37*
G36*
X28336104Y-32792127D02*
G01*
X28409099Y-32840901D01*
X28457873Y-32913896D01*
X28475000Y-33000000D01*
X28475000Y-33450000D01*
X28457873Y-33536104D01*
X28409099Y-33609099D01*
X28336104Y-33657873D01*
X28250000Y-33675000D01*
X27750000Y-33675000D01*
X27663896Y-33657873D01*
X27590901Y-33609099D01*
X27542127Y-33536104D01*
X27525000Y-33450000D01*
X27525000Y-33000000D01*
X27542127Y-32913896D01*
X27590901Y-32840901D01*
X27663896Y-32792127D01*
X27750000Y-32775000D01*
X28250000Y-32775000D01*
X28336104Y-32792127D01*
G37*
G36*
X29836104Y-32792127D02*
G01*
X29909099Y-32840901D01*
X29957873Y-32913896D01*
X29975000Y-33000000D01*
X29975000Y-33450000D01*
X29957873Y-33536104D01*
X29909099Y-33609099D01*
X29836104Y-33657873D01*
X29750000Y-33675000D01*
X29250000Y-33675000D01*
X29163896Y-33657873D01*
X29090901Y-33609099D01*
X29042127Y-33536104D01*
X29025000Y-33450000D01*
X29025000Y-33000000D01*
X29042127Y-32913896D01*
X29090901Y-32840901D01*
X29163896Y-32792127D01*
X29250000Y-32775000D01*
X29750000Y-32775000D01*
X29836104Y-32792127D01*
G37*
G36*
X31336104Y-32792127D02*
G01*
X31409099Y-32840901D01*
X31457873Y-32913896D01*
X31475000Y-33000000D01*
X31475000Y-33450000D01*
X31457873Y-33536104D01*
X31409099Y-33609099D01*
X31336104Y-33657873D01*
X31250000Y-33675000D01*
X30750000Y-33675000D01*
X30663896Y-33657873D01*
X30590901Y-33609099D01*
X30542127Y-33536104D01*
X30525000Y-33450000D01*
X30525000Y-33000000D01*
X30542127Y-32913896D01*
X30590901Y-32840901D01*
X30663896Y-32792127D01*
X30750000Y-32775000D01*
X31250000Y-32775000D01*
X31336104Y-32792127D01*
G37*
G36*
X49955300Y-33626999D02*
G01*
X49193300Y-33626999D01*
X49193300Y-33372999D01*
X49955300Y-33372999D01*
X49955300Y-33626999D01*
G37*
G36*
X54806700Y-33626999D02*
G01*
X54044700Y-33626999D01*
X54044700Y-33372999D01*
X54806700Y-33372999D01*
X54806700Y-33626999D01*
G37*
G36*
X49955300Y-33127000D02*
G01*
X49193300Y-33127000D01*
X49193300Y-32873000D01*
X49955300Y-32873000D01*
X49955300Y-33127000D01*
G37*
G36*
X54806700Y-33127000D02*
G01*
X54044700Y-33127000D01*
X54044700Y-32873000D01*
X54806700Y-32873000D01*
X54806700Y-33127000D01*
G37*
G36*
X46100000Y-32750000D02*
G01*
X44700000Y-32750000D01*
X44700000Y-31550000D01*
X46100000Y-31550000D01*
X46100000Y-32750000D01*
G37*
G36*
X48300000Y-32750000D02*
G01*
X46900000Y-32750000D01*
X46900000Y-31550000D01*
X48300000Y-31550000D01*
X48300000Y-32750000D01*
G37*
G36*
X49955300Y-32627001D02*
G01*
X49193300Y-32627001D01*
X49193300Y-32373001D01*
X49955300Y-32373001D01*
X49955300Y-32627001D01*
G37*
G36*
X54806700Y-32627001D02*
G01*
X54044700Y-32627001D01*
X54044700Y-32373001D01*
X54806700Y-32373001D01*
X54806700Y-32627001D01*
G37*
G36*
X61350000Y-32275000D02*
G01*
X59650000Y-32275000D01*
X59650000Y-30575000D01*
X61350000Y-30575000D01*
X61350000Y-32275000D01*
G37*
G36*
X40336104Y-31342127D02*
G01*
X40409099Y-31390901D01*
X40457873Y-31463896D01*
X40475000Y-31550000D01*
X40475000Y-32000000D01*
X40457873Y-32086104D01*
X40409099Y-32159099D01*
X40336104Y-32207873D01*
X40250000Y-32225000D01*
X39750000Y-32225000D01*
X39663896Y-32207873D01*
X39590901Y-32159099D01*
X39542127Y-32086104D01*
X39525000Y-32000000D01*
X39525000Y-31550000D01*
X39542127Y-31463896D01*
X39590901Y-31390901D01*
X39663896Y-31342127D01*
X39750000Y-31325000D01*
X40250000Y-31325000D01*
X40336104Y-31342127D01*
G37*
G36*
X49955300Y-32126999D02*
G01*
X49193300Y-32126999D01*
X49193300Y-31872999D01*
X49955300Y-31872999D01*
X49955300Y-32126999D01*
G37*
G36*
X54806700Y-32126999D02*
G01*
X54044700Y-32126999D01*
X54044700Y-31872999D01*
X54806700Y-31872999D01*
X54806700Y-32126999D01*
G37*
G36*
X56536104Y-31042127D02*
G01*
X56609099Y-31090901D01*
X56657873Y-31163896D01*
X56675000Y-31250000D01*
X56675000Y-31750000D01*
X56657873Y-31836104D01*
X56609099Y-31909099D01*
X56536104Y-31957873D01*
X56450000Y-31975000D01*
X56000000Y-31975000D01*
X55913896Y-31957873D01*
X55840901Y-31909099D01*
X55792127Y-31836104D01*
X55775000Y-31750000D01*
X55775000Y-31250000D01*
X55792127Y-31163896D01*
X55840901Y-31090901D01*
X55913896Y-31042127D01*
X56000000Y-31025000D01*
X56450000Y-31025000D01*
X56536104Y-31042127D01*
G37*
G36*
X58086104Y-31042127D02*
G01*
X58159099Y-31090901D01*
X58207873Y-31163896D01*
X58225000Y-31250000D01*
X58225000Y-31750000D01*
X58207873Y-31836104D01*
X58159099Y-31909099D01*
X58086104Y-31957873D01*
X58000000Y-31975000D01*
X57550000Y-31975000D01*
X57463896Y-31957873D01*
X57390901Y-31909099D01*
X57342127Y-31836104D01*
X57325000Y-31750000D01*
X57325000Y-31250000D01*
X57342127Y-31163896D01*
X57390901Y-31090901D01*
X57463896Y-31042127D01*
X57550000Y-31025000D01*
X58000000Y-31025000D01*
X58086104Y-31042127D01*
G37*
G36*
X43836104Y-30842127D02*
G01*
X43909099Y-30890901D01*
X43957873Y-30963896D01*
X43975000Y-31050000D01*
X43975000Y-31500000D01*
X43957873Y-31586104D01*
X43909099Y-31659099D01*
X43836104Y-31707873D01*
X43750000Y-31725000D01*
X43250000Y-31725000D01*
X43163896Y-31707873D01*
X43090901Y-31659099D01*
X43042127Y-31586104D01*
X43025000Y-31500000D01*
X43025000Y-31050000D01*
X43042127Y-30963896D01*
X43090901Y-30890901D01*
X43163896Y-30842127D01*
X43250000Y-30825000D01*
X43750000Y-30825000D01*
X43836104Y-30842127D01*
G37*
G36*
X29107403Y-31116418D02*
G01*
X29156066Y-31148934D01*
X29188582Y-31197597D01*
X29200000Y-31255000D01*
X29200000Y-31555000D01*
X29188582Y-31612403D01*
X29156066Y-31661066D01*
X29107403Y-31693582D01*
X29050000Y-31705000D01*
X27750000Y-31705000D01*
X27692597Y-31693582D01*
X27643934Y-31661066D01*
X27611418Y-31612403D01*
X27600000Y-31555000D01*
X27600000Y-31255000D01*
X27611418Y-31197597D01*
X27643934Y-31148934D01*
X27692597Y-31116418D01*
X27750000Y-31105000D01*
X29050000Y-31105000D01*
X29107403Y-31116418D01*
G37*
G36*
X36307403Y-31116418D02*
G01*
X36356066Y-31148934D01*
X36388582Y-31197597D01*
X36400000Y-31255000D01*
X36400000Y-31555000D01*
X36388582Y-31612403D01*
X36356066Y-31661066D01*
X36307403Y-31693582D01*
X36250000Y-31705000D01*
X34950000Y-31705000D01*
X34892597Y-31693582D01*
X34843934Y-31661066D01*
X34811418Y-31612403D01*
X34800000Y-31555000D01*
X34800000Y-31255000D01*
X34811418Y-31197597D01*
X34843934Y-31148934D01*
X34892597Y-31116418D01*
X34950000Y-31105000D01*
X36250000Y-31105000D01*
X36307403Y-31116418D01*
G37*
G36*
X49955300Y-31627000D02*
G01*
X49193300Y-31627000D01*
X49193300Y-31373000D01*
X49955300Y-31373000D01*
X49955300Y-31627000D01*
G37*
G36*
X54806700Y-31627000D02*
G01*
X54044700Y-31627000D01*
X54044700Y-31373000D01*
X54806700Y-31373000D01*
X54806700Y-31627000D01*
G37*
G36*
X46036104Y-30042127D02*
G01*
X46109099Y-30090901D01*
X46157873Y-30163896D01*
X46175000Y-30250000D01*
X46175000Y-30750000D01*
X46157873Y-30836104D01*
X46109099Y-30909099D01*
X46036104Y-30957873D01*
X45950000Y-30975000D01*
X45500000Y-30975000D01*
X45413896Y-30957873D01*
X45340901Y-30909099D01*
X45292127Y-30836104D01*
X45275000Y-30750000D01*
X45275000Y-30250000D01*
X45292127Y-30163896D01*
X45340901Y-30090901D01*
X45413896Y-30042127D01*
X45500000Y-30025000D01*
X45950000Y-30025000D01*
X46036104Y-30042127D01*
G37*
G36*
X47586104Y-30042127D02*
G01*
X47659099Y-30090901D01*
X47707873Y-30163896D01*
X47725000Y-30250000D01*
X47725000Y-30750000D01*
X47707873Y-30836104D01*
X47659099Y-30909099D01*
X47586104Y-30957873D01*
X47500000Y-30975000D01*
X47050000Y-30975000D01*
X46963896Y-30957873D01*
X46890901Y-30909099D01*
X46842127Y-30836104D01*
X46825000Y-30750000D01*
X46825000Y-30250000D01*
X46842127Y-30163896D01*
X46890901Y-30090901D01*
X46963896Y-30042127D01*
X47050000Y-30025000D01*
X47500000Y-30025000D01*
X47586104Y-30042127D01*
G37*
G36*
X50627000Y-30955300D02*
G01*
X50373000Y-30955300D01*
X50373000Y-30193300D01*
X50627000Y-30193300D01*
X50627000Y-30955300D01*
G37*
G36*
X51126999Y-30955300D02*
G01*
X50872999Y-30955300D01*
X50872999Y-30193300D01*
X51126999Y-30193300D01*
X51126999Y-30955300D01*
G37*
G36*
X51627001Y-30955300D02*
G01*
X51373001Y-30955300D01*
X51373001Y-30193300D01*
X51627001Y-30193300D01*
X51627001Y-30955300D01*
G37*
G36*
X52127000Y-30955300D02*
G01*
X51873000Y-30955300D01*
X51873000Y-30193300D01*
X52127000Y-30193300D01*
X52127000Y-30955300D01*
G37*
G36*
X52626999Y-30955300D02*
G01*
X52372999Y-30955300D01*
X52372999Y-30193300D01*
X52626999Y-30193300D01*
X52626999Y-30955300D01*
G37*
G36*
X53127001Y-30955300D02*
G01*
X52873001Y-30955300D01*
X52873001Y-30193300D01*
X53127001Y-30193300D01*
X53127001Y-30955300D01*
G37*
G36*
X53627000Y-30955300D02*
G01*
X53373000Y-30955300D01*
X53373000Y-30193300D01*
X53627000Y-30193300D01*
X53627000Y-30955300D01*
G37*
G36*
X40336104Y-29792127D02*
G01*
X40409099Y-29840901D01*
X40457873Y-29913896D01*
X40475000Y-30000000D01*
X40475000Y-30450000D01*
X40457873Y-30536104D01*
X40409099Y-30609099D01*
X40336104Y-30657873D01*
X40250000Y-30675000D01*
X39750000Y-30675000D01*
X39663896Y-30657873D01*
X39590901Y-30609099D01*
X39542127Y-30536104D01*
X39525000Y-30450000D01*
X39525000Y-30000000D01*
X39542127Y-29913896D01*
X39590901Y-29840901D01*
X39663896Y-29792127D01*
X39750000Y-29775000D01*
X40250000Y-29775000D01*
X40336104Y-29792127D01*
G37*
G36*
X56451537Y-29540224D02*
G01*
X56516421Y-29583579D01*
X56559776Y-29648463D01*
X56575000Y-29725000D01*
X56575000Y-30275000D01*
X56559776Y-30351537D01*
X56516421Y-30416421D01*
X56451537Y-30459776D01*
X56375000Y-30475000D01*
X55975000Y-30475000D01*
X55898463Y-30459776D01*
X55833579Y-30416421D01*
X55790224Y-30351537D01*
X55775000Y-30275000D01*
X55775000Y-29725000D01*
X55790224Y-29648463D01*
X55833579Y-29583579D01*
X55898463Y-29540224D01*
X55975000Y-29525000D01*
X56375000Y-29525000D01*
X56451537Y-29540224D01*
G37*
G36*
X58101537Y-29540224D02*
G01*
X58166421Y-29583579D01*
X58209776Y-29648463D01*
X58225000Y-29725000D01*
X58225000Y-30275000D01*
X58209776Y-30351537D01*
X58166421Y-30416421D01*
X58101537Y-30459776D01*
X58025000Y-30475000D01*
X57625000Y-30475000D01*
X57548463Y-30459776D01*
X57483579Y-30416421D01*
X57440224Y-30351537D01*
X57425000Y-30275000D01*
X57425000Y-29725000D01*
X57440224Y-29648463D01*
X57483579Y-29583579D01*
X57548463Y-29540224D01*
X57625000Y-29525000D01*
X58025000Y-29525000D01*
X58101537Y-29540224D01*
G37*
G36*
X29107403Y-29846418D02*
G01*
X29156066Y-29878934D01*
X29188582Y-29927597D01*
X29200000Y-29985000D01*
X29200000Y-30285000D01*
X29188582Y-30342403D01*
X29156066Y-30391066D01*
X29107403Y-30423582D01*
X29050000Y-30435000D01*
X27750000Y-30435000D01*
X27692597Y-30423582D01*
X27643934Y-30391066D01*
X27611418Y-30342403D01*
X27600000Y-30285000D01*
X27600000Y-29985000D01*
X27611418Y-29927597D01*
X27643934Y-29878934D01*
X27692597Y-29846418D01*
X27750000Y-29835000D01*
X29050000Y-29835000D01*
X29107403Y-29846418D01*
G37*
G36*
X36307403Y-29846418D02*
G01*
X36356066Y-29878934D01*
X36388582Y-29927597D01*
X36400000Y-29985000D01*
X36400000Y-30285000D01*
X36388582Y-30342403D01*
X36356066Y-30391066D01*
X36307403Y-30423582D01*
X36250000Y-30435000D01*
X34950000Y-30435000D01*
X34892597Y-30423582D01*
X34843934Y-30391066D01*
X34811418Y-30342403D01*
X34800000Y-30285000D01*
X34800000Y-29985000D01*
X34811418Y-29927597D01*
X34843934Y-29878934D01*
X34892597Y-29846418D01*
X34950000Y-29835000D01*
X36250000Y-29835000D01*
X36307403Y-29846418D01*
G37*
G36*
X43836104Y-29292127D02*
G01*
X43909099Y-29340901D01*
X43957873Y-29413896D01*
X43975000Y-29500000D01*
X43975000Y-29950000D01*
X43957873Y-30036104D01*
X43909099Y-30109099D01*
X43836104Y-30157873D01*
X43750000Y-30175000D01*
X43250000Y-30175000D01*
X43163896Y-30157873D01*
X43090901Y-30109099D01*
X43042127Y-30036104D01*
X43025000Y-29950000D01*
X43025000Y-29500000D01*
X43042127Y-29413896D01*
X43090901Y-29340901D01*
X43163896Y-29292127D01*
X43250000Y-29275000D01*
X43750000Y-29275000D01*
X43836104Y-29292127D01*
G37*
G36*
X39836104Y-28342127D02*
G01*
X39909099Y-28390901D01*
X39957873Y-28463896D01*
X39975000Y-28550000D01*
X39975000Y-29000000D01*
X39957873Y-29086104D01*
X39909099Y-29159099D01*
X39836104Y-29207873D01*
X39750000Y-29225000D01*
X39250000Y-29225000D01*
X39163896Y-29207873D01*
X39090901Y-29159099D01*
X39042127Y-29086104D01*
X39025000Y-29000000D01*
X39025000Y-28550000D01*
X39042127Y-28463896D01*
X39090901Y-28390901D01*
X39163896Y-28342127D01*
X39250000Y-28325000D01*
X39750000Y-28325000D01*
X39836104Y-28342127D01*
G37*
G36*
X29107403Y-28576418D02*
G01*
X29156066Y-28608934D01*
X29188582Y-28657597D01*
X29200000Y-28715000D01*
X29200000Y-29015000D01*
X29188582Y-29072403D01*
X29156066Y-29121066D01*
X29107403Y-29153582D01*
X29050000Y-29165000D01*
X27750000Y-29165000D01*
X27692597Y-29153582D01*
X27643934Y-29121066D01*
X27611418Y-29072403D01*
X27600000Y-29015000D01*
X27600000Y-28715000D01*
X27611418Y-28657597D01*
X27643934Y-28608934D01*
X27692597Y-28576418D01*
X27750000Y-28565000D01*
X29050000Y-28565000D01*
X29107403Y-28576418D01*
G37*
G36*
X36307403Y-28576418D02*
G01*
X36356066Y-28608934D01*
X36388582Y-28657597D01*
X36400000Y-28715000D01*
X36400000Y-29015000D01*
X36388582Y-29072403D01*
X36356066Y-29121066D01*
X36307403Y-29153582D01*
X36250000Y-29165000D01*
X34950000Y-29165000D01*
X34892597Y-29153582D01*
X34843934Y-29121066D01*
X34811418Y-29072403D01*
X34800000Y-29015000D01*
X34800000Y-28715000D01*
X34811418Y-28657597D01*
X34843934Y-28608934D01*
X34892597Y-28576418D01*
X34950000Y-28565000D01*
X36250000Y-28565000D01*
X36307403Y-28576418D01*
G37*
G36*
X43836104Y-27842127D02*
G01*
X43909099Y-27890901D01*
X43957873Y-27963896D01*
X43975000Y-28050000D01*
X43975000Y-28500000D01*
X43957873Y-28586104D01*
X43909099Y-28659099D01*
X43836104Y-28707873D01*
X43750000Y-28725000D01*
X43250000Y-28725000D01*
X43163896Y-28707873D01*
X43090901Y-28659099D01*
X43042127Y-28586104D01*
X43025000Y-28500000D01*
X43025000Y-28050000D01*
X43042127Y-27963896D01*
X43090901Y-27890901D01*
X43163896Y-27842127D01*
X43250000Y-27825000D01*
X43750000Y-27825000D01*
X43836104Y-27842127D01*
G37*
G36*
X46036104Y-27042127D02*
G01*
X46109099Y-27090901D01*
X46157873Y-27163896D01*
X46175000Y-27250000D01*
X46175000Y-27750000D01*
X46157873Y-27836104D01*
X46109099Y-27909099D01*
X46036104Y-27957873D01*
X45950000Y-27975000D01*
X45500000Y-27975000D01*
X45413896Y-27957873D01*
X45340901Y-27909099D01*
X45292127Y-27836104D01*
X45275000Y-27750000D01*
X45275000Y-27250000D01*
X45292127Y-27163896D01*
X45340901Y-27090901D01*
X45413896Y-27042127D01*
X45500000Y-27025000D01*
X45950000Y-27025000D01*
X46036104Y-27042127D01*
G37*
G36*
X47586104Y-27042127D02*
G01*
X47659099Y-27090901D01*
X47707873Y-27163896D01*
X47725000Y-27250000D01*
X47725000Y-27750000D01*
X47707873Y-27836104D01*
X47659099Y-27909099D01*
X47586104Y-27957873D01*
X47500000Y-27975000D01*
X47050000Y-27975000D01*
X46963896Y-27957873D01*
X46890901Y-27909099D01*
X46842127Y-27836104D01*
X46825000Y-27750000D01*
X46825000Y-27250000D01*
X46842127Y-27163896D01*
X46890901Y-27090901D01*
X46963896Y-27042127D01*
X47050000Y-27025000D01*
X47500000Y-27025000D01*
X47586104Y-27042127D01*
G37*
G36*
X29107403Y-27306418D02*
G01*
X29156066Y-27338934D01*
X29188582Y-27387597D01*
X29200000Y-27445000D01*
X29200000Y-27745000D01*
X29188582Y-27802403D01*
X29156066Y-27851066D01*
X29107403Y-27883582D01*
X29050000Y-27895000D01*
X27750000Y-27895000D01*
X27692597Y-27883582D01*
X27643934Y-27851066D01*
X27611418Y-27802403D01*
X27600000Y-27745000D01*
X27600000Y-27445000D01*
X27611418Y-27387597D01*
X27643934Y-27338934D01*
X27692597Y-27306418D01*
X27750000Y-27295000D01*
X29050000Y-27295000D01*
X29107403Y-27306418D01*
G37*
G36*
X36307403Y-27306418D02*
G01*
X36356066Y-27338934D01*
X36388582Y-27387597D01*
X36400000Y-27445000D01*
X36400000Y-27745000D01*
X36388582Y-27802403D01*
X36356066Y-27851066D01*
X36307403Y-27883582D01*
X36250000Y-27895000D01*
X34950000Y-27895000D01*
X34892597Y-27883582D01*
X34843934Y-27851066D01*
X34811418Y-27802403D01*
X34800000Y-27745000D01*
X34800000Y-27445000D01*
X34811418Y-27387597D01*
X34843934Y-27338934D01*
X34892597Y-27306418D01*
X34950000Y-27295000D01*
X36250000Y-27295000D01*
X36307403Y-27306418D01*
G37*
G36*
X50627000Y-27806700D02*
G01*
X50373000Y-27806700D01*
X50373000Y-27044700D01*
X50627000Y-27044700D01*
X50627000Y-27806700D01*
G37*
G36*
X51126999Y-27806700D02*
G01*
X50872999Y-27806700D01*
X50872999Y-27044700D01*
X51126999Y-27044700D01*
X51126999Y-27806700D01*
G37*
G36*
X51627001Y-27806700D02*
G01*
X51373001Y-27806700D01*
X51373001Y-27044700D01*
X51627001Y-27044700D01*
X51627001Y-27806700D01*
G37*
G36*
X52127000Y-27806700D02*
G01*
X51873000Y-27806700D01*
X51873000Y-27044700D01*
X52127000Y-27044700D01*
X52127000Y-27806700D01*
G37*
G36*
X52626999Y-27806700D02*
G01*
X52372999Y-27806700D01*
X52372999Y-27044700D01*
X52626999Y-27044700D01*
X52626999Y-27806700D01*
G37*
G36*
X53127001Y-27806700D02*
G01*
X52873001Y-27806700D01*
X52873001Y-27044700D01*
X53127001Y-27044700D01*
X53127001Y-27806700D01*
G37*
G36*
X53627000Y-27806700D02*
G01*
X53373000Y-27806700D01*
X53373000Y-27044700D01*
X53627000Y-27044700D01*
X53627000Y-27806700D01*
G37*
G36*
X39836104Y-26792127D02*
G01*
X39909099Y-26840901D01*
X39957873Y-26913896D01*
X39975000Y-27000000D01*
X39975000Y-27450000D01*
X39957873Y-27536104D01*
X39909099Y-27609099D01*
X39836104Y-27657873D01*
X39750000Y-27675000D01*
X39250000Y-27675000D01*
X39163896Y-27657873D01*
X39090901Y-27609099D01*
X39042127Y-27536104D01*
X39025000Y-27450000D01*
X39025000Y-27000000D01*
X39042127Y-26913896D01*
X39090901Y-26840901D01*
X39163896Y-26792127D01*
X39250000Y-26775000D01*
X39750000Y-26775000D01*
X39836104Y-26792127D01*
G37*
G36*
X43836104Y-26292127D02*
G01*
X43909099Y-26340901D01*
X43957873Y-26413896D01*
X43975000Y-26500000D01*
X43975000Y-26950000D01*
X43957873Y-27036104D01*
X43909099Y-27109099D01*
X43836104Y-27157873D01*
X43750000Y-27175000D01*
X43250000Y-27175000D01*
X43163896Y-27157873D01*
X43090901Y-27109099D01*
X43042127Y-27036104D01*
X43025000Y-26950000D01*
X43025000Y-26500000D01*
X43042127Y-26413896D01*
X43090901Y-26340901D01*
X43163896Y-26292127D01*
X43250000Y-26275000D01*
X43750000Y-26275000D01*
X43836104Y-26292127D01*
G37*
G36*
X56451537Y-26040224D02*
G01*
X56516421Y-26083579D01*
X56559776Y-26148463D01*
X56575000Y-26225000D01*
X56575000Y-26775000D01*
X56559776Y-26851537D01*
X56516421Y-26916421D01*
X56451537Y-26959776D01*
X56375000Y-26975000D01*
X55975000Y-26975000D01*
X55898463Y-26959776D01*
X55833579Y-26916421D01*
X55790224Y-26851537D01*
X55775000Y-26775000D01*
X55775000Y-26225000D01*
X55790224Y-26148463D01*
X55833579Y-26083579D01*
X55898463Y-26040224D01*
X55975000Y-26025000D01*
X56375000Y-26025000D01*
X56451537Y-26040224D01*
G37*
G36*
X58101537Y-26040224D02*
G01*
X58166421Y-26083579D01*
X58209776Y-26148463D01*
X58225000Y-26225000D01*
X58225000Y-26775000D01*
X58209776Y-26851537D01*
X58166421Y-26916421D01*
X58101537Y-26959776D01*
X58025000Y-26975000D01*
X57625000Y-26975000D01*
X57548463Y-26959776D01*
X57483579Y-26916421D01*
X57440224Y-26851537D01*
X57425000Y-26775000D01*
X57425000Y-26225000D01*
X57440224Y-26148463D01*
X57483579Y-26083579D01*
X57548463Y-26040224D01*
X57625000Y-26025000D01*
X58025000Y-26025000D01*
X58101537Y-26040224D01*
G37*
G36*
X53676400Y-26676400D02*
G01*
X50323600Y-26676400D01*
X50323600Y-23323600D01*
X53676400Y-23323600D01*
X53676400Y-26676400D01*
G37*
G36*
X49955300Y-26627000D02*
G01*
X49193300Y-26627000D01*
X49193300Y-26373000D01*
X49955300Y-26373000D01*
X49955300Y-26627000D01*
G37*
G36*
X54806700Y-26627000D02*
G01*
X54044700Y-26627000D01*
X54044700Y-26373000D01*
X54806700Y-26373000D01*
X54806700Y-26627000D01*
G37*
G36*
X46100000Y-26450000D02*
G01*
X44700000Y-26450000D01*
X44700000Y-25250000D01*
X46100000Y-25250000D01*
X46100000Y-26450000D01*
G37*
G36*
X48300000Y-26450000D02*
G01*
X46900000Y-26450000D01*
X46900000Y-25250000D01*
X48300000Y-25250000D01*
X48300000Y-26450000D01*
G37*
G36*
X40336104Y-25342127D02*
G01*
X40409099Y-25390901D01*
X40457873Y-25463896D01*
X40475000Y-25550000D01*
X40475000Y-26000000D01*
X40457873Y-26086104D01*
X40409099Y-26159099D01*
X40336104Y-26207873D01*
X40250000Y-26225000D01*
X39750000Y-26225000D01*
X39663896Y-26207873D01*
X39590901Y-26159099D01*
X39542127Y-26086104D01*
X39525000Y-26000000D01*
X39525000Y-25550000D01*
X39542127Y-25463896D01*
X39590901Y-25390901D01*
X39663896Y-25342127D01*
X39750000Y-25325000D01*
X40250000Y-25325000D01*
X40336104Y-25342127D01*
G37*
G36*
X60762664Y-24556602D02*
G01*
X60925000Y-24628878D01*
X61068761Y-24733327D01*
X61187664Y-24865383D01*
X61276514Y-25019274D01*
X61331425Y-25188275D01*
X61350000Y-25365000D01*
X61331425Y-25541725D01*
X61276514Y-25710726D01*
X61187664Y-25864617D01*
X61068761Y-25996673D01*
X60925000Y-26101122D01*
X60762664Y-26173398D01*
X60588849Y-26210344D01*
X60411151Y-26210344D01*
X60237336Y-26173398D01*
X60075000Y-26101122D01*
X59931239Y-25996673D01*
X59812336Y-25864617D01*
X59723486Y-25710726D01*
X59668575Y-25541725D01*
X59650000Y-25365000D01*
X59668575Y-25188275D01*
X59723486Y-25019274D01*
X59812336Y-24865383D01*
X59931239Y-24733327D01*
X60075000Y-24628878D01*
X60237336Y-24556602D01*
X60411151Y-24519656D01*
X60588849Y-24519656D01*
X60762664Y-24556602D01*
G37*
G36*
X49955300Y-26127001D02*
G01*
X49193300Y-26127001D01*
X49193300Y-25873001D01*
X49955300Y-25873001D01*
X49955300Y-26127001D01*
G37*
G36*
X54806700Y-26127001D02*
G01*
X54044700Y-26127001D01*
X54044700Y-25873001D01*
X54806700Y-25873001D01*
X54806700Y-26127001D01*
G37*
G36*
X28451537Y-25040224D02*
G01*
X28516421Y-25083579D01*
X28559776Y-25148463D01*
X28575000Y-25225000D01*
X28575000Y-25775000D01*
X28559776Y-25851537D01*
X28516421Y-25916421D01*
X28451537Y-25959776D01*
X28375000Y-25975000D01*
X27975000Y-25975000D01*
X27898463Y-25959776D01*
X27833579Y-25916421D01*
X27790224Y-25851537D01*
X27775000Y-25775000D01*
X27775000Y-25225000D01*
X27790224Y-25148463D01*
X27833579Y-25083579D01*
X27898463Y-25040224D01*
X27975000Y-25025000D01*
X28375000Y-25025000D01*
X28451537Y-25040224D01*
G37*
G36*
X30101537Y-25040224D02*
G01*
X30166421Y-25083579D01*
X30209776Y-25148463D01*
X30225000Y-25225000D01*
X30225000Y-25775000D01*
X30209776Y-25851537D01*
X30166421Y-25916421D01*
X30101537Y-25959776D01*
X30025000Y-25975000D01*
X29625000Y-25975000D01*
X29548463Y-25959776D01*
X29483579Y-25916421D01*
X29440224Y-25851537D01*
X29425000Y-25775000D01*
X29425000Y-25225000D01*
X29440224Y-25148463D01*
X29483579Y-25083579D01*
X29548463Y-25040224D01*
X29625000Y-25025000D01*
X30025000Y-25025000D01*
X30101537Y-25040224D01*
G37*
G36*
X31451537Y-25040224D02*
G01*
X31516421Y-25083579D01*
X31559776Y-25148463D01*
X31575000Y-25225000D01*
X31575000Y-25775000D01*
X31559776Y-25851537D01*
X31516421Y-25916421D01*
X31451537Y-25959776D01*
X31375000Y-25975000D01*
X30975000Y-25975000D01*
X30898463Y-25959776D01*
X30833579Y-25916421D01*
X30790224Y-25851537D01*
X30775000Y-25775000D01*
X30775000Y-25225000D01*
X30790224Y-25148463D01*
X30833579Y-25083579D01*
X30898463Y-25040224D01*
X30975000Y-25025000D01*
X31375000Y-25025000D01*
X31451537Y-25040224D01*
G37*
G36*
X33101537Y-25040224D02*
G01*
X33166421Y-25083579D01*
X33209776Y-25148463D01*
X33225000Y-25225000D01*
X33225000Y-25775000D01*
X33209776Y-25851537D01*
X33166421Y-25916421D01*
X33101537Y-25959776D01*
X33025000Y-25975000D01*
X32625000Y-25975000D01*
X32548463Y-25959776D01*
X32483579Y-25916421D01*
X32440224Y-25851537D01*
X32425000Y-25775000D01*
X32425000Y-25225000D01*
X32440224Y-25148463D01*
X32483579Y-25083579D01*
X32548463Y-25040224D01*
X32625000Y-25025000D01*
X33025000Y-25025000D01*
X33101537Y-25040224D01*
G37*
G36*
X34536104Y-25042127D02*
G01*
X34609099Y-25090901D01*
X34657873Y-25163896D01*
X34675000Y-25250000D01*
X34675000Y-25750000D01*
X34657873Y-25836104D01*
X34609099Y-25909099D01*
X34536104Y-25957873D01*
X34450000Y-25975000D01*
X34000000Y-25975000D01*
X33913896Y-25957873D01*
X33840901Y-25909099D01*
X33792127Y-25836104D01*
X33775000Y-25750000D01*
X33775000Y-25250000D01*
X33792127Y-25163896D01*
X33840901Y-25090901D01*
X33913896Y-25042127D01*
X34000000Y-25025000D01*
X34450000Y-25025000D01*
X34536104Y-25042127D01*
G37*
G36*
X36086104Y-25042127D02*
G01*
X36159099Y-25090901D01*
X36207873Y-25163896D01*
X36225000Y-25250000D01*
X36225000Y-25750000D01*
X36207873Y-25836104D01*
X36159099Y-25909099D01*
X36086104Y-25957873D01*
X36000000Y-25975000D01*
X35550000Y-25975000D01*
X35463896Y-25957873D01*
X35390901Y-25909099D01*
X35342127Y-25836104D01*
X35325000Y-25750000D01*
X35325000Y-25250000D01*
X35342127Y-25163896D01*
X35390901Y-25090901D01*
X35463896Y-25042127D01*
X35550000Y-25025000D01*
X36000000Y-25025000D01*
X36086104Y-25042127D01*
G37*
G36*
X37836104Y-24842127D02*
G01*
X37909099Y-24890901D01*
X37957873Y-24963896D01*
X37975000Y-25050000D01*
X37975000Y-25500000D01*
X37957873Y-25586104D01*
X37909099Y-25659099D01*
X37836104Y-25707873D01*
X37750000Y-25725000D01*
X37250000Y-25725000D01*
X37163896Y-25707873D01*
X37090901Y-25659099D01*
X37042127Y-25586104D01*
X37025000Y-25500000D01*
X37025000Y-25050000D01*
X37042127Y-24963896D01*
X37090901Y-24890901D01*
X37163896Y-24842127D01*
X37250000Y-24825000D01*
X37750000Y-24825000D01*
X37836104Y-24842127D01*
G37*
G36*
X49955300Y-25626999D02*
G01*
X49193300Y-25626999D01*
X49193300Y-25372999D01*
X49955300Y-25372999D01*
X49955300Y-25626999D01*
G37*
G36*
X54806700Y-25626999D02*
G01*
X54044700Y-25626999D01*
X54044700Y-25372999D01*
X54806700Y-25372999D01*
X54806700Y-25626999D01*
G37*
G36*
X56536104Y-24542127D02*
G01*
X56609099Y-24590901D01*
X56657873Y-24663896D01*
X56675000Y-24750000D01*
X56675000Y-25250000D01*
X56657873Y-25336104D01*
X56609099Y-25409099D01*
X56536104Y-25457873D01*
X56450000Y-25475000D01*
X56000000Y-25475000D01*
X55913896Y-25457873D01*
X55840901Y-25409099D01*
X55792127Y-25336104D01*
X55775000Y-25250000D01*
X55775000Y-24750000D01*
X55792127Y-24663896D01*
X55840901Y-24590901D01*
X55913896Y-24542127D01*
X56000000Y-24525000D01*
X56450000Y-24525000D01*
X56536104Y-24542127D01*
G37*
G36*
X58086104Y-24542127D02*
G01*
X58159099Y-24590901D01*
X58207873Y-24663896D01*
X58225000Y-24750000D01*
X58225000Y-25250000D01*
X58207873Y-25336104D01*
X58159099Y-25409099D01*
X58086104Y-25457873D01*
X58000000Y-25475000D01*
X57550000Y-25475000D01*
X57463896Y-25457873D01*
X57390901Y-25409099D01*
X57342127Y-25336104D01*
X57325000Y-25250000D01*
X57325000Y-24750000D01*
X57342127Y-24663896D01*
X57390901Y-24590901D01*
X57463896Y-24542127D01*
X57550000Y-24525000D01*
X58000000Y-24525000D01*
X58086104Y-24542127D01*
G37*
G36*
X49955300Y-25127000D02*
G01*
X49193300Y-25127000D01*
X49193300Y-24873000D01*
X49955300Y-24873000D01*
X49955300Y-25127000D01*
G37*
G36*
X54806700Y-25127000D02*
G01*
X54044700Y-25127000D01*
X54044700Y-24873000D01*
X54806700Y-24873000D01*
X54806700Y-25127000D01*
G37*
G36*
X46100000Y-24750000D02*
G01*
X44700000Y-24750000D01*
X44700000Y-23550000D01*
X46100000Y-23550000D01*
X46100000Y-24750000D01*
G37*
G36*
X48300000Y-24750000D02*
G01*
X46900000Y-24750000D01*
X46900000Y-23550000D01*
X48300000Y-23550000D01*
X48300000Y-24750000D01*
G37*
G36*
X40336104Y-23792127D02*
G01*
X40409099Y-23840901D01*
X40457873Y-23913896D01*
X40475000Y-24000000D01*
X40475000Y-24450000D01*
X40457873Y-24536104D01*
X40409099Y-24609099D01*
X40336104Y-24657873D01*
X40250000Y-24675000D01*
X39750000Y-24675000D01*
X39663896Y-24657873D01*
X39590901Y-24609099D01*
X39542127Y-24536104D01*
X39525000Y-24450000D01*
X39525000Y-24000000D01*
X39542127Y-23913896D01*
X39590901Y-23840901D01*
X39663896Y-23792127D01*
X39750000Y-23775000D01*
X40250000Y-23775000D01*
X40336104Y-23792127D01*
G37*
G36*
X49955300Y-24627001D02*
G01*
X49193300Y-24627001D01*
X49193300Y-24373001D01*
X49955300Y-24373001D01*
X49955300Y-24627001D01*
G37*
G36*
X54806700Y-24627001D02*
G01*
X54044700Y-24627001D01*
X54044700Y-24373001D01*
X54806700Y-24373001D01*
X54806700Y-24627001D01*
G37*
G36*
X37836104Y-23292127D02*
G01*
X37909099Y-23340901D01*
X37957873Y-23413896D01*
X37975000Y-23500000D01*
X37975000Y-23950000D01*
X37957873Y-24036104D01*
X37909099Y-24109099D01*
X37836104Y-24157873D01*
X37750000Y-24175000D01*
X37250000Y-24175000D01*
X37163896Y-24157873D01*
X37090901Y-24109099D01*
X37042127Y-24036104D01*
X37025000Y-23950000D01*
X37025000Y-23500000D01*
X37042127Y-23413896D01*
X37090901Y-23340901D01*
X37163896Y-23292127D01*
X37250000Y-23275000D01*
X37750000Y-23275000D01*
X37836104Y-23292127D01*
G37*
G36*
X49955300Y-24126999D02*
G01*
X49193300Y-24126999D01*
X49193300Y-23872999D01*
X49955300Y-23872999D01*
X49955300Y-24126999D01*
G37*
G36*
X54806700Y-24126999D02*
G01*
X54044700Y-24126999D01*
X54044700Y-23872999D01*
X54806700Y-23872999D01*
X54806700Y-24126999D01*
G37*
G36*
X43836104Y-22842127D02*
G01*
X43909099Y-22890901D01*
X43957873Y-22963896D01*
X43975000Y-23050000D01*
X43975000Y-23500000D01*
X43957873Y-23586104D01*
X43909099Y-23659099D01*
X43836104Y-23707873D01*
X43750000Y-23725000D01*
X43250000Y-23725000D01*
X43163896Y-23707873D01*
X43090901Y-23659099D01*
X43042127Y-23586104D01*
X43025000Y-23500000D01*
X43025000Y-23050000D01*
X43042127Y-22963896D01*
X43090901Y-22890901D01*
X43163896Y-22842127D01*
X43250000Y-22825000D01*
X43750000Y-22825000D01*
X43836104Y-22842127D01*
G37*
G36*
X61350000Y-23675000D02*
G01*
X59650000Y-23675000D01*
X59650000Y-21975000D01*
X61350000Y-21975000D01*
X61350000Y-23675000D01*
G37*
G36*
X49955300Y-23627000D02*
G01*
X49193300Y-23627000D01*
X49193300Y-23373000D01*
X49955300Y-23373000D01*
X49955300Y-23627000D01*
G37*
G36*
X54806700Y-23627000D02*
G01*
X54044700Y-23627000D01*
X54044700Y-23373000D01*
X54806700Y-23373000D01*
X54806700Y-23627000D01*
G37*
G36*
X29375000Y-23625000D02*
G01*
X27125000Y-23625000D01*
X27125000Y-21375000D01*
X29375000Y-21375000D01*
X29375000Y-23625000D01*
G37*
G36*
X35057871Y-21417946D02*
G01*
X35251456Y-21492941D01*
X35427964Y-21602231D01*
X35581385Y-21742092D01*
X35706494Y-21907764D01*
X35799031Y-22093603D01*
X35855845Y-22293282D01*
X35875000Y-22500000D01*
X35855845Y-22706718D01*
X35799031Y-22906397D01*
X35706494Y-23092236D01*
X35581385Y-23257908D01*
X35427964Y-23397769D01*
X35251456Y-23507059D01*
X35057871Y-23582054D01*
X34853802Y-23620201D01*
X34646198Y-23620201D01*
X34442129Y-23582054D01*
X34248544Y-23507059D01*
X34072036Y-23397769D01*
X33918615Y-23257908D01*
X33793506Y-23092236D01*
X33700969Y-22906397D01*
X33644155Y-22706718D01*
X33625000Y-22500000D01*
X33644155Y-22293282D01*
X33700969Y-22093603D01*
X33793506Y-21907764D01*
X33918615Y-21742092D01*
X34072036Y-21602231D01*
X34248544Y-21492941D01*
X34442129Y-21417946D01*
X34646198Y-21379799D01*
X34853802Y-21379799D01*
X35057871Y-21417946D01*
G37*
G36*
X56536104Y-22542127D02*
G01*
X56609099Y-22590901D01*
X56657873Y-22663896D01*
X56675000Y-22750000D01*
X56675000Y-23250000D01*
X56657873Y-23336104D01*
X56609099Y-23409099D01*
X56536104Y-23457873D01*
X56450000Y-23475000D01*
X56000000Y-23475000D01*
X55913896Y-23457873D01*
X55840901Y-23409099D01*
X55792127Y-23336104D01*
X55775000Y-23250000D01*
X55775000Y-22750000D01*
X55792127Y-22663896D01*
X55840901Y-22590901D01*
X55913896Y-22542127D01*
X56000000Y-22525000D01*
X56450000Y-22525000D01*
X56536104Y-22542127D01*
G37*
G36*
X58086104Y-22542127D02*
G01*
X58159099Y-22590901D01*
X58207873Y-22663896D01*
X58225000Y-22750000D01*
X58225000Y-23250000D01*
X58207873Y-23336104D01*
X58159099Y-23409099D01*
X58086104Y-23457873D01*
X58000000Y-23475000D01*
X57550000Y-23475000D01*
X57463896Y-23457873D01*
X57390901Y-23409099D01*
X57342127Y-23336104D01*
X57325000Y-23250000D01*
X57325000Y-22750000D01*
X57342127Y-22663896D01*
X57390901Y-22590901D01*
X57463896Y-22542127D01*
X57550000Y-22525000D01*
X58000000Y-22525000D01*
X58086104Y-22542127D01*
G37*
G36*
X40836104Y-22342127D02*
G01*
X40909099Y-22390901D01*
X40957873Y-22463896D01*
X40975000Y-22550000D01*
X40975000Y-23000000D01*
X40957873Y-23086104D01*
X40909099Y-23159099D01*
X40836104Y-23207873D01*
X40750000Y-23225000D01*
X40250000Y-23225000D01*
X40163896Y-23207873D01*
X40090901Y-23159099D01*
X40042127Y-23086104D01*
X40025000Y-23000000D01*
X40025000Y-22550000D01*
X40042127Y-22463896D01*
X40090901Y-22390901D01*
X40163896Y-22342127D01*
X40250000Y-22325000D01*
X40750000Y-22325000D01*
X40836104Y-22342127D01*
G37*
G36*
X46036104Y-22042127D02*
G01*
X46109099Y-22090901D01*
X46157873Y-22163896D01*
X46175000Y-22250000D01*
X46175000Y-22750000D01*
X46157873Y-22836104D01*
X46109099Y-22909099D01*
X46036104Y-22957873D01*
X45950000Y-22975000D01*
X45500000Y-22975000D01*
X45413896Y-22957873D01*
X45340901Y-22909099D01*
X45292127Y-22836104D01*
X45275000Y-22750000D01*
X45275000Y-22250000D01*
X45292127Y-22163896D01*
X45340901Y-22090901D01*
X45413896Y-22042127D01*
X45500000Y-22025000D01*
X45950000Y-22025000D01*
X46036104Y-22042127D01*
G37*
G36*
X47586104Y-22042127D02*
G01*
X47659099Y-22090901D01*
X47707873Y-22163896D01*
X47725000Y-22250000D01*
X47725000Y-22750000D01*
X47707873Y-22836104D01*
X47659099Y-22909099D01*
X47586104Y-22957873D01*
X47500000Y-22975000D01*
X47050000Y-22975000D01*
X46963896Y-22957873D01*
X46890901Y-22909099D01*
X46842127Y-22836104D01*
X46825000Y-22750000D01*
X46825000Y-22250000D01*
X46842127Y-22163896D01*
X46890901Y-22090901D01*
X46963896Y-22042127D01*
X47050000Y-22025000D01*
X47500000Y-22025000D01*
X47586104Y-22042127D01*
G37*
G36*
X50627000Y-22955300D02*
G01*
X50373000Y-22955300D01*
X50373000Y-22193300D01*
X50627000Y-22193300D01*
X50627000Y-22955300D01*
G37*
G36*
X51126999Y-22955300D02*
G01*
X50872999Y-22955300D01*
X50872999Y-22193300D01*
X51126999Y-22193300D01*
X51126999Y-22955300D01*
G37*
G36*
X51627001Y-22955300D02*
G01*
X51373001Y-22955300D01*
X51373001Y-22193300D01*
X51627001Y-22193300D01*
X51627001Y-22955300D01*
G37*
G36*
X52127000Y-22955300D02*
G01*
X51873000Y-22955300D01*
X51873000Y-22193300D01*
X52127000Y-22193300D01*
X52127000Y-22955300D01*
G37*
G36*
X52626999Y-22955300D02*
G01*
X52372999Y-22955300D01*
X52372999Y-22193300D01*
X52626999Y-22193300D01*
X52626999Y-22955300D01*
G37*
G36*
X53127001Y-22955300D02*
G01*
X52873001Y-22955300D01*
X52873001Y-22193300D01*
X53127001Y-22193300D01*
X53127001Y-22955300D01*
G37*
G36*
X53627000Y-22955300D02*
G01*
X53373000Y-22955300D01*
X53373000Y-22193300D01*
X53627000Y-22193300D01*
X53627000Y-22955300D01*
G37*
G36*
X37351537Y-21440224D02*
G01*
X37416421Y-21483579D01*
X37459776Y-21548463D01*
X37475000Y-21625000D01*
X37475000Y-22025000D01*
X37459776Y-22101537D01*
X37416421Y-22166421D01*
X37351537Y-22209776D01*
X37275000Y-22225000D01*
X36725000Y-22225000D01*
X36648463Y-22209776D01*
X36583579Y-22166421D01*
X36540224Y-22101537D01*
X36525000Y-22025000D01*
X36525000Y-21625000D01*
X36540224Y-21548463D01*
X36583579Y-21483579D01*
X36648463Y-21440224D01*
X36725000Y-21425000D01*
X37275000Y-21425000D01*
X37351537Y-21440224D01*
G37*
G36*
X38851537Y-21440224D02*
G01*
X38916421Y-21483579D01*
X38959776Y-21548463D01*
X38975000Y-21625000D01*
X38975000Y-22025000D01*
X38959776Y-22101537D01*
X38916421Y-22166421D01*
X38851537Y-22209776D01*
X38775000Y-22225000D01*
X38225000Y-22225000D01*
X38148463Y-22209776D01*
X38083579Y-22166421D01*
X38040224Y-22101537D01*
X38025000Y-22025000D01*
X38025000Y-21625000D01*
X38040224Y-21548463D01*
X38083579Y-21483579D01*
X38148463Y-21440224D01*
X38225000Y-21425000D01*
X38775000Y-21425000D01*
X38851537Y-21440224D01*
G37*
G36*
X43836104Y-21292127D02*
G01*
X43909099Y-21340901D01*
X43957873Y-21413896D01*
X43975000Y-21500000D01*
X43975000Y-21950000D01*
X43957873Y-22036104D01*
X43909099Y-22109099D01*
X43836104Y-22157873D01*
X43750000Y-22175000D01*
X43250000Y-22175000D01*
X43163896Y-22157873D01*
X43090901Y-22109099D01*
X43042127Y-22036104D01*
X43025000Y-21950000D01*
X43025000Y-21500000D01*
X43042127Y-21413896D01*
X43090901Y-21340901D01*
X43163896Y-21292127D01*
X43250000Y-21275000D01*
X43750000Y-21275000D01*
X43836104Y-21292127D01*
G37*
G36*
X56451537Y-21040224D02*
G01*
X56516421Y-21083579D01*
X56559776Y-21148463D01*
X56575000Y-21225000D01*
X56575000Y-21775000D01*
X56559776Y-21851537D01*
X56516421Y-21916421D01*
X56451537Y-21959776D01*
X56375000Y-21975000D01*
X55975000Y-21975000D01*
X55898463Y-21959776D01*
X55833579Y-21916421D01*
X55790224Y-21851537D01*
X55775000Y-21775000D01*
X55775000Y-21225000D01*
X55790224Y-21148463D01*
X55833579Y-21083579D01*
X55898463Y-21040224D01*
X55975000Y-21025000D01*
X56375000Y-21025000D01*
X56451537Y-21040224D01*
G37*
G36*
X58101537Y-21040224D02*
G01*
X58166421Y-21083579D01*
X58209776Y-21148463D01*
X58225000Y-21225000D01*
X58225000Y-21775000D01*
X58209776Y-21851537D01*
X58166421Y-21916421D01*
X58101537Y-21959776D01*
X58025000Y-21975000D01*
X57625000Y-21975000D01*
X57548463Y-21959776D01*
X57483579Y-21916421D01*
X57440224Y-21851537D01*
X57425000Y-21775000D01*
X57425000Y-21225000D01*
X57440224Y-21148463D01*
X57483579Y-21083579D01*
X57548463Y-21040224D01*
X57625000Y-21025000D01*
X58025000Y-21025000D01*
X58101537Y-21040224D01*
G37*
G36*
X40836104Y-20792127D02*
G01*
X40909099Y-20840901D01*
X40957873Y-20913896D01*
X40975000Y-21000000D01*
X40975000Y-21450000D01*
X40957873Y-21536104D01*
X40909099Y-21609099D01*
X40836104Y-21657873D01*
X40750000Y-21675000D01*
X40250000Y-21675000D01*
X40163896Y-21657873D01*
X40090901Y-21609099D01*
X40042127Y-21536104D01*
X40025000Y-21450000D01*
X40025000Y-21000000D01*
X40042127Y-20913896D01*
X40090901Y-20840901D01*
X40163896Y-20792127D01*
X40250000Y-20775000D01*
X40750000Y-20775000D01*
X40836104Y-20792127D01*
G37*
G36*
X43836104Y-19842127D02*
G01*
X43909099Y-19890901D01*
X43957873Y-19963896D01*
X43975000Y-20050000D01*
X43975000Y-20500000D01*
X43957873Y-20586104D01*
X43909099Y-20659099D01*
X43836104Y-20707873D01*
X43750000Y-20725000D01*
X43250000Y-20725000D01*
X43163896Y-20707873D01*
X43090901Y-20659099D01*
X43042127Y-20586104D01*
X43025000Y-20500000D01*
X43025000Y-20050000D01*
X43042127Y-19963896D01*
X43090901Y-19890901D01*
X43163896Y-19842127D01*
X43250000Y-19825000D01*
X43750000Y-19825000D01*
X43836104Y-19842127D01*
G37*
G36*
X37351537Y-19790224D02*
G01*
X37416421Y-19833579D01*
X37459776Y-19898463D01*
X37475000Y-19975000D01*
X37475000Y-20375000D01*
X37459776Y-20451537D01*
X37416421Y-20516421D01*
X37351537Y-20559776D01*
X37275000Y-20575000D01*
X36725000Y-20575000D01*
X36648463Y-20559776D01*
X36583579Y-20516421D01*
X36540224Y-20451537D01*
X36525000Y-20375000D01*
X36525000Y-19975000D01*
X36540224Y-19898463D01*
X36583579Y-19833579D01*
X36648463Y-19790224D01*
X36725000Y-19775000D01*
X37275000Y-19775000D01*
X37351537Y-19790224D01*
G37*
G36*
X38851537Y-19790224D02*
G01*
X38916421Y-19833579D01*
X38959776Y-19898463D01*
X38975000Y-19975000D01*
X38975000Y-20375000D01*
X38959776Y-20451537D01*
X38916421Y-20516421D01*
X38851537Y-20559776D01*
X38775000Y-20575000D01*
X38225000Y-20575000D01*
X38148463Y-20559776D01*
X38083579Y-20516421D01*
X38040224Y-20451537D01*
X38025000Y-20375000D01*
X38025000Y-19975000D01*
X38040224Y-19898463D01*
X38083579Y-19833579D01*
X38148463Y-19790224D01*
X38225000Y-19775000D01*
X38775000Y-19775000D01*
X38851537Y-19790224D01*
G37*
G36*
X29036104Y-19042127D02*
G01*
X29109099Y-19090901D01*
X29157873Y-19163896D01*
X29175000Y-19250000D01*
X29175000Y-19750000D01*
X29157873Y-19836104D01*
X29109099Y-19909099D01*
X29036104Y-19957873D01*
X28950000Y-19975000D01*
X28500000Y-19975000D01*
X28413896Y-19957873D01*
X28340901Y-19909099D01*
X28292127Y-19836104D01*
X28275000Y-19750000D01*
X28275000Y-19250000D01*
X28292127Y-19163896D01*
X28340901Y-19090901D01*
X28413896Y-19042127D01*
X28500000Y-19025000D01*
X28950000Y-19025000D01*
X29036104Y-19042127D01*
G37*
G36*
X30586104Y-19042127D02*
G01*
X30659099Y-19090901D01*
X30707873Y-19163896D01*
X30725000Y-19250000D01*
X30725000Y-19750000D01*
X30707873Y-19836104D01*
X30659099Y-19909099D01*
X30586104Y-19957873D01*
X30500000Y-19975000D01*
X30050000Y-19975000D01*
X29963896Y-19957873D01*
X29890901Y-19909099D01*
X29842127Y-19836104D01*
X29825000Y-19750000D01*
X29825000Y-19250000D01*
X29842127Y-19163896D01*
X29890901Y-19090901D01*
X29963896Y-19042127D01*
X30050000Y-19025000D01*
X30500000Y-19025000D01*
X30586104Y-19042127D01*
G37*
G36*
X46036104Y-19042127D02*
G01*
X46109099Y-19090901D01*
X46157873Y-19163896D01*
X46175000Y-19250000D01*
X46175000Y-19750000D01*
X46157873Y-19836104D01*
X46109099Y-19909099D01*
X46036104Y-19957873D01*
X45950000Y-19975000D01*
X45500000Y-19975000D01*
X45413896Y-19957873D01*
X45340901Y-19909099D01*
X45292127Y-19836104D01*
X45275000Y-19750000D01*
X45275000Y-19250000D01*
X45292127Y-19163896D01*
X45340901Y-19090901D01*
X45413896Y-19042127D01*
X45500000Y-19025000D01*
X45950000Y-19025000D01*
X46036104Y-19042127D01*
G37*
G36*
X47586104Y-19042127D02*
G01*
X47659099Y-19090901D01*
X47707873Y-19163896D01*
X47725000Y-19250000D01*
X47725000Y-19750000D01*
X47707873Y-19836104D01*
X47659099Y-19909099D01*
X47586104Y-19957873D01*
X47500000Y-19975000D01*
X47050000Y-19975000D01*
X46963896Y-19957873D01*
X46890901Y-19909099D01*
X46842127Y-19836104D01*
X46825000Y-19750000D01*
X46825000Y-19250000D01*
X46842127Y-19163896D01*
X46890901Y-19090901D01*
X46963896Y-19042127D01*
X47050000Y-19025000D01*
X47500000Y-19025000D01*
X47586104Y-19042127D01*
G37*
G36*
X50627000Y-19806700D02*
G01*
X50373000Y-19806700D01*
X50373000Y-19044700D01*
X50627000Y-19044700D01*
X50627000Y-19806700D01*
G37*
G36*
X51126999Y-19806700D02*
G01*
X50872999Y-19806700D01*
X50872999Y-19044700D01*
X51126999Y-19044700D01*
X51126999Y-19806700D01*
G37*
G36*
X51627001Y-19806700D02*
G01*
X51373001Y-19806700D01*
X51373001Y-19044700D01*
X51627001Y-19044700D01*
X51627001Y-19806700D01*
G37*
G36*
X52127000Y-19806700D02*
G01*
X51873000Y-19806700D01*
X51873000Y-19044700D01*
X52127000Y-19044700D01*
X52127000Y-19806700D01*
G37*
G36*
X52626999Y-19806700D02*
G01*
X52372999Y-19806700D01*
X52372999Y-19044700D01*
X52626999Y-19044700D01*
X52626999Y-19806700D01*
G37*
G36*
X53127001Y-19806700D02*
G01*
X52873001Y-19806700D01*
X52873001Y-19044700D01*
X53127001Y-19044700D01*
X53127001Y-19806700D01*
G37*
G36*
X53627000Y-19806700D02*
G01*
X53373000Y-19806700D01*
X53373000Y-19044700D01*
X53627000Y-19044700D01*
X53627000Y-19806700D01*
G37*
G36*
X43836104Y-18292127D02*
G01*
X43909099Y-18340901D01*
X43957873Y-18413896D01*
X43975000Y-18500000D01*
X43975000Y-18950000D01*
X43957873Y-19036104D01*
X43909099Y-19109099D01*
X43836104Y-19157873D01*
X43750000Y-19175000D01*
X43250000Y-19175000D01*
X43163896Y-19157873D01*
X43090901Y-19109099D01*
X43042127Y-19036104D01*
X43025000Y-18950000D01*
X43025000Y-18500000D01*
X43042127Y-18413896D01*
X43090901Y-18340901D01*
X43163896Y-18292127D01*
X43250000Y-18275000D01*
X43750000Y-18275000D01*
X43836104Y-18292127D01*
G37*
G36*
X53676400Y-18676400D02*
G01*
X50323600Y-18676400D01*
X50323600Y-15323600D01*
X53676400Y-15323600D01*
X53676400Y-18676400D01*
G37*
G36*
X49955300Y-18627000D02*
G01*
X49193300Y-18627000D01*
X49193300Y-18373000D01*
X49955300Y-18373000D01*
X49955300Y-18627000D01*
G37*
G36*
X54806700Y-18627000D02*
G01*
X54044700Y-18627000D01*
X54044700Y-18373000D01*
X54806700Y-18373000D01*
X54806700Y-18627000D01*
G37*
G36*
X56451537Y-17540224D02*
G01*
X56516421Y-17583579D01*
X56559776Y-17648463D01*
X56575000Y-17725000D01*
X56575000Y-18275000D01*
X56559776Y-18351537D01*
X56516421Y-18416421D01*
X56451537Y-18459776D01*
X56375000Y-18475000D01*
X55975000Y-18475000D01*
X55898463Y-18459776D01*
X55833579Y-18416421D01*
X55790224Y-18351537D01*
X55775000Y-18275000D01*
X55775000Y-17725000D01*
X55790224Y-17648463D01*
X55833579Y-17583579D01*
X55898463Y-17540224D01*
X55975000Y-17525000D01*
X56375000Y-17525000D01*
X56451537Y-17540224D01*
G37*
G36*
X58101537Y-17540224D02*
G01*
X58166421Y-17583579D01*
X58209776Y-17648463D01*
X58225000Y-17725000D01*
X58225000Y-18275000D01*
X58209776Y-18351537D01*
X58166421Y-18416421D01*
X58101537Y-18459776D01*
X58025000Y-18475000D01*
X57625000Y-18475000D01*
X57548463Y-18459776D01*
X57483579Y-18416421D01*
X57440224Y-18351537D01*
X57425000Y-18275000D01*
X57425000Y-17725000D01*
X57440224Y-17648463D01*
X57483579Y-17583579D01*
X57548463Y-17540224D01*
X57625000Y-17525000D01*
X58025000Y-17525000D01*
X58101537Y-17540224D01*
G37*
G36*
X46100000Y-18450000D02*
G01*
X44700000Y-18450000D01*
X44700000Y-17250000D01*
X46100000Y-17250000D01*
X46100000Y-18450000D01*
G37*
G36*
X48300000Y-18450000D02*
G01*
X46900000Y-18450000D01*
X46900000Y-17250000D01*
X48300000Y-17250000D01*
X48300000Y-18450000D01*
G37*
G36*
X34133156Y-17692130D02*
G01*
X34230725Y-17741844D01*
X34308156Y-17819275D01*
X34357870Y-17916844D01*
X34375000Y-18025000D01*
X34357870Y-18133156D01*
X34308156Y-18230725D01*
X34230725Y-18308156D01*
X34133156Y-18357870D01*
X34025000Y-18375000D01*
X33916844Y-18357870D01*
X33819275Y-18308156D01*
X33741844Y-18230725D01*
X33692130Y-18133156D01*
X33675000Y-18025000D01*
X33692130Y-17916844D01*
X33741844Y-17819275D01*
X33819275Y-17741844D01*
X33916844Y-17692130D01*
X34025000Y-17675000D01*
X34133156Y-17692130D01*
G37*
G36*
X34983156Y-17692130D02*
G01*
X35080725Y-17741844D01*
X35158156Y-17819275D01*
X35207870Y-17916844D01*
X35225000Y-18025000D01*
X35207870Y-18133156D01*
X35158156Y-18230725D01*
X35080725Y-18308156D01*
X34983156Y-18357870D01*
X34875000Y-18375000D01*
X34766844Y-18357870D01*
X34669275Y-18308156D01*
X34591844Y-18230725D01*
X34542130Y-18133156D01*
X34525000Y-18025000D01*
X34542130Y-17916844D01*
X34591844Y-17819275D01*
X34669275Y-17741844D01*
X34766844Y-17692130D01*
X34875000Y-17675000D01*
X34983156Y-17692130D01*
G37*
G36*
X35833156Y-17692130D02*
G01*
X35930725Y-17741844D01*
X36008156Y-17819275D01*
X36057870Y-17916844D01*
X36075000Y-18025000D01*
X36057870Y-18133156D01*
X36008156Y-18230725D01*
X35930725Y-18308156D01*
X35833156Y-18357870D01*
X35725000Y-18375000D01*
X35616844Y-18357870D01*
X35519275Y-18308156D01*
X35441844Y-18230725D01*
X35392130Y-18133156D01*
X35375000Y-18025000D01*
X35392130Y-17916844D01*
X35441844Y-17819275D01*
X35519275Y-17741844D01*
X35616844Y-17692130D01*
X35725000Y-17675000D01*
X35833156Y-17692130D01*
G37*
G36*
X36683156Y-17692130D02*
G01*
X36780725Y-17741844D01*
X36858156Y-17819275D01*
X36907870Y-17916844D01*
X36925000Y-18025000D01*
X36907870Y-18133156D01*
X36858156Y-18230725D01*
X36780725Y-18308156D01*
X36683156Y-18357870D01*
X36575000Y-18375000D01*
X36466844Y-18357870D01*
X36369275Y-18308156D01*
X36291844Y-18230725D01*
X36242130Y-18133156D01*
X36225000Y-18025000D01*
X36242130Y-17916844D01*
X36291844Y-17819275D01*
X36369275Y-17741844D01*
X36466844Y-17692130D01*
X36575000Y-17675000D01*
X36683156Y-17692130D01*
G37*
G36*
X37533156Y-17692130D02*
G01*
X37630725Y-17741844D01*
X37708156Y-17819275D01*
X37757870Y-17916844D01*
X37775000Y-18025000D01*
X37757870Y-18133156D01*
X37708156Y-18230725D01*
X37630725Y-18308156D01*
X37533156Y-18357870D01*
X37425000Y-18375000D01*
X37316844Y-18357870D01*
X37219275Y-18308156D01*
X37141844Y-18230725D01*
X37092130Y-18133156D01*
X37075000Y-18025000D01*
X37092130Y-17916844D01*
X37141844Y-17819275D01*
X37219275Y-17741844D01*
X37316844Y-17692130D01*
X37425000Y-17675000D01*
X37533156Y-17692130D01*
G37*
G36*
X38383156Y-17692130D02*
G01*
X38480725Y-17741844D01*
X38558156Y-17819275D01*
X38607870Y-17916844D01*
X38625000Y-18025000D01*
X38607870Y-18133156D01*
X38558156Y-18230725D01*
X38480725Y-18308156D01*
X38383156Y-18357870D01*
X38275000Y-18375000D01*
X38166844Y-18357870D01*
X38069275Y-18308156D01*
X37991844Y-18230725D01*
X37942130Y-18133156D01*
X37925000Y-18025000D01*
X37942130Y-17916844D01*
X37991844Y-17819275D01*
X38069275Y-17741844D01*
X38166844Y-17692130D01*
X38275000Y-17675000D01*
X38383156Y-17692130D01*
G37*
G36*
X39233156Y-17692130D02*
G01*
X39330725Y-17741844D01*
X39408156Y-17819275D01*
X39457870Y-17916844D01*
X39475000Y-18025000D01*
X39457870Y-18133156D01*
X39408156Y-18230725D01*
X39330725Y-18308156D01*
X39233156Y-18357870D01*
X39125000Y-18375000D01*
X39016844Y-18357870D01*
X38919275Y-18308156D01*
X38841844Y-18230725D01*
X38792130Y-18133156D01*
X38775000Y-18025000D01*
X38792130Y-17916844D01*
X38841844Y-17819275D01*
X38919275Y-17741844D01*
X39016844Y-17692130D01*
X39125000Y-17675000D01*
X39233156Y-17692130D01*
G37*
G36*
X40083156Y-17692130D02*
G01*
X40180725Y-17741844D01*
X40258156Y-17819275D01*
X40307870Y-17916844D01*
X40325000Y-18025000D01*
X40307870Y-18133156D01*
X40258156Y-18230725D01*
X40180725Y-18308156D01*
X40083156Y-18357870D01*
X39975000Y-18375000D01*
X39866844Y-18357870D01*
X39769275Y-18308156D01*
X39691844Y-18230725D01*
X39642130Y-18133156D01*
X39625000Y-18025000D01*
X39642130Y-17916844D01*
X39691844Y-17819275D01*
X39769275Y-17741844D01*
X39866844Y-17692130D01*
X39975000Y-17675000D01*
X40083156Y-17692130D01*
G37*
G36*
X28757403Y-16986418D02*
G01*
X28806066Y-17018934D01*
X28838582Y-17067597D01*
X28850000Y-17125000D01*
X28850000Y-18150000D01*
X28838582Y-18207403D01*
X28806066Y-18256066D01*
X28757403Y-18288582D01*
X28700000Y-18300000D01*
X28400000Y-18300000D01*
X28342597Y-18288582D01*
X28293934Y-18256066D01*
X28261418Y-18207403D01*
X28250000Y-18150000D01*
X28250000Y-17125000D01*
X28261418Y-17067597D01*
X28293934Y-17018934D01*
X28342597Y-16986418D01*
X28400000Y-16975000D01*
X28700000Y-16975000D01*
X28757403Y-16986418D01*
G37*
G36*
X30657403Y-16986418D02*
G01*
X30706066Y-17018934D01*
X30738582Y-17067597D01*
X30750000Y-17125000D01*
X30750000Y-18150000D01*
X30738582Y-18207403D01*
X30706066Y-18256066D01*
X30657403Y-18288582D01*
X30600000Y-18300000D01*
X30300000Y-18300000D01*
X30242597Y-18288582D01*
X30193934Y-18256066D01*
X30161418Y-18207403D01*
X30150000Y-18150000D01*
X30150000Y-17125000D01*
X30161418Y-17067597D01*
X30193934Y-17018934D01*
X30242597Y-16986418D01*
X30300000Y-16975000D01*
X30600000Y-16975000D01*
X30657403Y-16986418D01*
G37*
G36*
X32847208Y-15879254D02*
G01*
X32948943Y-15937991D01*
X33032009Y-16021057D01*
X33090746Y-16122792D01*
X33121150Y-16236263D01*
X33125000Y-16295000D01*
X33125000Y-17795000D01*
X33121150Y-17853737D01*
X33090746Y-17967208D01*
X33032009Y-18068943D01*
X32948943Y-18152009D01*
X32847208Y-18210746D01*
X32733737Y-18241150D01*
X32616263Y-18241150D01*
X32502792Y-18210746D01*
X32401057Y-18152009D01*
X32317991Y-18068943D01*
X32259254Y-17967208D01*
X32228850Y-17853737D01*
X32225000Y-17795000D01*
X32225000Y-16295000D01*
X32228850Y-16236263D01*
X32259254Y-16122792D01*
X32317991Y-16021057D01*
X32401057Y-15937991D01*
X32502792Y-15879254D01*
X32616263Y-15848850D01*
X32733737Y-15848850D01*
X32847208Y-15879254D01*
G37*
G36*
X41497208Y-15879254D02*
G01*
X41598943Y-15937991D01*
X41682009Y-16021057D01*
X41740746Y-16122792D01*
X41771150Y-16236263D01*
X41775000Y-16295000D01*
X41775000Y-17795000D01*
X41771150Y-17853737D01*
X41740746Y-17967208D01*
X41682009Y-18068943D01*
X41598943Y-18152009D01*
X41497208Y-18210746D01*
X41383737Y-18241150D01*
X41266263Y-18241150D01*
X41152792Y-18210746D01*
X41051057Y-18152009D01*
X40967991Y-18068943D01*
X40909254Y-17967208D01*
X40878850Y-17853737D01*
X40875000Y-17795000D01*
X40875000Y-16295000D01*
X40878850Y-16236263D01*
X40909254Y-16122792D01*
X40967991Y-16021057D01*
X41051057Y-15937991D01*
X41152792Y-15879254D01*
X41266263Y-15848850D01*
X41383737Y-15848850D01*
X41497208Y-15879254D01*
G37*
G36*
X49955300Y-18127001D02*
G01*
X49193300Y-18127001D01*
X49193300Y-17873001D01*
X49955300Y-17873001D01*
X49955300Y-18127001D01*
G37*
G36*
X54806700Y-18127001D02*
G01*
X54044700Y-18127001D01*
X54044700Y-17873001D01*
X54806700Y-17873001D01*
X54806700Y-18127001D01*
G37*
G36*
X49955300Y-17626999D02*
G01*
X49193300Y-17626999D01*
X49193300Y-17372999D01*
X49955300Y-17372999D01*
X49955300Y-17626999D01*
G37*
G36*
X54806700Y-17626999D02*
G01*
X54044700Y-17626999D01*
X54044700Y-17372999D01*
X54806700Y-17372999D01*
X54806700Y-17626999D01*
G37*
G36*
X60762664Y-15956602D02*
G01*
X60925000Y-16028878D01*
X61068761Y-16133327D01*
X61187664Y-16265383D01*
X61276514Y-16419274D01*
X61331425Y-16588275D01*
X61350000Y-16765000D01*
X61331425Y-16941725D01*
X61276514Y-17110726D01*
X61187664Y-17264617D01*
X61068761Y-17396673D01*
X60925000Y-17501122D01*
X60762664Y-17573398D01*
X60588849Y-17610344D01*
X60411151Y-17610344D01*
X60237336Y-17573398D01*
X60075000Y-17501122D01*
X59931239Y-17396673D01*
X59812336Y-17264617D01*
X59723486Y-17110726D01*
X59668575Y-16941725D01*
X59650000Y-16765000D01*
X59668575Y-16588275D01*
X59723486Y-16419274D01*
X59812336Y-16265383D01*
X59931239Y-16133327D01*
X60075000Y-16028878D01*
X60237336Y-15956602D01*
X60411151Y-15919656D01*
X60588849Y-15919656D01*
X60762664Y-15956602D01*
G37*
G36*
X49955300Y-17127000D02*
G01*
X49193300Y-17127000D01*
X49193300Y-16873000D01*
X49955300Y-16873000D01*
X49955300Y-17127000D01*
G37*
G36*
X54806700Y-17127000D02*
G01*
X54044700Y-17127000D01*
X54044700Y-16873000D01*
X54806700Y-16873000D01*
X54806700Y-17127000D01*
G37*
G36*
X34133156Y-16342130D02*
G01*
X34230725Y-16391844D01*
X34308156Y-16469275D01*
X34357870Y-16566844D01*
X34375000Y-16675000D01*
X34357870Y-16783156D01*
X34308156Y-16880725D01*
X34230725Y-16958156D01*
X34133156Y-17007870D01*
X34025000Y-17025000D01*
X33916844Y-17007870D01*
X33819275Y-16958156D01*
X33741844Y-16880725D01*
X33692130Y-16783156D01*
X33675000Y-16675000D01*
X33692130Y-16566844D01*
X33741844Y-16469275D01*
X33819275Y-16391844D01*
X33916844Y-16342130D01*
X34025000Y-16325000D01*
X34133156Y-16342130D01*
G37*
G36*
X34983156Y-16342130D02*
G01*
X35080725Y-16391844D01*
X35158156Y-16469275D01*
X35207870Y-16566844D01*
X35225000Y-16675000D01*
X35207870Y-16783156D01*
X35158156Y-16880725D01*
X35080725Y-16958156D01*
X34983156Y-17007870D01*
X34875000Y-17025000D01*
X34766844Y-17007870D01*
X34669275Y-16958156D01*
X34591844Y-16880725D01*
X34542130Y-16783156D01*
X34525000Y-16675000D01*
X34542130Y-16566844D01*
X34591844Y-16469275D01*
X34669275Y-16391844D01*
X34766844Y-16342130D01*
X34875000Y-16325000D01*
X34983156Y-16342130D01*
G37*
G36*
X35833156Y-16342130D02*
G01*
X35930725Y-16391844D01*
X36008156Y-16469275D01*
X36057870Y-16566844D01*
X36075000Y-16675000D01*
X36057870Y-16783156D01*
X36008156Y-16880725D01*
X35930725Y-16958156D01*
X35833156Y-17007870D01*
X35725000Y-17025000D01*
X35616844Y-17007870D01*
X35519275Y-16958156D01*
X35441844Y-16880725D01*
X35392130Y-16783156D01*
X35375000Y-16675000D01*
X35392130Y-16566844D01*
X35441844Y-16469275D01*
X35519275Y-16391844D01*
X35616844Y-16342130D01*
X35725000Y-16325000D01*
X35833156Y-16342130D01*
G37*
G36*
X36683156Y-16342130D02*
G01*
X36780725Y-16391844D01*
X36858156Y-16469275D01*
X36907870Y-16566844D01*
X36925000Y-16675000D01*
X36907870Y-16783156D01*
X36858156Y-16880725D01*
X36780725Y-16958156D01*
X36683156Y-17007870D01*
X36575000Y-17025000D01*
X36466844Y-17007870D01*
X36369275Y-16958156D01*
X36291844Y-16880725D01*
X36242130Y-16783156D01*
X36225000Y-16675000D01*
X36242130Y-16566844D01*
X36291844Y-16469275D01*
X36369275Y-16391844D01*
X36466844Y-16342130D01*
X36575000Y-16325000D01*
X36683156Y-16342130D01*
G37*
G36*
X37533156Y-16342130D02*
G01*
X37630725Y-16391844D01*
X37708156Y-16469275D01*
X37757870Y-16566844D01*
X37775000Y-16675000D01*
X37757870Y-16783156D01*
X37708156Y-16880725D01*
X37630725Y-16958156D01*
X37533156Y-17007870D01*
X37425000Y-17025000D01*
X37316844Y-17007870D01*
X37219275Y-16958156D01*
X37141844Y-16880725D01*
X37092130Y-16783156D01*
X37075000Y-16675000D01*
X37092130Y-16566844D01*
X37141844Y-16469275D01*
X37219275Y-16391844D01*
X37316844Y-16342130D01*
X37425000Y-16325000D01*
X37533156Y-16342130D01*
G37*
G36*
X38383156Y-16342130D02*
G01*
X38480725Y-16391844D01*
X38558156Y-16469275D01*
X38607870Y-16566844D01*
X38625000Y-16675000D01*
X38607870Y-16783156D01*
X38558156Y-16880725D01*
X38480725Y-16958156D01*
X38383156Y-17007870D01*
X38275000Y-17025000D01*
X38166844Y-17007870D01*
X38069275Y-16958156D01*
X37991844Y-16880725D01*
X37942130Y-16783156D01*
X37925000Y-16675000D01*
X37942130Y-16566844D01*
X37991844Y-16469275D01*
X38069275Y-16391844D01*
X38166844Y-16342130D01*
X38275000Y-16325000D01*
X38383156Y-16342130D01*
G37*
G36*
X39233156Y-16342130D02*
G01*
X39330725Y-16391844D01*
X39408156Y-16469275D01*
X39457870Y-16566844D01*
X39475000Y-16675000D01*
X39457870Y-16783156D01*
X39408156Y-16880725D01*
X39330725Y-16958156D01*
X39233156Y-17007870D01*
X39125000Y-17025000D01*
X39016844Y-17007870D01*
X38919275Y-16958156D01*
X38841844Y-16880725D01*
X38792130Y-16783156D01*
X38775000Y-16675000D01*
X38792130Y-16566844D01*
X38841844Y-16469275D01*
X38919275Y-16391844D01*
X39016844Y-16342130D01*
X39125000Y-16325000D01*
X39233156Y-16342130D01*
G37*
G36*
X40083156Y-16342130D02*
G01*
X40180725Y-16391844D01*
X40258156Y-16469275D01*
X40307870Y-16566844D01*
X40325000Y-16675000D01*
X40307870Y-16783156D01*
X40258156Y-16880725D01*
X40180725Y-16958156D01*
X40083156Y-17007870D01*
X39975000Y-17025000D01*
X39866844Y-17007870D01*
X39769275Y-16958156D01*
X39691844Y-16880725D01*
X39642130Y-16783156D01*
X39625000Y-16675000D01*
X39642130Y-16566844D01*
X39691844Y-16469275D01*
X39769275Y-16391844D01*
X39866844Y-16342130D01*
X39975000Y-16325000D01*
X40083156Y-16342130D01*
G37*
G36*
X56536104Y-16042127D02*
G01*
X56609099Y-16090901D01*
X56657873Y-16163896D01*
X56675000Y-16250000D01*
X56675000Y-16750000D01*
X56657873Y-16836104D01*
X56609099Y-16909099D01*
X56536104Y-16957873D01*
X56450000Y-16975000D01*
X56000000Y-16975000D01*
X55913896Y-16957873D01*
X55840901Y-16909099D01*
X55792127Y-16836104D01*
X55775000Y-16750000D01*
X55775000Y-16250000D01*
X55792127Y-16163896D01*
X55840901Y-16090901D01*
X55913896Y-16042127D01*
X56000000Y-16025000D01*
X56450000Y-16025000D01*
X56536104Y-16042127D01*
G37*
G36*
X58086104Y-16042127D02*
G01*
X58159099Y-16090901D01*
X58207873Y-16163896D01*
X58225000Y-16250000D01*
X58225000Y-16750000D01*
X58207873Y-16836104D01*
X58159099Y-16909099D01*
X58086104Y-16957873D01*
X58000000Y-16975000D01*
X57550000Y-16975000D01*
X57463896Y-16957873D01*
X57390901Y-16909099D01*
X57342127Y-16836104D01*
X57325000Y-16750000D01*
X57325000Y-16250000D01*
X57342127Y-16163896D01*
X57390901Y-16090901D01*
X57463896Y-16042127D01*
X57550000Y-16025000D01*
X58000000Y-16025000D01*
X58086104Y-16042127D01*
G37*
G36*
X46100000Y-16750000D02*
G01*
X44700000Y-16750000D01*
X44700000Y-15550000D01*
X46100000Y-15550000D01*
X46100000Y-16750000D01*
G37*
G36*
X48300000Y-16750000D02*
G01*
X46900000Y-16750000D01*
X46900000Y-15550000D01*
X48300000Y-15550000D01*
X48300000Y-16750000D01*
G37*
G36*
X49955300Y-16627001D02*
G01*
X49193300Y-16627001D01*
X49193300Y-16373001D01*
X49955300Y-16373001D01*
X49955300Y-16627001D01*
G37*
G36*
X54806700Y-16627001D02*
G01*
X54044700Y-16627001D01*
X54044700Y-16373001D01*
X54806700Y-16373001D01*
X54806700Y-16627001D01*
G37*
G36*
X49955300Y-16126999D02*
G01*
X49193300Y-16126999D01*
X49193300Y-15872999D01*
X49955300Y-15872999D01*
X49955300Y-16126999D01*
G37*
G36*
X54806700Y-16126999D02*
G01*
X54044700Y-16126999D01*
X54044700Y-15872999D01*
X54806700Y-15872999D01*
X54806700Y-16126999D01*
G37*
G36*
X28757403Y-14711418D02*
G01*
X28806066Y-14743934D01*
X28838582Y-14792597D01*
X28850000Y-14850000D01*
X28850000Y-15875000D01*
X28838582Y-15932403D01*
X28806066Y-15981066D01*
X28757403Y-16013582D01*
X28700000Y-16025000D01*
X28400000Y-16025000D01*
X28342597Y-16013582D01*
X28293934Y-15981066D01*
X28261418Y-15932403D01*
X28250000Y-15875000D01*
X28250000Y-14850000D01*
X28261418Y-14792597D01*
X28293934Y-14743934D01*
X28342597Y-14711418D01*
X28400000Y-14700000D01*
X28700000Y-14700000D01*
X28757403Y-14711418D01*
G37*
G36*
X29707403Y-14711418D02*
G01*
X29756066Y-14743934D01*
X29788582Y-14792597D01*
X29800000Y-14850000D01*
X29800000Y-15875000D01*
X29788582Y-15932403D01*
X29756066Y-15981066D01*
X29707403Y-16013582D01*
X29650000Y-16025000D01*
X29350000Y-16025000D01*
X29292597Y-16013582D01*
X29243934Y-15981066D01*
X29211418Y-15932403D01*
X29200000Y-15875000D01*
X29200000Y-14850000D01*
X29211418Y-14792597D01*
X29243934Y-14743934D01*
X29292597Y-14711418D01*
X29350000Y-14700000D01*
X29650000Y-14700000D01*
X29707403Y-14711418D01*
G37*
G36*
X30657403Y-14711418D02*
G01*
X30706066Y-14743934D01*
X30738582Y-14792597D01*
X30750000Y-14850000D01*
X30750000Y-15875000D01*
X30738582Y-15932403D01*
X30706066Y-15981066D01*
X30657403Y-16013582D01*
X30600000Y-16025000D01*
X30300000Y-16025000D01*
X30242597Y-16013582D01*
X30193934Y-15981066D01*
X30161418Y-15932403D01*
X30150000Y-15875000D01*
X30150000Y-14850000D01*
X30161418Y-14792597D01*
X30193934Y-14743934D01*
X30242597Y-14711418D01*
X30300000Y-14700000D01*
X30600000Y-14700000D01*
X30657403Y-14711418D01*
G37*
G36*
X43836104Y-14842127D02*
G01*
X43909099Y-14890901D01*
X43957873Y-14963896D01*
X43975000Y-15050000D01*
X43975000Y-15500000D01*
X43957873Y-15586104D01*
X43909099Y-15659099D01*
X43836104Y-15707873D01*
X43750000Y-15725000D01*
X43250000Y-15725000D01*
X43163896Y-15707873D01*
X43090901Y-15659099D01*
X43042127Y-15586104D01*
X43025000Y-15500000D01*
X43025000Y-15050000D01*
X43042127Y-14963896D01*
X43090901Y-14890901D01*
X43163896Y-14842127D01*
X43250000Y-14825000D01*
X43750000Y-14825000D01*
X43836104Y-14842127D01*
G37*
G36*
X49955300Y-15627000D02*
G01*
X49193300Y-15627000D01*
X49193300Y-15373000D01*
X49955300Y-15373000D01*
X49955300Y-15627000D01*
G37*
G36*
X54806700Y-15627000D02*
G01*
X54044700Y-15627000D01*
X54044700Y-15373000D01*
X54806700Y-15373000D01*
X54806700Y-15627000D01*
G37*
G36*
X61350000Y-15075000D02*
G01*
X59650000Y-15075000D01*
X59650000Y-13375000D01*
X61350000Y-13375000D01*
X61350000Y-15075000D01*
G37*
G36*
X46036104Y-14042127D02*
G01*
X46109099Y-14090901D01*
X46157873Y-14163896D01*
X46175000Y-14250000D01*
X46175000Y-14750000D01*
X46157873Y-14836104D01*
X46109099Y-14909099D01*
X46036104Y-14957873D01*
X45950000Y-14975000D01*
X45500000Y-14975000D01*
X45413896Y-14957873D01*
X45340901Y-14909099D01*
X45292127Y-14836104D01*
X45275000Y-14750000D01*
X45275000Y-14250000D01*
X45292127Y-14163896D01*
X45340901Y-14090901D01*
X45413896Y-14042127D01*
X45500000Y-14025000D01*
X45950000Y-14025000D01*
X46036104Y-14042127D01*
G37*
G36*
X47586104Y-14042127D02*
G01*
X47659099Y-14090901D01*
X47707873Y-14163896D01*
X47725000Y-14250000D01*
X47725000Y-14750000D01*
X47707873Y-14836104D01*
X47659099Y-14909099D01*
X47586104Y-14957873D01*
X47500000Y-14975000D01*
X47050000Y-14975000D01*
X46963896Y-14957873D01*
X46890901Y-14909099D01*
X46842127Y-14836104D01*
X46825000Y-14750000D01*
X46825000Y-14250000D01*
X46842127Y-14163896D01*
X46890901Y-14090901D01*
X46963896Y-14042127D01*
X47050000Y-14025000D01*
X47500000Y-14025000D01*
X47586104Y-14042127D01*
G37*
G36*
X56536104Y-14042127D02*
G01*
X56609099Y-14090901D01*
X56657873Y-14163896D01*
X56675000Y-14250000D01*
X56675000Y-14750000D01*
X56657873Y-14836104D01*
X56609099Y-14909099D01*
X56536104Y-14957873D01*
X56450000Y-14975000D01*
X56000000Y-14975000D01*
X55913896Y-14957873D01*
X55840901Y-14909099D01*
X55792127Y-14836104D01*
X55775000Y-14750000D01*
X55775000Y-14250000D01*
X55792127Y-14163896D01*
X55840901Y-14090901D01*
X55913896Y-14042127D01*
X56000000Y-14025000D01*
X56450000Y-14025000D01*
X56536104Y-14042127D01*
G37*
G36*
X58086104Y-14042127D02*
G01*
X58159099Y-14090901D01*
X58207873Y-14163896D01*
X58225000Y-14250000D01*
X58225000Y-14750000D01*
X58207873Y-14836104D01*
X58159099Y-14909099D01*
X58086104Y-14957873D01*
X58000000Y-14975000D01*
X57550000Y-14975000D01*
X57463896Y-14957873D01*
X57390901Y-14909099D01*
X57342127Y-14836104D01*
X57325000Y-14750000D01*
X57325000Y-14250000D01*
X57342127Y-14163896D01*
X57390901Y-14090901D01*
X57463896Y-14042127D01*
X57550000Y-14025000D01*
X58000000Y-14025000D01*
X58086104Y-14042127D01*
G37*
G36*
X50627000Y-14955300D02*
G01*
X50373000Y-14955300D01*
X50373000Y-14193300D01*
X50627000Y-14193300D01*
X50627000Y-14955300D01*
G37*
G36*
X51126999Y-14955300D02*
G01*
X50872999Y-14955300D01*
X50872999Y-14193300D01*
X51126999Y-14193300D01*
X51126999Y-14955300D01*
G37*
G36*
X51627001Y-14955300D02*
G01*
X51373001Y-14955300D01*
X51373001Y-14193300D01*
X51627001Y-14193300D01*
X51627001Y-14955300D01*
G37*
G36*
X52127000Y-14955300D02*
G01*
X51873000Y-14955300D01*
X51873000Y-14193300D01*
X52127000Y-14193300D01*
X52127000Y-14955300D01*
G37*
G36*
X52626999Y-14955300D02*
G01*
X52372999Y-14955300D01*
X52372999Y-14193300D01*
X52626999Y-14193300D01*
X52626999Y-14955300D01*
G37*
G36*
X53127001Y-14955300D02*
G01*
X52873001Y-14955300D01*
X52873001Y-14193300D01*
X53127001Y-14193300D01*
X53127001Y-14955300D01*
G37*
G36*
X53627000Y-14955300D02*
G01*
X53373000Y-14955300D01*
X53373000Y-14193300D01*
X53627000Y-14193300D01*
X53627000Y-14955300D01*
G37*
G36*
X32847208Y-12849254D02*
G01*
X32948943Y-12907991D01*
X33032009Y-12991057D01*
X33090746Y-13092792D01*
X33121150Y-13206263D01*
X33125000Y-13265000D01*
X33125000Y-14065000D01*
X33121150Y-14123737D01*
X33090746Y-14237208D01*
X33032009Y-14338943D01*
X32948943Y-14422009D01*
X32847208Y-14480746D01*
X32733737Y-14511150D01*
X32616263Y-14511150D01*
X32502792Y-14480746D01*
X32401057Y-14422009D01*
X32317991Y-14338943D01*
X32259254Y-14237208D01*
X32228850Y-14123737D01*
X32225000Y-14065000D01*
X32225000Y-13265000D01*
X32228850Y-13206263D01*
X32259254Y-13092792D01*
X32317991Y-12991057D01*
X32401057Y-12907991D01*
X32502792Y-12849254D01*
X32616263Y-12818850D01*
X32733737Y-12818850D01*
X32847208Y-12849254D01*
G37*
G36*
X41497208Y-12849254D02*
G01*
X41598943Y-12907991D01*
X41682009Y-12991057D01*
X41740746Y-13092792D01*
X41771150Y-13206263D01*
X41775000Y-13265000D01*
X41775000Y-14065000D01*
X41771150Y-14123737D01*
X41740746Y-14237208D01*
X41682009Y-14338943D01*
X41598943Y-14422009D01*
X41497208Y-14480746D01*
X41383737Y-14511150D01*
X41266263Y-14511150D01*
X41152792Y-14480746D01*
X41051057Y-14422009D01*
X40967991Y-14338943D01*
X40909254Y-14237208D01*
X40878850Y-14123737D01*
X40875000Y-14065000D01*
X40875000Y-13265000D01*
X40878850Y-13206263D01*
X40909254Y-13092792D01*
X40967991Y-12991057D01*
X41051057Y-12907991D01*
X41152792Y-12849254D01*
X41266263Y-12818850D01*
X41383737Y-12818850D01*
X41497208Y-12849254D01*
G37*
G36*
X43836104Y-13292127D02*
G01*
X43909099Y-13340901D01*
X43957873Y-13413896D01*
X43975000Y-13500000D01*
X43975000Y-13950000D01*
X43957873Y-14036104D01*
X43909099Y-14109099D01*
X43836104Y-14157873D01*
X43750000Y-14175000D01*
X43250000Y-14175000D01*
X43163896Y-14157873D01*
X43090901Y-14109099D01*
X43042127Y-14036104D01*
X43025000Y-13950000D01*
X43025000Y-13500000D01*
X43042127Y-13413896D01*
X43090901Y-13340901D01*
X43163896Y-13292127D01*
X43250000Y-13275000D01*
X43750000Y-13275000D01*
X43836104Y-13292127D01*
G37*
G36*
X29036104Y-13042127D02*
G01*
X29109099Y-13090901D01*
X29157873Y-13163896D01*
X29175000Y-13250000D01*
X29175000Y-13750000D01*
X29157873Y-13836104D01*
X29109099Y-13909099D01*
X29036104Y-13957873D01*
X28950000Y-13975000D01*
X28500000Y-13975000D01*
X28413896Y-13957873D01*
X28340901Y-13909099D01*
X28292127Y-13836104D01*
X28275000Y-13750000D01*
X28275000Y-13250000D01*
X28292127Y-13163896D01*
X28340901Y-13090901D01*
X28413896Y-13042127D01*
X28500000Y-13025000D01*
X28950000Y-13025000D01*
X29036104Y-13042127D01*
G37*
G36*
X30586104Y-13042127D02*
G01*
X30659099Y-13090901D01*
X30707873Y-13163896D01*
X30725000Y-13250000D01*
X30725000Y-13750000D01*
X30707873Y-13836104D01*
X30659099Y-13909099D01*
X30586104Y-13957873D01*
X30500000Y-13975000D01*
X30050000Y-13975000D01*
X29963896Y-13957873D01*
X29890901Y-13909099D01*
X29842127Y-13836104D01*
X29825000Y-13750000D01*
X29825000Y-13250000D01*
X29842127Y-13163896D01*
X29890901Y-13090901D01*
X29963896Y-13042127D01*
X30050000Y-13025000D01*
X30500000Y-13025000D01*
X30586104Y-13042127D01*
G37*
G36*
X56451537Y-12540224D02*
G01*
X56516421Y-12583579D01*
X56559776Y-12648463D01*
X56575000Y-12725000D01*
X56575000Y-13275000D01*
X56559776Y-13351537D01*
X56516421Y-13416421D01*
X56451537Y-13459776D01*
X56375000Y-13475000D01*
X55975000Y-13475000D01*
X55898463Y-13459776D01*
X55833579Y-13416421D01*
X55790224Y-13351537D01*
X55775000Y-13275000D01*
X55775000Y-12725000D01*
X55790224Y-12648463D01*
X55833579Y-12583579D01*
X55898463Y-12540224D01*
X55975000Y-12525000D01*
X56375000Y-12525000D01*
X56451537Y-12540224D01*
G37*
G36*
X58101537Y-12540224D02*
G01*
X58166421Y-12583579D01*
X58209776Y-12648463D01*
X58225000Y-12725000D01*
X58225000Y-13275000D01*
X58209776Y-13351537D01*
X58166421Y-13416421D01*
X58101537Y-13459776D01*
X58025000Y-13475000D01*
X57625000Y-13475000D01*
X57548463Y-13459776D01*
X57483579Y-13416421D01*
X57440224Y-13351537D01*
X57425000Y-13275000D01*
X57425000Y-12725000D01*
X57440224Y-12648463D01*
X57483579Y-12583579D01*
X57548463Y-12540224D01*
X57625000Y-12525000D01*
X58025000Y-12525000D01*
X58101537Y-12540224D01*
G37*
M02*
