M48
; DRILL file {KiCad 8.0.6} date 2024-11-27T12:31:11-0500
; FORMAT={-:-/ absolute / inch / decimal}
; #@! TF.CreationDate,2024-11-27T12:31:11-05:00
; #@! TF.GenerationSoftware,Kicad,Pcbnew,8.0.6
; #@! TF.FileFunction,Plated,1,4,PTH
FMAT,2
INCH
; #@! TA.AperFunction,Plated,PTH,ViaDrill
T1C0.0100
; #@! TA.AperFunction,Plated,PTH,ViaDrill
T2C0.0118
; #@! TA.AperFunction,Plated,PTH,ComponentDrill
T3C0.0157
; #@! TA.AperFunction,Plated,PTH,ComponentDrill
T4C0.0236
; #@! TA.AperFunction,Plated,PTH,ComponentDrill
T5C0.0394
; #@! TA.AperFunction,Plated,PTH,ComponentDrill
T6C0.0512
%
G90
G05
T1
X1.1181Y-1.2795
X1.1811Y-1.0827
X1.2205Y-1.4173
X1.2788Y-1.5234
X1.2795Y-1.4173
X1.2795Y-1.4987
X1.2795Y-1.5748
X1.2795Y-1.5474
X1.2874Y-1.4646
X1.3189Y-1.2795
X1.3206Y-1.7126
X1.3386Y-1.6339
X1.3575Y-1.3784
X1.358Y-1.4173
X1.358Y-1.4429
X1.358Y-1.4803
X1.3701Y-1.5551
X1.3847Y-1.6328
X1.4016Y-1.5551
X1.4173Y-1.3976
X1.4545Y-1.0411
X1.4567Y-1.2795
X1.5006Y-1.6215
X1.5049Y-1.7032
X1.5118Y-1.5594
X1.5179Y-1.4589
X1.5298Y-1.2205
X1.5551Y-1.3976
X1.5551Y-1.4216
X1.5551Y-1.9882
X1.5945Y-0.9252
X1.5945Y-1.063
X1.5945Y-1.3189
X1.5945Y-1.7717
X1.6025Y-1.8701
X1.6664Y-2.0935
X1.6723Y-1.7734
X1.6761Y-1.4596
X1.6858Y-1.1435
X1.6878Y-0.8305
X1.6929Y-1.6142
X1.6929Y-1.9309
X1.6929Y-2.2441
X1.7126Y-1.301
X1.7401Y-0.6436
X1.7406Y-0.9646
X1.8701Y-0.4921
X1.8898Y-1.6929
X1.8898Y-2.0079
X1.8898Y-2.3228
X1.8898Y-2.4029
X1.9094Y-0.748
X1.9094Y-1.063
X1.9094Y-1.378
X1.9488Y-0.5906
X1.9488Y-0.9055
X1.9488Y-1.2205
X1.9488Y-1.5354
X1.9488Y-1.8504
X1.9488Y-2.1654
X1.9685Y-0.8221
X1.9685Y-0.8858
X1.9685Y-1.1371
X1.9685Y-1.2008
X1.9685Y-1.5157
X1.9685Y-1.764
X1.9685Y-1.8307
X1.9685Y-2.0789
X1.9685Y-2.1457
X1.9697Y-1.4387
X1.9882Y-0.5315
X2.0079Y-0.8041
X2.0079Y-1.1191
X2.0079Y-1.431
X2.0079Y-1.746
X2.0079Y-2.0609
X2.0079Y-2.3819
X2.0472Y-0.5118
X2.0472Y-0.8028
X2.0472Y-1.1177
X2.0472Y-1.431
X2.0472Y-1.746
X2.0472Y-2.0609
X2.0472Y-2.3819
X2.0486Y-2.1231
X2.0489Y-0.8636
X2.0489Y-1.1781
X2.0489Y-1.808
X2.0489Y-1.4931
X2.0669Y-0.5315
X2.0669Y-0.8465
X2.0669Y-1.1614
X2.0669Y-1.4764
X2.0669Y-1.7913
X2.0669Y-2.1063
X2.0866Y-0.5118
X2.0866Y-0.8268
X2.0866Y-1.1417
X2.0866Y-1.4567
X2.0866Y-1.7717
X2.0866Y-2.0866
X2.1063Y-0.5315
X2.1063Y-0.8465
X2.1063Y-1.1614
X2.1063Y-1.4764
X2.1063Y-1.7913
X2.1063Y-2.1063
X2.1427Y-0.7648
X2.1427Y-1.0798
X2.1427Y-1.3947
X2.1427Y-1.7097
X2.1427Y-2.0246
X2.1427Y-2.3396
X2.1654Y-0.5906
X2.1654Y-0.9055
X2.1654Y-1.2205
X2.1654Y-1.5354
X2.1654Y-1.8504
X2.1654Y-2.1654
X2.2136Y-0.6102
X2.2136Y-0.9449
X2.2136Y-1.2795
X2.2136Y-1.6339
X2.2136Y-1.9685
X2.2136Y-2.3031
T2
X1.1309Y-0.5647
X1.2205Y-0.7283
T3
X1.3396Y-0.6565
X1.3396Y-0.7096
X1.373Y-0.6565
X1.373Y-0.7096
X1.4065Y-0.6565
X1.4065Y-0.7096
X1.44Y-0.6565
X1.44Y-0.7096
X1.4734Y-0.6565
X1.4734Y-0.7096
X1.5069Y-0.6565
X1.5069Y-0.7096
X1.5404Y-0.6565
X1.5404Y-0.7096
X1.5738Y-0.6565
X1.5738Y-0.7096
T5
X1.1112Y-1.7864
X1.1112Y-1.8864
X1.1112Y-1.9864
X1.1112Y-2.0864
X1.1112Y-2.1864
X1.1112Y-2.2864
X1.1112Y-2.3864
X1.2112Y-1.7864
X1.2112Y-1.8864
X1.2112Y-1.9864
X1.2112Y-2.0864
X1.2112Y-2.1864
X1.2112Y-2.2864
X1.2112Y-2.3864
X2.3819Y-0.56
X2.3819Y-0.66
X2.3819Y-0.8986
X2.3819Y-0.9986
X2.3819Y-1.2372
X2.3819Y-1.3372
X2.3819Y-1.5758
X2.3819Y-1.6758
X2.3819Y-1.9144
X2.3819Y-2.0144
X2.3819Y-2.253
X2.3819Y-2.353
T6
X1.1122Y-0.8858
X1.3681Y-0.8858
X1.4961Y-2.1161
X1.4961Y-2.372
T4
G00X1.2864Y-0.5537
M15
G01X1.2864Y-0.5222
M16
G05
G00X1.2864Y-0.7006
M15
G01X1.2864Y-0.6415
M16
G05
G00X1.627Y-0.5537
M15
G01X1.627Y-0.5222
M16
G05
G00X1.627Y-0.7006
M15
G01X1.627Y-0.6415
M16
G05
M30
