%TF.GenerationSoftware,KiCad,Pcbnew,8.0.6*%
%TF.CreationDate,2024-11-27T12:31:09-05:00*%
%TF.ProjectId,CAN Board,43414e20-426f-4617-9264-2e6b69636164,rev?*%
%TF.SameCoordinates,Original*%
%TF.FileFunction,Soldermask,Bot*%
%TF.FilePolarity,Negative*%
%FSLAX46Y46*%
G04 Gerber Fmt 4.6, Leading zero omitted, Abs format (unit mm)*
G04 Created by KiCad (PCBNEW 8.0.6) date 2024-11-27 12:31:09*
%MOMM*%
%LPD*%
G01*
G04 APERTURE LIST*
G04 APERTURE END LIST*
G36*
X28487664Y-59806602D02*
G01*
X28650000Y-59878878D01*
X28793761Y-59983327D01*
X28912664Y-60115383D01*
X29001514Y-60269274D01*
X29056425Y-60438275D01*
X29075000Y-60615000D01*
X29056425Y-60791725D01*
X29001514Y-60960726D01*
X28912664Y-61114617D01*
X28793761Y-61246673D01*
X28650000Y-61351122D01*
X28487664Y-61423398D01*
X28313849Y-61460344D01*
X28136151Y-61460344D01*
X27962336Y-61423398D01*
X27800000Y-61351122D01*
X27656239Y-61246673D01*
X27537336Y-61114617D01*
X27448486Y-60960726D01*
X27393575Y-60791725D01*
X27375000Y-60615000D01*
X27393575Y-60438275D01*
X27448486Y-60269274D01*
X27537336Y-60115383D01*
X27656239Y-59983327D01*
X27800000Y-59878878D01*
X27962336Y-59806602D01*
X28136151Y-59769656D01*
X28313849Y-59769656D01*
X28487664Y-59806602D01*
G37*
G36*
X31027664Y-59806602D02*
G01*
X31190000Y-59878878D01*
X31333761Y-59983327D01*
X31452664Y-60115383D01*
X31541514Y-60269274D01*
X31596425Y-60438275D01*
X31615000Y-60615000D01*
X31596425Y-60791725D01*
X31541514Y-60960726D01*
X31452664Y-61114617D01*
X31333761Y-61246673D01*
X31190000Y-61351122D01*
X31027664Y-61423398D01*
X30853849Y-61460344D01*
X30676151Y-61460344D01*
X30502336Y-61423398D01*
X30340000Y-61351122D01*
X30196239Y-61246673D01*
X30077336Y-61114617D01*
X29988486Y-60960726D01*
X29933575Y-60791725D01*
X29915000Y-60615000D01*
X29933575Y-60438275D01*
X29988486Y-60269274D01*
X30077336Y-60115383D01*
X30196239Y-59983327D01*
X30340000Y-59878878D01*
X30502336Y-59806602D01*
X30676151Y-59769656D01*
X30853849Y-59769656D01*
X31027664Y-59806602D01*
G37*
G36*
X38307871Y-59167946D02*
G01*
X38501456Y-59242941D01*
X38677964Y-59352231D01*
X38831385Y-59492092D01*
X38956494Y-59657764D01*
X39049031Y-59843603D01*
X39105845Y-60043282D01*
X39125000Y-60250000D01*
X39105845Y-60456718D01*
X39049031Y-60656397D01*
X38956494Y-60842236D01*
X38831385Y-61007908D01*
X38677964Y-61147769D01*
X38501456Y-61257059D01*
X38307871Y-61332054D01*
X38103802Y-61370201D01*
X37896198Y-61370201D01*
X37692129Y-61332054D01*
X37498544Y-61257059D01*
X37322036Y-61147769D01*
X37168615Y-61007908D01*
X37043506Y-60842236D01*
X36950969Y-60656397D01*
X36894155Y-60456718D01*
X36875000Y-60250000D01*
X36894155Y-60043282D01*
X36950969Y-59843603D01*
X37043506Y-59657764D01*
X37168615Y-59492092D01*
X37322036Y-59352231D01*
X37498544Y-59242941D01*
X37692129Y-59167946D01*
X37896198Y-59129799D01*
X38103802Y-59129799D01*
X38307871Y-59167946D01*
G37*
G36*
X60762664Y-58956602D02*
G01*
X60925000Y-59028878D01*
X61068761Y-59133327D01*
X61187664Y-59265383D01*
X61276514Y-59419274D01*
X61331425Y-59588275D01*
X61350000Y-59765000D01*
X61331425Y-59941725D01*
X61276514Y-60110726D01*
X61187664Y-60264617D01*
X61068761Y-60396673D01*
X60925000Y-60501122D01*
X60762664Y-60573398D01*
X60588849Y-60610344D01*
X60411151Y-60610344D01*
X60237336Y-60573398D01*
X60075000Y-60501122D01*
X59931239Y-60396673D01*
X59812336Y-60264617D01*
X59723486Y-60110726D01*
X59668575Y-59941725D01*
X59650000Y-59765000D01*
X59668575Y-59588275D01*
X59723486Y-59419274D01*
X59812336Y-59265383D01*
X59931239Y-59133327D01*
X60075000Y-59028878D01*
X60237336Y-58956602D01*
X60411151Y-58919656D01*
X60588849Y-58919656D01*
X60762664Y-58956602D01*
G37*
G36*
X28487664Y-57266602D02*
G01*
X28650000Y-57338878D01*
X28793761Y-57443327D01*
X28912664Y-57575383D01*
X29001514Y-57729274D01*
X29056425Y-57898275D01*
X29075000Y-58075000D01*
X29056425Y-58251725D01*
X29001514Y-58420726D01*
X28912664Y-58574617D01*
X28793761Y-58706673D01*
X28650000Y-58811122D01*
X28487664Y-58883398D01*
X28313849Y-58920344D01*
X28136151Y-58920344D01*
X27962336Y-58883398D01*
X27800000Y-58811122D01*
X27656239Y-58706673D01*
X27537336Y-58574617D01*
X27448486Y-58420726D01*
X27393575Y-58251725D01*
X27375000Y-58075000D01*
X27393575Y-57898275D01*
X27448486Y-57729274D01*
X27537336Y-57575383D01*
X27656239Y-57443327D01*
X27800000Y-57338878D01*
X27962336Y-57266602D01*
X28136151Y-57229656D01*
X28313849Y-57229656D01*
X28487664Y-57266602D01*
G37*
G36*
X31027664Y-57266602D02*
G01*
X31190000Y-57338878D01*
X31333761Y-57443327D01*
X31452664Y-57575383D01*
X31541514Y-57729274D01*
X31596425Y-57898275D01*
X31615000Y-58075000D01*
X31596425Y-58251725D01*
X31541514Y-58420726D01*
X31452664Y-58574617D01*
X31333761Y-58706673D01*
X31190000Y-58811122D01*
X31027664Y-58883398D01*
X30853849Y-58920344D01*
X30676151Y-58920344D01*
X30502336Y-58883398D01*
X30340000Y-58811122D01*
X30196239Y-58706673D01*
X30077336Y-58574617D01*
X29988486Y-58420726D01*
X29933575Y-58251725D01*
X29915000Y-58075000D01*
X29933575Y-57898275D01*
X29988486Y-57729274D01*
X30077336Y-57575383D01*
X30196239Y-57443327D01*
X30340000Y-57338878D01*
X30502336Y-57266602D01*
X30676151Y-57229656D01*
X30853849Y-57229656D01*
X31027664Y-57266602D01*
G37*
G36*
X61350000Y-58075000D02*
G01*
X59650000Y-58075000D01*
X59650000Y-56375000D01*
X61350000Y-56375000D01*
X61350000Y-58075000D01*
G37*
G36*
X28487664Y-54726602D02*
G01*
X28650000Y-54798878D01*
X28793761Y-54903327D01*
X28912664Y-55035383D01*
X29001514Y-55189274D01*
X29056425Y-55358275D01*
X29075000Y-55535000D01*
X29056425Y-55711725D01*
X29001514Y-55880726D01*
X28912664Y-56034617D01*
X28793761Y-56166673D01*
X28650000Y-56271122D01*
X28487664Y-56343398D01*
X28313849Y-56380344D01*
X28136151Y-56380344D01*
X27962336Y-56343398D01*
X27800000Y-56271122D01*
X27656239Y-56166673D01*
X27537336Y-56034617D01*
X27448486Y-55880726D01*
X27393575Y-55711725D01*
X27375000Y-55535000D01*
X27393575Y-55358275D01*
X27448486Y-55189274D01*
X27537336Y-55035383D01*
X27656239Y-54903327D01*
X27800000Y-54798878D01*
X27962336Y-54726602D01*
X28136151Y-54689656D01*
X28313849Y-54689656D01*
X28487664Y-54726602D01*
G37*
G36*
X31027664Y-54726602D02*
G01*
X31190000Y-54798878D01*
X31333761Y-54903327D01*
X31452664Y-55035383D01*
X31541514Y-55189274D01*
X31596425Y-55358275D01*
X31615000Y-55535000D01*
X31596425Y-55711725D01*
X31541514Y-55880726D01*
X31452664Y-56034617D01*
X31333761Y-56166673D01*
X31190000Y-56271122D01*
X31027664Y-56343398D01*
X30853849Y-56380344D01*
X30676151Y-56380344D01*
X30502336Y-56343398D01*
X30340000Y-56271122D01*
X30196239Y-56166673D01*
X30077336Y-56034617D01*
X29988486Y-55880726D01*
X29933575Y-55711725D01*
X29915000Y-55535000D01*
X29933575Y-55358275D01*
X29988486Y-55189274D01*
X30077336Y-55035383D01*
X30196239Y-54903327D01*
X30340000Y-54798878D01*
X30502336Y-54726602D01*
X30676151Y-54689656D01*
X30853849Y-54689656D01*
X31027664Y-54726602D01*
G37*
G36*
X39125000Y-54875000D02*
G01*
X36875000Y-54875000D01*
X36875000Y-52625000D01*
X39125000Y-52625000D01*
X39125000Y-54875000D01*
G37*
G36*
X28487664Y-52186602D02*
G01*
X28650000Y-52258878D01*
X28793761Y-52363327D01*
X28912664Y-52495383D01*
X29001514Y-52649274D01*
X29056425Y-52818275D01*
X29075000Y-52995000D01*
X29056425Y-53171725D01*
X29001514Y-53340726D01*
X28912664Y-53494617D01*
X28793761Y-53626673D01*
X28650000Y-53731122D01*
X28487664Y-53803398D01*
X28313849Y-53840344D01*
X28136151Y-53840344D01*
X27962336Y-53803398D01*
X27800000Y-53731122D01*
X27656239Y-53626673D01*
X27537336Y-53494617D01*
X27448486Y-53340726D01*
X27393575Y-53171725D01*
X27375000Y-52995000D01*
X27393575Y-52818275D01*
X27448486Y-52649274D01*
X27537336Y-52495383D01*
X27656239Y-52363327D01*
X27800000Y-52258878D01*
X27962336Y-52186602D01*
X28136151Y-52149656D01*
X28313849Y-52149656D01*
X28487664Y-52186602D01*
G37*
G36*
X31027664Y-52186602D02*
G01*
X31190000Y-52258878D01*
X31333761Y-52363327D01*
X31452664Y-52495383D01*
X31541514Y-52649274D01*
X31596425Y-52818275D01*
X31615000Y-52995000D01*
X31596425Y-53171725D01*
X31541514Y-53340726D01*
X31452664Y-53494617D01*
X31333761Y-53626673D01*
X31190000Y-53731122D01*
X31027664Y-53803398D01*
X30853849Y-53840344D01*
X30676151Y-53840344D01*
X30502336Y-53803398D01*
X30340000Y-53731122D01*
X30196239Y-53626673D01*
X30077336Y-53494617D01*
X29988486Y-53340726D01*
X29933575Y-53171725D01*
X29915000Y-52995000D01*
X29933575Y-52818275D01*
X29988486Y-52649274D01*
X30077336Y-52495383D01*
X30196239Y-52363327D01*
X30340000Y-52258878D01*
X30502336Y-52186602D01*
X30676151Y-52149656D01*
X30853849Y-52149656D01*
X31027664Y-52186602D01*
G37*
G36*
X60762664Y-50356602D02*
G01*
X60925000Y-50428878D01*
X61068761Y-50533327D01*
X61187664Y-50665383D01*
X61276514Y-50819274D01*
X61331425Y-50988275D01*
X61350000Y-51165000D01*
X61331425Y-51341725D01*
X61276514Y-51510726D01*
X61187664Y-51664617D01*
X61068761Y-51796673D01*
X60925000Y-51901122D01*
X60762664Y-51973398D01*
X60588849Y-52010344D01*
X60411151Y-52010344D01*
X60237336Y-51973398D01*
X60075000Y-51901122D01*
X59931239Y-51796673D01*
X59812336Y-51664617D01*
X59723486Y-51510726D01*
X59668575Y-51341725D01*
X59650000Y-51165000D01*
X59668575Y-50988275D01*
X59723486Y-50819274D01*
X59812336Y-50665383D01*
X59931239Y-50533327D01*
X60075000Y-50428878D01*
X60237336Y-50356602D01*
X60411151Y-50319656D01*
X60588849Y-50319656D01*
X60762664Y-50356602D01*
G37*
G36*
X28487664Y-49646602D02*
G01*
X28650000Y-49718878D01*
X28793761Y-49823327D01*
X28912664Y-49955383D01*
X29001514Y-50109274D01*
X29056425Y-50278275D01*
X29075000Y-50455000D01*
X29056425Y-50631725D01*
X29001514Y-50800726D01*
X28912664Y-50954617D01*
X28793761Y-51086673D01*
X28650000Y-51191122D01*
X28487664Y-51263398D01*
X28313849Y-51300344D01*
X28136151Y-51300344D01*
X27962336Y-51263398D01*
X27800000Y-51191122D01*
X27656239Y-51086673D01*
X27537336Y-50954617D01*
X27448486Y-50800726D01*
X27393575Y-50631725D01*
X27375000Y-50455000D01*
X27393575Y-50278275D01*
X27448486Y-50109274D01*
X27537336Y-49955383D01*
X27656239Y-49823327D01*
X27800000Y-49718878D01*
X27962336Y-49646602D01*
X28136151Y-49609656D01*
X28313849Y-49609656D01*
X28487664Y-49646602D01*
G37*
G36*
X31027664Y-49646602D02*
G01*
X31190000Y-49718878D01*
X31333761Y-49823327D01*
X31452664Y-49955383D01*
X31541514Y-50109274D01*
X31596425Y-50278275D01*
X31615000Y-50455000D01*
X31596425Y-50631725D01*
X31541514Y-50800726D01*
X31452664Y-50954617D01*
X31333761Y-51086673D01*
X31190000Y-51191122D01*
X31027664Y-51263398D01*
X30853849Y-51300344D01*
X30676151Y-51300344D01*
X30502336Y-51263398D01*
X30340000Y-51191122D01*
X30196239Y-51086673D01*
X30077336Y-50954617D01*
X29988486Y-50800726D01*
X29933575Y-50631725D01*
X29915000Y-50455000D01*
X29933575Y-50278275D01*
X29988486Y-50109274D01*
X30077336Y-49955383D01*
X30196239Y-49823327D01*
X30340000Y-49718878D01*
X30502336Y-49646602D01*
X30676151Y-49609656D01*
X30853849Y-49609656D01*
X31027664Y-49646602D01*
G37*
G36*
X61350000Y-49475000D02*
G01*
X59650000Y-49475000D01*
X59650000Y-47775000D01*
X61350000Y-47775000D01*
X61350000Y-49475000D01*
G37*
G36*
X28487664Y-47106602D02*
G01*
X28650000Y-47178878D01*
X28793761Y-47283327D01*
X28912664Y-47415383D01*
X29001514Y-47569274D01*
X29056425Y-47738275D01*
X29075000Y-47915000D01*
X29056425Y-48091725D01*
X29001514Y-48260726D01*
X28912664Y-48414617D01*
X28793761Y-48546673D01*
X28650000Y-48651122D01*
X28487664Y-48723398D01*
X28313849Y-48760344D01*
X28136151Y-48760344D01*
X27962336Y-48723398D01*
X27800000Y-48651122D01*
X27656239Y-48546673D01*
X27537336Y-48414617D01*
X27448486Y-48260726D01*
X27393575Y-48091725D01*
X27375000Y-47915000D01*
X27393575Y-47738275D01*
X27448486Y-47569274D01*
X27537336Y-47415383D01*
X27656239Y-47283327D01*
X27800000Y-47178878D01*
X27962336Y-47106602D01*
X28136151Y-47069656D01*
X28313849Y-47069656D01*
X28487664Y-47106602D01*
G37*
G36*
X31027664Y-47106602D02*
G01*
X31190000Y-47178878D01*
X31333761Y-47283327D01*
X31452664Y-47415383D01*
X31541514Y-47569274D01*
X31596425Y-47738275D01*
X31615000Y-47915000D01*
X31596425Y-48091725D01*
X31541514Y-48260726D01*
X31452664Y-48414617D01*
X31333761Y-48546673D01*
X31190000Y-48651122D01*
X31027664Y-48723398D01*
X30853849Y-48760344D01*
X30676151Y-48760344D01*
X30502336Y-48723398D01*
X30340000Y-48651122D01*
X30196239Y-48546673D01*
X30077336Y-48414617D01*
X29988486Y-48260726D01*
X29933575Y-48091725D01*
X29915000Y-47915000D01*
X29933575Y-47738275D01*
X29988486Y-47569274D01*
X30077336Y-47415383D01*
X30196239Y-47283327D01*
X30340000Y-47178878D01*
X30502336Y-47106602D01*
X30676151Y-47069656D01*
X30853849Y-47069656D01*
X31027664Y-47106602D01*
G37*
G36*
X29075000Y-46225000D02*
G01*
X27375000Y-46225000D01*
X27375000Y-44525000D01*
X29075000Y-44525000D01*
X29075000Y-46225000D01*
G37*
G36*
X31027664Y-44566602D02*
G01*
X31190000Y-44638878D01*
X31333761Y-44743327D01*
X31452664Y-44875383D01*
X31541514Y-45029274D01*
X31596425Y-45198275D01*
X31615000Y-45375000D01*
X31596425Y-45551725D01*
X31541514Y-45720726D01*
X31452664Y-45874617D01*
X31333761Y-46006673D01*
X31190000Y-46111122D01*
X31027664Y-46183398D01*
X30853849Y-46220344D01*
X30676151Y-46220344D01*
X30502336Y-46183398D01*
X30340000Y-46111122D01*
X30196239Y-46006673D01*
X30077336Y-45874617D01*
X29988486Y-45720726D01*
X29933575Y-45551725D01*
X29915000Y-45375000D01*
X29933575Y-45198275D01*
X29988486Y-45029274D01*
X30077336Y-44875383D01*
X30196239Y-44743327D01*
X30340000Y-44638878D01*
X30502336Y-44566602D01*
X30676151Y-44529656D01*
X30853849Y-44529656D01*
X31027664Y-44566602D01*
G37*
G36*
X60762664Y-41756602D02*
G01*
X60925000Y-41828878D01*
X61068761Y-41933327D01*
X61187664Y-42065383D01*
X61276514Y-42219274D01*
X61331425Y-42388275D01*
X61350000Y-42565000D01*
X61331425Y-42741725D01*
X61276514Y-42910726D01*
X61187664Y-43064617D01*
X61068761Y-43196673D01*
X60925000Y-43301122D01*
X60762664Y-43373398D01*
X60588849Y-43410344D01*
X60411151Y-43410344D01*
X60237336Y-43373398D01*
X60075000Y-43301122D01*
X59931239Y-43196673D01*
X59812336Y-43064617D01*
X59723486Y-42910726D01*
X59668575Y-42741725D01*
X59650000Y-42565000D01*
X59668575Y-42388275D01*
X59723486Y-42219274D01*
X59812336Y-42065383D01*
X59931239Y-41933327D01*
X60075000Y-41828878D01*
X60237336Y-41756602D01*
X60411151Y-41719656D01*
X60588849Y-41719656D01*
X60762664Y-41756602D01*
G37*
G36*
X61350000Y-40875000D02*
G01*
X59650000Y-40875000D01*
X59650000Y-39175000D01*
X61350000Y-39175000D01*
X61350000Y-40875000D01*
G37*
G36*
X60762664Y-33156602D02*
G01*
X60925000Y-33228878D01*
X61068761Y-33333327D01*
X61187664Y-33465383D01*
X61276514Y-33619274D01*
X61331425Y-33788275D01*
X61350000Y-33965000D01*
X61331425Y-34141725D01*
X61276514Y-34310726D01*
X61187664Y-34464617D01*
X61068761Y-34596673D01*
X60925000Y-34701122D01*
X60762664Y-34773398D01*
X60588849Y-34810344D01*
X60411151Y-34810344D01*
X60237336Y-34773398D01*
X60075000Y-34701122D01*
X59931239Y-34596673D01*
X59812336Y-34464617D01*
X59723486Y-34310726D01*
X59668575Y-34141725D01*
X59650000Y-33965000D01*
X59668575Y-33788275D01*
X59723486Y-33619274D01*
X59812336Y-33465383D01*
X59931239Y-33333327D01*
X60075000Y-33228878D01*
X60237336Y-33156602D01*
X60411151Y-33119656D01*
X60588849Y-33119656D01*
X60762664Y-33156602D01*
G37*
G36*
X61350000Y-32275000D02*
G01*
X59650000Y-32275000D01*
X59650000Y-30575000D01*
X61350000Y-30575000D01*
X61350000Y-32275000D01*
G37*
G36*
X60762664Y-24556602D02*
G01*
X60925000Y-24628878D01*
X61068761Y-24733327D01*
X61187664Y-24865383D01*
X61276514Y-25019274D01*
X61331425Y-25188275D01*
X61350000Y-25365000D01*
X61331425Y-25541725D01*
X61276514Y-25710726D01*
X61187664Y-25864617D01*
X61068761Y-25996673D01*
X60925000Y-26101122D01*
X60762664Y-26173398D01*
X60588849Y-26210344D01*
X60411151Y-26210344D01*
X60237336Y-26173398D01*
X60075000Y-26101122D01*
X59931239Y-25996673D01*
X59812336Y-25864617D01*
X59723486Y-25710726D01*
X59668575Y-25541725D01*
X59650000Y-25365000D01*
X59668575Y-25188275D01*
X59723486Y-25019274D01*
X59812336Y-24865383D01*
X59931239Y-24733327D01*
X60075000Y-24628878D01*
X60237336Y-24556602D01*
X60411151Y-24519656D01*
X60588849Y-24519656D01*
X60762664Y-24556602D01*
G37*
G36*
X61350000Y-23675000D02*
G01*
X59650000Y-23675000D01*
X59650000Y-21975000D01*
X61350000Y-21975000D01*
X61350000Y-23675000D01*
G37*
G36*
X29375000Y-23625000D02*
G01*
X27125000Y-23625000D01*
X27125000Y-21375000D01*
X29375000Y-21375000D01*
X29375000Y-23625000D01*
G37*
G36*
X35057871Y-21417946D02*
G01*
X35251456Y-21492941D01*
X35427964Y-21602231D01*
X35581385Y-21742092D01*
X35706494Y-21907764D01*
X35799031Y-22093603D01*
X35855845Y-22293282D01*
X35875000Y-22500000D01*
X35855845Y-22706718D01*
X35799031Y-22906397D01*
X35706494Y-23092236D01*
X35581385Y-23257908D01*
X35427964Y-23397769D01*
X35251456Y-23507059D01*
X35057871Y-23582054D01*
X34853802Y-23620201D01*
X34646198Y-23620201D01*
X34442129Y-23582054D01*
X34248544Y-23507059D01*
X34072036Y-23397769D01*
X33918615Y-23257908D01*
X33793506Y-23092236D01*
X33700969Y-22906397D01*
X33644155Y-22706718D01*
X33625000Y-22500000D01*
X33644155Y-22293282D01*
X33700969Y-22093603D01*
X33793506Y-21907764D01*
X33918615Y-21742092D01*
X34072036Y-21602231D01*
X34248544Y-21492941D01*
X34442129Y-21417946D01*
X34646198Y-21379799D01*
X34853802Y-21379799D01*
X35057871Y-21417946D01*
G37*
G36*
X34133156Y-17692130D02*
G01*
X34230725Y-17741844D01*
X34308156Y-17819275D01*
X34357870Y-17916844D01*
X34375000Y-18025000D01*
X34357870Y-18133156D01*
X34308156Y-18230725D01*
X34230725Y-18308156D01*
X34133156Y-18357870D01*
X34025000Y-18375000D01*
X33916844Y-18357870D01*
X33819275Y-18308156D01*
X33741844Y-18230725D01*
X33692130Y-18133156D01*
X33675000Y-18025000D01*
X33692130Y-17916844D01*
X33741844Y-17819275D01*
X33819275Y-17741844D01*
X33916844Y-17692130D01*
X34025000Y-17675000D01*
X34133156Y-17692130D01*
G37*
G36*
X34983156Y-17692130D02*
G01*
X35080725Y-17741844D01*
X35158156Y-17819275D01*
X35207870Y-17916844D01*
X35225000Y-18025000D01*
X35207870Y-18133156D01*
X35158156Y-18230725D01*
X35080725Y-18308156D01*
X34983156Y-18357870D01*
X34875000Y-18375000D01*
X34766844Y-18357870D01*
X34669275Y-18308156D01*
X34591844Y-18230725D01*
X34542130Y-18133156D01*
X34525000Y-18025000D01*
X34542130Y-17916844D01*
X34591844Y-17819275D01*
X34669275Y-17741844D01*
X34766844Y-17692130D01*
X34875000Y-17675000D01*
X34983156Y-17692130D01*
G37*
G36*
X35833156Y-17692130D02*
G01*
X35930725Y-17741844D01*
X36008156Y-17819275D01*
X36057870Y-17916844D01*
X36075000Y-18025000D01*
X36057870Y-18133156D01*
X36008156Y-18230725D01*
X35930725Y-18308156D01*
X35833156Y-18357870D01*
X35725000Y-18375000D01*
X35616844Y-18357870D01*
X35519275Y-18308156D01*
X35441844Y-18230725D01*
X35392130Y-18133156D01*
X35375000Y-18025000D01*
X35392130Y-17916844D01*
X35441844Y-17819275D01*
X35519275Y-17741844D01*
X35616844Y-17692130D01*
X35725000Y-17675000D01*
X35833156Y-17692130D01*
G37*
G36*
X36683156Y-17692130D02*
G01*
X36780725Y-17741844D01*
X36858156Y-17819275D01*
X36907870Y-17916844D01*
X36925000Y-18025000D01*
X36907870Y-18133156D01*
X36858156Y-18230725D01*
X36780725Y-18308156D01*
X36683156Y-18357870D01*
X36575000Y-18375000D01*
X36466844Y-18357870D01*
X36369275Y-18308156D01*
X36291844Y-18230725D01*
X36242130Y-18133156D01*
X36225000Y-18025000D01*
X36242130Y-17916844D01*
X36291844Y-17819275D01*
X36369275Y-17741844D01*
X36466844Y-17692130D01*
X36575000Y-17675000D01*
X36683156Y-17692130D01*
G37*
G36*
X37533156Y-17692130D02*
G01*
X37630725Y-17741844D01*
X37708156Y-17819275D01*
X37757870Y-17916844D01*
X37775000Y-18025000D01*
X37757870Y-18133156D01*
X37708156Y-18230725D01*
X37630725Y-18308156D01*
X37533156Y-18357870D01*
X37425000Y-18375000D01*
X37316844Y-18357870D01*
X37219275Y-18308156D01*
X37141844Y-18230725D01*
X37092130Y-18133156D01*
X37075000Y-18025000D01*
X37092130Y-17916844D01*
X37141844Y-17819275D01*
X37219275Y-17741844D01*
X37316844Y-17692130D01*
X37425000Y-17675000D01*
X37533156Y-17692130D01*
G37*
G36*
X38383156Y-17692130D02*
G01*
X38480725Y-17741844D01*
X38558156Y-17819275D01*
X38607870Y-17916844D01*
X38625000Y-18025000D01*
X38607870Y-18133156D01*
X38558156Y-18230725D01*
X38480725Y-18308156D01*
X38383156Y-18357870D01*
X38275000Y-18375000D01*
X38166844Y-18357870D01*
X38069275Y-18308156D01*
X37991844Y-18230725D01*
X37942130Y-18133156D01*
X37925000Y-18025000D01*
X37942130Y-17916844D01*
X37991844Y-17819275D01*
X38069275Y-17741844D01*
X38166844Y-17692130D01*
X38275000Y-17675000D01*
X38383156Y-17692130D01*
G37*
G36*
X39233156Y-17692130D02*
G01*
X39330725Y-17741844D01*
X39408156Y-17819275D01*
X39457870Y-17916844D01*
X39475000Y-18025000D01*
X39457870Y-18133156D01*
X39408156Y-18230725D01*
X39330725Y-18308156D01*
X39233156Y-18357870D01*
X39125000Y-18375000D01*
X39016844Y-18357870D01*
X38919275Y-18308156D01*
X38841844Y-18230725D01*
X38792130Y-18133156D01*
X38775000Y-18025000D01*
X38792130Y-17916844D01*
X38841844Y-17819275D01*
X38919275Y-17741844D01*
X39016844Y-17692130D01*
X39125000Y-17675000D01*
X39233156Y-17692130D01*
G37*
G36*
X40083156Y-17692130D02*
G01*
X40180725Y-17741844D01*
X40258156Y-17819275D01*
X40307870Y-17916844D01*
X40325000Y-18025000D01*
X40307870Y-18133156D01*
X40258156Y-18230725D01*
X40180725Y-18308156D01*
X40083156Y-18357870D01*
X39975000Y-18375000D01*
X39866844Y-18357870D01*
X39769275Y-18308156D01*
X39691844Y-18230725D01*
X39642130Y-18133156D01*
X39625000Y-18025000D01*
X39642130Y-17916844D01*
X39691844Y-17819275D01*
X39769275Y-17741844D01*
X39866844Y-17692130D01*
X39975000Y-17675000D01*
X40083156Y-17692130D01*
G37*
G36*
X32847208Y-15879254D02*
G01*
X32948943Y-15937991D01*
X33032009Y-16021057D01*
X33090746Y-16122792D01*
X33121150Y-16236263D01*
X33125000Y-16295000D01*
X33125000Y-17795000D01*
X33121150Y-17853737D01*
X33090746Y-17967208D01*
X33032009Y-18068943D01*
X32948943Y-18152009D01*
X32847208Y-18210746D01*
X32733737Y-18241150D01*
X32616263Y-18241150D01*
X32502792Y-18210746D01*
X32401057Y-18152009D01*
X32317991Y-18068943D01*
X32259254Y-17967208D01*
X32228850Y-17853737D01*
X32225000Y-17795000D01*
X32225000Y-16295000D01*
X32228850Y-16236263D01*
X32259254Y-16122792D01*
X32317991Y-16021057D01*
X32401057Y-15937991D01*
X32502792Y-15879254D01*
X32616263Y-15848850D01*
X32733737Y-15848850D01*
X32847208Y-15879254D01*
G37*
G36*
X41497208Y-15879254D02*
G01*
X41598943Y-15937991D01*
X41682009Y-16021057D01*
X41740746Y-16122792D01*
X41771150Y-16236263D01*
X41775000Y-16295000D01*
X41775000Y-17795000D01*
X41771150Y-17853737D01*
X41740746Y-17967208D01*
X41682009Y-18068943D01*
X41598943Y-18152009D01*
X41497208Y-18210746D01*
X41383737Y-18241150D01*
X41266263Y-18241150D01*
X41152792Y-18210746D01*
X41051057Y-18152009D01*
X40967991Y-18068943D01*
X40909254Y-17967208D01*
X40878850Y-17853737D01*
X40875000Y-17795000D01*
X40875000Y-16295000D01*
X40878850Y-16236263D01*
X40909254Y-16122792D01*
X40967991Y-16021057D01*
X41051057Y-15937991D01*
X41152792Y-15879254D01*
X41266263Y-15848850D01*
X41383737Y-15848850D01*
X41497208Y-15879254D01*
G37*
G36*
X60762664Y-15956602D02*
G01*
X60925000Y-16028878D01*
X61068761Y-16133327D01*
X61187664Y-16265383D01*
X61276514Y-16419274D01*
X61331425Y-16588275D01*
X61350000Y-16765000D01*
X61331425Y-16941725D01*
X61276514Y-17110726D01*
X61187664Y-17264617D01*
X61068761Y-17396673D01*
X60925000Y-17501122D01*
X60762664Y-17573398D01*
X60588849Y-17610344D01*
X60411151Y-17610344D01*
X60237336Y-17573398D01*
X60075000Y-17501122D01*
X59931239Y-17396673D01*
X59812336Y-17264617D01*
X59723486Y-17110726D01*
X59668575Y-16941725D01*
X59650000Y-16765000D01*
X59668575Y-16588275D01*
X59723486Y-16419274D01*
X59812336Y-16265383D01*
X59931239Y-16133327D01*
X60075000Y-16028878D01*
X60237336Y-15956602D01*
X60411151Y-15919656D01*
X60588849Y-15919656D01*
X60762664Y-15956602D01*
G37*
G36*
X34133156Y-16342130D02*
G01*
X34230725Y-16391844D01*
X34308156Y-16469275D01*
X34357870Y-16566844D01*
X34375000Y-16675000D01*
X34357870Y-16783156D01*
X34308156Y-16880725D01*
X34230725Y-16958156D01*
X34133156Y-17007870D01*
X34025000Y-17025000D01*
X33916844Y-17007870D01*
X33819275Y-16958156D01*
X33741844Y-16880725D01*
X33692130Y-16783156D01*
X33675000Y-16675000D01*
X33692130Y-16566844D01*
X33741844Y-16469275D01*
X33819275Y-16391844D01*
X33916844Y-16342130D01*
X34025000Y-16325000D01*
X34133156Y-16342130D01*
G37*
G36*
X34983156Y-16342130D02*
G01*
X35080725Y-16391844D01*
X35158156Y-16469275D01*
X35207870Y-16566844D01*
X35225000Y-16675000D01*
X35207870Y-16783156D01*
X35158156Y-16880725D01*
X35080725Y-16958156D01*
X34983156Y-17007870D01*
X34875000Y-17025000D01*
X34766844Y-17007870D01*
X34669275Y-16958156D01*
X34591844Y-16880725D01*
X34542130Y-16783156D01*
X34525000Y-16675000D01*
X34542130Y-16566844D01*
X34591844Y-16469275D01*
X34669275Y-16391844D01*
X34766844Y-16342130D01*
X34875000Y-16325000D01*
X34983156Y-16342130D01*
G37*
G36*
X35833156Y-16342130D02*
G01*
X35930725Y-16391844D01*
X36008156Y-16469275D01*
X36057870Y-16566844D01*
X36075000Y-16675000D01*
X36057870Y-16783156D01*
X36008156Y-16880725D01*
X35930725Y-16958156D01*
X35833156Y-17007870D01*
X35725000Y-17025000D01*
X35616844Y-17007870D01*
X35519275Y-16958156D01*
X35441844Y-16880725D01*
X35392130Y-16783156D01*
X35375000Y-16675000D01*
X35392130Y-16566844D01*
X35441844Y-16469275D01*
X35519275Y-16391844D01*
X35616844Y-16342130D01*
X35725000Y-16325000D01*
X35833156Y-16342130D01*
G37*
G36*
X36683156Y-16342130D02*
G01*
X36780725Y-16391844D01*
X36858156Y-16469275D01*
X36907870Y-16566844D01*
X36925000Y-16675000D01*
X36907870Y-16783156D01*
X36858156Y-16880725D01*
X36780725Y-16958156D01*
X36683156Y-17007870D01*
X36575000Y-17025000D01*
X36466844Y-17007870D01*
X36369275Y-16958156D01*
X36291844Y-16880725D01*
X36242130Y-16783156D01*
X36225000Y-16675000D01*
X36242130Y-16566844D01*
X36291844Y-16469275D01*
X36369275Y-16391844D01*
X36466844Y-16342130D01*
X36575000Y-16325000D01*
X36683156Y-16342130D01*
G37*
G36*
X37533156Y-16342130D02*
G01*
X37630725Y-16391844D01*
X37708156Y-16469275D01*
X37757870Y-16566844D01*
X37775000Y-16675000D01*
X37757870Y-16783156D01*
X37708156Y-16880725D01*
X37630725Y-16958156D01*
X37533156Y-17007870D01*
X37425000Y-17025000D01*
X37316844Y-17007870D01*
X37219275Y-16958156D01*
X37141844Y-16880725D01*
X37092130Y-16783156D01*
X37075000Y-16675000D01*
X37092130Y-16566844D01*
X37141844Y-16469275D01*
X37219275Y-16391844D01*
X37316844Y-16342130D01*
X37425000Y-16325000D01*
X37533156Y-16342130D01*
G37*
G36*
X38383156Y-16342130D02*
G01*
X38480725Y-16391844D01*
X38558156Y-16469275D01*
X38607870Y-16566844D01*
X38625000Y-16675000D01*
X38607870Y-16783156D01*
X38558156Y-16880725D01*
X38480725Y-16958156D01*
X38383156Y-17007870D01*
X38275000Y-17025000D01*
X38166844Y-17007870D01*
X38069275Y-16958156D01*
X37991844Y-16880725D01*
X37942130Y-16783156D01*
X37925000Y-16675000D01*
X37942130Y-16566844D01*
X37991844Y-16469275D01*
X38069275Y-16391844D01*
X38166844Y-16342130D01*
X38275000Y-16325000D01*
X38383156Y-16342130D01*
G37*
G36*
X39233156Y-16342130D02*
G01*
X39330725Y-16391844D01*
X39408156Y-16469275D01*
X39457870Y-16566844D01*
X39475000Y-16675000D01*
X39457870Y-16783156D01*
X39408156Y-16880725D01*
X39330725Y-16958156D01*
X39233156Y-17007870D01*
X39125000Y-17025000D01*
X39016844Y-17007870D01*
X38919275Y-16958156D01*
X38841844Y-16880725D01*
X38792130Y-16783156D01*
X38775000Y-16675000D01*
X38792130Y-16566844D01*
X38841844Y-16469275D01*
X38919275Y-16391844D01*
X39016844Y-16342130D01*
X39125000Y-16325000D01*
X39233156Y-16342130D01*
G37*
G36*
X40083156Y-16342130D02*
G01*
X40180725Y-16391844D01*
X40258156Y-16469275D01*
X40307870Y-16566844D01*
X40325000Y-16675000D01*
X40307870Y-16783156D01*
X40258156Y-16880725D01*
X40180725Y-16958156D01*
X40083156Y-17007870D01*
X39975000Y-17025000D01*
X39866844Y-17007870D01*
X39769275Y-16958156D01*
X39691844Y-16880725D01*
X39642130Y-16783156D01*
X39625000Y-16675000D01*
X39642130Y-16566844D01*
X39691844Y-16469275D01*
X39769275Y-16391844D01*
X39866844Y-16342130D01*
X39975000Y-16325000D01*
X40083156Y-16342130D01*
G37*
G36*
X61350000Y-15075000D02*
G01*
X59650000Y-15075000D01*
X59650000Y-13375000D01*
X61350000Y-13375000D01*
X61350000Y-15075000D01*
G37*
G36*
X32847208Y-12849254D02*
G01*
X32948943Y-12907991D01*
X33032009Y-12991057D01*
X33090746Y-13092792D01*
X33121150Y-13206263D01*
X33125000Y-13265000D01*
X33125000Y-14065000D01*
X33121150Y-14123737D01*
X33090746Y-14237208D01*
X33032009Y-14338943D01*
X32948943Y-14422009D01*
X32847208Y-14480746D01*
X32733737Y-14511150D01*
X32616263Y-14511150D01*
X32502792Y-14480746D01*
X32401057Y-14422009D01*
X32317991Y-14338943D01*
X32259254Y-14237208D01*
X32228850Y-14123737D01*
X32225000Y-14065000D01*
X32225000Y-13265000D01*
X32228850Y-13206263D01*
X32259254Y-13092792D01*
X32317991Y-12991057D01*
X32401057Y-12907991D01*
X32502792Y-12849254D01*
X32616263Y-12818850D01*
X32733737Y-12818850D01*
X32847208Y-12849254D01*
G37*
G36*
X41497208Y-12849254D02*
G01*
X41598943Y-12907991D01*
X41682009Y-12991057D01*
X41740746Y-13092792D01*
X41771150Y-13206263D01*
X41775000Y-13265000D01*
X41775000Y-14065000D01*
X41771150Y-14123737D01*
X41740746Y-14237208D01*
X41682009Y-14338943D01*
X41598943Y-14422009D01*
X41497208Y-14480746D01*
X41383737Y-14511150D01*
X41266263Y-14511150D01*
X41152792Y-14480746D01*
X41051057Y-14422009D01*
X40967991Y-14338943D01*
X40909254Y-14237208D01*
X40878850Y-14123737D01*
X40875000Y-14065000D01*
X40875000Y-13265000D01*
X40878850Y-13206263D01*
X40909254Y-13092792D01*
X40967991Y-12991057D01*
X41051057Y-12907991D01*
X41152792Y-12849254D01*
X41266263Y-12818850D01*
X41383737Y-12818850D01*
X41497208Y-12849254D01*
G37*
M02*
