M48
; DRILL file {KiCad 8.0.8} date 2025-01-27T12:16:43-0500
; FORMAT={-:-/ absolute / inch / decimal}
; #@! TF.CreationDate,2025-01-27T12:16:43-05:00
; #@! TF.GenerationSoftware,Kicad,Pcbnew,8.0.8
; #@! TF.FileFunction,Plated,1,4,PTH
FMAT,2
INCH
; #@! TA.AperFunction,Plated,PTH,ViaDrill
T1C0.0100
; #@! TA.AperFunction,Plated,PTH,ViaDrill
T2C0.0118
; #@! TA.AperFunction,Plated,PTH,ComponentDrill
T3C0.0197
; #@! TA.AperFunction,Plated,PTH,ComponentDrill
T4C0.0236
; #@! TA.AperFunction,Plated,PTH,ComponentDrill
T5C0.0394
; #@! TA.AperFunction,Plated,PTH,ComponentDrill
T6C0.0512
%
G90
G05
T1
X1.1811Y-1.0827
X1.2598Y-1.5354
X1.2598Y-1.5748
X1.2795Y-1.4173
X1.2795Y-1.4488
X1.2795Y-1.5118
X1.2796Y-1.4803
X1.2992Y-1.6535
X1.3189Y-1.2795
X1.3189Y-1.5945
X1.3206Y-1.7126
X1.3386Y-1.6535
X1.3583Y-1.3976
X1.3583Y-1.4469
X1.3641Y-1.4902
X1.378Y-1.6339
X1.4357Y-1.5598
X1.4545Y-1.0411
X1.4961Y-1.5551
X1.5118Y-1.6339
X1.5551Y-1.3976
X1.5551Y-1.437
X1.5945Y-1.063
X1.5945Y-1.3386
X1.5945Y-1.7717
X1.6025Y-1.8701
X1.8898Y-2.3228
X1.9094Y-1.063
X1.9488Y-0.5906
X1.9488Y-0.9055
X1.9488Y-1.2205
X1.9488Y-1.5354
X1.9488Y-1.8504
X1.9488Y-2.1654
X1.9587Y-0.561
X1.9587Y-0.876
X1.9587Y-1.1909
X1.9587Y-1.5059
X1.9587Y-1.8209
X1.9587Y-2.1358
X1.9685Y-0.8268
X1.9685Y-1.1417
X1.9685Y-1.4567
X1.9685Y-1.7717
X1.9685Y-2.0866
X1.9685Y-2.4016
X2.0472Y-0.5118
X2.0472Y-0.8268
X2.0472Y-1.1417
X2.0472Y-1.4567
X2.0472Y-1.7717
X2.0472Y-2.0866
X2.0768Y-0.5217
X2.0768Y-0.8366
X2.0768Y-1.1516
X2.0768Y-1.4665
X2.0768Y-1.7815
X2.0768Y-2.0965
X2.1063Y-0.5315
X2.1063Y-0.8465
X2.1063Y-1.1614
X2.1063Y-1.4764
X2.1063Y-1.7913
X2.1063Y-2.1063
X2.1289Y-0.5512
X2.1289Y-0.8661
X2.1289Y-1.1811
X2.1289Y-1.4961
X2.1289Y-1.811
X2.1289Y-2.126
X2.1604Y-0.5856
X2.1604Y-0.9006
X2.1604Y-1.2156
X2.1604Y-1.5305
X2.1604Y-1.8455
X2.1604Y-2.1604
T2
X1.1181Y-1.2689
X1.1309Y-0.5647
X1.1614Y-0.6496
X1.1988Y-0.7343
X1.2812Y-1.3472
X1.378Y-0.7874
X1.4764Y-2.0866
X1.4961Y-1.4173
X1.5049Y-1.7032
X1.5049Y-1.8212
X1.5354Y-1.2205
X1.5512Y-0.7638
X1.5945Y-0.9252
X1.6732Y-0.8268
X1.6841Y-1.1417
X1.6929Y-1.6142
X1.6929Y-1.9291
X1.6929Y-2.2441
X1.7126Y-1.301
X1.7304Y-1.7431
X1.7323Y-2.4016
X1.7363Y-2.0639
X1.7401Y-0.631
X1.7406Y-0.9646
X1.752Y-1.437
X1.8701Y-0.5075
X1.8701Y-1.4652
X1.8701Y-2.0898
X1.8736Y-1.7806
X1.8898Y-0.8352
X1.8898Y-1.1502
X1.8898Y-1.6929
X1.8898Y-2.0079
X1.9094Y-0.748
X1.9094Y-1.378
X2.0051Y-1.4338
X2.0067Y-0.8027
X2.0067Y-1.1176
X2.0067Y-1.7476
X2.0067Y-2.0625
X2.0067Y-2.3775
X2.0866Y-2.3819
X2.1427Y-2.3396
X2.1518Y-0.7648
X2.1518Y-0.8071
X2.1518Y-1.0798
X2.1518Y-1.122
X2.1518Y-1.3947
X2.1518Y-1.437
X2.1518Y-1.7097
X2.1518Y-2.0246
X2.1518Y-2.0669
X2.1654Y-1.752
X2.2136Y-0.6102
X2.2136Y-0.9449
X2.2136Y-1.2795
X2.2136Y-1.6339
X2.2136Y-1.9685
X2.2136Y-2.3031
T3
X1.1437Y-1.4862
X1.1437Y-1.5354
X1.1437Y-1.5846
X1.1437Y-1.752
X1.1437Y-1.8012
X1.1437Y-1.9685
X1.1437Y-2.0177
X1.1437Y-2.0669
X1.1437Y-2.2343
X1.1437Y-2.2835
X1.1437Y-2.3327
X1.3602Y-2.19
X1.3602Y-2.2392
X1.3602Y-2.2884
X1.3602Y-2.3376
T5
X2.3819Y-0.56
X2.3819Y-0.66
X2.3819Y-0.8986
X2.3819Y-0.9986
X2.3819Y-1.2372
X2.3819Y-1.3372
X2.3819Y-1.5758
X2.3819Y-1.6758
X2.3819Y-1.9144
X2.3819Y-2.0144
X2.3819Y-2.253
X2.3819Y-2.353
T6
X1.1122Y-0.8858
X1.3681Y-0.8858
X1.5748Y-2.1161
X1.5748Y-2.372
T4
G00X1.2866Y-0.5443
M15
G01X1.2866Y-0.5128
M16
G05
G00X1.2866Y-0.7148
M15
G01X1.2866Y-0.6715
M16
G05
G00X1.6268Y-0.5443
M15
G01X1.6268Y-0.5128
M16
G05
G00X1.6268Y-0.7148
M15
G01X1.6268Y-0.6715
M16
G05
M30
