%TF.GenerationSoftware,KiCad,Pcbnew,8.0.8*%
%TF.CreationDate,2025-01-26T16:03:16-05:00*%
%TF.ProjectId,CAN Board,43414e20-426f-4617-9264-2e6b69636164,rev?*%
%TF.SameCoordinates,Original*%
%TF.FileFunction,Copper,L4,Bot*%
%TF.FilePolarity,Positive*%
%FSLAX46Y46*%
G04 Gerber Fmt 4.6, Leading zero omitted, Abs format (unit mm)*
G04 Created by KiCad (PCBNEW 8.0.8) date 2025-01-26 16:03:16*
%MOMM*%
%LPD*%
G01*
G04 APERTURE LIST*
G04 Aperture macros list*
%AMRoundRect*
0 Rectangle with rounded corners*
0 $1 Rounding radius*
0 $2 $3 $4 $5 $6 $7 $8 $9 X,Y pos of 4 corners*
0 Add a 4 corners polygon primitive as box body*
4,1,4,$2,$3,$4,$5,$6,$7,$8,$9,$2,$3,0*
0 Add four circle primitives for the rounded corners*
1,1,$1+$1,$2,$3*
1,1,$1+$1,$4,$5*
1,1,$1+$1,$6,$7*
1,1,$1+$1,$8,$9*
0 Add four rect primitives between the rounded corners*
20,1,$1+$1,$2,$3,$4,$5,0*
20,1,$1+$1,$4,$5,$6,$7,0*
20,1,$1+$1,$6,$7,$8,$9,0*
20,1,$1+$1,$8,$9,$2,$3,0*%
G04 Aperture macros list end*
%TA.AperFunction,ComponentPad*%
%ADD10O,1.000000X2.100000*%
%TD*%
%TA.AperFunction,ComponentPad*%
%ADD11O,1.000000X1.800000*%
%TD*%
%TA.AperFunction,ComponentPad*%
%ADD12RoundRect,0.200000X-0.450000X0.200000X-0.450000X-0.200000X0.450000X-0.200000X0.450000X0.200000X0*%
%TD*%
%TA.AperFunction,ComponentPad*%
%ADD13O,1.300000X0.800000*%
%TD*%
%TA.AperFunction,ComponentPad*%
%ADD14R,1.700000X1.700000*%
%TD*%
%TA.AperFunction,ComponentPad*%
%ADD15O,1.700000X1.700000*%
%TD*%
%TA.AperFunction,ComponentPad*%
%ADD16R,2.250000X2.250000*%
%TD*%
%TA.AperFunction,ComponentPad*%
%ADD17C,2.250000*%
%TD*%
%TA.AperFunction,ViaPad*%
%ADD18C,0.610000*%
%TD*%
%TA.AperFunction,ViaPad*%
%ADD19C,0.457200*%
%TD*%
%TA.AperFunction,Conductor*%
%ADD20C,0.508000*%
%TD*%
%TA.AperFunction,Conductor*%
%ADD21C,0.304800*%
%TD*%
G04 APERTURE END LIST*
D10*
%TO.P,J3,S1,SHIELD*%
%TO.N,GND*%
X41320000Y-17605000D03*
D11*
X41320000Y-13425000D03*
D10*
X32680000Y-17605000D03*
D11*
X32680000Y-13425000D03*
%TD*%
D12*
%TO.P,J2,1,Pin_1*%
%TO.N,SPI1 TX*%
X34550000Y-55625000D03*
D13*
%TO.P,J2,2,Pin_2*%
%TO.N,SPI1 RX*%
X34550000Y-56875000D03*
%TO.P,J2,3,Pin_3*%
%TO.N,SPI1 CSn*%
X34550000Y-58125000D03*
%TO.P,J2,4,Pin_4*%
%TO.N,SPI1 SCK*%
X34550000Y-59375000D03*
%TD*%
D14*
%TO.P,J8,1,Pin_1*%
%TO.N,CAN5H*%
X60500000Y-48625000D03*
D15*
%TO.P,J8,2,Pin_2*%
%TO.N,CAN5L*%
X60500000Y-51165000D03*
%TD*%
D16*
%TO.P,SW2,1,1*%
%TO.N,Net-(R5-Pad2)*%
X28250000Y-22500000D03*
D17*
%TO.P,SW2,2,2*%
%TO.N,GND*%
X34750000Y-22500000D03*
%TD*%
D14*
%TO.P,J7,1,Pin_1*%
%TO.N,CAN4H*%
X60500000Y-40025000D03*
D15*
%TO.P,J7,2,Pin_2*%
%TO.N,CAN4L*%
X60500000Y-42565000D03*
%TD*%
D12*
%TO.P,J10,1,Pin_1*%
%TO.N,TX0*%
X29050000Y-44500000D03*
D13*
%TO.P,J10,2,Pin_2*%
%TO.N,RX0*%
X29050000Y-45750000D03*
%TD*%
D12*
%TO.P,J1,1,Pin_1*%
%TO.N,GPIO 15*%
X29050000Y-56750000D03*
D13*
%TO.P,J1,2,Pin_2*%
%TO.N,ADC 0*%
X29050000Y-58000000D03*
%TO.P,J1,3,Pin_3*%
%TO.N,ADC 1*%
X29050000Y-59250000D03*
%TD*%
D14*
%TO.P,J6,1,Pin_1*%
%TO.N,CAN3H*%
X60500000Y-31425000D03*
D15*
%TO.P,J6,2,Pin_2*%
%TO.N,CAN3L*%
X60500000Y-33965000D03*
%TD*%
D14*
%TO.P,J9,1,Pin_1*%
%TO.N,CAN6H*%
X60500000Y-57225000D03*
D15*
%TO.P,J9,2,Pin_2*%
%TO.N,CAN6L*%
X60500000Y-59765000D03*
%TD*%
D12*
%TO.P,J12,1,Pin_1*%
%TO.N,+5V*%
X29050000Y-37750000D03*
D13*
%TO.P,J12,2,Pin_2*%
%TO.N,+3V3*%
X29050000Y-39000000D03*
%TO.P,J12,3,Pin_3*%
%TO.N,GND*%
X29050000Y-40250000D03*
%TD*%
D14*
%TO.P,J5,1,Pin_1*%
%TO.N,CAN2H*%
X60500000Y-22825000D03*
D15*
%TO.P,J5,2,Pin_2*%
%TO.N,CAN2L*%
X60500000Y-25365000D03*
%TD*%
D14*
%TO.P,J4,1,Pin_1*%
%TO.N,CAN1H*%
X60500000Y-14225000D03*
D15*
%TO.P,J4,2,Pin_2*%
%TO.N,CAN1L*%
X60500000Y-16765000D03*
%TD*%
D12*
%TO.P,J11,1,Pin_1*%
%TO.N,SWCLK*%
X29050000Y-50000000D03*
D13*
%TO.P,J11,2,Pin_2*%
%TO.N,GND*%
X29050000Y-51250000D03*
%TO.P,J11,3,Pin_3*%
%TO.N,SWD*%
X29050000Y-52500000D03*
%TD*%
D16*
%TO.P,SW1,1,1*%
%TO.N,RUN*%
X40000000Y-53750000D03*
D17*
%TO.P,SW1,2,2*%
%TO.N,GND*%
X40000000Y-60250000D03*
%TD*%
D18*
%TO.N,GND*%
X37500000Y-53000000D03*
X50969058Y-52387858D03*
X50969058Y-44387858D03*
D19*
X40500000Y-27000000D03*
D18*
X48000000Y-43000000D03*
X43500000Y-33045200D03*
X56225000Y-32500000D03*
X56225000Y-50000000D03*
X43000000Y-49000000D03*
X43000000Y-41000000D03*
X56225000Y-24000000D03*
D19*
X33542800Y-43500000D03*
D18*
X48000000Y-51000000D03*
X50969058Y-28387858D03*
X48500000Y-19000000D03*
X43000000Y-57000000D03*
X50928458Y-36418800D03*
D19*
X48500000Y-27000000D03*
D18*
X38000000Y-36000000D03*
X56225000Y-15500000D03*
X56225000Y-41500000D03*
D19*
X40500000Y-45000000D03*
D18*
X29500000Y-16500000D03*
X50969058Y-20387858D03*
X28400000Y-32229559D03*
X56225000Y-58500000D03*
D19*
X48000000Y-59000000D03*
X40704600Y-47500000D03*
D18*
X50969058Y-60387858D03*
X44210100Y-24500000D03*
X48500000Y-35000000D03*
X44197600Y-16027400D03*
%TO.N,+1V1*%
X39000000Y-31000000D03*
X38225000Y-43261282D03*
%TO.N,+3V3*%
X47500000Y-12890600D03*
X32543692Y-34218800D03*
X54655500Y-35425700D03*
X40500000Y-23500000D03*
X47500000Y-53081200D03*
X48000000Y-29215200D03*
X54655500Y-51425700D03*
X47590500Y-45228500D03*
X54655500Y-43425700D03*
D19*
X36943750Y-26443750D03*
D18*
X47500000Y-37215200D03*
X54655500Y-19425700D03*
X38225000Y-46258021D03*
X30450000Y-18651863D03*
X48000000Y-21215200D03*
X54655500Y-27425700D03*
D19*
X40500000Y-34000000D03*
D18*
X54425700Y-59425700D03*
%TO.N,+5V*%
X42500000Y-21000000D03*
X55000000Y-44500000D03*
X54655500Y-20500000D03*
X54655500Y-52500000D03*
X35000000Y-20000000D03*
X28725000Y-14342515D03*
X42776400Y-29000000D03*
X54655500Y-28500000D03*
X44000000Y-61000000D03*
X39400000Y-19400000D03*
X54655500Y-36500000D03*
X53000000Y-60500000D03*
X44101860Y-52423800D03*
X43953060Y-44275000D03*
X44500000Y-36500000D03*
D19*
%TO.N,SWCLK*%
X38000000Y-39500000D03*
%TO.N,SWD*%
X38400000Y-41500000D03*
%TO.N,/QSPI_SS*%
X30000000Y-27500000D03*
X33500000Y-32500000D03*
%TO.N,SPI0 RX*%
X52750000Y-53250000D03*
X52750000Y-13250000D03*
X52750000Y-45250000D03*
X52750000Y-29250000D03*
X34500000Y-36750000D03*
X52750000Y-21250000D03*
X52750000Y-37250000D03*
%TO.N,SPI0 6CS*%
X32000000Y-40000000D03*
X52000000Y-53000000D03*
%TO.N,SPI0 2CS*%
X52000000Y-21000000D03*
X34647693Y-37852307D03*
%TO.N,SPI0 SCK*%
X54074300Y-22000000D03*
X54074300Y-30000000D03*
X54074300Y-46000000D03*
X54074300Y-14000000D03*
X54074300Y-38000000D03*
X34500000Y-35500000D03*
X54074300Y-54000000D03*
%TO.N,SPI0 TX*%
X53500000Y-37500000D03*
X53500000Y-45500000D03*
X53500000Y-29500000D03*
X53500000Y-13500000D03*
X53500000Y-21500000D03*
X32500000Y-36000000D03*
X53500000Y-53500000D03*
%TO.N,SPI0 4CS*%
X52000000Y-37000000D03*
X32500000Y-38400001D03*
%TO.N,SPI0 1CS*%
X52000000Y-13000000D03*
X32500000Y-36799999D03*
%TO.N,SPI0 5CS*%
X52000000Y-45000000D03*
X32000000Y-39000000D03*
%TO.N,SPI0 3CS*%
X52000000Y-29000000D03*
X32501956Y-37600000D03*
%TO.N,Net-(U4-TXCAN)*%
X49750000Y-14250000D03*
X54875000Y-14875000D03*
%TO.N,Net-(U4-RXCAN)*%
X49500000Y-15000000D03*
X50000000Y-21000000D03*
%TO.N,Net-(U5-TXCAN)*%
X54875000Y-22875000D03*
X49750000Y-22250000D03*
%TO.N,Net-(U5-RXCAN)*%
X50000000Y-29000000D03*
X49500000Y-23000000D03*
%TO.N,Net-(U6-RXCAN)*%
X49500000Y-31000000D03*
X50000000Y-37000000D03*
%TO.N,Net-(U6-TXCAN)*%
X49750000Y-30250000D03*
X54875000Y-30875000D03*
%TO.N,Net-(U7-RXCAN)*%
X49500000Y-39000000D03*
X50000000Y-45000000D03*
%TO.N,ADC 1*%
X39500000Y-35500000D03*
%TO.N,Net-(U7-TXCAN)*%
X54875000Y-38875000D03*
X49750000Y-38250000D03*
%TO.N,SPI1 TX*%
X33500000Y-40500000D03*
%TO.N,Net-(U8-RXCAN)*%
X49500000Y-47000000D03*
X50000000Y-53000000D03*
%TO.N,Net-(U8-TXCAN)*%
X54875000Y-46875000D03*
X49750000Y-46250000D03*
%TO.N,Net-(U9-RXCAN)*%
X50000000Y-61000000D03*
X49500000Y-55000000D03*
%TO.N,Net-(U9-TXCAN)*%
X49750000Y-54250000D03*
X54875000Y-54875000D03*
%TO.N,SPI1 SCK*%
X35000000Y-41500000D03*
%TO.N,SPI1 RX*%
X33000000Y-42000000D03*
%TO.N,SPI1 CSn*%
X34000000Y-42000000D03*
%TO.N,ADC 0*%
X39500000Y-36500000D03*
%TO.N,GPIO 15*%
X36465692Y-39619152D03*
%TD*%
D20*
%TO.N,GND*%
X32675000Y-17045000D02*
X32675000Y-13665000D01*
%TO.N,+1V1*%
X39111000Y-42375282D02*
X38225000Y-43261282D01*
X38789000Y-31211000D02*
X38789000Y-40883494D01*
X38789000Y-40883494D02*
X39111000Y-41205494D01*
X39000000Y-31000000D02*
X38789000Y-31211000D01*
X39111000Y-41205494D02*
X39111000Y-42375282D01*
D21*
%TO.N,+3V3*%
X48000000Y-29215200D02*
X49789500Y-27425700D01*
X49789500Y-27425700D02*
X54655500Y-27425700D01*
D20*
%TO.N,+5V*%
X44500000Y-43728060D02*
X44500000Y-36500000D01*
X44500000Y-30723600D02*
X42776400Y-29000000D01*
X43953060Y-44275000D02*
X44500000Y-43728060D01*
X44500000Y-36500000D02*
X44500000Y-30723600D01*
%TD*%
%TA.AperFunction,Conductor*%
%TO.N,GND*%
G36*
X32072333Y-12019685D02*
G01*
X32118088Y-12072489D01*
X32128032Y-12141647D01*
X32099007Y-12205203D01*
X32074185Y-12227102D01*
X32042537Y-12248248D01*
X32042533Y-12248251D01*
X31903251Y-12387533D01*
X31903248Y-12387537D01*
X31793814Y-12551315D01*
X31793807Y-12551328D01*
X31718430Y-12733306D01*
X31718427Y-12733318D01*
X31680000Y-12926504D01*
X31680000Y-13175000D01*
X32380000Y-13175000D01*
X32380000Y-13675000D01*
X31680000Y-13675000D01*
X31680000Y-13923495D01*
X31718427Y-14116681D01*
X31718430Y-14116693D01*
X31793807Y-14298671D01*
X31793814Y-14298684D01*
X31903248Y-14462462D01*
X31903251Y-14462466D01*
X32042533Y-14601748D01*
X32042537Y-14601751D01*
X32206315Y-14711185D01*
X32206328Y-14711192D01*
X32388308Y-14786569D01*
X32430000Y-14794862D01*
X32430000Y-13991988D01*
X32439940Y-14009205D01*
X32495795Y-14065060D01*
X32564204Y-14104556D01*
X32640504Y-14125000D01*
X32719496Y-14125000D01*
X32795796Y-14104556D01*
X32864205Y-14065060D01*
X32920060Y-14009205D01*
X32930000Y-13991988D01*
X32930000Y-14794862D01*
X32971690Y-14786569D01*
X32971692Y-14786569D01*
X33153671Y-14711192D01*
X33153684Y-14711185D01*
X33317462Y-14601751D01*
X33317466Y-14601748D01*
X33456748Y-14462466D01*
X33456751Y-14462462D01*
X33566185Y-14298684D01*
X33566192Y-14298671D01*
X33641569Y-14116693D01*
X33641572Y-14116681D01*
X33679999Y-13923495D01*
X33680000Y-13923492D01*
X33680000Y-13675000D01*
X32980000Y-13675000D01*
X32980000Y-13175000D01*
X33680000Y-13175000D01*
X33680000Y-12926508D01*
X33679999Y-12926504D01*
X33641572Y-12733318D01*
X33641569Y-12733306D01*
X33566192Y-12551328D01*
X33566185Y-12551315D01*
X33456751Y-12387537D01*
X33456748Y-12387533D01*
X33317466Y-12248251D01*
X33317462Y-12248248D01*
X33285815Y-12227102D01*
X33241010Y-12173490D01*
X33232303Y-12104165D01*
X33262458Y-12041137D01*
X33321901Y-12004418D01*
X33354706Y-12000000D01*
X40645294Y-12000000D01*
X40712333Y-12019685D01*
X40758088Y-12072489D01*
X40768032Y-12141647D01*
X40739007Y-12205203D01*
X40714185Y-12227102D01*
X40682537Y-12248248D01*
X40682533Y-12248251D01*
X40543251Y-12387533D01*
X40543248Y-12387537D01*
X40433814Y-12551315D01*
X40433807Y-12551328D01*
X40358430Y-12733306D01*
X40358427Y-12733318D01*
X40320000Y-12926504D01*
X40320000Y-13175000D01*
X41020000Y-13175000D01*
X41020000Y-13675000D01*
X40320000Y-13675000D01*
X40320000Y-13923495D01*
X40358427Y-14116681D01*
X40358430Y-14116693D01*
X40433807Y-14298671D01*
X40433814Y-14298684D01*
X40543248Y-14462462D01*
X40543251Y-14462466D01*
X40682533Y-14601748D01*
X40682537Y-14601751D01*
X40846315Y-14711185D01*
X40846328Y-14711192D01*
X41028308Y-14786569D01*
X41070000Y-14794862D01*
X41070000Y-13991988D01*
X41079940Y-14009205D01*
X41135795Y-14065060D01*
X41204204Y-14104556D01*
X41280504Y-14125000D01*
X41359496Y-14125000D01*
X41435796Y-14104556D01*
X41504205Y-14065060D01*
X41560060Y-14009205D01*
X41570000Y-13991988D01*
X41570000Y-14794862D01*
X41611690Y-14786569D01*
X41611692Y-14786569D01*
X41793671Y-14711192D01*
X41793684Y-14711185D01*
X41957462Y-14601751D01*
X41957466Y-14601748D01*
X42096748Y-14462466D01*
X42096751Y-14462462D01*
X42206185Y-14298684D01*
X42206192Y-14298671D01*
X42281569Y-14116693D01*
X42281572Y-14116681D01*
X42319999Y-13923495D01*
X42320000Y-13923492D01*
X42320000Y-13675000D01*
X41620000Y-13675000D01*
X41620000Y-13175000D01*
X42320000Y-13175000D01*
X42320000Y-12926508D01*
X42319999Y-12926504D01*
X42281572Y-12733318D01*
X42281569Y-12733306D01*
X42206192Y-12551328D01*
X42206185Y-12551315D01*
X42096751Y-12387537D01*
X42096748Y-12387533D01*
X41957466Y-12248251D01*
X41957462Y-12248248D01*
X41925815Y-12227102D01*
X41881010Y-12173490D01*
X41872303Y-12104165D01*
X41902458Y-12041137D01*
X41961901Y-12004418D01*
X41994706Y-12000000D01*
X46972961Y-12000000D01*
X47040000Y-12019685D01*
X47085755Y-12072489D01*
X47095699Y-12141647D01*
X47066674Y-12205203D01*
X47038933Y-12228994D01*
X46994601Y-12256849D01*
X46866249Y-12385201D01*
X46769677Y-12538893D01*
X46709725Y-12710225D01*
X46709724Y-12710230D01*
X46689403Y-12890596D01*
X46689403Y-12890603D01*
X46709724Y-13070969D01*
X46709725Y-13070974D01*
X46769677Y-13242306D01*
X46866249Y-13395998D01*
X46994601Y-13524350D01*
X47134399Y-13612192D01*
X47148295Y-13620923D01*
X47262977Y-13661052D01*
X47319625Y-13680874D01*
X47319630Y-13680875D01*
X47499996Y-13701197D01*
X47500000Y-13701197D01*
X47500004Y-13701197D01*
X47680369Y-13680875D01*
X47680372Y-13680874D01*
X47680375Y-13680874D01*
X47851705Y-13620923D01*
X48005399Y-13524350D01*
X48133750Y-13395999D01*
X48230323Y-13242305D01*
X48290274Y-13070975D01*
X48293478Y-13042537D01*
X48298271Y-12999996D01*
X51266287Y-12999996D01*
X51266287Y-13000003D01*
X51284681Y-13163261D01*
X51284682Y-13163265D01*
X51338947Y-13318347D01*
X51406817Y-13426360D01*
X51426360Y-13457463D01*
X51542537Y-13573640D01*
X51681654Y-13661053D01*
X51836733Y-13715317D01*
X51836734Y-13715317D01*
X51836738Y-13715318D01*
X51999996Y-13733713D01*
X52000000Y-13733713D01*
X52000003Y-13733713D01*
X52122753Y-13719882D01*
X52191575Y-13731936D01*
X52224318Y-13755421D01*
X52292537Y-13823640D01*
X52431654Y-13911053D01*
X52586733Y-13965317D01*
X52586734Y-13965317D01*
X52586738Y-13965318D01*
X52749996Y-13983713D01*
X52750000Y-13983713D01*
X52750003Y-13983713D01*
X52872753Y-13969882D01*
X52941575Y-13981936D01*
X52974318Y-14005421D01*
X53042537Y-14073640D01*
X53114536Y-14118880D01*
X53179473Y-14159683D01*
X53181654Y-14161053D01*
X53306804Y-14204844D01*
X53326476Y-14211728D01*
X53383252Y-14252450D01*
X53402563Y-14287813D01*
X53413248Y-14318349D01*
X53472890Y-14413267D01*
X53500660Y-14457463D01*
X53616837Y-14573640D01*
X53755954Y-14661053D01*
X53911033Y-14715317D01*
X53911034Y-14715317D01*
X53911038Y-14715318D01*
X53970027Y-14721964D01*
X54032947Y-14729053D01*
X54097360Y-14756119D01*
X54136915Y-14813713D01*
X54142283Y-14866155D01*
X54141287Y-14874995D01*
X54141287Y-14875003D01*
X54159681Y-15038261D01*
X54159682Y-15038265D01*
X54213947Y-15193347D01*
X54276732Y-15293268D01*
X54301360Y-15332463D01*
X54417537Y-15448640D01*
X54431579Y-15457463D01*
X54529189Y-15518796D01*
X54556654Y-15536053D01*
X54711733Y-15590317D01*
X54711734Y-15590317D01*
X54711738Y-15590318D01*
X54874996Y-15608713D01*
X54875000Y-15608713D01*
X54875004Y-15608713D01*
X55038261Y-15590318D01*
X55038263Y-15590317D01*
X55038267Y-15590317D01*
X55193346Y-15536053D01*
X55332463Y-15448640D01*
X55448640Y-15332463D01*
X55536053Y-15193346D01*
X55590317Y-15038267D01*
X55590318Y-15038261D01*
X55608713Y-14875003D01*
X55608713Y-14874996D01*
X55590318Y-14711738D01*
X55590317Y-14711734D01*
X55590127Y-14711192D01*
X55536053Y-14556654D01*
X55448640Y-14417537D01*
X55332463Y-14301360D01*
X55328204Y-14298684D01*
X55193347Y-14213947D01*
X55038265Y-14159682D01*
X55038261Y-14159681D01*
X54916353Y-14145946D01*
X54851939Y-14118880D01*
X54812383Y-14061285D01*
X54807017Y-14008836D01*
X54808013Y-14000000D01*
X54806977Y-13990808D01*
X54789618Y-13836738D01*
X54789617Y-13836734D01*
X54785035Y-13823640D01*
X54735353Y-13681654D01*
X54647940Y-13542537D01*
X54531763Y-13426360D01*
X54483442Y-13395998D01*
X54392647Y-13338947D01*
X54315000Y-13311777D01*
X54247822Y-13288271D01*
X54191047Y-13247550D01*
X54171735Y-13212182D01*
X54161054Y-13181656D01*
X54161053Y-13181653D01*
X54073639Y-13042536D01*
X53957463Y-12926360D01*
X53818347Y-12838947D01*
X53663265Y-12784682D01*
X53663261Y-12784681D01*
X53500004Y-12766287D01*
X53499996Y-12766287D01*
X53377245Y-12780117D01*
X53308423Y-12768062D01*
X53275681Y-12744578D01*
X53207463Y-12676360D01*
X53068347Y-12588947D01*
X52913265Y-12534682D01*
X52913261Y-12534681D01*
X52750004Y-12516287D01*
X52749996Y-12516287D01*
X52627245Y-12530117D01*
X52558423Y-12518062D01*
X52525681Y-12494578D01*
X52457463Y-12426360D01*
X52318347Y-12338947D01*
X52163265Y-12284682D01*
X52163261Y-12284681D01*
X52000004Y-12266287D01*
X51999996Y-12266287D01*
X51836738Y-12284681D01*
X51836734Y-12284682D01*
X51681652Y-12338947D01*
X51542536Y-12426360D01*
X51426360Y-12542536D01*
X51338947Y-12681652D01*
X51284682Y-12836734D01*
X51284681Y-12836738D01*
X51266287Y-12999996D01*
X48298271Y-12999996D01*
X48310597Y-12890603D01*
X48310597Y-12890596D01*
X48290275Y-12710230D01*
X48290274Y-12710225D01*
X48230322Y-12538893D01*
X48133750Y-12385201D01*
X48005398Y-12256849D01*
X47961067Y-12228994D01*
X47914776Y-12176659D01*
X47904128Y-12107606D01*
X47932503Y-12043757D01*
X47990892Y-12005385D01*
X48027039Y-12000000D01*
X61876000Y-12000000D01*
X61943039Y-12019685D01*
X61988794Y-12072489D01*
X62000000Y-12124000D01*
X62000000Y-13035565D01*
X61980315Y-13102604D01*
X61927511Y-13148359D01*
X61858353Y-13158303D01*
X61794797Y-13129278D01*
X61776734Y-13109876D01*
X61707547Y-13017455D01*
X61707544Y-13017452D01*
X61592335Y-12931206D01*
X61592328Y-12931202D01*
X61457482Y-12880908D01*
X61457483Y-12880908D01*
X61397883Y-12874501D01*
X61397881Y-12874500D01*
X61397873Y-12874500D01*
X61397864Y-12874500D01*
X59602129Y-12874500D01*
X59602123Y-12874501D01*
X59542516Y-12880908D01*
X59407671Y-12931202D01*
X59407664Y-12931206D01*
X59292455Y-13017452D01*
X59292452Y-13017455D01*
X59206206Y-13132664D01*
X59206202Y-13132671D01*
X59155908Y-13267517D01*
X59149501Y-13327116D01*
X59149500Y-13327135D01*
X59149500Y-15122870D01*
X59149501Y-15122876D01*
X59155908Y-15182483D01*
X59206202Y-15317328D01*
X59206206Y-15317335D01*
X59292452Y-15432544D01*
X59292455Y-15432547D01*
X59407664Y-15518793D01*
X59407671Y-15518797D01*
X59539081Y-15567810D01*
X59595015Y-15609681D01*
X59619432Y-15675145D01*
X59604580Y-15743418D01*
X59583430Y-15771673D01*
X59461503Y-15893600D01*
X59325965Y-16087169D01*
X59325964Y-16087171D01*
X59226098Y-16301335D01*
X59226094Y-16301344D01*
X59164938Y-16529586D01*
X59164936Y-16529596D01*
X59144341Y-16764999D01*
X59144341Y-16765000D01*
X59164936Y-17000403D01*
X59164938Y-17000413D01*
X59226094Y-17228655D01*
X59226096Y-17228659D01*
X59226097Y-17228663D01*
X59313920Y-17417000D01*
X59325965Y-17442830D01*
X59325967Y-17442834D01*
X59414111Y-17568715D01*
X59461505Y-17636401D01*
X59628599Y-17803495D01*
X59682542Y-17841266D01*
X59822165Y-17939032D01*
X59822167Y-17939033D01*
X59822170Y-17939035D01*
X60036337Y-18038903D01*
X60264592Y-18100063D01*
X60452918Y-18116539D01*
X60499999Y-18120659D01*
X60500000Y-18120659D01*
X60500001Y-18120659D01*
X60539234Y-18117226D01*
X60735408Y-18100063D01*
X60963663Y-18038903D01*
X61177830Y-17939035D01*
X61371401Y-17803495D01*
X61538495Y-17636401D01*
X61674035Y-17442830D01*
X61763619Y-17250716D01*
X61809790Y-17198279D01*
X61876984Y-17179127D01*
X61943865Y-17199343D01*
X61989199Y-17252508D01*
X62000000Y-17303123D01*
X62000000Y-21635565D01*
X61980315Y-21702604D01*
X61927511Y-21748359D01*
X61858353Y-21758303D01*
X61794797Y-21729278D01*
X61776734Y-21709876D01*
X61707547Y-21617455D01*
X61707544Y-21617452D01*
X61592335Y-21531206D01*
X61592328Y-21531202D01*
X61457482Y-21480908D01*
X61457483Y-21480908D01*
X61397883Y-21474501D01*
X61397881Y-21474500D01*
X61397873Y-21474500D01*
X61397864Y-21474500D01*
X59602129Y-21474500D01*
X59602123Y-21474501D01*
X59542516Y-21480908D01*
X59407671Y-21531202D01*
X59407664Y-21531206D01*
X59292455Y-21617452D01*
X59292452Y-21617455D01*
X59206206Y-21732664D01*
X59206202Y-21732671D01*
X59155908Y-21867517D01*
X59149501Y-21927116D01*
X59149500Y-21927135D01*
X59149500Y-23722870D01*
X59149501Y-23722876D01*
X59155908Y-23782483D01*
X59206202Y-23917328D01*
X59206206Y-23917335D01*
X59292452Y-24032544D01*
X59292455Y-24032547D01*
X59407664Y-24118793D01*
X59407671Y-24118797D01*
X59539081Y-24167810D01*
X59595015Y-24209681D01*
X59619432Y-24275145D01*
X59604580Y-24343418D01*
X59583430Y-24371673D01*
X59461503Y-24493600D01*
X59325965Y-24687169D01*
X59325964Y-24687171D01*
X59226098Y-24901335D01*
X59226094Y-24901344D01*
X59164938Y-25129586D01*
X59164936Y-25129596D01*
X59144341Y-25364999D01*
X59144341Y-25365000D01*
X59164936Y-25600403D01*
X59164938Y-25600413D01*
X59226094Y-25828655D01*
X59226096Y-25828659D01*
X59226097Y-25828663D01*
X59325965Y-26042830D01*
X59325967Y-26042834D01*
X59383784Y-26125404D01*
X59461505Y-26236401D01*
X59628599Y-26403495D01*
X59725384Y-26471265D01*
X59822165Y-26539032D01*
X59822167Y-26539033D01*
X59822170Y-26539035D01*
X60036337Y-26638903D01*
X60264592Y-26700063D01*
X60452918Y-26716539D01*
X60499999Y-26720659D01*
X60500000Y-26720659D01*
X60500001Y-26720659D01*
X60539234Y-26717226D01*
X60735408Y-26700063D01*
X60963663Y-26638903D01*
X61177830Y-26539035D01*
X61371401Y-26403495D01*
X61538495Y-26236401D01*
X61674035Y-26042830D01*
X61763619Y-25850716D01*
X61809790Y-25798279D01*
X61876984Y-25779127D01*
X61943865Y-25799343D01*
X61989199Y-25852508D01*
X62000000Y-25903123D01*
X62000000Y-30235565D01*
X61980315Y-30302604D01*
X61927511Y-30348359D01*
X61858353Y-30358303D01*
X61794797Y-30329278D01*
X61776734Y-30309876D01*
X61707547Y-30217455D01*
X61707544Y-30217452D01*
X61592335Y-30131206D01*
X61592328Y-30131202D01*
X61457482Y-30080908D01*
X61457483Y-30080908D01*
X61397883Y-30074501D01*
X61397881Y-30074500D01*
X61397873Y-30074500D01*
X61397864Y-30074500D01*
X59602129Y-30074500D01*
X59602123Y-30074501D01*
X59542516Y-30080908D01*
X59407671Y-30131202D01*
X59407664Y-30131206D01*
X59292455Y-30217452D01*
X59292452Y-30217455D01*
X59206206Y-30332664D01*
X59206202Y-30332671D01*
X59155908Y-30467517D01*
X59149501Y-30527116D01*
X59149500Y-30527135D01*
X59149500Y-32322870D01*
X59149501Y-32322876D01*
X59155908Y-32382483D01*
X59206202Y-32517328D01*
X59206206Y-32517335D01*
X59292452Y-32632544D01*
X59292455Y-32632547D01*
X59407664Y-32718793D01*
X59407671Y-32718797D01*
X59539081Y-32767810D01*
X59595015Y-32809681D01*
X59619432Y-32875145D01*
X59604580Y-32943418D01*
X59583430Y-32971673D01*
X59461503Y-33093600D01*
X59325965Y-33287169D01*
X59325964Y-33287171D01*
X59226098Y-33501335D01*
X59226094Y-33501344D01*
X59164938Y-33729586D01*
X59164936Y-33729596D01*
X59144341Y-33964999D01*
X59144341Y-33965000D01*
X59164936Y-34200403D01*
X59164938Y-34200413D01*
X59226094Y-34428655D01*
X59226096Y-34428659D01*
X59226097Y-34428663D01*
X59292239Y-34570505D01*
X59325965Y-34642830D01*
X59325967Y-34642834D01*
X59415842Y-34771188D01*
X59461505Y-34836401D01*
X59628599Y-35003495D01*
X59684357Y-35042537D01*
X59822165Y-35139032D01*
X59822167Y-35139033D01*
X59822170Y-35139035D01*
X60036337Y-35238903D01*
X60036343Y-35238904D01*
X60036344Y-35238905D01*
X60060323Y-35245330D01*
X60264592Y-35300063D01*
X60452918Y-35316539D01*
X60499999Y-35320659D01*
X60500000Y-35320659D01*
X60500001Y-35320659D01*
X60539234Y-35317226D01*
X60735408Y-35300063D01*
X60963663Y-35238903D01*
X61177830Y-35139035D01*
X61371401Y-35003495D01*
X61538495Y-34836401D01*
X61674035Y-34642830D01*
X61763619Y-34450716D01*
X61809790Y-34398279D01*
X61876984Y-34379127D01*
X61943865Y-34399343D01*
X61989199Y-34452508D01*
X62000000Y-34503123D01*
X62000000Y-38835565D01*
X61980315Y-38902604D01*
X61927511Y-38948359D01*
X61858353Y-38958303D01*
X61794797Y-38929278D01*
X61776734Y-38909876D01*
X61707547Y-38817455D01*
X61707544Y-38817452D01*
X61592335Y-38731206D01*
X61592328Y-38731202D01*
X61457482Y-38680908D01*
X61457483Y-38680908D01*
X61397883Y-38674501D01*
X61397881Y-38674500D01*
X61397873Y-38674500D01*
X61397864Y-38674500D01*
X59602129Y-38674500D01*
X59602123Y-38674501D01*
X59542516Y-38680908D01*
X59407671Y-38731202D01*
X59407664Y-38731206D01*
X59292455Y-38817452D01*
X59292452Y-38817455D01*
X59206206Y-38932664D01*
X59206202Y-38932671D01*
X59155908Y-39067517D01*
X59149501Y-39127116D01*
X59149500Y-39127135D01*
X59149500Y-40922870D01*
X59149501Y-40922876D01*
X59155908Y-40982483D01*
X59206202Y-41117328D01*
X59206206Y-41117335D01*
X59292452Y-41232544D01*
X59292455Y-41232547D01*
X59407664Y-41318793D01*
X59407671Y-41318797D01*
X59539081Y-41367810D01*
X59595015Y-41409681D01*
X59619432Y-41475145D01*
X59604580Y-41543418D01*
X59583430Y-41571673D01*
X59461503Y-41693600D01*
X59325965Y-41887169D01*
X59325964Y-41887171D01*
X59226098Y-42101335D01*
X59226094Y-42101344D01*
X59164938Y-42329586D01*
X59164936Y-42329596D01*
X59144341Y-42564999D01*
X59144341Y-42565000D01*
X59164936Y-42800403D01*
X59164938Y-42800413D01*
X59226094Y-43028655D01*
X59226096Y-43028659D01*
X59226097Y-43028663D01*
X59325965Y-43242830D01*
X59325967Y-43242834D01*
X59338882Y-43261278D01*
X59461505Y-43436401D01*
X59628599Y-43603495D01*
X59682519Y-43641250D01*
X59822165Y-43739032D01*
X59822167Y-43739033D01*
X59822170Y-43739035D01*
X60036337Y-43838903D01*
X60264592Y-43900063D01*
X60452918Y-43916539D01*
X60499999Y-43920659D01*
X60500000Y-43920659D01*
X60500001Y-43920659D01*
X60539234Y-43917226D01*
X60735408Y-43900063D01*
X60963663Y-43838903D01*
X61177830Y-43739035D01*
X61371401Y-43603495D01*
X61538495Y-43436401D01*
X61674035Y-43242830D01*
X61763619Y-43050716D01*
X61809790Y-42998279D01*
X61876984Y-42979127D01*
X61943865Y-42999343D01*
X61989199Y-43052508D01*
X62000000Y-43103123D01*
X62000000Y-47435565D01*
X61980315Y-47502604D01*
X61927511Y-47548359D01*
X61858353Y-47558303D01*
X61794797Y-47529278D01*
X61776734Y-47509876D01*
X61707547Y-47417455D01*
X61707544Y-47417452D01*
X61592335Y-47331206D01*
X61592328Y-47331202D01*
X61457482Y-47280908D01*
X61457483Y-47280908D01*
X61397883Y-47274501D01*
X61397881Y-47274500D01*
X61397873Y-47274500D01*
X61397864Y-47274500D01*
X59602129Y-47274500D01*
X59602123Y-47274501D01*
X59542516Y-47280908D01*
X59407671Y-47331202D01*
X59407664Y-47331206D01*
X59292455Y-47417452D01*
X59292452Y-47417455D01*
X59206206Y-47532664D01*
X59206202Y-47532671D01*
X59155908Y-47667517D01*
X59149501Y-47727116D01*
X59149500Y-47727135D01*
X59149500Y-49522870D01*
X59149501Y-49522876D01*
X59155908Y-49582483D01*
X59206202Y-49717328D01*
X59206206Y-49717335D01*
X59292452Y-49832544D01*
X59292455Y-49832547D01*
X59407664Y-49918793D01*
X59407671Y-49918797D01*
X59539081Y-49967810D01*
X59595015Y-50009681D01*
X59619432Y-50075145D01*
X59604580Y-50143418D01*
X59583430Y-50171673D01*
X59461503Y-50293600D01*
X59325965Y-50487169D01*
X59325964Y-50487171D01*
X59226098Y-50701335D01*
X59226094Y-50701344D01*
X59164938Y-50929586D01*
X59164936Y-50929596D01*
X59144341Y-51164999D01*
X59144341Y-51165000D01*
X59164936Y-51400403D01*
X59164938Y-51400413D01*
X59226094Y-51628655D01*
X59226096Y-51628659D01*
X59226097Y-51628663D01*
X59295457Y-51777405D01*
X59325965Y-51842830D01*
X59325967Y-51842834D01*
X59409119Y-51961586D01*
X59461505Y-52036401D01*
X59628599Y-52203495D01*
X59676926Y-52237334D01*
X59822165Y-52339032D01*
X59822167Y-52339033D01*
X59822170Y-52339035D01*
X60036337Y-52438903D01*
X60264592Y-52500063D01*
X60450029Y-52516287D01*
X60499999Y-52520659D01*
X60500000Y-52520659D01*
X60500001Y-52520659D01*
X60549971Y-52516287D01*
X60735408Y-52500063D01*
X60963663Y-52438903D01*
X61177830Y-52339035D01*
X61371401Y-52203495D01*
X61538495Y-52036401D01*
X61674035Y-51842830D01*
X61763619Y-51650716D01*
X61809790Y-51598279D01*
X61876984Y-51579127D01*
X61943865Y-51599343D01*
X61989199Y-51652508D01*
X62000000Y-51703123D01*
X62000000Y-56035565D01*
X61980315Y-56102604D01*
X61927511Y-56148359D01*
X61858353Y-56158303D01*
X61794797Y-56129278D01*
X61776734Y-56109876D01*
X61707547Y-56017455D01*
X61707544Y-56017452D01*
X61592335Y-55931206D01*
X61592328Y-55931202D01*
X61457482Y-55880908D01*
X61457483Y-55880908D01*
X61397883Y-55874501D01*
X61397881Y-55874500D01*
X61397873Y-55874500D01*
X61397864Y-55874500D01*
X59602129Y-55874500D01*
X59602123Y-55874501D01*
X59542516Y-55880908D01*
X59407671Y-55931202D01*
X59407664Y-55931206D01*
X59292455Y-56017452D01*
X59292452Y-56017455D01*
X59206206Y-56132664D01*
X59206202Y-56132671D01*
X59155908Y-56267517D01*
X59149501Y-56327116D01*
X59149500Y-56327135D01*
X59149500Y-58122870D01*
X59149501Y-58122876D01*
X59155908Y-58182483D01*
X59206202Y-58317328D01*
X59206206Y-58317335D01*
X59292452Y-58432544D01*
X59292455Y-58432547D01*
X59407664Y-58518793D01*
X59407671Y-58518797D01*
X59539081Y-58567810D01*
X59595015Y-58609681D01*
X59619432Y-58675145D01*
X59604580Y-58743418D01*
X59583430Y-58771673D01*
X59461503Y-58893600D01*
X59325965Y-59087169D01*
X59325964Y-59087171D01*
X59226098Y-59301335D01*
X59226094Y-59301344D01*
X59164938Y-59529586D01*
X59164936Y-59529596D01*
X59144341Y-59764999D01*
X59144341Y-59765000D01*
X59164936Y-60000403D01*
X59164938Y-60000413D01*
X59226094Y-60228655D01*
X59226096Y-60228659D01*
X59226097Y-60228663D01*
X59290255Y-60366249D01*
X59325965Y-60442830D01*
X59325967Y-60442834D01*
X59406531Y-60557890D01*
X59461505Y-60636401D01*
X59628599Y-60803495D01*
X59725384Y-60871265D01*
X59822165Y-60939032D01*
X59822167Y-60939033D01*
X59822170Y-60939035D01*
X60036337Y-61038903D01*
X60264592Y-61100063D01*
X60452918Y-61116539D01*
X60499999Y-61120659D01*
X60500000Y-61120659D01*
X60500001Y-61120659D01*
X60539234Y-61117226D01*
X60735408Y-61100063D01*
X60963663Y-61038903D01*
X61177830Y-60939035D01*
X61371401Y-60803495D01*
X61538495Y-60636401D01*
X61674035Y-60442830D01*
X61763619Y-60250716D01*
X61809790Y-60198279D01*
X61876984Y-60179127D01*
X61943865Y-60199343D01*
X61989199Y-60252508D01*
X62000000Y-60303123D01*
X62000000Y-61876000D01*
X61980315Y-61943039D01*
X61927511Y-61988794D01*
X61876000Y-62000000D01*
X44310826Y-62000000D01*
X44243787Y-61980315D01*
X44198032Y-61927511D01*
X44188088Y-61858353D01*
X44217113Y-61794797D01*
X44269871Y-61758958D01*
X44272991Y-61757865D01*
X44351705Y-61730323D01*
X44505399Y-61633750D01*
X44633750Y-61505399D01*
X44730323Y-61351705D01*
X44790274Y-61180375D01*
X44792202Y-61163265D01*
X44810597Y-61000003D01*
X44810597Y-60999996D01*
X49266287Y-60999996D01*
X49266287Y-61000003D01*
X49284681Y-61163261D01*
X49284682Y-61163265D01*
X49338947Y-61318347D01*
X49359908Y-61351706D01*
X49426360Y-61457463D01*
X49542537Y-61573640D01*
X49624821Y-61625343D01*
X49638201Y-61633750D01*
X49681654Y-61661053D01*
X49836733Y-61715317D01*
X49836734Y-61715317D01*
X49836738Y-61715318D01*
X49999996Y-61733713D01*
X50000000Y-61733713D01*
X50000004Y-61733713D01*
X50163261Y-61715318D01*
X50163263Y-61715317D01*
X50163267Y-61715317D01*
X50318346Y-61661053D01*
X50457463Y-61573640D01*
X50573640Y-61457463D01*
X50661053Y-61318346D01*
X50715317Y-61163267D01*
X50720118Y-61120659D01*
X50733713Y-61000003D01*
X50733713Y-60999996D01*
X50715318Y-60836738D01*
X50715317Y-60836734D01*
X50709330Y-60819625D01*
X50661053Y-60681654D01*
X50660249Y-60680375D01*
X50573639Y-60542536D01*
X50531099Y-60499996D01*
X52189403Y-60499996D01*
X52189403Y-60500003D01*
X52209724Y-60680369D01*
X52209725Y-60680374D01*
X52269677Y-60851706D01*
X52366249Y-61005398D01*
X52494601Y-61133750D01*
X52618992Y-61211911D01*
X52648295Y-61230323D01*
X52819625Y-61290274D01*
X52819630Y-61290275D01*
X52999996Y-61310597D01*
X53000000Y-61310597D01*
X53000004Y-61310597D01*
X53180369Y-61290275D01*
X53180372Y-61290274D01*
X53180375Y-61290274D01*
X53351705Y-61230323D01*
X53505399Y-61133750D01*
X53633750Y-61005399D01*
X53730323Y-60851705D01*
X53790274Y-60680375D01*
X53790275Y-60680369D01*
X53810597Y-60500003D01*
X53810597Y-60499996D01*
X53790275Y-60319630D01*
X53790272Y-60319617D01*
X53753974Y-60215884D01*
X53750412Y-60146105D01*
X53785140Y-60085478D01*
X53847134Y-60053250D01*
X53916709Y-60059655D01*
X53936987Y-60069935D01*
X54065205Y-60150500D01*
X54073995Y-60156023D01*
X54227464Y-60209724D01*
X54245325Y-60215974D01*
X54245330Y-60215975D01*
X54425696Y-60236297D01*
X54425700Y-60236297D01*
X54425704Y-60236297D01*
X54606069Y-60215975D01*
X54606072Y-60215974D01*
X54606075Y-60215974D01*
X54777405Y-60156023D01*
X54931099Y-60059450D01*
X55059450Y-59931099D01*
X55156023Y-59777405D01*
X55215974Y-59606075D01*
X55215975Y-59606069D01*
X55236297Y-59425703D01*
X55236297Y-59425696D01*
X55215975Y-59245330D01*
X55215974Y-59245325D01*
X55209518Y-59226876D01*
X55156023Y-59073995D01*
X55059450Y-58920301D01*
X54931099Y-58791950D01*
X54931098Y-58791949D01*
X54777406Y-58695377D01*
X54606074Y-58635425D01*
X54606069Y-58635424D01*
X54425704Y-58615103D01*
X54425696Y-58615103D01*
X54245330Y-58635424D01*
X54245325Y-58635425D01*
X54073993Y-58695377D01*
X53920301Y-58791949D01*
X53791949Y-58920301D01*
X53695377Y-59073993D01*
X53635425Y-59245325D01*
X53635424Y-59245330D01*
X53615103Y-59425696D01*
X53615103Y-59425703D01*
X53635424Y-59606069D01*
X53635426Y-59606077D01*
X53671726Y-59709816D01*
X53675287Y-59779594D01*
X53640558Y-59840222D01*
X53578565Y-59872449D01*
X53508989Y-59866044D01*
X53488712Y-59855764D01*
X53351706Y-59769677D01*
X53180374Y-59709725D01*
X53180369Y-59709724D01*
X53000004Y-59689403D01*
X52999996Y-59689403D01*
X52819630Y-59709724D01*
X52819625Y-59709725D01*
X52648293Y-59769677D01*
X52494601Y-59866249D01*
X52366249Y-59994601D01*
X52269677Y-60148293D01*
X52209725Y-60319625D01*
X52209724Y-60319630D01*
X52189403Y-60499996D01*
X50531099Y-60499996D01*
X50457463Y-60426360D01*
X50318347Y-60338947D01*
X50163265Y-60284682D01*
X50163261Y-60284681D01*
X50000004Y-60266287D01*
X49999996Y-60266287D01*
X49836738Y-60284681D01*
X49836734Y-60284682D01*
X49681652Y-60338947D01*
X49542536Y-60426360D01*
X49426360Y-60542536D01*
X49338947Y-60681652D01*
X49284682Y-60836734D01*
X49284681Y-60836738D01*
X49266287Y-60999996D01*
X44810597Y-60999996D01*
X44790275Y-60819630D01*
X44790274Y-60819625D01*
X44784629Y-60803493D01*
X44730323Y-60648295D01*
X44722849Y-60636401D01*
X44633750Y-60494601D01*
X44505398Y-60366249D01*
X44351706Y-60269677D01*
X44180374Y-60209725D01*
X44180369Y-60209724D01*
X44000004Y-60189403D01*
X43999996Y-60189403D01*
X43819630Y-60209724D01*
X43819625Y-60209725D01*
X43648293Y-60269677D01*
X43494601Y-60366249D01*
X43366249Y-60494601D01*
X43269677Y-60648293D01*
X43209725Y-60819625D01*
X43209724Y-60819630D01*
X43189403Y-60999996D01*
X43189403Y-61000003D01*
X43209724Y-61180369D01*
X43209725Y-61180374D01*
X43269677Y-61351706D01*
X43366249Y-61505398D01*
X43494601Y-61633750D01*
X43624414Y-61715318D01*
X43648295Y-61730323D01*
X43723657Y-61756693D01*
X43730129Y-61758958D01*
X43786905Y-61799680D01*
X43812652Y-61864633D01*
X43799196Y-61933195D01*
X43750808Y-61983597D01*
X43689174Y-62000000D01*
X40644846Y-62000000D01*
X40577807Y-61980315D01*
X40532052Y-61927511D01*
X40522108Y-61858353D01*
X40551133Y-61794797D01*
X40597394Y-61761439D01*
X40740012Y-61702365D01*
X40740015Y-61702363D01*
X40958103Y-61568719D01*
X40961912Y-61565464D01*
X40247488Y-60851041D01*
X40307890Y-60826022D01*
X40414351Y-60754888D01*
X40504888Y-60664351D01*
X40576022Y-60557890D01*
X40601041Y-60497489D01*
X41315464Y-61211912D01*
X41318719Y-61208103D01*
X41452363Y-60990015D01*
X41452365Y-60990012D01*
X41550247Y-60753702D01*
X41609957Y-60504989D01*
X41630024Y-60250000D01*
X41609957Y-59995010D01*
X41550247Y-59746297D01*
X41452365Y-59509987D01*
X41452363Y-59509984D01*
X41318719Y-59291898D01*
X41318712Y-59291888D01*
X41315465Y-59288087D01*
X41315464Y-59288087D01*
X40601041Y-60002510D01*
X40576022Y-59942110D01*
X40504888Y-59835649D01*
X40414351Y-59745112D01*
X40307890Y-59673978D01*
X40247487Y-59648958D01*
X40961911Y-58934535D01*
X40961911Y-58934533D01*
X40958110Y-58931286D01*
X40958095Y-58931275D01*
X40740015Y-58797636D01*
X40740012Y-58797634D01*
X40503702Y-58699752D01*
X40254988Y-58640042D01*
X40254989Y-58640042D01*
X40000000Y-58619975D01*
X39745010Y-58640042D01*
X39496297Y-58699752D01*
X39259987Y-58797634D01*
X39259984Y-58797636D01*
X39041897Y-58931280D01*
X39038087Y-58934534D01*
X39752511Y-59648958D01*
X39692110Y-59673978D01*
X39585649Y-59745112D01*
X39495112Y-59835649D01*
X39423978Y-59942110D01*
X39398958Y-60002511D01*
X38684534Y-59288087D01*
X38681280Y-59291897D01*
X38547636Y-59509984D01*
X38547634Y-59509987D01*
X38449752Y-59746297D01*
X38390042Y-59995010D01*
X38369975Y-60250000D01*
X38390042Y-60504989D01*
X38449752Y-60753702D01*
X38547634Y-60990012D01*
X38547636Y-60990015D01*
X38681275Y-61208095D01*
X38681286Y-61208110D01*
X38684533Y-61211911D01*
X38684535Y-61211911D01*
X39398958Y-60497488D01*
X39423978Y-60557890D01*
X39495112Y-60664351D01*
X39585649Y-60754888D01*
X39692110Y-60826022D01*
X39752511Y-60851041D01*
X39038087Y-61565464D01*
X39038087Y-61565465D01*
X39041888Y-61568712D01*
X39041898Y-61568719D01*
X39259984Y-61702363D01*
X39259987Y-61702365D01*
X39402606Y-61761439D01*
X39457010Y-61805280D01*
X39479075Y-61871574D01*
X39461796Y-61939273D01*
X39410659Y-61986884D01*
X39355154Y-62000000D01*
X27124000Y-62000000D01*
X27056961Y-61980315D01*
X27011206Y-61927511D01*
X27000000Y-61876000D01*
X27000000Y-56493386D01*
X27899500Y-56493386D01*
X27899500Y-57006613D01*
X27905913Y-57077192D01*
X27905913Y-57077194D01*
X27905914Y-57077196D01*
X27956522Y-57239606D01*
X27993970Y-57301553D01*
X28043281Y-57383122D01*
X28061117Y-57450677D01*
X28040267Y-57516162D01*
X28001989Y-57573449D01*
X28001983Y-57573460D01*
X27934106Y-57737332D01*
X27934103Y-57737341D01*
X27899500Y-57911304D01*
X27899500Y-58088695D01*
X27934103Y-58262658D01*
X27934106Y-58262667D01*
X28001983Y-58426540D01*
X28001990Y-58426553D01*
X28088557Y-58556109D01*
X28109435Y-58622787D01*
X28090950Y-58690167D01*
X28088557Y-58693891D01*
X28001990Y-58823446D01*
X28001983Y-58823459D01*
X27934106Y-58987332D01*
X27934103Y-58987341D01*
X27899500Y-59161304D01*
X27899500Y-59338695D01*
X27934103Y-59512658D01*
X27934106Y-59512667D01*
X28001983Y-59676540D01*
X28001990Y-59676553D01*
X28100535Y-59824034D01*
X28100538Y-59824038D01*
X28225961Y-59949461D01*
X28225965Y-59949464D01*
X28373446Y-60048009D01*
X28373459Y-60048016D01*
X28463902Y-60085478D01*
X28537334Y-60115894D01*
X28537336Y-60115894D01*
X28537341Y-60115896D01*
X28711304Y-60150499D01*
X28711307Y-60150500D01*
X28711309Y-60150500D01*
X29388693Y-60150500D01*
X29388694Y-60150499D01*
X29446682Y-60138964D01*
X29562658Y-60115896D01*
X29562661Y-60115894D01*
X29562666Y-60115894D01*
X29726547Y-60048013D01*
X29874035Y-59949464D01*
X29999464Y-59824035D01*
X30098013Y-59676547D01*
X30165894Y-59512666D01*
X30166428Y-59509984D01*
X30200499Y-59338695D01*
X30200500Y-59338693D01*
X30200500Y-59161306D01*
X30200499Y-59161304D01*
X30165896Y-58987341D01*
X30165893Y-58987332D01*
X30098016Y-58823459D01*
X30098014Y-58823455D01*
X30098013Y-58823453D01*
X30063415Y-58771674D01*
X30011442Y-58693891D01*
X29990564Y-58627214D01*
X30009048Y-58559834D01*
X30011442Y-58556109D01*
X30036376Y-58518793D01*
X30098013Y-58426547D01*
X30165894Y-58262666D01*
X30175636Y-58213693D01*
X30200499Y-58088695D01*
X30200500Y-58088693D01*
X30200500Y-57911306D01*
X30200499Y-57911304D01*
X30165896Y-57737341D01*
X30165893Y-57737332D01*
X30098015Y-57573457D01*
X30098011Y-57573450D01*
X30059733Y-57516162D01*
X30038855Y-57449485D01*
X30056717Y-57383125D01*
X30143478Y-57239606D01*
X30194086Y-57077196D01*
X30200500Y-57006616D01*
X30200500Y-56493384D01*
X30194086Y-56422804D01*
X30143478Y-56260394D01*
X30055472Y-56114815D01*
X30055470Y-56114813D01*
X30055469Y-56114811D01*
X29935188Y-55994530D01*
X29865159Y-55952196D01*
X29789606Y-55906522D01*
X29627196Y-55855914D01*
X29627194Y-55855913D01*
X29627192Y-55855913D01*
X29577778Y-55851423D01*
X29556616Y-55849500D01*
X28543384Y-55849500D01*
X28524145Y-55851248D01*
X28472807Y-55855913D01*
X28310393Y-55906522D01*
X28164811Y-55994530D01*
X28044530Y-56114811D01*
X27956522Y-56260393D01*
X27905913Y-56422807D01*
X27899500Y-56493386D01*
X27000000Y-56493386D01*
X27000000Y-55368386D01*
X33399500Y-55368386D01*
X33399500Y-55881613D01*
X33405913Y-55952192D01*
X33405913Y-55952194D01*
X33405914Y-55952196D01*
X33456522Y-56114606D01*
X33476926Y-56148359D01*
X33543281Y-56258122D01*
X33561117Y-56325677D01*
X33540267Y-56391162D01*
X33501989Y-56448449D01*
X33501983Y-56448460D01*
X33434106Y-56612332D01*
X33434103Y-56612341D01*
X33399500Y-56786304D01*
X33399500Y-56963695D01*
X33434103Y-57137658D01*
X33434106Y-57137667D01*
X33501983Y-57301540D01*
X33501990Y-57301553D01*
X33588557Y-57431109D01*
X33609435Y-57497787D01*
X33590950Y-57565167D01*
X33588557Y-57568891D01*
X33501990Y-57698446D01*
X33501983Y-57698459D01*
X33434106Y-57862332D01*
X33434103Y-57862341D01*
X33399500Y-58036304D01*
X33399500Y-58213695D01*
X33434103Y-58387658D01*
X33434106Y-58387667D01*
X33501983Y-58551540D01*
X33501990Y-58551553D01*
X33588557Y-58681109D01*
X33609435Y-58747787D01*
X33590950Y-58815167D01*
X33588557Y-58818891D01*
X33501990Y-58948446D01*
X33501983Y-58948459D01*
X33434106Y-59112332D01*
X33434103Y-59112341D01*
X33399500Y-59286304D01*
X33399500Y-59463695D01*
X33434103Y-59637658D01*
X33434106Y-59637667D01*
X33501983Y-59801540D01*
X33501990Y-59801553D01*
X33600535Y-59949034D01*
X33600538Y-59949038D01*
X33725961Y-60074461D01*
X33725965Y-60074464D01*
X33873446Y-60173009D01*
X33873459Y-60173016D01*
X33996363Y-60223923D01*
X34037334Y-60240894D01*
X34037336Y-60240894D01*
X34037341Y-60240896D01*
X34211304Y-60275499D01*
X34211307Y-60275500D01*
X34211309Y-60275500D01*
X34888693Y-60275500D01*
X34888694Y-60275499D01*
X34946682Y-60263964D01*
X35062658Y-60240896D01*
X35062661Y-60240894D01*
X35062666Y-60240894D01*
X35226547Y-60173013D01*
X35374035Y-60074464D01*
X35499464Y-59949035D01*
X35598013Y-59801547D01*
X35665894Y-59637666D01*
X35672178Y-59606077D01*
X35700499Y-59463695D01*
X35700500Y-59463693D01*
X35700500Y-59286306D01*
X35700499Y-59286304D01*
X35665896Y-59112341D01*
X35665893Y-59112332D01*
X35598016Y-58948459D01*
X35598014Y-58948455D01*
X35598013Y-58948453D01*
X35561361Y-58893600D01*
X35511442Y-58818891D01*
X35490564Y-58752214D01*
X35509048Y-58684834D01*
X35511442Y-58681109D01*
X35541968Y-58635424D01*
X35598013Y-58551547D01*
X35665894Y-58387666D01*
X35678011Y-58326753D01*
X35700499Y-58213695D01*
X35700500Y-58213693D01*
X35700500Y-58036306D01*
X35700499Y-58036304D01*
X35665896Y-57862341D01*
X35665893Y-57862332D01*
X35598016Y-57698459D01*
X35598014Y-57698455D01*
X35598013Y-57698453D01*
X35514488Y-57573450D01*
X35511442Y-57568891D01*
X35490564Y-57502214D01*
X35509048Y-57434834D01*
X35511442Y-57431109D01*
X35543506Y-57383122D01*
X35598013Y-57301547D01*
X35665894Y-57137666D01*
X35677923Y-57077196D01*
X35700499Y-56963695D01*
X35700500Y-56963693D01*
X35700500Y-56786306D01*
X35700499Y-56786304D01*
X35665896Y-56612341D01*
X35665893Y-56612332D01*
X35598015Y-56448457D01*
X35598011Y-56448450D01*
X35559733Y-56391162D01*
X35538855Y-56324485D01*
X35556717Y-56258125D01*
X35643478Y-56114606D01*
X35694086Y-55952196D01*
X35700500Y-55881616D01*
X35700500Y-55368384D01*
X35694086Y-55297804D01*
X35643478Y-55135394D01*
X35555472Y-54989815D01*
X35555470Y-54989813D01*
X35555469Y-54989811D01*
X35435188Y-54869530D01*
X35399659Y-54848052D01*
X35289606Y-54781522D01*
X35127196Y-54730914D01*
X35127194Y-54730913D01*
X35127192Y-54730913D01*
X35077778Y-54726423D01*
X35056616Y-54724500D01*
X34043384Y-54724500D01*
X34024145Y-54726248D01*
X33972807Y-54730913D01*
X33810393Y-54781522D01*
X33664811Y-54869530D01*
X33544530Y-54989811D01*
X33456522Y-55135393D01*
X33405913Y-55297807D01*
X33399500Y-55368386D01*
X27000000Y-55368386D01*
X27000000Y-49743386D01*
X27899500Y-49743386D01*
X27899500Y-50256613D01*
X27905913Y-50327192D01*
X27905913Y-50327194D01*
X27905914Y-50327196D01*
X27956522Y-50489606D01*
X28043567Y-50633596D01*
X28061403Y-50701148D01*
X28040553Y-50766634D01*
X28002429Y-50823691D01*
X27934587Y-50987476D01*
X27934584Y-50987483D01*
X27932096Y-51000000D01*
X29000272Y-51000000D01*
X28908386Y-51038060D01*
X28838060Y-51108386D01*
X28800000Y-51200272D01*
X28800000Y-51299728D01*
X28838060Y-51391614D01*
X28908386Y-51461940D01*
X29000272Y-51500000D01*
X27932096Y-51500000D01*
X27934584Y-51512516D01*
X27934587Y-51512523D01*
X28002428Y-51676306D01*
X28002433Y-51676316D01*
X28088858Y-51805659D01*
X28109736Y-51872336D01*
X28091252Y-51939717D01*
X28088858Y-51943441D01*
X28001990Y-52073446D01*
X28001983Y-52073459D01*
X27934106Y-52237332D01*
X27934103Y-52237341D01*
X27899500Y-52411304D01*
X27899500Y-52588695D01*
X27934103Y-52762658D01*
X27934106Y-52762667D01*
X28001983Y-52926540D01*
X28001990Y-52926553D01*
X28100535Y-53074034D01*
X28100538Y-53074038D01*
X28225961Y-53199461D01*
X28225965Y-53199464D01*
X28373446Y-53298009D01*
X28373459Y-53298016D01*
X28450612Y-53329973D01*
X28537334Y-53365894D01*
X28537336Y-53365894D01*
X28537341Y-53365896D01*
X28711304Y-53400499D01*
X28711307Y-53400500D01*
X28711309Y-53400500D01*
X29388693Y-53400500D01*
X29388694Y-53400499D01*
X29462060Y-53385906D01*
X29562658Y-53365896D01*
X29562661Y-53365894D01*
X29562666Y-53365894D01*
X29726547Y-53298013D01*
X29874035Y-53199464D01*
X29999464Y-53074035D01*
X30098013Y-52926547D01*
X30098091Y-52926360D01*
X30129013Y-52851705D01*
X30165894Y-52762666D01*
X30171348Y-52735251D01*
X30200499Y-52588695D01*
X30200500Y-52588693D01*
X30200500Y-52411306D01*
X30200499Y-52411304D01*
X30165896Y-52237341D01*
X30165893Y-52237332D01*
X30098016Y-52073459D01*
X30098014Y-52073455D01*
X30098013Y-52073453D01*
X30048933Y-52000000D01*
X31947447Y-52000000D01*
X31967732Y-52173551D01*
X32020900Y-52319630D01*
X32027494Y-52337745D01*
X32123511Y-52483732D01*
X32250607Y-52603640D01*
X32250609Y-52603641D01*
X32250610Y-52603642D01*
X32292907Y-52628062D01*
X32401929Y-52691006D01*
X32569321Y-52741120D01*
X32743757Y-52751280D01*
X32915835Y-52720938D01*
X33076277Y-52651730D01*
X33176475Y-52577135D01*
X38374500Y-52577135D01*
X38374500Y-54922870D01*
X38374501Y-54922876D01*
X38380908Y-54982483D01*
X38431202Y-55117328D01*
X38431206Y-55117335D01*
X38517452Y-55232544D01*
X38517455Y-55232547D01*
X38632664Y-55318793D01*
X38632671Y-55318797D01*
X38767517Y-55369091D01*
X38767516Y-55369091D01*
X38774444Y-55369835D01*
X38827127Y-55375500D01*
X41172872Y-55375499D01*
X41232483Y-55369091D01*
X41367331Y-55318796D01*
X41482546Y-55232546D01*
X41568796Y-55117331D01*
X41612559Y-54999996D01*
X48766287Y-54999996D01*
X48766287Y-55000003D01*
X48784681Y-55163261D01*
X48784682Y-55163265D01*
X48838947Y-55318347D01*
X48920816Y-55448640D01*
X48926360Y-55457463D01*
X49042537Y-55573640D01*
X49181654Y-55661053D01*
X49336733Y-55715317D01*
X49336734Y-55715317D01*
X49336738Y-55715318D01*
X49499996Y-55733713D01*
X49500000Y-55733713D01*
X49500004Y-55733713D01*
X49663261Y-55715318D01*
X49663263Y-55715317D01*
X49663267Y-55715317D01*
X49818346Y-55661053D01*
X49957463Y-55573640D01*
X50073640Y-55457463D01*
X50161053Y-55318346D01*
X50215317Y-55163267D01*
X50218483Y-55135170D01*
X50233713Y-55000003D01*
X50233713Y-54999997D01*
X50219882Y-54877246D01*
X50231936Y-54808424D01*
X50255417Y-54775684D01*
X50323640Y-54707463D01*
X50411053Y-54568346D01*
X50465317Y-54413267D01*
X50465318Y-54413261D01*
X50483713Y-54250003D01*
X50483713Y-54249996D01*
X50465318Y-54086738D01*
X50465317Y-54086734D01*
X50460735Y-54073640D01*
X50411053Y-53931654D01*
X50411052Y-53931652D01*
X50411049Y-53931646D01*
X50328882Y-53800879D01*
X50309881Y-53733643D01*
X50330248Y-53666808D01*
X50367902Y-53629914D01*
X50457463Y-53573640D01*
X50573640Y-53457463D01*
X50661053Y-53318346D01*
X50715317Y-53163267D01*
X50715318Y-53163261D01*
X50733713Y-53000003D01*
X50733713Y-52999996D01*
X51266287Y-52999996D01*
X51266287Y-53000003D01*
X51284681Y-53163261D01*
X51284682Y-53163265D01*
X51338947Y-53318347D01*
X51391627Y-53402186D01*
X51426360Y-53457463D01*
X51542537Y-53573640D01*
X51681654Y-53661053D01*
X51836733Y-53715317D01*
X51836734Y-53715317D01*
X51836738Y-53715318D01*
X51999996Y-53733713D01*
X52000000Y-53733713D01*
X52000003Y-53733713D01*
X52122753Y-53719882D01*
X52191575Y-53731936D01*
X52224318Y-53755421D01*
X52292537Y-53823640D01*
X52431654Y-53911053D01*
X52586733Y-53965317D01*
X52586734Y-53965317D01*
X52586738Y-53965318D01*
X52749996Y-53983713D01*
X52750000Y-53983713D01*
X52750003Y-53983713D01*
X52872753Y-53969882D01*
X52941575Y-53981936D01*
X52974318Y-54005421D01*
X53042537Y-54073640D01*
X53114536Y-54118880D01*
X53179473Y-54159683D01*
X53181654Y-54161053D01*
X53278670Y-54195000D01*
X53326476Y-54211728D01*
X53383252Y-54252450D01*
X53402563Y-54287813D01*
X53413248Y-54318349D01*
X53472890Y-54413267D01*
X53500660Y-54457463D01*
X53616837Y-54573640D01*
X53755954Y-54661053D01*
X53911033Y-54715317D01*
X53911034Y-54715317D01*
X53911038Y-54715318D01*
X53970027Y-54721964D01*
X54032947Y-54729053D01*
X54097360Y-54756119D01*
X54136915Y-54813713D01*
X54142283Y-54866155D01*
X54141287Y-54874995D01*
X54141287Y-54875003D01*
X54159681Y-55038261D01*
X54159682Y-55038265D01*
X54213947Y-55193347D01*
X54279582Y-55297804D01*
X54301360Y-55332463D01*
X54417537Y-55448640D01*
X54556654Y-55536053D01*
X54711733Y-55590317D01*
X54711734Y-55590317D01*
X54711738Y-55590318D01*
X54874996Y-55608713D01*
X54875000Y-55608713D01*
X54875004Y-55608713D01*
X55038261Y-55590318D01*
X55038263Y-55590317D01*
X55038267Y-55590317D01*
X55193346Y-55536053D01*
X55332463Y-55448640D01*
X55448640Y-55332463D01*
X55536053Y-55193346D01*
X55590317Y-55038267D01*
X55590318Y-55038261D01*
X55608713Y-54875003D01*
X55608713Y-54874996D01*
X55590318Y-54711738D01*
X55590317Y-54711734D01*
X55588821Y-54707460D01*
X55536053Y-54556654D01*
X55448640Y-54417537D01*
X55332463Y-54301360D01*
X55310903Y-54287813D01*
X55193347Y-54213947D01*
X55139199Y-54195000D01*
X57997422Y-54195000D01*
X58017943Y-54396819D01*
X58078669Y-54590364D01*
X58078676Y-54590379D01*
X58177118Y-54767738D01*
X58177121Y-54767743D01*
X58309255Y-54921660D01*
X58309256Y-54921662D01*
X58459891Y-55038261D01*
X58469672Y-55045832D01*
X58651799Y-55135170D01*
X58848182Y-55186017D01*
X59050780Y-55196292D01*
X59251299Y-55165573D01*
X59441530Y-55095120D01*
X59613684Y-54987815D01*
X59760715Y-54848052D01*
X59876601Y-54681553D01*
X59956600Y-54495135D01*
X59997435Y-54296429D01*
X60000000Y-54195000D01*
X59998759Y-54145946D01*
X59997435Y-54093575D01*
X59997435Y-54093571D01*
X59956600Y-53894865D01*
X59876601Y-53708447D01*
X59857951Y-53681652D01*
X59760715Y-53541948D01*
X59613685Y-53402186D01*
X59613684Y-53402185D01*
X59441530Y-53294880D01*
X59429093Y-53290274D01*
X59251300Y-53224427D01*
X59251294Y-53224426D01*
X59050781Y-53193708D01*
X59050780Y-53193708D01*
X58949481Y-53198845D01*
X58848181Y-53203983D01*
X58651798Y-53254830D01*
X58469668Y-53344170D01*
X58309256Y-53468337D01*
X58309255Y-53468339D01*
X58177121Y-53622256D01*
X58177118Y-53622261D01*
X58078676Y-53799620D01*
X58078669Y-53799635D01*
X58017943Y-53993180D01*
X57997422Y-54195000D01*
X55139199Y-54195000D01*
X55038265Y-54159682D01*
X55038261Y-54159681D01*
X54916353Y-54145946D01*
X54851939Y-54118880D01*
X54812383Y-54061285D01*
X54807017Y-54008836D01*
X54808013Y-54000000D01*
X54804619Y-53969882D01*
X54789618Y-53836738D01*
X54789617Y-53836734D01*
X54785035Y-53823640D01*
X54735353Y-53681654D01*
X54732023Y-53676355D01*
X54673485Y-53583192D01*
X54647940Y-53542537D01*
X54622324Y-53516921D01*
X54588839Y-53455598D01*
X54593823Y-53385906D01*
X54635695Y-53329973D01*
X54696121Y-53306020D01*
X54719063Y-53303435D01*
X54835870Y-53290275D01*
X54835873Y-53290274D01*
X54835875Y-53290274D01*
X55007205Y-53230323D01*
X55160899Y-53133750D01*
X55289250Y-53005399D01*
X55385823Y-52851705D01*
X55445774Y-52680375D01*
X55445775Y-52680369D01*
X55466097Y-52500003D01*
X55466097Y-52499996D01*
X55445775Y-52319630D01*
X55445774Y-52319625D01*
X55385822Y-52148292D01*
X55310753Y-52028823D01*
X55291752Y-51961586D01*
X55310753Y-51896877D01*
X55385822Y-51777407D01*
X55385823Y-51777405D01*
X55445774Y-51606075D01*
X55446515Y-51599500D01*
X55466097Y-51425703D01*
X55466097Y-51425696D01*
X55445775Y-51245330D01*
X55445774Y-51245325D01*
X55385822Y-51073993D01*
X55289250Y-50920301D01*
X55160898Y-50791949D01*
X55007206Y-50695377D01*
X54835874Y-50635425D01*
X54835869Y-50635424D01*
X54655504Y-50615103D01*
X54655496Y-50615103D01*
X54475130Y-50635424D01*
X54475125Y-50635425D01*
X54303793Y-50695377D01*
X54150101Y-50791949D01*
X54021749Y-50920301D01*
X53925177Y-51073993D01*
X53865225Y-51245325D01*
X53865224Y-51245330D01*
X53844903Y-51425696D01*
X53844903Y-51425703D01*
X53865224Y-51606069D01*
X53865225Y-51606074D01*
X53925177Y-51777406D01*
X54000247Y-51896878D01*
X54019247Y-51964114D01*
X54000247Y-52028822D01*
X53925177Y-52148293D01*
X53865225Y-52319625D01*
X53865224Y-52319630D01*
X53844903Y-52499996D01*
X53844903Y-52500003D01*
X53863654Y-52666429D01*
X53851599Y-52735251D01*
X53804250Y-52786630D01*
X53736640Y-52804254D01*
X53699481Y-52797354D01*
X53663269Y-52784683D01*
X53663261Y-52784681D01*
X53500004Y-52766287D01*
X53499996Y-52766287D01*
X53377245Y-52780117D01*
X53308423Y-52768062D01*
X53275681Y-52744578D01*
X53207463Y-52676360D01*
X53068347Y-52588947D01*
X52913265Y-52534682D01*
X52913261Y-52534681D01*
X52750004Y-52516287D01*
X52749996Y-52516287D01*
X52627245Y-52530117D01*
X52558423Y-52518062D01*
X52525681Y-52494578D01*
X52457463Y-52426360D01*
X52318347Y-52338947D01*
X52163265Y-52284682D01*
X52163261Y-52284681D01*
X52000004Y-52266287D01*
X51999996Y-52266287D01*
X51836738Y-52284681D01*
X51836734Y-52284682D01*
X51681652Y-52338947D01*
X51542536Y-52426360D01*
X51426360Y-52542536D01*
X51338947Y-52681652D01*
X51284682Y-52836734D01*
X51284681Y-52836738D01*
X51266287Y-52999996D01*
X50733713Y-52999996D01*
X50715318Y-52836738D01*
X50715317Y-52836734D01*
X50701537Y-52797354D01*
X50661053Y-52681654D01*
X50660249Y-52680375D01*
X50612034Y-52603641D01*
X50573640Y-52542537D01*
X50457463Y-52426360D01*
X50437052Y-52413535D01*
X50318347Y-52338947D01*
X50163265Y-52284682D01*
X50163261Y-52284681D01*
X50000004Y-52266287D01*
X49999996Y-52266287D01*
X49836738Y-52284681D01*
X49836734Y-52284682D01*
X49681652Y-52338947D01*
X49542536Y-52426360D01*
X49426360Y-52542536D01*
X49338947Y-52681652D01*
X49284682Y-52836734D01*
X49284681Y-52836738D01*
X49266287Y-52999996D01*
X49266287Y-53000003D01*
X49284681Y-53163261D01*
X49284682Y-53163265D01*
X49338947Y-53318347D01*
X49421118Y-53449120D01*
X49440118Y-53516356D01*
X49419750Y-53583192D01*
X49382096Y-53620085D01*
X49292542Y-53676355D01*
X49292536Y-53676360D01*
X49176360Y-53792536D01*
X49088947Y-53931652D01*
X49034682Y-54086734D01*
X49034681Y-54086738D01*
X49016287Y-54249996D01*
X49016287Y-54250003D01*
X49030117Y-54372752D01*
X49018062Y-54441574D01*
X48994579Y-54474315D01*
X48926363Y-54542532D01*
X48926362Y-54542533D01*
X48838947Y-54681652D01*
X48784682Y-54836734D01*
X48784681Y-54836738D01*
X48766287Y-54999996D01*
X41612559Y-54999996D01*
X41619091Y-54982483D01*
X41625500Y-54922873D01*
X41625499Y-52577128D01*
X41619091Y-52517517D01*
X41618632Y-52516287D01*
X41584135Y-52423796D01*
X43291263Y-52423796D01*
X43291263Y-52423803D01*
X43311584Y-52604169D01*
X43311585Y-52604174D01*
X43371537Y-52775506D01*
X43468109Y-52929198D01*
X43596461Y-53057550D01*
X43717731Y-53133750D01*
X43750155Y-53154123D01*
X43879732Y-53199464D01*
X43921485Y-53214074D01*
X43921490Y-53214075D01*
X44101856Y-53234397D01*
X44101860Y-53234397D01*
X44101864Y-53234397D01*
X44282229Y-53214075D01*
X44282232Y-53214074D01*
X44282235Y-53214074D01*
X44453565Y-53154123D01*
X44569627Y-53081196D01*
X46689403Y-53081196D01*
X46689403Y-53081203D01*
X46709724Y-53261569D01*
X46709725Y-53261574D01*
X46769677Y-53432906D01*
X46866249Y-53586598D01*
X46994601Y-53714950D01*
X47129351Y-53799620D01*
X47148295Y-53811523D01*
X47319625Y-53871474D01*
X47319630Y-53871475D01*
X47499996Y-53891797D01*
X47500000Y-53891797D01*
X47500004Y-53891797D01*
X47680369Y-53871475D01*
X47680372Y-53871474D01*
X47680375Y-53871474D01*
X47851705Y-53811523D01*
X48005399Y-53714950D01*
X48133750Y-53586599D01*
X48230323Y-53432905D01*
X48290274Y-53261575D01*
X48293336Y-53234397D01*
X48310597Y-53081203D01*
X48310597Y-53081196D01*
X48290275Y-52900830D01*
X48290274Y-52900825D01*
X48230323Y-52729495D01*
X48133750Y-52575801D01*
X48005399Y-52447450D01*
X48005398Y-52447449D01*
X47851706Y-52350877D01*
X47680374Y-52290925D01*
X47680369Y-52290924D01*
X47500004Y-52270603D01*
X47499996Y-52270603D01*
X47319630Y-52290924D01*
X47319625Y-52290925D01*
X47148293Y-52350877D01*
X46994601Y-52447449D01*
X46866249Y-52575801D01*
X46769677Y-52729493D01*
X46709725Y-52900825D01*
X46709724Y-52900830D01*
X46689403Y-53081196D01*
X44569627Y-53081196D01*
X44607259Y-53057550D01*
X44735610Y-52929199D01*
X44832183Y-52775505D01*
X44892134Y-52604175D01*
X44892194Y-52603641D01*
X44912457Y-52423803D01*
X44912457Y-52423796D01*
X44892135Y-52243430D01*
X44892134Y-52243425D01*
X44867684Y-52173551D01*
X44832183Y-52072095D01*
X44809755Y-52036402D01*
X44735610Y-51918401D01*
X44607258Y-51790049D01*
X44453566Y-51693477D01*
X44282234Y-51633525D01*
X44282229Y-51633524D01*
X44101864Y-51613203D01*
X44101856Y-51613203D01*
X43921490Y-51633524D01*
X43921485Y-51633525D01*
X43750153Y-51693477D01*
X43596461Y-51790049D01*
X43468109Y-51918401D01*
X43371537Y-52072093D01*
X43311585Y-52243425D01*
X43311584Y-52243430D01*
X43291263Y-52423796D01*
X41584135Y-52423796D01*
X41568797Y-52382671D01*
X41568793Y-52382664D01*
X41482547Y-52267455D01*
X41482544Y-52267452D01*
X41367335Y-52181206D01*
X41367328Y-52181202D01*
X41232482Y-52130908D01*
X41232483Y-52130908D01*
X41172883Y-52124501D01*
X41172881Y-52124500D01*
X41172873Y-52124500D01*
X41172864Y-52124500D01*
X38827129Y-52124500D01*
X38827123Y-52124501D01*
X38767516Y-52130908D01*
X38632671Y-52181202D01*
X38632664Y-52181206D01*
X38517455Y-52267452D01*
X38517452Y-52267455D01*
X38431206Y-52382664D01*
X38431202Y-52382671D01*
X38380908Y-52517517D01*
X38374501Y-52577116D01*
X38374501Y-52577123D01*
X38374500Y-52577135D01*
X33176475Y-52577135D01*
X33216433Y-52547387D01*
X33328749Y-52413535D01*
X33407169Y-52257388D01*
X33447465Y-52087366D01*
X33450000Y-52000000D01*
X33447465Y-51912634D01*
X33407169Y-51742612D01*
X33328749Y-51586465D01*
X33216433Y-51452613D01*
X33180287Y-51425703D01*
X33076278Y-51348270D01*
X33022796Y-51325200D01*
X32915835Y-51279062D01*
X32915831Y-51279061D01*
X32915828Y-51279060D01*
X32743757Y-51248720D01*
X32743756Y-51248720D01*
X32569325Y-51258879D01*
X32569319Y-51258880D01*
X32497789Y-51280295D01*
X32401929Y-51308994D01*
X32401926Y-51308995D01*
X32401925Y-51308996D01*
X32250610Y-51396357D01*
X32246311Y-51400413D01*
X32127481Y-51512523D01*
X32123510Y-51516269D01*
X32027493Y-51662256D01*
X31967732Y-51826448D01*
X31947447Y-52000000D01*
X30048933Y-52000000D01*
X30011140Y-51943440D01*
X29990263Y-51876764D01*
X30008747Y-51809384D01*
X30011141Y-51805659D01*
X30097566Y-51676315D01*
X30097571Y-51676306D01*
X30165412Y-51512523D01*
X30165415Y-51512516D01*
X30167904Y-51500000D01*
X29099728Y-51500000D01*
X29191614Y-51461940D01*
X29261940Y-51391614D01*
X29300000Y-51299728D01*
X29300000Y-51200272D01*
X29261940Y-51108386D01*
X29191614Y-51038060D01*
X29099728Y-51000000D01*
X30167904Y-51000000D01*
X30165415Y-50987483D01*
X30165412Y-50987476D01*
X30097571Y-50823693D01*
X30097569Y-50823689D01*
X30059447Y-50766636D01*
X30038569Y-50699958D01*
X30056431Y-50633597D01*
X30143478Y-50489606D01*
X30194086Y-50327196D01*
X30200500Y-50256616D01*
X30200500Y-49743384D01*
X30194086Y-49672804D01*
X30143478Y-49510394D01*
X30055472Y-49364815D01*
X30055470Y-49364813D01*
X30055469Y-49364811D01*
X29935188Y-49244530D01*
X29789606Y-49156522D01*
X29627196Y-49105914D01*
X29627194Y-49105913D01*
X29627192Y-49105913D01*
X29577778Y-49101423D01*
X29556616Y-49099500D01*
X28543384Y-49099500D01*
X28524145Y-49101248D01*
X28472807Y-49105913D01*
X28310393Y-49156522D01*
X28164811Y-49244530D01*
X28044530Y-49364811D01*
X27956522Y-49510393D01*
X27905913Y-49672807D01*
X27899500Y-49743386D01*
X27000000Y-49743386D01*
X27000000Y-44243386D01*
X27899500Y-44243386D01*
X27899500Y-44756613D01*
X27905913Y-44827192D01*
X27905913Y-44827194D01*
X27905914Y-44827196D01*
X27956522Y-44989606D01*
X27988519Y-45042536D01*
X28043281Y-45133122D01*
X28061117Y-45200677D01*
X28040267Y-45266162D01*
X28001989Y-45323449D01*
X28001983Y-45323460D01*
X27934106Y-45487332D01*
X27934103Y-45487341D01*
X27899500Y-45661304D01*
X27899500Y-45838695D01*
X27934103Y-46012658D01*
X27934106Y-46012667D01*
X28001983Y-46176540D01*
X28001990Y-46176553D01*
X28100535Y-46324034D01*
X28100538Y-46324038D01*
X28225961Y-46449461D01*
X28225965Y-46449464D01*
X28373446Y-46548009D01*
X28373459Y-46548016D01*
X28496363Y-46598923D01*
X28537334Y-46615894D01*
X28537336Y-46615894D01*
X28537341Y-46615896D01*
X28711304Y-46650499D01*
X28711307Y-46650500D01*
X28711309Y-46650500D01*
X29388693Y-46650500D01*
X29388694Y-46650499D01*
X29446682Y-46638964D01*
X29562658Y-46615896D01*
X29562661Y-46615894D01*
X29562666Y-46615894D01*
X29726547Y-46548013D01*
X29874035Y-46449464D01*
X29999464Y-46324035D01*
X30043576Y-46258017D01*
X37414403Y-46258017D01*
X37414403Y-46258024D01*
X37434724Y-46438390D01*
X37434725Y-46438395D01*
X37494677Y-46609727D01*
X37586662Y-46756119D01*
X37591250Y-46763420D01*
X37719601Y-46891771D01*
X37873295Y-46988344D01*
X38015961Y-47038265D01*
X38044625Y-47048295D01*
X38044630Y-47048296D01*
X38224996Y-47068618D01*
X38225000Y-47068618D01*
X38225004Y-47068618D01*
X38405369Y-47048296D01*
X38405372Y-47048295D01*
X38405375Y-47048295D01*
X38543406Y-46999996D01*
X48766287Y-46999996D01*
X48766287Y-47000003D01*
X48784681Y-47163261D01*
X48784682Y-47163265D01*
X48838947Y-47318347D01*
X48920816Y-47448640D01*
X48926360Y-47457463D01*
X49042537Y-47573640D01*
X49181654Y-47661053D01*
X49336733Y-47715317D01*
X49336734Y-47715317D01*
X49336738Y-47715318D01*
X49499996Y-47733713D01*
X49500000Y-47733713D01*
X49500004Y-47733713D01*
X49663261Y-47715318D01*
X49663263Y-47715317D01*
X49663267Y-47715317D01*
X49818346Y-47661053D01*
X49957463Y-47573640D01*
X50073640Y-47457463D01*
X50161053Y-47318346D01*
X50215317Y-47163267D01*
X50225982Y-47068618D01*
X50233713Y-47000003D01*
X50233713Y-46999997D01*
X50219882Y-46877246D01*
X50231936Y-46808424D01*
X50255417Y-46775684D01*
X50323640Y-46707463D01*
X50411053Y-46568346D01*
X50465317Y-46413267D01*
X50475371Y-46324035D01*
X50483713Y-46250003D01*
X50483713Y-46249996D01*
X50465318Y-46086738D01*
X50465317Y-46086734D01*
X50460735Y-46073640D01*
X50411053Y-45931654D01*
X50411052Y-45931652D01*
X50411049Y-45931646D01*
X50328882Y-45800879D01*
X50309881Y-45733643D01*
X50330248Y-45666808D01*
X50367902Y-45629914D01*
X50457463Y-45573640D01*
X50573640Y-45457463D01*
X50661053Y-45318346D01*
X50715317Y-45163267D01*
X50720179Y-45120118D01*
X50733713Y-45000003D01*
X50733713Y-44999996D01*
X51266287Y-44999996D01*
X51266287Y-45000003D01*
X51284681Y-45163261D01*
X51284682Y-45163265D01*
X51338947Y-45318347D01*
X51395830Y-45408875D01*
X51426360Y-45457463D01*
X51542537Y-45573640D01*
X51681654Y-45661053D01*
X51836733Y-45715317D01*
X51836734Y-45715317D01*
X51836738Y-45715318D01*
X51999996Y-45733713D01*
X52000000Y-45733713D01*
X52000003Y-45733713D01*
X52122753Y-45719882D01*
X52191575Y-45731936D01*
X52224318Y-45755421D01*
X52292537Y-45823640D01*
X52431654Y-45911053D01*
X52586733Y-45965317D01*
X52586734Y-45965317D01*
X52586738Y-45965318D01*
X52749996Y-45983713D01*
X52750000Y-45983713D01*
X52750003Y-45983713D01*
X52872753Y-45969882D01*
X52941575Y-45981936D01*
X52974318Y-46005421D01*
X53042537Y-46073640D01*
X53114536Y-46118880D01*
X53179473Y-46159683D01*
X53181654Y-46161053D01*
X53225914Y-46176540D01*
X53326476Y-46211728D01*
X53383252Y-46252450D01*
X53402563Y-46287813D01*
X53413248Y-46318349D01*
X53472890Y-46413267D01*
X53500660Y-46457463D01*
X53616837Y-46573640D01*
X53755954Y-46661053D01*
X53911033Y-46715317D01*
X53911034Y-46715317D01*
X53911038Y-46715318D01*
X53970027Y-46721964D01*
X54032947Y-46729053D01*
X54097360Y-46756119D01*
X54136915Y-46813713D01*
X54142283Y-46866155D01*
X54141287Y-46874995D01*
X54141287Y-46875003D01*
X54159681Y-47038261D01*
X54159682Y-47038265D01*
X54213947Y-47193347D01*
X54264939Y-47274500D01*
X54301360Y-47332463D01*
X54417537Y-47448640D01*
X54431579Y-47457463D01*
X54551271Y-47532671D01*
X54556654Y-47536053D01*
X54711733Y-47590317D01*
X54711734Y-47590317D01*
X54711738Y-47590318D01*
X54874996Y-47608713D01*
X54875000Y-47608713D01*
X54875004Y-47608713D01*
X55038261Y-47590318D01*
X55038263Y-47590317D01*
X55038267Y-47590317D01*
X55193346Y-47536053D01*
X55332463Y-47448640D01*
X55448640Y-47332463D01*
X55536053Y-47193346D01*
X55590317Y-47038267D01*
X55590318Y-47038261D01*
X55608713Y-46875003D01*
X55608713Y-46874996D01*
X55590318Y-46711738D01*
X55590317Y-46711734D01*
X55588821Y-46707460D01*
X55536053Y-46556654D01*
X55530625Y-46548016D01*
X55463743Y-46441574D01*
X55448640Y-46417537D01*
X55332463Y-46301360D01*
X55310903Y-46287813D01*
X55193347Y-46213947D01*
X55038265Y-46159682D01*
X55038261Y-46159681D01*
X54916353Y-46145946D01*
X54851939Y-46118880D01*
X54812383Y-46061285D01*
X54807017Y-46008836D01*
X54808013Y-46000000D01*
X54804619Y-45969882D01*
X54789618Y-45836738D01*
X54789617Y-45836734D01*
X54785035Y-45823640D01*
X54735353Y-45681654D01*
X54732023Y-45676355D01*
X54671608Y-45580205D01*
X54647940Y-45542537D01*
X54551639Y-45446236D01*
X54518154Y-45384913D01*
X54523138Y-45315221D01*
X54565010Y-45259288D01*
X54630474Y-45234871D01*
X54680275Y-45241514D01*
X54819617Y-45290272D01*
X54819623Y-45290273D01*
X54819625Y-45290274D01*
X54819626Y-45290274D01*
X54819630Y-45290275D01*
X54999996Y-45310597D01*
X55000000Y-45310597D01*
X55000004Y-45310597D01*
X55180369Y-45290275D01*
X55180372Y-45290274D01*
X55180375Y-45290274D01*
X55351705Y-45230323D01*
X55505399Y-45133750D01*
X55633750Y-45005399D01*
X55730323Y-44851705D01*
X55790274Y-44680375D01*
X55790275Y-44680369D01*
X55810597Y-44500003D01*
X55810597Y-44499996D01*
X55790275Y-44319630D01*
X55790274Y-44319625D01*
X55778047Y-44284682D01*
X55730323Y-44148295D01*
X55724146Y-44138465D01*
X55633750Y-43994601D01*
X55505397Y-43866248D01*
X55465619Y-43841254D01*
X55419328Y-43788919D01*
X55408681Y-43719866D01*
X55414551Y-43695306D01*
X55445772Y-43606082D01*
X55445775Y-43606069D01*
X55466097Y-43425703D01*
X55466097Y-43425696D01*
X55445775Y-43245330D01*
X55445774Y-43245325D01*
X55388243Y-43080912D01*
X55385823Y-43073995D01*
X55357339Y-43028664D01*
X55289250Y-42920301D01*
X55160898Y-42791949D01*
X55007206Y-42695377D01*
X54835874Y-42635425D01*
X54835869Y-42635424D01*
X54655504Y-42615103D01*
X54655496Y-42615103D01*
X54475130Y-42635424D01*
X54475125Y-42635425D01*
X54303793Y-42695377D01*
X54150101Y-42791949D01*
X54021749Y-42920301D01*
X53925177Y-43073993D01*
X53865225Y-43245325D01*
X53865224Y-43245330D01*
X53844903Y-43425696D01*
X53844903Y-43425703D01*
X53865224Y-43606069D01*
X53865225Y-43606074D01*
X53925177Y-43777406D01*
X54015190Y-43920659D01*
X54021750Y-43931099D01*
X54150101Y-44059450D01*
X54169882Y-44071879D01*
X54189879Y-44084444D01*
X54236170Y-44136779D01*
X54246818Y-44205832D01*
X54240949Y-44230392D01*
X54209726Y-44319622D01*
X54209724Y-44319630D01*
X54189403Y-44499996D01*
X54189403Y-44500003D01*
X54209724Y-44680369D01*
X54209725Y-44680374D01*
X54269677Y-44851706D01*
X54366249Y-45005398D01*
X54480969Y-45120118D01*
X54514454Y-45181441D01*
X54509470Y-45251133D01*
X54467598Y-45307066D01*
X54402134Y-45331483D01*
X54352334Y-45324841D01*
X54296424Y-45305277D01*
X54247822Y-45288271D01*
X54191047Y-45247551D01*
X54171735Y-45212182D01*
X54161054Y-45181656D01*
X54161053Y-45181653D01*
X54087927Y-45065275D01*
X54073640Y-45042537D01*
X53957463Y-44926360D01*
X53878578Y-44876793D01*
X53818347Y-44838947D01*
X53663265Y-44784682D01*
X53663261Y-44784681D01*
X53500004Y-44766287D01*
X53499996Y-44766287D01*
X53377245Y-44780117D01*
X53308423Y-44768062D01*
X53275681Y-44744578D01*
X53207463Y-44676360D01*
X53068347Y-44588947D01*
X52913265Y-44534682D01*
X52913261Y-44534681D01*
X52750004Y-44516287D01*
X52749996Y-44516287D01*
X52627245Y-44530117D01*
X52558423Y-44518062D01*
X52525681Y-44494578D01*
X52457463Y-44426360D01*
X52318347Y-44338947D01*
X52163265Y-44284682D01*
X52163261Y-44284681D01*
X52000004Y-44266287D01*
X51999996Y-44266287D01*
X51836738Y-44284681D01*
X51836734Y-44284682D01*
X51681652Y-44338947D01*
X51542536Y-44426360D01*
X51426360Y-44542536D01*
X51338947Y-44681652D01*
X51284682Y-44836734D01*
X51284681Y-44836738D01*
X51266287Y-44999996D01*
X50733713Y-44999996D01*
X50715318Y-44836738D01*
X50715317Y-44836734D01*
X50699003Y-44790112D01*
X50661053Y-44681654D01*
X50660249Y-44680375D01*
X50612025Y-44603626D01*
X50573640Y-44542537D01*
X50457463Y-44426360D01*
X50444004Y-44417903D01*
X50318347Y-44338947D01*
X50163265Y-44284682D01*
X50163261Y-44284681D01*
X50000004Y-44266287D01*
X49999996Y-44266287D01*
X49836738Y-44284681D01*
X49836734Y-44284682D01*
X49681652Y-44338947D01*
X49542536Y-44426360D01*
X49426360Y-44542536D01*
X49338947Y-44681652D01*
X49284682Y-44836734D01*
X49284681Y-44836738D01*
X49266287Y-44999996D01*
X49266287Y-45000003D01*
X49284681Y-45163261D01*
X49284682Y-45163265D01*
X49338947Y-45318347D01*
X49421118Y-45449120D01*
X49440118Y-45516356D01*
X49419750Y-45583192D01*
X49382096Y-45620085D01*
X49292542Y-45676355D01*
X49292536Y-45676360D01*
X49176360Y-45792536D01*
X49088947Y-45931652D01*
X49034682Y-46086734D01*
X49034681Y-46086738D01*
X49016287Y-46249996D01*
X49016287Y-46250003D01*
X49030117Y-46372752D01*
X49018062Y-46441574D01*
X48994579Y-46474315D01*
X48926363Y-46542532D01*
X48926362Y-46542533D01*
X48838947Y-46681652D01*
X48784682Y-46836734D01*
X48784681Y-46836738D01*
X48766287Y-46999996D01*
X38543406Y-46999996D01*
X38576705Y-46988344D01*
X38730399Y-46891771D01*
X38858750Y-46763420D01*
X38955323Y-46609726D01*
X39015274Y-46438396D01*
X39016357Y-46428784D01*
X39035597Y-46258024D01*
X39035597Y-46258017D01*
X39015275Y-46077651D01*
X39015274Y-46077646D01*
X38982405Y-45983713D01*
X38955323Y-45906316D01*
X38912832Y-45838693D01*
X38858750Y-45752622D01*
X38730398Y-45624270D01*
X38576706Y-45527698D01*
X38405374Y-45467746D01*
X38405369Y-45467745D01*
X38225004Y-45447424D01*
X38224996Y-45447424D01*
X38044630Y-45467745D01*
X38044625Y-45467746D01*
X37873293Y-45527698D01*
X37719601Y-45624270D01*
X37591249Y-45752622D01*
X37494677Y-45906314D01*
X37434725Y-46077646D01*
X37434724Y-46077651D01*
X37414403Y-46258017D01*
X30043576Y-46258017D01*
X30098013Y-46176547D01*
X30165894Y-46012666D01*
X30166657Y-46008834D01*
X30200499Y-45838695D01*
X30200500Y-45838693D01*
X30200500Y-45661306D01*
X30200499Y-45661304D01*
X30165896Y-45487341D01*
X30165893Y-45487332D01*
X30098015Y-45323457D01*
X30098011Y-45323450D01*
X30059733Y-45266162D01*
X30047939Y-45228496D01*
X46779903Y-45228496D01*
X46779903Y-45228503D01*
X46800224Y-45408869D01*
X46800225Y-45408874D01*
X46860177Y-45580206D01*
X46956589Y-45733643D01*
X46956750Y-45733899D01*
X47085101Y-45862250D01*
X47238795Y-45958823D01*
X47392669Y-46012666D01*
X47410125Y-46018774D01*
X47410130Y-46018775D01*
X47590496Y-46039097D01*
X47590500Y-46039097D01*
X47590504Y-46039097D01*
X47770869Y-46018775D01*
X47770872Y-46018774D01*
X47770875Y-46018774D01*
X47942205Y-45958823D01*
X48095899Y-45862250D01*
X48224250Y-45733899D01*
X48320823Y-45580205D01*
X48380774Y-45408875D01*
X48389494Y-45331483D01*
X48401097Y-45228503D01*
X48401097Y-45228496D01*
X48380775Y-45048130D01*
X48380774Y-45048125D01*
X48378818Y-45042536D01*
X48320823Y-44876795D01*
X48305058Y-44851706D01*
X48224250Y-44723101D01*
X48095898Y-44594749D01*
X47942206Y-44498177D01*
X47770874Y-44438225D01*
X47770869Y-44438224D01*
X47590504Y-44417903D01*
X47590496Y-44417903D01*
X47410130Y-44438224D01*
X47410125Y-44438225D01*
X47238793Y-44498177D01*
X47085101Y-44594749D01*
X46956749Y-44723101D01*
X46860177Y-44876793D01*
X46800225Y-45048125D01*
X46800224Y-45048130D01*
X46779903Y-45228496D01*
X30047939Y-45228496D01*
X30038855Y-45199485D01*
X30056717Y-45133125D01*
X30143478Y-44989606D01*
X30194086Y-44827196D01*
X30200500Y-44756616D01*
X30200500Y-44243384D01*
X30194086Y-44172804D01*
X30143478Y-44010394D01*
X30055472Y-43864815D01*
X30055470Y-43864813D01*
X30055469Y-43864811D01*
X29935188Y-43744530D01*
X29926098Y-43739035D01*
X29789606Y-43656522D01*
X29627196Y-43605914D01*
X29627194Y-43605913D01*
X29627192Y-43605913D01*
X29577778Y-43601423D01*
X29556616Y-43599500D01*
X28543384Y-43599500D01*
X28524145Y-43601248D01*
X28472807Y-43605913D01*
X28310393Y-43656522D01*
X28164811Y-43744530D01*
X28044530Y-43864811D01*
X27956522Y-44010393D01*
X27905913Y-44172807D01*
X27899500Y-44243386D01*
X27000000Y-44243386D01*
X27000000Y-40500000D01*
X27932096Y-40500000D01*
X27934584Y-40512516D01*
X27934587Y-40512523D01*
X28002428Y-40676306D01*
X28002433Y-40676316D01*
X28100923Y-40823716D01*
X28100926Y-40823720D01*
X28226279Y-40949073D01*
X28226283Y-40949076D01*
X28373683Y-41047566D01*
X28373692Y-41047571D01*
X28537479Y-41115413D01*
X28537487Y-41115415D01*
X28711353Y-41149999D01*
X28711357Y-41150000D01*
X28800000Y-41150000D01*
X29300000Y-41150000D01*
X29388643Y-41150000D01*
X29388646Y-41149999D01*
X29562512Y-41115415D01*
X29562520Y-41115413D01*
X29726307Y-41047571D01*
X29726316Y-41047566D01*
X29873716Y-40949076D01*
X29873720Y-40949073D01*
X29999073Y-40823720D01*
X29999076Y-40823716D01*
X30097566Y-40676316D01*
X30097571Y-40676306D01*
X30165412Y-40512523D01*
X30165415Y-40512516D01*
X30167904Y-40500000D01*
X29300000Y-40500000D01*
X29300000Y-41150000D01*
X28800000Y-41150000D01*
X28800000Y-40500000D01*
X27932096Y-40500000D01*
X27000000Y-40500000D01*
X27000000Y-37493386D01*
X27899500Y-37493386D01*
X27899500Y-38006613D01*
X27905913Y-38077192D01*
X27905913Y-38077194D01*
X27905914Y-38077196D01*
X27948953Y-38215317D01*
X27956522Y-38239606D01*
X28043281Y-38383122D01*
X28061117Y-38450677D01*
X28040267Y-38516162D01*
X28001989Y-38573449D01*
X28001983Y-38573460D01*
X27934106Y-38737332D01*
X27934103Y-38737341D01*
X27899500Y-38911304D01*
X27899500Y-39088695D01*
X27934103Y-39262658D01*
X27934106Y-39262667D01*
X28001983Y-39426540D01*
X28001990Y-39426552D01*
X28088858Y-39556558D01*
X28109736Y-39623235D01*
X28091252Y-39690615D01*
X28088858Y-39694340D01*
X28002433Y-39823683D01*
X28002428Y-39823693D01*
X27934587Y-39987476D01*
X27934584Y-39987483D01*
X27932096Y-40000000D01*
X29000272Y-40000000D01*
X28908386Y-40038060D01*
X28838060Y-40108386D01*
X28800000Y-40200272D01*
X28800000Y-40299728D01*
X28838060Y-40391614D01*
X28908386Y-40461940D01*
X29000272Y-40500000D01*
X29099728Y-40500000D01*
X29191614Y-40461940D01*
X29261940Y-40391614D01*
X29300000Y-40299728D01*
X29300000Y-40200272D01*
X29261940Y-40108386D01*
X29191614Y-40038060D01*
X29099728Y-40000000D01*
X30167904Y-40000000D01*
X30165415Y-39987483D01*
X30165412Y-39987476D01*
X30097571Y-39823693D01*
X30097566Y-39823683D01*
X30011141Y-39694340D01*
X29990263Y-39627663D01*
X30008747Y-39560283D01*
X30011129Y-39556576D01*
X30062743Y-39479330D01*
X30098008Y-39426555D01*
X30098009Y-39426552D01*
X30098013Y-39426547D01*
X30165894Y-39262666D01*
X30179683Y-39193347D01*
X30192854Y-39127128D01*
X30200500Y-39088691D01*
X30200500Y-38999996D01*
X31266287Y-38999996D01*
X31266287Y-39000003D01*
X31284681Y-39163261D01*
X31284682Y-39163265D01*
X31338947Y-39318347D01*
X31411634Y-39434028D01*
X31430634Y-39501265D01*
X31411634Y-39565972D01*
X31338947Y-39681652D01*
X31284682Y-39836734D01*
X31284681Y-39836738D01*
X31266287Y-39999996D01*
X31266287Y-40000000D01*
X31284681Y-40163261D01*
X31284682Y-40163265D01*
X31338947Y-40318347D01*
X31384984Y-40391614D01*
X31426360Y-40457463D01*
X31542537Y-40573640D01*
X31681654Y-40661053D01*
X31836733Y-40715317D01*
X31836734Y-40715317D01*
X31836738Y-40715318D01*
X31999996Y-40733713D01*
X32000000Y-40733713D01*
X32000004Y-40733713D01*
X32163261Y-40715318D01*
X32163263Y-40715317D01*
X32163267Y-40715317D01*
X32318346Y-40661053D01*
X32457463Y-40573640D01*
X32560402Y-40470700D01*
X32621721Y-40437218D01*
X32691413Y-40442202D01*
X32747347Y-40484073D01*
X32771300Y-40544500D01*
X32784681Y-40663262D01*
X32784682Y-40663265D01*
X32838947Y-40818347D01*
X32926360Y-40957463D01*
X33029296Y-41060399D01*
X33062781Y-41121722D01*
X33057797Y-41191414D01*
X33015925Y-41247347D01*
X32955499Y-41271300D01*
X32836737Y-41284681D01*
X32836734Y-41284682D01*
X32681652Y-41338947D01*
X32542536Y-41426360D01*
X32426360Y-41542536D01*
X32338947Y-41681652D01*
X32284682Y-41836734D01*
X32284681Y-41836738D01*
X32266287Y-41999996D01*
X32266287Y-42000003D01*
X32284681Y-42163261D01*
X32284682Y-42163265D01*
X32338947Y-42318347D01*
X32352005Y-42339128D01*
X32426360Y-42457463D01*
X32542537Y-42573640D01*
X32681654Y-42661053D01*
X32836733Y-42715317D01*
X32836734Y-42715317D01*
X32836738Y-42715318D01*
X32999996Y-42733713D01*
X33000000Y-42733713D01*
X33000004Y-42733713D01*
X33163261Y-42715318D01*
X33163263Y-42715317D01*
X33163267Y-42715317D01*
X33318346Y-42661053D01*
X33434028Y-42588364D01*
X33501264Y-42569365D01*
X33565971Y-42588364D01*
X33681654Y-42661053D01*
X33836733Y-42715317D01*
X33836734Y-42715317D01*
X33836738Y-42715318D01*
X33999996Y-42733713D01*
X34000000Y-42733713D01*
X34000004Y-42733713D01*
X34163261Y-42715318D01*
X34163263Y-42715317D01*
X34163267Y-42715317D01*
X34318346Y-42661053D01*
X34457463Y-42573640D01*
X34573640Y-42457463D01*
X34661053Y-42318346D01*
X34671380Y-42288830D01*
X34712100Y-42232055D01*
X34777051Y-42206306D01*
X34829377Y-42212743D01*
X34836736Y-42215318D01*
X34999996Y-42233713D01*
X35000000Y-42233713D01*
X35000004Y-42233713D01*
X35163261Y-42215318D01*
X35163263Y-42215317D01*
X35163267Y-42215317D01*
X35318346Y-42161053D01*
X35457463Y-42073640D01*
X35573640Y-41957463D01*
X35661053Y-41818346D01*
X35715317Y-41663267D01*
X35715318Y-41663261D01*
X35733713Y-41500003D01*
X35733713Y-41499996D01*
X35715318Y-41336738D01*
X35715317Y-41336734D01*
X35709040Y-41318796D01*
X35661053Y-41181654D01*
X35641163Y-41150000D01*
X35573639Y-41042536D01*
X35457463Y-40926360D01*
X35318347Y-40838947D01*
X35163265Y-40784682D01*
X35163261Y-40784681D01*
X35000004Y-40766287D01*
X34999996Y-40766287D01*
X34836738Y-40784681D01*
X34836734Y-40784682D01*
X34681652Y-40838947D01*
X34542536Y-40926360D01*
X34426360Y-41042536D01*
X34338948Y-41181651D01*
X34328618Y-41211172D01*
X34287895Y-41267947D01*
X34222941Y-41293693D01*
X34170622Y-41287256D01*
X34163270Y-41284683D01*
X34163262Y-41284681D01*
X34044500Y-41271300D01*
X33980086Y-41244233D01*
X33940531Y-41186638D01*
X33938394Y-41116801D01*
X33970700Y-41060402D01*
X34073640Y-40957463D01*
X34161053Y-40818346D01*
X34215317Y-40663267D01*
X34215567Y-40661053D01*
X34233713Y-40500000D01*
X34233713Y-40499996D01*
X34215318Y-40336738D01*
X34215317Y-40336734D01*
X34214524Y-40334469D01*
X34161053Y-40181654D01*
X34149498Y-40163265D01*
X34115016Y-40108386D01*
X34073640Y-40042537D01*
X33957463Y-39926360D01*
X33916307Y-39900500D01*
X33818347Y-39838947D01*
X33663265Y-39784682D01*
X33663261Y-39784681D01*
X33500004Y-39766287D01*
X33499996Y-39766287D01*
X33336738Y-39784681D01*
X33336734Y-39784682D01*
X33181652Y-39838947D01*
X33042538Y-39926359D01*
X32939600Y-40029297D01*
X32878277Y-40062781D01*
X32808585Y-40057797D01*
X32752652Y-40015925D01*
X32728699Y-39955498D01*
X32715318Y-39836738D01*
X32715317Y-39836734D01*
X32710750Y-39823683D01*
X32661053Y-39681654D01*
X32621778Y-39619148D01*
X35731979Y-39619148D01*
X35731979Y-39619155D01*
X35750373Y-39782413D01*
X35750374Y-39782417D01*
X35804639Y-39937499D01*
X35890182Y-40073639D01*
X35892052Y-40076615D01*
X36008229Y-40192792D01*
X36147346Y-40280205D01*
X36302425Y-40334469D01*
X36302426Y-40334469D01*
X36302430Y-40334470D01*
X36465688Y-40352865D01*
X36465692Y-40352865D01*
X36465696Y-40352865D01*
X36628953Y-40334470D01*
X36628955Y-40334469D01*
X36628959Y-40334469D01*
X36784038Y-40280205D01*
X36923155Y-40192792D01*
X37039332Y-40076615D01*
X37126745Y-39937498D01*
X37144384Y-39887085D01*
X37185105Y-39830311D01*
X37250058Y-39804563D01*
X37318620Y-39818019D01*
X37366419Y-39862068D01*
X37426360Y-39957463D01*
X37542537Y-40073640D01*
X37681654Y-40161053D01*
X37836733Y-40215317D01*
X37836734Y-40215317D01*
X37836738Y-40215318D01*
X37924383Y-40225193D01*
X37988797Y-40252259D01*
X38028352Y-40309854D01*
X38034500Y-40348413D01*
X38034500Y-40800042D01*
X38014815Y-40867081D01*
X37976474Y-40905035D01*
X37942537Y-40926359D01*
X37826360Y-41042536D01*
X37738947Y-41181652D01*
X37684682Y-41336734D01*
X37684681Y-41336738D01*
X37666287Y-41499996D01*
X37666287Y-41500003D01*
X37684681Y-41663261D01*
X37684682Y-41663265D01*
X37738947Y-41818347D01*
X37826360Y-41957463D01*
X37942537Y-42073640D01*
X37986617Y-42101337D01*
X38058418Y-42146453D01*
X38104709Y-42198788D01*
X38115357Y-42267842D01*
X38086982Y-42331690D01*
X38080127Y-42339128D01*
X37916385Y-42502870D01*
X37878858Y-42526454D01*
X37879572Y-42527936D01*
X37873294Y-42530959D01*
X37719601Y-42627531D01*
X37591249Y-42755883D01*
X37494677Y-42909575D01*
X37434725Y-43080907D01*
X37434724Y-43080912D01*
X37414403Y-43261278D01*
X37414403Y-43261285D01*
X37434724Y-43441651D01*
X37434725Y-43441656D01*
X37494677Y-43612988D01*
X37591249Y-43766680D01*
X37719601Y-43895032D01*
X37865628Y-43986788D01*
X37873295Y-43991605D01*
X37926991Y-44010394D01*
X38044625Y-44051556D01*
X38044630Y-44051557D01*
X38224996Y-44071879D01*
X38225000Y-44071879D01*
X38225004Y-44071879D01*
X38405369Y-44051557D01*
X38405372Y-44051556D01*
X38405375Y-44051556D01*
X38576705Y-43991605D01*
X38730399Y-43895032D01*
X38858750Y-43766681D01*
X38955323Y-43612987D01*
X38955324Y-43612981D01*
X38955326Y-43612980D01*
X38958347Y-43606709D01*
X38959836Y-43607426D01*
X38983410Y-43569895D01*
X39591963Y-42961342D01*
X39591966Y-42961341D01*
X39697059Y-42856248D01*
X39779629Y-42732672D01*
X39836505Y-42595362D01*
X39865500Y-42449594D01*
X39865500Y-41285940D01*
X39865501Y-41285919D01*
X39865501Y-41131179D01*
X39841315Y-41009599D01*
X39841314Y-41009593D01*
X39836506Y-40985418D01*
X39836505Y-40985416D01*
X39836505Y-40985414D01*
X39804840Y-40908968D01*
X39779630Y-40848105D01*
X39703196Y-40733713D01*
X39703193Y-40733708D01*
X39697063Y-40724532D01*
X39587640Y-40615109D01*
X39587630Y-40615100D01*
X39579812Y-40607282D01*
X39546332Y-40545957D01*
X39543500Y-40519607D01*
X39543500Y-37339624D01*
X39563185Y-37272585D01*
X39615989Y-37226830D01*
X39653621Y-37216403D01*
X39663267Y-37215317D01*
X39818346Y-37161053D01*
X39957463Y-37073640D01*
X40073640Y-36957463D01*
X40161053Y-36818346D01*
X40215317Y-36663267D01*
X40215318Y-36663261D01*
X40233713Y-36500003D01*
X40233713Y-36499996D01*
X40215318Y-36336738D01*
X40215317Y-36336734D01*
X40214369Y-36334026D01*
X40161053Y-36181654D01*
X40152683Y-36168334D01*
X40088365Y-36065972D01*
X40069365Y-35998736D01*
X40088365Y-35934028D01*
X40161053Y-35818346D01*
X40215317Y-35663267D01*
X40221761Y-35606075D01*
X40233713Y-35500003D01*
X40233713Y-35499996D01*
X40215318Y-35336738D01*
X40215317Y-35336734D01*
X40209692Y-35320659D01*
X40161053Y-35181654D01*
X40073640Y-35042537D01*
X39957463Y-34926360D01*
X39818346Y-34838947D01*
X39740806Y-34811815D01*
X39663265Y-34784682D01*
X39653610Y-34783594D01*
X39589197Y-34756523D01*
X39549645Y-34698926D01*
X39543500Y-34660374D01*
X39543500Y-34203818D01*
X39563185Y-34136779D01*
X39615989Y-34091024D01*
X39685147Y-34081080D01*
X39748703Y-34110105D01*
X39784542Y-34162864D01*
X39838947Y-34318347D01*
X39889735Y-34399175D01*
X39926360Y-34457463D01*
X40042537Y-34573640D01*
X40108525Y-34615103D01*
X40152658Y-34642834D01*
X40181654Y-34661053D01*
X40336733Y-34715317D01*
X40336734Y-34715317D01*
X40336738Y-34715318D01*
X40499996Y-34733713D01*
X40500000Y-34733713D01*
X40500004Y-34733713D01*
X40663261Y-34715318D01*
X40663263Y-34715317D01*
X40663267Y-34715317D01*
X40818346Y-34661053D01*
X40957463Y-34573640D01*
X41073640Y-34457463D01*
X41161053Y-34318346D01*
X41215317Y-34163267D01*
X41215318Y-34163261D01*
X41233713Y-34000003D01*
X41233713Y-33999996D01*
X41215318Y-33836738D01*
X41215317Y-33836734D01*
X41172161Y-33713401D01*
X41161053Y-33681654D01*
X41073640Y-33542537D01*
X40957463Y-33426360D01*
X40818347Y-33338947D01*
X40663265Y-33284682D01*
X40663261Y-33284681D01*
X40500004Y-33266287D01*
X40499996Y-33266287D01*
X40336738Y-33284681D01*
X40336734Y-33284682D01*
X40181652Y-33338947D01*
X40042536Y-33426360D01*
X39926360Y-33542536D01*
X39838948Y-33681651D01*
X39784542Y-33837136D01*
X39743820Y-33893912D01*
X39678867Y-33919659D01*
X39610306Y-33906203D01*
X39559903Y-33857816D01*
X39543500Y-33796181D01*
X39543500Y-31647011D01*
X39563185Y-31579972D01*
X39579819Y-31559330D01*
X39603097Y-31536052D01*
X39633750Y-31505399D01*
X39730323Y-31351705D01*
X39790274Y-31180375D01*
X39792202Y-31163265D01*
X39810597Y-31000003D01*
X39810597Y-30999996D01*
X39790275Y-30819630D01*
X39790274Y-30819625D01*
X39753775Y-30715317D01*
X39730323Y-30648295D01*
X39672739Y-30556652D01*
X39633750Y-30494601D01*
X39505398Y-30366249D01*
X39351706Y-30269677D01*
X39180374Y-30209725D01*
X39180369Y-30209724D01*
X39000004Y-30189403D01*
X38999996Y-30189403D01*
X38819630Y-30209724D01*
X38819625Y-30209725D01*
X38648293Y-30269677D01*
X38494601Y-30366249D01*
X38366249Y-30494601D01*
X38269677Y-30648294D01*
X38266654Y-30654572D01*
X38265170Y-30653857D01*
X38241589Y-30691385D01*
X38202940Y-30730034D01*
X38120373Y-30853605D01*
X38120371Y-30853609D01*
X38120370Y-30853611D01*
X38110475Y-30877500D01*
X38066483Y-30983708D01*
X38066479Y-30983718D01*
X38063495Y-30990918D01*
X38063492Y-30990928D01*
X38034499Y-31136685D01*
X38034499Y-31291425D01*
X38034500Y-31291446D01*
X38034500Y-38651586D01*
X38014815Y-38718625D01*
X37962011Y-38764380D01*
X37924384Y-38774806D01*
X37836737Y-38784681D01*
X37836734Y-38784682D01*
X37681652Y-38838947D01*
X37542536Y-38926360D01*
X37426360Y-39042536D01*
X37338946Y-39181653D01*
X37338946Y-39181655D01*
X37321306Y-39232066D01*
X37280584Y-39288842D01*
X37215631Y-39314588D01*
X37147069Y-39301131D01*
X37099271Y-39257082D01*
X37083552Y-39232066D01*
X37039332Y-39161689D01*
X36923155Y-39045512D01*
X36911625Y-39038267D01*
X36784039Y-38958099D01*
X36628957Y-38903834D01*
X36628953Y-38903833D01*
X36465696Y-38885439D01*
X36465688Y-38885439D01*
X36302430Y-38903833D01*
X36302426Y-38903834D01*
X36147344Y-38958099D01*
X36008228Y-39045512D01*
X35892052Y-39161688D01*
X35804639Y-39300804D01*
X35750374Y-39455886D01*
X35750373Y-39455890D01*
X35731979Y-39619148D01*
X32621778Y-39619148D01*
X32588364Y-39565971D01*
X32569365Y-39498736D01*
X32588365Y-39434028D01*
X32593061Y-39426555D01*
X32661053Y-39318346D01*
X32715317Y-39163267D01*
X32715317Y-39163260D01*
X32716478Y-39158179D01*
X32750585Y-39097200D01*
X32796418Y-39068727D01*
X32805926Y-39065399D01*
X32818346Y-39061054D01*
X32957463Y-38973641D01*
X33073640Y-38857464D01*
X33161053Y-38718347D01*
X33215317Y-38563268D01*
X33215318Y-38563262D01*
X33233713Y-38400004D01*
X33233713Y-38399997D01*
X33215318Y-38236739D01*
X33215317Y-38236735D01*
X33209484Y-38220063D01*
X33161053Y-38081655D01*
X33152175Y-38067526D01*
X33133176Y-38000292D01*
X33152176Y-37935585D01*
X33163009Y-37918346D01*
X33217273Y-37763267D01*
X33220611Y-37733643D01*
X33235669Y-37600003D01*
X33235669Y-37599996D01*
X33217274Y-37436738D01*
X33217273Y-37436734D01*
X33215463Y-37431562D01*
X33163009Y-37281654D01*
X33163008Y-37281652D01*
X33163008Y-37281651D01*
X33152178Y-37264416D01*
X33133177Y-37197179D01*
X33152178Y-37132470D01*
X33161052Y-37118347D01*
X33161052Y-37118346D01*
X33161053Y-37118345D01*
X33215317Y-36963266D01*
X33215971Y-36957463D01*
X33233713Y-36800002D01*
X33233713Y-36799995D01*
X33215318Y-36636737D01*
X33215317Y-36636733D01*
X33197823Y-36586738D01*
X33161053Y-36481653D01*
X33151199Y-36465970D01*
X33132199Y-36398733D01*
X33151199Y-36334026D01*
X33161053Y-36318346D01*
X33215317Y-36163267D01*
X33217004Y-36148295D01*
X33233713Y-36000003D01*
X33233713Y-35999996D01*
X33215318Y-35836738D01*
X33215317Y-35836734D01*
X33208883Y-35818347D01*
X33161053Y-35681654D01*
X33149498Y-35663265D01*
X33125343Y-35624821D01*
X33073640Y-35542537D01*
X33031099Y-35499996D01*
X33766287Y-35499996D01*
X33766287Y-35500003D01*
X33784681Y-35663261D01*
X33784682Y-35663265D01*
X33838947Y-35818347D01*
X33926360Y-35957463D01*
X34006216Y-36037319D01*
X34039701Y-36098642D01*
X34034717Y-36168334D01*
X34006216Y-36212681D01*
X33926360Y-36292536D01*
X33838947Y-36431652D01*
X33784682Y-36586734D01*
X33784681Y-36586738D01*
X33766287Y-36749996D01*
X33766287Y-36750003D01*
X33784681Y-36913261D01*
X33784682Y-36913265D01*
X33838947Y-37068347D01*
X33926360Y-37207463D01*
X34019444Y-37300547D01*
X34052929Y-37361870D01*
X34047945Y-37431562D01*
X34036757Y-37454200D01*
X33986640Y-37533959D01*
X33932375Y-37689041D01*
X33932374Y-37689045D01*
X33913980Y-37852303D01*
X33913980Y-37852310D01*
X33932374Y-38015568D01*
X33932375Y-38015572D01*
X33986640Y-38170654D01*
X34068769Y-38301360D01*
X34074053Y-38309770D01*
X34190230Y-38425947D01*
X34329347Y-38513360D01*
X34484426Y-38567624D01*
X34484427Y-38567624D01*
X34484431Y-38567625D01*
X34647689Y-38586020D01*
X34647693Y-38586020D01*
X34647697Y-38586020D01*
X34810954Y-38567625D01*
X34810956Y-38567624D01*
X34810960Y-38567624D01*
X34966039Y-38513360D01*
X35105156Y-38425947D01*
X35221333Y-38309770D01*
X35308746Y-38170653D01*
X35363010Y-38015574D01*
X35363011Y-38015568D01*
X35381406Y-37852310D01*
X35381406Y-37852303D01*
X35363011Y-37689045D01*
X35363010Y-37689041D01*
X35360425Y-37681654D01*
X35308746Y-37533961D01*
X35221333Y-37394844D01*
X35128249Y-37301760D01*
X35094764Y-37240437D01*
X35099748Y-37170745D01*
X35110936Y-37148107D01*
X35131857Y-37114811D01*
X35161053Y-37068346D01*
X35215317Y-36913267D01*
X35220925Y-36863495D01*
X35233713Y-36750003D01*
X35233713Y-36749996D01*
X35215318Y-36586738D01*
X35215317Y-36586734D01*
X35199003Y-36540112D01*
X35161053Y-36431654D01*
X35073640Y-36292537D01*
X34993784Y-36212681D01*
X34960299Y-36151358D01*
X34965283Y-36081666D01*
X34993784Y-36037319D01*
X35032367Y-35998736D01*
X35073640Y-35957463D01*
X35161053Y-35818346D01*
X35215317Y-35663267D01*
X35221761Y-35606075D01*
X35233713Y-35500003D01*
X35233713Y-35499996D01*
X35215318Y-35336738D01*
X35215317Y-35336734D01*
X35209692Y-35320659D01*
X35161053Y-35181654D01*
X35073640Y-35042537D01*
X34957463Y-34926360D01*
X34947820Y-34920301D01*
X34818347Y-34838947D01*
X34663265Y-34784682D01*
X34663261Y-34784681D01*
X34500004Y-34766287D01*
X34499996Y-34766287D01*
X34336738Y-34784681D01*
X34336734Y-34784682D01*
X34181652Y-34838947D01*
X34042536Y-34926360D01*
X33926360Y-35042536D01*
X33838947Y-35181652D01*
X33784682Y-35336734D01*
X33784681Y-35336738D01*
X33766287Y-35499996D01*
X33031099Y-35499996D01*
X32957463Y-35426360D01*
X32956406Y-35425696D01*
X32818347Y-35338947D01*
X32663265Y-35284682D01*
X32663262Y-35284681D01*
X32564228Y-35273523D01*
X32515909Y-35253219D01*
X32486973Y-35267520D01*
X32479462Y-35268600D01*
X32336737Y-35284681D01*
X32336734Y-35284682D01*
X32181652Y-35338947D01*
X32042536Y-35426360D01*
X31926360Y-35542536D01*
X31838947Y-35681652D01*
X31784682Y-35836734D01*
X31784681Y-35836738D01*
X31766287Y-35999996D01*
X31766287Y-36000003D01*
X31784681Y-36163261D01*
X31784682Y-36163265D01*
X31838947Y-36318347D01*
X31838947Y-36318348D01*
X31848799Y-36334026D01*
X31867800Y-36401263D01*
X31848802Y-36465968D01*
X31838946Y-36481653D01*
X31784682Y-36636733D01*
X31784681Y-36636737D01*
X31766287Y-36799995D01*
X31766287Y-36800002D01*
X31784681Y-36963260D01*
X31784682Y-36963264D01*
X31838947Y-37118346D01*
X31849779Y-37135585D01*
X31868779Y-37202822D01*
X31849781Y-37267523D01*
X31840903Y-37281654D01*
X31840903Y-37281655D01*
X31840901Y-37281658D01*
X31786638Y-37436734D01*
X31786637Y-37436738D01*
X31768243Y-37599996D01*
X31768243Y-37600003D01*
X31786637Y-37763261D01*
X31786638Y-37763265D01*
X31840903Y-37918347D01*
X31849779Y-37932473D01*
X31868779Y-37999710D01*
X31849779Y-38064415D01*
X31838947Y-38081653D01*
X31784681Y-38236740D01*
X31783517Y-38241839D01*
X31749401Y-38302813D01*
X31703585Y-38331273D01*
X31681652Y-38338947D01*
X31681651Y-38338948D01*
X31542536Y-38426360D01*
X31426360Y-38542536D01*
X31338947Y-38681652D01*
X31284682Y-38836734D01*
X31284681Y-38836738D01*
X31266287Y-38999996D01*
X30200500Y-38999996D01*
X30200500Y-38911309D01*
X30200500Y-38911306D01*
X30200499Y-38911304D01*
X30165896Y-38737341D01*
X30165893Y-38737332D01*
X30158144Y-38718625D01*
X30130376Y-38651586D01*
X30098015Y-38573457D01*
X30098011Y-38573450D01*
X30059733Y-38516162D01*
X30038855Y-38449485D01*
X30056717Y-38383125D01*
X30143478Y-38239606D01*
X30194086Y-38077196D01*
X30200500Y-38006616D01*
X30200500Y-37493384D01*
X30194086Y-37422804D01*
X30143478Y-37260394D01*
X30055472Y-37114815D01*
X30055470Y-37114813D01*
X30055469Y-37114811D01*
X29935188Y-36994530D01*
X29883471Y-36963266D01*
X29789606Y-36906522D01*
X29627196Y-36855914D01*
X29627194Y-36855913D01*
X29627192Y-36855913D01*
X29577778Y-36851423D01*
X29556616Y-36849500D01*
X28543384Y-36849500D01*
X28524145Y-36851248D01*
X28472807Y-36855913D01*
X28310393Y-36906522D01*
X28164811Y-36994530D01*
X28044530Y-37114811D01*
X27956522Y-37260393D01*
X27905913Y-37422807D01*
X27899500Y-37493386D01*
X27000000Y-37493386D01*
X27000000Y-34218796D01*
X31733095Y-34218796D01*
X31733095Y-34218803D01*
X31753416Y-34399169D01*
X31753417Y-34399174D01*
X31813369Y-34570506D01*
X31909941Y-34724198D01*
X31909942Y-34724199D01*
X32038293Y-34852550D01*
X32191987Y-34949123D01*
X32347373Y-35003495D01*
X32363317Y-35009074D01*
X32363321Y-35009075D01*
X32479461Y-35022160D01*
X32527780Y-35042463D01*
X32556718Y-35028162D01*
X32564226Y-35027083D01*
X32595649Y-35023542D01*
X32724061Y-35009075D01*
X32724064Y-35009074D01*
X32724067Y-35009074D01*
X32895397Y-34949123D01*
X33049091Y-34852550D01*
X33177442Y-34724199D01*
X33274015Y-34570505D01*
X33333966Y-34399175D01*
X33354289Y-34218800D01*
X33352217Y-34200413D01*
X33333967Y-34038430D01*
X33333966Y-34038425D01*
X33274015Y-33867095D01*
X33255190Y-33837136D01*
X33177442Y-33713401D01*
X33049090Y-33585049D01*
X32895398Y-33488477D01*
X32724066Y-33428525D01*
X32724061Y-33428524D01*
X32543696Y-33408203D01*
X32543688Y-33408203D01*
X32363322Y-33428524D01*
X32363317Y-33428525D01*
X32191985Y-33488477D01*
X32038293Y-33585049D01*
X31909941Y-33713401D01*
X31813369Y-33867093D01*
X31753417Y-34038425D01*
X31753416Y-34038430D01*
X31733095Y-34218796D01*
X27000000Y-34218796D01*
X27000000Y-32499996D01*
X32766287Y-32499996D01*
X32766287Y-32500003D01*
X32784681Y-32663261D01*
X32784682Y-32663265D01*
X32838947Y-32818347D01*
X32906908Y-32926505D01*
X32926360Y-32957463D01*
X33042537Y-33073640D01*
X33181654Y-33161053D01*
X33336733Y-33215317D01*
X33336734Y-33215317D01*
X33336738Y-33215318D01*
X33499996Y-33233713D01*
X33500000Y-33233713D01*
X33500004Y-33233713D01*
X33663261Y-33215318D01*
X33663263Y-33215317D01*
X33663267Y-33215317D01*
X33818346Y-33161053D01*
X33957463Y-33073640D01*
X34073640Y-32957463D01*
X34161053Y-32818346D01*
X34215317Y-32663267D01*
X34215318Y-32663261D01*
X34233713Y-32500003D01*
X34233713Y-32499996D01*
X34215318Y-32336738D01*
X34215317Y-32336734D01*
X34161052Y-32181652D01*
X34073639Y-32042536D01*
X33957463Y-31926360D01*
X33818347Y-31838947D01*
X33663265Y-31784682D01*
X33663261Y-31784681D01*
X33500004Y-31766287D01*
X33499996Y-31766287D01*
X33336738Y-31784681D01*
X33336734Y-31784682D01*
X33181652Y-31838947D01*
X33042536Y-31926360D01*
X32926360Y-32042536D01*
X32838947Y-32181652D01*
X32784682Y-32336734D01*
X32784681Y-32336738D01*
X32766287Y-32499996D01*
X27000000Y-32499996D01*
X27000000Y-28999996D01*
X41965803Y-28999996D01*
X41965803Y-29000003D01*
X41986124Y-29180369D01*
X41986125Y-29180374D01*
X42046077Y-29351706D01*
X42142649Y-29505398D01*
X42142650Y-29505399D01*
X42271001Y-29633750D01*
X42424695Y-29730323D01*
X42424699Y-29730324D01*
X42430965Y-29733342D01*
X42430249Y-29734827D01*
X42467786Y-29758411D01*
X43709181Y-30999805D01*
X43742666Y-31061128D01*
X43745500Y-31087486D01*
X43745500Y-36196318D01*
X43738542Y-36237272D01*
X43709725Y-36319627D01*
X43689403Y-36499996D01*
X43689403Y-36500003D01*
X43709724Y-36680366D01*
X43709725Y-36680372D01*
X43709725Y-36680374D01*
X43709726Y-36680375D01*
X43734087Y-36749996D01*
X43738542Y-36762726D01*
X43745500Y-36803680D01*
X43745500Y-43364171D01*
X43725815Y-43431210D01*
X43709181Y-43451853D01*
X43644444Y-43516589D01*
X43606919Y-43540174D01*
X43607632Y-43541654D01*
X43601354Y-43544677D01*
X43447661Y-43641249D01*
X43319309Y-43769601D01*
X43222737Y-43923293D01*
X43162785Y-44094625D01*
X43162784Y-44094630D01*
X43142463Y-44274996D01*
X43142463Y-44275003D01*
X43162784Y-44455369D01*
X43162785Y-44455374D01*
X43222737Y-44626706D01*
X43319309Y-44780398D01*
X43447661Y-44908750D01*
X43592883Y-45000000D01*
X43601355Y-45005323D01*
X43772685Y-45065274D01*
X43772690Y-45065275D01*
X43953056Y-45085597D01*
X43953060Y-45085597D01*
X43953064Y-45085597D01*
X44133429Y-45065275D01*
X44133432Y-45065274D01*
X44133435Y-45065274D01*
X44304765Y-45005323D01*
X44458459Y-44908750D01*
X44586810Y-44780399D01*
X44683383Y-44626705D01*
X44683384Y-44626699D01*
X44683386Y-44626698D01*
X44686407Y-44620427D01*
X44687896Y-44621144D01*
X44711468Y-44583615D01*
X45086059Y-44209026D01*
X45168630Y-44085449D01*
X45168632Y-44085445D01*
X45209497Y-43986788D01*
X45225503Y-43948144D01*
X45225505Y-43948140D01*
X45241794Y-43866250D01*
X45254501Y-43802372D01*
X45254501Y-43653748D01*
X45254501Y-43648638D01*
X45254500Y-43648612D01*
X45254500Y-38999996D01*
X48766287Y-38999996D01*
X48766287Y-39000003D01*
X48784681Y-39163261D01*
X48784682Y-39163265D01*
X48838947Y-39318347D01*
X48920816Y-39448640D01*
X48926360Y-39457463D01*
X49042537Y-39573640D01*
X49181654Y-39661053D01*
X49336733Y-39715317D01*
X49336734Y-39715317D01*
X49336738Y-39715318D01*
X49499996Y-39733713D01*
X49500000Y-39733713D01*
X49500004Y-39733713D01*
X49663261Y-39715318D01*
X49663263Y-39715317D01*
X49663267Y-39715317D01*
X49818346Y-39661053D01*
X49957463Y-39573640D01*
X50073640Y-39457463D01*
X50161053Y-39318346D01*
X50215317Y-39163267D01*
X50215495Y-39161688D01*
X50233713Y-39000003D01*
X50233713Y-38999997D01*
X50219882Y-38877246D01*
X50231936Y-38808424D01*
X50255417Y-38775684D01*
X50323640Y-38707463D01*
X50411053Y-38568346D01*
X50465317Y-38413267D01*
X50465318Y-38413261D01*
X50483713Y-38250003D01*
X50483713Y-38249996D01*
X50465318Y-38086738D01*
X50465317Y-38086734D01*
X50460735Y-38073640D01*
X50411053Y-37931654D01*
X50411052Y-37931652D01*
X50411049Y-37931646D01*
X50328882Y-37800879D01*
X50309881Y-37733643D01*
X50330248Y-37666808D01*
X50367902Y-37629914D01*
X50457463Y-37573640D01*
X50573640Y-37457463D01*
X50661053Y-37318346D01*
X50715317Y-37163267D01*
X50715318Y-37163261D01*
X50733713Y-37000003D01*
X50733713Y-36999996D01*
X51266287Y-36999996D01*
X51266287Y-37000003D01*
X51284681Y-37163261D01*
X51284682Y-37163265D01*
X51338947Y-37318347D01*
X51387473Y-37395575D01*
X51426360Y-37457463D01*
X51542537Y-37573640D01*
X51681654Y-37661053D01*
X51836733Y-37715317D01*
X51836734Y-37715317D01*
X51836738Y-37715318D01*
X51999996Y-37733713D01*
X52000000Y-37733713D01*
X52000003Y-37733713D01*
X52122753Y-37719882D01*
X52191575Y-37731936D01*
X52224318Y-37755421D01*
X52292537Y-37823640D01*
X52431654Y-37911053D01*
X52586733Y-37965317D01*
X52586734Y-37965317D01*
X52586738Y-37965318D01*
X52749996Y-37983713D01*
X52750000Y-37983713D01*
X52750003Y-37983713D01*
X52872753Y-37969882D01*
X52941575Y-37981936D01*
X52974318Y-38005421D01*
X53042537Y-38073640D01*
X53114536Y-38118880D01*
X53179473Y-38159683D01*
X53181654Y-38161053D01*
X53306804Y-38204844D01*
X53326476Y-38211728D01*
X53383252Y-38252450D01*
X53402563Y-38287813D01*
X53413248Y-38318349D01*
X53482640Y-38428784D01*
X53500660Y-38457463D01*
X53616837Y-38573640D01*
X53755954Y-38661053D01*
X53911033Y-38715317D01*
X53911034Y-38715317D01*
X53911038Y-38715318D01*
X53970027Y-38721964D01*
X54032947Y-38729053D01*
X54097360Y-38756119D01*
X54136915Y-38813713D01*
X54142283Y-38866155D01*
X54141287Y-38874995D01*
X54141287Y-38875003D01*
X54159681Y-39038261D01*
X54159682Y-39038265D01*
X54213947Y-39193347D01*
X54281673Y-39301131D01*
X54301360Y-39332463D01*
X54417537Y-39448640D01*
X54556654Y-39536053D01*
X54711733Y-39590317D01*
X54711734Y-39590317D01*
X54711738Y-39590318D01*
X54874996Y-39608713D01*
X54875000Y-39608713D01*
X54875004Y-39608713D01*
X55038261Y-39590318D01*
X55038263Y-39590317D01*
X55038267Y-39590317D01*
X55193346Y-39536053D01*
X55332463Y-39448640D01*
X55448640Y-39332463D01*
X55536053Y-39193346D01*
X55590317Y-39038267D01*
X55590318Y-39038261D01*
X55608713Y-38875003D01*
X55608713Y-38874996D01*
X55590318Y-38711738D01*
X55590317Y-38711734D01*
X55588821Y-38707460D01*
X55536053Y-38556654D01*
X55448640Y-38417537D01*
X55332463Y-38301360D01*
X55310903Y-38287813D01*
X55193347Y-38213947D01*
X55038265Y-38159682D01*
X55038261Y-38159681D01*
X54916353Y-38145946D01*
X54851939Y-38118880D01*
X54812383Y-38061285D01*
X54807017Y-38008836D01*
X54808013Y-38000000D01*
X54807980Y-37999710D01*
X54789618Y-37836738D01*
X54789617Y-37836734D01*
X54785035Y-37823640D01*
X54735353Y-37681654D01*
X54732023Y-37676355D01*
X54673485Y-37583192D01*
X54647940Y-37542537D01*
X54622324Y-37516921D01*
X54588839Y-37455598D01*
X54593823Y-37385906D01*
X54635695Y-37329973D01*
X54696121Y-37306020D01*
X54719063Y-37303435D01*
X54835870Y-37290275D01*
X54835873Y-37290274D01*
X54835875Y-37290274D01*
X55007205Y-37230323D01*
X55160899Y-37133750D01*
X55289250Y-37005399D01*
X55385823Y-36851705D01*
X55445774Y-36680375D01*
X55445775Y-36680366D01*
X55466097Y-36500003D01*
X55466097Y-36499996D01*
X55445775Y-36319630D01*
X55445774Y-36319625D01*
X55385822Y-36148292D01*
X55310753Y-36028823D01*
X55291752Y-35961586D01*
X55310753Y-35896877D01*
X55385822Y-35777407D01*
X55385823Y-35777405D01*
X55445774Y-35606075D01*
X55452933Y-35542536D01*
X55466097Y-35425703D01*
X55466097Y-35425696D01*
X55445775Y-35245330D01*
X55445774Y-35245325D01*
X55443526Y-35238901D01*
X55385823Y-35073995D01*
X55366056Y-35042537D01*
X55289250Y-34920301D01*
X55160898Y-34791949D01*
X55007206Y-34695377D01*
X54835874Y-34635425D01*
X54835869Y-34635424D01*
X54655504Y-34615103D01*
X54655496Y-34615103D01*
X54475130Y-34635424D01*
X54475125Y-34635425D01*
X54303793Y-34695377D01*
X54150101Y-34791949D01*
X54021749Y-34920301D01*
X53925177Y-35073993D01*
X53865225Y-35245325D01*
X53865224Y-35245330D01*
X53844903Y-35425696D01*
X53844903Y-35425703D01*
X53865224Y-35606069D01*
X53865225Y-35606074D01*
X53925177Y-35777406D01*
X54000247Y-35896878D01*
X54019247Y-35964114D01*
X54000247Y-36028822D01*
X53925177Y-36148293D01*
X53865225Y-36319625D01*
X53865224Y-36319630D01*
X53844903Y-36499996D01*
X53844903Y-36500003D01*
X53863654Y-36666429D01*
X53851599Y-36735251D01*
X53804250Y-36786630D01*
X53736640Y-36804254D01*
X53699481Y-36797354D01*
X53663269Y-36784683D01*
X53663261Y-36784681D01*
X53500004Y-36766287D01*
X53499996Y-36766287D01*
X53377245Y-36780117D01*
X53308423Y-36768062D01*
X53275681Y-36744578D01*
X53207463Y-36676360D01*
X53068347Y-36588947D01*
X52913265Y-36534682D01*
X52913261Y-36534681D01*
X52750004Y-36516287D01*
X52749996Y-36516287D01*
X52627245Y-36530117D01*
X52558423Y-36518062D01*
X52525681Y-36494578D01*
X52457463Y-36426360D01*
X52318347Y-36338947D01*
X52163265Y-36284682D01*
X52163261Y-36284681D01*
X52000004Y-36266287D01*
X51999996Y-36266287D01*
X51836738Y-36284681D01*
X51836734Y-36284682D01*
X51681652Y-36338947D01*
X51542536Y-36426360D01*
X51426360Y-36542536D01*
X51338947Y-36681652D01*
X51284682Y-36836734D01*
X51284681Y-36836738D01*
X51266287Y-36999996D01*
X50733713Y-36999996D01*
X50715318Y-36836738D01*
X50715317Y-36836734D01*
X50708883Y-36818347D01*
X50661053Y-36681654D01*
X50660249Y-36680375D01*
X50601410Y-36586733D01*
X50573640Y-36542537D01*
X50457463Y-36426360D01*
X50422837Y-36404603D01*
X50318347Y-36338947D01*
X50163265Y-36284682D01*
X50163261Y-36284681D01*
X50000004Y-36266287D01*
X49999996Y-36266287D01*
X49836738Y-36284681D01*
X49836734Y-36284682D01*
X49681652Y-36338947D01*
X49542536Y-36426360D01*
X49426360Y-36542536D01*
X49338947Y-36681652D01*
X49284682Y-36836734D01*
X49284681Y-36836738D01*
X49266287Y-36999996D01*
X49266287Y-37000003D01*
X49284681Y-37163261D01*
X49284682Y-37163265D01*
X49338947Y-37318347D01*
X49387473Y-37395575D01*
X49413334Y-37436733D01*
X49421118Y-37449120D01*
X49440118Y-37516356D01*
X49419750Y-37583192D01*
X49382096Y-37620085D01*
X49292542Y-37676355D01*
X49292536Y-37676360D01*
X49176360Y-37792536D01*
X49088947Y-37931652D01*
X49034682Y-38086734D01*
X49034681Y-38086738D01*
X49016287Y-38249996D01*
X49016287Y-38250003D01*
X49030117Y-38372752D01*
X49018062Y-38441574D01*
X48994579Y-38474315D01*
X48926363Y-38542532D01*
X48926362Y-38542533D01*
X48838947Y-38681652D01*
X48784682Y-38836734D01*
X48784681Y-38836738D01*
X48766287Y-38999996D01*
X45254500Y-38999996D01*
X45254500Y-37215196D01*
X46689403Y-37215196D01*
X46689403Y-37215203D01*
X46709724Y-37395569D01*
X46709725Y-37395574D01*
X46769677Y-37566906D01*
X46866249Y-37720598D01*
X46994601Y-37848950D01*
X47132472Y-37935581D01*
X47148295Y-37945523D01*
X47303970Y-37999996D01*
X47319625Y-38005474D01*
X47319630Y-38005475D01*
X47499996Y-38025797D01*
X47500000Y-38025797D01*
X47500004Y-38025797D01*
X47680369Y-38005475D01*
X47680372Y-38005474D01*
X47680375Y-38005474D01*
X47851705Y-37945523D01*
X48005399Y-37848950D01*
X48133750Y-37720599D01*
X48230323Y-37566905D01*
X48290274Y-37395575D01*
X48290275Y-37395569D01*
X48310597Y-37215203D01*
X48310597Y-37215196D01*
X48290275Y-37034830D01*
X48290274Y-37034825D01*
X48230322Y-36863493D01*
X48133750Y-36709801D01*
X48005398Y-36581449D01*
X47851706Y-36484877D01*
X47680374Y-36424925D01*
X47680369Y-36424924D01*
X47500004Y-36404603D01*
X47499996Y-36404603D01*
X47319630Y-36424924D01*
X47319625Y-36424925D01*
X47148293Y-36484877D01*
X46994601Y-36581449D01*
X46866249Y-36709801D01*
X46769677Y-36863493D01*
X46709725Y-37034825D01*
X46709724Y-37034830D01*
X46689403Y-37215196D01*
X45254500Y-37215196D01*
X45254500Y-36803680D01*
X45261458Y-36762726D01*
X45265911Y-36750000D01*
X45290274Y-36680375D01*
X45301420Y-36581449D01*
X45310597Y-36500003D01*
X45310597Y-36499996D01*
X45292202Y-36336734D01*
X45290274Y-36319625D01*
X45261458Y-36237272D01*
X45254500Y-36196318D01*
X45254500Y-30649287D01*
X45254499Y-30649283D01*
X45239453Y-30573640D01*
X45225505Y-30503520D01*
X45168629Y-30366210D01*
X45156701Y-30348359D01*
X45086060Y-30242635D01*
X45086054Y-30242628D01*
X44976647Y-30133221D01*
X44976624Y-30133200D01*
X44058621Y-29215196D01*
X47189403Y-29215196D01*
X47189403Y-29215203D01*
X47209724Y-29395569D01*
X47209725Y-29395574D01*
X47269677Y-29566906D01*
X47366249Y-29720598D01*
X47494601Y-29848950D01*
X47626222Y-29931654D01*
X47648295Y-29945523D01*
X47757436Y-29983713D01*
X47819625Y-30005474D01*
X47819630Y-30005475D01*
X47999996Y-30025797D01*
X48000000Y-30025797D01*
X48000004Y-30025797D01*
X48180369Y-30005475D01*
X48180372Y-30005474D01*
X48180375Y-30005474D01*
X48351705Y-29945523D01*
X48505399Y-29848950D01*
X48633750Y-29720599D01*
X48730323Y-29566905D01*
X48790274Y-29395575D01*
X48791422Y-29385379D01*
X48818485Y-29320966D01*
X48826952Y-29311587D01*
X49071280Y-29067259D01*
X49132601Y-29033776D01*
X49202293Y-29038760D01*
X49258226Y-29080632D01*
X49282179Y-29141054D01*
X49284682Y-29163264D01*
X49284682Y-29163265D01*
X49338947Y-29318347D01*
X49421118Y-29449120D01*
X49440118Y-29516356D01*
X49419750Y-29583192D01*
X49382096Y-29620085D01*
X49292542Y-29676355D01*
X49292536Y-29676360D01*
X49176360Y-29792536D01*
X49088947Y-29931652D01*
X49034682Y-30086734D01*
X49034681Y-30086738D01*
X49016287Y-30249996D01*
X49016287Y-30250003D01*
X49030117Y-30372752D01*
X49018062Y-30441574D01*
X48994579Y-30474315D01*
X48926363Y-30542532D01*
X48926362Y-30542533D01*
X48838947Y-30681652D01*
X48784682Y-30836734D01*
X48784681Y-30836738D01*
X48766287Y-30999996D01*
X48766287Y-31000003D01*
X48784681Y-31163261D01*
X48784682Y-31163265D01*
X48838947Y-31318347D01*
X48920816Y-31448640D01*
X48926360Y-31457463D01*
X49042537Y-31573640D01*
X49181654Y-31661053D01*
X49336733Y-31715317D01*
X49336734Y-31715317D01*
X49336738Y-31715318D01*
X49499996Y-31733713D01*
X49500000Y-31733713D01*
X49500004Y-31733713D01*
X49663261Y-31715318D01*
X49663263Y-31715317D01*
X49663267Y-31715317D01*
X49818346Y-31661053D01*
X49957463Y-31573640D01*
X50073640Y-31457463D01*
X50161053Y-31318346D01*
X50215317Y-31163267D01*
X50223856Y-31087486D01*
X50233713Y-31000003D01*
X50233713Y-30999997D01*
X50219882Y-30877246D01*
X50231936Y-30808424D01*
X50255417Y-30775684D01*
X50323640Y-30707463D01*
X50411053Y-30568346D01*
X50465317Y-30413267D01*
X50470619Y-30366210D01*
X50483713Y-30250003D01*
X50483713Y-30249996D01*
X50465318Y-30086738D01*
X50465317Y-30086734D01*
X50463278Y-30080908D01*
X50411053Y-29931654D01*
X50411052Y-29931652D01*
X50411049Y-29931646D01*
X50328882Y-29800879D01*
X50309881Y-29733643D01*
X50330248Y-29666808D01*
X50367902Y-29629914D01*
X50457463Y-29573640D01*
X50573640Y-29457463D01*
X50661053Y-29318346D01*
X50715317Y-29163267D01*
X50724628Y-29080632D01*
X50733713Y-29000003D01*
X50733713Y-28999996D01*
X50715318Y-28836738D01*
X50715317Y-28836734D01*
X50709330Y-28819625D01*
X50661053Y-28681654D01*
X50660249Y-28680375D01*
X50602801Y-28588947D01*
X50573640Y-28542537D01*
X50457463Y-28426360D01*
X50396791Y-28388237D01*
X50318347Y-28338947D01*
X50263175Y-28319642D01*
X50206399Y-28278920D01*
X50180651Y-28213967D01*
X50194107Y-28145406D01*
X50242494Y-28095003D01*
X50304129Y-28078600D01*
X51695871Y-28078600D01*
X51762910Y-28098285D01*
X51808665Y-28151089D01*
X51818609Y-28220247D01*
X51789584Y-28283803D01*
X51736825Y-28319642D01*
X51681652Y-28338947D01*
X51542536Y-28426360D01*
X51426360Y-28542536D01*
X51338947Y-28681652D01*
X51284682Y-28836734D01*
X51284681Y-28836738D01*
X51266287Y-28999996D01*
X51266287Y-29000003D01*
X51284681Y-29163261D01*
X51284682Y-29163265D01*
X51338947Y-29318347D01*
X51387473Y-29395575D01*
X51426360Y-29457463D01*
X51542537Y-29573640D01*
X51557739Y-29583192D01*
X51638201Y-29633750D01*
X51681654Y-29661053D01*
X51836733Y-29715317D01*
X51836734Y-29715317D01*
X51836738Y-29715318D01*
X51999996Y-29733713D01*
X52000000Y-29733713D01*
X52000003Y-29733713D01*
X52122753Y-29719882D01*
X52191575Y-29731936D01*
X52224318Y-29755421D01*
X52292537Y-29823640D01*
X52431654Y-29911053D01*
X52586733Y-29965317D01*
X52586734Y-29965317D01*
X52586738Y-29965318D01*
X52749996Y-29983713D01*
X52750000Y-29983713D01*
X52750003Y-29983713D01*
X52872753Y-29969882D01*
X52941575Y-29981936D01*
X52974318Y-30005421D01*
X53042537Y-30073640D01*
X53114536Y-30118880D01*
X53179473Y-30159683D01*
X53181654Y-30161053D01*
X53306804Y-30204844D01*
X53326476Y-30211728D01*
X53383252Y-30252450D01*
X53402563Y-30287813D01*
X53413248Y-30318349D01*
X53472890Y-30413267D01*
X53500660Y-30457463D01*
X53616837Y-30573640D01*
X53699121Y-30625343D01*
X53745639Y-30654572D01*
X53755954Y-30661053D01*
X53911033Y-30715317D01*
X53911034Y-30715317D01*
X53911038Y-30715318D01*
X53970027Y-30721964D01*
X54032947Y-30729053D01*
X54097360Y-30756119D01*
X54136915Y-30813713D01*
X54142283Y-30866155D01*
X54141287Y-30874995D01*
X54141287Y-30875003D01*
X54159681Y-31038261D01*
X54159682Y-31038265D01*
X54213947Y-31193347D01*
X54271733Y-31285312D01*
X54301360Y-31332463D01*
X54417537Y-31448640D01*
X54556654Y-31536053D01*
X54711733Y-31590317D01*
X54711734Y-31590317D01*
X54711738Y-31590318D01*
X54874996Y-31608713D01*
X54875000Y-31608713D01*
X54875004Y-31608713D01*
X55038261Y-31590318D01*
X55038263Y-31590317D01*
X55038267Y-31590317D01*
X55193346Y-31536053D01*
X55332463Y-31448640D01*
X55448640Y-31332463D01*
X55536053Y-31193346D01*
X55590317Y-31038267D01*
X55590318Y-31038261D01*
X55608713Y-30875003D01*
X55608713Y-30874996D01*
X55590318Y-30711738D01*
X55590317Y-30711734D01*
X55588821Y-30707460D01*
X55536053Y-30556654D01*
X55448640Y-30417537D01*
X55332463Y-30301360D01*
X55282040Y-30269677D01*
X55193347Y-30213947D01*
X55038265Y-30159682D01*
X55038261Y-30159681D01*
X54916353Y-30145946D01*
X54851939Y-30118880D01*
X54812383Y-30061285D01*
X54807017Y-30008836D01*
X54808013Y-30000000D01*
X54804619Y-29969882D01*
X54789618Y-29836738D01*
X54789617Y-29836734D01*
X54785035Y-29823640D01*
X54735353Y-29681654D01*
X54732023Y-29676355D01*
X54673485Y-29583192D01*
X54647940Y-29542537D01*
X54622324Y-29516921D01*
X54588839Y-29455598D01*
X54593823Y-29385906D01*
X54635695Y-29329973D01*
X54696121Y-29306020D01*
X54719063Y-29303435D01*
X54835870Y-29290275D01*
X54835873Y-29290274D01*
X54835875Y-29290274D01*
X55007205Y-29230323D01*
X55160899Y-29133750D01*
X55289250Y-29005399D01*
X55385823Y-28851705D01*
X55445774Y-28680375D01*
X55445775Y-28680369D01*
X55466097Y-28500003D01*
X55466097Y-28499996D01*
X55445775Y-28319630D01*
X55445774Y-28319625D01*
X55385822Y-28148292D01*
X55310753Y-28028823D01*
X55291752Y-27961586D01*
X55310753Y-27896877D01*
X55385822Y-27777407D01*
X55385823Y-27777405D01*
X55445774Y-27606075D01*
X55445775Y-27606069D01*
X55466097Y-27425703D01*
X55466097Y-27425696D01*
X55445775Y-27245330D01*
X55445774Y-27245325D01*
X55385823Y-27073995D01*
X55366056Y-27042537D01*
X55289250Y-26920301D01*
X55160898Y-26791949D01*
X55007206Y-26695377D01*
X54835874Y-26635425D01*
X54835869Y-26635424D01*
X54655504Y-26615103D01*
X54655496Y-26615103D01*
X54475130Y-26635424D01*
X54475125Y-26635425D01*
X54303792Y-26695377D01*
X54210827Y-26753793D01*
X54144854Y-26772800D01*
X49725193Y-26772800D01*
X49599061Y-26797889D01*
X49599055Y-26797891D01*
X49480237Y-26847107D01*
X49373297Y-26918561D01*
X49373296Y-26918562D01*
X47903620Y-28388237D01*
X47842297Y-28421722D01*
X47829831Y-28423775D01*
X47819633Y-28424924D01*
X47819624Y-28424926D01*
X47648295Y-28484876D01*
X47494601Y-28581449D01*
X47366249Y-28709801D01*
X47269677Y-28863493D01*
X47209725Y-29034825D01*
X47209724Y-29034830D01*
X47189403Y-29215196D01*
X44058621Y-29215196D01*
X43534811Y-28691386D01*
X43511227Y-28653849D01*
X43509742Y-28654565D01*
X43506724Y-28648299D01*
X43506723Y-28648295D01*
X43410150Y-28494601D01*
X43281799Y-28366250D01*
X43281798Y-28366249D01*
X43128106Y-28269677D01*
X42956774Y-28209725D01*
X42956769Y-28209724D01*
X42776404Y-28189403D01*
X42776396Y-28189403D01*
X42596030Y-28209724D01*
X42596025Y-28209725D01*
X42424693Y-28269677D01*
X42271001Y-28366249D01*
X42142649Y-28494601D01*
X42046077Y-28648293D01*
X41986125Y-28819625D01*
X41986124Y-28819630D01*
X41965803Y-28999996D01*
X27000000Y-28999996D01*
X27000000Y-27499996D01*
X29266287Y-27499996D01*
X29266287Y-27500003D01*
X29284681Y-27663261D01*
X29284682Y-27663265D01*
X29338947Y-27818347D01*
X29388291Y-27896877D01*
X29426360Y-27957463D01*
X29542537Y-28073640D01*
X29624821Y-28125343D01*
X29661349Y-28148295D01*
X29681654Y-28161053D01*
X29836733Y-28215317D01*
X29836734Y-28215317D01*
X29836738Y-28215318D01*
X29999996Y-28233713D01*
X30000000Y-28233713D01*
X30000004Y-28233713D01*
X30163261Y-28215318D01*
X30163263Y-28215317D01*
X30163267Y-28215317D01*
X30318346Y-28161053D01*
X30457463Y-28073640D01*
X30573640Y-27957463D01*
X30661053Y-27818346D01*
X30715317Y-27663267D01*
X30721761Y-27606075D01*
X30733713Y-27500003D01*
X30733713Y-27499996D01*
X30715318Y-27336738D01*
X30715317Y-27336734D01*
X30661052Y-27181652D01*
X30573639Y-27042536D01*
X30457463Y-26926360D01*
X30318347Y-26838947D01*
X30163265Y-26784682D01*
X30163261Y-26784681D01*
X30000004Y-26766287D01*
X29999996Y-26766287D01*
X29836738Y-26784681D01*
X29836734Y-26784682D01*
X29681652Y-26838947D01*
X29542536Y-26926360D01*
X29426360Y-27042536D01*
X29338947Y-27181652D01*
X29284682Y-27336734D01*
X29284681Y-27336738D01*
X29266287Y-27499996D01*
X27000000Y-27499996D01*
X27000000Y-26443746D01*
X36210037Y-26443746D01*
X36210037Y-26443753D01*
X36228431Y-26607011D01*
X36228432Y-26607015D01*
X36282697Y-26762097D01*
X36370110Y-26901213D01*
X36486287Y-27017390D01*
X36625404Y-27104803D01*
X36780483Y-27159067D01*
X36780484Y-27159067D01*
X36780488Y-27159068D01*
X36943746Y-27177463D01*
X36943750Y-27177463D01*
X36943754Y-27177463D01*
X37107011Y-27159068D01*
X37107013Y-27159067D01*
X37107017Y-27159067D01*
X37262096Y-27104803D01*
X37401213Y-27017390D01*
X37517390Y-26901213D01*
X37604803Y-26762096D01*
X37659067Y-26607017D01*
X37677463Y-26443750D01*
X37672927Y-26403495D01*
X37659068Y-26280488D01*
X37659067Y-26280484D01*
X37643642Y-26236402D01*
X37604803Y-26125404D01*
X37517390Y-25986287D01*
X37401213Y-25870110D01*
X37370351Y-25850718D01*
X37262097Y-25782697D01*
X37107015Y-25728432D01*
X37107011Y-25728431D01*
X36943754Y-25710037D01*
X36943746Y-25710037D01*
X36780488Y-25728431D01*
X36780484Y-25728432D01*
X36625402Y-25782697D01*
X36486286Y-25870110D01*
X36370110Y-25986286D01*
X36282697Y-26125402D01*
X36228432Y-26280484D01*
X36228431Y-26280488D01*
X36210037Y-26443746D01*
X27000000Y-26443746D01*
X27000000Y-24249499D01*
X27019685Y-24182460D01*
X27072489Y-24136705D01*
X27123995Y-24125499D01*
X29422872Y-24125499D01*
X29482483Y-24119091D01*
X29617331Y-24068796D01*
X29732546Y-23982546D01*
X29818796Y-23867331D01*
X29869091Y-23732483D01*
X29875500Y-23672873D01*
X29875499Y-22500000D01*
X33119975Y-22500000D01*
X33140042Y-22754989D01*
X33199752Y-23003702D01*
X33297634Y-23240012D01*
X33297636Y-23240015D01*
X33431275Y-23458095D01*
X33431286Y-23458110D01*
X33434533Y-23461911D01*
X33434535Y-23461911D01*
X34148958Y-22747488D01*
X34173978Y-22807890D01*
X34245112Y-22914351D01*
X34335649Y-23004888D01*
X34442110Y-23076022D01*
X34502511Y-23101041D01*
X33788087Y-23815464D01*
X33788087Y-23815465D01*
X33791888Y-23818712D01*
X33791898Y-23818719D01*
X34009984Y-23952363D01*
X34009987Y-23952365D01*
X34246297Y-24050247D01*
X34495011Y-24109957D01*
X34495010Y-24109957D01*
X34750000Y-24130024D01*
X35004989Y-24109957D01*
X35253702Y-24050247D01*
X35490012Y-23952365D01*
X35490015Y-23952363D01*
X35708103Y-23818719D01*
X35711912Y-23815464D01*
X35396444Y-23499996D01*
X39689403Y-23499996D01*
X39689403Y-23500003D01*
X39709724Y-23680369D01*
X39709725Y-23680374D01*
X39769677Y-23851706D01*
X39866249Y-24005398D01*
X39994601Y-24133750D01*
X40115443Y-24209681D01*
X40148295Y-24230323D01*
X40177834Y-24240659D01*
X40319625Y-24290274D01*
X40319630Y-24290275D01*
X40499996Y-24310597D01*
X40500000Y-24310597D01*
X40500004Y-24310597D01*
X40680369Y-24290275D01*
X40680372Y-24290274D01*
X40680375Y-24290274D01*
X40851705Y-24230323D01*
X41005399Y-24133750D01*
X41133750Y-24005399D01*
X41230323Y-23851705D01*
X41290274Y-23680375D01*
X41291118Y-23672883D01*
X41310597Y-23500003D01*
X41310597Y-23499996D01*
X41290275Y-23319630D01*
X41290274Y-23319625D01*
X41235560Y-23163261D01*
X41230323Y-23148295D01*
X41137140Y-22999996D01*
X48766287Y-22999996D01*
X48766287Y-23000003D01*
X48784681Y-23163261D01*
X48784682Y-23163265D01*
X48838947Y-23318347D01*
X48920816Y-23448640D01*
X48926360Y-23457463D01*
X49042537Y-23573640D01*
X49181654Y-23661053D01*
X49336733Y-23715317D01*
X49336734Y-23715317D01*
X49336738Y-23715318D01*
X49499996Y-23733713D01*
X49500000Y-23733713D01*
X49500004Y-23733713D01*
X49663261Y-23715318D01*
X49663263Y-23715317D01*
X49663267Y-23715317D01*
X49818346Y-23661053D01*
X49957463Y-23573640D01*
X50073640Y-23457463D01*
X50161053Y-23318346D01*
X50215317Y-23163267D01*
X50217004Y-23148295D01*
X50233713Y-23000003D01*
X50233713Y-22999997D01*
X50219882Y-22877246D01*
X50231936Y-22808424D01*
X50255417Y-22775684D01*
X50323640Y-22707463D01*
X50411053Y-22568346D01*
X50465317Y-22413267D01*
X50476012Y-22318346D01*
X50483713Y-22250003D01*
X50483713Y-22249996D01*
X50465318Y-22086738D01*
X50465317Y-22086734D01*
X50464937Y-22085649D01*
X50411053Y-21931654D01*
X50411052Y-21931652D01*
X50411049Y-21931646D01*
X50328882Y-21800879D01*
X50309881Y-21733643D01*
X50330248Y-21666808D01*
X50367902Y-21629914D01*
X50457463Y-21573640D01*
X50573640Y-21457463D01*
X50661053Y-21318346D01*
X50715317Y-21163267D01*
X50718643Y-21133750D01*
X50733713Y-21000003D01*
X50733713Y-20999996D01*
X51266287Y-20999996D01*
X51266287Y-21000003D01*
X51284681Y-21163261D01*
X51284682Y-21163265D01*
X51338947Y-21318347D01*
X51387473Y-21395575D01*
X51426360Y-21457463D01*
X51542537Y-21573640D01*
X51557739Y-21583192D01*
X51638201Y-21633750D01*
X51681654Y-21661053D01*
X51836733Y-21715317D01*
X51836734Y-21715317D01*
X51836738Y-21715318D01*
X51999996Y-21733713D01*
X52000000Y-21733713D01*
X52000003Y-21733713D01*
X52122753Y-21719882D01*
X52191575Y-21731936D01*
X52224318Y-21755421D01*
X52292537Y-21823640D01*
X52431654Y-21911053D01*
X52586733Y-21965317D01*
X52586734Y-21965317D01*
X52586738Y-21965318D01*
X52749996Y-21983713D01*
X52750000Y-21983713D01*
X52750003Y-21983713D01*
X52872753Y-21969882D01*
X52941575Y-21981936D01*
X52974318Y-22005421D01*
X53042537Y-22073640D01*
X53114536Y-22118880D01*
X53179473Y-22159683D01*
X53181654Y-22161053D01*
X53270411Y-22192110D01*
X53326476Y-22211728D01*
X53383252Y-22252450D01*
X53402563Y-22287813D01*
X53413248Y-22318349D01*
X53472890Y-22413267D01*
X53500660Y-22457463D01*
X53616837Y-22573640D01*
X53755954Y-22661053D01*
X53911033Y-22715317D01*
X53911034Y-22715317D01*
X53911038Y-22715318D01*
X53970027Y-22721964D01*
X54032947Y-22729053D01*
X54097360Y-22756119D01*
X54136915Y-22813713D01*
X54142283Y-22866155D01*
X54141287Y-22874995D01*
X54141287Y-22875003D01*
X54159681Y-23038261D01*
X54159682Y-23038265D01*
X54213947Y-23193347D01*
X54243269Y-23240012D01*
X54301360Y-23332463D01*
X54417537Y-23448640D01*
X54556654Y-23536053D01*
X54711733Y-23590317D01*
X54711734Y-23590317D01*
X54711738Y-23590318D01*
X54874996Y-23608713D01*
X54875000Y-23608713D01*
X54875004Y-23608713D01*
X55038261Y-23590318D01*
X55038263Y-23590317D01*
X55038267Y-23590317D01*
X55193346Y-23536053D01*
X55332463Y-23448640D01*
X55448640Y-23332463D01*
X55536053Y-23193346D01*
X55590317Y-23038267D01*
X55594212Y-23003702D01*
X55608713Y-22875003D01*
X55608713Y-22874996D01*
X55590318Y-22711738D01*
X55590317Y-22711734D01*
X55589614Y-22709726D01*
X55536053Y-22556654D01*
X55448640Y-22417537D01*
X55332463Y-22301360D01*
X55310903Y-22287813D01*
X55193347Y-22213947D01*
X55038265Y-22159682D01*
X55038261Y-22159681D01*
X54916353Y-22145946D01*
X54851939Y-22118880D01*
X54812383Y-22061285D01*
X54807017Y-22008836D01*
X54808013Y-22000000D01*
X54807462Y-21995112D01*
X54789618Y-21836738D01*
X54789617Y-21836734D01*
X54785035Y-21823640D01*
X54735353Y-21681654D01*
X54732023Y-21676355D01*
X54673485Y-21583192D01*
X54647940Y-21542537D01*
X54622324Y-21516921D01*
X54588839Y-21455598D01*
X54593823Y-21385906D01*
X54635695Y-21329973D01*
X54696121Y-21306020D01*
X54719063Y-21303435D01*
X54835870Y-21290275D01*
X54835873Y-21290274D01*
X54835875Y-21290274D01*
X55007205Y-21230323D01*
X55160899Y-21133750D01*
X55289250Y-21005399D01*
X55385823Y-20851705D01*
X55445774Y-20680375D01*
X55445775Y-20680369D01*
X55466097Y-20500003D01*
X55466097Y-20499996D01*
X55445775Y-20319630D01*
X55445774Y-20319625D01*
X55385822Y-20148292D01*
X55310753Y-20028823D01*
X55291752Y-19961586D01*
X55310753Y-19896877D01*
X55374767Y-19795000D01*
X57997422Y-19795000D01*
X58017943Y-19996819D01*
X58078669Y-20190364D01*
X58078676Y-20190379D01*
X58177118Y-20367738D01*
X58177121Y-20367743D01*
X58309255Y-20521660D01*
X58309256Y-20521662D01*
X58396182Y-20588947D01*
X58469672Y-20645832D01*
X58651799Y-20735170D01*
X58848182Y-20786017D01*
X59050780Y-20796292D01*
X59251299Y-20765573D01*
X59441530Y-20695120D01*
X59613684Y-20587815D01*
X59760715Y-20448052D01*
X59876601Y-20281553D01*
X59956600Y-20095135D01*
X59997435Y-19896429D01*
X59999377Y-19819630D01*
X60000000Y-19795014D01*
X60000000Y-19794985D01*
X59997435Y-19693575D01*
X59997435Y-19693571D01*
X59956600Y-19494865D01*
X59876601Y-19308447D01*
X59860708Y-19285613D01*
X59760715Y-19141948D01*
X59613685Y-19002186D01*
X59613684Y-19002185D01*
X59441530Y-18894880D01*
X59333391Y-18854830D01*
X59251300Y-18824427D01*
X59251294Y-18824426D01*
X59050781Y-18793708D01*
X59050780Y-18793708D01*
X58949481Y-18798845D01*
X58848181Y-18803983D01*
X58651798Y-18854830D01*
X58469668Y-18944170D01*
X58309256Y-19068337D01*
X58309255Y-19068339D01*
X58177121Y-19222256D01*
X58177118Y-19222261D01*
X58078676Y-19399620D01*
X58078669Y-19399635D01*
X58017943Y-19593180D01*
X57997422Y-19795000D01*
X55374767Y-19795000D01*
X55385822Y-19777407D01*
X55415156Y-19693575D01*
X55445774Y-19606075D01*
X55448670Y-19580374D01*
X55466097Y-19425703D01*
X55466097Y-19425696D01*
X55445775Y-19245330D01*
X55445774Y-19245325D01*
X55385822Y-19073993D01*
X55289250Y-18920301D01*
X55160898Y-18791949D01*
X55007206Y-18695377D01*
X54835874Y-18635425D01*
X54835869Y-18635424D01*
X54655504Y-18615103D01*
X54655496Y-18615103D01*
X54475130Y-18635424D01*
X54475125Y-18635425D01*
X54303793Y-18695377D01*
X54150101Y-18791949D01*
X54021749Y-18920301D01*
X53925177Y-19073993D01*
X53865225Y-19245325D01*
X53865224Y-19245330D01*
X53844903Y-19425696D01*
X53844903Y-19425703D01*
X53865224Y-19606069D01*
X53865225Y-19606074D01*
X53925177Y-19777406D01*
X54000247Y-19896878D01*
X54019247Y-19964114D01*
X54000247Y-20028822D01*
X53925177Y-20148293D01*
X53865225Y-20319625D01*
X53865224Y-20319630D01*
X53844903Y-20499996D01*
X53844903Y-20500003D01*
X53863654Y-20666429D01*
X53851599Y-20735251D01*
X53804250Y-20786630D01*
X53736640Y-20804254D01*
X53699481Y-20797354D01*
X53663269Y-20784683D01*
X53663261Y-20784681D01*
X53500004Y-20766287D01*
X53499996Y-20766287D01*
X53377245Y-20780117D01*
X53308423Y-20768062D01*
X53275681Y-20744578D01*
X53207463Y-20676360D01*
X53068347Y-20588947D01*
X52913265Y-20534682D01*
X52913261Y-20534681D01*
X52750004Y-20516287D01*
X52749996Y-20516287D01*
X52627245Y-20530117D01*
X52558423Y-20518062D01*
X52525681Y-20494578D01*
X52457463Y-20426360D01*
X52318347Y-20338947D01*
X52163265Y-20284682D01*
X52163261Y-20284681D01*
X52000004Y-20266287D01*
X51999996Y-20266287D01*
X51836738Y-20284681D01*
X51836734Y-20284682D01*
X51681652Y-20338947D01*
X51542536Y-20426360D01*
X51426360Y-20542536D01*
X51338947Y-20681652D01*
X51284682Y-20836734D01*
X51284681Y-20836738D01*
X51266287Y-20999996D01*
X50733713Y-20999996D01*
X50715318Y-20836738D01*
X50715317Y-20836734D01*
X50709330Y-20819625D01*
X50661053Y-20681654D01*
X50660249Y-20680375D01*
X50602090Y-20587815D01*
X50573640Y-20542537D01*
X50457463Y-20426360D01*
X50364167Y-20367738D01*
X50318347Y-20338947D01*
X50163265Y-20284682D01*
X50163261Y-20284681D01*
X50000004Y-20266287D01*
X49999996Y-20266287D01*
X49836738Y-20284681D01*
X49836734Y-20284682D01*
X49681652Y-20338947D01*
X49542536Y-20426360D01*
X49426360Y-20542536D01*
X49338947Y-20681652D01*
X49284682Y-20836734D01*
X49284681Y-20836738D01*
X49266287Y-20999996D01*
X49266287Y-21000003D01*
X49284681Y-21163261D01*
X49284682Y-21163265D01*
X49338947Y-21318347D01*
X49421118Y-21449120D01*
X49440118Y-21516356D01*
X49419750Y-21583192D01*
X49382096Y-21620085D01*
X49292542Y-21676355D01*
X49292536Y-21676360D01*
X49176360Y-21792536D01*
X49088947Y-21931652D01*
X49034682Y-22086734D01*
X49034681Y-22086738D01*
X49016287Y-22249996D01*
X49016287Y-22250003D01*
X49030117Y-22372752D01*
X49018062Y-22441574D01*
X48994579Y-22474315D01*
X48926363Y-22542532D01*
X48926362Y-22542533D01*
X48838947Y-22681652D01*
X48784682Y-22836734D01*
X48784681Y-22836738D01*
X48766287Y-22999996D01*
X41137140Y-22999996D01*
X41133750Y-22994601D01*
X41005399Y-22866250D01*
X41005398Y-22866249D01*
X40851706Y-22769677D01*
X40680374Y-22709725D01*
X40680369Y-22709724D01*
X40500004Y-22689403D01*
X40499996Y-22689403D01*
X40319630Y-22709724D01*
X40319625Y-22709725D01*
X40148293Y-22769677D01*
X39994601Y-22866249D01*
X39866249Y-22994601D01*
X39769677Y-23148293D01*
X39709725Y-23319625D01*
X39709724Y-23319630D01*
X39689403Y-23499996D01*
X35396444Y-23499996D01*
X34997488Y-23101041D01*
X35057890Y-23076022D01*
X35164351Y-23004888D01*
X35254888Y-22914351D01*
X35326022Y-22807890D01*
X35351041Y-22747489D01*
X36065464Y-23461912D01*
X36068719Y-23458103D01*
X36202363Y-23240015D01*
X36202365Y-23240012D01*
X36300247Y-23003702D01*
X36359957Y-22754989D01*
X36380024Y-22500000D01*
X36359957Y-22245010D01*
X36300247Y-21996297D01*
X36202365Y-21759987D01*
X36202363Y-21759984D01*
X36068719Y-21541898D01*
X36068712Y-21541888D01*
X36065465Y-21538087D01*
X36065464Y-21538087D01*
X35351041Y-22252510D01*
X35326022Y-22192110D01*
X35254888Y-22085649D01*
X35164351Y-21995112D01*
X35057890Y-21923978D01*
X34997487Y-21898958D01*
X35711911Y-21184535D01*
X35711911Y-21184533D01*
X35708110Y-21181286D01*
X35708095Y-21181275D01*
X35490015Y-21047636D01*
X35490012Y-21047634D01*
X35375002Y-20999996D01*
X41689403Y-20999996D01*
X41689403Y-21000003D01*
X41709724Y-21180369D01*
X41709725Y-21180374D01*
X41769677Y-21351706D01*
X41866249Y-21505398D01*
X41994601Y-21633750D01*
X42146631Y-21729278D01*
X42148295Y-21730323D01*
X42233070Y-21759987D01*
X42319625Y-21790274D01*
X42319630Y-21790275D01*
X42499996Y-21810597D01*
X42500000Y-21810597D01*
X42500004Y-21810597D01*
X42680369Y-21790275D01*
X42680372Y-21790274D01*
X42680375Y-21790274D01*
X42851705Y-21730323D01*
X43005399Y-21633750D01*
X43133750Y-21505399D01*
X43230323Y-21351705D01*
X43278090Y-21215196D01*
X47189403Y-21215196D01*
X47189403Y-21215203D01*
X47209724Y-21395569D01*
X47209725Y-21395574D01*
X47269677Y-21566906D01*
X47366249Y-21720598D01*
X47494601Y-21848950D01*
X47626222Y-21931654D01*
X47648295Y-21945523D01*
X47757436Y-21983713D01*
X47819625Y-22005474D01*
X47819630Y-22005475D01*
X47999996Y-22025797D01*
X48000000Y-22025797D01*
X48000004Y-22025797D01*
X48180369Y-22005475D01*
X48180372Y-22005474D01*
X48180375Y-22005474D01*
X48351705Y-21945523D01*
X48505399Y-21848950D01*
X48633750Y-21720599D01*
X48730323Y-21566905D01*
X48790274Y-21395575D01*
X48790275Y-21395569D01*
X48810597Y-21215203D01*
X48810597Y-21215196D01*
X48790275Y-21034830D01*
X48790274Y-21034825D01*
X48754015Y-20931202D01*
X48730323Y-20863495D01*
X48722915Y-20851706D01*
X48633750Y-20709801D01*
X48505398Y-20581449D01*
X48351706Y-20484877D01*
X48180374Y-20424925D01*
X48180369Y-20424924D01*
X48000004Y-20404603D01*
X47999996Y-20404603D01*
X47819630Y-20424924D01*
X47819625Y-20424925D01*
X47648293Y-20484877D01*
X47494601Y-20581449D01*
X47366249Y-20709801D01*
X47269677Y-20863493D01*
X47209725Y-21034825D01*
X47209724Y-21034830D01*
X47189403Y-21215196D01*
X43278090Y-21215196D01*
X43290274Y-21180375D01*
X43292202Y-21163265D01*
X43310597Y-21000003D01*
X43310597Y-20999996D01*
X43290275Y-20819630D01*
X43290274Y-20819625D01*
X43279947Y-20790112D01*
X43230323Y-20648295D01*
X43228775Y-20645832D01*
X43133750Y-20494601D01*
X43005398Y-20366249D01*
X42851706Y-20269677D01*
X42680374Y-20209725D01*
X42680369Y-20209724D01*
X42500004Y-20189403D01*
X42499996Y-20189403D01*
X42319630Y-20209724D01*
X42319625Y-20209725D01*
X42148293Y-20269677D01*
X41994601Y-20366249D01*
X41866249Y-20494601D01*
X41769677Y-20648293D01*
X41709725Y-20819625D01*
X41709724Y-20819630D01*
X41689403Y-20999996D01*
X35375002Y-20999996D01*
X35311536Y-20973708D01*
X35257132Y-20929867D01*
X35235067Y-20863573D01*
X35252346Y-20795874D01*
X35303483Y-20748263D01*
X35318034Y-20742105D01*
X35351705Y-20730323D01*
X35505399Y-20633750D01*
X35633750Y-20505399D01*
X35730323Y-20351705D01*
X35790274Y-20180375D01*
X35790275Y-20180369D01*
X35810597Y-20000003D01*
X35810597Y-19999996D01*
X35790275Y-19819630D01*
X35790274Y-19819625D01*
X35775501Y-19777406D01*
X35730323Y-19648295D01*
X35703790Y-19606069D01*
X35633750Y-19494601D01*
X35539145Y-19399996D01*
X38589403Y-19399996D01*
X38589403Y-19400003D01*
X38609724Y-19580369D01*
X38609725Y-19580374D01*
X38669677Y-19751706D01*
X38766249Y-19905398D01*
X38766250Y-19905399D01*
X38894601Y-20033750D01*
X39048295Y-20130323D01*
X39191335Y-20180375D01*
X39219625Y-20190274D01*
X39219630Y-20190275D01*
X39399996Y-20210597D01*
X39400000Y-20210597D01*
X39400004Y-20210597D01*
X39580369Y-20190275D01*
X39580372Y-20190274D01*
X39580375Y-20190274D01*
X39751705Y-20130323D01*
X39905399Y-20033750D01*
X40033750Y-19905399D01*
X40130323Y-19751705D01*
X40190274Y-19580375D01*
X40190275Y-19580369D01*
X40210597Y-19400003D01*
X40210597Y-19399996D01*
X40190275Y-19219630D01*
X40190274Y-19219625D01*
X40168452Y-19157261D01*
X40130323Y-19048295D01*
X40125855Y-19041185D01*
X40033750Y-18894601D01*
X39905398Y-18766249D01*
X39751706Y-18669677D01*
X39580374Y-18609725D01*
X39580369Y-18609724D01*
X39400004Y-18589403D01*
X39399996Y-18589403D01*
X39219630Y-18609724D01*
X39219625Y-18609725D01*
X39048293Y-18669677D01*
X38894601Y-18766249D01*
X38766249Y-18894601D01*
X38669677Y-19048293D01*
X38609725Y-19219625D01*
X38609724Y-19219630D01*
X38589403Y-19399996D01*
X35539145Y-19399996D01*
X35505398Y-19366249D01*
X35351706Y-19269677D01*
X35180374Y-19209725D01*
X35180369Y-19209724D01*
X35000004Y-19189403D01*
X34999996Y-19189403D01*
X34819630Y-19209724D01*
X34819625Y-19209725D01*
X34648293Y-19269677D01*
X34494601Y-19366249D01*
X34366249Y-19494601D01*
X34269677Y-19648293D01*
X34209725Y-19819625D01*
X34209724Y-19819630D01*
X34189403Y-19999996D01*
X34189403Y-20000003D01*
X34209724Y-20180369D01*
X34209725Y-20180374D01*
X34269677Y-20351706D01*
X34366249Y-20505398D01*
X34494601Y-20633750D01*
X34540698Y-20662715D01*
X34586989Y-20715050D01*
X34597637Y-20784103D01*
X34569262Y-20847952D01*
X34510873Y-20886324D01*
X34499741Y-20888889D01*
X34499745Y-20888906D01*
X34246297Y-20949752D01*
X34009987Y-21047634D01*
X34009984Y-21047636D01*
X33791897Y-21181280D01*
X33788087Y-21184534D01*
X34502511Y-21898958D01*
X34442110Y-21923978D01*
X34335649Y-21995112D01*
X34245112Y-22085649D01*
X34173978Y-22192110D01*
X34148958Y-22252511D01*
X33434533Y-21538087D01*
X33431280Y-21541897D01*
X33297636Y-21759984D01*
X33297634Y-21759987D01*
X33199752Y-21996297D01*
X33140042Y-22245010D01*
X33119975Y-22500000D01*
X29875499Y-22500000D01*
X29875499Y-21327128D01*
X29869091Y-21267517D01*
X29855218Y-21230322D01*
X29818797Y-21132671D01*
X29818793Y-21132664D01*
X29732547Y-21017455D01*
X29732544Y-21017452D01*
X29617335Y-20931206D01*
X29617328Y-20931202D01*
X29482482Y-20880908D01*
X29482483Y-20880908D01*
X29422883Y-20874501D01*
X29422881Y-20874500D01*
X29422873Y-20874500D01*
X29422865Y-20874500D01*
X27124000Y-20874500D01*
X27056961Y-20854815D01*
X27011206Y-20802011D01*
X27000000Y-20750500D01*
X27000000Y-18651859D01*
X29639403Y-18651859D01*
X29639403Y-18651866D01*
X29659724Y-18832232D01*
X29659725Y-18832237D01*
X29719677Y-19003569D01*
X29816249Y-19157261D01*
X29944601Y-19285613D01*
X30072931Y-19366249D01*
X30098295Y-19382186D01*
X30269625Y-19442137D01*
X30269630Y-19442138D01*
X30449996Y-19462460D01*
X30450000Y-19462460D01*
X30450004Y-19462460D01*
X30630369Y-19442138D01*
X30630372Y-19442137D01*
X30630375Y-19442137D01*
X30801705Y-19382186D01*
X30955399Y-19285613D01*
X31083750Y-19157262D01*
X31180323Y-19003568D01*
X31240274Y-18832238D01*
X31241154Y-18824427D01*
X31260597Y-18651866D01*
X31260597Y-18651859D01*
X31240275Y-18471493D01*
X31240274Y-18471488D01*
X31180322Y-18300156D01*
X31083750Y-18146464D01*
X30955398Y-18018112D01*
X30801706Y-17921540D01*
X30630374Y-17861588D01*
X30630369Y-17861587D01*
X30450004Y-17841266D01*
X30449996Y-17841266D01*
X30269630Y-17861587D01*
X30269625Y-17861588D01*
X30098293Y-17921540D01*
X29944601Y-18018112D01*
X29816249Y-18146464D01*
X29719677Y-18300156D01*
X29659725Y-18471488D01*
X29659724Y-18471493D01*
X29639403Y-18651859D01*
X27000000Y-18651859D01*
X27000000Y-16956504D01*
X31680000Y-16956504D01*
X31680000Y-17355000D01*
X32380000Y-17355000D01*
X32380000Y-17855000D01*
X31680000Y-17855000D01*
X31680000Y-18253495D01*
X31718427Y-18446681D01*
X31718430Y-18446693D01*
X31793807Y-18628671D01*
X31793814Y-18628684D01*
X31903248Y-18792462D01*
X31903251Y-18792466D01*
X32042533Y-18931748D01*
X32042537Y-18931751D01*
X32206315Y-19041185D01*
X32206328Y-19041192D01*
X32388308Y-19116569D01*
X32430000Y-19124862D01*
X32430000Y-18321988D01*
X32439940Y-18339205D01*
X32495795Y-18395060D01*
X32564204Y-18434556D01*
X32640504Y-18455000D01*
X32719496Y-18455000D01*
X32795796Y-18434556D01*
X32864205Y-18395060D01*
X32920060Y-18339205D01*
X32930000Y-18321988D01*
X32930000Y-19124862D01*
X32971690Y-19116569D01*
X32971692Y-19116569D01*
X33153671Y-19041192D01*
X33153684Y-19041185D01*
X33317462Y-18931751D01*
X33317466Y-18931748D01*
X33456748Y-18792466D01*
X33456751Y-18792462D01*
X33566185Y-18628684D01*
X33566192Y-18628671D01*
X33641569Y-18446693D01*
X33641572Y-18446681D01*
X33679999Y-18253495D01*
X33680000Y-18253492D01*
X33680000Y-17855000D01*
X32980000Y-17855000D01*
X32980000Y-17355000D01*
X33513598Y-17355000D01*
X33580637Y-17374685D01*
X33620984Y-17416999D01*
X33646285Y-17460821D01*
X33754179Y-17568715D01*
X33754180Y-17568716D01*
X33754182Y-17568717D01*
X33886318Y-17645006D01*
X33886319Y-17645006D01*
X33886322Y-17645008D01*
X34033707Y-17684500D01*
X34033710Y-17684500D01*
X34186290Y-17684500D01*
X34186293Y-17684500D01*
X34333678Y-17645008D01*
X34465821Y-17568715D01*
X34573715Y-17460821D01*
X34650008Y-17328678D01*
X34689500Y-17181293D01*
X34689500Y-17028707D01*
X39310500Y-17028707D01*
X39310500Y-17181293D01*
X39343145Y-17303123D01*
X39349993Y-17328681D01*
X39426282Y-17460817D01*
X39426284Y-17460819D01*
X39426285Y-17460821D01*
X39534179Y-17568715D01*
X39534180Y-17568716D01*
X39534182Y-17568717D01*
X39666318Y-17645006D01*
X39666319Y-17645006D01*
X39666322Y-17645008D01*
X39813707Y-17684500D01*
X39813710Y-17684500D01*
X39966290Y-17684500D01*
X39966293Y-17684500D01*
X40113678Y-17645008D01*
X40245821Y-17568715D01*
X40353715Y-17460821D01*
X40379015Y-17416999D01*
X40429582Y-17368784D01*
X40486402Y-17355000D01*
X41020000Y-17355000D01*
X41020000Y-17855000D01*
X40320000Y-17855000D01*
X40320000Y-18253495D01*
X40358427Y-18446681D01*
X40358430Y-18446693D01*
X40433807Y-18628671D01*
X40433814Y-18628684D01*
X40543248Y-18792462D01*
X40543251Y-18792466D01*
X40682533Y-18931748D01*
X40682537Y-18931751D01*
X40846315Y-19041185D01*
X40846328Y-19041192D01*
X41028308Y-19116569D01*
X41070000Y-19124862D01*
X41070000Y-18321988D01*
X41079940Y-18339205D01*
X41135795Y-18395060D01*
X41204204Y-18434556D01*
X41280504Y-18455000D01*
X41359496Y-18455000D01*
X41435796Y-18434556D01*
X41504205Y-18395060D01*
X41560060Y-18339205D01*
X41570000Y-18321988D01*
X41570000Y-19124862D01*
X41611690Y-19116569D01*
X41611692Y-19116569D01*
X41793671Y-19041192D01*
X41793684Y-19041185D01*
X41957462Y-18931751D01*
X41957466Y-18931748D01*
X42096748Y-18792466D01*
X42096751Y-18792462D01*
X42206185Y-18628684D01*
X42206192Y-18628671D01*
X42281569Y-18446693D01*
X42281572Y-18446681D01*
X42319999Y-18253495D01*
X42320000Y-18253492D01*
X42320000Y-17855000D01*
X41620000Y-17855000D01*
X41620000Y-17355000D01*
X42320000Y-17355000D01*
X42320000Y-16956508D01*
X42319999Y-16956504D01*
X42281572Y-16763318D01*
X42281569Y-16763306D01*
X42206192Y-16581328D01*
X42206185Y-16581315D01*
X42096751Y-16417537D01*
X42096748Y-16417533D01*
X41957466Y-16278251D01*
X41957462Y-16278248D01*
X41793684Y-16168814D01*
X41793671Y-16168807D01*
X41611691Y-16093429D01*
X41611683Y-16093427D01*
X41570000Y-16085135D01*
X41570000Y-16888011D01*
X41560060Y-16870795D01*
X41504205Y-16814940D01*
X41435796Y-16775444D01*
X41359496Y-16755000D01*
X41280504Y-16755000D01*
X41204204Y-16775444D01*
X41135795Y-16814940D01*
X41079940Y-16870795D01*
X41070000Y-16888011D01*
X41070000Y-16085136D01*
X41069999Y-16085135D01*
X41028316Y-16093427D01*
X41028308Y-16093429D01*
X40846328Y-16168807D01*
X40846315Y-16168814D01*
X40682537Y-16278248D01*
X40682533Y-16278251D01*
X40543251Y-16417533D01*
X40543248Y-16417537D01*
X40433814Y-16581315D01*
X40433808Y-16581326D01*
X40431462Y-16586991D01*
X40387617Y-16641391D01*
X40321321Y-16663451D01*
X40253623Y-16646167D01*
X40249826Y-16643597D01*
X40113681Y-16564993D01*
X40113682Y-16564993D01*
X40101595Y-16561754D01*
X39966293Y-16525500D01*
X39813707Y-16525500D01*
X39678404Y-16561754D01*
X39666318Y-16564993D01*
X39534182Y-16641282D01*
X39534176Y-16641287D01*
X39426287Y-16749176D01*
X39426282Y-16749182D01*
X39349993Y-16881318D01*
X39349992Y-16881322D01*
X39310500Y-17028707D01*
X34689500Y-17028707D01*
X34650008Y-16881322D01*
X34643930Y-16870795D01*
X34573717Y-16749182D01*
X34573712Y-16749176D01*
X34465823Y-16641287D01*
X34465817Y-16641282D01*
X34333681Y-16564993D01*
X34333682Y-16564993D01*
X34321595Y-16561754D01*
X34186293Y-16525500D01*
X34033707Y-16525500D01*
X33898404Y-16561754D01*
X33886318Y-16564993D01*
X33747140Y-16645349D01*
X33745715Y-16642881D01*
X33693405Y-16663102D01*
X33624961Y-16649059D01*
X33574974Y-16600243D01*
X33568534Y-16586983D01*
X33566188Y-16581321D01*
X33566187Y-16581318D01*
X33456751Y-16417537D01*
X33456748Y-16417533D01*
X33317466Y-16278251D01*
X33317462Y-16278248D01*
X33153684Y-16168814D01*
X33153671Y-16168807D01*
X32971691Y-16093429D01*
X32971683Y-16093427D01*
X32930000Y-16085135D01*
X32930000Y-16888011D01*
X32920060Y-16870795D01*
X32864205Y-16814940D01*
X32795796Y-16775444D01*
X32719496Y-16755000D01*
X32640504Y-16755000D01*
X32564204Y-16775444D01*
X32495795Y-16814940D01*
X32439940Y-16870795D01*
X32430000Y-16888011D01*
X32430000Y-16085136D01*
X32429999Y-16085135D01*
X32388316Y-16093427D01*
X32388308Y-16093429D01*
X32206328Y-16168807D01*
X32206315Y-16168814D01*
X32042537Y-16278248D01*
X32042533Y-16278251D01*
X31903251Y-16417533D01*
X31903248Y-16417537D01*
X31793814Y-16581315D01*
X31793807Y-16581328D01*
X31718430Y-16763306D01*
X31718427Y-16763318D01*
X31680000Y-16956504D01*
X27000000Y-16956504D01*
X27000000Y-14342511D01*
X27914403Y-14342511D01*
X27914403Y-14342518D01*
X27934724Y-14522884D01*
X27934725Y-14522889D01*
X27994677Y-14694221D01*
X28091249Y-14847913D01*
X28219601Y-14976265D01*
X28318272Y-15038265D01*
X28373295Y-15072838D01*
X28516278Y-15122870D01*
X28544625Y-15132789D01*
X28544630Y-15132790D01*
X28724996Y-15153112D01*
X28725000Y-15153112D01*
X28725004Y-15153112D01*
X28905369Y-15132790D01*
X28905372Y-15132789D01*
X28905375Y-15132789D01*
X29076705Y-15072838D01*
X29192632Y-14999996D01*
X48766287Y-14999996D01*
X48766287Y-15000003D01*
X48784681Y-15163261D01*
X48784682Y-15163265D01*
X48838947Y-15318347D01*
X48920816Y-15448640D01*
X48926360Y-15457463D01*
X49042537Y-15573640D01*
X49181654Y-15661053D01*
X49336733Y-15715317D01*
X49336734Y-15715317D01*
X49336738Y-15715318D01*
X49499996Y-15733713D01*
X49500000Y-15733713D01*
X49500004Y-15733713D01*
X49663261Y-15715318D01*
X49663263Y-15715317D01*
X49663267Y-15715317D01*
X49818346Y-15661053D01*
X49957463Y-15573640D01*
X50073640Y-15457463D01*
X50161053Y-15318346D01*
X50215317Y-15163267D01*
X50215318Y-15163261D01*
X50233713Y-15000003D01*
X50233713Y-14999997D01*
X50219882Y-14877246D01*
X50231936Y-14808424D01*
X50255417Y-14775684D01*
X50323640Y-14707463D01*
X50411053Y-14568346D01*
X50465317Y-14413267D01*
X50473289Y-14342515D01*
X50483713Y-14250003D01*
X50483713Y-14249996D01*
X50465318Y-14086738D01*
X50465317Y-14086734D01*
X50460735Y-14073640D01*
X50411053Y-13931654D01*
X50405926Y-13923495D01*
X50343183Y-13823640D01*
X50323640Y-13792537D01*
X50207463Y-13676360D01*
X50183102Y-13661053D01*
X50068347Y-13588947D01*
X49913265Y-13534682D01*
X49913261Y-13534681D01*
X49750004Y-13516287D01*
X49749996Y-13516287D01*
X49586738Y-13534681D01*
X49586734Y-13534682D01*
X49431652Y-13588947D01*
X49292536Y-13676360D01*
X49176360Y-13792536D01*
X49088947Y-13931652D01*
X49034682Y-14086734D01*
X49034681Y-14086738D01*
X49016287Y-14249996D01*
X49016287Y-14250003D01*
X49030117Y-14372752D01*
X49018062Y-14441574D01*
X48994579Y-14474315D01*
X48926363Y-14542532D01*
X48926362Y-14542533D01*
X48838947Y-14681652D01*
X48784682Y-14836734D01*
X48784681Y-14836738D01*
X48766287Y-14999996D01*
X29192632Y-14999996D01*
X29230399Y-14976265D01*
X29358750Y-14847914D01*
X29455323Y-14694220D01*
X29515274Y-14522890D01*
X29522082Y-14462466D01*
X29535597Y-14342518D01*
X29535597Y-14342511D01*
X29515275Y-14162145D01*
X29515274Y-14162140D01*
X29479983Y-14061285D01*
X29455323Y-13990810D01*
X29405207Y-13911052D01*
X29358750Y-13837116D01*
X29230398Y-13708764D01*
X29076706Y-13612192D01*
X28905374Y-13552240D01*
X28905369Y-13552239D01*
X28725004Y-13531918D01*
X28724996Y-13531918D01*
X28544630Y-13552239D01*
X28544625Y-13552240D01*
X28373293Y-13612192D01*
X28219601Y-13708764D01*
X28091249Y-13837116D01*
X27994677Y-13990808D01*
X27934725Y-14162140D01*
X27934724Y-14162145D01*
X27914403Y-14342511D01*
X27000000Y-14342511D01*
X27000000Y-12124000D01*
X27019685Y-12056961D01*
X27072489Y-12011206D01*
X27124000Y-12000000D01*
X32005294Y-12000000D01*
X32072333Y-12019685D01*
G37*
%TD.AperFunction*%
%TD*%
M02*
