%TF.GenerationSoftware,KiCad,Pcbnew,8.0.8*%
%TF.CreationDate,2025-02-02T13:18:11-05:00*%
%TF.ProjectId,CAN Board,43414e20-426f-4617-9264-2e6b69636164,rev?*%
%TF.SameCoordinates,Original*%
%TF.FileFunction,Soldermask,Bot*%
%TF.FilePolarity,Negative*%
%FSLAX46Y46*%
G04 Gerber Fmt 4.6, Leading zero omitted, Abs format (unit mm)*
G04 Created by KiCad (PCBNEW 8.0.8) date 2025-02-02 13:18:11*
%MOMM*%
%LPD*%
G01*
G04 APERTURE LIST*
G04 APERTURE END LIST*
G36*
X40307871Y-59167946D02*
G01*
X40501456Y-59242941D01*
X40677964Y-59352231D01*
X40831385Y-59492092D01*
X40956494Y-59657764D01*
X41049031Y-59843603D01*
X41105845Y-60043282D01*
X41125000Y-60250000D01*
X41105845Y-60456718D01*
X41049031Y-60656397D01*
X40956494Y-60842236D01*
X40831385Y-61007908D01*
X40677964Y-61147769D01*
X40501456Y-61257059D01*
X40307871Y-61332054D01*
X40103802Y-61370201D01*
X39896198Y-61370201D01*
X39692129Y-61332054D01*
X39498544Y-61257059D01*
X39322036Y-61147769D01*
X39168615Y-61007908D01*
X39043506Y-60842236D01*
X38950969Y-60656397D01*
X38894155Y-60456718D01*
X38875000Y-60250000D01*
X38894155Y-60043282D01*
X38950969Y-59843603D01*
X39043506Y-59657764D01*
X39168615Y-59492092D01*
X39322036Y-59352231D01*
X39498544Y-59242941D01*
X39692129Y-59167946D01*
X39896198Y-59129799D01*
X40103802Y-59129799D01*
X40307871Y-59167946D01*
G37*
G36*
X60762664Y-58956602D02*
G01*
X60925000Y-59028878D01*
X61068761Y-59133327D01*
X61187664Y-59265383D01*
X61276514Y-59419274D01*
X61331425Y-59588275D01*
X61350000Y-59765000D01*
X61331425Y-59941725D01*
X61276514Y-60110726D01*
X61187664Y-60264617D01*
X61068761Y-60396673D01*
X60925000Y-60501122D01*
X60762664Y-60573398D01*
X60588849Y-60610344D01*
X60411151Y-60610344D01*
X60237336Y-60573398D01*
X60075000Y-60501122D01*
X59931239Y-60396673D01*
X59812336Y-60264617D01*
X59723486Y-60110726D01*
X59668575Y-59941725D01*
X59650000Y-59765000D01*
X59668575Y-59588275D01*
X59723486Y-59419274D01*
X59812336Y-59265383D01*
X59931239Y-59133327D01*
X60075000Y-59028878D01*
X60237336Y-58956602D01*
X60411151Y-58919656D01*
X60588849Y-58919656D01*
X60762664Y-58956602D01*
G37*
G36*
X34852210Y-58978422D02*
G01*
X34953073Y-59005448D01*
X35043505Y-59057659D01*
X35117341Y-59131495D01*
X35169552Y-59221927D01*
X35196578Y-59322790D01*
X35196578Y-59427210D01*
X35169552Y-59528073D01*
X35117341Y-59618505D01*
X35043505Y-59692341D01*
X34953073Y-59744552D01*
X34852210Y-59771578D01*
X34800000Y-59775000D01*
X34798340Y-59775000D01*
X34301660Y-59775000D01*
X34300000Y-59775000D01*
X34247790Y-59771578D01*
X34146927Y-59744552D01*
X34056495Y-59692341D01*
X33982659Y-59618505D01*
X33930448Y-59528073D01*
X33903422Y-59427210D01*
X33903422Y-59322790D01*
X33930448Y-59221927D01*
X33982659Y-59131495D01*
X34056495Y-59057659D01*
X34146927Y-59005448D01*
X34247790Y-58978422D01*
X34300000Y-58975000D01*
X34800000Y-58975000D01*
X34852210Y-58978422D01*
G37*
G36*
X29352210Y-58853422D02*
G01*
X29453073Y-58880448D01*
X29543505Y-58932659D01*
X29617341Y-59006495D01*
X29669552Y-59096927D01*
X29696578Y-59197790D01*
X29696578Y-59302210D01*
X29669552Y-59403073D01*
X29617341Y-59493505D01*
X29543505Y-59567341D01*
X29453073Y-59619552D01*
X29352210Y-59646578D01*
X29300000Y-59650000D01*
X29298340Y-59650000D01*
X28801660Y-59650000D01*
X28800000Y-59650000D01*
X28747790Y-59646578D01*
X28646927Y-59619552D01*
X28556495Y-59567341D01*
X28482659Y-59493505D01*
X28430448Y-59403073D01*
X28403422Y-59302210D01*
X28403422Y-59197790D01*
X28430448Y-59096927D01*
X28482659Y-59006495D01*
X28556495Y-58932659D01*
X28646927Y-58880448D01*
X28747790Y-58853422D01*
X28800000Y-58850000D01*
X29300000Y-58850000D01*
X29352210Y-58853422D01*
G37*
G36*
X34852210Y-57728422D02*
G01*
X34953073Y-57755448D01*
X35043505Y-57807659D01*
X35117341Y-57881495D01*
X35169552Y-57971927D01*
X35196578Y-58072790D01*
X35196578Y-58177210D01*
X35169552Y-58278073D01*
X35117341Y-58368505D01*
X35043505Y-58442341D01*
X34953073Y-58494552D01*
X34852210Y-58521578D01*
X34800000Y-58525000D01*
X34798340Y-58525000D01*
X34301660Y-58525000D01*
X34300000Y-58525000D01*
X34247790Y-58521578D01*
X34146927Y-58494552D01*
X34056495Y-58442341D01*
X33982659Y-58368505D01*
X33930448Y-58278073D01*
X33903422Y-58177210D01*
X33903422Y-58072790D01*
X33930448Y-57971927D01*
X33982659Y-57881495D01*
X34056495Y-57807659D01*
X34146927Y-57755448D01*
X34247790Y-57728422D01*
X34300000Y-57725000D01*
X34800000Y-57725000D01*
X34852210Y-57728422D01*
G37*
G36*
X29352210Y-57603422D02*
G01*
X29453073Y-57630448D01*
X29543505Y-57682659D01*
X29617341Y-57756495D01*
X29669552Y-57846927D01*
X29696578Y-57947790D01*
X29696578Y-58052210D01*
X29669552Y-58153073D01*
X29617341Y-58243505D01*
X29543505Y-58317341D01*
X29453073Y-58369552D01*
X29352210Y-58396578D01*
X29300000Y-58400000D01*
X29298340Y-58400000D01*
X28801660Y-58400000D01*
X28800000Y-58400000D01*
X28747790Y-58396578D01*
X28646927Y-58369552D01*
X28556495Y-58317341D01*
X28482659Y-58243505D01*
X28430448Y-58153073D01*
X28403422Y-58052210D01*
X28403422Y-57947790D01*
X28430448Y-57846927D01*
X28482659Y-57756495D01*
X28556495Y-57682659D01*
X28646927Y-57630448D01*
X28747790Y-57603422D01*
X28800000Y-57600000D01*
X29300000Y-57600000D01*
X29352210Y-57603422D01*
G37*
G36*
X61350000Y-58075000D02*
G01*
X59650000Y-58075000D01*
X59650000Y-56375000D01*
X61350000Y-56375000D01*
X61350000Y-58075000D01*
G37*
G36*
X34852210Y-56478422D02*
G01*
X34953073Y-56505448D01*
X35043505Y-56557659D01*
X35117341Y-56631495D01*
X35169552Y-56721927D01*
X35196578Y-56822790D01*
X35196578Y-56927210D01*
X35169552Y-57028073D01*
X35117341Y-57118505D01*
X35043505Y-57192341D01*
X34953073Y-57244552D01*
X34852210Y-57271578D01*
X34800000Y-57275000D01*
X34798340Y-57275000D01*
X34301660Y-57275000D01*
X34300000Y-57275000D01*
X34247790Y-57271578D01*
X34146927Y-57244552D01*
X34056495Y-57192341D01*
X33982659Y-57118505D01*
X33930448Y-57028073D01*
X33903422Y-56927210D01*
X33903422Y-56822790D01*
X33930448Y-56721927D01*
X33982659Y-56631495D01*
X34056495Y-56557659D01*
X34146927Y-56505448D01*
X34247790Y-56478422D01*
X34300000Y-56475000D01*
X34800000Y-56475000D01*
X34852210Y-56478422D01*
G37*
G36*
X29576537Y-56365224D02*
G01*
X29641421Y-56408579D01*
X29684776Y-56473463D01*
X29700000Y-56550000D01*
X29700000Y-56950000D01*
X29684776Y-57026537D01*
X29641421Y-57091421D01*
X29576537Y-57134776D01*
X29500000Y-57150000D01*
X28600000Y-57150000D01*
X28523463Y-57134776D01*
X28458579Y-57091421D01*
X28415224Y-57026537D01*
X28400000Y-56950000D01*
X28400000Y-56550000D01*
X28415224Y-56473463D01*
X28458579Y-56408579D01*
X28523463Y-56365224D01*
X28600000Y-56350000D01*
X29500000Y-56350000D01*
X29576537Y-56365224D01*
G37*
G36*
X35076537Y-55240224D02*
G01*
X35141421Y-55283579D01*
X35184776Y-55348463D01*
X35200000Y-55425000D01*
X35200000Y-55825000D01*
X35184776Y-55901537D01*
X35141421Y-55966421D01*
X35076537Y-56009776D01*
X35000000Y-56025000D01*
X34100000Y-56025000D01*
X34023463Y-56009776D01*
X33958579Y-55966421D01*
X33915224Y-55901537D01*
X33900000Y-55825000D01*
X33900000Y-55425000D01*
X33915224Y-55348463D01*
X33958579Y-55283579D01*
X34023463Y-55240224D01*
X34100000Y-55225000D01*
X35000000Y-55225000D01*
X35076537Y-55240224D01*
G37*
G36*
X41125000Y-54875000D02*
G01*
X38875000Y-54875000D01*
X38875000Y-52625000D01*
X41125000Y-52625000D01*
X41125000Y-54875000D01*
G37*
G36*
X29352210Y-52103422D02*
G01*
X29453073Y-52130448D01*
X29543505Y-52182659D01*
X29617341Y-52256495D01*
X29669552Y-52346927D01*
X29696578Y-52447790D01*
X29696578Y-52552210D01*
X29669552Y-52653073D01*
X29617341Y-52743505D01*
X29543505Y-52817341D01*
X29453073Y-52869552D01*
X29352210Y-52896578D01*
X29300000Y-52900000D01*
X29298340Y-52900000D01*
X28801660Y-52900000D01*
X28800000Y-52900000D01*
X28747790Y-52896578D01*
X28646927Y-52869552D01*
X28556495Y-52817341D01*
X28482659Y-52743505D01*
X28430448Y-52653073D01*
X28403422Y-52552210D01*
X28403422Y-52447790D01*
X28430448Y-52346927D01*
X28482659Y-52256495D01*
X28556495Y-52182659D01*
X28646927Y-52130448D01*
X28747790Y-52103422D01*
X28800000Y-52100000D01*
X29300000Y-52100000D01*
X29352210Y-52103422D01*
G37*
G36*
X60762664Y-50356602D02*
G01*
X60925000Y-50428878D01*
X61068761Y-50533327D01*
X61187664Y-50665383D01*
X61276514Y-50819274D01*
X61331425Y-50988275D01*
X61350000Y-51165000D01*
X61331425Y-51341725D01*
X61276514Y-51510726D01*
X61187664Y-51664617D01*
X61068761Y-51796673D01*
X60925000Y-51901122D01*
X60762664Y-51973398D01*
X60588849Y-52010344D01*
X60411151Y-52010344D01*
X60237336Y-51973398D01*
X60075000Y-51901122D01*
X59931239Y-51796673D01*
X59812336Y-51664617D01*
X59723486Y-51510726D01*
X59668575Y-51341725D01*
X59650000Y-51165000D01*
X59668575Y-50988275D01*
X59723486Y-50819274D01*
X59812336Y-50665383D01*
X59931239Y-50533327D01*
X60075000Y-50428878D01*
X60237336Y-50356602D01*
X60411151Y-50319656D01*
X60588849Y-50319656D01*
X60762664Y-50356602D01*
G37*
G36*
X29352210Y-50853422D02*
G01*
X29453073Y-50880448D01*
X29543505Y-50932659D01*
X29617341Y-51006495D01*
X29669552Y-51096927D01*
X29696578Y-51197790D01*
X29696578Y-51302210D01*
X29669552Y-51403073D01*
X29617341Y-51493505D01*
X29543505Y-51567341D01*
X29453073Y-51619552D01*
X29352210Y-51646578D01*
X29300000Y-51650000D01*
X29298340Y-51650000D01*
X28801660Y-51650000D01*
X28800000Y-51650000D01*
X28747790Y-51646578D01*
X28646927Y-51619552D01*
X28556495Y-51567341D01*
X28482659Y-51493505D01*
X28430448Y-51403073D01*
X28403422Y-51302210D01*
X28403422Y-51197790D01*
X28430448Y-51096927D01*
X28482659Y-51006495D01*
X28556495Y-50932659D01*
X28646927Y-50880448D01*
X28747790Y-50853422D01*
X28800000Y-50850000D01*
X29300000Y-50850000D01*
X29352210Y-50853422D01*
G37*
G36*
X29576537Y-49615224D02*
G01*
X29641421Y-49658579D01*
X29684776Y-49723463D01*
X29700000Y-49800000D01*
X29700000Y-50200000D01*
X29684776Y-50276537D01*
X29641421Y-50341421D01*
X29576537Y-50384776D01*
X29500000Y-50400000D01*
X28600000Y-50400000D01*
X28523463Y-50384776D01*
X28458579Y-50341421D01*
X28415224Y-50276537D01*
X28400000Y-50200000D01*
X28400000Y-49800000D01*
X28415224Y-49723463D01*
X28458579Y-49658579D01*
X28523463Y-49615224D01*
X28600000Y-49600000D01*
X29500000Y-49600000D01*
X29576537Y-49615224D01*
G37*
G36*
X61350000Y-49475000D02*
G01*
X59650000Y-49475000D01*
X59650000Y-47775000D01*
X61350000Y-47775000D01*
X61350000Y-49475000D01*
G37*
G36*
X29352210Y-45353422D02*
G01*
X29453073Y-45380448D01*
X29543505Y-45432659D01*
X29617341Y-45506495D01*
X29669552Y-45596927D01*
X29696578Y-45697790D01*
X29696578Y-45802210D01*
X29669552Y-45903073D01*
X29617341Y-45993505D01*
X29543505Y-46067341D01*
X29453073Y-46119552D01*
X29352210Y-46146578D01*
X29300000Y-46150000D01*
X29298340Y-46150000D01*
X28801660Y-46150000D01*
X28800000Y-46150000D01*
X28747790Y-46146578D01*
X28646927Y-46119552D01*
X28556495Y-46067341D01*
X28482659Y-45993505D01*
X28430448Y-45903073D01*
X28403422Y-45802210D01*
X28403422Y-45697790D01*
X28430448Y-45596927D01*
X28482659Y-45506495D01*
X28556495Y-45432659D01*
X28646927Y-45380448D01*
X28747790Y-45353422D01*
X28800000Y-45350000D01*
X29300000Y-45350000D01*
X29352210Y-45353422D01*
G37*
G36*
X29576537Y-44115224D02*
G01*
X29641421Y-44158579D01*
X29684776Y-44223463D01*
X29700000Y-44300000D01*
X29700000Y-44700000D01*
X29684776Y-44776537D01*
X29641421Y-44841421D01*
X29576537Y-44884776D01*
X29500000Y-44900000D01*
X28600000Y-44900000D01*
X28523463Y-44884776D01*
X28458579Y-44841421D01*
X28415224Y-44776537D01*
X28400000Y-44700000D01*
X28400000Y-44300000D01*
X28415224Y-44223463D01*
X28458579Y-44158579D01*
X28523463Y-44115224D01*
X28600000Y-44100000D01*
X29500000Y-44100000D01*
X29576537Y-44115224D01*
G37*
G36*
X60762664Y-41756602D02*
G01*
X60925000Y-41828878D01*
X61068761Y-41933327D01*
X61187664Y-42065383D01*
X61276514Y-42219274D01*
X61331425Y-42388275D01*
X61350000Y-42565000D01*
X61331425Y-42741725D01*
X61276514Y-42910726D01*
X61187664Y-43064617D01*
X61068761Y-43196673D01*
X60925000Y-43301122D01*
X60762664Y-43373398D01*
X60588849Y-43410344D01*
X60411151Y-43410344D01*
X60237336Y-43373398D01*
X60075000Y-43301122D01*
X59931239Y-43196673D01*
X59812336Y-43064617D01*
X59723486Y-42910726D01*
X59668575Y-42741725D01*
X59650000Y-42565000D01*
X59668575Y-42388275D01*
X59723486Y-42219274D01*
X59812336Y-42065383D01*
X59931239Y-41933327D01*
X60075000Y-41828878D01*
X60237336Y-41756602D01*
X60411151Y-41719656D01*
X60588849Y-41719656D01*
X60762664Y-41756602D01*
G37*
G36*
X61350000Y-40875000D02*
G01*
X59650000Y-40875000D01*
X59650000Y-39175000D01*
X61350000Y-39175000D01*
X61350000Y-40875000D01*
G37*
G36*
X29352210Y-39853422D02*
G01*
X29453073Y-39880448D01*
X29543505Y-39932659D01*
X29617341Y-40006495D01*
X29669552Y-40096927D01*
X29696578Y-40197790D01*
X29696578Y-40302210D01*
X29669552Y-40403073D01*
X29617341Y-40493505D01*
X29543505Y-40567341D01*
X29453073Y-40619552D01*
X29352210Y-40646578D01*
X29300000Y-40650000D01*
X29298340Y-40650000D01*
X28801660Y-40650000D01*
X28800000Y-40650000D01*
X28747790Y-40646578D01*
X28646927Y-40619552D01*
X28556495Y-40567341D01*
X28482659Y-40493505D01*
X28430448Y-40403073D01*
X28403422Y-40302210D01*
X28403422Y-40197790D01*
X28430448Y-40096927D01*
X28482659Y-40006495D01*
X28556495Y-39932659D01*
X28646927Y-39880448D01*
X28747790Y-39853422D01*
X28800000Y-39850000D01*
X29300000Y-39850000D01*
X29352210Y-39853422D01*
G37*
G36*
X29352210Y-38603422D02*
G01*
X29453073Y-38630448D01*
X29543505Y-38682659D01*
X29617341Y-38756495D01*
X29669552Y-38846927D01*
X29696578Y-38947790D01*
X29696578Y-39052210D01*
X29669552Y-39153073D01*
X29617341Y-39243505D01*
X29543505Y-39317341D01*
X29453073Y-39369552D01*
X29352210Y-39396578D01*
X29300000Y-39400000D01*
X29298340Y-39400000D01*
X28801660Y-39400000D01*
X28800000Y-39400000D01*
X28747790Y-39396578D01*
X28646927Y-39369552D01*
X28556495Y-39317341D01*
X28482659Y-39243505D01*
X28430448Y-39153073D01*
X28403422Y-39052210D01*
X28403422Y-38947790D01*
X28430448Y-38846927D01*
X28482659Y-38756495D01*
X28556495Y-38682659D01*
X28646927Y-38630448D01*
X28747790Y-38603422D01*
X28800000Y-38600000D01*
X29300000Y-38600000D01*
X29352210Y-38603422D01*
G37*
G36*
X29576537Y-37365224D02*
G01*
X29641421Y-37408579D01*
X29684776Y-37473463D01*
X29700000Y-37550000D01*
X29700000Y-37950000D01*
X29684776Y-38026537D01*
X29641421Y-38091421D01*
X29576537Y-38134776D01*
X29500000Y-38150000D01*
X28600000Y-38150000D01*
X28523463Y-38134776D01*
X28458579Y-38091421D01*
X28415224Y-38026537D01*
X28400000Y-37950000D01*
X28400000Y-37550000D01*
X28415224Y-37473463D01*
X28458579Y-37408579D01*
X28523463Y-37365224D01*
X28600000Y-37350000D01*
X29500000Y-37350000D01*
X29576537Y-37365224D01*
G37*
G36*
X60762664Y-33156602D02*
G01*
X60925000Y-33228878D01*
X61068761Y-33333327D01*
X61187664Y-33465383D01*
X61276514Y-33619274D01*
X61331425Y-33788275D01*
X61350000Y-33965000D01*
X61331425Y-34141725D01*
X61276514Y-34310726D01*
X61187664Y-34464617D01*
X61068761Y-34596673D01*
X60925000Y-34701122D01*
X60762664Y-34773398D01*
X60588849Y-34810344D01*
X60411151Y-34810344D01*
X60237336Y-34773398D01*
X60075000Y-34701122D01*
X59931239Y-34596673D01*
X59812336Y-34464617D01*
X59723486Y-34310726D01*
X59668575Y-34141725D01*
X59650000Y-33965000D01*
X59668575Y-33788275D01*
X59723486Y-33619274D01*
X59812336Y-33465383D01*
X59931239Y-33333327D01*
X60075000Y-33228878D01*
X60237336Y-33156602D01*
X60411151Y-33119656D01*
X60588849Y-33119656D01*
X60762664Y-33156602D01*
G37*
G36*
X61350000Y-32275000D02*
G01*
X59650000Y-32275000D01*
X59650000Y-30575000D01*
X61350000Y-30575000D01*
X61350000Y-32275000D01*
G37*
G36*
X60762664Y-24556602D02*
G01*
X60925000Y-24628878D01*
X61068761Y-24733327D01*
X61187664Y-24865383D01*
X61276514Y-25019274D01*
X61331425Y-25188275D01*
X61350000Y-25365000D01*
X61331425Y-25541725D01*
X61276514Y-25710726D01*
X61187664Y-25864617D01*
X61068761Y-25996673D01*
X60925000Y-26101122D01*
X60762664Y-26173398D01*
X60588849Y-26210344D01*
X60411151Y-26210344D01*
X60237336Y-26173398D01*
X60075000Y-26101122D01*
X59931239Y-25996673D01*
X59812336Y-25864617D01*
X59723486Y-25710726D01*
X59668575Y-25541725D01*
X59650000Y-25365000D01*
X59668575Y-25188275D01*
X59723486Y-25019274D01*
X59812336Y-24865383D01*
X59931239Y-24733327D01*
X60075000Y-24628878D01*
X60237336Y-24556602D01*
X60411151Y-24519656D01*
X60588849Y-24519656D01*
X60762664Y-24556602D01*
G37*
G36*
X61350000Y-23675000D02*
G01*
X59650000Y-23675000D01*
X59650000Y-21975000D01*
X61350000Y-21975000D01*
X61350000Y-23675000D01*
G37*
G36*
X29375000Y-23625000D02*
G01*
X27125000Y-23625000D01*
X27125000Y-21375000D01*
X29375000Y-21375000D01*
X29375000Y-23625000D01*
G37*
G36*
X35057871Y-21417946D02*
G01*
X35251456Y-21492941D01*
X35427964Y-21602231D01*
X35581385Y-21742092D01*
X35706494Y-21907764D01*
X35799031Y-22093603D01*
X35855845Y-22293282D01*
X35875000Y-22500000D01*
X35855845Y-22706718D01*
X35799031Y-22906397D01*
X35706494Y-23092236D01*
X35581385Y-23257908D01*
X35427964Y-23397769D01*
X35251456Y-23507059D01*
X35057871Y-23582054D01*
X34853802Y-23620201D01*
X34646198Y-23620201D01*
X34442129Y-23582054D01*
X34248544Y-23507059D01*
X34072036Y-23397769D01*
X33918615Y-23257908D01*
X33793506Y-23092236D01*
X33700969Y-22906397D01*
X33644155Y-22706718D01*
X33625000Y-22500000D01*
X33644155Y-22293282D01*
X33700969Y-22093603D01*
X33793506Y-21907764D01*
X33918615Y-21742092D01*
X34072036Y-21602231D01*
X34248544Y-21492941D01*
X34442129Y-21417946D01*
X34646198Y-21379799D01*
X34853802Y-21379799D01*
X35057871Y-21417946D01*
G37*
G36*
X32871342Y-16593060D02*
G01*
X32984381Y-16658323D01*
X33076677Y-16750619D01*
X33141940Y-16863658D01*
X33175722Y-16989737D01*
X33180000Y-17055000D01*
X33180000Y-18155000D01*
X33175722Y-18220263D01*
X33141940Y-18346342D01*
X33076677Y-18459381D01*
X32984381Y-18551677D01*
X32871342Y-18616940D01*
X32745263Y-18650722D01*
X32614737Y-18650722D01*
X32488658Y-18616940D01*
X32375619Y-18551677D01*
X32283323Y-18459381D01*
X32218060Y-18346342D01*
X32184278Y-18220263D01*
X32180000Y-18155000D01*
X32180000Y-17055000D01*
X32184278Y-16989737D01*
X32218060Y-16863658D01*
X32283323Y-16750619D01*
X32375619Y-16658323D01*
X32488658Y-16593060D01*
X32614737Y-16559278D01*
X32745263Y-16559278D01*
X32871342Y-16593060D01*
G37*
G36*
X41511342Y-16593060D02*
G01*
X41624381Y-16658323D01*
X41716677Y-16750619D01*
X41781940Y-16863658D01*
X41815722Y-16989737D01*
X41820000Y-17055000D01*
X41820000Y-18155000D01*
X41815722Y-18220263D01*
X41781940Y-18346342D01*
X41716677Y-18459381D01*
X41624381Y-18551677D01*
X41511342Y-18616940D01*
X41385263Y-18650722D01*
X41254737Y-18650722D01*
X41128658Y-18616940D01*
X41015619Y-18551677D01*
X40923323Y-18459381D01*
X40858060Y-18346342D01*
X40824278Y-18220263D01*
X40820000Y-18155000D01*
X40820000Y-17055000D01*
X40824278Y-16989737D01*
X40858060Y-16863658D01*
X40923323Y-16750619D01*
X41015619Y-16658323D01*
X41128658Y-16593060D01*
X41254737Y-16559278D01*
X41385263Y-16559278D01*
X41511342Y-16593060D01*
G37*
G36*
X60762664Y-15956602D02*
G01*
X60925000Y-16028878D01*
X61068761Y-16133327D01*
X61187664Y-16265383D01*
X61276514Y-16419274D01*
X61331425Y-16588275D01*
X61350000Y-16765000D01*
X61331425Y-16941725D01*
X61276514Y-17110726D01*
X61187664Y-17264617D01*
X61068761Y-17396673D01*
X60925000Y-17501122D01*
X60762664Y-17573398D01*
X60588849Y-17610344D01*
X60411151Y-17610344D01*
X60237336Y-17573398D01*
X60075000Y-17501122D01*
X59931239Y-17396673D01*
X59812336Y-17264617D01*
X59723486Y-17110726D01*
X59668575Y-16941725D01*
X59650000Y-16765000D01*
X59668575Y-16588275D01*
X59723486Y-16419274D01*
X59812336Y-16265383D01*
X59931239Y-16133327D01*
X60075000Y-16028878D01*
X60237336Y-15956602D01*
X60411151Y-15919656D01*
X60588849Y-15919656D01*
X60762664Y-15956602D01*
G37*
G36*
X34137174Y-16784937D02*
G01*
X34166436Y-16784937D01*
X34188978Y-16793141D01*
X34210237Y-16796509D01*
X34240265Y-16811809D01*
X34272500Y-16823542D01*
X34286735Y-16835487D01*
X34300658Y-16842581D01*
X34329175Y-16871098D01*
X34358964Y-16896094D01*
X34365511Y-16907434D01*
X34372418Y-16914341D01*
X34394345Y-16957375D01*
X34415400Y-16993843D01*
X34416708Y-17001266D01*
X34418490Y-17004762D01*
X34428770Y-17069668D01*
X34435000Y-17105000D01*
X34428769Y-17140335D01*
X34418490Y-17205237D01*
X34416709Y-17208731D01*
X34415400Y-17216157D01*
X34394340Y-17252631D01*
X34372418Y-17295658D01*
X34365512Y-17302563D01*
X34358964Y-17313906D01*
X34329168Y-17338907D01*
X34300658Y-17367418D01*
X34286738Y-17374510D01*
X34272500Y-17386458D01*
X34240258Y-17398193D01*
X34210237Y-17413490D01*
X34188983Y-17416856D01*
X34166436Y-17425063D01*
X34137168Y-17425063D01*
X34110000Y-17429366D01*
X34082832Y-17425063D01*
X34053564Y-17425063D01*
X34031017Y-17416856D01*
X34009762Y-17413490D01*
X33979737Y-17398191D01*
X33947500Y-17386458D01*
X33933262Y-17374511D01*
X33919341Y-17367418D01*
X33890824Y-17338901D01*
X33861036Y-17313906D01*
X33854488Y-17302565D01*
X33847581Y-17295658D01*
X33825650Y-17252617D01*
X33804600Y-17216157D01*
X33803291Y-17208734D01*
X33801509Y-17205237D01*
X33791220Y-17140279D01*
X33785000Y-17105000D01*
X33791220Y-17069723D01*
X33801509Y-17004762D01*
X33803291Y-17001263D01*
X33804600Y-16993843D01*
X33825646Y-16957390D01*
X33847581Y-16914341D01*
X33854489Y-16907432D01*
X33861036Y-16896094D01*
X33890818Y-16871103D01*
X33919341Y-16842581D01*
X33933265Y-16835485D01*
X33947500Y-16823542D01*
X33979731Y-16811810D01*
X34009762Y-16796509D01*
X34031022Y-16793141D01*
X34053564Y-16784937D01*
X34082825Y-16784937D01*
X34110000Y-16780633D01*
X34137174Y-16784937D01*
G37*
G36*
X39917174Y-16784937D02*
G01*
X39946436Y-16784937D01*
X39968978Y-16793141D01*
X39990237Y-16796509D01*
X40020265Y-16811809D01*
X40052500Y-16823542D01*
X40066735Y-16835487D01*
X40080658Y-16842581D01*
X40109175Y-16871098D01*
X40138964Y-16896094D01*
X40145511Y-16907434D01*
X40152418Y-16914341D01*
X40174345Y-16957375D01*
X40195400Y-16993843D01*
X40196708Y-17001266D01*
X40198490Y-17004762D01*
X40208770Y-17069668D01*
X40215000Y-17105000D01*
X40208769Y-17140335D01*
X40198490Y-17205237D01*
X40196709Y-17208731D01*
X40195400Y-17216157D01*
X40174340Y-17252631D01*
X40152418Y-17295658D01*
X40145512Y-17302563D01*
X40138964Y-17313906D01*
X40109168Y-17338907D01*
X40080658Y-17367418D01*
X40066738Y-17374510D01*
X40052500Y-17386458D01*
X40020258Y-17398193D01*
X39990237Y-17413490D01*
X39968983Y-17416856D01*
X39946436Y-17425063D01*
X39917168Y-17425063D01*
X39890000Y-17429366D01*
X39862832Y-17425063D01*
X39833564Y-17425063D01*
X39811017Y-17416856D01*
X39789762Y-17413490D01*
X39759737Y-17398191D01*
X39727500Y-17386458D01*
X39713262Y-17374511D01*
X39699341Y-17367418D01*
X39670824Y-17338901D01*
X39641036Y-17313906D01*
X39634488Y-17302565D01*
X39627581Y-17295658D01*
X39605650Y-17252617D01*
X39584600Y-17216157D01*
X39583291Y-17208734D01*
X39581509Y-17205237D01*
X39571220Y-17140279D01*
X39565000Y-17105000D01*
X39571220Y-17069723D01*
X39581509Y-17004762D01*
X39583291Y-17001263D01*
X39584600Y-16993843D01*
X39605646Y-16957390D01*
X39627581Y-16914341D01*
X39634489Y-16907432D01*
X39641036Y-16896094D01*
X39670818Y-16871103D01*
X39699341Y-16842581D01*
X39713265Y-16835485D01*
X39727500Y-16823542D01*
X39759731Y-16811810D01*
X39789762Y-16796509D01*
X39811022Y-16793141D01*
X39833564Y-16784937D01*
X39862825Y-16784937D01*
X39890000Y-16780633D01*
X39917174Y-16784937D01*
G37*
G36*
X61350000Y-15075000D02*
G01*
X59650000Y-15075000D01*
X59650000Y-13375000D01*
X61350000Y-13375000D01*
X61350000Y-15075000D01*
G37*
G36*
X32871342Y-12563060D02*
G01*
X32984381Y-12628323D01*
X33076677Y-12720619D01*
X33141940Y-12833658D01*
X33175722Y-12959737D01*
X33180000Y-13025000D01*
X33180000Y-13825000D01*
X33175722Y-13890263D01*
X33141940Y-14016342D01*
X33076677Y-14129381D01*
X32984381Y-14221677D01*
X32871342Y-14286940D01*
X32745263Y-14320722D01*
X32614737Y-14320722D01*
X32488658Y-14286940D01*
X32375619Y-14221677D01*
X32283323Y-14129381D01*
X32218060Y-14016342D01*
X32184278Y-13890263D01*
X32180000Y-13825000D01*
X32180000Y-13025000D01*
X32184278Y-12959737D01*
X32218060Y-12833658D01*
X32283323Y-12720619D01*
X32375619Y-12628323D01*
X32488658Y-12563060D01*
X32614737Y-12529278D01*
X32745263Y-12529278D01*
X32871342Y-12563060D01*
G37*
G36*
X41511342Y-12563060D02*
G01*
X41624381Y-12628323D01*
X41716677Y-12720619D01*
X41781940Y-12833658D01*
X41815722Y-12959737D01*
X41820000Y-13025000D01*
X41820000Y-13825000D01*
X41815722Y-13890263D01*
X41781940Y-14016342D01*
X41716677Y-14129381D01*
X41624381Y-14221677D01*
X41511342Y-14286940D01*
X41385263Y-14320722D01*
X41254737Y-14320722D01*
X41128658Y-14286940D01*
X41015619Y-14221677D01*
X40923323Y-14129381D01*
X40858060Y-14016342D01*
X40824278Y-13890263D01*
X40820000Y-13825000D01*
X40820000Y-13025000D01*
X40824278Y-12959737D01*
X40858060Y-12833658D01*
X40923323Y-12720619D01*
X41015619Y-12628323D01*
X41128658Y-12563060D01*
X41254737Y-12529278D01*
X41385263Y-12529278D01*
X41511342Y-12563060D01*
G37*
M02*
