%TF.GenerationSoftware,KiCad,Pcbnew,8.0.8*%
%TF.CreationDate,2025-01-27T12:16:44-05:00*%
%TF.ProjectId,CAN Board,43414e20-426f-4617-9264-2e6b69636164,rev?*%
%TF.SameCoordinates,Original*%
%TF.FileFunction,Copper,L1,Top*%
%TF.FilePolarity,Positive*%
%FSLAX46Y46*%
G04 Gerber Fmt 4.6, Leading zero omitted, Abs format (unit mm)*
G04 Created by KiCad (PCBNEW 8.0.8) date 2025-01-27 12:16:44*
%MOMM*%
%LPD*%
G01*
G04 APERTURE LIST*
G04 Aperture macros list*
%AMRoundRect*
0 Rectangle with rounded corners*
0 $1 Rounding radius*
0 $2 $3 $4 $5 $6 $7 $8 $9 X,Y pos of 4 corners*
0 Add a 4 corners polygon primitive as box body*
4,1,4,$2,$3,$4,$5,$6,$7,$8,$9,$2,$3,0*
0 Add four circle primitives for the rounded corners*
1,1,$1+$1,$2,$3*
1,1,$1+$1,$4,$5*
1,1,$1+$1,$6,$7*
1,1,$1+$1,$8,$9*
0 Add four rect primitives between the rounded corners*
20,1,$1+$1,$2,$3,$4,$5,0*
20,1,$1+$1,$4,$5,$6,$7,0*
20,1,$1+$1,$6,$7,$8,$9,0*
20,1,$1+$1,$8,$9,$2,$3,0*%
G04 Aperture macros list end*
%TA.AperFunction,SMDPad,CuDef*%
%ADD10RoundRect,0.225000X0.250000X-0.225000X0.250000X0.225000X-0.250000X0.225000X-0.250000X-0.225000X0*%
%TD*%
%TA.AperFunction,SMDPad,CuDef*%
%ADD11R,1.400000X1.200000*%
%TD*%
%TA.AperFunction,SMDPad,CuDef*%
%ADD12RoundRect,0.225000X0.225000X0.250000X-0.225000X0.250000X-0.225000X-0.250000X0.225000X-0.250000X0*%
%TD*%
%TA.AperFunction,SMDPad,CuDef*%
%ADD13RoundRect,0.200000X0.200000X0.275000X-0.200000X0.275000X-0.200000X-0.275000X0.200000X-0.275000X0*%
%TD*%
%TA.AperFunction,SMDPad,CuDef*%
%ADD14RoundRect,0.150000X0.150000X0.425000X-0.150000X0.425000X-0.150000X-0.425000X0.150000X-0.425000X0*%
%TD*%
%TA.AperFunction,SMDPad,CuDef*%
%ADD15RoundRect,0.075000X0.075000X0.500000X-0.075000X0.500000X-0.075000X-0.500000X0.075000X-0.500000X0*%
%TD*%
%TA.AperFunction,ComponentPad*%
%ADD16O,1.000000X2.100000*%
%TD*%
%TA.AperFunction,ComponentPad*%
%ADD17O,1.000000X1.800000*%
%TD*%
%TA.AperFunction,SMDPad,CuDef*%
%ADD18RoundRect,0.225000X-0.250000X0.225000X-0.250000X-0.225000X0.250000X-0.225000X0.250000X0.225000X0*%
%TD*%
%TA.AperFunction,SMDPad,CuDef*%
%ADD19R,0.762000X0.254000*%
%TD*%
%TA.AperFunction,SMDPad,CuDef*%
%ADD20R,0.254000X0.762000*%
%TD*%
%TA.AperFunction,SMDPad,CuDef*%
%ADD21R,3.352800X3.352800*%
%TD*%
%TA.AperFunction,SMDPad,CuDef*%
%ADD22RoundRect,0.200000X-0.200000X-0.275000X0.200000X-0.275000X0.200000X0.275000X-0.200000X0.275000X0*%
%TD*%
%TA.AperFunction,SMDPad,CuDef*%
%ADD23RoundRect,0.225000X-0.225000X-0.250000X0.225000X-0.250000X0.225000X0.250000X-0.225000X0.250000X0*%
%TD*%
%TA.AperFunction,SMDPad,CuDef*%
%ADD24RoundRect,0.200000X-0.275000X0.200000X-0.275000X-0.200000X0.275000X-0.200000X0.275000X0.200000X0*%
%TD*%
%TA.AperFunction,ComponentPad*%
%ADD25RoundRect,0.200000X-0.450000X0.200000X-0.450000X-0.200000X0.450000X-0.200000X0.450000X0.200000X0*%
%TD*%
%TA.AperFunction,ComponentPad*%
%ADD26O,1.300000X0.800000*%
%TD*%
%TA.AperFunction,ComponentPad*%
%ADD27R,1.700000X1.700000*%
%TD*%
%TA.AperFunction,ComponentPad*%
%ADD28O,1.700000X1.700000*%
%TD*%
%TA.AperFunction,SMDPad,CuDef*%
%ADD29RoundRect,0.150000X-0.650000X-0.150000X0.650000X-0.150000X0.650000X0.150000X-0.650000X0.150000X0*%
%TD*%
%TA.AperFunction,ComponentPad*%
%ADD30R,2.250000X2.250000*%
%TD*%
%TA.AperFunction,ComponentPad*%
%ADD31C,2.250000*%
%TD*%
%TA.AperFunction,SMDPad,CuDef*%
%ADD32RoundRect,0.150000X-0.150000X0.512500X-0.150000X-0.512500X0.150000X-0.512500X0.150000X0.512500X0*%
%TD*%
%TA.AperFunction,SMDPad,CuDef*%
%ADD33RoundRect,0.237500X0.287500X0.237500X-0.287500X0.237500X-0.287500X-0.237500X0.287500X-0.237500X0*%
%TD*%
%TA.AperFunction,SMDPad,CuDef*%
%ADD34RoundRect,0.050000X-0.387500X-0.050000X0.387500X-0.050000X0.387500X0.050000X-0.387500X0.050000X0*%
%TD*%
%TA.AperFunction,SMDPad,CuDef*%
%ADD35RoundRect,0.050000X-0.050000X-0.387500X0.050000X-0.387500X0.050000X0.387500X-0.050000X0.387500X0*%
%TD*%
%TA.AperFunction,HeatsinkPad*%
%ADD36R,3.200000X3.200000*%
%TD*%
%TA.AperFunction,SMDPad,CuDef*%
%ADD37RoundRect,0.237500X0.250000X0.237500X-0.250000X0.237500X-0.250000X-0.237500X0.250000X-0.237500X0*%
%TD*%
%TA.AperFunction,SMDPad,CuDef*%
%ADD38RoundRect,0.112500X-0.237500X0.112500X-0.237500X-0.112500X0.237500X-0.112500X0.237500X0.112500X0*%
%TD*%
%TA.AperFunction,ViaPad*%
%ADD39C,0.610000*%
%TD*%
%TA.AperFunction,ViaPad*%
%ADD40C,0.457200*%
%TD*%
%TA.AperFunction,Conductor*%
%ADD41C,0.152400*%
%TD*%
%TA.AperFunction,Conductor*%
%ADD42C,0.508000*%
%TD*%
%TA.AperFunction,Conductor*%
%ADD43C,0.304800*%
%TD*%
%TA.AperFunction,Conductor*%
%ADD44C,0.254000*%
%TD*%
G04 APERTURE END LIST*
D10*
%TO.P,C48,1*%
%TO.N,+5V*%
X43000000Y-52275000D03*
%TO.P,C48,2*%
%TO.N,GND*%
X43000000Y-50725000D03*
%TD*%
D11*
%TO.P,Y7,1,1*%
%TO.N,/CAN Output 6/OSC1*%
X44900000Y-57850000D03*
%TO.P,Y7,2,2*%
%TO.N,GND*%
X47100000Y-57850000D03*
%TO.P,Y7,3,3*%
%TO.N,/CAN Output 6/OSC2*%
X47100000Y-56150000D03*
%TO.P,Y7,4,4*%
%TO.N,GND*%
X44900000Y-56150000D03*
%TD*%
D12*
%TO.P,C54,1*%
%TO.N,/CAN Output 6/OSC2*%
X46775000Y-54500000D03*
%TO.P,C54,2*%
%TO.N,GND*%
X45225000Y-54500000D03*
%TD*%
D13*
%TO.P,R2,1*%
%TO.N,/XOUT*%
X35825000Y-49500000D03*
%TO.P,R2,2*%
%TO.N,Net-(C2-Pad1)*%
X34175000Y-49500000D03*
%TD*%
D10*
%TO.P,C34,1*%
%TO.N,+5V*%
X43500000Y-36275000D03*
%TO.P,C34,2*%
%TO.N,GND*%
X43500000Y-34725000D03*
%TD*%
D14*
%TO.P,J3,A1,GND*%
%TO.N,GND*%
X40200000Y-18180000D03*
%TO.P,J3,A4,VBUS*%
%TO.N,+5V*%
X39400000Y-18180000D03*
D15*
%TO.P,J3,A5,CC1*%
%TO.N,unconnected-(J3-CC1-PadA5)*%
X38250000Y-18180000D03*
%TO.P,J3,A6,D+*%
%TO.N,D+*%
X37250000Y-18180000D03*
%TO.P,J3,A7,D-*%
%TO.N,D-*%
X36750000Y-18180000D03*
%TO.P,J3,A8,SBU1*%
%TO.N,unconnected-(J3-SBU1-PadA8)*%
X35750000Y-18180000D03*
D14*
%TO.P,J3,A9,VBUS*%
%TO.N,+5V*%
X34600000Y-18180000D03*
%TO.P,J3,A12,GND*%
%TO.N,GND*%
X33800000Y-18180000D03*
%TO.P,J3,B1,GND*%
X33800000Y-18180000D03*
%TO.P,J3,B4,VBUS*%
%TO.N,+5V*%
X34600000Y-18180000D03*
D15*
%TO.P,J3,B5,CC2*%
%TO.N,unconnected-(J3-CC2-PadB5)*%
X35250000Y-18180000D03*
%TO.P,J3,B6,D+*%
%TO.N,D+*%
X36250000Y-18180000D03*
%TO.P,J3,B7,D-*%
%TO.N,D-*%
X37750000Y-18180000D03*
%TO.P,J3,B8,SBU2*%
%TO.N,unconnected-(J3-SBU2-PadB8)*%
X38750000Y-18180000D03*
D14*
%TO.P,J3,B9,VBUS*%
%TO.N,+5V*%
X39400000Y-18180000D03*
%TO.P,J3,B12,GND*%
%TO.N,GND*%
X40200000Y-18180000D03*
D16*
%TO.P,J3,S1,SHIELD*%
X41320000Y-17605000D03*
D17*
X41320000Y-13425000D03*
D16*
X32680000Y-17605000D03*
D17*
X32680000Y-13425000D03*
%TD*%
D18*
%TO.P,C56,1*%
%TO.N,+3V3*%
X43000000Y-53725000D03*
%TO.P,C56,2*%
%TO.N,GND*%
X43000000Y-55275000D03*
%TD*%
D11*
%TO.P,Y1,1,1*%
%TO.N,Net-(C2-Pad1)*%
X33900000Y-46350000D03*
%TO.P,Y1,2,2*%
%TO.N,GND*%
X36100000Y-46350000D03*
%TO.P,Y1,3,3*%
%TO.N,/XIN*%
X36100000Y-44650000D03*
%TO.P,Y1,4,4*%
%TO.N,GND*%
X33900000Y-44650000D03*
%TD*%
D19*
%TO.P,U8,1,RXCAN*%
%TO.N,Net-(U8-RXCAN)*%
X49574300Y-47500000D03*
%TO.P,U8,2,CLKO/SOF*%
%TO.N,unconnected-(U8-CLKO{slash}SOF-Pad2)*%
X49574300Y-47999999D03*
%TO.P,U8,3,nINT*%
%TO.N,CAN5 INT*%
X49574300Y-48500001D03*
%TO.P,U8,4,OSC2*%
%TO.N,/CAN Output 5/OSC2*%
X49574300Y-49000000D03*
%TO.P,U8,5,OSC1*%
%TO.N,/CAN Output 5/OSC1*%
X49574300Y-49499999D03*
%TO.P,U8,6,NC*%
%TO.N,unconnected-(U8-NC-Pad6)*%
X49574300Y-50000001D03*
%TO.P,U8,7,VSS*%
%TO.N,GND*%
X49574300Y-50500000D03*
D20*
%TO.P,U8,8,nINT1/GPIO1*%
%TO.N,CAN5 INT1*%
X50500000Y-51425700D03*
%TO.P,U8,9,nINT0/GPIO0/XSTBY*%
%TO.N,unconnected-(U8-nINT0{slash}GPIO0{slash}XSTBY-Pad9)*%
X50999999Y-51425700D03*
%TO.P,U8,10,GND*%
%TO.N,GND*%
X51500001Y-51425700D03*
%TO.P,U8,11,RXD*%
%TO.N,Net-(U8-RXCAN)*%
X52000000Y-51425700D03*
%TO.P,U8,12,NC*%
%TO.N,unconnected-(U8-NC-Pad12)*%
X52499999Y-51425700D03*
%TO.P,U8,13,VCC*%
%TO.N,+5V*%
X53000001Y-51425700D03*
%TO.P,U8,14,VIO*%
%TO.N,+3V3*%
X53500000Y-51425700D03*
D19*
%TO.P,U8,15,NC*%
%TO.N,unconnected-(U8-NC-Pad15)*%
X54425700Y-50500000D03*
%TO.P,U8,16,CANL*%
%TO.N,CAN5L*%
X54425700Y-50000001D03*
%TO.P,U8,17,CANH*%
%TO.N,CAN5H*%
X54425700Y-49499999D03*
%TO.P,U8,18,STBY*%
%TO.N,unconnected-(U8-STBY-Pad18)*%
X54425700Y-49000000D03*
%TO.P,U8,19,NC*%
%TO.N,unconnected-(U8-NC-Pad19)*%
X54425700Y-48500001D03*
%TO.P,U8,20,TXD*%
%TO.N,Net-(U8-TXCAN)*%
X54425700Y-47999999D03*
%TO.P,U8,21,NC*%
%TO.N,unconnected-(U8-NC-Pad21)*%
X54425700Y-47500000D03*
D20*
%TO.P,U8,22,SCK*%
%TO.N,SPI0 SCK*%
X53500000Y-46574300D03*
%TO.P,U8,23,SDI*%
%TO.N,SPI0 TX*%
X53000001Y-46574300D03*
%TO.P,U8,24,SDO*%
%TO.N,SPI0 RX*%
X52499999Y-46574300D03*
%TO.P,U8,25,nCS*%
%TO.N,SPI0 5CS*%
X52000000Y-46574300D03*
%TO.P,U8,26,VDD*%
%TO.N,+3V3*%
X51500001Y-46574300D03*
%TO.P,U8,27,NC*%
%TO.N,unconnected-(U8-NC-Pad27)*%
X50999999Y-46574300D03*
%TO.P,U8,28,TXCAN*%
%TO.N,Net-(U8-TXCAN)*%
X50500000Y-46574300D03*
D21*
%TO.P,U8,29,EP*%
%TO.N,unconnected-(U8-EP-Pad29)*%
X52000000Y-49000000D03*
%TD*%
D22*
%TO.P,R12,1*%
%TO.N,CAN3H*%
X56175000Y-30000000D03*
%TO.P,R12,2*%
%TO.N,Net-(C37-Pad1)*%
X57825000Y-30000000D03*
%TD*%
D10*
%TO.P,C11,1*%
%TO.N,+3V3*%
X28000000Y-34775000D03*
%TO.P,C11,2*%
%TO.N,GND*%
X28000000Y-33225000D03*
%TD*%
D12*
%TO.P,C51,1*%
%TO.N,Net-(C51-Pad1)*%
X57775000Y-49000000D03*
%TO.P,C51,2*%
%TO.N,GND*%
X56225000Y-49000000D03*
%TD*%
D10*
%TO.P,C41,1*%
%TO.N,+5V*%
X43000000Y-44275000D03*
%TO.P,C41,2*%
%TO.N,GND*%
X43000000Y-42725000D03*
%TD*%
%TO.P,C8,1*%
%TO.N,+3V3*%
X37500000Y-25275000D03*
%TO.P,C8,2*%
%TO.N,GND*%
X37500000Y-23725000D03*
%TD*%
D23*
%TO.P,C9,1*%
%TO.N,+3V3*%
X34225000Y-25500000D03*
%TO.P,C9,2*%
%TO.N,GND*%
X35775000Y-25500000D03*
%TD*%
D10*
%TO.P,C13,1*%
%TO.N,+3V3*%
X31000000Y-34775000D03*
%TO.P,C13,2*%
%TO.N,GND*%
X31000000Y-33225000D03*
%TD*%
D24*
%TO.P,R4,1*%
%TO.N,D-*%
X38500000Y-20175000D03*
%TO.P,R4,2*%
%TO.N,/ucd-*%
X38500000Y-21825000D03*
%TD*%
D12*
%TO.P,C33,1*%
%TO.N,/CAN Output 3/OSC2*%
X47275000Y-30500000D03*
%TO.P,C33,2*%
%TO.N,GND*%
X45725000Y-30500000D03*
%TD*%
D23*
%TO.P,C25,1*%
%TO.N,/CAN Output 2/OSC1*%
X45725000Y-27500000D03*
%TO.P,C25,2*%
%TO.N,GND*%
X47275000Y-27500000D03*
%TD*%
D25*
%TO.P,J2,1,Pin_1*%
%TO.N,SPI1 TX*%
X34550000Y-55625000D03*
D26*
%TO.P,J2,2,Pin_2*%
%TO.N,SPI1 RX*%
X34550000Y-56875000D03*
%TO.P,J2,3,Pin_3*%
%TO.N,SPI1 CSn*%
X34550000Y-58125000D03*
%TO.P,J2,4,Pin_4*%
%TO.N,SPI1 SCK*%
X34550000Y-59375000D03*
%TD*%
D12*
%TO.P,C22,1*%
%TO.N,Net-(C22-Pad1)*%
X57775000Y-16500000D03*
%TO.P,C22,2*%
%TO.N,GND*%
X56225000Y-16500000D03*
%TD*%
D23*
%TO.P,C53,1*%
%TO.N,/CAN Output 6/OSC1*%
X45225000Y-59500000D03*
%TO.P,C53,2*%
%TO.N,GND*%
X46775000Y-59500000D03*
%TD*%
D19*
%TO.P,U4,1,RXCAN*%
%TO.N,Net-(U4-RXCAN)*%
X49574300Y-15500000D03*
%TO.P,U4,2,CLKO/SOF*%
%TO.N,unconnected-(U4-CLKO{slash}SOF-Pad2)*%
X49574300Y-15999999D03*
%TO.P,U4,3,nINT*%
%TO.N,CAN1 INT*%
X49574300Y-16500001D03*
%TO.P,U4,4,OSC2*%
%TO.N,/CAN Output 1/OSC2*%
X49574300Y-17000000D03*
%TO.P,U4,5,OSC1*%
%TO.N,/CAN Output 1/OSC1*%
X49574300Y-17499999D03*
%TO.P,U4,6,NC*%
%TO.N,unconnected-(U4-NC-Pad6)*%
X49574300Y-18000001D03*
%TO.P,U4,7,VSS*%
%TO.N,GND*%
X49574300Y-18500000D03*
D20*
%TO.P,U4,8,nINT1/GPIO1*%
%TO.N,CAN1 INT1*%
X50500000Y-19425700D03*
%TO.P,U4,9,nINT0/GPIO0/XSTBY*%
%TO.N,unconnected-(U4-nINT0{slash}GPIO0{slash}XSTBY-Pad9)*%
X50999999Y-19425700D03*
%TO.P,U4,10,GND*%
%TO.N,GND*%
X51500001Y-19425700D03*
%TO.P,U4,11,RXD*%
%TO.N,Net-(U4-RXCAN)*%
X52000000Y-19425700D03*
%TO.P,U4,12,NC*%
%TO.N,unconnected-(U4-NC-Pad12)*%
X52499999Y-19425700D03*
%TO.P,U4,13,VCC*%
%TO.N,+5V*%
X53000001Y-19425700D03*
%TO.P,U4,14,VIO*%
%TO.N,+3V3*%
X53500000Y-19425700D03*
D19*
%TO.P,U4,15,NC*%
%TO.N,unconnected-(U4-NC-Pad15)*%
X54425700Y-18500000D03*
%TO.P,U4,16,CANL*%
%TO.N,CAN1L*%
X54425700Y-18000001D03*
%TO.P,U4,17,CANH*%
%TO.N,CAN1H*%
X54425700Y-17499999D03*
%TO.P,U4,18,STBY*%
%TO.N,unconnected-(U4-STBY-Pad18)*%
X54425700Y-17000000D03*
%TO.P,U4,19,NC*%
%TO.N,unconnected-(U4-NC-Pad19)*%
X54425700Y-16500001D03*
%TO.P,U4,20,TXD*%
%TO.N,Net-(U4-TXCAN)*%
X54425700Y-15999999D03*
%TO.P,U4,21,NC*%
%TO.N,unconnected-(U4-NC-Pad21)*%
X54425700Y-15500000D03*
D20*
%TO.P,U4,22,SCK*%
%TO.N,SPI0 SCK*%
X53500000Y-14574300D03*
%TO.P,U4,23,SDI*%
%TO.N,SPI0 TX*%
X53000001Y-14574300D03*
%TO.P,U4,24,SDO*%
%TO.N,SPI0 RX*%
X52499999Y-14574300D03*
%TO.P,U4,25,nCS*%
%TO.N,SPI0 1CS*%
X52000000Y-14574300D03*
%TO.P,U4,26,VDD*%
%TO.N,+3V3*%
X51500001Y-14574300D03*
%TO.P,U4,27,NC*%
%TO.N,unconnected-(U4-NC-Pad27)*%
X50999999Y-14574300D03*
%TO.P,U4,28,TXCAN*%
%TO.N,Net-(U4-TXCAN)*%
X50500000Y-14574300D03*
D21*
%TO.P,U4,29,EP*%
%TO.N,unconnected-(U4-EP-Pad29)*%
X52000000Y-17000000D03*
%TD*%
D23*
%TO.P,C32,1*%
%TO.N,/CAN Output 3/OSC1*%
X45725000Y-35500000D03*
%TO.P,C32,2*%
%TO.N,GND*%
X47275000Y-35500000D03*
%TD*%
D10*
%TO.P,C27,1*%
%TO.N,+5V*%
X43500000Y-28275000D03*
%TO.P,C27,2*%
%TO.N,GND*%
X43500000Y-26725000D03*
%TD*%
D11*
%TO.P,Y3,1,1*%
%TO.N,/CAN Output 2/OSC1*%
X45400000Y-25850000D03*
%TO.P,Y3,2,2*%
%TO.N,GND*%
X47600000Y-25850000D03*
%TO.P,Y3,3,3*%
%TO.N,/CAN Output 2/OSC2*%
X47600000Y-24150000D03*
%TO.P,Y3,4,4*%
%TO.N,GND*%
X45400000Y-24150000D03*
%TD*%
D12*
%TO.P,C36,1*%
%TO.N,Net-(C36-Pad1)*%
X57775000Y-33500000D03*
%TO.P,C36,2*%
%TO.N,GND*%
X56225000Y-33500000D03*
%TD*%
%TO.P,C40,1*%
%TO.N,/CAN Output 4/OSC2*%
X46775000Y-38500000D03*
%TO.P,C40,2*%
%TO.N,GND*%
X45225000Y-38500000D03*
%TD*%
D22*
%TO.P,R15,1*%
%TO.N,CAN5L*%
X56175000Y-52500000D03*
%TO.P,R15,2*%
%TO.N,Net-(C50-Pad1)*%
X57825000Y-52500000D03*
%TD*%
D12*
%TO.P,C43,1*%
%TO.N,Net-(C43-Pad1)*%
X57775000Y-42500000D03*
%TO.P,C43,2*%
%TO.N,GND*%
X56225000Y-42500000D03*
%TD*%
D19*
%TO.P,U9,1,RXCAN*%
%TO.N,Net-(U9-RXCAN)*%
X49574300Y-55500000D03*
%TO.P,U9,2,CLKO/SOF*%
%TO.N,unconnected-(U9-CLKO{slash}SOF-Pad2)*%
X49574300Y-55999999D03*
%TO.P,U9,3,nINT*%
%TO.N,CAN6 INT*%
X49574300Y-56500001D03*
%TO.P,U9,4,OSC2*%
%TO.N,/CAN Output 6/OSC2*%
X49574300Y-57000000D03*
%TO.P,U9,5,OSC1*%
%TO.N,/CAN Output 6/OSC1*%
X49574300Y-57499999D03*
%TO.P,U9,6,NC*%
%TO.N,unconnected-(U9-NC-Pad6)*%
X49574300Y-58000001D03*
%TO.P,U9,7,VSS*%
%TO.N,GND*%
X49574300Y-58500000D03*
D20*
%TO.P,U9,8,nINT1/GPIO1*%
%TO.N,CAN6 INT1*%
X50500000Y-59425700D03*
%TO.P,U9,9,nINT0/GPIO0/XSTBY*%
%TO.N,unconnected-(U9-nINT0{slash}GPIO0{slash}XSTBY-Pad9)*%
X50999999Y-59425700D03*
%TO.P,U9,10,GND*%
%TO.N,GND*%
X51500001Y-59425700D03*
%TO.P,U9,11,RXD*%
%TO.N,Net-(U9-RXCAN)*%
X52000000Y-59425700D03*
%TO.P,U9,12,NC*%
%TO.N,unconnected-(U9-NC-Pad12)*%
X52499999Y-59425700D03*
%TO.P,U9,13,VCC*%
%TO.N,+5V*%
X53000001Y-59425700D03*
%TO.P,U9,14,VIO*%
%TO.N,+3V3*%
X53500000Y-59425700D03*
D19*
%TO.P,U9,15,NC*%
%TO.N,unconnected-(U9-NC-Pad15)*%
X54425700Y-58500000D03*
%TO.P,U9,16,CANL*%
%TO.N,CAN6L*%
X54425700Y-58000001D03*
%TO.P,U9,17,CANH*%
%TO.N,CAN6H*%
X54425700Y-57499999D03*
%TO.P,U9,18,STBY*%
%TO.N,unconnected-(U9-STBY-Pad18)*%
X54425700Y-57000000D03*
%TO.P,U9,19,NC*%
%TO.N,unconnected-(U9-NC-Pad19)*%
X54425700Y-56500001D03*
%TO.P,U9,20,TXD*%
%TO.N,Net-(U9-TXCAN)*%
X54425700Y-55999999D03*
%TO.P,U9,21,NC*%
%TO.N,unconnected-(U9-NC-Pad21)*%
X54425700Y-55500000D03*
D20*
%TO.P,U9,22,SCK*%
%TO.N,SPI0 SCK*%
X53500000Y-54574300D03*
%TO.P,U9,23,SDI*%
%TO.N,SPI0 TX*%
X53000001Y-54574300D03*
%TO.P,U9,24,SDO*%
%TO.N,SPI0 RX*%
X52499999Y-54574300D03*
%TO.P,U9,25,nCS*%
%TO.N,SPI0 6CS*%
X52000000Y-54574300D03*
%TO.P,U9,26,VDD*%
%TO.N,+3V3*%
X51500001Y-54574300D03*
%TO.P,U9,27,NC*%
%TO.N,unconnected-(U9-NC-Pad27)*%
X50999999Y-54574300D03*
%TO.P,U9,28,TXCAN*%
%TO.N,Net-(U9-TXCAN)*%
X50500000Y-54574300D03*
D21*
%TO.P,U9,29,EP*%
%TO.N,unconnected-(U9-EP-Pad29)*%
X52000000Y-57000000D03*
%TD*%
D19*
%TO.P,U7,1,RXCAN*%
%TO.N,Net-(U7-RXCAN)*%
X49574300Y-39500000D03*
%TO.P,U7,2,CLKO/SOF*%
%TO.N,unconnected-(U7-CLKO{slash}SOF-Pad2)*%
X49574300Y-39999999D03*
%TO.P,U7,3,nINT*%
%TO.N,CAN4 INT*%
X49574300Y-40500001D03*
%TO.P,U7,4,OSC2*%
%TO.N,/CAN Output 4/OSC2*%
X49574300Y-41000000D03*
%TO.P,U7,5,OSC1*%
%TO.N,/CAN Output 4/OSC1*%
X49574300Y-41499999D03*
%TO.P,U7,6,NC*%
%TO.N,unconnected-(U7-NC-Pad6)*%
X49574300Y-42000001D03*
%TO.P,U7,7,VSS*%
%TO.N,GND*%
X49574300Y-42500000D03*
D20*
%TO.P,U7,8,nINT1/GPIO1*%
%TO.N,CAN4 INT1*%
X50500000Y-43425700D03*
%TO.P,U7,9,nINT0/GPIO0/XSTBY*%
%TO.N,unconnected-(U7-nINT0{slash}GPIO0{slash}XSTBY-Pad9)*%
X50999999Y-43425700D03*
%TO.P,U7,10,GND*%
%TO.N,GND*%
X51500001Y-43425700D03*
%TO.P,U7,11,RXD*%
%TO.N,Net-(U7-RXCAN)*%
X52000000Y-43425700D03*
%TO.P,U7,12,NC*%
%TO.N,unconnected-(U7-NC-Pad12)*%
X52499999Y-43425700D03*
%TO.P,U7,13,VCC*%
%TO.N,+5V*%
X53000001Y-43425700D03*
%TO.P,U7,14,VIO*%
%TO.N,+3V3*%
X53500000Y-43425700D03*
D19*
%TO.P,U7,15,NC*%
%TO.N,unconnected-(U7-NC-Pad15)*%
X54425700Y-42500000D03*
%TO.P,U7,16,CANL*%
%TO.N,CAN4L*%
X54425700Y-42000001D03*
%TO.P,U7,17,CANH*%
%TO.N,CAN4H*%
X54425700Y-41499999D03*
%TO.P,U7,18,STBY*%
%TO.N,unconnected-(U7-STBY-Pad18)*%
X54425700Y-41000000D03*
%TO.P,U7,19,NC*%
%TO.N,unconnected-(U7-NC-Pad19)*%
X54425700Y-40500001D03*
%TO.P,U7,20,TXD*%
%TO.N,Net-(U7-TXCAN)*%
X54425700Y-39999999D03*
%TO.P,U7,21,NC*%
%TO.N,unconnected-(U7-NC-Pad21)*%
X54425700Y-39500000D03*
D20*
%TO.P,U7,22,SCK*%
%TO.N,SPI0 SCK*%
X53500000Y-38574300D03*
%TO.P,U7,23,SDI*%
%TO.N,SPI0 TX*%
X53000001Y-38574300D03*
%TO.P,U7,24,SDO*%
%TO.N,SPI0 RX*%
X52499999Y-38574300D03*
%TO.P,U7,25,nCS*%
%TO.N,SPI0 4CS*%
X52000000Y-38574300D03*
%TO.P,U7,26,VDD*%
%TO.N,+3V3*%
X51500001Y-38574300D03*
%TO.P,U7,27,NC*%
%TO.N,unconnected-(U7-NC-Pad27)*%
X50999999Y-38574300D03*
%TO.P,U7,28,TXCAN*%
%TO.N,Net-(U7-TXCAN)*%
X50500000Y-38574300D03*
D21*
%TO.P,U7,29,EP*%
%TO.N,unconnected-(U7-EP-Pad29)*%
X52000000Y-41000000D03*
%TD*%
D27*
%TO.P,J8,1,Pin_1*%
%TO.N,CAN5H*%
X60500000Y-48625000D03*
D28*
%TO.P,J8,2,Pin_2*%
%TO.N,CAN5L*%
X60500000Y-51165000D03*
%TD*%
D22*
%TO.P,R18,1*%
%TO.N,CAN6H*%
X56175000Y-56000000D03*
%TO.P,R18,2*%
%TO.N,Net-(C58-Pad1)*%
X57825000Y-56000000D03*
%TD*%
D10*
%TO.P,C12,1*%
%TO.N,+3V3*%
X29500000Y-34775000D03*
%TO.P,C12,2*%
%TO.N,GND*%
X29500000Y-33225000D03*
%TD*%
D22*
%TO.P,R9,1*%
%TO.N,CAN2L*%
X56175000Y-26500000D03*
%TO.P,R9,2*%
%TO.N,Net-(C29-Pad1)*%
X57825000Y-26500000D03*
%TD*%
D10*
%TO.P,C7,1*%
%TO.N,+3V3*%
X40000000Y-31775000D03*
%TO.P,C7,2*%
%TO.N,GND*%
X40000000Y-30225000D03*
%TD*%
D29*
%TO.P,U2,1,~{CS}*%
%TO.N,/QSPI_SS*%
X28650000Y-27595000D03*
%TO.P,U2,2,DO(IO1)*%
%TO.N,/QSPI_SD1*%
X28650000Y-28865000D03*
%TO.P,U2,3,IO2*%
%TO.N,/QSPI_SD2*%
X28650000Y-30135000D03*
%TO.P,U2,4,GND*%
%TO.N,GND*%
X28650000Y-31405000D03*
%TO.P,U2,5,DI(IO0)*%
%TO.N,/QSPI_SD0*%
X35850000Y-31405000D03*
%TO.P,U2,6,CLK*%
%TO.N,/QSPI_SCLK*%
X35850000Y-30135000D03*
%TO.P,U2,7,IO3*%
%TO.N,/QSPI_SD3*%
X35850000Y-28865000D03*
%TO.P,U2,8,VCC*%
%TO.N,+3V3*%
X35850000Y-27595000D03*
%TD*%
D22*
%TO.P,R7,1*%
%TO.N,CAN1L*%
X56175000Y-18000000D03*
%TO.P,R7,2*%
%TO.N,Net-(C22-Pad1)*%
X57825000Y-18000000D03*
%TD*%
D23*
%TO.P,C18,1*%
%TO.N,/CAN Output 1/OSC1*%
X45725000Y-19500000D03*
%TO.P,C18,2*%
%TO.N,GND*%
X47275000Y-19500000D03*
%TD*%
D11*
%TO.P,Y5,1,1*%
%TO.N,/CAN Output 4/OSC1*%
X44900000Y-41850000D03*
%TO.P,Y5,2,2*%
%TO.N,GND*%
X47100000Y-41850000D03*
%TO.P,Y5,3,3*%
%TO.N,/CAN Output 4/OSC2*%
X47100000Y-40150000D03*
%TO.P,Y5,4,4*%
%TO.N,GND*%
X44900000Y-40150000D03*
%TD*%
D12*
%TO.P,C50,1*%
%TO.N,Net-(C50-Pad1)*%
X57775000Y-51000000D03*
%TO.P,C50,2*%
%TO.N,GND*%
X56225000Y-51000000D03*
%TD*%
D13*
%TO.P,R6,1*%
%TO.N,+3V3*%
X32825000Y-25500000D03*
%TO.P,R6,2*%
%TO.N,/QSPI_SS*%
X31175000Y-25500000D03*
%TD*%
D30*
%TO.P,SW2,1,1*%
%TO.N,Net-(R5-Pad2)*%
X28250000Y-22500000D03*
D31*
%TO.P,SW2,2,2*%
%TO.N,GND*%
X34750000Y-22500000D03*
%TD*%
D18*
%TO.P,C15,1*%
%TO.N,+3V3*%
X40000000Y-24225000D03*
%TO.P,C15,2*%
%TO.N,GND*%
X40000000Y-25775000D03*
%TD*%
D27*
%TO.P,J7,1,Pin_1*%
%TO.N,CAN4H*%
X60500000Y-40025000D03*
D28*
%TO.P,J7,2,Pin_2*%
%TO.N,CAN4L*%
X60500000Y-42565000D03*
%TD*%
D11*
%TO.P,Y4,1,1*%
%TO.N,/CAN Output 3/OSC1*%
X45400000Y-33850000D03*
%TO.P,Y4,2,2*%
%TO.N,GND*%
X47600000Y-33850000D03*
%TO.P,Y4,3,3*%
%TO.N,/CAN Output 3/OSC2*%
X47600000Y-32150000D03*
%TO.P,Y4,4,4*%
%TO.N,GND*%
X45400000Y-32150000D03*
%TD*%
D18*
%TO.P,C42,1*%
%TO.N,+3V3*%
X43000000Y-37725000D03*
%TO.P,C42,2*%
%TO.N,GND*%
X43000000Y-39275000D03*
%TD*%
D19*
%TO.P,U6,1,RXCAN*%
%TO.N,Net-(U6-RXCAN)*%
X49574300Y-31500000D03*
%TO.P,U6,2,CLKO/SOF*%
%TO.N,unconnected-(U6-CLKO{slash}SOF-Pad2)*%
X49574300Y-31999999D03*
%TO.P,U6,3,nINT*%
%TO.N,CAN3 INT*%
X49574300Y-32500001D03*
%TO.P,U6,4,OSC2*%
%TO.N,/CAN Output 3/OSC2*%
X49574300Y-33000000D03*
%TO.P,U6,5,OSC1*%
%TO.N,/CAN Output 3/OSC1*%
X49574300Y-33499999D03*
%TO.P,U6,6,NC*%
%TO.N,unconnected-(U6-NC-Pad6)*%
X49574300Y-34000001D03*
%TO.P,U6,7,VSS*%
%TO.N,GND*%
X49574300Y-34500000D03*
D20*
%TO.P,U6,8,nINT1/GPIO1*%
%TO.N,CAN3 INT1*%
X50500000Y-35425700D03*
%TO.P,U6,9,nINT0/GPIO0/XSTBY*%
%TO.N,unconnected-(U6-nINT0{slash}GPIO0{slash}XSTBY-Pad9)*%
X50999999Y-35425700D03*
%TO.P,U6,10,GND*%
%TO.N,GND*%
X51500001Y-35425700D03*
%TO.P,U6,11,RXD*%
%TO.N,Net-(U6-RXCAN)*%
X52000000Y-35425700D03*
%TO.P,U6,12,NC*%
%TO.N,unconnected-(U6-NC-Pad12)*%
X52499999Y-35425700D03*
%TO.P,U6,13,VCC*%
%TO.N,+5V*%
X53000001Y-35425700D03*
%TO.P,U6,14,VIO*%
%TO.N,+3V3*%
X53500000Y-35425700D03*
D19*
%TO.P,U6,15,NC*%
%TO.N,unconnected-(U6-NC-Pad15)*%
X54425700Y-34500000D03*
%TO.P,U6,16,CANL*%
%TO.N,CAN3L*%
X54425700Y-34000001D03*
%TO.P,U6,17,CANH*%
%TO.N,CAN3H*%
X54425700Y-33499999D03*
%TO.P,U6,18,STBY*%
%TO.N,unconnected-(U6-STBY-Pad18)*%
X54425700Y-33000000D03*
%TO.P,U6,19,NC*%
%TO.N,unconnected-(U6-NC-Pad19)*%
X54425700Y-32500001D03*
%TO.P,U6,20,TXD*%
%TO.N,Net-(U6-TXCAN)*%
X54425700Y-31999999D03*
%TO.P,U6,21,NC*%
%TO.N,unconnected-(U6-NC-Pad21)*%
X54425700Y-31500000D03*
D20*
%TO.P,U6,22,SCK*%
%TO.N,SPI0 SCK*%
X53500000Y-30574300D03*
%TO.P,U6,23,SDI*%
%TO.N,SPI0 TX*%
X53000001Y-30574300D03*
%TO.P,U6,24,SDO*%
%TO.N,SPI0 RX*%
X52499999Y-30574300D03*
%TO.P,U6,25,nCS*%
%TO.N,SPI0 3CS*%
X52000000Y-30574300D03*
%TO.P,U6,26,VDD*%
%TO.N,+3V3*%
X51500001Y-30574300D03*
%TO.P,U6,27,NC*%
%TO.N,unconnected-(U6-NC-Pad27)*%
X50999999Y-30574300D03*
%TO.P,U6,28,TXCAN*%
%TO.N,Net-(U6-TXCAN)*%
X50500000Y-30574300D03*
D21*
%TO.P,U6,29,EP*%
%TO.N,unconnected-(U6-EP-Pad29)*%
X52000000Y-33000000D03*
%TD*%
D12*
%TO.P,C19,1*%
%TO.N,/CAN Output 1/OSC2*%
X47275000Y-14500000D03*
%TO.P,C19,2*%
%TO.N,GND*%
X45725000Y-14500000D03*
%TD*%
%TO.P,C30,1*%
%TO.N,Net-(C30-Pad1)*%
X57775000Y-23000000D03*
%TO.P,C30,2*%
%TO.N,GND*%
X56225000Y-23000000D03*
%TD*%
%TO.P,C17,1*%
%TO.N,+3V3*%
X30275000Y-19500000D03*
%TO.P,C17,2*%
%TO.N,GND*%
X28725000Y-19500000D03*
%TD*%
%TO.P,C23,1*%
%TO.N,Net-(C23-Pad1)*%
X57775000Y-14500000D03*
%TO.P,C23,2*%
%TO.N,GND*%
X56225000Y-14500000D03*
%TD*%
D18*
%TO.P,C35,1*%
%TO.N,+3V3*%
X43500000Y-29725000D03*
%TO.P,C35,2*%
%TO.N,GND*%
X43500000Y-31275000D03*
%TD*%
D23*
%TO.P,C3,1*%
%TO.N,RUN*%
X38225000Y-48500000D03*
%TO.P,C3,2*%
%TO.N,GND*%
X39775000Y-48500000D03*
%TD*%
D12*
%TO.P,C26,1*%
%TO.N,/CAN Output 2/OSC2*%
X47275000Y-22500000D03*
%TO.P,C26,2*%
%TO.N,GND*%
X45725000Y-22500000D03*
%TD*%
D10*
%TO.P,C20,1*%
%TO.N,+5V*%
X43500000Y-20275000D03*
%TO.P,C20,2*%
%TO.N,GND*%
X43500000Y-18725000D03*
%TD*%
D32*
%TO.P,U3,1,VIN*%
%TO.N,+5V*%
X30450000Y-15362500D03*
%TO.P,U3,2,GND*%
%TO.N,GND*%
X29500000Y-15362500D03*
%TO.P,U3,3,EN*%
%TO.N,+5V*%
X28550000Y-15362500D03*
%TO.P,U3,4,NC*%
%TO.N,unconnected-(U3-NC-Pad4)*%
X28550000Y-17637500D03*
%TO.P,U3,5,VOUT*%
%TO.N,+3V3*%
X30450000Y-17637500D03*
%TD*%
D12*
%TO.P,C57,1*%
%TO.N,Net-(C57-Pad1)*%
X57775000Y-59500000D03*
%TO.P,C57,2*%
%TO.N,GND*%
X56225000Y-59500000D03*
%TD*%
D23*
%TO.P,C39,1*%
%TO.N,/CAN Output 4/OSC1*%
X45225000Y-43500000D03*
%TO.P,C39,2*%
%TO.N,GND*%
X46775000Y-43500000D03*
%TD*%
D22*
%TO.P,R1,1*%
%TO.N,+3V3*%
X38175000Y-47000000D03*
%TO.P,R1,2*%
%TO.N,RUN*%
X39825000Y-47000000D03*
%TD*%
D33*
%TO.P,D1,1,K*%
%TO.N,Net-(D1-K)*%
X39875000Y-50000000D03*
%TO.P,D1,2,A*%
%TO.N,+3V3*%
X38125000Y-50000000D03*
%TD*%
D23*
%TO.P,C2,1*%
%TO.N,Net-(C2-Pad1)*%
X34225000Y-48000000D03*
%TO.P,C2,2*%
%TO.N,GND*%
X35775000Y-48000000D03*
%TD*%
D34*
%TO.P,U1,1,IOVDD*%
%TO.N,+3V3*%
X33562500Y-34400000D03*
%TO.P,U1,2,GPIO0*%
%TO.N,TX0*%
X33562500Y-34800000D03*
%TO.P,U1,3,GPIO1*%
%TO.N,RX0*%
X33562500Y-35200000D03*
%TO.P,U1,4,GPIO2*%
%TO.N,SPI0 SCK*%
X33562500Y-35600000D03*
%TO.P,U1,5,GPIO3*%
%TO.N,SPI0 TX*%
X33562500Y-36000000D03*
%TO.P,U1,6,GPIO4*%
%TO.N,SPI0 RX*%
X33562500Y-36400000D03*
%TO.P,U1,7,GPIO5*%
%TO.N,SPI0 1CS*%
X33562500Y-36800000D03*
%TO.P,U1,8,GPIO6*%
%TO.N,SPI0 2CS*%
X33562500Y-37200000D03*
%TO.P,U1,9,GPIO7*%
%TO.N,SPI0 3CS*%
X33562500Y-37600000D03*
%TO.P,U1,10,IOVDD*%
%TO.N,+3V3*%
X33562500Y-38000000D03*
%TO.P,U1,11,GPIO8*%
%TO.N,SPI0 4CS*%
X33562500Y-38400000D03*
%TO.P,U1,12,GPIO9*%
%TO.N,SPI0 5CS*%
X33562500Y-38800000D03*
%TO.P,U1,13,GPIO10*%
%TO.N,SPI0 6CS*%
X33562500Y-39200000D03*
%TO.P,U1,14,GPIO11*%
%TO.N,SPI1 TX*%
X33562500Y-39600000D03*
D35*
%TO.P,U1,15,GPIO12*%
%TO.N,SPI1 RX*%
X34400000Y-40437500D03*
%TO.P,U1,16,GPIO13*%
%TO.N,SPI1 CSn*%
X34800000Y-40437500D03*
%TO.P,U1,17,GPIO14*%
%TO.N,SPI1 SCK*%
X35200000Y-40437500D03*
%TO.P,U1,18,GPIO15*%
%TO.N,GPIO 15*%
X35600000Y-40437500D03*
%TO.P,U1,19,TESTEN*%
%TO.N,GND*%
X36000000Y-40437500D03*
%TO.P,U1,20,XIN*%
%TO.N,/XIN*%
X36400000Y-40437500D03*
%TO.P,U1,21,XOUT*%
%TO.N,/XOUT*%
X36800000Y-40437500D03*
%TO.P,U1,22,IOVDD*%
%TO.N,+3V3*%
X37200000Y-40437500D03*
%TO.P,U1,23,DVDD*%
%TO.N,+1V1*%
X37600000Y-40437500D03*
%TO.P,U1,24,SWCLK*%
%TO.N,SWCLK*%
X38000000Y-40437500D03*
%TO.P,U1,25,SWD*%
%TO.N,SWD*%
X38400000Y-40437500D03*
%TO.P,U1,26,RUN*%
%TO.N,RUN*%
X38800000Y-40437500D03*
%TO.P,U1,27,GPIO16*%
%TO.N,CAN6 INT1*%
X39200000Y-40437500D03*
%TO.P,U1,28,GPIO17*%
%TO.N,CAN6 INT*%
X39600000Y-40437500D03*
D34*
%TO.P,U1,29,GPIO18*%
%TO.N,CAN5 INT1*%
X40437500Y-39600000D03*
%TO.P,U1,30,GPIO19*%
%TO.N,CAN5 INT*%
X40437500Y-39200000D03*
%TO.P,U1,31,GPIO20*%
%TO.N,CAN4 INT1*%
X40437500Y-38800000D03*
%TO.P,U1,32,GPIO21*%
%TO.N,CAN4 INT*%
X40437500Y-38400000D03*
%TO.P,U1,33,IOVDD*%
%TO.N,+3V3*%
X40437500Y-38000000D03*
%TO.P,U1,34,GPIO22*%
%TO.N,CAN3 INT1*%
X40437500Y-37600000D03*
%TO.P,U1,35,GPIO23*%
%TO.N,CAN3 INT*%
X40437500Y-37200000D03*
%TO.P,U1,36,GPIO24*%
%TO.N,CAN2 INT1*%
X40437500Y-36800000D03*
%TO.P,U1,37,GPIO25*%
%TO.N,CAN2 INT*%
X40437500Y-36400000D03*
%TO.P,U1,38,GPIO26_ADC0*%
%TO.N,ADC 0*%
X40437500Y-36000000D03*
%TO.P,U1,39,GPIO27_ADC1*%
%TO.N,ADC 1*%
X40437500Y-35600000D03*
%TO.P,U1,40,GPIO28_ADC2*%
%TO.N,CAN1 INT1*%
X40437500Y-35200000D03*
%TO.P,U1,41,GPIO29_ADC3*%
%TO.N,CAN1 INT*%
X40437500Y-34800000D03*
%TO.P,U1,42,IOVDD*%
%TO.N,+3V3*%
X40437500Y-34400000D03*
D35*
%TO.P,U1,43,ADC_AVDD*%
X39600000Y-33562500D03*
%TO.P,U1,44,VREG_IN*%
X39200000Y-33562500D03*
%TO.P,U1,45,VREG_VOUT*%
%TO.N,+1V1*%
X38800000Y-33562500D03*
%TO.P,U1,46,USB_DM*%
%TO.N,/ucd-*%
X38400000Y-33562500D03*
%TO.P,U1,47,USB_DP*%
%TO.N,/ucd+*%
X38000000Y-33562500D03*
%TO.P,U1,48,USB_VDD*%
%TO.N,+3V3*%
X37600000Y-33562500D03*
%TO.P,U1,49,IOVDD*%
X37200000Y-33562500D03*
%TO.P,U1,50,DVDD*%
%TO.N,+1V1*%
X36800000Y-33562500D03*
%TO.P,U1,51,QSPI_SD3*%
%TO.N,/QSPI_SD3*%
X36400000Y-33562500D03*
%TO.P,U1,52,QSPI_SCLK*%
%TO.N,/QSPI_SCLK*%
X36000000Y-33562500D03*
%TO.P,U1,53,QSPI_SD0*%
%TO.N,/QSPI_SD0*%
X35600000Y-33562500D03*
%TO.P,U1,54,QSPI_SD2*%
%TO.N,/QSPI_SD2*%
X35200000Y-33562500D03*
%TO.P,U1,55,QSPI_SD1*%
%TO.N,/QSPI_SD1*%
X34800000Y-33562500D03*
%TO.P,U1,56,QSPI_SS*%
%TO.N,/QSPI_SS*%
X34400000Y-33562500D03*
D36*
%TO.P,U1,57,GND*%
%TO.N,GND*%
X37000000Y-37000000D03*
%TD*%
D18*
%TO.P,C49,1*%
%TO.N,+3V3*%
X43000000Y-45725000D03*
%TO.P,C49,2*%
%TO.N,GND*%
X43000000Y-47275000D03*
%TD*%
D22*
%TO.P,R16,1*%
%TO.N,CAN5H*%
X56175000Y-47500000D03*
%TO.P,R16,2*%
%TO.N,Net-(C51-Pad1)*%
X57825000Y-47500000D03*
%TD*%
%TO.P,R17,1*%
%TO.N,CAN6L*%
X56175000Y-61000000D03*
%TO.P,R17,2*%
%TO.N,Net-(C57-Pad1)*%
X57825000Y-61000000D03*
%TD*%
D24*
%TO.P,R3,1*%
%TO.N,D+*%
X37000000Y-20175000D03*
%TO.P,R3,2*%
%TO.N,/ucd+*%
X37000000Y-21825000D03*
%TD*%
D25*
%TO.P,J10,1,Pin_1*%
%TO.N,TX0*%
X29050000Y-44500000D03*
D26*
%TO.P,J10,2,Pin_2*%
%TO.N,RX0*%
X29050000Y-45750000D03*
%TD*%
D23*
%TO.P,C16,1*%
%TO.N,+5V*%
X28725000Y-13500000D03*
%TO.P,C16,2*%
%TO.N,GND*%
X30275000Y-13500000D03*
%TD*%
D25*
%TO.P,J1,1,Pin_1*%
%TO.N,GPIO 15*%
X29050000Y-56750000D03*
D26*
%TO.P,J1,2,Pin_2*%
%TO.N,ADC 0*%
X29050000Y-58000000D03*
%TO.P,J1,3,Pin_3*%
%TO.N,ADC 1*%
X29050000Y-59250000D03*
%TD*%
D11*
%TO.P,Y2,1,1*%
%TO.N,/CAN Output 1/OSC1*%
X45400000Y-17850000D03*
%TO.P,Y2,2,2*%
%TO.N,GND*%
X47600000Y-17850000D03*
%TO.P,Y2,3,3*%
%TO.N,/CAN Output 1/OSC2*%
X47600000Y-16150000D03*
%TO.P,Y2,4,4*%
%TO.N,GND*%
X45400000Y-16150000D03*
%TD*%
D37*
%TO.P,R19,1*%
%TO.N,Net-(D1-K)*%
X39912500Y-51500000D03*
%TO.P,R19,2*%
%TO.N,Net-(Q1-D)*%
X38087500Y-51500000D03*
%TD*%
D27*
%TO.P,J6,1,Pin_1*%
%TO.N,CAN3H*%
X60500000Y-31425000D03*
D28*
%TO.P,J6,2,Pin_2*%
%TO.N,CAN3L*%
X60500000Y-33965000D03*
%TD*%
D10*
%TO.P,C6,1*%
%TO.N,+1V1*%
X39500000Y-28775000D03*
%TO.P,C6,2*%
%TO.N,GND*%
X39500000Y-27225000D03*
%TD*%
D12*
%TO.P,C47,1*%
%TO.N,/CAN Output 5/OSC2*%
X46775000Y-46500000D03*
%TO.P,C47,2*%
%TO.N,GND*%
X45225000Y-46500000D03*
%TD*%
D27*
%TO.P,J9,1,Pin_1*%
%TO.N,CAN6H*%
X60500000Y-57225000D03*
D28*
%TO.P,J9,2,Pin_2*%
%TO.N,CAN6L*%
X60500000Y-59765000D03*
%TD*%
D13*
%TO.P,R5,1*%
%TO.N,/QSPI_SS*%
X29825000Y-25500000D03*
%TO.P,R5,2*%
%TO.N,Net-(R5-Pad2)*%
X28175000Y-25500000D03*
%TD*%
D22*
%TO.P,R14,1*%
%TO.N,CAN4H*%
X56175000Y-39000000D03*
%TO.P,R14,2*%
%TO.N,Net-(C44-Pad1)*%
X57825000Y-39000000D03*
%TD*%
D38*
%TO.P,Q1,1,D*%
%TO.N,Net-(Q1-D)*%
X34500000Y-51350000D03*
%TO.P,Q1,2,G*%
%TO.N,GPIO 15*%
X34500000Y-52650000D03*
%TO.P,Q1,3,S*%
%TO.N,GND*%
X36500000Y-52000000D03*
%TD*%
D22*
%TO.P,R11,1*%
%TO.N,CAN3L*%
X56175000Y-35000000D03*
%TO.P,R11,2*%
%TO.N,Net-(C36-Pad1)*%
X57825000Y-35000000D03*
%TD*%
D12*
%TO.P,C58,1*%
%TO.N,Net-(C58-Pad1)*%
X57775000Y-57500000D03*
%TO.P,C58,2*%
%TO.N,GND*%
X56225000Y-57500000D03*
%TD*%
%TO.P,C1,1*%
%TO.N,/XIN*%
X35775000Y-43000000D03*
%TO.P,C1,2*%
%TO.N,GND*%
X34225000Y-43000000D03*
%TD*%
D22*
%TO.P,R13,1*%
%TO.N,CAN4L*%
X56175000Y-44000000D03*
%TO.P,R13,2*%
%TO.N,Net-(C43-Pad1)*%
X57825000Y-44000000D03*
%TD*%
D12*
%TO.P,C44,1*%
%TO.N,Net-(C44-Pad1)*%
X57775000Y-40500000D03*
%TO.P,C44,2*%
%TO.N,GND*%
X56225000Y-40500000D03*
%TD*%
D22*
%TO.P,R8,1*%
%TO.N,CAN1H*%
X56175000Y-13000000D03*
%TO.P,R8,2*%
%TO.N,Net-(C23-Pad1)*%
X57825000Y-13000000D03*
%TD*%
D23*
%TO.P,C46,1*%
%TO.N,/CAN Output 5/OSC1*%
X45225000Y-51500000D03*
%TO.P,C46,2*%
%TO.N,GND*%
X46775000Y-51500000D03*
%TD*%
D18*
%TO.P,C28,1*%
%TO.N,+3V3*%
X43500000Y-21725000D03*
%TO.P,C28,2*%
%TO.N,GND*%
X43500000Y-23275000D03*
%TD*%
D23*
%TO.P,C4,1*%
%TO.N,+1V1*%
X38225000Y-44000000D03*
%TO.P,C4,2*%
%TO.N,GND*%
X39775000Y-44000000D03*
%TD*%
%TO.P,C14,1*%
%TO.N,+3V3*%
X38225000Y-45500000D03*
%TO.P,C14,2*%
%TO.N,GND*%
X39775000Y-45500000D03*
%TD*%
%TO.P,C5,1*%
%TO.N,+1V1*%
X38225000Y-42500000D03*
%TO.P,C5,2*%
%TO.N,GND*%
X39775000Y-42500000D03*
%TD*%
D10*
%TO.P,C10,1*%
%TO.N,+3V3*%
X40500000Y-22775000D03*
%TO.P,C10,2*%
%TO.N,GND*%
X40500000Y-21225000D03*
%TD*%
%TO.P,C55,1*%
%TO.N,+5V*%
X43000000Y-60275000D03*
%TO.P,C55,2*%
%TO.N,GND*%
X43000000Y-58725000D03*
%TD*%
D11*
%TO.P,Y6,1,1*%
%TO.N,/CAN Output 5/OSC1*%
X44900000Y-49850000D03*
%TO.P,Y6,2,2*%
%TO.N,GND*%
X47100000Y-49850000D03*
%TO.P,Y6,3,3*%
%TO.N,/CAN Output 5/OSC2*%
X47100000Y-48150000D03*
%TO.P,Y6,4,4*%
%TO.N,GND*%
X44900000Y-48150000D03*
%TD*%
D22*
%TO.P,R10,1*%
%TO.N,CAN2H*%
X56175000Y-21500000D03*
%TO.P,R10,2*%
%TO.N,Net-(C30-Pad1)*%
X57825000Y-21500000D03*
%TD*%
D12*
%TO.P,C29,1*%
%TO.N,Net-(C29-Pad1)*%
X57775000Y-25000000D03*
%TO.P,C29,2*%
%TO.N,GND*%
X56225000Y-25000000D03*
%TD*%
D25*
%TO.P,J12,1,Pin_1*%
%TO.N,+5V*%
X29050000Y-37750000D03*
D26*
%TO.P,J12,2,Pin_2*%
%TO.N,+3V3*%
X29050000Y-39000000D03*
%TO.P,J12,3,Pin_3*%
%TO.N,GND*%
X29050000Y-40250000D03*
%TD*%
D27*
%TO.P,J5,1,Pin_1*%
%TO.N,CAN2H*%
X60500000Y-22825000D03*
D28*
%TO.P,J5,2,Pin_2*%
%TO.N,CAN2L*%
X60500000Y-25365000D03*
%TD*%
D27*
%TO.P,J4,1,Pin_1*%
%TO.N,CAN1H*%
X60500000Y-14225000D03*
D28*
%TO.P,J4,2,Pin_2*%
%TO.N,CAN1L*%
X60500000Y-16765000D03*
%TD*%
D12*
%TO.P,C37,1*%
%TO.N,Net-(C37-Pad1)*%
X57775000Y-31500000D03*
%TO.P,C37,2*%
%TO.N,GND*%
X56225000Y-31500000D03*
%TD*%
D25*
%TO.P,J11,1,Pin_1*%
%TO.N,SWCLK*%
X29050000Y-50000000D03*
D26*
%TO.P,J11,2,Pin_2*%
%TO.N,GND*%
X29050000Y-51250000D03*
%TO.P,J11,3,Pin_3*%
%TO.N,SWD*%
X29050000Y-52500000D03*
%TD*%
D18*
%TO.P,C21,1*%
%TO.N,+3V3*%
X43500000Y-13725000D03*
%TO.P,C21,2*%
%TO.N,GND*%
X43500000Y-15275000D03*
%TD*%
D19*
%TO.P,U5,1,RXCAN*%
%TO.N,Net-(U5-RXCAN)*%
X49574300Y-23500000D03*
%TO.P,U5,2,CLKO/SOF*%
%TO.N,unconnected-(U5-CLKO{slash}SOF-Pad2)*%
X49574300Y-23999999D03*
%TO.P,U5,3,nINT*%
%TO.N,CAN2 INT*%
X49574300Y-24500001D03*
%TO.P,U5,4,OSC2*%
%TO.N,/CAN Output 2/OSC2*%
X49574300Y-25000000D03*
%TO.P,U5,5,OSC1*%
%TO.N,/CAN Output 2/OSC1*%
X49574300Y-25499999D03*
%TO.P,U5,6,NC*%
%TO.N,unconnected-(U5-NC-Pad6)*%
X49574300Y-26000001D03*
%TO.P,U5,7,VSS*%
%TO.N,GND*%
X49574300Y-26500000D03*
D20*
%TO.P,U5,8,nINT1/GPIO1*%
%TO.N,CAN2 INT1*%
X50500000Y-27425700D03*
%TO.P,U5,9,nINT0/GPIO0/XSTBY*%
%TO.N,unconnected-(U5-nINT0{slash}GPIO0{slash}XSTBY-Pad9)*%
X50999999Y-27425700D03*
%TO.P,U5,10,GND*%
%TO.N,GND*%
X51500001Y-27425700D03*
%TO.P,U5,11,RXD*%
%TO.N,Net-(U5-RXCAN)*%
X52000000Y-27425700D03*
%TO.P,U5,12,NC*%
%TO.N,unconnected-(U5-NC-Pad12)*%
X52499999Y-27425700D03*
%TO.P,U5,13,VCC*%
%TO.N,+5V*%
X53000001Y-27425700D03*
%TO.P,U5,14,VIO*%
%TO.N,+3V3*%
X53500000Y-27425700D03*
D19*
%TO.P,U5,15,NC*%
%TO.N,unconnected-(U5-NC-Pad15)*%
X54425700Y-26500000D03*
%TO.P,U5,16,CANL*%
%TO.N,CAN2L*%
X54425700Y-26000001D03*
%TO.P,U5,17,CANH*%
%TO.N,CAN2H*%
X54425700Y-25499999D03*
%TO.P,U5,18,STBY*%
%TO.N,unconnected-(U5-STBY-Pad18)*%
X54425700Y-25000000D03*
%TO.P,U5,19,NC*%
%TO.N,unconnected-(U5-NC-Pad19)*%
X54425700Y-24500001D03*
%TO.P,U5,20,TXD*%
%TO.N,Net-(U5-TXCAN)*%
X54425700Y-23999999D03*
%TO.P,U5,21,NC*%
%TO.N,unconnected-(U5-NC-Pad21)*%
X54425700Y-23500000D03*
D20*
%TO.P,U5,22,SCK*%
%TO.N,SPI0 SCK*%
X53500000Y-22574300D03*
%TO.P,U5,23,SDI*%
%TO.N,SPI0 TX*%
X53000001Y-22574300D03*
%TO.P,U5,24,SDO*%
%TO.N,SPI0 RX*%
X52499999Y-22574300D03*
%TO.P,U5,25,nCS*%
%TO.N,SPI0 2CS*%
X52000000Y-22574300D03*
%TO.P,U5,26,VDD*%
%TO.N,+3V3*%
X51500001Y-22574300D03*
%TO.P,U5,27,NC*%
%TO.N,unconnected-(U5-NC-Pad27)*%
X50999999Y-22574300D03*
%TO.P,U5,28,TXCAN*%
%TO.N,Net-(U5-TXCAN)*%
X50500000Y-22574300D03*
D21*
%TO.P,U5,29,EP*%
%TO.N,unconnected-(U5-EP-Pad29)*%
X52000000Y-25000000D03*
%TD*%
D30*
%TO.P,SW1,1,1*%
%TO.N,RUN*%
X40000000Y-53750000D03*
D31*
%TO.P,SW1,2,2*%
%TO.N,GND*%
X40000000Y-60250000D03*
%TD*%
D39*
%TO.N,GND*%
X50969058Y-52387858D03*
X50969058Y-44387858D03*
D40*
X40500000Y-27000000D03*
D39*
X48000000Y-43000000D03*
X43500000Y-33045200D03*
X56225000Y-32500000D03*
X56225000Y-50000000D03*
X43000000Y-49000000D03*
X43000000Y-41000000D03*
X56225000Y-24000000D03*
D40*
X33542800Y-43500000D03*
D39*
X48000000Y-51000000D03*
X50969058Y-28387858D03*
X48500000Y-19000000D03*
X43000000Y-57000000D03*
X50928458Y-36418800D03*
D40*
X48500000Y-27000000D03*
D39*
X38000000Y-36000000D03*
X56225000Y-15500000D03*
X56225000Y-41500000D03*
D40*
X40500000Y-45000000D03*
D39*
X29500000Y-16500000D03*
X50969058Y-20387858D03*
X28400000Y-32229559D03*
X56225000Y-58500000D03*
D40*
X48000000Y-59000000D03*
X40704600Y-47500000D03*
D39*
X50969058Y-60387858D03*
X37500000Y-53000000D03*
X44210100Y-24500000D03*
X48500000Y-35000000D03*
X44197600Y-16027400D03*
%TO.N,+1V1*%
X39000000Y-31000000D03*
X38225000Y-43261282D03*
%TO.N,+3V3*%
X47500000Y-12890600D03*
X32543692Y-34218800D03*
X54655500Y-35425700D03*
X40500000Y-23500000D03*
X47500000Y-53081200D03*
X48000000Y-29215200D03*
X54655500Y-51425700D03*
X47590500Y-45228500D03*
X54655500Y-43425700D03*
D40*
X36943750Y-26443750D03*
D39*
X47500000Y-37215200D03*
X54655500Y-19425700D03*
X38225000Y-46258021D03*
X30450000Y-18651863D03*
X48000000Y-21215200D03*
X54655500Y-27425700D03*
D40*
X40500000Y-34000000D03*
D39*
X54425700Y-59425700D03*
%TO.N,+5V*%
X42500000Y-21000000D03*
X55000000Y-44500000D03*
X54655500Y-20500000D03*
X54655500Y-52500000D03*
X35000000Y-20000000D03*
X28725000Y-14342515D03*
X42776400Y-29000000D03*
X54655500Y-28500000D03*
X44000000Y-61000000D03*
X39400000Y-19400000D03*
X54655500Y-36500000D03*
X53000000Y-60500000D03*
X44101860Y-52423800D03*
X43953060Y-44275000D03*
X44500000Y-36500000D03*
D40*
%TO.N,SWCLK*%
X38000000Y-39500000D03*
%TO.N,SWD*%
X38400000Y-41500000D03*
%TO.N,/QSPI_SS*%
X30000000Y-27500000D03*
X33500000Y-32500000D03*
%TO.N,SPI0 RX*%
X52750000Y-53250000D03*
X52750000Y-13250000D03*
X52750000Y-45250000D03*
X52750000Y-29250000D03*
X34500000Y-36750000D03*
X52750000Y-21250000D03*
X52750000Y-37250000D03*
%TO.N,SPI0 6CS*%
X32000000Y-40000000D03*
X52000000Y-53000000D03*
%TO.N,SPI0 2CS*%
X52000000Y-21000000D03*
X34647693Y-37852307D03*
%TO.N,SPI0 SCK*%
X54074300Y-22000000D03*
X54074300Y-30000000D03*
X54074300Y-46000000D03*
X54074300Y-14000000D03*
X54074300Y-38000000D03*
X34500000Y-35500000D03*
X54074300Y-54000000D03*
%TO.N,SPI0 TX*%
X53500000Y-37500000D03*
X53500000Y-45500000D03*
X53500000Y-29500000D03*
X53500000Y-13500000D03*
X53500000Y-21500000D03*
X32500000Y-36000000D03*
X53500000Y-53500000D03*
%TO.N,SPI0 4CS*%
X52000000Y-37000000D03*
X32500000Y-38400001D03*
%TO.N,SPI0 1CS*%
X52000000Y-13000000D03*
X32500000Y-36799999D03*
%TO.N,SPI0 5CS*%
X52000000Y-45000000D03*
X32000000Y-39000000D03*
%TO.N,SPI0 3CS*%
X52000000Y-29000000D03*
X32501956Y-37600000D03*
%TO.N,Net-(U4-TXCAN)*%
X49750000Y-14250000D03*
X54875000Y-14875000D03*
%TO.N,Net-(U4-RXCAN)*%
X49500000Y-15000000D03*
X50000000Y-21000000D03*
%TO.N,Net-(U5-TXCAN)*%
X54875000Y-22875000D03*
X49750000Y-22250000D03*
%TO.N,Net-(U5-RXCAN)*%
X50000000Y-29000000D03*
X49500000Y-23000000D03*
%TO.N,Net-(U6-RXCAN)*%
X49500000Y-31000000D03*
X50000000Y-37000000D03*
%TO.N,Net-(U6-TXCAN)*%
X49750000Y-30250000D03*
X54875000Y-30875000D03*
%TO.N,Net-(U7-RXCAN)*%
X49500000Y-39000000D03*
X50000000Y-45000000D03*
%TO.N,ADC 1*%
X39500000Y-35500000D03*
%TO.N,Net-(U7-TXCAN)*%
X54875000Y-38875000D03*
X49750000Y-38250000D03*
%TO.N,SPI1 TX*%
X33500000Y-40500000D03*
%TO.N,Net-(U8-RXCAN)*%
X49500000Y-47000000D03*
X50000000Y-53000000D03*
%TO.N,Net-(U8-TXCAN)*%
X54875000Y-46875000D03*
X49750000Y-46250000D03*
%TO.N,Net-(U9-RXCAN)*%
X50000000Y-61000000D03*
X49500000Y-55000000D03*
%TO.N,Net-(U9-TXCAN)*%
X49750000Y-54250000D03*
X54875000Y-54875000D03*
%TO.N,SPI1 SCK*%
X35000000Y-41500000D03*
%TO.N,SPI1 RX*%
X33000000Y-42000000D03*
%TO.N,SPI1 CSn*%
X34000000Y-42000000D03*
%TO.N,ADC 0*%
X39500000Y-36500000D03*
%TO.N,GPIO 15*%
X36465692Y-39619152D03*
%TD*%
D41*
%TO.N,/XIN*%
X36400000Y-42375000D02*
X36400000Y-40437500D01*
X35775000Y-43000000D02*
X36400000Y-42375000D01*
X36100000Y-44650000D02*
X36100000Y-43325000D01*
X36100000Y-43325000D02*
X35775000Y-43000000D01*
D42*
%TO.N,GND*%
X37000000Y-37000000D02*
X37000000Y-36500000D01*
D43*
X40000000Y-26500000D02*
X40500000Y-27000000D01*
X43000000Y-55275000D02*
X44025000Y-55275000D01*
X40279800Y-28500000D02*
X40279800Y-29945200D01*
D42*
X33800000Y-18225000D02*
X33280000Y-18225000D01*
D43*
X47275000Y-19500000D02*
X48000000Y-19500000D01*
X43500000Y-23275000D02*
X43500000Y-26725000D01*
X51500001Y-43425700D02*
X51500001Y-44111500D01*
X48000000Y-58500000D02*
X48000000Y-59000000D01*
X47309600Y-17850000D02*
X47600000Y-17850000D01*
X43500000Y-34725000D02*
X43500000Y-33045200D01*
D42*
X29500000Y-18725000D02*
X28725000Y-19500000D01*
D43*
X56225000Y-59500000D02*
X56225000Y-58500000D01*
X48000000Y-43000000D02*
X48000000Y-42750000D01*
X40000000Y-45500000D02*
X40500000Y-45000000D01*
X44022600Y-16522600D02*
X43500000Y-17045200D01*
X47275000Y-27500000D02*
X48000000Y-27500000D01*
X36100000Y-47675000D02*
X35775000Y-48000000D01*
X40704600Y-46429600D02*
X40704600Y-47570400D01*
X44950000Y-31275000D02*
X45725000Y-30500000D01*
X39775000Y-45500000D02*
X40704600Y-46429600D01*
D42*
X28400000Y-31405000D02*
X28400000Y-32229559D01*
D41*
X36500000Y-52000000D02*
X37500000Y-53000000D01*
D43*
X51000000Y-60418800D02*
X51000000Y-60424800D01*
D42*
X29500000Y-15362500D02*
X29500000Y-18725000D01*
D43*
X56225000Y-49000000D02*
X56225000Y-50000000D01*
X48250000Y-26500000D02*
X48500000Y-26500000D01*
X39775000Y-45500000D02*
X40000000Y-45500000D01*
X44210100Y-24500000D02*
X44560100Y-24150000D01*
X48000000Y-43000000D02*
X48500000Y-42500000D01*
X45725000Y-15825000D02*
X45400000Y-16150000D01*
X45400000Y-22825000D02*
X45725000Y-22500000D01*
X47100000Y-59175000D02*
X46775000Y-59500000D01*
X56225000Y-33500000D02*
X56225000Y-32500000D01*
X43000000Y-49000000D02*
X43850000Y-48150000D01*
X43000000Y-41840400D02*
X44690400Y-40150000D01*
X44900000Y-40150000D02*
X43850000Y-40150000D01*
X44900000Y-56150000D02*
X44690400Y-56150000D01*
X48000000Y-35500000D02*
X48500000Y-35000000D01*
X44900000Y-38825000D02*
X45225000Y-38500000D01*
X56225000Y-31500000D02*
X56225000Y-32500000D01*
X48500000Y-34750000D02*
X48500000Y-35000000D01*
X48250000Y-18500000D02*
X49574300Y-18500000D01*
X47600000Y-25850000D02*
X47600000Y-27175000D01*
D41*
X56175000Y-59215901D02*
X56175000Y-59500000D01*
D43*
X51500001Y-35425700D02*
X51500001Y-36111500D01*
X30275000Y-13500000D02*
X29500000Y-14275000D01*
X40279800Y-29945200D02*
X40000000Y-30225000D01*
X44900000Y-46825000D02*
X45225000Y-46500000D01*
X43500000Y-23275000D02*
X43500000Y-23789900D01*
X47600000Y-17850000D02*
X47600000Y-18100000D01*
X40000000Y-25775000D02*
X40000000Y-26500000D01*
X43000000Y-42725000D02*
X43000000Y-39275000D01*
X44900000Y-56150000D02*
X44900000Y-54825000D01*
X44900000Y-40150000D02*
X43875000Y-40150000D01*
D44*
X36000000Y-41500000D02*
X34500000Y-43000000D01*
D43*
X47600000Y-33850000D02*
X47600000Y-35175000D01*
X47600000Y-17850000D02*
X48250000Y-18500000D01*
X51223643Y-44387858D02*
X50969058Y-44387858D01*
X48000000Y-43000000D02*
X47500000Y-43500000D01*
X43000000Y-42725000D02*
X43000000Y-41840400D01*
X44210100Y-24500000D02*
X43500000Y-25210100D01*
X50969058Y-28387858D02*
X51223643Y-28387858D01*
X43000000Y-55275000D02*
X43000000Y-58725000D01*
X56225000Y-40500000D02*
X56225000Y-42500000D01*
X48500000Y-50500000D02*
X49574300Y-50500000D01*
X51500001Y-52111500D02*
X51223643Y-52387858D01*
X44900000Y-54825000D02*
X45225000Y-54500000D01*
X33900000Y-44650000D02*
X33900000Y-43325000D01*
X44560100Y-24150000D02*
X45400000Y-24150000D01*
X47600000Y-33850000D02*
X48250000Y-34500000D01*
X56225000Y-16500000D02*
X56225000Y-15500000D01*
X43000000Y-57840400D02*
X43000000Y-58725000D01*
X45400000Y-30825000D02*
X45725000Y-30500000D01*
X48500000Y-26500000D02*
X49574300Y-26500000D01*
D42*
X28400000Y-32229559D02*
X29395441Y-33225000D01*
D43*
X35975000Y-23725000D02*
X34750000Y-22500000D01*
X44197600Y-16347600D02*
X44022600Y-16522600D01*
X44197600Y-15972600D02*
X43500000Y-15275000D01*
X44900000Y-48150000D02*
X43875000Y-48150000D01*
X51500001Y-51425700D02*
X51500001Y-52111500D01*
X35775000Y-25500000D02*
X35775000Y-23525000D01*
X40279800Y-27220200D02*
X40500000Y-27000000D01*
X48000000Y-19500000D02*
X48500000Y-19000000D01*
X43500000Y-15275000D02*
X43500000Y-18725000D01*
X44525000Y-23275000D02*
X45400000Y-24150000D01*
X39775000Y-42500000D02*
X39775000Y-45500000D01*
X43000000Y-50725000D02*
X43000000Y-47275000D01*
X47600000Y-33850000D02*
X48500000Y-34750000D01*
X48000000Y-51000000D02*
X47500000Y-51500000D01*
X48250000Y-34500000D02*
X49574300Y-34500000D01*
X51223643Y-60387858D02*
X51500001Y-60111500D01*
X45400000Y-32150000D02*
X45400000Y-30825000D01*
X40279800Y-28004800D02*
X40279800Y-28500000D01*
X44900000Y-40150000D02*
X44900000Y-38825000D01*
X28400000Y-32229559D02*
X28400000Y-32825000D01*
D42*
X40200000Y-18225000D02*
X40720000Y-18225000D01*
X29395441Y-33225000D02*
X29500000Y-33225000D01*
D44*
X36000000Y-40437500D02*
X36000000Y-41500000D01*
D43*
X28905000Y-31405000D02*
X29000000Y-31500000D01*
D42*
X31000000Y-33225000D02*
X28000000Y-33225000D01*
D43*
X43500000Y-17045200D02*
X43500000Y-18725000D01*
X44197600Y-16027400D02*
X45725000Y-14500000D01*
X37000000Y-37000000D02*
X38000000Y-36000000D01*
X44197600Y-16347600D02*
X44197600Y-15972600D01*
X45225000Y-31825000D02*
X44900000Y-32150000D01*
X39500000Y-27225000D02*
X40279800Y-28004800D01*
X47750000Y-58500000D02*
X48500000Y-58500000D01*
X40500000Y-21225000D02*
X40500000Y-18445000D01*
X56225000Y-23000000D02*
X56225000Y-25000000D01*
X43500000Y-23789900D02*
X44210100Y-24500000D01*
X47100000Y-57850000D02*
X47100000Y-59175000D01*
X47500000Y-51500000D02*
X46775000Y-51500000D01*
X47500000Y-59500000D02*
X48000000Y-59000000D01*
X33900000Y-44650000D02*
X34150000Y-44650000D01*
X43500000Y-34725000D02*
X43500000Y-31275000D01*
X44950000Y-15275000D02*
X45725000Y-14500000D01*
X40000000Y-25775000D02*
X40000000Y-26725000D01*
X45400000Y-16150000D02*
X44320200Y-16150000D01*
X51500001Y-36111500D02*
X51192701Y-36418800D01*
D42*
X33280000Y-18225000D02*
X32680000Y-17625000D01*
X33900000Y-43857200D02*
X33542800Y-43500000D01*
D43*
X47100000Y-49850000D02*
X47100000Y-51175000D01*
X48000000Y-51000000D02*
X48500000Y-50500000D01*
D42*
X40720000Y-18225000D02*
X41320000Y-17625000D01*
D43*
X47600000Y-18100000D02*
X48500000Y-19000000D01*
X50969058Y-60387858D02*
X51223643Y-60387858D01*
X56225000Y-57500000D02*
X56225000Y-58500000D01*
D42*
X32680000Y-13425000D02*
X32680000Y-17625000D01*
D43*
X43500000Y-31275000D02*
X44525000Y-31275000D01*
X40704600Y-47570400D02*
X39775000Y-48500000D01*
X43500000Y-25210100D02*
X43500000Y-26725000D01*
X43500000Y-31275000D02*
X44950000Y-31275000D01*
X51192701Y-36418800D02*
X50928458Y-36418800D01*
X36100000Y-46350000D02*
X36100000Y-47675000D01*
X47100000Y-51175000D02*
X46775000Y-51500000D01*
X35850000Y-46350000D02*
X36100000Y-46350000D01*
X43500000Y-23275000D02*
X44525000Y-23275000D01*
X29500000Y-14275000D02*
X29500000Y-15362500D01*
X47600000Y-17850000D02*
X47600000Y-19175000D01*
X43500000Y-15275000D02*
X44950000Y-15275000D01*
X48500000Y-42500000D02*
X49574300Y-42500000D01*
D44*
X34362500Y-43000000D02*
X34225000Y-43000000D01*
D43*
X40000000Y-26725000D02*
X39500000Y-27225000D01*
X48000000Y-42750000D02*
X47100000Y-41850000D01*
X47600000Y-19175000D02*
X47275000Y-19500000D01*
X45400000Y-24150000D02*
X45400000Y-22825000D01*
X48500000Y-26500000D02*
X48500000Y-27000000D01*
X47275000Y-35500000D02*
X48000000Y-35500000D01*
X35775000Y-25500000D02*
X35775000Y-25450000D01*
X44900000Y-48150000D02*
X44900000Y-46825000D01*
X44320200Y-16150000D02*
X44197600Y-16027400D01*
D44*
X34500000Y-43000000D02*
X34225000Y-43000000D01*
D43*
X47100000Y-57850000D02*
X47750000Y-58500000D01*
X51500001Y-44111500D02*
X51223643Y-44387858D01*
X43875000Y-48150000D02*
X43000000Y-47275000D01*
X44197600Y-16347600D02*
X44197600Y-16027400D01*
X48500000Y-58500000D02*
X49574300Y-58500000D01*
X35775000Y-23525000D02*
X34750000Y-22500000D01*
X51500001Y-28111500D02*
X51500001Y-27425700D01*
X44395200Y-32150000D02*
X45400000Y-32150000D01*
X51223643Y-28387858D02*
X51500001Y-28111500D01*
X39550000Y-45500000D02*
X39550000Y-45698416D01*
D41*
X56175000Y-16784101D02*
X56175000Y-16500000D01*
D43*
X34150000Y-44650000D02*
X35850000Y-46350000D01*
X47600000Y-27175000D02*
X47275000Y-27500000D01*
X43500000Y-33045200D02*
X44395200Y-32150000D01*
X44525000Y-31275000D02*
X45400000Y-32150000D01*
X48000000Y-51000000D02*
X48000000Y-50750000D01*
X47600000Y-35175000D02*
X47275000Y-35500000D01*
X44690400Y-56150000D02*
X43000000Y-57840400D01*
X40500000Y-18445000D02*
X41320000Y-17625000D01*
X44690400Y-40150000D02*
X44900000Y-40150000D01*
X40279800Y-28500000D02*
X40279800Y-27220200D01*
D42*
X41320000Y-13425000D02*
X41320000Y-17625000D01*
D43*
X33400000Y-44650000D02*
X33650000Y-44650000D01*
X44025000Y-55275000D02*
X44900000Y-56150000D01*
X43000000Y-50725000D02*
X43000000Y-49000000D01*
X35775000Y-25450000D02*
X37500000Y-23725000D01*
X46775000Y-59500000D02*
X47500000Y-59500000D01*
X51500001Y-60111500D02*
X51500001Y-59425700D01*
X56225000Y-51000000D02*
X56225000Y-50000000D01*
X50969058Y-60387858D02*
X51000000Y-60418800D01*
X47600000Y-25850000D02*
X48250000Y-26500000D01*
X43875000Y-40150000D02*
X43000000Y-39275000D01*
X47100000Y-41850000D02*
X47100000Y-43175000D01*
X48000000Y-27500000D02*
X48500000Y-27000000D01*
D42*
X33900000Y-44650000D02*
X33900000Y-43857200D01*
D43*
X43850000Y-40150000D02*
X43000000Y-41000000D01*
X51223643Y-52387858D02*
X50969058Y-52387858D01*
X37500000Y-23725000D02*
X35975000Y-23725000D01*
X43850000Y-48150000D02*
X44900000Y-48150000D01*
X44320200Y-16150000D02*
X45609600Y-16150000D01*
X56225000Y-14500000D02*
X56225000Y-15500000D01*
X33900000Y-43325000D02*
X34225000Y-43000000D01*
X47100000Y-43175000D02*
X46775000Y-43500000D01*
X28400000Y-32825000D02*
X28000000Y-33225000D01*
X47500000Y-43500000D02*
X46775000Y-43500000D01*
X48000000Y-50750000D02*
X47100000Y-49850000D01*
D41*
%TO.N,Net-(C2-Pad1)*%
X33900000Y-46350000D02*
X33900000Y-47675000D01*
X34225000Y-48000000D02*
X34225000Y-49450000D01*
X33900000Y-47675000D02*
X34225000Y-48000000D01*
X34225000Y-49450000D02*
X34175000Y-49500000D01*
%TO.N,RUN*%
X39725000Y-47000000D02*
X38225000Y-48500000D01*
X39000000Y-46175000D02*
X39825000Y-47000000D01*
X39825000Y-47000000D02*
X39725000Y-47000000D01*
X38225000Y-48500000D02*
X38225000Y-48725000D01*
X38800000Y-41032631D02*
X39000000Y-41232631D01*
X38000000Y-48500000D02*
X38000000Y-48300000D01*
X38800000Y-40437500D02*
X38800000Y-41032631D01*
X39000000Y-41232631D02*
X39000000Y-46175000D01*
X39000000Y-53250000D02*
X39500000Y-53750000D01*
D44*
%TO.N,+1V1*%
X39000000Y-31000000D02*
X38800000Y-31200000D01*
D42*
X38225000Y-43500000D02*
X38225000Y-43000000D01*
X38225000Y-43000000D02*
X38225000Y-42500000D01*
D44*
X38800000Y-31200000D02*
X38800000Y-33562500D01*
X37600000Y-41875000D02*
X38225000Y-42500000D01*
X36800000Y-33562500D02*
X36800000Y-34067228D01*
X38800000Y-34067228D02*
X38800000Y-33562500D01*
X37012172Y-34279400D02*
X38587828Y-34279400D01*
X37600000Y-40437500D02*
X37600000Y-41875000D01*
D42*
X38225000Y-43500000D02*
X38225000Y-43261282D01*
X38225000Y-44000000D02*
X38225000Y-43500000D01*
D43*
X39000000Y-29275000D02*
X39000000Y-31000000D01*
X39500000Y-28775000D02*
X39000000Y-29275000D01*
D44*
X38587828Y-34279400D02*
X38800000Y-34067228D01*
X36800000Y-34067228D02*
X37012172Y-34279400D01*
D43*
X38225000Y-43000000D02*
X38225000Y-43261282D01*
D42*
%TO.N,+3V3*%
X40023200Y-24225000D02*
X40000000Y-24225000D01*
X33000000Y-25500000D02*
X35095000Y-27595000D01*
D41*
X40500000Y-34337500D02*
X40437500Y-34400000D01*
D43*
X36899999Y-27595000D02*
X37644400Y-28339401D01*
X54655500Y-35425700D02*
X53500000Y-35425700D01*
X51152699Y-29609400D02*
X51500001Y-29956702D01*
X38175000Y-46308021D02*
X38225000Y-46258021D01*
X38175000Y-47000000D02*
X38175000Y-46308021D01*
D41*
X38175000Y-47000000D02*
X37308000Y-47867000D01*
D43*
X43500000Y-21725000D02*
X43809600Y-21415400D01*
X44334400Y-12890600D02*
X47500000Y-12890600D01*
D42*
X31500000Y-24175000D02*
X32825000Y-25500000D01*
D43*
X51500001Y-45956702D02*
X51500001Y-46574300D01*
X30275000Y-19500000D02*
X30275000Y-19775000D01*
X43496500Y-45228500D02*
X43000000Y-45725000D01*
X54655500Y-51425700D02*
X53500000Y-51425700D01*
D41*
X35127279Y-39085952D02*
X36811853Y-39085952D01*
D43*
X42877400Y-53725000D02*
X43000000Y-53725000D01*
X43643800Y-53081200D02*
X43000000Y-53725000D01*
X40500000Y-33662500D02*
X40000000Y-33162500D01*
X31556200Y-34218800D02*
X33386100Y-34218800D01*
D44*
X37200000Y-39474099D02*
X37758099Y-38916000D01*
D43*
X40000000Y-33162500D02*
X39600000Y-33562500D01*
D44*
X37600000Y-33562500D02*
X37200000Y-33562500D01*
D42*
X30275000Y-19500000D02*
X31500000Y-20725000D01*
X35792500Y-27595000D02*
X37500000Y-25887500D01*
D43*
X48059400Y-53640600D02*
X51183899Y-53640600D01*
D44*
X37500000Y-43530436D02*
X37495600Y-43534836D01*
D42*
X37500000Y-25887500D02*
X37500000Y-25275000D01*
D43*
X36100000Y-27595000D02*
X36899999Y-27595000D01*
X48000000Y-21215200D02*
X44009800Y-21215200D01*
X51500001Y-13888500D02*
X51500001Y-14574300D01*
X51183899Y-53640600D02*
X51500001Y-53956702D01*
X37595200Y-33026652D02*
X37595200Y-33562500D01*
X40000000Y-31775000D02*
X40000000Y-33162500D01*
X31556200Y-34218800D02*
X32543692Y-34218800D01*
X43790284Y-37215200D02*
X43280484Y-37725000D01*
D41*
X37308000Y-47867000D02*
X37308000Y-49183000D01*
D42*
X35095000Y-27595000D02*
X35600000Y-27595000D01*
X35600000Y-27595000D02*
X35792500Y-27595000D01*
D43*
X37644400Y-32977452D02*
X37595200Y-33026652D01*
X54655500Y-27425700D02*
X53500000Y-27425700D01*
D41*
X33562500Y-38000000D02*
X34041327Y-38000000D01*
D43*
X40442300Y-34395200D02*
X40432700Y-34395200D01*
X47590500Y-45228500D02*
X48002600Y-45640600D01*
X38225000Y-45500000D02*
X38225000Y-46258021D01*
X40500000Y-34337500D02*
X40442300Y-34395200D01*
X48000000Y-29215200D02*
X44009800Y-29215200D01*
X47500000Y-37215200D02*
X47894200Y-37609400D01*
D44*
X39932772Y-38000000D02*
X40437500Y-38000000D01*
D43*
X40500000Y-34000000D02*
X40500000Y-33662500D01*
X48002600Y-45640600D02*
X51183899Y-45640600D01*
X54655500Y-43425700D02*
X53500000Y-43425700D01*
X39600000Y-33562500D02*
X39206400Y-33562500D01*
X43000000Y-45725000D02*
X43000000Y-45568665D01*
X48394200Y-29609400D02*
X51152699Y-29609400D01*
D44*
X37200000Y-40437500D02*
X37200000Y-42669564D01*
X39016772Y-38916000D02*
X39932772Y-38000000D01*
D42*
X28000000Y-34775000D02*
X31000000Y-34775000D01*
D43*
X40432700Y-34395200D02*
X39600000Y-33562500D01*
X33386100Y-34218800D02*
X33562500Y-34395200D01*
D42*
X32825000Y-25500000D02*
X34225000Y-25500000D01*
D44*
X37200000Y-42669564D02*
X37500000Y-42969564D01*
D42*
X35600000Y-27595000D02*
X36399999Y-27595000D01*
D43*
X47500000Y-53081200D02*
X48059400Y-53640600D01*
X43000000Y-37500000D02*
X43000000Y-37725000D01*
D42*
X30450000Y-18651863D02*
X30275000Y-18826863D01*
D43*
X47590500Y-45228500D02*
X43496500Y-45228500D01*
X54655500Y-19425700D02*
X53500000Y-19425700D01*
X48000000Y-29215200D02*
X48394200Y-29609400D01*
X30450000Y-19325000D02*
X30275000Y-19500000D01*
D44*
X37495600Y-44995600D02*
X38000000Y-45500000D01*
D43*
X47894200Y-37609400D02*
X51152699Y-37609400D01*
X47500000Y-53081200D02*
X43643800Y-53081200D01*
D44*
X37495600Y-43534836D02*
X37495600Y-44995600D01*
X37500000Y-42969564D02*
X37500000Y-43530436D01*
D43*
X40500000Y-23500000D02*
X40500000Y-23725000D01*
X51500001Y-29956702D02*
X51500001Y-30574300D01*
D42*
X30275000Y-18826863D02*
X30275000Y-19500000D01*
D43*
X50502101Y-12890600D02*
X51500001Y-13888500D01*
D44*
X37758099Y-38916000D02*
X39016772Y-38916000D01*
X40437500Y-38000000D02*
X42725000Y-38000000D01*
D43*
X51183899Y-45640600D02*
X51500001Y-45956702D01*
X43280484Y-37725000D02*
X43000000Y-37725000D01*
D42*
X32825000Y-25500000D02*
X33000000Y-25500000D01*
D43*
X40500000Y-34000000D02*
X40500000Y-34337500D01*
D41*
X34041327Y-38000000D02*
X35127279Y-39085952D01*
D43*
X37644400Y-28339401D02*
X37644400Y-32977452D01*
D42*
X31500000Y-20725000D02*
X31500000Y-24175000D01*
D43*
X44009800Y-21215200D02*
X43500000Y-21725000D01*
D41*
X37308000Y-49183000D02*
X38125000Y-50000000D01*
X36811853Y-39085952D02*
X37200000Y-39474099D01*
D43*
X47500000Y-37215200D02*
X43790284Y-37215200D01*
X40500000Y-23725000D02*
X40000000Y-24225000D01*
D44*
X37200000Y-40437500D02*
X37200000Y-39474099D01*
D43*
X31000000Y-34775000D02*
X31556200Y-34218800D01*
X51152699Y-37609400D02*
X51500001Y-37956702D01*
X51500001Y-53956702D02*
X51500001Y-54574300D01*
D44*
X42725000Y-38000000D02*
X43000000Y-37725000D01*
D42*
X30450000Y-18651863D02*
X30450000Y-17637500D01*
D43*
X35600000Y-27595000D02*
X35595000Y-27595000D01*
X54425700Y-59425700D02*
X53500000Y-59425700D01*
X47500000Y-12890600D02*
X50502101Y-12890600D01*
X40500000Y-22775000D02*
X40500000Y-23500000D01*
X51500001Y-37956702D02*
X51500001Y-38574300D01*
X30450000Y-17637500D02*
X30450000Y-19325000D01*
X44334400Y-12890600D02*
X43500000Y-13725000D01*
X37500000Y-25695000D02*
X37500000Y-25275000D01*
X44009800Y-29215200D02*
X43500000Y-29725000D01*
%TO.N,+5V*%
X53000001Y-28043301D02*
X53000001Y-27425700D01*
D42*
X28725000Y-13500000D02*
X28725000Y-14342515D01*
D43*
X43500000Y-36275000D02*
X44275000Y-36275000D01*
D42*
X28725000Y-13500000D02*
X29671000Y-12554000D01*
D43*
X53456700Y-36500000D02*
X53000001Y-36043301D01*
D42*
X34506400Y-19251400D02*
X32251400Y-19251400D01*
D43*
X53456700Y-36500000D02*
X54655500Y-36500000D01*
X53000000Y-60500000D02*
X53000000Y-59425701D01*
D42*
X34600000Y-18225000D02*
X34600000Y-19157800D01*
D43*
X53456700Y-20500000D02*
X53000001Y-20043301D01*
D42*
X32251400Y-19251400D02*
X31500000Y-18500000D01*
D43*
X53000001Y-52043301D02*
X53000001Y-51425700D01*
D42*
X28725000Y-15187500D02*
X28550000Y-15362500D01*
D43*
X43953060Y-44275000D02*
X43000000Y-44275000D01*
D42*
X35000000Y-19557800D02*
X35000000Y-20000000D01*
D43*
X55000000Y-44500000D02*
X53456700Y-44500000D01*
X43500000Y-28276400D02*
X42776400Y-29000000D01*
X43275000Y-60275000D02*
X43000000Y-60275000D01*
X53000000Y-59425701D02*
X53000001Y-59425700D01*
D42*
X31500000Y-16500000D02*
X31500000Y-16412500D01*
D43*
X53456700Y-52500000D02*
X54655500Y-52500000D01*
D42*
X31500000Y-16412500D02*
X30450000Y-15362500D01*
D43*
X53000001Y-52043301D02*
X53456700Y-52500000D01*
D42*
X39400000Y-19400000D02*
X39400000Y-18225000D01*
D43*
X53456700Y-44500000D02*
X53000001Y-44043301D01*
D42*
X31500000Y-13350832D02*
X31500000Y-16500000D01*
D43*
X44275000Y-36275000D02*
X44500000Y-36500000D01*
D42*
X29671000Y-12554000D02*
X30703168Y-12554000D01*
D43*
X43500000Y-28275000D02*
X43500000Y-28276400D01*
D42*
X28725000Y-14342515D02*
X28725000Y-15187500D01*
X30703168Y-12554000D02*
X31500000Y-13350832D01*
X34600000Y-19157800D02*
X34506400Y-19251400D01*
D43*
X53456700Y-28500000D02*
X53000001Y-28043301D01*
X44000000Y-61000000D02*
X43275000Y-60275000D01*
X43953060Y-52275000D02*
X43000000Y-52275000D01*
X53000001Y-36043301D02*
X53000001Y-35425700D01*
X43225000Y-20275000D02*
X42500000Y-21000000D01*
X54655500Y-28500000D02*
X53456700Y-28500000D01*
X53000001Y-20043301D02*
X53000001Y-19425700D01*
X43500000Y-20275000D02*
X43225000Y-20275000D01*
X54655500Y-20500000D02*
X53456700Y-20500000D01*
D42*
X34600000Y-19157800D02*
X35000000Y-19557800D01*
X31500000Y-18500000D02*
X31500000Y-16500000D01*
D43*
X28550000Y-13675000D02*
X28725000Y-13500000D01*
X44101860Y-52423800D02*
X43953060Y-52275000D01*
X53000001Y-44043301D02*
X53000001Y-43425700D01*
D41*
%TO.N,/CAN Output 1/OSC1*%
X46228600Y-17021400D02*
X48528600Y-17021400D01*
X48528600Y-17021400D02*
X49007199Y-17499999D01*
X45400000Y-17850000D02*
X46228600Y-17021400D01*
X45400000Y-17850000D02*
X45400000Y-19175000D01*
X49007199Y-17499999D02*
X49574300Y-17499999D01*
X45400000Y-19175000D02*
X45725000Y-19500000D01*
%TO.N,/CAN Output 1/OSC2*%
X49000000Y-17000000D02*
X48500000Y-16500000D01*
X47950000Y-16500000D02*
X47600000Y-16150000D01*
X47600000Y-14825000D02*
X47275000Y-14500000D01*
X48500000Y-16500000D02*
X47950000Y-16500000D01*
X47600000Y-16150000D02*
X47600000Y-14825000D01*
X49574300Y-17000000D02*
X49000000Y-17000000D01*
%TO.N,Net-(C22-Pad1)*%
X57825000Y-18000000D02*
X57825000Y-16550000D01*
X57825000Y-16550000D02*
X57775000Y-16500000D01*
X57825000Y-17950000D02*
X57775000Y-18000000D01*
%TO.N,Net-(C23-Pad1)*%
X57825000Y-13050000D02*
X57775000Y-13000000D01*
X57825000Y-14450000D02*
X57775000Y-14500000D01*
X57825000Y-13000000D02*
X57825000Y-14450000D01*
%TO.N,Net-(C29-Pad1)*%
X57825000Y-25050000D02*
X57775000Y-25000000D01*
X57825000Y-26500000D02*
X57825000Y-25050000D01*
X57825000Y-26450000D02*
X57775000Y-26500000D01*
%TO.N,Net-(C30-Pad1)*%
X57825000Y-21550000D02*
X57775000Y-21500000D01*
X57825000Y-22950000D02*
X57775000Y-23000000D01*
X57825000Y-21500000D02*
X57825000Y-22950000D01*
%TO.N,Net-(C36-Pad1)*%
X57775000Y-33550000D02*
X57825000Y-33500000D01*
X57825000Y-35000000D02*
X57825000Y-33550000D01*
X57825000Y-33550000D02*
X57775000Y-33500000D01*
%TO.N,Net-(C37-Pad1)*%
X57825000Y-30050000D02*
X57775000Y-30000000D01*
X57825000Y-30000000D02*
X57825000Y-31450000D01*
X57825000Y-31450000D02*
X57775000Y-31500000D01*
%TO.N,Net-(C43-Pad1)*%
X57825000Y-43950000D02*
X57775000Y-44000000D01*
X57825000Y-44000000D02*
X57825000Y-42550000D01*
X57825000Y-42550000D02*
X57775000Y-42500000D01*
%TO.N,Net-(C44-Pad1)*%
X57825000Y-40450000D02*
X57775000Y-40500000D01*
X57825000Y-39050000D02*
X57775000Y-39000000D01*
X57825000Y-39000000D02*
X57825000Y-40450000D01*
%TO.N,Net-(C50-Pad1)*%
X57825000Y-52450000D02*
X57775000Y-52500000D01*
X57825000Y-52500000D02*
X57825000Y-51050000D01*
X57825000Y-51050000D02*
X57775000Y-51000000D01*
%TO.N,Net-(C51-Pad1)*%
X57825000Y-48950000D02*
X57775000Y-49000000D01*
X57825000Y-47500000D02*
X57825000Y-48950000D01*
X57825000Y-47550000D02*
X57775000Y-47500000D01*
%TO.N,Net-(C57-Pad1)*%
X57825000Y-59550000D02*
X57775000Y-59500000D01*
X57825000Y-61000000D02*
X57825000Y-59550000D01*
X57825000Y-60950000D02*
X57775000Y-61000000D01*
%TO.N,Net-(C58-Pad1)*%
X57825000Y-57450000D02*
X57775000Y-57500000D01*
X57825000Y-56050000D02*
X57775000Y-56000000D01*
X57825000Y-56000000D02*
X57825000Y-57450000D01*
%TO.N,/CAN Output 2/OSC1*%
X45400000Y-25850000D02*
X45400000Y-27175000D01*
X46250000Y-25000000D02*
X48500000Y-25000000D01*
X45400000Y-27175000D02*
X45725000Y-27500000D01*
X48500000Y-25000000D02*
X48999999Y-25499999D01*
X48999999Y-25499999D02*
X49574300Y-25499999D01*
X45400000Y-25850000D02*
X46250000Y-25000000D01*
%TO.N,RX0*%
X33562500Y-35200000D02*
X32300000Y-35200000D01*
X32300000Y-35200000D02*
X31000000Y-36500000D01*
X31000000Y-44488700D02*
X29738700Y-45750000D01*
X29738700Y-45750000D02*
X29050000Y-45750000D01*
X31000000Y-36500000D02*
X31000000Y-44488700D01*
%TO.N,SWCLK*%
X38000000Y-40437500D02*
X38000000Y-39500000D01*
%TO.N,SWD*%
X38400000Y-41500000D02*
X38400000Y-40437500D01*
%TO.N,TX0*%
X32191143Y-34800000D02*
X31500000Y-35491143D01*
X29500000Y-44500000D02*
X29050000Y-44500000D01*
X31500000Y-35491143D02*
X31500000Y-35500000D01*
X30500000Y-36500000D02*
X30500000Y-43500000D01*
X33562500Y-34800000D02*
X32191143Y-34800000D01*
X30500000Y-43500000D02*
X29500000Y-44500000D01*
X31500000Y-35500000D02*
X30500000Y-36500000D01*
%TO.N,D+*%
X37250000Y-18225000D02*
X37250000Y-19925000D01*
X36250000Y-18225000D02*
X36250000Y-19425000D01*
X37250000Y-19925000D02*
X37000000Y-20175000D01*
X36250000Y-19425000D02*
X37000000Y-20175000D01*
%TO.N,D-*%
X36750000Y-18225000D02*
X36750000Y-17497800D01*
X37628600Y-17376400D02*
X37750000Y-17497800D01*
X37750000Y-19425000D02*
X38500000Y-20175000D01*
X37750000Y-17497800D02*
X37750000Y-18225000D01*
X37750000Y-18225000D02*
X37750000Y-19425000D01*
X36871400Y-17376400D02*
X37628600Y-17376400D01*
X36750000Y-17497800D02*
X36871400Y-17376400D01*
%TO.N,/XOUT*%
X35825000Y-49500000D02*
X37028600Y-48296400D01*
X37028600Y-48296400D02*
X37028600Y-43001058D01*
X36800000Y-42772458D02*
X36800000Y-40437500D01*
X37028600Y-43001058D02*
X36800000Y-42772458D01*
%TO.N,/ucd-*%
X38779400Y-22104400D02*
X38779400Y-26220600D01*
X38500000Y-21825000D02*
X38779400Y-22104400D01*
X38779400Y-26220600D02*
X38400000Y-26600000D01*
X38400000Y-33562500D02*
X38400000Y-26600000D01*
%TO.N,/ucd+*%
X38000000Y-26568948D02*
X38500000Y-26068948D01*
X38000000Y-33562500D02*
X38000000Y-26568948D01*
X38500000Y-23325000D02*
X38500000Y-26068948D01*
X37000000Y-21825000D02*
X38500000Y-23325000D01*
%TO.N,/QSPI_SS*%
X33500000Y-32500000D02*
X34400000Y-33400000D01*
X31353583Y-25815846D02*
X31354720Y-25816983D01*
X29905000Y-27595000D02*
X28400000Y-27595000D01*
X31175000Y-25500000D02*
X29825000Y-25500000D01*
X30000000Y-27500000D02*
X29905000Y-27595000D01*
X30000000Y-27500000D02*
X30000000Y-25675000D01*
X30000000Y-25675000D02*
X29825000Y-25500000D01*
X34400000Y-33400000D02*
X34400000Y-33562500D01*
%TO.N,CAN1L*%
X59531400Y-15796400D02*
X60500000Y-16765000D01*
X57000000Y-16152278D02*
X57355878Y-15796400D01*
X57000000Y-17175000D02*
X57000000Y-16152278D01*
X56175000Y-18000000D02*
X57000000Y-17175000D01*
X57355878Y-15796400D02*
X59531400Y-15796400D01*
X56174999Y-18000001D02*
X56175000Y-18000000D01*
X54425700Y-18000001D02*
X56174999Y-18000001D01*
%TO.N,CAN1H*%
X56175000Y-13000000D02*
X57000000Y-13825000D01*
X57000000Y-13825000D02*
X57000000Y-14847722D01*
X54425700Y-17499999D02*
X54959100Y-17499999D01*
X55531589Y-16927510D02*
X55531589Y-13643411D01*
X57000000Y-14847722D02*
X57355878Y-15203600D01*
X57355878Y-15203600D02*
X59521400Y-15203600D01*
X55531589Y-13643411D02*
X56175000Y-13000000D01*
X54959100Y-17499999D02*
X55531589Y-16927510D01*
X59521400Y-15203600D02*
X60500000Y-14225000D01*
%TO.N,CAN2L*%
X55675001Y-26000001D02*
X54425700Y-26000001D01*
X57000000Y-24652278D02*
X57355878Y-24296400D01*
X56175000Y-26500000D02*
X57000000Y-25675000D01*
X57000000Y-25675000D02*
X57000000Y-24652278D01*
X56175000Y-26500000D02*
X55675001Y-26000001D01*
X57355878Y-24296400D02*
X59431400Y-24296400D01*
X59431400Y-24296400D02*
X60500000Y-25365000D01*
%TO.N,CAN2H*%
X57259478Y-23703600D02*
X59621400Y-23703600D01*
X57000000Y-23444122D02*
X57259478Y-23703600D01*
X55500000Y-22175000D02*
X56175000Y-21500000D01*
X55500000Y-24959099D02*
X55500000Y-22175000D01*
X54425700Y-25499999D02*
X54959100Y-25499999D01*
X57000000Y-22325000D02*
X57000000Y-23444122D01*
X59621400Y-23703600D02*
X60500000Y-22825000D01*
X56175000Y-21500000D02*
X57000000Y-22325000D01*
X54959100Y-25499999D02*
X55500000Y-24959099D01*
%TO.N,CAN3L*%
X57000000Y-34175000D02*
X57000000Y-33152278D01*
X56175000Y-35000000D02*
X57000000Y-34175000D01*
X55175001Y-34000001D02*
X56175000Y-35000000D01*
X57000000Y-33152278D02*
X57355878Y-32796400D01*
X57355878Y-32796400D02*
X59331400Y-32796400D01*
X54425700Y-34000001D02*
X55175001Y-34000001D01*
X59331400Y-32796400D02*
X60500000Y-33965000D01*
%TO.N,CAN3H*%
X57096400Y-31944122D02*
X57355878Y-32203600D01*
X54959100Y-33499999D02*
X55546400Y-32912699D01*
X54425700Y-33499999D02*
X54959100Y-33499999D01*
X55546400Y-32912699D02*
X55546400Y-30628600D01*
X55546400Y-30628600D02*
X56175000Y-30000000D01*
X59721400Y-32203600D02*
X60500000Y-31425000D01*
X57096400Y-31096400D02*
X57096400Y-31944122D01*
X56175000Y-30000000D02*
X56175000Y-30175000D01*
X56175000Y-30175000D02*
X57096400Y-31096400D01*
X57355878Y-32203600D02*
X59721400Y-32203600D01*
%TO.N,CAN4L*%
X54959100Y-42000001D02*
X55500000Y-42540901D01*
X55500000Y-42540901D02*
X55500000Y-43325000D01*
X56903600Y-43271400D02*
X56903600Y-42248678D01*
X56903600Y-42248678D02*
X57355878Y-41796400D01*
X54425700Y-42000001D02*
X54959100Y-42000001D01*
X57355878Y-41796400D02*
X59731400Y-41796400D01*
X55500000Y-43325000D02*
X56175000Y-44000000D01*
X56175000Y-44000000D02*
X56903600Y-43271400D01*
X59731400Y-41796400D02*
X60500000Y-42565000D01*
%TO.N,CAN4H*%
X57355878Y-41203600D02*
X59321400Y-41203600D01*
X59321400Y-41203600D02*
X60500000Y-40025000D01*
X57000000Y-40847722D02*
X57355878Y-41203600D01*
X57000000Y-40000000D02*
X57000000Y-40847722D01*
X55546400Y-40912699D02*
X55546400Y-39628600D01*
X54425700Y-41499999D02*
X54959100Y-41499999D01*
X54959100Y-41499999D02*
X55546400Y-40912699D01*
X56175000Y-39175000D02*
X57000000Y-40000000D01*
X56175000Y-39000000D02*
X56175000Y-39175000D01*
X55546400Y-39628600D02*
X56175000Y-39000000D01*
%TO.N,CAN5L*%
X55500000Y-50540901D02*
X55500000Y-51825000D01*
X57203600Y-50296400D02*
X59631400Y-50296400D01*
X56903600Y-50596400D02*
X57203600Y-50296400D01*
X56175000Y-52500000D02*
X56903600Y-51771400D01*
X55500000Y-51825000D02*
X56175000Y-52500000D01*
X54959100Y-50000001D02*
X55500000Y-50540901D01*
X59631400Y-50296400D02*
X60500000Y-51165000D01*
X56903600Y-51771400D02*
X56903600Y-50596400D01*
X54425700Y-50000001D02*
X54959100Y-50000001D01*
%TO.N,CAN5H*%
X55500000Y-48959099D02*
X55500000Y-48175000D01*
X54425700Y-49499999D02*
X54959100Y-49499999D01*
X57259478Y-49703600D02*
X59421400Y-49703600D01*
X59421400Y-49703600D02*
X60500000Y-48625000D01*
X55500000Y-48175000D02*
X56175000Y-47500000D01*
X57000000Y-49444122D02*
X57259478Y-49703600D01*
X56175000Y-47827278D02*
X57000000Y-48652278D01*
X56175000Y-47500000D02*
X56175000Y-47827278D01*
X57000000Y-48652278D02*
X57000000Y-49444122D01*
X54959100Y-49499999D02*
X55500000Y-48959099D01*
%TO.N,CAN6L*%
X59531400Y-58796400D02*
X60500000Y-59765000D01*
X54959100Y-58000001D02*
X55500000Y-58540901D01*
X57000000Y-60000000D02*
X57000000Y-59152278D01*
X55500000Y-58540901D02*
X55500000Y-60325000D01*
X57000000Y-59152278D02*
X57355878Y-58796400D01*
X54425700Y-58000001D02*
X54959100Y-58000001D01*
X56175000Y-61000000D02*
X56175000Y-60825000D01*
X55500000Y-60325000D02*
X56175000Y-61000000D01*
X56175000Y-60825000D02*
X57000000Y-60000000D01*
X57355878Y-58796400D02*
X59531400Y-58796400D01*
%TO.N,CAN6H*%
X56175000Y-56000000D02*
X57000000Y-56825000D01*
X57259478Y-58203600D02*
X59521400Y-58203600D01*
X54425700Y-57499999D02*
X54959100Y-57499999D01*
X57000000Y-56825000D02*
X57000000Y-57944122D01*
X56175000Y-56284099D02*
X56175000Y-56000000D01*
X57000000Y-57944122D02*
X57259478Y-58203600D01*
X54959100Y-57499999D02*
X56175000Y-56284099D01*
X59521400Y-58203600D02*
X60500000Y-57225000D01*
%TO.N,/CAN Output 2/OSC2*%
X49109099Y-25000000D02*
X49574300Y-25000000D01*
X48609099Y-24500000D02*
X49109099Y-25000000D01*
X47950000Y-24500000D02*
X48609099Y-24500000D01*
X47600000Y-24150000D02*
X47600000Y-22825000D01*
X47600000Y-22825000D02*
X47275000Y-22500000D01*
X47600000Y-24150000D02*
X47950000Y-24500000D01*
%TO.N,/QSPI_SD1*%
X30865000Y-28865000D02*
X34800000Y-32800000D01*
X34800000Y-32800000D02*
X34800000Y-33562500D01*
X28400000Y-28865000D02*
X30865000Y-28865000D01*
%TO.N,/CAN Output 3/OSC1*%
X45400000Y-35175000D02*
X45725000Y-35500000D01*
X46228600Y-33021400D02*
X48528600Y-33021400D01*
X45400000Y-33850000D02*
X46228600Y-33021400D01*
X45400000Y-33850000D02*
X45400000Y-35175000D01*
X48528600Y-33021400D02*
X49007199Y-33499999D01*
X49007199Y-33499999D02*
X49574300Y-33499999D01*
%TO.N,CAN6 INT*%
X41720600Y-50963454D02*
X41720600Y-46720600D01*
X41390400Y-44252504D02*
X40890400Y-43752504D01*
X49109102Y-56500001D02*
X47453600Y-54844499D01*
X47194122Y-53796400D02*
X44051322Y-53796400D01*
X40890400Y-41727900D02*
X39600000Y-40437500D01*
X42000000Y-54000000D02*
X42000000Y-51242854D01*
X41390400Y-46390400D02*
X41390400Y-44252504D01*
X47453600Y-54055878D02*
X47194122Y-53796400D01*
X44051322Y-53796400D02*
X43444122Y-54403600D01*
X47453600Y-54844499D02*
X47453600Y-54055878D01*
X41720600Y-46720600D02*
X41390400Y-46390400D01*
X49574300Y-56500001D02*
X49109102Y-56500001D01*
X43444122Y-54403600D02*
X42403600Y-54403600D01*
X40890400Y-43752504D02*
X40890400Y-41727900D01*
X42000000Y-51242854D02*
X41720600Y-50963454D01*
X42403600Y-54403600D02*
X42000000Y-54000000D01*
%TO.N,/QSPI_SD3*%
X36899999Y-28865000D02*
X37017500Y-28982500D01*
X37288800Y-29253801D02*
X37288800Y-32500000D01*
X37288800Y-32500000D02*
X36892400Y-32896400D01*
X37017500Y-28982500D02*
X37288800Y-29253801D01*
X36900000Y-28865000D02*
X35850000Y-28865000D01*
X36892400Y-32896400D02*
X36633214Y-32896400D01*
X35865000Y-28865000D02*
X35600000Y-28865000D01*
X37017500Y-28982500D02*
X36900000Y-28865000D01*
X36633214Y-32896400D02*
X36400000Y-33129614D01*
X36400000Y-33129614D02*
X36400000Y-33562500D01*
%TO.N,SPI0 RX*%
X52750000Y-21250000D02*
X52499999Y-21500001D01*
X34150000Y-36400000D02*
X34500000Y-36750000D01*
X52750000Y-37250000D02*
X52499999Y-37500001D01*
X52750000Y-45250000D02*
X52499999Y-45500001D01*
X52499999Y-29500001D02*
X52499999Y-30574300D01*
X52499999Y-45500001D02*
X52499999Y-46574300D01*
X52499999Y-37500001D02*
X52499999Y-38574300D01*
X52499999Y-13500001D02*
X52499999Y-14574300D01*
X52750000Y-13250000D02*
X52499999Y-13500001D01*
X52750000Y-29250000D02*
X52499999Y-29500001D01*
X52750000Y-53250000D02*
X52499999Y-53500001D01*
X52499999Y-53500001D02*
X52499999Y-54574300D01*
X52499999Y-21500001D02*
X52499999Y-22574300D01*
X33562500Y-36400000D02*
X34150000Y-36400000D01*
%TO.N,CAN3 INT*%
X47745261Y-29796400D02*
X48528600Y-30579739D01*
X44000000Y-30500000D02*
X44703600Y-29796400D01*
X48528600Y-30579739D02*
X48528600Y-31919499D01*
X42500000Y-31000000D02*
X43000000Y-30500000D01*
X49109102Y-32500001D02*
X49574300Y-32500001D01*
X43000000Y-30500000D02*
X44000000Y-30500000D01*
X42109600Y-36427900D02*
X42109600Y-35289608D01*
X42500000Y-34899208D02*
X42500000Y-31000000D01*
X44703600Y-29796400D02*
X47745261Y-29796400D01*
X42109600Y-35289608D02*
X42500000Y-34899208D01*
X48528600Y-31919499D02*
X49109102Y-32500001D01*
X41337500Y-37200000D02*
X42109600Y-36427900D01*
X40437500Y-37200000D02*
X41337500Y-37200000D01*
%TO.N,/CAN Output 3/OSC2*%
X48938252Y-33000000D02*
X49574300Y-33000000D01*
X48088252Y-32150000D02*
X48938252Y-33000000D01*
X47600000Y-32150000D02*
X47600000Y-30825000D01*
X47600000Y-30825000D02*
X47275000Y-30500000D01*
X47600000Y-32150000D02*
X48088252Y-32150000D01*
%TO.N,/QSPI_SD2*%
X30836400Y-28336400D02*
X27715222Y-28336400D01*
X27715222Y-28336400D02*
X27376200Y-28675422D01*
X35200000Y-32700000D02*
X30836400Y-28336400D01*
X35200000Y-33562500D02*
X35200000Y-32700000D01*
X27376200Y-28675422D02*
X27376200Y-29661199D01*
X27850001Y-30135000D02*
X28650000Y-30135000D01*
X27376200Y-29661199D02*
X27850001Y-30135000D01*
%TO.N,CAN4 INT*%
X49574300Y-40500001D02*
X49040900Y-40500001D01*
X48500000Y-39102278D02*
X47194122Y-37796400D01*
X40441100Y-38403600D02*
X40437500Y-38400000D01*
X43596400Y-38403600D02*
X40441100Y-38403600D01*
X48500000Y-39959101D02*
X48500000Y-39102278D01*
X47194122Y-37796400D02*
X44203600Y-37796400D01*
X49040900Y-40500001D02*
X48500000Y-39959101D01*
X44203600Y-37796400D02*
X43596400Y-38403600D01*
%TO.N,SPI0 6CS*%
X32325000Y-40000000D02*
X32000000Y-40000000D01*
X33562500Y-39200000D02*
X33125000Y-39200000D01*
X52000000Y-54574300D02*
X52000000Y-53000000D01*
X33125000Y-39200000D02*
X32325000Y-40000000D01*
%TO.N,CAN2 INT1*%
X42652278Y-27500000D02*
X44000000Y-27500000D01*
X49425700Y-28500000D02*
X50500000Y-27425700D01*
X45000000Y-28500000D02*
X49425700Y-28500000D01*
X42195200Y-27957078D02*
X42652278Y-27500000D01*
X41804800Y-36195200D02*
X41804800Y-35163356D01*
X41200000Y-36800000D02*
X41804800Y-36195200D01*
X41804800Y-35163356D02*
X42195200Y-34772956D01*
X42195200Y-34772956D02*
X42195200Y-27957078D01*
X44000000Y-27500000D02*
X45000000Y-28500000D01*
X40437500Y-36800000D02*
X41200000Y-36800000D01*
%TO.N,CAN4 INT1*%
X42000000Y-42847722D02*
X42000000Y-39708400D01*
X42555878Y-43403600D02*
X42000000Y-42847722D01*
X42000000Y-39708400D02*
X41091600Y-38800000D01*
X43903600Y-43403600D02*
X42555878Y-43403600D01*
X41091600Y-38800000D02*
X40437500Y-38800000D01*
X50500000Y-43425700D02*
X49425700Y-44500000D01*
X45000000Y-44500000D02*
X43903600Y-43403600D01*
X49425700Y-44500000D02*
X45000000Y-44500000D01*
%TO.N,/CAN Output 4/OSC1*%
X48521400Y-41021400D02*
X48999999Y-41499999D01*
X44900000Y-41850000D02*
X44900000Y-43175000D01*
X45728600Y-41021400D02*
X48521400Y-41021400D01*
X48999999Y-41499999D02*
X49574300Y-41499999D01*
X44900000Y-43175000D02*
X45225000Y-43500000D01*
X44900000Y-41850000D02*
X45728600Y-41021400D01*
%TO.N,CAN2 INT*%
X41890400Y-34646704D02*
X41890400Y-27830826D01*
X42500000Y-22500000D02*
X44000000Y-22500000D01*
X41500000Y-35995200D02*
X41500000Y-35037104D01*
X44703600Y-21796400D02*
X47796400Y-21796400D01*
X49040900Y-24500001D02*
X49574300Y-24500001D01*
X41500000Y-35037104D02*
X41890400Y-34646704D01*
X42000000Y-27721226D02*
X42000000Y-23000000D01*
X44000000Y-22500000D02*
X44703600Y-21796400D01*
X41890400Y-27830826D02*
X42000000Y-27721226D01*
X40437500Y-36400000D02*
X41095200Y-36400000D01*
X41095200Y-36400000D02*
X41500000Y-35995200D01*
X42000000Y-23000000D02*
X42500000Y-22500000D01*
X47796400Y-21796400D02*
X48542800Y-22542800D01*
X48542800Y-22542800D02*
X48542800Y-24001901D01*
X48542800Y-24001901D02*
X49040900Y-24500001D01*
%TO.N,/QSPI_SD0*%
X35600000Y-31655000D02*
X35600000Y-33562500D01*
X35850000Y-31405000D02*
X35600000Y-31655000D01*
%TO.N,SPI0 2CS*%
X33995386Y-37200000D02*
X33562500Y-37200000D01*
X52000000Y-22574300D02*
X52000000Y-21000000D01*
X34647693Y-37852307D02*
X33995386Y-37200000D01*
%TO.N,CAN1 INT*%
X49040900Y-16500001D02*
X48542800Y-16001901D01*
X47694122Y-13796400D02*
X44607200Y-13796400D01*
X43076139Y-14500000D02*
X42500000Y-15076139D01*
X42500000Y-19000000D02*
X41280800Y-20219200D01*
X40875000Y-34800000D02*
X40437500Y-34800000D01*
X41280800Y-34394200D02*
X40875000Y-34800000D01*
X49574300Y-16500001D02*
X49040900Y-16500001D01*
X44607200Y-13796400D02*
X43903600Y-14500000D01*
X41280800Y-20219200D02*
X41280800Y-34394200D01*
X48542800Y-16001901D02*
X48542800Y-14645078D01*
X48542800Y-14645078D02*
X47694122Y-13796400D01*
X42500000Y-15076139D02*
X42500000Y-19000000D01*
X43903600Y-14500000D02*
X43076139Y-14500000D01*
%TO.N,/CAN Output 4/OSC2*%
X47450000Y-40500000D02*
X48500000Y-40500000D01*
X47100000Y-40150000D02*
X47450000Y-40500000D01*
X46600000Y-40150000D02*
X46950000Y-40500000D01*
X47100000Y-40150000D02*
X47100000Y-38825000D01*
X47100000Y-38825000D02*
X46775000Y-38500000D01*
X49000000Y-41000000D02*
X49574300Y-41000000D01*
X46775000Y-39825000D02*
X47100000Y-40150000D01*
X48500000Y-40500000D02*
X49000000Y-41000000D01*
%TO.N,SPI0 SCK*%
X34400000Y-35600000D02*
X34500000Y-35500000D01*
X54074300Y-30000000D02*
X53500000Y-30574300D01*
X54074300Y-54000000D02*
X53500000Y-54574300D01*
X54074300Y-38000000D02*
X53500000Y-38574300D01*
X33562500Y-35600000D02*
X34400000Y-35600000D01*
X54074300Y-22000000D02*
X53500000Y-22574300D01*
X54074300Y-46000000D02*
X53500000Y-46574300D01*
X54074300Y-14000000D02*
X53500000Y-14574300D01*
%TO.N,SPI0 TX*%
X53000001Y-21999999D02*
X53000001Y-22574300D01*
X53000001Y-53999999D02*
X53000001Y-54574300D01*
X53500000Y-29500000D02*
X53000001Y-29999999D01*
X53000001Y-13999999D02*
X53000001Y-14574300D01*
X53500000Y-53500000D02*
X53000001Y-53999999D01*
X53000001Y-37999999D02*
X53000001Y-38574300D01*
X53000001Y-45999999D02*
X53000001Y-46574300D01*
X53500000Y-21500000D02*
X53000001Y-21999999D01*
X32500000Y-36000000D02*
X33562500Y-36000000D01*
X53500000Y-37500000D02*
X53000001Y-37999999D01*
X53500000Y-13500000D02*
X53000001Y-13999999D01*
X53500000Y-45500000D02*
X53000001Y-45999999D01*
X53000001Y-29999999D02*
X53000001Y-30574300D01*
%TO.N,SPI0 4CS*%
X32500000Y-38400001D02*
X32500001Y-38400000D01*
X32500001Y-38400000D02*
X33562500Y-38400000D01*
X52000000Y-38574300D02*
X52000000Y-37000000D01*
%TO.N,CAN6 INT1*%
X41085600Y-46695200D02*
X41441200Y-47050800D01*
X40585600Y-42136739D02*
X40585600Y-43878756D01*
X42403600Y-59403600D02*
X43403600Y-59403600D01*
X39713639Y-41551139D02*
X40000000Y-41551139D01*
X39200000Y-41037500D02*
X39713639Y-41551139D01*
X40585600Y-43878756D02*
X41085600Y-44378756D01*
X44203600Y-60203600D02*
X49722100Y-60203600D01*
X40000000Y-41551139D02*
X40585600Y-42136739D01*
X43403600Y-59403600D02*
X44203600Y-60203600D01*
X41441200Y-51079185D02*
X41720600Y-51358585D01*
X49722100Y-60203600D02*
X50500000Y-59425700D01*
X41720600Y-51358585D02*
X41720600Y-58720600D01*
X41441200Y-47050800D02*
X41441200Y-51079185D01*
X41085600Y-44378756D02*
X41085600Y-46695200D01*
X41720600Y-58720600D02*
X42403600Y-59403600D01*
X39200000Y-40437500D02*
X39200000Y-41037500D01*
%TO.N,/QSPI_SCLK*%
X36135000Y-30135000D02*
X35600000Y-30135000D01*
X36946834Y-30431835D02*
X36946834Y-32178166D01*
X36946834Y-32178166D02*
X36000000Y-33125000D01*
X35850000Y-30135000D02*
X36649999Y-30135000D01*
X36000000Y-33125000D02*
X36000000Y-33562500D01*
X36649999Y-30135000D02*
X36946834Y-30431835D01*
%TO.N,CAN5 INT1*%
X41195200Y-40195200D02*
X40600000Y-39600000D01*
X41695200Y-46195200D02*
X41695200Y-44126252D01*
X49425700Y-52500000D02*
X45000000Y-52500000D01*
X42000000Y-46500000D02*
X41695200Y-46195200D01*
X50500000Y-51425700D02*
X49425700Y-52500000D01*
X41695200Y-44126252D02*
X41195200Y-43626252D01*
X40600000Y-39600000D02*
X40437500Y-39600000D01*
X43903600Y-51403600D02*
X42555878Y-51403600D01*
X42555878Y-51403600D02*
X42000000Y-50847722D01*
X41195200Y-43626252D02*
X41195200Y-40195200D01*
X45000000Y-52500000D02*
X43903600Y-51403600D01*
X42000000Y-50847722D02*
X42000000Y-46500000D01*
%TO.N,CAN5 INT*%
X41500000Y-39639452D02*
X41060548Y-39200000D01*
X48500000Y-47959101D02*
X48500000Y-47000000D01*
X44704661Y-45719200D02*
X43923861Y-46500000D01*
X49040900Y-48500001D02*
X48500000Y-47959101D01*
X41500000Y-43500000D02*
X41500000Y-39639452D01*
X43923861Y-46500000D02*
X42431052Y-46500000D01*
X48500000Y-47000000D02*
X47219200Y-45719200D01*
X47219200Y-45719200D02*
X44704661Y-45719200D01*
X42000000Y-44000000D02*
X41500000Y-43500000D01*
X41060548Y-39200000D02*
X40437500Y-39200000D01*
X49574300Y-48500001D02*
X49040900Y-48500001D01*
X42431052Y-46500000D02*
X42000000Y-46068948D01*
X42000000Y-46068948D02*
X42000000Y-44000000D01*
%TO.N,SPI0 1CS*%
X52000000Y-14574300D02*
X52000000Y-13000000D01*
X32500000Y-36799999D02*
X32500001Y-36800000D01*
X32500001Y-36800000D02*
X33562500Y-36800000D01*
%TO.N,CAN3 INT1*%
X50500000Y-35425700D02*
X49425700Y-36500000D01*
X49425700Y-36500000D02*
X45500000Y-36500000D01*
X42500000Y-36500000D02*
X41400000Y-37600000D01*
X45500000Y-36500000D02*
X44500000Y-35500000D01*
X43000000Y-35500000D02*
X42500000Y-36000000D01*
X44500000Y-35500000D02*
X43000000Y-35500000D01*
X41400000Y-37600000D02*
X40437500Y-37600000D01*
X42500000Y-36000000D02*
X42500000Y-36500000D01*
%TO.N,SPI0 5CS*%
X52000000Y-46574300D02*
X52000000Y-45000000D01*
X32000000Y-39000000D02*
X32654060Y-39000000D01*
X32654060Y-39000000D02*
X32854060Y-38800000D01*
X32854060Y-38800000D02*
X33562500Y-38800000D01*
%TO.N,SPI0 3CS*%
X33552900Y-37609600D02*
X33562500Y-37600000D01*
X52000000Y-30574300D02*
X52000000Y-29000000D01*
X32501956Y-37600000D02*
X33562500Y-37600000D01*
%TO.N,/CAN Output 5/OSC1*%
X48499999Y-49499999D02*
X49574300Y-49499999D01*
X44900000Y-49850000D02*
X45728600Y-49021400D01*
X44900000Y-51175000D02*
X45225000Y-51500000D01*
X48021400Y-49021400D02*
X48499999Y-49499999D01*
X44900000Y-49850000D02*
X44900000Y-51175000D01*
X45728600Y-49021400D02*
X48021400Y-49021400D01*
%TO.N,Net-(U4-TXCAN)*%
X50074300Y-14574300D02*
X50500000Y-14574300D01*
X55220600Y-15738498D02*
X55220600Y-15220600D01*
X55220600Y-15220600D02*
X54875000Y-14875000D01*
X54425700Y-15999999D02*
X54959100Y-15999999D01*
X49750000Y-14250000D02*
X50074300Y-14574300D01*
X54959100Y-15999999D02*
X55220600Y-15738498D01*
%TO.N,Net-(U4-RXCAN)*%
X49500000Y-15500000D02*
X49500000Y-15000000D01*
%TO.N,/CAN Output 5/OSC2*%
X47704550Y-48150000D02*
X48554550Y-49000000D01*
X48554550Y-49000000D02*
X49574300Y-49000000D01*
X47100000Y-48150000D02*
X47704550Y-48150000D01*
X47100000Y-48150000D02*
X47100000Y-46825000D01*
X47100000Y-46825000D02*
X46775000Y-46500000D01*
%TO.N,Net-(U5-TXCAN)*%
X55220600Y-23220600D02*
X54875000Y-22875000D01*
X55220600Y-23738498D02*
X55220600Y-23220600D01*
X49750000Y-22250000D02*
X50074300Y-22574300D01*
X50074300Y-22574300D02*
X50500000Y-22574300D01*
X54959100Y-23999999D02*
X55220600Y-23738498D01*
X54425700Y-23999999D02*
X54959100Y-23999999D01*
%TO.N,/CAN Output 6/OSC1*%
X44900000Y-59175000D02*
X45225000Y-59500000D01*
X44900000Y-57850000D02*
X44900000Y-59175000D01*
X48021401Y-57021400D02*
X48500000Y-57499999D01*
X44900000Y-57850000D02*
X45728600Y-57021400D01*
X45728600Y-57021400D02*
X48021401Y-57021400D01*
X48500000Y-57499999D02*
X49574300Y-57499999D01*
%TO.N,Net-(U5-RXCAN)*%
X51178859Y-29000000D02*
X52000000Y-28178859D01*
X50000000Y-29000000D02*
X51178859Y-29000000D01*
X52000000Y-28178859D02*
X52000000Y-27425700D01*
X49500000Y-23500000D02*
X49500000Y-23000000D01*
%TO.N,/CAN Output 6/OSC2*%
X47100000Y-54825000D02*
X46775000Y-54500000D01*
X47100000Y-56150000D02*
X47100000Y-54825000D01*
X47100000Y-56150000D02*
X48150000Y-56150000D01*
X48150000Y-56150000D02*
X49000000Y-57000000D01*
X49000000Y-57000000D02*
X49574300Y-57000000D01*
%TO.N,Net-(U6-RXCAN)*%
X51178859Y-37000000D02*
X52000000Y-36178859D01*
X50000000Y-37000000D02*
X51178859Y-37000000D01*
X49500000Y-31500000D02*
X49500000Y-31000000D01*
X52000000Y-36178859D02*
X52000000Y-35425700D01*
%TO.N,Net-(U6-TXCAN)*%
X50074300Y-30574300D02*
X50500000Y-30574300D01*
X49750000Y-30250000D02*
X50074300Y-30574300D01*
X54959100Y-31999999D02*
X55220600Y-31738498D01*
X54425700Y-31999999D02*
X54959100Y-31999999D01*
X55220600Y-31220600D02*
X54875000Y-30875000D01*
X55220600Y-31738498D02*
X55220600Y-31220600D01*
%TO.N,Net-(U7-RXCAN)*%
X49500000Y-39500000D02*
X49500000Y-39000000D01*
X52000000Y-44178859D02*
X52000000Y-43425700D01*
X50000000Y-45000000D02*
X51178859Y-45000000D01*
X51178859Y-45000000D02*
X52000000Y-44178859D01*
%TO.N,ADC 1*%
X40437500Y-35600000D02*
X39600000Y-35600000D01*
X39600000Y-35600000D02*
X39500000Y-35500000D01*
%TO.N,Net-(U7-TXCAN)*%
X54959100Y-39999999D02*
X55220600Y-39738498D01*
X54425700Y-39999999D02*
X54959100Y-39999999D01*
X49750000Y-38250000D02*
X50074300Y-38574300D01*
X55220600Y-39738498D02*
X55220600Y-39220600D01*
X55220600Y-39220600D02*
X54875000Y-38875000D01*
X50074300Y-38574300D02*
X50500000Y-38574300D01*
%TO.N,SPI1 TX*%
X33500000Y-40500000D02*
X33562500Y-40437500D01*
X33562500Y-40437500D02*
X33562500Y-39600000D01*
%TO.N,Net-(U8-RXCAN)*%
X49500000Y-47500000D02*
X49500000Y-47000000D01*
X52000000Y-52178859D02*
X52000000Y-51425700D01*
X51178859Y-53000000D02*
X52000000Y-52178859D01*
X50000000Y-53000000D02*
X51178859Y-53000000D01*
%TO.N,Net-(U8-TXCAN)*%
X50074300Y-46574300D02*
X50500000Y-46574300D01*
X49750000Y-46250000D02*
X50074300Y-46574300D01*
X54425700Y-47999999D02*
X54959100Y-47999999D01*
X54959100Y-47999999D02*
X55220600Y-47738498D01*
X55220600Y-47220600D02*
X54875000Y-46875000D01*
X55220600Y-47738498D02*
X55220600Y-47220600D01*
%TO.N,Net-(U9-RXCAN)*%
X49500000Y-55500000D02*
X49500000Y-55000000D01*
X50000000Y-61000000D02*
X51178859Y-61000000D01*
X52000000Y-60178859D02*
X52000000Y-59425700D01*
X51178859Y-61000000D02*
X52000000Y-60178859D01*
%TO.N,Net-(U9-TXCAN)*%
X54425700Y-55999999D02*
X54959100Y-55999999D01*
X50074300Y-54574300D02*
X50500000Y-54574300D01*
X55220600Y-55738498D02*
X55220600Y-55220600D01*
X55220600Y-55220600D02*
X54875000Y-54875000D01*
X54959100Y-55999999D02*
X55220600Y-55738498D01*
X49750000Y-54250000D02*
X50074300Y-54574300D01*
%TO.N,SPI1 SCK*%
X35200000Y-41300000D02*
X35000000Y-41500000D01*
X35200000Y-40437500D02*
X35200000Y-41300000D01*
%TO.N,SPI1 RX*%
X33000000Y-42000000D02*
X33000000Y-41837500D01*
X33000000Y-41837500D02*
X34400000Y-40437500D01*
%TO.N,SPI1 CSn*%
X34000000Y-42000000D02*
X34000000Y-41670386D01*
X34800000Y-40870386D02*
X34800000Y-40437500D01*
X34000000Y-41670386D02*
X34800000Y-40870386D01*
%TO.N,ADC 0*%
X40000000Y-36000000D02*
X40437500Y-36000000D01*
X39500000Y-36500000D02*
X40000000Y-36000000D01*
X40475955Y-36038455D02*
X40437500Y-36000000D01*
%TO.N,GPIO 15*%
X30400000Y-56750000D02*
X34500000Y-52650000D01*
X35985462Y-39619152D02*
X35600000Y-40004614D01*
X36465692Y-39619152D02*
X35985462Y-39619152D01*
X35600000Y-40004614D02*
X35600000Y-40437500D01*
X29050000Y-56750000D02*
X30400000Y-56750000D01*
%TO.N,Net-(R5-Pad2)*%
X28175000Y-23075000D02*
X28250000Y-23000000D01*
X28175000Y-25500000D02*
X28175000Y-22575000D01*
X28175000Y-22575000D02*
X28250000Y-22500000D01*
%TO.N,Net-(D1-K)*%
X39875000Y-51462500D02*
X39912500Y-51500000D01*
X39875000Y-50000000D02*
X39875000Y-51462500D01*
%TO.N,Net-(Q1-D)*%
X37937500Y-51350000D02*
X38087500Y-51500000D01*
X34500000Y-51350000D02*
X37937500Y-51350000D01*
D43*
%TO.N,GND*%
X50969058Y-20387858D02*
X51223643Y-20387858D01*
X51223643Y-20387858D02*
X51500001Y-20111500D01*
X51500001Y-20111500D02*
X51500001Y-19425700D01*
D41*
%TO.N,Net-(U4-RXCAN)*%
X50000000Y-21000000D02*
X51178859Y-21000000D01*
X51178859Y-21000000D02*
X52000000Y-20178859D01*
X52000000Y-20178859D02*
X52000000Y-19425700D01*
D43*
%TO.N,+3V3*%
X48000000Y-21215200D02*
X48425400Y-21640600D01*
X48425400Y-21640600D02*
X51183899Y-21640600D01*
X51183899Y-21640600D02*
X51500001Y-21956702D01*
X51500001Y-21956702D02*
X51500001Y-22574300D01*
D41*
%TO.N,CAN1 INT1*%
X40906052Y-35200000D02*
X40437500Y-35200000D01*
X41585600Y-34520452D02*
X40906052Y-35200000D01*
X41585600Y-20914400D02*
X41585600Y-34520452D01*
X42903600Y-19596400D02*
X41585600Y-20914400D01*
X44096400Y-19596400D02*
X42903600Y-19596400D01*
X45000000Y-20500000D02*
X44096400Y-19596400D01*
X45000000Y-20500000D02*
X49425700Y-20500000D01*
X49425700Y-20500000D02*
X50500000Y-19425700D01*
%TO.N,RUN*%
X39500000Y-52750000D02*
X39000000Y-53250000D01*
X39000000Y-49275000D02*
X39000000Y-52750000D01*
X39000000Y-52750000D02*
X40000000Y-53750000D01*
X38225000Y-48500000D02*
X39000000Y-49275000D01*
%TD*%
M02*
