%TF.GenerationSoftware,KiCad,Pcbnew,8.0.8*%
%TF.CreationDate,2025-02-02T13:18:11-05:00*%
%TF.ProjectId,CAN Board,43414e20-426f-4617-9264-2e6b69636164,rev?*%
%TF.SameCoordinates,Original*%
%TF.FileFunction,Legend,Top*%
%TF.FilePolarity,Positive*%
%FSLAX46Y46*%
G04 Gerber Fmt 4.6, Leading zero omitted, Abs format (unit mm)*
G04 Created by KiCad (PCBNEW 8.0.8) date 2025-02-02 13:18:11*
%MOMM*%
%LPD*%
G01*
G04 APERTURE LIST*
%ADD10C,0.150000*%
%ADD11C,0.120000*%
%ADD12C,0.152400*%
%ADD13C,0.000000*%
G04 APERTURE END LIST*
D10*
X31637704Y-40591666D02*
X32437704Y-40591666D01*
X32437704Y-40591666D02*
X32437704Y-40896428D01*
X32437704Y-40896428D02*
X32399609Y-40972618D01*
X32399609Y-40972618D02*
X32361514Y-41010713D01*
X32361514Y-41010713D02*
X32285323Y-41048809D01*
X32285323Y-41048809D02*
X32171038Y-41048809D01*
X32171038Y-41048809D02*
X32094847Y-41010713D01*
X32094847Y-41010713D02*
X32056752Y-40972618D01*
X32056752Y-40972618D02*
X32018657Y-40896428D01*
X32018657Y-40896428D02*
X32018657Y-40591666D01*
X32437704Y-41315475D02*
X31637704Y-41505951D01*
X31637704Y-41505951D02*
X32209133Y-41658332D01*
X32209133Y-41658332D02*
X31637704Y-41810713D01*
X31637704Y-41810713D02*
X32437704Y-42001190D01*
X31637704Y-42763095D02*
X32018657Y-42496428D01*
X31637704Y-42305952D02*
X32437704Y-42305952D01*
X32437704Y-42305952D02*
X32437704Y-42610714D01*
X32437704Y-42610714D02*
X32399609Y-42686904D01*
X32399609Y-42686904D02*
X32361514Y-42724999D01*
X32361514Y-42724999D02*
X32285323Y-42763095D01*
X32285323Y-42763095D02*
X32171038Y-42763095D01*
X32171038Y-42763095D02*
X32094847Y-42724999D01*
X32094847Y-42724999D02*
X32056752Y-42686904D01*
X32056752Y-42686904D02*
X32018657Y-42610714D01*
X32018657Y-42610714D02*
X32018657Y-42305952D01*
X31371038Y-43296428D02*
X32513895Y-43296428D01*
X32437704Y-43867857D02*
X31790085Y-43867857D01*
X31790085Y-43867857D02*
X31713895Y-43905952D01*
X31713895Y-43905952D02*
X31675800Y-43944047D01*
X31675800Y-43944047D02*
X31637704Y-44020238D01*
X31637704Y-44020238D02*
X31637704Y-44172619D01*
X31637704Y-44172619D02*
X31675800Y-44248809D01*
X31675800Y-44248809D02*
X31713895Y-44286904D01*
X31713895Y-44286904D02*
X31790085Y-44325000D01*
X31790085Y-44325000D02*
X32437704Y-44325000D01*
X31866276Y-44667856D02*
X31866276Y-45048809D01*
X31637704Y-44591666D02*
X32437704Y-44858333D01*
X32437704Y-44858333D02*
X31637704Y-45124999D01*
X31637704Y-45848809D02*
X32018657Y-45582142D01*
X31637704Y-45391666D02*
X32437704Y-45391666D01*
X32437704Y-45391666D02*
X32437704Y-45696428D01*
X32437704Y-45696428D02*
X32399609Y-45772618D01*
X32399609Y-45772618D02*
X32361514Y-45810713D01*
X32361514Y-45810713D02*
X32285323Y-45848809D01*
X32285323Y-45848809D02*
X32171038Y-45848809D01*
X32171038Y-45848809D02*
X32094847Y-45810713D01*
X32094847Y-45810713D02*
X32056752Y-45772618D01*
X32056752Y-45772618D02*
X32018657Y-45696428D01*
X32018657Y-45696428D02*
X32018657Y-45391666D01*
X32437704Y-46077380D02*
X32437704Y-46534523D01*
X31637704Y-46305951D02*
X32437704Y-46305951D01*
X31371038Y-46991666D02*
X32513895Y-46991666D01*
X31675800Y-47524999D02*
X31637704Y-47639285D01*
X31637704Y-47639285D02*
X31637704Y-47829761D01*
X31637704Y-47829761D02*
X31675800Y-47905952D01*
X31675800Y-47905952D02*
X31713895Y-47944047D01*
X31713895Y-47944047D02*
X31790085Y-47982142D01*
X31790085Y-47982142D02*
X31866276Y-47982142D01*
X31866276Y-47982142D02*
X31942466Y-47944047D01*
X31942466Y-47944047D02*
X31980561Y-47905952D01*
X31980561Y-47905952D02*
X32018657Y-47829761D01*
X32018657Y-47829761D02*
X32056752Y-47677380D01*
X32056752Y-47677380D02*
X32094847Y-47601190D01*
X32094847Y-47601190D02*
X32132942Y-47563095D01*
X32132942Y-47563095D02*
X32209133Y-47524999D01*
X32209133Y-47524999D02*
X32285323Y-47524999D01*
X32285323Y-47524999D02*
X32361514Y-47563095D01*
X32361514Y-47563095D02*
X32399609Y-47601190D01*
X32399609Y-47601190D02*
X32437704Y-47677380D01*
X32437704Y-47677380D02*
X32437704Y-47867857D01*
X32437704Y-47867857D02*
X32399609Y-47982142D01*
X32437704Y-48248809D02*
X31637704Y-48439285D01*
X31637704Y-48439285D02*
X32209133Y-48591666D01*
X32209133Y-48591666D02*
X31637704Y-48744047D01*
X31637704Y-48744047D02*
X32437704Y-48934524D01*
X31637704Y-49239286D02*
X32437704Y-49239286D01*
X32437704Y-49239286D02*
X32437704Y-49429762D01*
X32437704Y-49429762D02*
X32399609Y-49544048D01*
X32399609Y-49544048D02*
X32323419Y-49620238D01*
X32323419Y-49620238D02*
X32247228Y-49658333D01*
X32247228Y-49658333D02*
X32094847Y-49696429D01*
X32094847Y-49696429D02*
X31980561Y-49696429D01*
X31980561Y-49696429D02*
X31828180Y-49658333D01*
X31828180Y-49658333D02*
X31751990Y-49620238D01*
X31751990Y-49620238D02*
X31675800Y-49544048D01*
X31675800Y-49544048D02*
X31637704Y-49429762D01*
X31637704Y-49429762D02*
X31637704Y-49239286D01*
X32399609Y-57200000D02*
X32437704Y-57123810D01*
X32437704Y-57123810D02*
X32437704Y-57009524D01*
X32437704Y-57009524D02*
X32399609Y-56895238D01*
X32399609Y-56895238D02*
X32323419Y-56819048D01*
X32323419Y-56819048D02*
X32247228Y-56780953D01*
X32247228Y-56780953D02*
X32094847Y-56742857D01*
X32094847Y-56742857D02*
X31980561Y-56742857D01*
X31980561Y-56742857D02*
X31828180Y-56780953D01*
X31828180Y-56780953D02*
X31751990Y-56819048D01*
X31751990Y-56819048D02*
X31675800Y-56895238D01*
X31675800Y-56895238D02*
X31637704Y-57009524D01*
X31637704Y-57009524D02*
X31637704Y-57085715D01*
X31637704Y-57085715D02*
X31675800Y-57200000D01*
X31675800Y-57200000D02*
X31713895Y-57238096D01*
X31713895Y-57238096D02*
X31980561Y-57238096D01*
X31980561Y-57238096D02*
X31980561Y-57085715D01*
X31637704Y-57580953D02*
X32437704Y-57580953D01*
X32437704Y-57580953D02*
X32437704Y-57885715D01*
X32437704Y-57885715D02*
X32399609Y-57961905D01*
X32399609Y-57961905D02*
X32361514Y-58000000D01*
X32361514Y-58000000D02*
X32285323Y-58038096D01*
X32285323Y-58038096D02*
X32171038Y-58038096D01*
X32171038Y-58038096D02*
X32094847Y-58000000D01*
X32094847Y-58000000D02*
X32056752Y-57961905D01*
X32056752Y-57961905D02*
X32018657Y-57885715D01*
X32018657Y-57885715D02*
X32018657Y-57580953D01*
X31637704Y-58380953D02*
X32437704Y-58380953D01*
X32437704Y-58914286D02*
X32437704Y-59066667D01*
X32437704Y-59066667D02*
X32399609Y-59142857D01*
X32399609Y-59142857D02*
X32323419Y-59219048D01*
X32323419Y-59219048D02*
X32171038Y-59257143D01*
X32171038Y-59257143D02*
X31904371Y-59257143D01*
X31904371Y-59257143D02*
X31751990Y-59219048D01*
X31751990Y-59219048D02*
X31675800Y-59142857D01*
X31675800Y-59142857D02*
X31637704Y-59066667D01*
X31637704Y-59066667D02*
X31637704Y-58914286D01*
X31637704Y-58914286D02*
X31675800Y-58838095D01*
X31675800Y-58838095D02*
X31751990Y-58761905D01*
X31751990Y-58761905D02*
X31904371Y-58723809D01*
X31904371Y-58723809D02*
X32171038Y-58723809D01*
X32171038Y-58723809D02*
X32323419Y-58761905D01*
X32323419Y-58761905D02*
X32399609Y-58838095D01*
X32399609Y-58838095D02*
X32437704Y-58914286D01*
X37175800Y-56680952D02*
X37137704Y-56795238D01*
X37137704Y-56795238D02*
X37137704Y-56985714D01*
X37137704Y-56985714D02*
X37175800Y-57061905D01*
X37175800Y-57061905D02*
X37213895Y-57100000D01*
X37213895Y-57100000D02*
X37290085Y-57138095D01*
X37290085Y-57138095D02*
X37366276Y-57138095D01*
X37366276Y-57138095D02*
X37442466Y-57100000D01*
X37442466Y-57100000D02*
X37480561Y-57061905D01*
X37480561Y-57061905D02*
X37518657Y-56985714D01*
X37518657Y-56985714D02*
X37556752Y-56833333D01*
X37556752Y-56833333D02*
X37594847Y-56757143D01*
X37594847Y-56757143D02*
X37632942Y-56719048D01*
X37632942Y-56719048D02*
X37709133Y-56680952D01*
X37709133Y-56680952D02*
X37785323Y-56680952D01*
X37785323Y-56680952D02*
X37861514Y-56719048D01*
X37861514Y-56719048D02*
X37899609Y-56757143D01*
X37899609Y-56757143D02*
X37937704Y-56833333D01*
X37937704Y-56833333D02*
X37937704Y-57023810D01*
X37937704Y-57023810D02*
X37899609Y-57138095D01*
X37137704Y-57480953D02*
X37937704Y-57480953D01*
X37937704Y-57480953D02*
X37937704Y-57785715D01*
X37937704Y-57785715D02*
X37899609Y-57861905D01*
X37899609Y-57861905D02*
X37861514Y-57900000D01*
X37861514Y-57900000D02*
X37785323Y-57938096D01*
X37785323Y-57938096D02*
X37671038Y-57938096D01*
X37671038Y-57938096D02*
X37594847Y-57900000D01*
X37594847Y-57900000D02*
X37556752Y-57861905D01*
X37556752Y-57861905D02*
X37518657Y-57785715D01*
X37518657Y-57785715D02*
X37518657Y-57480953D01*
X37137704Y-58280953D02*
X37937704Y-58280953D01*
X48558300Y-46704819D02*
X48558300Y-46942914D01*
X48320205Y-46847676D02*
X48558300Y-46942914D01*
X48558300Y-46942914D02*
X48796395Y-46847676D01*
X48415443Y-47133390D02*
X48558300Y-46942914D01*
X48558300Y-46942914D02*
X48701157Y-47133390D01*
X48558300Y-46704819D02*
X48558300Y-46942914D01*
X48320205Y-46847676D02*
X48558300Y-46942914D01*
X48558300Y-46942914D02*
X48796395Y-46847676D01*
X48415443Y-47133390D02*
X48558300Y-46942914D01*
X48558300Y-46942914D02*
X48701157Y-47133390D01*
X48558300Y-14704819D02*
X48558300Y-14942914D01*
X48320205Y-14847676D02*
X48558300Y-14942914D01*
X48558300Y-14942914D02*
X48796395Y-14847676D01*
X48415443Y-15133390D02*
X48558300Y-14942914D01*
X48558300Y-14942914D02*
X48701157Y-15133390D01*
X48558300Y-14704819D02*
X48558300Y-14942914D01*
X48320205Y-14847676D02*
X48558300Y-14942914D01*
X48558300Y-14942914D02*
X48796395Y-14847676D01*
X48415443Y-15133390D02*
X48558300Y-14942914D01*
X48558300Y-14942914D02*
X48701157Y-15133390D01*
X48558300Y-54704819D02*
X48558300Y-54942914D01*
X48320205Y-54847676D02*
X48558300Y-54942914D01*
X48558300Y-54942914D02*
X48796395Y-54847676D01*
X48415443Y-55133390D02*
X48558300Y-54942914D01*
X48558300Y-54942914D02*
X48701157Y-55133390D01*
X48558300Y-54704819D02*
X48558300Y-54942914D01*
X48320205Y-54847676D02*
X48558300Y-54942914D01*
X48558300Y-54942914D02*
X48796395Y-54847676D01*
X48415443Y-55133390D02*
X48558300Y-54942914D01*
X48558300Y-54942914D02*
X48701157Y-55133390D01*
X48558300Y-38704819D02*
X48558300Y-38942914D01*
X48320205Y-38847676D02*
X48558300Y-38942914D01*
X48558300Y-38942914D02*
X48796395Y-38847676D01*
X48415443Y-39133390D02*
X48558300Y-38942914D01*
X48558300Y-38942914D02*
X48701157Y-39133390D01*
X48558300Y-38704819D02*
X48558300Y-38942914D01*
X48320205Y-38847676D02*
X48558300Y-38942914D01*
X48558300Y-38942914D02*
X48796395Y-38847676D01*
X48415443Y-39133390D02*
X48558300Y-38942914D01*
X48558300Y-38942914D02*
X48701157Y-39133390D01*
X48558300Y-30704819D02*
X48558300Y-30942914D01*
X48320205Y-30847676D02*
X48558300Y-30942914D01*
X48558300Y-30942914D02*
X48796395Y-30847676D01*
X48415443Y-31133390D02*
X48558300Y-30942914D01*
X48558300Y-30942914D02*
X48701157Y-31133390D01*
X48558300Y-30704819D02*
X48558300Y-30942914D01*
X48320205Y-30847676D02*
X48558300Y-30942914D01*
X48558300Y-30942914D02*
X48796395Y-30847676D01*
X48415443Y-31133390D02*
X48558300Y-30942914D01*
X48558300Y-30942914D02*
X48701157Y-31133390D01*
X48558300Y-22704819D02*
X48558300Y-22942914D01*
X48320205Y-22847676D02*
X48558300Y-22942914D01*
X48558300Y-22942914D02*
X48796395Y-22847676D01*
X48415443Y-23133390D02*
X48558300Y-22942914D01*
X48558300Y-22942914D02*
X48701157Y-23133390D01*
X48558300Y-22704819D02*
X48558300Y-22942914D01*
X48320205Y-22847676D02*
X48558300Y-22942914D01*
X48558300Y-22942914D02*
X48796395Y-22847676D01*
X48415443Y-23133390D02*
X48558300Y-22942914D01*
X48558300Y-22942914D02*
X48701157Y-23133390D01*
D11*
%TO.C,C48*%
X42490000Y-51640580D02*
X42490000Y-51359420D01*
X43510000Y-51640580D02*
X43510000Y-51359420D01*
%TO.C,Y7*%
X44000000Y-55350000D02*
X44000000Y-58650000D01*
X44000000Y-58650000D02*
X48000000Y-58650000D01*
%TO.C,C54*%
X46140580Y-53990000D02*
X45859420Y-53990000D01*
X46140580Y-55010000D02*
X45859420Y-55010000D01*
%TO.C,R2*%
X35237258Y-48977500D02*
X34762742Y-48977500D01*
X35237258Y-50022500D02*
X34762742Y-50022500D01*
%TO.C,C34*%
X42990000Y-35640580D02*
X42990000Y-35359420D01*
X44010000Y-35640580D02*
X44010000Y-35359420D01*
%TO.C,J3*%
X32330000Y-14600000D02*
X32330000Y-16300000D01*
X41670000Y-14600000D02*
X41670000Y-16300000D01*
%TO.C,C56*%
X42490000Y-54359420D02*
X42490000Y-54640580D01*
X43510000Y-54359420D02*
X43510000Y-54640580D01*
%TO.C,Y1*%
X33000000Y-43850000D02*
X33000000Y-47150000D01*
X33000000Y-47150000D02*
X37000000Y-47150000D01*
D12*
%TO.C,U8*%
X49371100Y-46371100D02*
X49371100Y-47040260D01*
X49371100Y-50959740D02*
X49371100Y-51628900D01*
X49371100Y-51628900D02*
X50040260Y-51628900D01*
X50040260Y-46371100D02*
X49371100Y-46371100D01*
X53959740Y-51628900D02*
X54628900Y-51628900D01*
X54628900Y-46371100D02*
X53959740Y-46371100D01*
X54628900Y-47040260D02*
X54628900Y-46371100D01*
X54628900Y-51628900D02*
X54628900Y-50959740D01*
D13*
G36*
X51690501Y-52314700D02*
G01*
X51309501Y-52314700D01*
X51309501Y-52060700D01*
X51690501Y-52060700D01*
X51690501Y-52314700D01*
G37*
G36*
X55314700Y-48190499D02*
G01*
X55060700Y-48190499D01*
X55060700Y-47809499D01*
X55314700Y-47809499D01*
X55314700Y-48190499D01*
G37*
D11*
%TO.C,R12*%
X56762742Y-29477500D02*
X57237258Y-29477500D01*
X56762742Y-30522500D02*
X57237258Y-30522500D01*
%TO.C,C11*%
X27490000Y-34140580D02*
X27490000Y-33859420D01*
X28510000Y-34140580D02*
X28510000Y-33859420D01*
%TO.C,C51*%
X57140580Y-48490000D02*
X56859420Y-48490000D01*
X57140580Y-49510000D02*
X56859420Y-49510000D01*
%TO.C,C41*%
X42490000Y-43640580D02*
X42490000Y-43359420D01*
X43510000Y-43640580D02*
X43510000Y-43359420D01*
%TO.C,C8*%
X36990000Y-24640580D02*
X36990000Y-24359420D01*
X38010000Y-24640580D02*
X38010000Y-24359420D01*
%TO.C,C9*%
X34859420Y-24990000D02*
X35140580Y-24990000D01*
X34859420Y-26010000D02*
X35140580Y-26010000D01*
%TO.C,C13*%
X30490000Y-34140580D02*
X30490000Y-33859420D01*
X31510000Y-34140580D02*
X31510000Y-33859420D01*
%TO.C,R4*%
X37977500Y-20762742D02*
X37977500Y-21237258D01*
X39022500Y-20762742D02*
X39022500Y-21237258D01*
%TO.C,C33*%
X46640580Y-29990000D02*
X46359420Y-29990000D01*
X46640580Y-31010000D02*
X46359420Y-31010000D01*
%TO.C,C25*%
X46359420Y-26990000D02*
X46640580Y-26990000D01*
X46359420Y-28010000D02*
X46640580Y-28010000D01*
%TO.C,J2*%
X33000000Y-53725000D02*
X33000000Y-54725000D01*
X33000000Y-53725000D02*
X34000000Y-53725000D01*
X33290000Y-54015000D02*
X33290000Y-60985000D01*
X33290000Y-60985000D02*
X36710000Y-60985000D01*
X33800000Y-54525000D02*
X34550000Y-54525000D01*
X33800000Y-57500000D02*
X33800000Y-54525000D01*
X33800000Y-57500000D02*
X33800000Y-60475000D01*
X33800000Y-60475000D02*
X34550000Y-60475000D01*
X34550000Y-54325000D02*
X35350000Y-54325000D01*
X34550000Y-54525000D02*
X34550000Y-54325000D01*
X34550000Y-60475000D02*
X34550000Y-60675000D01*
X34550000Y-60675000D02*
X35350000Y-60675000D01*
X35350000Y-54325000D02*
X35350000Y-54525000D01*
X35350000Y-54525000D02*
X36200000Y-54525000D01*
X35350000Y-60475000D02*
X36200000Y-60475000D01*
X35350000Y-60675000D02*
X35350000Y-60475000D01*
X36200000Y-54525000D02*
X36200000Y-57500000D01*
X36200000Y-60475000D02*
X36200000Y-57500000D01*
X36710000Y-54015000D02*
X33290000Y-54015000D01*
X36710000Y-60985000D02*
X36710000Y-54015000D01*
%TO.C,C22*%
X57140580Y-15990000D02*
X56859420Y-15990000D01*
X57140580Y-17010000D02*
X56859420Y-17010000D01*
%TO.C,C53*%
X45859420Y-58990000D02*
X46140580Y-58990000D01*
X45859420Y-60010000D02*
X46140580Y-60010000D01*
D12*
%TO.C,U4*%
X49371100Y-14371100D02*
X49371100Y-15040260D01*
X49371100Y-18959740D02*
X49371100Y-19628900D01*
X49371100Y-19628900D02*
X50040260Y-19628900D01*
X50040260Y-14371100D02*
X49371100Y-14371100D01*
X53959740Y-19628900D02*
X54628900Y-19628900D01*
X54628900Y-14371100D02*
X53959740Y-14371100D01*
X54628900Y-15040260D02*
X54628900Y-14371100D01*
X54628900Y-19628900D02*
X54628900Y-18959740D01*
D13*
G36*
X51690501Y-20314700D02*
G01*
X51309501Y-20314700D01*
X51309501Y-20060700D01*
X51690501Y-20060700D01*
X51690501Y-20314700D01*
G37*
G36*
X55314700Y-16190499D02*
G01*
X55060700Y-16190499D01*
X55060700Y-15809499D01*
X55314700Y-15809499D01*
X55314700Y-16190499D01*
G37*
D11*
%TO.C,C32*%
X46359420Y-34990000D02*
X46640580Y-34990000D01*
X46359420Y-36010000D02*
X46640580Y-36010000D01*
%TO.C,C27*%
X42990000Y-27640580D02*
X42990000Y-27359420D01*
X44010000Y-27640580D02*
X44010000Y-27359420D01*
%TO.C,Y3*%
X44500000Y-23350000D02*
X44500000Y-26650000D01*
X44500000Y-26650000D02*
X48500000Y-26650000D01*
%TO.C,C36*%
X57140580Y-32990000D02*
X56859420Y-32990000D01*
X57140580Y-34010000D02*
X56859420Y-34010000D01*
%TO.C,C40*%
X46140580Y-37990000D02*
X45859420Y-37990000D01*
X46140580Y-39010000D02*
X45859420Y-39010000D01*
%TO.C,R15*%
X56762742Y-51977500D02*
X57237258Y-51977500D01*
X56762742Y-53022500D02*
X57237258Y-53022500D01*
%TO.C,C43*%
X57140580Y-41990000D02*
X56859420Y-41990000D01*
X57140580Y-43010000D02*
X56859420Y-43010000D01*
D12*
%TO.C,U9*%
X49371100Y-54371100D02*
X49371100Y-55040260D01*
X49371100Y-58959740D02*
X49371100Y-59628900D01*
X49371100Y-59628900D02*
X50040260Y-59628900D01*
X50040260Y-54371100D02*
X49371100Y-54371100D01*
X53959740Y-59628900D02*
X54628900Y-59628900D01*
X54628900Y-54371100D02*
X53959740Y-54371100D01*
X54628900Y-55040260D02*
X54628900Y-54371100D01*
X54628900Y-59628900D02*
X54628900Y-58959740D01*
D13*
G36*
X51690501Y-60314700D02*
G01*
X51309501Y-60314700D01*
X51309501Y-60060700D01*
X51690501Y-60060700D01*
X51690501Y-60314700D01*
G37*
G36*
X55314700Y-56190499D02*
G01*
X55060700Y-56190499D01*
X55060700Y-55809499D01*
X55314700Y-55809499D01*
X55314700Y-56190499D01*
G37*
D12*
%TO.C,U7*%
X49371100Y-38371100D02*
X49371100Y-39040260D01*
X49371100Y-42959740D02*
X49371100Y-43628900D01*
X49371100Y-43628900D02*
X50040260Y-43628900D01*
X50040260Y-38371100D02*
X49371100Y-38371100D01*
X53959740Y-43628900D02*
X54628900Y-43628900D01*
X54628900Y-38371100D02*
X53959740Y-38371100D01*
X54628900Y-39040260D02*
X54628900Y-38371100D01*
X54628900Y-43628900D02*
X54628900Y-42959740D01*
D13*
G36*
X51690501Y-44314700D02*
G01*
X51309501Y-44314700D01*
X51309501Y-44060700D01*
X51690501Y-44060700D01*
X51690501Y-44314700D01*
G37*
G36*
X55314700Y-40190499D02*
G01*
X55060700Y-40190499D01*
X55060700Y-39809499D01*
X55314700Y-39809499D01*
X55314700Y-40190499D01*
G37*
D11*
%TO.C,J8*%
X59170000Y-49895000D02*
X59170000Y-52495000D01*
X59170000Y-49895000D02*
X61830000Y-49895000D01*
X59170000Y-52495000D02*
X61830000Y-52495000D01*
X60500000Y-47295000D02*
X61830000Y-47295000D01*
X61830000Y-47295000D02*
X61830000Y-48625000D01*
X61830000Y-49895000D02*
X61830000Y-52495000D01*
%TO.C,R18*%
X56762742Y-55477500D02*
X57237258Y-55477500D01*
X56762742Y-56522500D02*
X57237258Y-56522500D01*
%TO.C,C12*%
X28990000Y-34140580D02*
X28990000Y-33859420D01*
X30010000Y-34140580D02*
X30010000Y-33859420D01*
%TO.C,R9*%
X56762742Y-25977500D02*
X57237258Y-25977500D01*
X56762742Y-27022500D02*
X57237258Y-27022500D01*
%TO.C,C7*%
X39490000Y-31140580D02*
X39490000Y-30859420D01*
X40510000Y-31140580D02*
X40510000Y-30859420D01*
%TO.C,U2*%
X29525000Y-26775000D02*
X29525000Y-27035000D01*
X29525000Y-32225000D02*
X29525000Y-31965000D01*
X32250000Y-26775000D02*
X29525000Y-26775000D01*
X32250000Y-26775000D02*
X34975000Y-26775000D01*
X32250000Y-32225000D02*
X29525000Y-32225000D01*
X32250000Y-32225000D02*
X34975000Y-32225000D01*
X34975000Y-26775000D02*
X34975000Y-27035000D01*
X34975000Y-32225000D02*
X34975000Y-31965000D01*
X28742500Y-27035000D02*
X28502500Y-26705000D01*
X28982500Y-26705000D01*
X28742500Y-27035000D01*
G36*
X28742500Y-27035000D02*
G01*
X28502500Y-26705000D01*
X28982500Y-26705000D01*
X28742500Y-27035000D01*
G37*
%TO.C,R7*%
X56762742Y-17477500D02*
X57237258Y-17477500D01*
X56762742Y-18522500D02*
X57237258Y-18522500D01*
%TO.C,C18*%
X46359420Y-18990000D02*
X46640580Y-18990000D01*
X46359420Y-20010000D02*
X46640580Y-20010000D01*
%TO.C,Y5*%
X44000000Y-39350000D02*
X44000000Y-42650000D01*
X44000000Y-42650000D02*
X48000000Y-42650000D01*
%TO.C,C50*%
X57140580Y-50490000D02*
X56859420Y-50490000D01*
X57140580Y-51510000D02*
X56859420Y-51510000D01*
%TO.C,R6*%
X32237258Y-24977500D02*
X31762742Y-24977500D01*
X32237258Y-26022500D02*
X31762742Y-26022500D01*
%TO.C,SW2*%
X28400000Y-20650000D02*
X28400000Y-21110000D01*
X28400000Y-21110000D02*
X27400000Y-21110000D01*
X28400000Y-23890000D02*
X28400000Y-24350000D01*
X28400000Y-24350000D02*
X34600000Y-24350000D01*
X34600000Y-20650000D02*
X28400000Y-20650000D01*
X34600000Y-20650000D02*
X34600000Y-21110000D01*
X34600000Y-23890000D02*
X34600000Y-24350000D01*
X30000000Y-21950000D02*
X32850000Y-21950000D01*
X32850000Y-23000000D01*
X30000000Y-23000000D01*
X30000000Y-21950000D01*
%TO.C,C15*%
X39490000Y-24859420D02*
X39490000Y-25140580D01*
X40510000Y-24859420D02*
X40510000Y-25140580D01*
%TO.C,J7*%
X59170000Y-41295000D02*
X59170000Y-43895000D01*
X59170000Y-41295000D02*
X61830000Y-41295000D01*
X59170000Y-43895000D02*
X61830000Y-43895000D01*
X60500000Y-38695000D02*
X61830000Y-38695000D01*
X61830000Y-38695000D02*
X61830000Y-40025000D01*
X61830000Y-41295000D02*
X61830000Y-43895000D01*
%TO.C,Y4*%
X44500000Y-31350000D02*
X44500000Y-34650000D01*
X44500000Y-34650000D02*
X48500000Y-34650000D01*
%TO.C,C42*%
X42490000Y-38359420D02*
X42490000Y-38640580D01*
X43510000Y-38359420D02*
X43510000Y-38640580D01*
D12*
%TO.C,U6*%
X49371100Y-30371100D02*
X49371100Y-31040260D01*
X49371100Y-34959740D02*
X49371100Y-35628900D01*
X49371100Y-35628900D02*
X50040260Y-35628900D01*
X50040260Y-30371100D02*
X49371100Y-30371100D01*
X53959740Y-35628900D02*
X54628900Y-35628900D01*
X54628900Y-30371100D02*
X53959740Y-30371100D01*
X54628900Y-31040260D02*
X54628900Y-30371100D01*
X54628900Y-35628900D02*
X54628900Y-34959740D01*
D13*
G36*
X51690501Y-36314700D02*
G01*
X51309501Y-36314700D01*
X51309501Y-36060700D01*
X51690501Y-36060700D01*
X51690501Y-36314700D01*
G37*
G36*
X55314700Y-32190499D02*
G01*
X55060700Y-32190499D01*
X55060700Y-31809499D01*
X55314700Y-31809499D01*
X55314700Y-32190499D01*
G37*
D11*
%TO.C,C19*%
X46640580Y-13990000D02*
X46359420Y-13990000D01*
X46640580Y-15010000D02*
X46359420Y-15010000D01*
%TO.C,C30*%
X57140580Y-22490000D02*
X56859420Y-22490000D01*
X57140580Y-23510000D02*
X56859420Y-23510000D01*
%TO.C,C17*%
X29640580Y-18990000D02*
X29359420Y-18990000D01*
X29640580Y-20010000D02*
X29359420Y-20010000D01*
%TO.C,C23*%
X57140580Y-13990000D02*
X56859420Y-13990000D01*
X57140580Y-15010000D02*
X56859420Y-15010000D01*
%TO.C,C35*%
X42990000Y-30359420D02*
X42990000Y-30640580D01*
X44010000Y-30359420D02*
X44010000Y-30640580D01*
%TO.C,C3*%
X38859420Y-47990000D02*
X39140580Y-47990000D01*
X38859420Y-49010000D02*
X39140580Y-49010000D01*
%TO.C,C26*%
X46640580Y-21990000D02*
X46359420Y-21990000D01*
X46640580Y-23010000D02*
X46359420Y-23010000D01*
%TO.C,C20*%
X42990000Y-19640580D02*
X42990000Y-19359420D01*
X44010000Y-19640580D02*
X44010000Y-19359420D01*
%TO.C,U3*%
X27940000Y-16500000D02*
X27940000Y-15700000D01*
X27940000Y-16500000D02*
X27940000Y-17300000D01*
X31060000Y-16500000D02*
X31060000Y-15700000D01*
X31060000Y-16500000D02*
X31060000Y-17300000D01*
X31340000Y-15440000D02*
X31010000Y-15200000D01*
X31340000Y-14960000D01*
X31340000Y-15440000D01*
G36*
X31340000Y-15440000D02*
G01*
X31010000Y-15200000D01*
X31340000Y-14960000D01*
X31340000Y-15440000D01*
G37*
%TO.C,C57*%
X57140580Y-58990000D02*
X56859420Y-58990000D01*
X57140580Y-60010000D02*
X56859420Y-60010000D01*
%TO.C,C39*%
X45859420Y-42990000D02*
X46140580Y-42990000D01*
X45859420Y-44010000D02*
X46140580Y-44010000D01*
%TO.C,R1*%
X38762742Y-46477500D02*
X39237258Y-46477500D01*
X38762742Y-47522500D02*
X39237258Y-47522500D01*
%TO.C,D1*%
X38200000Y-50735000D02*
X40660000Y-50735000D01*
X40660000Y-49265000D02*
X38200000Y-49265000D01*
X40660000Y-50735000D02*
X40660000Y-49265000D01*
%TO.C,C2*%
X34859420Y-47490000D02*
X35140580Y-47490000D01*
X34859420Y-48510000D02*
X35140580Y-48510000D01*
%TO.C,U1*%
X33390000Y-34040000D02*
X33390000Y-33630000D01*
X33390000Y-40610000D02*
X33390000Y-39960000D01*
X34040000Y-33390000D02*
X33690000Y-33390000D01*
X34040000Y-40610000D02*
X33390000Y-40610000D01*
X39960000Y-33390000D02*
X40610000Y-33390000D01*
X39960000Y-40610000D02*
X40610000Y-40610000D01*
X40610000Y-33390000D02*
X40610000Y-34040000D01*
X40610000Y-40610000D02*
X40610000Y-39960000D01*
X33390000Y-33390000D02*
X33150000Y-33060000D01*
X33630000Y-33060000D01*
X33390000Y-33390000D01*
G36*
X33390000Y-33390000D02*
G01*
X33150000Y-33060000D01*
X33630000Y-33060000D01*
X33390000Y-33390000D01*
G37*
%TO.C,C49*%
X42490000Y-46359420D02*
X42490000Y-46640580D01*
X43510000Y-46359420D02*
X43510000Y-46640580D01*
%TO.C,R16*%
X56762742Y-46977500D02*
X57237258Y-46977500D01*
X56762742Y-48022500D02*
X57237258Y-48022500D01*
%TO.C,R17*%
X56762742Y-60477500D02*
X57237258Y-60477500D01*
X56762742Y-61522500D02*
X57237258Y-61522500D01*
%TO.C,R3*%
X36477500Y-20762742D02*
X36477500Y-21237258D01*
X37522500Y-20762742D02*
X37522500Y-21237258D01*
%TO.C,J10*%
X27500000Y-42600000D02*
X27500000Y-43600000D01*
X27500000Y-42600000D02*
X28500000Y-42600000D01*
X27790000Y-42890000D02*
X27790000Y-47360000D01*
X27790000Y-47360000D02*
X31210000Y-47360000D01*
X28300000Y-43400000D02*
X29050000Y-43400000D01*
X28300000Y-45125000D02*
X28300000Y-43400000D01*
X28300000Y-45125000D02*
X28300000Y-46850000D01*
X28300000Y-46850000D02*
X29050000Y-46850000D01*
X29050000Y-43200000D02*
X29850000Y-43200000D01*
X29050000Y-43400000D02*
X29050000Y-43200000D01*
X29050000Y-46850000D02*
X29050000Y-47050000D01*
X29050000Y-47050000D02*
X29850000Y-47050000D01*
X29850000Y-43200000D02*
X29850000Y-43400000D01*
X29850000Y-43400000D02*
X30700000Y-43400000D01*
X29850000Y-46850000D02*
X30700000Y-46850000D01*
X29850000Y-47050000D02*
X29850000Y-46850000D01*
X30700000Y-43400000D02*
X30700000Y-45125000D01*
X30700000Y-46850000D02*
X30700000Y-45125000D01*
X31210000Y-42890000D02*
X27790000Y-42890000D01*
X31210000Y-47360000D02*
X31210000Y-42890000D01*
%TO.C,C16*%
X29359420Y-12990000D02*
X29640580Y-12990000D01*
X29359420Y-14010000D02*
X29640580Y-14010000D01*
%TO.C,J1*%
X27500000Y-54850000D02*
X27500000Y-55850000D01*
X27500000Y-54850000D02*
X28500000Y-54850000D01*
X27790000Y-55140000D02*
X27790000Y-60860000D01*
X27790000Y-60860000D02*
X31210000Y-60860000D01*
X28300000Y-55650000D02*
X29050000Y-55650000D01*
X28300000Y-58000000D02*
X28300000Y-55650000D01*
X28300000Y-58000000D02*
X28300000Y-60350000D01*
X28300000Y-60350000D02*
X29050000Y-60350000D01*
X29050000Y-55450000D02*
X29850000Y-55450000D01*
X29050000Y-55650000D02*
X29050000Y-55450000D01*
X29050000Y-60350000D02*
X29050000Y-60550000D01*
X29050000Y-60550000D02*
X29850000Y-60550000D01*
X29850000Y-55450000D02*
X29850000Y-55650000D01*
X29850000Y-55650000D02*
X30700000Y-55650000D01*
X29850000Y-60350000D02*
X30700000Y-60350000D01*
X29850000Y-60550000D02*
X29850000Y-60350000D01*
X30700000Y-55650000D02*
X30700000Y-58000000D01*
X30700000Y-60350000D02*
X30700000Y-58000000D01*
X31210000Y-55140000D02*
X27790000Y-55140000D01*
X31210000Y-60860000D02*
X31210000Y-55140000D01*
%TO.C,Y2*%
X44500000Y-15350000D02*
X44500000Y-18650000D01*
X44500000Y-18650000D02*
X48500000Y-18650000D01*
%TO.C,R19*%
X39254724Y-50977500D02*
X38745276Y-50977500D01*
X39254724Y-52022500D02*
X38745276Y-52022500D01*
%TO.C,J6*%
X59170000Y-32695000D02*
X59170000Y-35295000D01*
X59170000Y-32695000D02*
X61830000Y-32695000D01*
X59170000Y-35295000D02*
X61830000Y-35295000D01*
X60500000Y-30095000D02*
X61830000Y-30095000D01*
X61830000Y-30095000D02*
X61830000Y-31425000D01*
X61830000Y-32695000D02*
X61830000Y-35295000D01*
%TO.C,C6*%
X38990000Y-28140580D02*
X38990000Y-27859420D01*
X40010000Y-28140580D02*
X40010000Y-27859420D01*
%TO.C,C47*%
X46140580Y-45990000D02*
X45859420Y-45990000D01*
X46140580Y-47010000D02*
X45859420Y-47010000D01*
%TO.C,J9*%
X59170000Y-58495000D02*
X59170000Y-61095000D01*
X59170000Y-58495000D02*
X61830000Y-58495000D01*
X59170000Y-61095000D02*
X61830000Y-61095000D01*
X60500000Y-55895000D02*
X61830000Y-55895000D01*
X61830000Y-55895000D02*
X61830000Y-57225000D01*
X61830000Y-58495000D02*
X61830000Y-61095000D01*
%TO.C,R5*%
X29237258Y-24977500D02*
X28762742Y-24977500D01*
X29237258Y-26022500D02*
X28762742Y-26022500D01*
%TO.C,R14*%
X56762742Y-38477500D02*
X57237258Y-38477500D01*
X56762742Y-39522500D02*
X57237258Y-39522500D01*
%TO.C,Q1*%
X34820000Y-50840000D02*
X36230000Y-50840000D01*
X34820000Y-53160000D02*
X36230000Y-53160000D01*
X36230000Y-50840000D02*
X36230000Y-51500000D01*
X36230000Y-52500000D02*
X36230000Y-53160000D01*
X34450000Y-50860000D02*
X34210000Y-50530000D01*
X34690000Y-50530000D01*
X34450000Y-50860000D01*
G36*
X34450000Y-50860000D02*
G01*
X34210000Y-50530000D01*
X34690000Y-50530000D01*
X34450000Y-50860000D01*
G37*
%TO.C,R11*%
X56762742Y-34477500D02*
X57237258Y-34477500D01*
X56762742Y-35522500D02*
X57237258Y-35522500D01*
%TO.C,C58*%
X57140580Y-56990000D02*
X56859420Y-56990000D01*
X57140580Y-58010000D02*
X56859420Y-58010000D01*
%TO.C,C1*%
X35140580Y-42490000D02*
X34859420Y-42490000D01*
X35140580Y-43510000D02*
X34859420Y-43510000D01*
%TO.C,R13*%
X56762742Y-43477500D02*
X57237258Y-43477500D01*
X56762742Y-44522500D02*
X57237258Y-44522500D01*
%TO.C,C44*%
X57140580Y-39990000D02*
X56859420Y-39990000D01*
X57140580Y-41010000D02*
X56859420Y-41010000D01*
%TO.C,R8*%
X56762742Y-12477500D02*
X57237258Y-12477500D01*
X56762742Y-13522500D02*
X57237258Y-13522500D01*
%TO.C,C46*%
X45859420Y-50990000D02*
X46140580Y-50990000D01*
X45859420Y-52010000D02*
X46140580Y-52010000D01*
%TO.C,C28*%
X42990000Y-22359420D02*
X42990000Y-22640580D01*
X44010000Y-22359420D02*
X44010000Y-22640580D01*
%TO.C,C4*%
X38859420Y-43490000D02*
X39140580Y-43490000D01*
X38859420Y-44510000D02*
X39140580Y-44510000D01*
%TO.C,C14*%
X38859420Y-44990000D02*
X39140580Y-44990000D01*
X38859420Y-46010000D02*
X39140580Y-46010000D01*
%TO.C,C5*%
X38859420Y-41990000D02*
X39140580Y-41990000D01*
X38859420Y-43010000D02*
X39140580Y-43010000D01*
%TO.C,C10*%
X39990000Y-22140580D02*
X39990000Y-21859420D01*
X41010000Y-22140580D02*
X41010000Y-21859420D01*
%TO.C,C55*%
X42490000Y-59640580D02*
X42490000Y-59359420D01*
X43510000Y-59640580D02*
X43510000Y-59359420D01*
%TO.C,Y6*%
X44000000Y-47350000D02*
X44000000Y-50650000D01*
X44000000Y-50650000D02*
X48000000Y-50650000D01*
%TO.C,R10*%
X56762742Y-20977500D02*
X57237258Y-20977500D01*
X56762742Y-22022500D02*
X57237258Y-22022500D01*
%TO.C,C29*%
X57140580Y-24490000D02*
X56859420Y-24490000D01*
X57140580Y-25510000D02*
X56859420Y-25510000D01*
%TO.C,J12*%
X27500000Y-35850000D02*
X27500000Y-36850000D01*
X27500000Y-35850000D02*
X28500000Y-35850000D01*
X27790000Y-36140000D02*
X27790000Y-41860000D01*
X27790000Y-41860000D02*
X31210000Y-41860000D01*
X28300000Y-36650000D02*
X29050000Y-36650000D01*
X28300000Y-39000000D02*
X28300000Y-36650000D01*
X28300000Y-39000000D02*
X28300000Y-41350000D01*
X28300000Y-41350000D02*
X29050000Y-41350000D01*
X29050000Y-36450000D02*
X29850000Y-36450000D01*
X29050000Y-36650000D02*
X29050000Y-36450000D01*
X29050000Y-41350000D02*
X29050000Y-41550000D01*
X29050000Y-41550000D02*
X29850000Y-41550000D01*
X29850000Y-36450000D02*
X29850000Y-36650000D01*
X29850000Y-36650000D02*
X30700000Y-36650000D01*
X29850000Y-41350000D02*
X30700000Y-41350000D01*
X29850000Y-41550000D02*
X29850000Y-41350000D01*
X30700000Y-36650000D02*
X30700000Y-39000000D01*
X30700000Y-41350000D02*
X30700000Y-39000000D01*
X31210000Y-36140000D02*
X27790000Y-36140000D01*
X31210000Y-41860000D02*
X31210000Y-36140000D01*
%TO.C,J5*%
X59170000Y-24095000D02*
X59170000Y-26695000D01*
X59170000Y-24095000D02*
X61830000Y-24095000D01*
X59170000Y-26695000D02*
X61830000Y-26695000D01*
X60500000Y-21495000D02*
X61830000Y-21495000D01*
X61830000Y-21495000D02*
X61830000Y-22825000D01*
X61830000Y-24095000D02*
X61830000Y-26695000D01*
%TO.C,J4*%
X59170000Y-15495000D02*
X59170000Y-18095000D01*
X59170000Y-15495000D02*
X61830000Y-15495000D01*
X59170000Y-18095000D02*
X61830000Y-18095000D01*
X60500000Y-12895000D02*
X61830000Y-12895000D01*
X61830000Y-12895000D02*
X61830000Y-14225000D01*
X61830000Y-15495000D02*
X61830000Y-18095000D01*
%TO.C,C37*%
X57140580Y-30990000D02*
X56859420Y-30990000D01*
X57140580Y-32010000D02*
X56859420Y-32010000D01*
%TO.C,J11*%
X27500000Y-48100000D02*
X27500000Y-49100000D01*
X27500000Y-48100000D02*
X28500000Y-48100000D01*
X27790000Y-48390000D02*
X27790000Y-54110000D01*
X27790000Y-54110000D02*
X31210000Y-54110000D01*
X28300000Y-48900000D02*
X29050000Y-48900000D01*
X28300000Y-51250000D02*
X28300000Y-48900000D01*
X28300000Y-51250000D02*
X28300000Y-53600000D01*
X28300000Y-53600000D02*
X29050000Y-53600000D01*
X29050000Y-48700000D02*
X29850000Y-48700000D01*
X29050000Y-48900000D02*
X29050000Y-48700000D01*
X29050000Y-53600000D02*
X29050000Y-53800000D01*
X29050000Y-53800000D02*
X29850000Y-53800000D01*
X29850000Y-48700000D02*
X29850000Y-48900000D01*
X29850000Y-48900000D02*
X30700000Y-48900000D01*
X29850000Y-53600000D02*
X30700000Y-53600000D01*
X29850000Y-53800000D02*
X29850000Y-53600000D01*
X30700000Y-48900000D02*
X30700000Y-51250000D01*
X30700000Y-53600000D02*
X30700000Y-51250000D01*
X31210000Y-48390000D02*
X27790000Y-48390000D01*
X31210000Y-54110000D02*
X31210000Y-48390000D01*
%TO.C,C21*%
X42990000Y-14359420D02*
X42990000Y-14640580D01*
X44010000Y-14359420D02*
X44010000Y-14640580D01*
D12*
%TO.C,U5*%
X49371100Y-22371100D02*
X49371100Y-23040260D01*
X49371100Y-26959740D02*
X49371100Y-27628900D01*
X49371100Y-27628900D02*
X50040260Y-27628900D01*
X50040260Y-22371100D02*
X49371100Y-22371100D01*
X53959740Y-27628900D02*
X54628900Y-27628900D01*
X54628900Y-22371100D02*
X53959740Y-22371100D01*
X54628900Y-23040260D02*
X54628900Y-22371100D01*
X54628900Y-27628900D02*
X54628900Y-26959740D01*
D13*
G36*
X51690501Y-28314700D02*
G01*
X51309501Y-28314700D01*
X51309501Y-28060700D01*
X51690501Y-28060700D01*
X51690501Y-28314700D01*
G37*
G36*
X55314700Y-24190499D02*
G01*
X55060700Y-24190499D01*
X55060700Y-23809499D01*
X55314700Y-23809499D01*
X55314700Y-24190499D01*
G37*
D11*
%TO.C,SW1*%
X38150000Y-53900000D02*
X38150000Y-60100000D01*
X38610000Y-53900000D02*
X38150000Y-53900000D01*
X38610000Y-60100000D02*
X38150000Y-60100000D01*
X41390000Y-53900000D02*
X41390000Y-52900000D01*
X41850000Y-53900000D02*
X41390000Y-53900000D01*
X41850000Y-60100000D02*
X41390000Y-60100000D01*
X41850000Y-60100000D02*
X41850000Y-53900000D01*
X40550000Y-55500000D02*
X39500000Y-55500000D01*
X39500000Y-58350000D01*
X40550000Y-58350000D01*
X40550000Y-55500000D01*
%TD*%
M02*
