%TF.GenerationSoftware,KiCad,Pcbnew,8.0.8*%
%TF.CreationDate,2025-01-25T20:20:04-05:00*%
%TF.ProjectId,CAN Board,43414e20-426f-4617-9264-2e6b69636164,rev?*%
%TF.SameCoordinates,Original*%
%TF.FileFunction,Legend,Bot*%
%TF.FilePolarity,Positive*%
%FSLAX46Y46*%
G04 Gerber Fmt 4.6, Leading zero omitted, Abs format (unit mm)*
G04 Created by KiCad (PCBNEW 8.0.8) date 2025-01-25 20:20:04*
%MOMM*%
%LPD*%
G01*
G04 APERTURE LIST*
%ADD10C,0.150000*%
G04 APERTURE END LIST*
D10*
X58786104Y-22895000D02*
X58824200Y-22856904D01*
X58824200Y-22856904D02*
X58862295Y-22742619D01*
X58862295Y-22742619D02*
X58862295Y-22666428D01*
X58862295Y-22666428D02*
X58824200Y-22552142D01*
X58824200Y-22552142D02*
X58748009Y-22475952D01*
X58748009Y-22475952D02*
X58671819Y-22437857D01*
X58671819Y-22437857D02*
X58519438Y-22399761D01*
X58519438Y-22399761D02*
X58405152Y-22399761D01*
X58405152Y-22399761D02*
X58252771Y-22437857D01*
X58252771Y-22437857D02*
X58176580Y-22475952D01*
X58176580Y-22475952D02*
X58100390Y-22552142D01*
X58100390Y-22552142D02*
X58062295Y-22666428D01*
X58062295Y-22666428D02*
X58062295Y-22742619D01*
X58062295Y-22742619D02*
X58100390Y-22856904D01*
X58100390Y-22856904D02*
X58138485Y-22895000D01*
X58633723Y-23199761D02*
X58633723Y-23580714D01*
X58862295Y-23123571D02*
X58062295Y-23390238D01*
X58062295Y-23390238D02*
X58862295Y-23656904D01*
X58862295Y-23923571D02*
X58062295Y-23923571D01*
X58062295Y-23923571D02*
X58862295Y-24380714D01*
X58862295Y-24380714D02*
X58062295Y-24380714D01*
X58138485Y-25333094D02*
X58100390Y-25371190D01*
X58100390Y-25371190D02*
X58062295Y-25447380D01*
X58062295Y-25447380D02*
X58062295Y-25637856D01*
X58062295Y-25637856D02*
X58100390Y-25714047D01*
X58100390Y-25714047D02*
X58138485Y-25752142D01*
X58138485Y-25752142D02*
X58214676Y-25790237D01*
X58214676Y-25790237D02*
X58290866Y-25790237D01*
X58290866Y-25790237D02*
X58405152Y-25752142D01*
X58405152Y-25752142D02*
X58862295Y-25294999D01*
X58862295Y-25294999D02*
X58862295Y-25790237D01*
X31443247Y-21414285D02*
X31481342Y-21528571D01*
X31481342Y-21528571D02*
X31519438Y-21566666D01*
X31519438Y-21566666D02*
X31595628Y-21604762D01*
X31595628Y-21604762D02*
X31709914Y-21604762D01*
X31709914Y-21604762D02*
X31786104Y-21566666D01*
X31786104Y-21566666D02*
X31824200Y-21528571D01*
X31824200Y-21528571D02*
X31862295Y-21452381D01*
X31862295Y-21452381D02*
X31862295Y-21147619D01*
X31862295Y-21147619D02*
X31062295Y-21147619D01*
X31062295Y-21147619D02*
X31062295Y-21414285D01*
X31062295Y-21414285D02*
X31100390Y-21490476D01*
X31100390Y-21490476D02*
X31138485Y-21528571D01*
X31138485Y-21528571D02*
X31214676Y-21566666D01*
X31214676Y-21566666D02*
X31290866Y-21566666D01*
X31290866Y-21566666D02*
X31367057Y-21528571D01*
X31367057Y-21528571D02*
X31405152Y-21490476D01*
X31405152Y-21490476D02*
X31443247Y-21414285D01*
X31443247Y-21414285D02*
X31443247Y-21147619D01*
X31062295Y-22100000D02*
X31062295Y-22252381D01*
X31062295Y-22252381D02*
X31100390Y-22328571D01*
X31100390Y-22328571D02*
X31176580Y-22404762D01*
X31176580Y-22404762D02*
X31328961Y-22442857D01*
X31328961Y-22442857D02*
X31595628Y-22442857D01*
X31595628Y-22442857D02*
X31748009Y-22404762D01*
X31748009Y-22404762D02*
X31824200Y-22328571D01*
X31824200Y-22328571D02*
X31862295Y-22252381D01*
X31862295Y-22252381D02*
X31862295Y-22100000D01*
X31862295Y-22100000D02*
X31824200Y-22023809D01*
X31824200Y-22023809D02*
X31748009Y-21947619D01*
X31748009Y-21947619D02*
X31595628Y-21909523D01*
X31595628Y-21909523D02*
X31328961Y-21909523D01*
X31328961Y-21909523D02*
X31176580Y-21947619D01*
X31176580Y-21947619D02*
X31100390Y-22023809D01*
X31100390Y-22023809D02*
X31062295Y-22100000D01*
X31062295Y-22938095D02*
X31062295Y-23090476D01*
X31062295Y-23090476D02*
X31100390Y-23166666D01*
X31100390Y-23166666D02*
X31176580Y-23242857D01*
X31176580Y-23242857D02*
X31328961Y-23280952D01*
X31328961Y-23280952D02*
X31595628Y-23280952D01*
X31595628Y-23280952D02*
X31748009Y-23242857D01*
X31748009Y-23242857D02*
X31824200Y-23166666D01*
X31824200Y-23166666D02*
X31862295Y-23090476D01*
X31862295Y-23090476D02*
X31862295Y-22938095D01*
X31862295Y-22938095D02*
X31824200Y-22861904D01*
X31824200Y-22861904D02*
X31748009Y-22785714D01*
X31748009Y-22785714D02*
X31595628Y-22747618D01*
X31595628Y-22747618D02*
X31328961Y-22747618D01*
X31328961Y-22747618D02*
X31176580Y-22785714D01*
X31176580Y-22785714D02*
X31100390Y-22861904D01*
X31100390Y-22861904D02*
X31062295Y-22938095D01*
X31062295Y-23509523D02*
X31062295Y-23966666D01*
X31862295Y-23738094D02*
X31062295Y-23738094D01*
X39862295Y-56061905D02*
X39481342Y-55795238D01*
X39862295Y-55604762D02*
X39062295Y-55604762D01*
X39062295Y-55604762D02*
X39062295Y-55909524D01*
X39062295Y-55909524D02*
X39100390Y-55985714D01*
X39100390Y-55985714D02*
X39138485Y-56023809D01*
X39138485Y-56023809D02*
X39214676Y-56061905D01*
X39214676Y-56061905D02*
X39328961Y-56061905D01*
X39328961Y-56061905D02*
X39405152Y-56023809D01*
X39405152Y-56023809D02*
X39443247Y-55985714D01*
X39443247Y-55985714D02*
X39481342Y-55909524D01*
X39481342Y-55909524D02*
X39481342Y-55604762D01*
X39824200Y-56366666D02*
X39862295Y-56480952D01*
X39862295Y-56480952D02*
X39862295Y-56671428D01*
X39862295Y-56671428D02*
X39824200Y-56747619D01*
X39824200Y-56747619D02*
X39786104Y-56785714D01*
X39786104Y-56785714D02*
X39709914Y-56823809D01*
X39709914Y-56823809D02*
X39633723Y-56823809D01*
X39633723Y-56823809D02*
X39557533Y-56785714D01*
X39557533Y-56785714D02*
X39519438Y-56747619D01*
X39519438Y-56747619D02*
X39481342Y-56671428D01*
X39481342Y-56671428D02*
X39443247Y-56519047D01*
X39443247Y-56519047D02*
X39405152Y-56442857D01*
X39405152Y-56442857D02*
X39367057Y-56404762D01*
X39367057Y-56404762D02*
X39290866Y-56366666D01*
X39290866Y-56366666D02*
X39214676Y-56366666D01*
X39214676Y-56366666D02*
X39138485Y-56404762D01*
X39138485Y-56404762D02*
X39100390Y-56442857D01*
X39100390Y-56442857D02*
X39062295Y-56519047D01*
X39062295Y-56519047D02*
X39062295Y-56709524D01*
X39062295Y-56709524D02*
X39100390Y-56823809D01*
X39062295Y-57052381D02*
X39062295Y-57509524D01*
X39862295Y-57280952D02*
X39062295Y-57280952D01*
X58786104Y-48695000D02*
X58824200Y-48656904D01*
X58824200Y-48656904D02*
X58862295Y-48542619D01*
X58862295Y-48542619D02*
X58862295Y-48466428D01*
X58862295Y-48466428D02*
X58824200Y-48352142D01*
X58824200Y-48352142D02*
X58748009Y-48275952D01*
X58748009Y-48275952D02*
X58671819Y-48237857D01*
X58671819Y-48237857D02*
X58519438Y-48199761D01*
X58519438Y-48199761D02*
X58405152Y-48199761D01*
X58405152Y-48199761D02*
X58252771Y-48237857D01*
X58252771Y-48237857D02*
X58176580Y-48275952D01*
X58176580Y-48275952D02*
X58100390Y-48352142D01*
X58100390Y-48352142D02*
X58062295Y-48466428D01*
X58062295Y-48466428D02*
X58062295Y-48542619D01*
X58062295Y-48542619D02*
X58100390Y-48656904D01*
X58100390Y-48656904D02*
X58138485Y-48695000D01*
X58633723Y-48999761D02*
X58633723Y-49380714D01*
X58862295Y-48923571D02*
X58062295Y-49190238D01*
X58062295Y-49190238D02*
X58862295Y-49456904D01*
X58862295Y-49723571D02*
X58062295Y-49723571D01*
X58062295Y-49723571D02*
X58862295Y-50180714D01*
X58862295Y-50180714D02*
X58062295Y-50180714D01*
X58062295Y-51552142D02*
X58062295Y-51171190D01*
X58062295Y-51171190D02*
X58443247Y-51133094D01*
X58443247Y-51133094D02*
X58405152Y-51171190D01*
X58405152Y-51171190D02*
X58367057Y-51247380D01*
X58367057Y-51247380D02*
X58367057Y-51437856D01*
X58367057Y-51437856D02*
X58405152Y-51514047D01*
X58405152Y-51514047D02*
X58443247Y-51552142D01*
X58443247Y-51552142D02*
X58519438Y-51590237D01*
X58519438Y-51590237D02*
X58709914Y-51590237D01*
X58709914Y-51590237D02*
X58786104Y-51552142D01*
X58786104Y-51552142D02*
X58824200Y-51514047D01*
X58824200Y-51514047D02*
X58862295Y-51437856D01*
X58862295Y-51437856D02*
X58862295Y-51247380D01*
X58862295Y-51247380D02*
X58824200Y-51171190D01*
X58824200Y-51171190D02*
X58786104Y-51133094D01*
X30600390Y-38242856D02*
X30562295Y-38166666D01*
X30562295Y-38166666D02*
X30562295Y-38052380D01*
X30562295Y-38052380D02*
X30600390Y-37938094D01*
X30600390Y-37938094D02*
X30676580Y-37861904D01*
X30676580Y-37861904D02*
X30752771Y-37823809D01*
X30752771Y-37823809D02*
X30905152Y-37785713D01*
X30905152Y-37785713D02*
X31019438Y-37785713D01*
X31019438Y-37785713D02*
X31171819Y-37823809D01*
X31171819Y-37823809D02*
X31248009Y-37861904D01*
X31248009Y-37861904D02*
X31324200Y-37938094D01*
X31324200Y-37938094D02*
X31362295Y-38052380D01*
X31362295Y-38052380D02*
X31362295Y-38128571D01*
X31362295Y-38128571D02*
X31324200Y-38242856D01*
X31324200Y-38242856D02*
X31286104Y-38280952D01*
X31286104Y-38280952D02*
X31019438Y-38280952D01*
X31019438Y-38280952D02*
X31019438Y-38128571D01*
X31628961Y-38814285D02*
X30486104Y-38814285D01*
X30562295Y-39271428D02*
X30562295Y-39728571D01*
X31362295Y-39499999D02*
X30562295Y-39499999D01*
X31628961Y-40185714D02*
X30486104Y-40185714D01*
X31362295Y-41214286D02*
X30981342Y-40947619D01*
X31362295Y-40757143D02*
X30562295Y-40757143D01*
X30562295Y-40757143D02*
X30562295Y-41061905D01*
X30562295Y-41061905D02*
X30600390Y-41138095D01*
X30600390Y-41138095D02*
X30638485Y-41176190D01*
X30638485Y-41176190D02*
X30714676Y-41214286D01*
X30714676Y-41214286D02*
X30828961Y-41214286D01*
X30828961Y-41214286D02*
X30905152Y-41176190D01*
X30905152Y-41176190D02*
X30943247Y-41138095D01*
X30943247Y-41138095D02*
X30981342Y-41061905D01*
X30981342Y-41061905D02*
X30981342Y-40757143D01*
X57530149Y-14300000D02*
X57568245Y-14261904D01*
X57568245Y-14261904D02*
X57606340Y-14147619D01*
X57606340Y-14147619D02*
X57606340Y-14071428D01*
X57606340Y-14071428D02*
X57568245Y-13957142D01*
X57568245Y-13957142D02*
X57492054Y-13880952D01*
X57492054Y-13880952D02*
X57415864Y-13842857D01*
X57415864Y-13842857D02*
X57263483Y-13804761D01*
X57263483Y-13804761D02*
X57149197Y-13804761D01*
X57149197Y-13804761D02*
X56996816Y-13842857D01*
X56996816Y-13842857D02*
X56920625Y-13880952D01*
X56920625Y-13880952D02*
X56844435Y-13957142D01*
X56844435Y-13957142D02*
X56806340Y-14071428D01*
X56806340Y-14071428D02*
X56806340Y-14147619D01*
X56806340Y-14147619D02*
X56844435Y-14261904D01*
X56844435Y-14261904D02*
X56882530Y-14300000D01*
X57377768Y-14604761D02*
X57377768Y-14985714D01*
X57606340Y-14528571D02*
X56806340Y-14795238D01*
X56806340Y-14795238D02*
X57606340Y-15061904D01*
X57606340Y-15328571D02*
X56806340Y-15328571D01*
X56806340Y-15328571D02*
X57606340Y-15785714D01*
X57606340Y-15785714D02*
X56806340Y-15785714D01*
X57606340Y-17195237D02*
X57606340Y-16738094D01*
X57606340Y-16966666D02*
X56806340Y-16966666D01*
X56806340Y-16966666D02*
X56920625Y-16890475D01*
X56920625Y-16890475D02*
X56996816Y-16814285D01*
X56996816Y-16814285D02*
X57034911Y-16738094D01*
X58894295Y-13957143D02*
X58094295Y-13957143D01*
X58475247Y-13957143D02*
X58475247Y-14414286D01*
X58894295Y-14414286D02*
X58094295Y-14414286D01*
X59160961Y-15595238D02*
X58018104Y-15595238D01*
X58894295Y-17157143D02*
X58894295Y-16776191D01*
X58894295Y-16776191D02*
X58094295Y-16776191D01*
X31057533Y-52404761D02*
X31057533Y-53014285D01*
X31362295Y-52709523D02*
X30752771Y-52709523D01*
X31628961Y-53585713D02*
X30486104Y-53585713D01*
X30600390Y-54576189D02*
X30562295Y-54499999D01*
X30562295Y-54499999D02*
X30562295Y-54385713D01*
X30562295Y-54385713D02*
X30600390Y-54271427D01*
X30600390Y-54271427D02*
X30676580Y-54195237D01*
X30676580Y-54195237D02*
X30752771Y-54157142D01*
X30752771Y-54157142D02*
X30905152Y-54119046D01*
X30905152Y-54119046D02*
X31019438Y-54119046D01*
X31019438Y-54119046D02*
X31171819Y-54157142D01*
X31171819Y-54157142D02*
X31248009Y-54195237D01*
X31248009Y-54195237D02*
X31324200Y-54271427D01*
X31324200Y-54271427D02*
X31362295Y-54385713D01*
X31362295Y-54385713D02*
X31362295Y-54461904D01*
X31362295Y-54461904D02*
X31324200Y-54576189D01*
X31324200Y-54576189D02*
X31286104Y-54614285D01*
X31286104Y-54614285D02*
X31019438Y-54614285D01*
X31019438Y-54614285D02*
X31019438Y-54461904D01*
X31628961Y-55147618D02*
X30486104Y-55147618D01*
X30562295Y-55604761D02*
X30562295Y-56061904D01*
X31362295Y-55833332D02*
X30562295Y-55833332D01*
X31628961Y-56519047D02*
X30486104Y-56519047D01*
X31362295Y-57547619D02*
X30981342Y-57280952D01*
X31362295Y-57090476D02*
X30562295Y-57090476D01*
X30562295Y-57090476D02*
X30562295Y-57395238D01*
X30562295Y-57395238D02*
X30600390Y-57471428D01*
X30600390Y-57471428D02*
X30638485Y-57509523D01*
X30638485Y-57509523D02*
X30714676Y-57547619D01*
X30714676Y-57547619D02*
X30828961Y-57547619D01*
X30828961Y-57547619D02*
X30905152Y-57509523D01*
X30905152Y-57509523D02*
X30943247Y-57471428D01*
X30943247Y-57471428D02*
X30981342Y-57395238D01*
X30981342Y-57395238D02*
X30981342Y-57090476D01*
X31628961Y-58080952D02*
X30486104Y-58080952D01*
X31324200Y-58614285D02*
X31362295Y-58728571D01*
X31362295Y-58728571D02*
X31362295Y-58919047D01*
X31362295Y-58919047D02*
X31324200Y-58995238D01*
X31324200Y-58995238D02*
X31286104Y-59033333D01*
X31286104Y-59033333D02*
X31209914Y-59071428D01*
X31209914Y-59071428D02*
X31133723Y-59071428D01*
X31133723Y-59071428D02*
X31057533Y-59033333D01*
X31057533Y-59033333D02*
X31019438Y-58995238D01*
X31019438Y-58995238D02*
X30981342Y-58919047D01*
X30981342Y-58919047D02*
X30943247Y-58766666D01*
X30943247Y-58766666D02*
X30905152Y-58690476D01*
X30905152Y-58690476D02*
X30867057Y-58652381D01*
X30867057Y-58652381D02*
X30790866Y-58614285D01*
X30790866Y-58614285D02*
X30714676Y-58614285D01*
X30714676Y-58614285D02*
X30638485Y-58652381D01*
X30638485Y-58652381D02*
X30600390Y-58690476D01*
X30600390Y-58690476D02*
X30562295Y-58766666D01*
X30562295Y-58766666D02*
X30562295Y-58957143D01*
X30562295Y-58957143D02*
X30600390Y-59071428D01*
X31628961Y-59604762D02*
X30486104Y-59604762D01*
X31286104Y-60633334D02*
X31324200Y-60595238D01*
X31324200Y-60595238D02*
X31362295Y-60480953D01*
X31362295Y-60480953D02*
X31362295Y-60404762D01*
X31362295Y-60404762D02*
X31324200Y-60290476D01*
X31324200Y-60290476D02*
X31248009Y-60214286D01*
X31248009Y-60214286D02*
X31171819Y-60176191D01*
X31171819Y-60176191D02*
X31019438Y-60138095D01*
X31019438Y-60138095D02*
X30905152Y-60138095D01*
X30905152Y-60138095D02*
X30752771Y-60176191D01*
X30752771Y-60176191D02*
X30676580Y-60214286D01*
X30676580Y-60214286D02*
X30600390Y-60290476D01*
X30600390Y-60290476D02*
X30562295Y-60404762D01*
X30562295Y-60404762D02*
X30562295Y-60480953D01*
X30562295Y-60480953D02*
X30600390Y-60595238D01*
X30600390Y-60595238D02*
X30638485Y-60633334D01*
X58786104Y-31495000D02*
X58824200Y-31456904D01*
X58824200Y-31456904D02*
X58862295Y-31342619D01*
X58862295Y-31342619D02*
X58862295Y-31266428D01*
X58862295Y-31266428D02*
X58824200Y-31152142D01*
X58824200Y-31152142D02*
X58748009Y-31075952D01*
X58748009Y-31075952D02*
X58671819Y-31037857D01*
X58671819Y-31037857D02*
X58519438Y-30999761D01*
X58519438Y-30999761D02*
X58405152Y-30999761D01*
X58405152Y-30999761D02*
X58252771Y-31037857D01*
X58252771Y-31037857D02*
X58176580Y-31075952D01*
X58176580Y-31075952D02*
X58100390Y-31152142D01*
X58100390Y-31152142D02*
X58062295Y-31266428D01*
X58062295Y-31266428D02*
X58062295Y-31342619D01*
X58062295Y-31342619D02*
X58100390Y-31456904D01*
X58100390Y-31456904D02*
X58138485Y-31495000D01*
X58633723Y-31799761D02*
X58633723Y-32180714D01*
X58862295Y-31723571D02*
X58062295Y-31990238D01*
X58062295Y-31990238D02*
X58862295Y-32256904D01*
X58862295Y-32523571D02*
X58062295Y-32523571D01*
X58062295Y-32523571D02*
X58862295Y-32980714D01*
X58862295Y-32980714D02*
X58062295Y-32980714D01*
X58062295Y-33894999D02*
X58062295Y-34390237D01*
X58062295Y-34390237D02*
X58367057Y-34123571D01*
X58367057Y-34123571D02*
X58367057Y-34237856D01*
X58367057Y-34237856D02*
X58405152Y-34314047D01*
X58405152Y-34314047D02*
X58443247Y-34352142D01*
X58443247Y-34352142D02*
X58519438Y-34390237D01*
X58519438Y-34390237D02*
X58709914Y-34390237D01*
X58709914Y-34390237D02*
X58786104Y-34352142D01*
X58786104Y-34352142D02*
X58824200Y-34314047D01*
X58824200Y-34314047D02*
X58862295Y-34237856D01*
X58862295Y-34237856D02*
X58862295Y-34009285D01*
X58862295Y-34009285D02*
X58824200Y-33933094D01*
X58824200Y-33933094D02*
X58786104Y-33894999D01*
X31286104Y-45685714D02*
X31324200Y-45647618D01*
X31324200Y-45647618D02*
X31362295Y-45533333D01*
X31362295Y-45533333D02*
X31362295Y-45457142D01*
X31362295Y-45457142D02*
X31324200Y-45342856D01*
X31324200Y-45342856D02*
X31248009Y-45266666D01*
X31248009Y-45266666D02*
X31171819Y-45228571D01*
X31171819Y-45228571D02*
X31019438Y-45190475D01*
X31019438Y-45190475D02*
X30905152Y-45190475D01*
X30905152Y-45190475D02*
X30752771Y-45228571D01*
X30752771Y-45228571D02*
X30676580Y-45266666D01*
X30676580Y-45266666D02*
X30600390Y-45342856D01*
X30600390Y-45342856D02*
X30562295Y-45457142D01*
X30562295Y-45457142D02*
X30562295Y-45533333D01*
X30562295Y-45533333D02*
X30600390Y-45647618D01*
X30600390Y-45647618D02*
X30638485Y-45685714D01*
X31628961Y-46219047D02*
X30486104Y-46219047D01*
X30600390Y-47209523D02*
X30562295Y-47133333D01*
X30562295Y-47133333D02*
X30562295Y-47019047D01*
X30562295Y-47019047D02*
X30600390Y-46904761D01*
X30600390Y-46904761D02*
X30676580Y-46828571D01*
X30676580Y-46828571D02*
X30752771Y-46790476D01*
X30752771Y-46790476D02*
X30905152Y-46752380D01*
X30905152Y-46752380D02*
X31019438Y-46752380D01*
X31019438Y-46752380D02*
X31171819Y-46790476D01*
X31171819Y-46790476D02*
X31248009Y-46828571D01*
X31248009Y-46828571D02*
X31324200Y-46904761D01*
X31324200Y-46904761D02*
X31362295Y-47019047D01*
X31362295Y-47019047D02*
X31362295Y-47095238D01*
X31362295Y-47095238D02*
X31324200Y-47209523D01*
X31324200Y-47209523D02*
X31286104Y-47247619D01*
X31286104Y-47247619D02*
X31019438Y-47247619D01*
X31019438Y-47247619D02*
X31019438Y-47095238D01*
X31628961Y-47780952D02*
X30486104Y-47780952D01*
X31362295Y-48352381D02*
X30562295Y-48352381D01*
X30562295Y-48352381D02*
X30562295Y-48542857D01*
X30562295Y-48542857D02*
X30600390Y-48657143D01*
X30600390Y-48657143D02*
X30676580Y-48733333D01*
X30676580Y-48733333D02*
X30752771Y-48771428D01*
X30752771Y-48771428D02*
X30905152Y-48809524D01*
X30905152Y-48809524D02*
X31019438Y-48809524D01*
X31019438Y-48809524D02*
X31171819Y-48771428D01*
X31171819Y-48771428D02*
X31248009Y-48733333D01*
X31248009Y-48733333D02*
X31324200Y-48657143D01*
X31324200Y-48657143D02*
X31362295Y-48542857D01*
X31362295Y-48542857D02*
X31362295Y-48352381D01*
X58786104Y-57295000D02*
X58824200Y-57256904D01*
X58824200Y-57256904D02*
X58862295Y-57142619D01*
X58862295Y-57142619D02*
X58862295Y-57066428D01*
X58862295Y-57066428D02*
X58824200Y-56952142D01*
X58824200Y-56952142D02*
X58748009Y-56875952D01*
X58748009Y-56875952D02*
X58671819Y-56837857D01*
X58671819Y-56837857D02*
X58519438Y-56799761D01*
X58519438Y-56799761D02*
X58405152Y-56799761D01*
X58405152Y-56799761D02*
X58252771Y-56837857D01*
X58252771Y-56837857D02*
X58176580Y-56875952D01*
X58176580Y-56875952D02*
X58100390Y-56952142D01*
X58100390Y-56952142D02*
X58062295Y-57066428D01*
X58062295Y-57066428D02*
X58062295Y-57142619D01*
X58062295Y-57142619D02*
X58100390Y-57256904D01*
X58100390Y-57256904D02*
X58138485Y-57295000D01*
X58633723Y-57599761D02*
X58633723Y-57980714D01*
X58862295Y-57523571D02*
X58062295Y-57790238D01*
X58062295Y-57790238D02*
X58862295Y-58056904D01*
X58862295Y-58323571D02*
X58062295Y-58323571D01*
X58062295Y-58323571D02*
X58862295Y-58780714D01*
X58862295Y-58780714D02*
X58062295Y-58780714D01*
X58062295Y-60114047D02*
X58062295Y-59961666D01*
X58062295Y-59961666D02*
X58100390Y-59885475D01*
X58100390Y-59885475D02*
X58138485Y-59847380D01*
X58138485Y-59847380D02*
X58252771Y-59771190D01*
X58252771Y-59771190D02*
X58405152Y-59733094D01*
X58405152Y-59733094D02*
X58709914Y-59733094D01*
X58709914Y-59733094D02*
X58786104Y-59771190D01*
X58786104Y-59771190D02*
X58824200Y-59809285D01*
X58824200Y-59809285D02*
X58862295Y-59885475D01*
X58862295Y-59885475D02*
X58862295Y-60037856D01*
X58862295Y-60037856D02*
X58824200Y-60114047D01*
X58824200Y-60114047D02*
X58786104Y-60152142D01*
X58786104Y-60152142D02*
X58709914Y-60190237D01*
X58709914Y-60190237D02*
X58519438Y-60190237D01*
X58519438Y-60190237D02*
X58443247Y-60152142D01*
X58443247Y-60152142D02*
X58405152Y-60114047D01*
X58405152Y-60114047D02*
X58367057Y-60037856D01*
X58367057Y-60037856D02*
X58367057Y-59885475D01*
X58367057Y-59885475D02*
X58405152Y-59809285D01*
X58405152Y-59809285D02*
X58443247Y-59771190D01*
X58443247Y-59771190D02*
X58519438Y-59733094D01*
X58786104Y-40095000D02*
X58824200Y-40056904D01*
X58824200Y-40056904D02*
X58862295Y-39942619D01*
X58862295Y-39942619D02*
X58862295Y-39866428D01*
X58862295Y-39866428D02*
X58824200Y-39752142D01*
X58824200Y-39752142D02*
X58748009Y-39675952D01*
X58748009Y-39675952D02*
X58671819Y-39637857D01*
X58671819Y-39637857D02*
X58519438Y-39599761D01*
X58519438Y-39599761D02*
X58405152Y-39599761D01*
X58405152Y-39599761D02*
X58252771Y-39637857D01*
X58252771Y-39637857D02*
X58176580Y-39675952D01*
X58176580Y-39675952D02*
X58100390Y-39752142D01*
X58100390Y-39752142D02*
X58062295Y-39866428D01*
X58062295Y-39866428D02*
X58062295Y-39942619D01*
X58062295Y-39942619D02*
X58100390Y-40056904D01*
X58100390Y-40056904D02*
X58138485Y-40095000D01*
X58633723Y-40399761D02*
X58633723Y-40780714D01*
X58862295Y-40323571D02*
X58062295Y-40590238D01*
X58062295Y-40590238D02*
X58862295Y-40856904D01*
X58862295Y-41123571D02*
X58062295Y-41123571D01*
X58062295Y-41123571D02*
X58862295Y-41580714D01*
X58862295Y-41580714D02*
X58062295Y-41580714D01*
X58328961Y-42914047D02*
X58862295Y-42914047D01*
X58024200Y-42723571D02*
X58595628Y-42533094D01*
X58595628Y-42533094D02*
X58595628Y-43028333D01*
X35600390Y-54530951D02*
X35562295Y-54454761D01*
X35562295Y-54454761D02*
X35562295Y-54340475D01*
X35562295Y-54340475D02*
X35600390Y-54226189D01*
X35600390Y-54226189D02*
X35676580Y-54149999D01*
X35676580Y-54149999D02*
X35752771Y-54111904D01*
X35752771Y-54111904D02*
X35905152Y-54073808D01*
X35905152Y-54073808D02*
X36019438Y-54073808D01*
X36019438Y-54073808D02*
X36171819Y-54111904D01*
X36171819Y-54111904D02*
X36248009Y-54149999D01*
X36248009Y-54149999D02*
X36324200Y-54226189D01*
X36324200Y-54226189D02*
X36362295Y-54340475D01*
X36362295Y-54340475D02*
X36362295Y-54416666D01*
X36362295Y-54416666D02*
X36324200Y-54530951D01*
X36324200Y-54530951D02*
X36286104Y-54569047D01*
X36286104Y-54569047D02*
X36019438Y-54569047D01*
X36019438Y-54569047D02*
X36019438Y-54416666D01*
X36628961Y-55102380D02*
X35486104Y-55102380D01*
X35638485Y-55635713D02*
X35600390Y-55673809D01*
X35600390Y-55673809D02*
X35562295Y-55749999D01*
X35562295Y-55749999D02*
X35562295Y-55940475D01*
X35562295Y-55940475D02*
X35600390Y-56016666D01*
X35600390Y-56016666D02*
X35638485Y-56054761D01*
X35638485Y-56054761D02*
X35714676Y-56092856D01*
X35714676Y-56092856D02*
X35790866Y-56092856D01*
X35790866Y-56092856D02*
X35905152Y-56054761D01*
X35905152Y-56054761D02*
X36362295Y-55597618D01*
X36362295Y-55597618D02*
X36362295Y-56092856D01*
X35562295Y-56778571D02*
X35562295Y-56626190D01*
X35562295Y-56626190D02*
X35600390Y-56549999D01*
X35600390Y-56549999D02*
X35638485Y-56511904D01*
X35638485Y-56511904D02*
X35752771Y-56435714D01*
X35752771Y-56435714D02*
X35905152Y-56397618D01*
X35905152Y-56397618D02*
X36209914Y-56397618D01*
X36209914Y-56397618D02*
X36286104Y-56435714D01*
X36286104Y-56435714D02*
X36324200Y-56473809D01*
X36324200Y-56473809D02*
X36362295Y-56549999D01*
X36362295Y-56549999D02*
X36362295Y-56702380D01*
X36362295Y-56702380D02*
X36324200Y-56778571D01*
X36324200Y-56778571D02*
X36286104Y-56816666D01*
X36286104Y-56816666D02*
X36209914Y-56854761D01*
X36209914Y-56854761D02*
X36019438Y-56854761D01*
X36019438Y-56854761D02*
X35943247Y-56816666D01*
X35943247Y-56816666D02*
X35905152Y-56778571D01*
X35905152Y-56778571D02*
X35867057Y-56702380D01*
X35867057Y-56702380D02*
X35867057Y-56549999D01*
X35867057Y-56549999D02*
X35905152Y-56473809D01*
X35905152Y-56473809D02*
X35943247Y-56435714D01*
X35943247Y-56435714D02*
X36019438Y-56397618D01*
X36628961Y-57388095D02*
X35486104Y-57388095D01*
X35638485Y-57921428D02*
X35600390Y-57959524D01*
X35600390Y-57959524D02*
X35562295Y-58035714D01*
X35562295Y-58035714D02*
X35562295Y-58226190D01*
X35562295Y-58226190D02*
X35600390Y-58302381D01*
X35600390Y-58302381D02*
X35638485Y-58340476D01*
X35638485Y-58340476D02*
X35714676Y-58378571D01*
X35714676Y-58378571D02*
X35790866Y-58378571D01*
X35790866Y-58378571D02*
X35905152Y-58340476D01*
X35905152Y-58340476D02*
X36362295Y-57883333D01*
X36362295Y-57883333D02*
X36362295Y-58378571D01*
X35562295Y-58645238D02*
X35562295Y-59178572D01*
X35562295Y-59178572D02*
X36362295Y-58835714D01*
X36628961Y-59673810D02*
X35486104Y-59673810D01*
X36362295Y-60664286D02*
X36362295Y-60207143D01*
X36362295Y-60435715D02*
X35562295Y-60435715D01*
X35562295Y-60435715D02*
X35676580Y-60359524D01*
X35676580Y-60359524D02*
X35752771Y-60283334D01*
X35752771Y-60283334D02*
X35790866Y-60207143D01*
X35562295Y-61388096D02*
X35562295Y-61007144D01*
X35562295Y-61007144D02*
X35943247Y-60969048D01*
X35943247Y-60969048D02*
X35905152Y-61007144D01*
X35905152Y-61007144D02*
X35867057Y-61083334D01*
X35867057Y-61083334D02*
X35867057Y-61273810D01*
X35867057Y-61273810D02*
X35905152Y-61350001D01*
X35905152Y-61350001D02*
X35943247Y-61388096D01*
X35943247Y-61388096D02*
X36019438Y-61426191D01*
X36019438Y-61426191D02*
X36209914Y-61426191D01*
X36209914Y-61426191D02*
X36286104Y-61388096D01*
X36286104Y-61388096D02*
X36324200Y-61350001D01*
X36324200Y-61350001D02*
X36362295Y-61273810D01*
X36362295Y-61273810D02*
X36362295Y-61083334D01*
X36362295Y-61083334D02*
X36324200Y-61007144D01*
X36324200Y-61007144D02*
X36286104Y-60969048D01*
M02*
