%TF.GenerationSoftware,KiCad,Pcbnew,8.0.8*%
%TF.CreationDate,2025-01-25T20:20:04-05:00*%
%TF.ProjectId,CAN Board,43414e20-426f-4617-9264-2e6b69636164,rev?*%
%TF.SameCoordinates,Original*%
%TF.FileFunction,Paste,Top*%
%TF.FilePolarity,Positive*%
%FSLAX46Y46*%
G04 Gerber Fmt 4.6, Leading zero omitted, Abs format (unit mm)*
G04 Created by KiCad (PCBNEW 8.0.8) date 2025-01-25 20:20:04*
%MOMM*%
%LPD*%
G01*
G04 APERTURE LIST*
G04 Aperture macros list*
%AMRoundRect*
0 Rectangle with rounded corners*
0 $1 Rounding radius*
0 $2 $3 $4 $5 $6 $7 $8 $9 X,Y pos of 4 corners*
0 Add a 4 corners polygon primitive as box body*
4,1,4,$2,$3,$4,$5,$6,$7,$8,$9,$2,$3,0*
0 Add four circle primitives for the rounded corners*
1,1,$1+$1,$2,$3*
1,1,$1+$1,$4,$5*
1,1,$1+$1,$6,$7*
1,1,$1+$1,$8,$9*
0 Add four rect primitives between the rounded corners*
20,1,$1+$1,$2,$3,$4,$5,0*
20,1,$1+$1,$4,$5,$6,$7,0*
20,1,$1+$1,$6,$7,$8,$9,0*
20,1,$1+$1,$8,$9,$2,$3,0*%
G04 Aperture macros list end*
%ADD10C,0.000000*%
%ADD11RoundRect,0.225000X0.250000X-0.225000X0.250000X0.225000X-0.250000X0.225000X-0.250000X-0.225000X0*%
%ADD12R,1.400000X1.200000*%
%ADD13RoundRect,0.225000X0.225000X0.250000X-0.225000X0.250000X-0.225000X-0.250000X0.225000X-0.250000X0*%
%ADD14RoundRect,0.200000X0.200000X0.275000X-0.200000X0.275000X-0.200000X-0.275000X0.200000X-0.275000X0*%
%ADD15RoundRect,0.150000X0.150000X0.425000X-0.150000X0.425000X-0.150000X-0.425000X0.150000X-0.425000X0*%
%ADD16RoundRect,0.075000X0.075000X0.500000X-0.075000X0.500000X-0.075000X-0.500000X0.075000X-0.500000X0*%
%ADD17O,1.000000X2.100000*%
%ADD18O,1.000000X1.800000*%
%ADD19RoundRect,0.225000X-0.250000X0.225000X-0.250000X-0.225000X0.250000X-0.225000X0.250000X0.225000X0*%
%ADD20R,0.762000X0.254000*%
%ADD21R,0.254000X0.762000*%
%ADD22R,3.352800X3.352800*%
%ADD23RoundRect,0.200000X-0.200000X-0.275000X0.200000X-0.275000X0.200000X0.275000X-0.200000X0.275000X0*%
%ADD24RoundRect,0.225000X-0.225000X-0.250000X0.225000X-0.250000X0.225000X0.250000X-0.225000X0.250000X0*%
%ADD25RoundRect,0.200000X-0.275000X0.200000X-0.275000X-0.200000X0.275000X-0.200000X0.275000X0.200000X0*%
%ADD26RoundRect,0.150000X-0.650000X-0.150000X0.650000X-0.150000X0.650000X0.150000X-0.650000X0.150000X0*%
%ADD27RoundRect,0.150000X-0.150000X0.512500X-0.150000X-0.512500X0.150000X-0.512500X0.150000X0.512500X0*%
%ADD28RoundRect,0.249999X-0.395001X-0.395001X0.395001X-0.395001X0.395001X0.395001X-0.395001X0.395001X0*%
%ADD29RoundRect,0.050000X-0.387500X-0.050000X0.387500X-0.050000X0.387500X0.050000X-0.387500X0.050000X0*%
%ADD30RoundRect,0.050000X-0.050000X-0.387500X0.050000X-0.387500X0.050000X0.387500X-0.050000X0.387500X0*%
G04 APERTURE END LIST*
D10*
%TO.C,U8*%
G36*
X51900000Y-48900000D02*
G01*
X50423600Y-48900000D01*
X50423600Y-47423600D01*
X51900000Y-47423600D01*
X51900000Y-48900000D01*
G37*
G36*
X51900000Y-50576400D02*
G01*
X50423600Y-50576400D01*
X50423600Y-49100000D01*
X51900000Y-49100000D01*
X51900000Y-50576400D01*
G37*
G36*
X53576400Y-48900000D02*
G01*
X52100000Y-48900000D01*
X52100000Y-47423600D01*
X53576400Y-47423600D01*
X53576400Y-48900000D01*
G37*
G36*
X53576400Y-50576400D02*
G01*
X52100000Y-50576400D01*
X52100000Y-49100000D01*
X53576400Y-49100000D01*
X53576400Y-50576400D01*
G37*
%TO.C,U4*%
G36*
X51900000Y-16900000D02*
G01*
X50423600Y-16900000D01*
X50423600Y-15423600D01*
X51900000Y-15423600D01*
X51900000Y-16900000D01*
G37*
G36*
X51900000Y-18576400D02*
G01*
X50423600Y-18576400D01*
X50423600Y-17100000D01*
X51900000Y-17100000D01*
X51900000Y-18576400D01*
G37*
G36*
X53576400Y-16900000D02*
G01*
X52100000Y-16900000D01*
X52100000Y-15423600D01*
X53576400Y-15423600D01*
X53576400Y-16900000D01*
G37*
G36*
X53576400Y-18576400D02*
G01*
X52100000Y-18576400D01*
X52100000Y-17100000D01*
X53576400Y-17100000D01*
X53576400Y-18576400D01*
G37*
%TO.C,U9*%
G36*
X51900000Y-56900000D02*
G01*
X50423600Y-56900000D01*
X50423600Y-55423600D01*
X51900000Y-55423600D01*
X51900000Y-56900000D01*
G37*
G36*
X51900000Y-58576400D02*
G01*
X50423600Y-58576400D01*
X50423600Y-57100000D01*
X51900000Y-57100000D01*
X51900000Y-58576400D01*
G37*
G36*
X53576400Y-56900000D02*
G01*
X52100000Y-56900000D01*
X52100000Y-55423600D01*
X53576400Y-55423600D01*
X53576400Y-56900000D01*
G37*
G36*
X53576400Y-58576400D02*
G01*
X52100000Y-58576400D01*
X52100000Y-57100000D01*
X53576400Y-57100000D01*
X53576400Y-58576400D01*
G37*
%TO.C,U7*%
G36*
X51900000Y-40900000D02*
G01*
X50423600Y-40900000D01*
X50423600Y-39423600D01*
X51900000Y-39423600D01*
X51900000Y-40900000D01*
G37*
G36*
X51900000Y-42576400D02*
G01*
X50423600Y-42576400D01*
X50423600Y-41100000D01*
X51900000Y-41100000D01*
X51900000Y-42576400D01*
G37*
G36*
X53576400Y-40900000D02*
G01*
X52100000Y-40900000D01*
X52100000Y-39423600D01*
X53576400Y-39423600D01*
X53576400Y-40900000D01*
G37*
G36*
X53576400Y-42576400D02*
G01*
X52100000Y-42576400D01*
X52100000Y-41100000D01*
X53576400Y-41100000D01*
X53576400Y-42576400D01*
G37*
%TO.C,U6*%
G36*
X51900000Y-32900000D02*
G01*
X50423600Y-32900000D01*
X50423600Y-31423600D01*
X51900000Y-31423600D01*
X51900000Y-32900000D01*
G37*
G36*
X51900000Y-34576400D02*
G01*
X50423600Y-34576400D01*
X50423600Y-33100000D01*
X51900000Y-33100000D01*
X51900000Y-34576400D01*
G37*
G36*
X53576400Y-32900000D02*
G01*
X52100000Y-32900000D01*
X52100000Y-31423600D01*
X53576400Y-31423600D01*
X53576400Y-32900000D01*
G37*
G36*
X53576400Y-34576400D02*
G01*
X52100000Y-34576400D01*
X52100000Y-33100000D01*
X53576400Y-33100000D01*
X53576400Y-34576400D01*
G37*
%TO.C,U5*%
G36*
X51900000Y-24900000D02*
G01*
X50423600Y-24900000D01*
X50423600Y-23423600D01*
X51900000Y-23423600D01*
X51900000Y-24900000D01*
G37*
G36*
X51900000Y-26576400D02*
G01*
X50423600Y-26576400D01*
X50423600Y-25100000D01*
X51900000Y-25100000D01*
X51900000Y-26576400D01*
G37*
G36*
X53576400Y-24900000D02*
G01*
X52100000Y-24900000D01*
X52100000Y-23423600D01*
X53576400Y-23423600D01*
X53576400Y-24900000D01*
G37*
G36*
X53576400Y-26576400D02*
G01*
X52100000Y-26576400D01*
X52100000Y-25100000D01*
X53576400Y-25100000D01*
X53576400Y-26576400D01*
G37*
%TD*%
D11*
%TO.C,C48*%
X43000000Y-52275000D03*
X43000000Y-50725000D03*
%TD*%
D12*
%TO.C,Y7*%
X44900000Y-57850000D03*
X47100000Y-57850000D03*
X47100000Y-56150000D03*
X44900000Y-56150000D03*
%TD*%
D13*
%TO.C,C54*%
X46775000Y-54500000D03*
X45225000Y-54500000D03*
%TD*%
D14*
%TO.C,R2*%
X35825000Y-49500000D03*
X34175000Y-49500000D03*
%TD*%
D11*
%TO.C,C34*%
X43500000Y-36275000D03*
X43500000Y-34725000D03*
%TD*%
D15*
%TO.C,J3*%
X40200000Y-18180000D03*
X39400000Y-18180000D03*
D16*
X38250000Y-18180000D03*
X37250000Y-18180000D03*
X36750000Y-18180000D03*
X35750000Y-18180000D03*
D15*
X34600000Y-18180000D03*
X33800000Y-18180000D03*
X33800000Y-18180000D03*
X34600000Y-18180000D03*
D16*
X35250000Y-18180000D03*
X36250000Y-18180000D03*
X37750000Y-18180000D03*
X38750000Y-18180000D03*
D15*
X39400000Y-18180000D03*
X40200000Y-18180000D03*
D17*
X41320000Y-17605000D03*
D18*
X41320000Y-13425000D03*
D17*
X32680000Y-17605000D03*
D18*
X32680000Y-13425000D03*
%TD*%
D19*
%TO.C,C56*%
X43000000Y-53725000D03*
X43000000Y-55275000D03*
%TD*%
D12*
%TO.C,Y1*%
X33900000Y-46350000D03*
X36100000Y-46350000D03*
X36100000Y-44650000D03*
X33900000Y-44650000D03*
%TD*%
D20*
%TO.C,U8*%
X49574300Y-47500000D03*
X49574300Y-47999999D03*
X49574300Y-48500001D03*
X49574300Y-49000000D03*
X49574300Y-49499999D03*
X49574300Y-50000001D03*
X49574300Y-50500000D03*
D21*
X50500000Y-51425700D03*
X50999999Y-51425700D03*
X51500001Y-51425700D03*
X52000000Y-51425700D03*
X52499999Y-51425700D03*
X53000001Y-51425700D03*
X53500000Y-51425700D03*
D20*
X54425700Y-50500000D03*
X54425700Y-50000001D03*
X54425700Y-49499999D03*
X54425700Y-49000000D03*
X54425700Y-48500001D03*
X54425700Y-47999999D03*
X54425700Y-47500000D03*
D21*
X53500000Y-46574300D03*
X53000001Y-46574300D03*
X52499999Y-46574300D03*
X52000000Y-46574300D03*
X51500001Y-46574300D03*
X50999999Y-46574300D03*
X50500000Y-46574300D03*
D22*
X52000000Y-49000000D03*
%TD*%
D23*
%TO.C,R12*%
X56175000Y-30000000D03*
X57825000Y-30000000D03*
%TD*%
D11*
%TO.C,C11*%
X28000000Y-34775000D03*
X28000000Y-33225000D03*
%TD*%
D13*
%TO.C,C51*%
X57775000Y-49000000D03*
X56225000Y-49000000D03*
%TD*%
D11*
%TO.C,C41*%
X43000000Y-44275000D03*
X43000000Y-42725000D03*
%TD*%
%TO.C,C8*%
X37500000Y-25275000D03*
X37500000Y-23725000D03*
%TD*%
D24*
%TO.C,C9*%
X34225000Y-25500000D03*
X35775000Y-25500000D03*
%TD*%
D11*
%TO.C,C13*%
X31000000Y-34775000D03*
X31000000Y-33225000D03*
%TD*%
D25*
%TO.C,R4*%
X38500000Y-20175000D03*
X38500000Y-21825000D03*
%TD*%
D13*
%TO.C,C33*%
X47275000Y-30500000D03*
X45725000Y-30500000D03*
%TD*%
D24*
%TO.C,C25*%
X45725000Y-27500000D03*
X47275000Y-27500000D03*
%TD*%
D13*
%TO.C,C22*%
X57775000Y-16500000D03*
X56225000Y-16500000D03*
%TD*%
D24*
%TO.C,C53*%
X45225000Y-59500000D03*
X46775000Y-59500000D03*
%TD*%
D20*
%TO.C,U4*%
X49574300Y-15500000D03*
X49574300Y-15999999D03*
X49574300Y-16500001D03*
X49574300Y-17000000D03*
X49574300Y-17499999D03*
X49574300Y-18000001D03*
X49574300Y-18500000D03*
D21*
X50500000Y-19425700D03*
X50999999Y-19425700D03*
X51500001Y-19425700D03*
X52000000Y-19425700D03*
X52499999Y-19425700D03*
X53000001Y-19425700D03*
X53500000Y-19425700D03*
D20*
X54425700Y-18500000D03*
X54425700Y-18000001D03*
X54425700Y-17499999D03*
X54425700Y-17000000D03*
X54425700Y-16500001D03*
X54425700Y-15999999D03*
X54425700Y-15500000D03*
D21*
X53500000Y-14574300D03*
X53000001Y-14574300D03*
X52499999Y-14574300D03*
X52000000Y-14574300D03*
X51500001Y-14574300D03*
X50999999Y-14574300D03*
X50500000Y-14574300D03*
D22*
X52000000Y-17000000D03*
%TD*%
D24*
%TO.C,C32*%
X45725000Y-35500000D03*
X47275000Y-35500000D03*
%TD*%
D11*
%TO.C,C27*%
X43500000Y-28275000D03*
X43500000Y-26725000D03*
%TD*%
D12*
%TO.C,Y3*%
X45400000Y-25850000D03*
X47600000Y-25850000D03*
X47600000Y-24150000D03*
X45400000Y-24150000D03*
%TD*%
D13*
%TO.C,C36*%
X57775000Y-33500000D03*
X56225000Y-33500000D03*
%TD*%
%TO.C,C40*%
X46775000Y-38500000D03*
X45225000Y-38500000D03*
%TD*%
D23*
%TO.C,R15*%
X56175000Y-52500000D03*
X57825000Y-52500000D03*
%TD*%
D13*
%TO.C,C43*%
X57775000Y-42500000D03*
X56225000Y-42500000D03*
%TD*%
D20*
%TO.C,U9*%
X49574300Y-55500000D03*
X49574300Y-55999999D03*
X49574300Y-56500001D03*
X49574300Y-57000000D03*
X49574300Y-57499999D03*
X49574300Y-58000001D03*
X49574300Y-58500000D03*
D21*
X50500000Y-59425700D03*
X50999999Y-59425700D03*
X51500001Y-59425700D03*
X52000000Y-59425700D03*
X52499999Y-59425700D03*
X53000001Y-59425700D03*
X53500000Y-59425700D03*
D20*
X54425700Y-58500000D03*
X54425700Y-58000001D03*
X54425700Y-57499999D03*
X54425700Y-57000000D03*
X54425700Y-56500001D03*
X54425700Y-55999999D03*
X54425700Y-55500000D03*
D21*
X53500000Y-54574300D03*
X53000001Y-54574300D03*
X52499999Y-54574300D03*
X52000000Y-54574300D03*
X51500001Y-54574300D03*
X50999999Y-54574300D03*
X50500000Y-54574300D03*
D22*
X52000000Y-57000000D03*
%TD*%
D20*
%TO.C,U7*%
X49574300Y-39500000D03*
X49574300Y-39999999D03*
X49574300Y-40500001D03*
X49574300Y-41000000D03*
X49574300Y-41499999D03*
X49574300Y-42000001D03*
X49574300Y-42500000D03*
D21*
X50500000Y-43425700D03*
X50999999Y-43425700D03*
X51500001Y-43425700D03*
X52000000Y-43425700D03*
X52499999Y-43425700D03*
X53000001Y-43425700D03*
X53500000Y-43425700D03*
D20*
X54425700Y-42500000D03*
X54425700Y-42000001D03*
X54425700Y-41499999D03*
X54425700Y-41000000D03*
X54425700Y-40500001D03*
X54425700Y-39999999D03*
X54425700Y-39500000D03*
D21*
X53500000Y-38574300D03*
X53000001Y-38574300D03*
X52499999Y-38574300D03*
X52000000Y-38574300D03*
X51500001Y-38574300D03*
X50999999Y-38574300D03*
X50500000Y-38574300D03*
D22*
X52000000Y-41000000D03*
%TD*%
D23*
%TO.C,R18*%
X56175000Y-56000000D03*
X57825000Y-56000000D03*
%TD*%
D11*
%TO.C,C12*%
X29500000Y-34775000D03*
X29500000Y-33225000D03*
%TD*%
D23*
%TO.C,R9*%
X56175000Y-26500000D03*
X57825000Y-26500000D03*
%TD*%
D11*
%TO.C,C7*%
X40000000Y-31775000D03*
X40000000Y-30225000D03*
%TD*%
D26*
%TO.C,U2*%
X28650000Y-27595000D03*
X28650000Y-28865000D03*
X28650000Y-30135000D03*
X28650000Y-31405000D03*
X35850000Y-31405000D03*
X35850000Y-30135000D03*
X35850000Y-28865000D03*
X35850000Y-27595000D03*
%TD*%
D23*
%TO.C,R7*%
X56175000Y-18000000D03*
X57825000Y-18000000D03*
%TD*%
D24*
%TO.C,C18*%
X45725000Y-19500000D03*
X47275000Y-19500000D03*
%TD*%
D12*
%TO.C,Y5*%
X44900000Y-41850000D03*
X47100000Y-41850000D03*
X47100000Y-40150000D03*
X44900000Y-40150000D03*
%TD*%
D13*
%TO.C,C50*%
X57775000Y-51000000D03*
X56225000Y-51000000D03*
%TD*%
D14*
%TO.C,R6*%
X32825000Y-25500000D03*
X31175000Y-25500000D03*
%TD*%
D19*
%TO.C,C15*%
X40000000Y-24225000D03*
X40000000Y-25775000D03*
%TD*%
D12*
%TO.C,Y4*%
X45400000Y-33850000D03*
X47600000Y-33850000D03*
X47600000Y-32150000D03*
X45400000Y-32150000D03*
%TD*%
D19*
%TO.C,C42*%
X43000000Y-37725000D03*
X43000000Y-39275000D03*
%TD*%
D20*
%TO.C,U6*%
X49574300Y-31500000D03*
X49574300Y-31999999D03*
X49574300Y-32500001D03*
X49574300Y-33000000D03*
X49574300Y-33499999D03*
X49574300Y-34000001D03*
X49574300Y-34500000D03*
D21*
X50500000Y-35425700D03*
X50999999Y-35425700D03*
X51500001Y-35425700D03*
X52000000Y-35425700D03*
X52499999Y-35425700D03*
X53000001Y-35425700D03*
X53500000Y-35425700D03*
D20*
X54425700Y-34500000D03*
X54425700Y-34000001D03*
X54425700Y-33499999D03*
X54425700Y-33000000D03*
X54425700Y-32500001D03*
X54425700Y-31999999D03*
X54425700Y-31500000D03*
D21*
X53500000Y-30574300D03*
X53000001Y-30574300D03*
X52499999Y-30574300D03*
X52000000Y-30574300D03*
X51500001Y-30574300D03*
X50999999Y-30574300D03*
X50500000Y-30574300D03*
D22*
X52000000Y-33000000D03*
%TD*%
D13*
%TO.C,C19*%
X47275000Y-14500000D03*
X45725000Y-14500000D03*
%TD*%
%TO.C,C30*%
X57775000Y-23000000D03*
X56225000Y-23000000D03*
%TD*%
%TO.C,C17*%
X30275000Y-19500000D03*
X28725000Y-19500000D03*
%TD*%
%TO.C,C23*%
X57775000Y-14500000D03*
X56225000Y-14500000D03*
%TD*%
D19*
%TO.C,C35*%
X43500000Y-29725000D03*
X43500000Y-31275000D03*
%TD*%
D24*
%TO.C,C3*%
X38225000Y-48500000D03*
X39775000Y-48500000D03*
%TD*%
D13*
%TO.C,C26*%
X47275000Y-22500000D03*
X45725000Y-22500000D03*
%TD*%
D11*
%TO.C,C20*%
X43500000Y-20275000D03*
X43500000Y-18725000D03*
%TD*%
D27*
%TO.C,U3*%
X30450000Y-15362500D03*
X29500000Y-15362500D03*
X28550000Y-15362500D03*
X28550000Y-17637500D03*
X30450000Y-17637500D03*
%TD*%
D13*
%TO.C,C57*%
X57775000Y-59500000D03*
X56225000Y-59500000D03*
%TD*%
D24*
%TO.C,C39*%
X45225000Y-43500000D03*
X46775000Y-43500000D03*
%TD*%
D23*
%TO.C,R1*%
X38175000Y-47000000D03*
X39825000Y-47000000D03*
%TD*%
D24*
%TO.C,C2*%
X34225000Y-48000000D03*
X35775000Y-48000000D03*
%TD*%
D28*
%TO.C,U1*%
X36200000Y-36200000D03*
X36200000Y-37800000D03*
X37800000Y-36200000D03*
X37800000Y-37800000D03*
D29*
X33562500Y-34400000D03*
X33562500Y-34800000D03*
X33562500Y-35200000D03*
X33562500Y-35600000D03*
X33562500Y-36000000D03*
X33562500Y-36400000D03*
X33562500Y-36800000D03*
X33562500Y-37200000D03*
X33562500Y-37600000D03*
X33562500Y-38000000D03*
X33562500Y-38400000D03*
X33562500Y-38800000D03*
X33562500Y-39200000D03*
X33562500Y-39600000D03*
D30*
X34400000Y-40437500D03*
X34800000Y-40437500D03*
X35200000Y-40437500D03*
X35600000Y-40437500D03*
X36000000Y-40437500D03*
X36400000Y-40437500D03*
X36800000Y-40437500D03*
X37200000Y-40437500D03*
X37600000Y-40437500D03*
X38000000Y-40437500D03*
X38400000Y-40437500D03*
X38800000Y-40437500D03*
X39200000Y-40437500D03*
X39600000Y-40437500D03*
D29*
X40437500Y-39600000D03*
X40437500Y-39200000D03*
X40437500Y-38800000D03*
X40437500Y-38400000D03*
X40437500Y-38000000D03*
X40437500Y-37600000D03*
X40437500Y-37200000D03*
X40437500Y-36800000D03*
X40437500Y-36400000D03*
X40437500Y-36000000D03*
X40437500Y-35600000D03*
X40437500Y-35200000D03*
X40437500Y-34800000D03*
X40437500Y-34400000D03*
D30*
X39600000Y-33562500D03*
X39200000Y-33562500D03*
X38800000Y-33562500D03*
X38400000Y-33562500D03*
X38000000Y-33562500D03*
X37600000Y-33562500D03*
X37200000Y-33562500D03*
X36800000Y-33562500D03*
X36400000Y-33562500D03*
X36000000Y-33562500D03*
X35600000Y-33562500D03*
X35200000Y-33562500D03*
X34800000Y-33562500D03*
X34400000Y-33562500D03*
%TD*%
D19*
%TO.C,C49*%
X43000000Y-45725000D03*
X43000000Y-47275000D03*
%TD*%
D23*
%TO.C,R16*%
X56175000Y-47500000D03*
X57825000Y-47500000D03*
%TD*%
%TO.C,R17*%
X56175000Y-61000000D03*
X57825000Y-61000000D03*
%TD*%
D25*
%TO.C,R3*%
X37000000Y-20175000D03*
X37000000Y-21825000D03*
%TD*%
D24*
%TO.C,C16*%
X28725000Y-13500000D03*
X30275000Y-13500000D03*
%TD*%
D12*
%TO.C,Y2*%
X45400000Y-17850000D03*
X47600000Y-17850000D03*
X47600000Y-16150000D03*
X45400000Y-16150000D03*
%TD*%
D11*
%TO.C,C6*%
X39500000Y-28775000D03*
X39500000Y-27225000D03*
%TD*%
D13*
%TO.C,C47*%
X46775000Y-46500000D03*
X45225000Y-46500000D03*
%TD*%
D14*
%TO.C,R5*%
X29825000Y-25500000D03*
X28175000Y-25500000D03*
%TD*%
D23*
%TO.C,R14*%
X56175000Y-39000000D03*
X57825000Y-39000000D03*
%TD*%
%TO.C,R11*%
X56175000Y-35000000D03*
X57825000Y-35000000D03*
%TD*%
D13*
%TO.C,C58*%
X57775000Y-57500000D03*
X56225000Y-57500000D03*
%TD*%
%TO.C,C1*%
X35775000Y-43000000D03*
X34225000Y-43000000D03*
%TD*%
D23*
%TO.C,R13*%
X56175000Y-44000000D03*
X57825000Y-44000000D03*
%TD*%
D13*
%TO.C,C44*%
X57775000Y-40500000D03*
X56225000Y-40500000D03*
%TD*%
D23*
%TO.C,R8*%
X56175000Y-13000000D03*
X57825000Y-13000000D03*
%TD*%
D24*
%TO.C,C46*%
X45225000Y-51500000D03*
X46775000Y-51500000D03*
%TD*%
D19*
%TO.C,C28*%
X43500000Y-21725000D03*
X43500000Y-23275000D03*
%TD*%
D24*
%TO.C,C4*%
X38225000Y-44000000D03*
X39775000Y-44000000D03*
%TD*%
%TO.C,C14*%
X38225000Y-45500000D03*
X39775000Y-45500000D03*
%TD*%
%TO.C,C5*%
X38225000Y-42500000D03*
X39775000Y-42500000D03*
%TD*%
D11*
%TO.C,C10*%
X40500000Y-22775000D03*
X40500000Y-21225000D03*
%TD*%
%TO.C,C55*%
X43000000Y-60275000D03*
X43000000Y-58725000D03*
%TD*%
D12*
%TO.C,Y6*%
X44900000Y-49850000D03*
X47100000Y-49850000D03*
X47100000Y-48150000D03*
X44900000Y-48150000D03*
%TD*%
D23*
%TO.C,R10*%
X56175000Y-21500000D03*
X57825000Y-21500000D03*
%TD*%
D13*
%TO.C,C29*%
X57775000Y-25000000D03*
X56225000Y-25000000D03*
%TD*%
%TO.C,C37*%
X57775000Y-31500000D03*
X56225000Y-31500000D03*
%TD*%
D19*
%TO.C,C21*%
X43500000Y-13725000D03*
X43500000Y-15275000D03*
%TD*%
D20*
%TO.C,U5*%
X49574300Y-23500000D03*
X49574300Y-23999999D03*
X49574300Y-24500001D03*
X49574300Y-25000000D03*
X49574300Y-25499999D03*
X49574300Y-26000001D03*
X49574300Y-26500000D03*
D21*
X50500000Y-27425700D03*
X50999999Y-27425700D03*
X51500001Y-27425700D03*
X52000000Y-27425700D03*
X52499999Y-27425700D03*
X53000001Y-27425700D03*
X53500000Y-27425700D03*
D20*
X54425700Y-26500000D03*
X54425700Y-26000001D03*
X54425700Y-25499999D03*
X54425700Y-25000000D03*
X54425700Y-24500001D03*
X54425700Y-23999999D03*
X54425700Y-23500000D03*
D21*
X53500000Y-22574300D03*
X53000001Y-22574300D03*
X52499999Y-22574300D03*
X52000000Y-22574300D03*
X51500001Y-22574300D03*
X50999999Y-22574300D03*
X50500000Y-22574300D03*
D22*
X52000000Y-25000000D03*
%TD*%
M02*
