%TF.GenerationSoftware,KiCad,Pcbnew,8.0.8*%
%TF.CreationDate,2025-01-25T20:20:04-05:00*%
%TF.ProjectId,CAN Board,43414e20-426f-4617-9264-2e6b69636164,rev?*%
%TF.SameCoordinates,Original*%
%TF.FileFunction,Copper,L3,Inr*%
%TF.FilePolarity,Positive*%
%FSLAX46Y46*%
G04 Gerber Fmt 4.6, Leading zero omitted, Abs format (unit mm)*
G04 Created by KiCad (PCBNEW 8.0.8) date 2025-01-25 20:20:04*
%MOMM*%
%LPD*%
G01*
G04 APERTURE LIST*
G04 Aperture macros list*
%AMRoundRect*
0 Rectangle with rounded corners*
0 $1 Rounding radius*
0 $2 $3 $4 $5 $6 $7 $8 $9 X,Y pos of 4 corners*
0 Add a 4 corners polygon primitive as box body*
4,1,4,$2,$3,$4,$5,$6,$7,$8,$9,$2,$3,0*
0 Add four circle primitives for the rounded corners*
1,1,$1+$1,$2,$3*
1,1,$1+$1,$4,$5*
1,1,$1+$1,$6,$7*
1,1,$1+$1,$8,$9*
0 Add four rect primitives between the rounded corners*
20,1,$1+$1,$2,$3,$4,$5,0*
20,1,$1+$1,$4,$5,$6,$7,0*
20,1,$1+$1,$6,$7,$8,$9,0*
20,1,$1+$1,$8,$9,$2,$3,0*%
G04 Aperture macros list end*
%TA.AperFunction,ComponentPad*%
%ADD10O,1.000000X2.100000*%
%TD*%
%TA.AperFunction,ComponentPad*%
%ADD11O,1.000000X1.800000*%
%TD*%
%TA.AperFunction,ComponentPad*%
%ADD12RoundRect,0.200000X-0.450000X0.200000X-0.450000X-0.200000X0.450000X-0.200000X0.450000X0.200000X0*%
%TD*%
%TA.AperFunction,ComponentPad*%
%ADD13O,1.300000X0.800000*%
%TD*%
%TA.AperFunction,ComponentPad*%
%ADD14R,1.700000X1.700000*%
%TD*%
%TA.AperFunction,ComponentPad*%
%ADD15O,1.700000X1.700000*%
%TD*%
%TA.AperFunction,ComponentPad*%
%ADD16R,2.250000X2.250000*%
%TD*%
%TA.AperFunction,ComponentPad*%
%ADD17C,2.250000*%
%TD*%
%TA.AperFunction,ViaPad*%
%ADD18C,0.610000*%
%TD*%
%TA.AperFunction,ViaPad*%
%ADD19C,0.457200*%
%TD*%
%TA.AperFunction,Conductor*%
%ADD20C,0.152400*%
%TD*%
G04 APERTURE END LIST*
D10*
%TO.N,GND*%
%TO.C,J3*%
X41320000Y-17605000D03*
D11*
X41320000Y-13425000D03*
D10*
X32680000Y-17605000D03*
D11*
X32680000Y-13425000D03*
%TD*%
D12*
%TO.N,+5V*%
%TO.C,J2*%
X29050000Y-53375000D03*
D13*
%TO.N,GND*%
X29050000Y-54625000D03*
%TO.N,SPI1 TX*%
X29050000Y-55875000D03*
%TO.N,SPI1 RX*%
X29050000Y-57125000D03*
%TO.N,SPI1 CSn*%
X29050000Y-58375000D03*
%TO.N,SPI1 SCK*%
X29050000Y-59625000D03*
%TD*%
D14*
%TO.N,CAN5H*%
%TO.C,J8*%
X60500000Y-48625000D03*
D15*
%TO.N,CAN5L*%
X60500000Y-51165000D03*
%TD*%
D12*
%TO.N,SWCLK*%
%TO.C,J11*%
X29050000Y-45750000D03*
D13*
%TO.N,GND*%
X29050000Y-47000000D03*
%TO.N,SWD*%
X29050000Y-48250000D03*
%TD*%
D16*
%TO.N,Net-(R5-Pad2)*%
%TO.C,SW2*%
X28250000Y-22500000D03*
D17*
%TO.N,GND*%
X34750000Y-22500000D03*
%TD*%
D14*
%TO.N,CAN4H*%
%TO.C,J7*%
X60500000Y-40025000D03*
D15*
%TO.N,CAN4L*%
X60500000Y-42565000D03*
%TD*%
D12*
%TO.N,GND*%
%TO.C,J10*%
X29050000Y-38250000D03*
D13*
%TO.N,TX0*%
X29050000Y-39500000D03*
%TO.N,RX0*%
X29050000Y-40750000D03*
%TD*%
D14*
%TO.N,CAN3H*%
%TO.C,J6*%
X60500000Y-31425000D03*
D15*
%TO.N,CAN3L*%
X60500000Y-33965000D03*
%TD*%
D14*
%TO.N,CAN6H*%
%TO.C,J9*%
X60500000Y-57225000D03*
D15*
%TO.N,CAN6L*%
X60500000Y-59765000D03*
%TD*%
D12*
%TO.N,GND*%
%TO.C,J1*%
X34050000Y-55875000D03*
D13*
%TO.N,ADC 0*%
X34050000Y-57125000D03*
%TO.N,ADC 1*%
X34050000Y-58375000D03*
%TO.N,GPIO 15*%
X34050000Y-59625000D03*
%TD*%
D14*
%TO.N,CAN2H*%
%TO.C,J5*%
X60500000Y-22825000D03*
D15*
%TO.N,CAN2L*%
X60500000Y-25365000D03*
%TD*%
D14*
%TO.N,CAN1H*%
%TO.C,J4*%
X60500000Y-14225000D03*
D15*
%TO.N,CAN1L*%
X60500000Y-16765000D03*
%TD*%
D16*
%TO.N,RUN*%
%TO.C,SW1*%
X39500000Y-53250000D03*
D17*
%TO.N,GND*%
X39500000Y-59750000D03*
%TD*%
D18*
%TO.N,GND*%
X50969058Y-52387858D03*
X50969058Y-44387858D03*
D19*
X40500000Y-27000000D03*
D18*
X48000000Y-43000000D03*
X43500000Y-33045200D03*
X56225000Y-32500000D03*
X56225000Y-50000000D03*
X43000000Y-49000000D03*
X43000000Y-41000000D03*
X56225000Y-24000000D03*
D19*
X33542800Y-43500000D03*
D18*
X48000000Y-51000000D03*
X50969058Y-28387858D03*
X48500000Y-19000000D03*
X43000000Y-57000000D03*
X50928458Y-36418800D03*
D19*
X48500000Y-27000000D03*
D18*
X38000000Y-36000000D03*
X56225000Y-15500000D03*
X56225000Y-41500000D03*
D19*
X40500000Y-45000000D03*
D18*
X29500000Y-16500000D03*
X50969058Y-20387858D03*
X28400000Y-32229559D03*
X56225000Y-58500000D03*
D19*
X48000000Y-59000000D03*
X40704600Y-47500000D03*
D18*
X50969058Y-60387858D03*
X44210100Y-24500000D03*
X48500000Y-35000000D03*
X44197600Y-16027400D03*
%TO.N,+1V1*%
X39000000Y-31000000D03*
X38225000Y-43261282D03*
%TO.N,+3V3*%
X47500000Y-12890600D03*
X32543692Y-34218800D03*
X54655500Y-35425700D03*
X40500000Y-23500000D03*
X47500000Y-53081200D03*
X48000000Y-29215200D03*
X54655500Y-51425700D03*
X47590500Y-45228500D03*
X54655500Y-43425700D03*
D19*
X36943750Y-26443750D03*
D18*
X47500000Y-37215200D03*
X54655500Y-19425700D03*
X38225000Y-46258021D03*
X30450000Y-18651863D03*
X48000000Y-21215200D03*
X54655500Y-27425700D03*
D19*
X40500000Y-34000000D03*
D18*
X54425700Y-59425700D03*
%TO.N,+5V*%
X42500000Y-21000000D03*
X55000000Y-44500000D03*
X54655500Y-20500000D03*
X54655500Y-52500000D03*
X35000000Y-20000000D03*
X28725000Y-14342515D03*
X42776400Y-29000000D03*
X54655500Y-28500000D03*
X42000000Y-61000000D03*
X39400000Y-19400000D03*
X54655500Y-36500000D03*
X53000000Y-60500000D03*
X44101860Y-52423800D03*
X43953060Y-44275000D03*
X44500000Y-36500000D03*
D19*
%TO.N,SWCLK*%
X38000000Y-39500000D03*
%TO.N,SWD*%
X38400000Y-41500000D03*
%TO.N,/QSPI_SS*%
X30000000Y-27500000D03*
X33500000Y-32500000D03*
%TO.N,SPI0 RX*%
X52750000Y-53250000D03*
X52750000Y-13250000D03*
X52750000Y-45250000D03*
X52750000Y-29250000D03*
X34500000Y-36750000D03*
X52750000Y-21250000D03*
X52750000Y-37250000D03*
%TO.N,SPI0 6CS*%
X32000000Y-40000000D03*
X52000000Y-53000000D03*
%TO.N,SPI0 2CS*%
X52000000Y-21000000D03*
X34647693Y-37852307D03*
%TO.N,SPI0 SCK*%
X54074300Y-22000000D03*
X54074300Y-30000000D03*
X54074300Y-46000000D03*
X54074300Y-14000000D03*
X54074300Y-38000000D03*
X34500000Y-35500000D03*
X54074300Y-54000000D03*
%TO.N,SPI0 TX*%
X53500000Y-37500000D03*
X53500000Y-45500000D03*
X53500000Y-29500000D03*
X53500000Y-13500000D03*
X53500000Y-21500000D03*
X32500000Y-36000000D03*
X53500000Y-53500000D03*
%TO.N,SPI0 4CS*%
X52000000Y-37000000D03*
X32500000Y-38400001D03*
%TO.N,SPI0 1CS*%
X52000000Y-13000000D03*
X32500000Y-36799999D03*
%TO.N,SPI0 5CS*%
X52000000Y-45000000D03*
X32000000Y-39000000D03*
%TO.N,SPI0 3CS*%
X52000000Y-29000000D03*
X32501956Y-37600000D03*
%TO.N,Net-(U4-TXCAN)*%
X49750000Y-14250000D03*
X54875000Y-14875000D03*
%TO.N,Net-(U4-RXCAN)*%
X49500000Y-15000000D03*
X50000000Y-21000000D03*
%TO.N,Net-(U5-TXCAN)*%
X54875000Y-22875000D03*
X49750000Y-22250000D03*
%TO.N,Net-(U5-RXCAN)*%
X50000000Y-29000000D03*
X49500000Y-23000000D03*
%TO.N,Net-(U6-RXCAN)*%
X49500000Y-31000000D03*
X50000000Y-37000000D03*
%TO.N,Net-(U6-TXCAN)*%
X49750000Y-30250000D03*
X54875000Y-30875000D03*
%TO.N,Net-(U7-RXCAN)*%
X49500000Y-39000000D03*
X50000000Y-45000000D03*
%TO.N,ADC 1*%
X39500000Y-35500000D03*
%TO.N,Net-(U7-TXCAN)*%
X54875000Y-38875000D03*
X49750000Y-38250000D03*
%TO.N,SPI1 TX*%
X33500000Y-40500000D03*
%TO.N,Net-(U8-RXCAN)*%
X49500000Y-47000000D03*
X50000000Y-53000000D03*
%TO.N,Net-(U8-TXCAN)*%
X54875000Y-46875000D03*
X49750000Y-46250000D03*
%TO.N,Net-(U9-RXCAN)*%
X50000000Y-61000000D03*
X49500000Y-55000000D03*
%TO.N,Net-(U9-TXCAN)*%
X49750000Y-54250000D03*
X54875000Y-54875000D03*
%TO.N,SPI1 SCK*%
X35000000Y-41500000D03*
%TO.N,SPI1 RX*%
X33000000Y-42000000D03*
%TO.N,SPI1 CSn*%
X34000000Y-42000000D03*
%TO.N,ADC 0*%
X39500000Y-36500000D03*
%TO.N,GPIO 15*%
X36465692Y-39619152D03*
%TD*%
D20*
%TO.N,GND*%
X33852400Y-55875000D02*
X33550000Y-55875000D01*
%TO.N,SPI0 RX*%
X39033200Y-34966800D02*
X46966800Y-34966800D01*
X52466800Y-37533200D02*
X52750000Y-37250000D01*
X38581200Y-35418800D02*
X39033200Y-34966800D01*
X38581200Y-36240741D02*
X38581200Y-35418800D01*
X34500000Y-36750000D02*
X38071941Y-36750000D01*
X49533200Y-37533200D02*
X52466800Y-37533200D01*
X38071941Y-36750000D02*
X38581200Y-36240741D01*
X46966800Y-34966800D02*
X49533200Y-37533200D01*
%TO.N,SPI0 SCK*%
X48966800Y-23779141D02*
X48966800Y-22279141D01*
X34500000Y-35500000D02*
X37245941Y-35500000D01*
X52372971Y-21627030D02*
X52779141Y-22033200D01*
X48966800Y-22279141D02*
X49618911Y-21627030D01*
X37245941Y-35500000D02*
X48966800Y-23779141D01*
X52779141Y-22033200D02*
X54041100Y-22033200D01*
X49618911Y-21627030D02*
X52372971Y-21627030D01*
X54041100Y-22033200D02*
X54074300Y-22000000D01*
%TO.N,SPI0 TX*%
X32500000Y-36000000D02*
X32533200Y-36033200D01*
X43381659Y-29796400D02*
X49203600Y-29796400D01*
X49203600Y-29796400D02*
X49466800Y-29533200D01*
X52529141Y-29783200D02*
X53216800Y-29783200D01*
X32533200Y-36033200D02*
X37144859Y-36033200D01*
X52279141Y-29533200D02*
X52529141Y-29783200D01*
X37144859Y-36033200D02*
X43381659Y-29796400D01*
X53216800Y-29783200D02*
X53500000Y-29500000D01*
X49466800Y-29533200D02*
X52279141Y-29533200D01*
%TO.N,Net-(U4-TXCAN)*%
X50375000Y-14875000D02*
X54875000Y-14875000D01*
X49750000Y-14250000D02*
X50375000Y-14875000D01*
%TO.N,Net-(U4-RXCAN)*%
X49500000Y-20500000D02*
X49500000Y-15000000D01*
X50000000Y-21000000D02*
X49500000Y-20500000D01*
%TO.N,Net-(U5-TXCAN)*%
X49750000Y-22250000D02*
X50375000Y-22875000D01*
X50375000Y-22875000D02*
X54875000Y-22875000D01*
%TO.N,Net-(U5-RXCAN)*%
X50000000Y-29000000D02*
X49500000Y-28500000D01*
X49500000Y-28500000D02*
X49500000Y-23000000D01*
%TO.N,Net-(U6-TXCAN)*%
X50375000Y-30875000D02*
X54875000Y-30875000D01*
X49750000Y-30250000D02*
X50375000Y-30875000D01*
%TO.N,Net-(U7-RXCAN)*%
X50000000Y-45000000D02*
X49500000Y-44500000D01*
X49500000Y-44500000D02*
X49500000Y-39000000D01*
%TO.N,ADC 1*%
X37466800Y-39066400D02*
X37466800Y-40123277D01*
X39500000Y-37033200D02*
X37466800Y-39066400D01*
X37466800Y-40123277D02*
X37000000Y-40590077D01*
X40033200Y-36720859D02*
X39720859Y-37033200D01*
X34625000Y-58375000D02*
X34050000Y-58375000D01*
X40033200Y-36033200D02*
X40033200Y-36720859D01*
X37000000Y-40590077D02*
X37000000Y-56000000D01*
X39720859Y-37033200D02*
X39500000Y-37033200D01*
X39500000Y-35500000D02*
X40033200Y-36033200D01*
X39500000Y-35500000D02*
X39463024Y-35500000D01*
X37000000Y-56000000D02*
X34625000Y-58375000D01*
%TO.N,Net-(U7-TXCAN)*%
X50375000Y-38875000D02*
X54875000Y-38875000D01*
X49750000Y-38250000D02*
X50375000Y-38875000D01*
%TO.N,Net-(U8-RXCAN)*%
X50000000Y-53000000D02*
X49500000Y-52500000D01*
X49500000Y-52500000D02*
X49500000Y-47000000D01*
%TO.N,Net-(U8-TXCAN)*%
X49750000Y-46250000D02*
X50375000Y-46875000D01*
X50375000Y-46875000D02*
X54875000Y-46875000D01*
%TO.N,Net-(U9-RXCAN)*%
X49500000Y-60500000D02*
X49500000Y-55000000D01*
X50000000Y-61000000D02*
X49500000Y-60500000D01*
%TO.N,Net-(U9-TXCAN)*%
X50375000Y-54875000D02*
X54875000Y-54875000D01*
X49750000Y-54250000D02*
X50375000Y-54875000D01*
%TO.N,ADC 0*%
X34625000Y-57125000D02*
X34050000Y-57125000D01*
X36998892Y-39001108D02*
X36998892Y-40249935D01*
X36998892Y-40249935D02*
X36758700Y-40490127D01*
X36758700Y-40490127D02*
X36758700Y-54991300D01*
X36758700Y-54991300D02*
X34625000Y-57125000D01*
X39500000Y-36500000D02*
X36998892Y-39001108D01*
%TD*%
%TA.AperFunction,Conductor*%
%TO.N,+3V3*%
G36*
X48842634Y-24821398D02*
G01*
X48898567Y-24863270D01*
X48922984Y-24928734D01*
X48923300Y-24937580D01*
X48923300Y-26200910D01*
X48903615Y-26267949D01*
X48850811Y-26313704D01*
X48781653Y-26323648D01*
X48758346Y-26317952D01*
X48663266Y-26284682D01*
X48663261Y-26284681D01*
X48500004Y-26266287D01*
X48499996Y-26266287D01*
X48336738Y-26284681D01*
X48336734Y-26284682D01*
X48181652Y-26338947D01*
X48042536Y-26426360D01*
X47926360Y-26542536D01*
X47838947Y-26681652D01*
X47784682Y-26836734D01*
X47784681Y-26836738D01*
X47766287Y-26999996D01*
X47766287Y-27000003D01*
X47784681Y-27163261D01*
X47784682Y-27163265D01*
X47838947Y-27318347D01*
X47850503Y-27336738D01*
X47926360Y-27457463D01*
X48042537Y-27573640D01*
X48181654Y-27661053D01*
X48336733Y-27715317D01*
X48336734Y-27715317D01*
X48336738Y-27715318D01*
X48499996Y-27733713D01*
X48500000Y-27733713D01*
X48500004Y-27733713D01*
X48663261Y-27715318D01*
X48663263Y-27715317D01*
X48663267Y-27715317D01*
X48758345Y-27682047D01*
X48828124Y-27678486D01*
X48888751Y-27713214D01*
X48920979Y-27775208D01*
X48923300Y-27799089D01*
X48923300Y-28424076D01*
X48923300Y-28575924D01*
X48951287Y-28680375D01*
X48962602Y-28722600D01*
X48962602Y-28722601D01*
X49038522Y-28854098D01*
X49038527Y-28854104D01*
X49096742Y-28912319D01*
X49130227Y-28973642D01*
X49125243Y-29043334D01*
X49096742Y-29087681D01*
X49001042Y-29183381D01*
X48939719Y-29216866D01*
X48913361Y-29219700D01*
X44641180Y-29219700D01*
X44574141Y-29200015D01*
X44528386Y-29147211D01*
X44518442Y-29078053D01*
X44547467Y-29014497D01*
X44553499Y-29008019D01*
X48711619Y-24849899D01*
X48772942Y-24816414D01*
X48842634Y-24821398D01*
G37*
%TD.AperFunction*%
%TA.AperFunction,Conductor*%
G36*
X32071433Y-12019685D02*
G01*
X32117188Y-12072489D01*
X32127132Y-12141647D01*
X32098107Y-12205203D01*
X32073285Y-12227102D01*
X32042218Y-12247860D01*
X32042214Y-12247863D01*
X31902863Y-12387214D01*
X31902860Y-12387218D01*
X31793371Y-12551079D01*
X31793364Y-12551092D01*
X31717950Y-12733160D01*
X31717947Y-12733170D01*
X31679500Y-12926456D01*
X31679500Y-12926459D01*
X31679500Y-13923541D01*
X31679500Y-13923543D01*
X31679499Y-13923543D01*
X31717947Y-14116829D01*
X31717950Y-14116839D01*
X31793364Y-14298907D01*
X31793371Y-14298920D01*
X31902860Y-14462781D01*
X31902863Y-14462785D01*
X32042214Y-14602136D01*
X32042218Y-14602139D01*
X32206079Y-14711628D01*
X32206092Y-14711635D01*
X32346220Y-14769677D01*
X32388165Y-14787051D01*
X32388169Y-14787051D01*
X32388170Y-14787052D01*
X32581456Y-14825500D01*
X32581459Y-14825500D01*
X32778543Y-14825500D01*
X32908582Y-14799632D01*
X32971835Y-14787051D01*
X33153914Y-14711632D01*
X33317782Y-14602139D01*
X33457139Y-14462782D01*
X33566632Y-14298914D01*
X33642051Y-14116835D01*
X33665291Y-14000000D01*
X33680500Y-13923543D01*
X33680500Y-12926456D01*
X33642052Y-12733170D01*
X33642051Y-12733169D01*
X33642051Y-12733165D01*
X33618522Y-12676360D01*
X33566635Y-12551092D01*
X33566628Y-12551079D01*
X33457139Y-12387218D01*
X33457136Y-12387214D01*
X33317785Y-12247863D01*
X33317781Y-12247860D01*
X33286715Y-12227102D01*
X33241910Y-12173489D01*
X33233203Y-12104164D01*
X33263358Y-12041137D01*
X33322801Y-12004418D01*
X33355606Y-12000000D01*
X40644394Y-12000000D01*
X40711433Y-12019685D01*
X40757188Y-12072489D01*
X40767132Y-12141647D01*
X40738107Y-12205203D01*
X40713285Y-12227102D01*
X40682218Y-12247860D01*
X40682214Y-12247863D01*
X40542863Y-12387214D01*
X40542860Y-12387218D01*
X40433371Y-12551079D01*
X40433364Y-12551092D01*
X40357950Y-12733160D01*
X40357947Y-12733170D01*
X40319500Y-12926456D01*
X40319500Y-12926459D01*
X40319500Y-13923541D01*
X40319500Y-13923543D01*
X40319499Y-13923543D01*
X40357947Y-14116829D01*
X40357950Y-14116839D01*
X40433364Y-14298907D01*
X40433371Y-14298920D01*
X40542860Y-14462781D01*
X40542863Y-14462785D01*
X40682214Y-14602136D01*
X40682218Y-14602139D01*
X40846079Y-14711628D01*
X40846092Y-14711635D01*
X40986220Y-14769677D01*
X41028165Y-14787051D01*
X41028169Y-14787051D01*
X41028170Y-14787052D01*
X41221456Y-14825500D01*
X41221459Y-14825500D01*
X41418543Y-14825500D01*
X41548582Y-14799632D01*
X41611835Y-14787051D01*
X41793914Y-14711632D01*
X41957782Y-14602139D01*
X42097139Y-14462782D01*
X42206632Y-14298914D01*
X42282051Y-14116835D01*
X42305291Y-14000000D01*
X42320500Y-13923543D01*
X42320500Y-12926456D01*
X42282052Y-12733170D01*
X42282051Y-12733169D01*
X42282051Y-12733165D01*
X42258522Y-12676360D01*
X42206635Y-12551092D01*
X42206628Y-12551079D01*
X42097139Y-12387218D01*
X42097136Y-12387214D01*
X41957785Y-12247863D01*
X41957781Y-12247860D01*
X41926715Y-12227102D01*
X41881910Y-12173489D01*
X41873203Y-12104164D01*
X41903358Y-12041137D01*
X41962801Y-12004418D01*
X41995606Y-12000000D01*
X61876000Y-12000000D01*
X61943039Y-12019685D01*
X61988794Y-12072489D01*
X62000000Y-12124000D01*
X62000000Y-13035565D01*
X61980315Y-13102604D01*
X61927511Y-13148359D01*
X61858353Y-13158303D01*
X61794797Y-13129278D01*
X61776734Y-13109876D01*
X61707547Y-13017455D01*
X61707544Y-13017452D01*
X61592335Y-12931206D01*
X61592328Y-12931202D01*
X61457482Y-12880908D01*
X61457483Y-12880908D01*
X61397883Y-12874501D01*
X61397881Y-12874500D01*
X61397873Y-12874500D01*
X61397864Y-12874500D01*
X59602129Y-12874500D01*
X59602123Y-12874501D01*
X59542516Y-12880908D01*
X59407671Y-12931202D01*
X59407664Y-12931206D01*
X59292455Y-13017452D01*
X59292452Y-13017455D01*
X59206206Y-13132664D01*
X59206202Y-13132671D01*
X59155908Y-13267517D01*
X59149501Y-13327116D01*
X59149500Y-13327135D01*
X59149500Y-15122870D01*
X59149501Y-15122876D01*
X59155908Y-15182483D01*
X59206202Y-15317328D01*
X59206206Y-15317335D01*
X59292452Y-15432544D01*
X59292455Y-15432547D01*
X59407664Y-15518793D01*
X59407671Y-15518797D01*
X59539081Y-15567810D01*
X59595015Y-15609681D01*
X59619432Y-15675145D01*
X59604580Y-15743418D01*
X59583430Y-15771673D01*
X59461503Y-15893600D01*
X59325965Y-16087169D01*
X59325964Y-16087171D01*
X59226098Y-16301335D01*
X59226094Y-16301344D01*
X59164938Y-16529586D01*
X59164936Y-16529596D01*
X59144341Y-16764999D01*
X59144341Y-16765000D01*
X59164936Y-17000403D01*
X59164938Y-17000413D01*
X59226094Y-17228655D01*
X59226096Y-17228659D01*
X59226097Y-17228663D01*
X59325965Y-17442830D01*
X59325967Y-17442834D01*
X59414111Y-17568715D01*
X59461505Y-17636401D01*
X59628599Y-17803495D01*
X59725384Y-17871265D01*
X59822165Y-17939032D01*
X59822167Y-17939033D01*
X59822170Y-17939035D01*
X60036337Y-18038903D01*
X60264592Y-18100063D01*
X60452918Y-18116539D01*
X60499999Y-18120659D01*
X60500000Y-18120659D01*
X60500001Y-18120659D01*
X60539234Y-18117226D01*
X60735408Y-18100063D01*
X60963663Y-18038903D01*
X61177830Y-17939035D01*
X61371401Y-17803495D01*
X61538495Y-17636401D01*
X61674035Y-17442830D01*
X61763619Y-17250716D01*
X61809790Y-17198279D01*
X61876984Y-17179127D01*
X61943865Y-17199343D01*
X61989199Y-17252508D01*
X62000000Y-17303123D01*
X62000000Y-21635565D01*
X61980315Y-21702604D01*
X61927511Y-21748359D01*
X61858353Y-21758303D01*
X61794797Y-21729278D01*
X61776734Y-21709876D01*
X61707547Y-21617455D01*
X61707544Y-21617452D01*
X61592335Y-21531206D01*
X61592328Y-21531202D01*
X61457482Y-21480908D01*
X61457483Y-21480908D01*
X61397883Y-21474501D01*
X61397881Y-21474500D01*
X61397873Y-21474500D01*
X61397864Y-21474500D01*
X59602129Y-21474500D01*
X59602123Y-21474501D01*
X59542516Y-21480908D01*
X59407671Y-21531202D01*
X59407664Y-21531206D01*
X59292455Y-21617452D01*
X59292452Y-21617455D01*
X59206206Y-21732664D01*
X59206202Y-21732671D01*
X59155908Y-21867517D01*
X59149501Y-21927116D01*
X59149500Y-21927135D01*
X59149500Y-23722870D01*
X59149501Y-23722876D01*
X59155908Y-23782483D01*
X59206202Y-23917328D01*
X59206206Y-23917335D01*
X59292452Y-24032544D01*
X59292455Y-24032547D01*
X59407664Y-24118793D01*
X59407671Y-24118797D01*
X59539081Y-24167810D01*
X59595015Y-24209681D01*
X59619432Y-24275145D01*
X59604580Y-24343418D01*
X59583430Y-24371673D01*
X59461503Y-24493600D01*
X59325965Y-24687170D01*
X59226098Y-24901335D01*
X59226094Y-24901344D01*
X59164938Y-25129586D01*
X59164936Y-25129596D01*
X59144341Y-25364999D01*
X59144341Y-25365000D01*
X59164936Y-25600403D01*
X59164938Y-25600413D01*
X59226094Y-25828655D01*
X59226096Y-25828659D01*
X59226097Y-25828663D01*
X59325965Y-26042830D01*
X59325967Y-26042834D01*
X59434281Y-26197521D01*
X59461505Y-26236401D01*
X59628599Y-26403495D01*
X59630596Y-26404893D01*
X59822165Y-26539032D01*
X59822167Y-26539033D01*
X59822170Y-26539035D01*
X60036337Y-26638903D01*
X60264592Y-26700063D01*
X60452918Y-26716539D01*
X60499999Y-26720659D01*
X60500000Y-26720659D01*
X60500001Y-26720659D01*
X60539234Y-26717226D01*
X60735408Y-26700063D01*
X60963663Y-26638903D01*
X61177830Y-26539035D01*
X61371401Y-26403495D01*
X61538495Y-26236401D01*
X61674035Y-26042830D01*
X61763619Y-25850716D01*
X61809790Y-25798279D01*
X61876984Y-25779127D01*
X61943865Y-25799343D01*
X61989199Y-25852508D01*
X62000000Y-25903123D01*
X62000000Y-30235565D01*
X61980315Y-30302604D01*
X61927511Y-30348359D01*
X61858353Y-30358303D01*
X61794797Y-30329278D01*
X61776734Y-30309876D01*
X61707547Y-30217455D01*
X61707544Y-30217452D01*
X61592335Y-30131206D01*
X61592328Y-30131202D01*
X61457482Y-30080908D01*
X61457483Y-30080908D01*
X61397883Y-30074501D01*
X61397881Y-30074500D01*
X61397873Y-30074500D01*
X61397864Y-30074500D01*
X59602129Y-30074500D01*
X59602123Y-30074501D01*
X59542516Y-30080908D01*
X59407671Y-30131202D01*
X59407664Y-30131206D01*
X59292455Y-30217452D01*
X59292452Y-30217455D01*
X59206206Y-30332664D01*
X59206202Y-30332671D01*
X59155908Y-30467517D01*
X59149501Y-30527116D01*
X59149500Y-30527135D01*
X59149500Y-32322870D01*
X59149501Y-32322876D01*
X59155908Y-32382483D01*
X59206202Y-32517328D01*
X59206206Y-32517335D01*
X59292452Y-32632544D01*
X59292455Y-32632547D01*
X59407664Y-32718793D01*
X59407671Y-32718797D01*
X59539081Y-32767810D01*
X59595015Y-32809681D01*
X59619432Y-32875145D01*
X59604580Y-32943418D01*
X59583430Y-32971673D01*
X59461503Y-33093600D01*
X59325965Y-33287169D01*
X59325964Y-33287171D01*
X59226098Y-33501335D01*
X59226094Y-33501344D01*
X59164938Y-33729586D01*
X59164936Y-33729596D01*
X59144341Y-33964999D01*
X59144341Y-33965000D01*
X59164936Y-34200403D01*
X59164938Y-34200413D01*
X59226094Y-34428655D01*
X59226096Y-34428659D01*
X59226097Y-34428663D01*
X59261846Y-34505327D01*
X59325965Y-34642830D01*
X59325967Y-34642834D01*
X59425290Y-34784681D01*
X59461505Y-34836401D01*
X59628599Y-35003495D01*
X59684357Y-35042537D01*
X59822165Y-35139032D01*
X59822167Y-35139033D01*
X59822170Y-35139035D01*
X60036337Y-35238903D01*
X60264592Y-35300063D01*
X60452918Y-35316539D01*
X60499999Y-35320659D01*
X60500000Y-35320659D01*
X60500001Y-35320659D01*
X60539234Y-35317226D01*
X60735408Y-35300063D01*
X60963663Y-35238903D01*
X61177830Y-35139035D01*
X61371401Y-35003495D01*
X61538495Y-34836401D01*
X61674035Y-34642830D01*
X61763619Y-34450716D01*
X61809790Y-34398279D01*
X61876984Y-34379127D01*
X61943865Y-34399343D01*
X61989199Y-34452508D01*
X62000000Y-34503123D01*
X62000000Y-38835565D01*
X61980315Y-38902604D01*
X61927511Y-38948359D01*
X61858353Y-38958303D01*
X61794797Y-38929278D01*
X61776734Y-38909876D01*
X61707547Y-38817455D01*
X61707544Y-38817452D01*
X61592335Y-38731206D01*
X61592328Y-38731202D01*
X61457482Y-38680908D01*
X61457483Y-38680908D01*
X61397883Y-38674501D01*
X61397881Y-38674500D01*
X61397873Y-38674500D01*
X61397864Y-38674500D01*
X59602129Y-38674500D01*
X59602123Y-38674501D01*
X59542516Y-38680908D01*
X59407671Y-38731202D01*
X59407664Y-38731206D01*
X59292455Y-38817452D01*
X59292452Y-38817455D01*
X59206206Y-38932664D01*
X59206202Y-38932671D01*
X59155908Y-39067517D01*
X59149501Y-39127116D01*
X59149500Y-39127135D01*
X59149500Y-40922870D01*
X59149501Y-40922876D01*
X59155908Y-40982483D01*
X59206202Y-41117328D01*
X59206206Y-41117335D01*
X59292452Y-41232544D01*
X59292455Y-41232547D01*
X59407664Y-41318793D01*
X59407671Y-41318797D01*
X59539081Y-41367810D01*
X59595015Y-41409681D01*
X59619432Y-41475145D01*
X59604580Y-41543418D01*
X59583430Y-41571673D01*
X59461503Y-41693600D01*
X59325965Y-41887169D01*
X59325964Y-41887171D01*
X59226098Y-42101335D01*
X59226094Y-42101344D01*
X59164938Y-42329586D01*
X59164936Y-42329596D01*
X59144341Y-42564999D01*
X59144341Y-42565000D01*
X59164936Y-42800403D01*
X59164938Y-42800413D01*
X59226094Y-43028655D01*
X59226096Y-43028659D01*
X59226097Y-43028663D01*
X59296839Y-43180369D01*
X59325965Y-43242830D01*
X59325967Y-43242834D01*
X59391717Y-43336734D01*
X59461505Y-43436401D01*
X59628599Y-43603495D01*
X59682519Y-43641250D01*
X59822165Y-43739032D01*
X59822167Y-43739033D01*
X59822170Y-43739035D01*
X60036337Y-43838903D01*
X60264592Y-43900063D01*
X60452918Y-43916539D01*
X60499999Y-43920659D01*
X60500000Y-43920659D01*
X60500001Y-43920659D01*
X60544005Y-43916809D01*
X60735408Y-43900063D01*
X60963663Y-43838903D01*
X61177830Y-43739035D01*
X61371401Y-43603495D01*
X61538495Y-43436401D01*
X61674035Y-43242830D01*
X61763619Y-43050716D01*
X61809790Y-42998279D01*
X61876984Y-42979127D01*
X61943865Y-42999343D01*
X61989199Y-43052508D01*
X62000000Y-43103123D01*
X62000000Y-47435565D01*
X61980315Y-47502604D01*
X61927511Y-47548359D01*
X61858353Y-47558303D01*
X61794797Y-47529278D01*
X61776734Y-47509876D01*
X61707547Y-47417455D01*
X61707544Y-47417452D01*
X61592335Y-47331206D01*
X61592328Y-47331202D01*
X61457482Y-47280908D01*
X61457483Y-47280908D01*
X61397883Y-47274501D01*
X61397881Y-47274500D01*
X61397873Y-47274500D01*
X61397864Y-47274500D01*
X59602129Y-47274500D01*
X59602123Y-47274501D01*
X59542516Y-47280908D01*
X59407671Y-47331202D01*
X59407664Y-47331206D01*
X59292455Y-47417452D01*
X59292452Y-47417455D01*
X59206206Y-47532664D01*
X59206202Y-47532671D01*
X59155908Y-47667517D01*
X59149501Y-47727116D01*
X59149500Y-47727135D01*
X59149500Y-49522870D01*
X59149501Y-49522876D01*
X59155908Y-49582483D01*
X59206202Y-49717328D01*
X59206206Y-49717335D01*
X59292452Y-49832544D01*
X59292455Y-49832547D01*
X59407664Y-49918793D01*
X59407671Y-49918797D01*
X59539081Y-49967810D01*
X59595015Y-50009681D01*
X59619432Y-50075145D01*
X59604580Y-50143418D01*
X59583430Y-50171673D01*
X59461503Y-50293600D01*
X59325965Y-50487169D01*
X59325964Y-50487171D01*
X59226098Y-50701335D01*
X59226094Y-50701344D01*
X59164938Y-50929586D01*
X59164936Y-50929596D01*
X59144341Y-51164999D01*
X59144341Y-51165000D01*
X59164936Y-51400403D01*
X59164938Y-51400413D01*
X59226094Y-51628655D01*
X59226096Y-51628659D01*
X59226097Y-51628663D01*
X59325965Y-51842830D01*
X59325967Y-51842834D01*
X59357400Y-51887724D01*
X59461505Y-52036401D01*
X59628599Y-52203495D01*
X59685625Y-52243425D01*
X59822165Y-52339032D01*
X59822167Y-52339033D01*
X59822170Y-52339035D01*
X60036337Y-52438903D01*
X60036343Y-52438904D01*
X60036344Y-52438905D01*
X60091285Y-52453626D01*
X60264592Y-52500063D01*
X60450029Y-52516287D01*
X60499999Y-52520659D01*
X60500000Y-52520659D01*
X60500001Y-52520659D01*
X60549971Y-52516287D01*
X60735408Y-52500063D01*
X60963663Y-52438903D01*
X61177830Y-52339035D01*
X61371401Y-52203495D01*
X61538495Y-52036401D01*
X61674035Y-51842830D01*
X61763619Y-51650716D01*
X61809790Y-51598279D01*
X61876984Y-51579127D01*
X61943865Y-51599343D01*
X61989199Y-51652508D01*
X62000000Y-51703123D01*
X62000000Y-56035565D01*
X61980315Y-56102604D01*
X61927511Y-56148359D01*
X61858353Y-56158303D01*
X61794797Y-56129278D01*
X61776734Y-56109876D01*
X61707547Y-56017455D01*
X61707544Y-56017452D01*
X61592335Y-55931206D01*
X61592328Y-55931202D01*
X61457482Y-55880908D01*
X61457483Y-55880908D01*
X61397883Y-55874501D01*
X61397881Y-55874500D01*
X61397873Y-55874500D01*
X61397864Y-55874500D01*
X59602129Y-55874500D01*
X59602123Y-55874501D01*
X59542516Y-55880908D01*
X59407671Y-55931202D01*
X59407664Y-55931206D01*
X59292455Y-56017452D01*
X59292452Y-56017455D01*
X59206206Y-56132664D01*
X59206202Y-56132671D01*
X59155908Y-56267517D01*
X59149501Y-56327116D01*
X59149500Y-56327135D01*
X59149500Y-58122870D01*
X59149501Y-58122876D01*
X59155908Y-58182483D01*
X59206202Y-58317328D01*
X59206206Y-58317335D01*
X59292452Y-58432544D01*
X59292455Y-58432547D01*
X59407664Y-58518793D01*
X59407671Y-58518797D01*
X59539081Y-58567810D01*
X59595015Y-58609681D01*
X59619432Y-58675145D01*
X59604580Y-58743418D01*
X59583430Y-58771673D01*
X59461503Y-58893600D01*
X59325965Y-59087169D01*
X59325964Y-59087171D01*
X59226098Y-59301335D01*
X59226094Y-59301344D01*
X59164938Y-59529586D01*
X59164936Y-59529596D01*
X59144341Y-59764999D01*
X59144341Y-59765000D01*
X59164936Y-60000403D01*
X59164938Y-60000413D01*
X59226094Y-60228655D01*
X59226096Y-60228659D01*
X59226097Y-60228663D01*
X59316722Y-60423009D01*
X59325965Y-60442830D01*
X59325967Y-60442834D01*
X59434281Y-60597521D01*
X59461505Y-60636401D01*
X59628599Y-60803495D01*
X59700868Y-60854098D01*
X59822165Y-60939032D01*
X59822167Y-60939033D01*
X59822170Y-60939035D01*
X60036337Y-61038903D01*
X60264592Y-61100063D01*
X60452918Y-61116539D01*
X60499999Y-61120659D01*
X60500000Y-61120659D01*
X60500001Y-61120659D01*
X60539234Y-61117226D01*
X60735408Y-61100063D01*
X60963663Y-61038903D01*
X61177830Y-60939035D01*
X61371401Y-60803495D01*
X61538495Y-60636401D01*
X61674035Y-60442830D01*
X61763619Y-60250716D01*
X61809790Y-60198279D01*
X61876984Y-60179127D01*
X61943865Y-60199343D01*
X61989199Y-60252508D01*
X62000000Y-60303123D01*
X62000000Y-61876000D01*
X61980315Y-61943039D01*
X61927511Y-61988794D01*
X61876000Y-62000000D01*
X42310826Y-62000000D01*
X42243787Y-61980315D01*
X42198032Y-61927511D01*
X42188088Y-61858353D01*
X42217113Y-61794797D01*
X42269871Y-61758958D01*
X42272991Y-61757865D01*
X42351705Y-61730323D01*
X42505399Y-61633750D01*
X42633750Y-61505399D01*
X42730323Y-61351705D01*
X42790274Y-61180375D01*
X42793373Y-61152870D01*
X42810597Y-61000003D01*
X42810597Y-60999996D01*
X42790275Y-60819630D01*
X42790274Y-60819625D01*
X42730322Y-60648293D01*
X42633750Y-60494601D01*
X42505398Y-60366249D01*
X42351706Y-60269677D01*
X42180374Y-60209725D01*
X42180369Y-60209724D01*
X42000004Y-60189403D01*
X41999996Y-60189403D01*
X41819630Y-60209724D01*
X41819625Y-60209725D01*
X41648293Y-60269677D01*
X41494601Y-60366249D01*
X41366249Y-60494601D01*
X41269677Y-60648293D01*
X41209725Y-60819625D01*
X41209724Y-60819630D01*
X41189403Y-60999996D01*
X41189403Y-61000003D01*
X41209724Y-61180369D01*
X41209725Y-61180374D01*
X41269677Y-61351706D01*
X41366249Y-61505398D01*
X41494601Y-61633750D01*
X41624414Y-61715318D01*
X41648295Y-61730323D01*
X41723657Y-61756693D01*
X41730129Y-61758958D01*
X41786905Y-61799680D01*
X41812652Y-61864633D01*
X41799196Y-61933195D01*
X41750808Y-61983597D01*
X41689174Y-62000000D01*
X27124000Y-62000000D01*
X27056961Y-61980315D01*
X27011206Y-61927511D01*
X27000000Y-61876000D01*
X27000000Y-53118386D01*
X27899500Y-53118386D01*
X27899500Y-53631613D01*
X27905913Y-53702192D01*
X27956522Y-53864606D01*
X28043281Y-54008122D01*
X28061117Y-54075677D01*
X28040267Y-54141162D01*
X28001989Y-54198449D01*
X28001983Y-54198460D01*
X27934106Y-54362332D01*
X27934103Y-54362341D01*
X27899500Y-54536304D01*
X27899500Y-54713695D01*
X27934103Y-54887658D01*
X27934106Y-54887667D01*
X28001983Y-55051540D01*
X28001990Y-55051553D01*
X28088557Y-55181109D01*
X28109435Y-55247787D01*
X28090950Y-55315167D01*
X28088557Y-55318891D01*
X28001990Y-55448446D01*
X28001983Y-55448459D01*
X27934106Y-55612332D01*
X27934103Y-55612341D01*
X27899500Y-55786304D01*
X27899500Y-55963695D01*
X27934103Y-56137658D01*
X27934106Y-56137667D01*
X28001983Y-56301540D01*
X28001990Y-56301553D01*
X28088557Y-56431109D01*
X28109435Y-56497787D01*
X28090950Y-56565167D01*
X28088557Y-56568891D01*
X28001990Y-56698446D01*
X28001983Y-56698459D01*
X27934106Y-56862332D01*
X27934103Y-56862341D01*
X27899500Y-57036304D01*
X27899500Y-57213695D01*
X27934103Y-57387658D01*
X27934106Y-57387667D01*
X28001983Y-57551540D01*
X28001990Y-57551553D01*
X28088557Y-57681109D01*
X28109435Y-57747787D01*
X28090950Y-57815167D01*
X28088557Y-57818891D01*
X28001990Y-57948446D01*
X28001983Y-57948459D01*
X27934106Y-58112332D01*
X27934103Y-58112341D01*
X27899500Y-58286304D01*
X27899500Y-58463695D01*
X27934103Y-58637658D01*
X27934106Y-58637667D01*
X28001983Y-58801540D01*
X28001990Y-58801553D01*
X28088557Y-58931109D01*
X28109435Y-58997787D01*
X28090950Y-59065167D01*
X28088557Y-59068891D01*
X28001990Y-59198446D01*
X28001983Y-59198459D01*
X27934106Y-59362332D01*
X27934103Y-59362341D01*
X27899500Y-59536304D01*
X27899500Y-59713695D01*
X27934103Y-59887658D01*
X27934106Y-59887667D01*
X28001983Y-60051540D01*
X28001990Y-60051553D01*
X28100535Y-60199034D01*
X28100538Y-60199038D01*
X28225961Y-60324461D01*
X28225965Y-60324464D01*
X28373446Y-60423009D01*
X28373459Y-60423016D01*
X28496363Y-60473923D01*
X28537334Y-60490894D01*
X28537336Y-60490894D01*
X28537341Y-60490896D01*
X28711304Y-60525499D01*
X28711307Y-60525500D01*
X28711309Y-60525500D01*
X29388693Y-60525500D01*
X29388694Y-60525499D01*
X29446682Y-60513964D01*
X29562658Y-60490896D01*
X29562661Y-60490894D01*
X29562666Y-60490894D01*
X29726547Y-60423013D01*
X29874035Y-60324464D01*
X29999464Y-60199035D01*
X30098013Y-60051547D01*
X30165894Y-59887666D01*
X30166930Y-59882462D01*
X30190294Y-59764999D01*
X30200500Y-59713691D01*
X30200500Y-59536309D01*
X30200500Y-59536306D01*
X30200499Y-59536304D01*
X30165896Y-59362341D01*
X30165893Y-59362332D01*
X30098016Y-59198459D01*
X30098014Y-59198455D01*
X30098013Y-59198453D01*
X30011442Y-59068891D01*
X29990564Y-59002214D01*
X30009048Y-58934834D01*
X30011442Y-58931109D01*
X30036505Y-58893599D01*
X30098013Y-58801547D01*
X30100720Y-58795013D01*
X30111768Y-58768339D01*
X30165894Y-58637666D01*
X30173975Y-58597044D01*
X30200499Y-58463695D01*
X30200500Y-58463693D01*
X30200500Y-58286306D01*
X30200499Y-58286304D01*
X30165896Y-58112341D01*
X30165893Y-58112332D01*
X30098016Y-57948459D01*
X30098014Y-57948455D01*
X30098013Y-57948453D01*
X30011442Y-57818891D01*
X29990564Y-57752214D01*
X30009048Y-57684834D01*
X30011442Y-57681109D01*
X30043086Y-57633750D01*
X30098013Y-57551547D01*
X30165894Y-57387666D01*
X30200500Y-57213691D01*
X30200500Y-57036309D01*
X30200500Y-57036306D01*
X30200499Y-57036304D01*
X30165896Y-56862341D01*
X30165893Y-56862332D01*
X30098016Y-56698459D01*
X30098014Y-56698455D01*
X30098013Y-56698453D01*
X30011442Y-56568891D01*
X29990564Y-56502214D01*
X30009048Y-56434834D01*
X30011442Y-56431109D01*
X30027352Y-56407296D01*
X30098013Y-56301547D01*
X30165894Y-56137666D01*
X30167098Y-56131616D01*
X30200499Y-55963695D01*
X30200500Y-55963693D01*
X30200500Y-55786306D01*
X30200499Y-55786304D01*
X30165896Y-55612341D01*
X30165893Y-55612332D01*
X30098016Y-55448459D01*
X30098014Y-55448455D01*
X30098013Y-55448453D01*
X30055877Y-55385393D01*
X30011442Y-55318891D01*
X29990564Y-55252214D01*
X30009048Y-55184834D01*
X30011442Y-55181109D01*
X30027352Y-55157296D01*
X30098013Y-55051547D01*
X30165894Y-54887666D01*
X30168315Y-54875499D01*
X30200499Y-54713695D01*
X30200500Y-54713693D01*
X30200500Y-54536306D01*
X30200499Y-54536304D01*
X30165896Y-54362341D01*
X30165893Y-54362332D01*
X30098015Y-54198457D01*
X30098011Y-54198450D01*
X30059733Y-54141162D01*
X30038855Y-54074485D01*
X30056717Y-54008125D01*
X30143478Y-53864606D01*
X30194086Y-53702196D01*
X30200500Y-53631616D01*
X30200500Y-53118384D01*
X30194086Y-53047804D01*
X30143478Y-52885394D01*
X30055472Y-52739815D01*
X30055470Y-52739813D01*
X30055469Y-52739811D01*
X29935188Y-52619530D01*
X29909786Y-52604174D01*
X29789606Y-52531522D01*
X29627196Y-52480914D01*
X29627194Y-52480913D01*
X29627192Y-52480913D01*
X29577778Y-52476423D01*
X29556616Y-52474500D01*
X28543384Y-52474500D01*
X28524145Y-52476248D01*
X28472807Y-52480913D01*
X28310393Y-52531522D01*
X28164811Y-52619530D01*
X28044530Y-52739811D01*
X27956522Y-52885393D01*
X27905913Y-53047807D01*
X27899500Y-53118386D01*
X27000000Y-53118386D01*
X27000000Y-52000000D01*
X33247474Y-52000000D01*
X33267602Y-52223643D01*
X33327341Y-52440106D01*
X33424769Y-52642417D01*
X33424771Y-52642421D01*
X33556753Y-52824079D01*
X33556754Y-52824081D01*
X33556757Y-52824084D01*
X33556758Y-52824085D01*
X33719063Y-52979264D01*
X33906467Y-53102969D01*
X34112948Y-53191223D01*
X34331869Y-53241190D01*
X34556194Y-53251265D01*
X34778713Y-53221123D01*
X34992274Y-53151732D01*
X35190013Y-53045325D01*
X35365574Y-52905319D01*
X35513315Y-52736216D01*
X35628487Y-52543451D01*
X35707389Y-52333218D01*
X35747484Y-52112276D01*
X35750000Y-52000000D01*
X35747484Y-51887724D01*
X35707389Y-51666782D01*
X35628487Y-51456549D01*
X35628483Y-51456543D01*
X35628483Y-51456541D01*
X35563276Y-51347404D01*
X35513315Y-51263784D01*
X35365574Y-51094681D01*
X35365572Y-51094680D01*
X35365571Y-51094678D01*
X35190014Y-50954676D01*
X35190013Y-50954675D01*
X35082892Y-50897031D01*
X34992275Y-50848268D01*
X34778715Y-50778877D01*
X34704540Y-50768829D01*
X34556194Y-50748735D01*
X34556190Y-50748735D01*
X34331874Y-50758809D01*
X34331863Y-50758811D01*
X34112958Y-50808774D01*
X34112951Y-50808776D01*
X34112948Y-50808777D01*
X34020554Y-50848268D01*
X33906466Y-50897031D01*
X33819139Y-50954676D01*
X33719063Y-51020736D01*
X33719062Y-51020737D01*
X33556754Y-51175918D01*
X33556753Y-51175920D01*
X33424771Y-51357578D01*
X33424769Y-51357582D01*
X33327341Y-51559893D01*
X33267602Y-51776356D01*
X33247474Y-52000000D01*
X27000000Y-52000000D01*
X27000000Y-45493386D01*
X27899500Y-45493386D01*
X27899500Y-46006613D01*
X27905913Y-46077192D01*
X27905913Y-46077194D01*
X27905914Y-46077196D01*
X27948953Y-46215317D01*
X27956522Y-46239606D01*
X28043281Y-46383122D01*
X28061117Y-46450677D01*
X28040267Y-46516162D01*
X28001989Y-46573449D01*
X28001983Y-46573460D01*
X27934106Y-46737332D01*
X27934103Y-46737341D01*
X27899500Y-46911304D01*
X27899500Y-47088695D01*
X27934103Y-47262658D01*
X27934106Y-47262667D01*
X28001983Y-47426540D01*
X28001990Y-47426553D01*
X28088557Y-47556109D01*
X28109435Y-47622787D01*
X28090950Y-47690167D01*
X28088557Y-47693891D01*
X28001990Y-47823446D01*
X28001983Y-47823459D01*
X27934106Y-47987332D01*
X27934103Y-47987341D01*
X27899500Y-48161304D01*
X27899500Y-48338695D01*
X27934103Y-48512658D01*
X27934106Y-48512667D01*
X28001983Y-48676540D01*
X28001990Y-48676553D01*
X28100535Y-48824034D01*
X28100538Y-48824038D01*
X28225961Y-48949461D01*
X28225965Y-48949464D01*
X28373446Y-49048009D01*
X28373459Y-49048016D01*
X28496363Y-49098923D01*
X28537334Y-49115894D01*
X28537336Y-49115894D01*
X28537341Y-49115896D01*
X28711304Y-49150499D01*
X28711307Y-49150500D01*
X28711309Y-49150500D01*
X29388693Y-49150500D01*
X29388694Y-49150499D01*
X29446682Y-49138964D01*
X29562658Y-49115896D01*
X29562661Y-49115894D01*
X29562666Y-49115894D01*
X29726547Y-49048013D01*
X29874035Y-48949464D01*
X29999464Y-48824035D01*
X30098013Y-48676547D01*
X30165894Y-48512666D01*
X30169488Y-48494601D01*
X30200499Y-48338695D01*
X30200500Y-48338693D01*
X30200500Y-48161306D01*
X30200499Y-48161304D01*
X30165896Y-47987341D01*
X30165893Y-47987332D01*
X30098016Y-47823459D01*
X30098014Y-47823455D01*
X30098013Y-47823453D01*
X30011442Y-47693891D01*
X29990564Y-47627214D01*
X30009048Y-47559834D01*
X30011442Y-47556109D01*
X30048933Y-47500000D01*
X30098013Y-47426547D01*
X30165894Y-47262666D01*
X30179683Y-47193347D01*
X30200499Y-47088695D01*
X30200500Y-47088693D01*
X30200500Y-46911306D01*
X30200499Y-46911304D01*
X30165896Y-46737341D01*
X30165893Y-46737332D01*
X30098015Y-46573457D01*
X30098011Y-46573450D01*
X30059733Y-46516162D01*
X30038855Y-46449485D01*
X30056717Y-46383125D01*
X30143478Y-46239606D01*
X30194086Y-46077196D01*
X30200500Y-46006616D01*
X30200500Y-45493384D01*
X30194086Y-45422804D01*
X30143478Y-45260394D01*
X30055472Y-45114815D01*
X30055470Y-45114813D01*
X30055469Y-45114811D01*
X29935188Y-44994530D01*
X29789606Y-44906522D01*
X29627196Y-44855914D01*
X29627194Y-44855913D01*
X29627192Y-44855913D01*
X29577778Y-44851423D01*
X29556616Y-44849500D01*
X28543384Y-44849500D01*
X28524145Y-44851248D01*
X28472807Y-44855913D01*
X28310393Y-44906522D01*
X28164811Y-44994530D01*
X28044530Y-45114811D01*
X27956522Y-45260393D01*
X27905913Y-45422807D01*
X27899500Y-45493386D01*
X27000000Y-45493386D01*
X27000000Y-37993386D01*
X27899500Y-37993386D01*
X27899500Y-38506613D01*
X27905913Y-38577192D01*
X27956522Y-38739606D01*
X28043281Y-38883122D01*
X28061117Y-38950677D01*
X28040267Y-39016162D01*
X28001989Y-39073449D01*
X28001983Y-39073460D01*
X27934106Y-39237332D01*
X27934103Y-39237341D01*
X27899500Y-39411304D01*
X27899500Y-39588695D01*
X27934103Y-39762658D01*
X27934106Y-39762667D01*
X28001983Y-39926540D01*
X28001990Y-39926553D01*
X28088557Y-40056109D01*
X28109435Y-40122787D01*
X28090950Y-40190167D01*
X28088557Y-40193891D01*
X28001990Y-40323446D01*
X28001983Y-40323459D01*
X27934106Y-40487332D01*
X27934103Y-40487341D01*
X27899500Y-40661304D01*
X27899500Y-40838695D01*
X27934103Y-41012658D01*
X27934106Y-41012667D01*
X28001983Y-41176540D01*
X28001990Y-41176553D01*
X28100535Y-41324034D01*
X28100538Y-41324038D01*
X28225961Y-41449461D01*
X28225965Y-41449464D01*
X28373446Y-41548009D01*
X28373459Y-41548016D01*
X28430576Y-41571674D01*
X28537334Y-41615894D01*
X28537336Y-41615894D01*
X28537341Y-41615896D01*
X28711304Y-41650499D01*
X28711307Y-41650500D01*
X28711309Y-41650500D01*
X29388693Y-41650500D01*
X29388694Y-41650499D01*
X29446682Y-41638964D01*
X29562658Y-41615896D01*
X29562661Y-41615894D01*
X29562666Y-41615894D01*
X29726547Y-41548013D01*
X29874035Y-41449464D01*
X29999464Y-41324035D01*
X30098013Y-41176547D01*
X30165894Y-41012666D01*
X30168414Y-41000000D01*
X30200499Y-40838695D01*
X30200500Y-40838693D01*
X30200500Y-40661306D01*
X30200499Y-40661304D01*
X30165896Y-40487341D01*
X30165893Y-40487332D01*
X30161770Y-40477379D01*
X30147200Y-40442202D01*
X30098016Y-40323459D01*
X30098014Y-40323455D01*
X30098013Y-40323453D01*
X30062081Y-40269677D01*
X30011442Y-40193891D01*
X29990564Y-40127214D01*
X30009048Y-40059834D01*
X30011442Y-40056109D01*
X30048933Y-40000000D01*
X30098013Y-39926547D01*
X30098091Y-39926360D01*
X30107958Y-39902535D01*
X30165894Y-39762666D01*
X30182009Y-39681654D01*
X30200176Y-39590318D01*
X30200500Y-39588691D01*
X30200500Y-39411309D01*
X30200500Y-39411306D01*
X30200499Y-39411304D01*
X30165896Y-39237341D01*
X30165893Y-39237332D01*
X30098015Y-39073457D01*
X30098011Y-39073450D01*
X30059733Y-39016162D01*
X30054671Y-38999996D01*
X31266287Y-38999996D01*
X31266287Y-39000003D01*
X31284681Y-39163261D01*
X31284682Y-39163265D01*
X31338947Y-39318347D01*
X31411634Y-39434028D01*
X31430634Y-39501265D01*
X31411634Y-39565972D01*
X31338947Y-39681652D01*
X31284682Y-39836734D01*
X31284681Y-39836738D01*
X31266287Y-39999996D01*
X31266287Y-40000003D01*
X31284681Y-40163261D01*
X31284682Y-40163265D01*
X31338947Y-40318347D01*
X31394366Y-40406545D01*
X31426360Y-40457463D01*
X31542537Y-40573640D01*
X31542539Y-40573641D01*
X31661349Y-40648295D01*
X31681654Y-40661053D01*
X31836733Y-40715317D01*
X31836734Y-40715317D01*
X31836738Y-40715318D01*
X31999996Y-40733713D01*
X32000000Y-40733713D01*
X32000004Y-40733713D01*
X32163261Y-40715318D01*
X32163263Y-40715317D01*
X32163267Y-40715317D01*
X32318346Y-40661053D01*
X32457463Y-40573640D01*
X32560402Y-40470700D01*
X32621721Y-40437218D01*
X32691413Y-40442202D01*
X32747347Y-40484073D01*
X32771300Y-40544500D01*
X32784681Y-40663262D01*
X32784682Y-40663265D01*
X32838947Y-40818347D01*
X32926360Y-40957463D01*
X33029296Y-41060399D01*
X33062781Y-41121722D01*
X33057797Y-41191414D01*
X33015925Y-41247347D01*
X32955499Y-41271300D01*
X32836737Y-41284681D01*
X32836734Y-41284682D01*
X32681652Y-41338947D01*
X32542536Y-41426360D01*
X32426360Y-41542536D01*
X32338947Y-41681652D01*
X32284682Y-41836734D01*
X32284681Y-41836738D01*
X32266287Y-41999996D01*
X32266287Y-42000003D01*
X32284681Y-42163261D01*
X32284682Y-42163265D01*
X32338947Y-42318347D01*
X32408956Y-42429765D01*
X32426360Y-42457463D01*
X32542537Y-42573640D01*
X32624821Y-42625343D01*
X32661349Y-42648295D01*
X32681654Y-42661053D01*
X32836733Y-42715317D01*
X32836734Y-42715317D01*
X32836738Y-42715318D01*
X32993964Y-42733033D01*
X33058378Y-42760099D01*
X33097933Y-42817694D01*
X33100071Y-42887531D01*
X33067763Y-42943934D01*
X32969159Y-43042538D01*
X32881747Y-43181652D01*
X32827482Y-43336734D01*
X32827481Y-43336738D01*
X32809087Y-43499996D01*
X32809087Y-43500003D01*
X32827481Y-43663261D01*
X32827482Y-43663265D01*
X32881747Y-43818347D01*
X32969160Y-43957463D01*
X33085337Y-44073640D01*
X33167621Y-44125343D01*
X33204149Y-44148295D01*
X33224454Y-44161053D01*
X33379533Y-44215317D01*
X33379534Y-44215317D01*
X33379538Y-44215318D01*
X33542796Y-44233713D01*
X33542800Y-44233713D01*
X33542804Y-44233713D01*
X33706061Y-44215318D01*
X33706063Y-44215317D01*
X33706067Y-44215317D01*
X33861146Y-44161053D01*
X34000263Y-44073640D01*
X34116440Y-43957463D01*
X34203853Y-43818346D01*
X34258117Y-43663267D01*
X34263782Y-43612988D01*
X34276513Y-43500003D01*
X34276513Y-43499996D01*
X34258118Y-43336738D01*
X34258117Y-43336734D01*
X34231715Y-43261282D01*
X34203853Y-43181654D01*
X34203049Y-43180375D01*
X34154509Y-43103123D01*
X34116440Y-43042537D01*
X34009169Y-42935266D01*
X33975684Y-42873943D01*
X33980668Y-42804251D01*
X34022540Y-42748318D01*
X34082967Y-42724365D01*
X34163261Y-42715318D01*
X34163263Y-42715317D01*
X34163267Y-42715317D01*
X34318346Y-42661053D01*
X34457463Y-42573640D01*
X34573640Y-42457463D01*
X34661053Y-42318346D01*
X34671380Y-42288830D01*
X34712100Y-42232055D01*
X34777051Y-42206306D01*
X34829377Y-42212743D01*
X34836736Y-42215318D01*
X34999996Y-42233713D01*
X35000000Y-42233713D01*
X35000004Y-42233713D01*
X35163261Y-42215318D01*
X35163263Y-42215317D01*
X35163267Y-42215317D01*
X35318346Y-42161053D01*
X35457463Y-42073640D01*
X35573640Y-41957463D01*
X35661053Y-41818346D01*
X35715317Y-41663267D01*
X35718643Y-41633750D01*
X35733713Y-41500003D01*
X35733713Y-41499996D01*
X35715318Y-41336738D01*
X35715317Y-41336734D01*
X35710873Y-41324035D01*
X35661053Y-41181654D01*
X35660249Y-41180375D01*
X35573639Y-41042536D01*
X35457463Y-40926360D01*
X35318347Y-40838947D01*
X35163265Y-40784682D01*
X35163261Y-40784681D01*
X35000004Y-40766287D01*
X34999996Y-40766287D01*
X34836738Y-40784681D01*
X34836734Y-40784682D01*
X34681652Y-40838947D01*
X34542536Y-40926360D01*
X34426360Y-41042536D01*
X34338948Y-41181651D01*
X34328618Y-41211172D01*
X34287895Y-41267947D01*
X34222941Y-41293693D01*
X34170622Y-41287256D01*
X34163270Y-41284683D01*
X34163262Y-41284681D01*
X34044500Y-41271300D01*
X33980086Y-41244233D01*
X33940531Y-41186638D01*
X33938394Y-41116801D01*
X33970700Y-41060402D01*
X34073640Y-40957463D01*
X34161053Y-40818346D01*
X34215317Y-40663267D01*
X34215538Y-40661306D01*
X34233713Y-40500003D01*
X34233713Y-40499996D01*
X34215318Y-40336738D01*
X34215317Y-40336734D01*
X34210667Y-40323446D01*
X34161053Y-40181654D01*
X34157478Y-40175965D01*
X34124064Y-40122787D01*
X34073640Y-40042537D01*
X33957463Y-39926360D01*
X33957461Y-39926359D01*
X33818347Y-39838947D01*
X33663265Y-39784682D01*
X33663261Y-39784681D01*
X33500004Y-39766287D01*
X33499996Y-39766287D01*
X33336738Y-39784681D01*
X33336734Y-39784682D01*
X33181652Y-39838947D01*
X33042538Y-39926359D01*
X32939600Y-40029297D01*
X32878277Y-40062781D01*
X32808585Y-40057797D01*
X32752652Y-40015925D01*
X32728699Y-39955498D01*
X32715318Y-39836738D01*
X32715317Y-39836734D01*
X32708883Y-39818347D01*
X32661053Y-39681654D01*
X32649498Y-39663265D01*
X32588365Y-39565972D01*
X32569365Y-39498736D01*
X32588365Y-39434028D01*
X32595706Y-39422345D01*
X32661053Y-39318346D01*
X32715317Y-39163267D01*
X32715317Y-39163260D01*
X32716478Y-39158179D01*
X32750585Y-39097200D01*
X32796418Y-39068727D01*
X32805926Y-39065399D01*
X32818346Y-39061054D01*
X32957463Y-38973641D01*
X33073640Y-38857464D01*
X33161053Y-38718347D01*
X33215317Y-38563268D01*
X33215318Y-38563262D01*
X33233713Y-38400004D01*
X33233713Y-38399997D01*
X33215318Y-38236739D01*
X33215317Y-38236735D01*
X33209484Y-38220063D01*
X33161053Y-38081655D01*
X33152175Y-38067526D01*
X33133176Y-38000292D01*
X33152176Y-37935585D01*
X33163009Y-37918346D01*
X33217273Y-37763267D01*
X33225636Y-37689045D01*
X33235669Y-37600003D01*
X33235669Y-37599996D01*
X33217274Y-37436738D01*
X33217273Y-37436734D01*
X33215463Y-37431562D01*
X33163009Y-37281654D01*
X33163008Y-37281652D01*
X33163008Y-37281651D01*
X33152178Y-37264416D01*
X33133177Y-37197179D01*
X33152178Y-37132470D01*
X33161052Y-37118347D01*
X33161052Y-37118346D01*
X33161053Y-37118345D01*
X33215317Y-36963266D01*
X33217549Y-36943457D01*
X33233713Y-36800002D01*
X33233713Y-36799996D01*
X33227830Y-36747784D01*
X33239884Y-36678962D01*
X33287233Y-36627582D01*
X33351050Y-36609900D01*
X33643316Y-36609900D01*
X33710355Y-36629585D01*
X33756110Y-36682389D01*
X33765781Y-36743036D01*
X33766287Y-36743036D01*
X33766287Y-36746211D01*
X33766537Y-36747779D01*
X33766287Y-36749998D01*
X33766287Y-36750003D01*
X33784681Y-36913261D01*
X33784682Y-36913265D01*
X33838947Y-37068347D01*
X33926360Y-37207463D01*
X34019444Y-37300547D01*
X34052929Y-37361870D01*
X34047945Y-37431562D01*
X34036757Y-37454200D01*
X33986640Y-37533959D01*
X33932375Y-37689041D01*
X33932374Y-37689045D01*
X33913980Y-37852303D01*
X33913980Y-37852310D01*
X33932374Y-38015568D01*
X33932375Y-38015572D01*
X33986640Y-38170654D01*
X34036497Y-38250000D01*
X34074053Y-38309770D01*
X34190230Y-38425947D01*
X34329347Y-38513360D01*
X34484426Y-38567624D01*
X34484427Y-38567624D01*
X34484431Y-38567625D01*
X34647689Y-38586020D01*
X34647693Y-38586020D01*
X34647697Y-38586020D01*
X34810954Y-38567625D01*
X34810956Y-38567624D01*
X34810960Y-38567624D01*
X34966039Y-38513360D01*
X35105156Y-38425947D01*
X35221333Y-38309770D01*
X35308746Y-38170653D01*
X35363010Y-38015574D01*
X35363011Y-38015568D01*
X35381406Y-37852310D01*
X35381406Y-37852303D01*
X35363011Y-37689045D01*
X35363010Y-37689041D01*
X35360425Y-37681654D01*
X35308746Y-37533961D01*
X35297883Y-37516672D01*
X35278883Y-37449435D01*
X35299251Y-37382600D01*
X35352519Y-37337386D01*
X35402877Y-37326700D01*
X37558361Y-37326700D01*
X37625400Y-37346385D01*
X37671155Y-37399189D01*
X37681099Y-37468347D01*
X37652074Y-37531903D01*
X37646042Y-37538381D01*
X36537419Y-38647003D01*
X36537414Y-38647009D01*
X36461494Y-38778506D01*
X36461492Y-38778510D01*
X36453698Y-38807597D01*
X36417331Y-38867257D01*
X36354483Y-38897784D01*
X36347810Y-38898720D01*
X36302429Y-38903833D01*
X36147344Y-38958099D01*
X36008228Y-39045512D01*
X35892052Y-39161688D01*
X35804639Y-39300804D01*
X35750374Y-39455886D01*
X35750373Y-39455890D01*
X35731979Y-39619148D01*
X35731979Y-39619155D01*
X35750373Y-39782413D01*
X35750374Y-39782417D01*
X35804639Y-39937499D01*
X35890182Y-40073639D01*
X35892052Y-40076615D01*
X36008229Y-40192792D01*
X36130249Y-40269462D01*
X36176539Y-40321796D01*
X36187187Y-40390849D01*
X36184052Y-40406545D01*
X36182000Y-40414203D01*
X36182000Y-54701061D01*
X36162315Y-54768100D01*
X36145681Y-54788742D01*
X35384870Y-55549552D01*
X35323547Y-55583037D01*
X35253855Y-55578053D01*
X35197922Y-55536181D01*
X35178804Y-55498762D01*
X35143478Y-55385394D01*
X35055472Y-55239815D01*
X35055470Y-55239813D01*
X35055469Y-55239811D01*
X34935188Y-55119530D01*
X34822739Y-55051552D01*
X34789606Y-55031522D01*
X34627196Y-54980914D01*
X34627194Y-54980913D01*
X34627192Y-54980913D01*
X34577778Y-54976423D01*
X34556616Y-54974500D01*
X33543384Y-54974500D01*
X33524145Y-54976248D01*
X33472807Y-54980913D01*
X33310393Y-55031522D01*
X33164811Y-55119530D01*
X33044530Y-55239811D01*
X32956522Y-55385393D01*
X32905913Y-55547807D01*
X32899500Y-55618386D01*
X32899500Y-56131613D01*
X32905913Y-56202192D01*
X32905913Y-56202194D01*
X32905914Y-56202196D01*
X32936874Y-56301552D01*
X32956522Y-56364606D01*
X33043281Y-56508122D01*
X33061117Y-56575677D01*
X33040267Y-56641162D01*
X33001989Y-56698449D01*
X33001983Y-56698460D01*
X32934106Y-56862332D01*
X32934103Y-56862341D01*
X32899500Y-57036304D01*
X32899500Y-57213695D01*
X32934103Y-57387658D01*
X32934106Y-57387667D01*
X33001983Y-57551540D01*
X33001990Y-57551553D01*
X33088557Y-57681109D01*
X33109435Y-57747787D01*
X33090950Y-57815167D01*
X33088557Y-57818891D01*
X33001990Y-57948446D01*
X33001983Y-57948459D01*
X32934106Y-58112332D01*
X32934103Y-58112341D01*
X32899500Y-58286304D01*
X32899500Y-58463695D01*
X32934103Y-58637658D01*
X32934106Y-58637667D01*
X33001983Y-58801540D01*
X33001990Y-58801553D01*
X33088557Y-58931109D01*
X33109435Y-58997787D01*
X33090950Y-59065167D01*
X33088557Y-59068891D01*
X33001990Y-59198446D01*
X33001983Y-59198459D01*
X32934106Y-59362332D01*
X32934103Y-59362341D01*
X32899500Y-59536304D01*
X32899500Y-59713695D01*
X32934103Y-59887658D01*
X32934106Y-59887667D01*
X33001983Y-60051540D01*
X33001990Y-60051553D01*
X33100535Y-60199034D01*
X33100538Y-60199038D01*
X33225961Y-60324461D01*
X33225965Y-60324464D01*
X33373446Y-60423009D01*
X33373459Y-60423016D01*
X33496363Y-60473923D01*
X33537334Y-60490894D01*
X33537336Y-60490894D01*
X33537341Y-60490896D01*
X33711304Y-60525499D01*
X33711307Y-60525500D01*
X33711309Y-60525500D01*
X34388693Y-60525500D01*
X34388694Y-60525499D01*
X34446682Y-60513964D01*
X34562658Y-60490896D01*
X34562661Y-60490894D01*
X34562666Y-60490894D01*
X34726547Y-60423013D01*
X34874035Y-60324464D01*
X34999464Y-60199035D01*
X35098013Y-60051547D01*
X35165894Y-59887666D01*
X35166930Y-59882462D01*
X35190294Y-59764999D01*
X35193278Y-59750000D01*
X37869474Y-59750000D01*
X37889547Y-60005064D01*
X37889547Y-60005067D01*
X37889548Y-60005070D01*
X37938144Y-60207483D01*
X37949279Y-60253864D01*
X38047188Y-60490239D01*
X38047190Y-60490242D01*
X38180875Y-60708396D01*
X38180878Y-60708401D01*
X38207494Y-60739564D01*
X38347044Y-60902956D01*
X38460668Y-61000000D01*
X38541598Y-61069121D01*
X38541600Y-61069122D01*
X38541601Y-61069123D01*
X38625700Y-61120659D01*
X38759757Y-61202809D01*
X38759760Y-61202811D01*
X38996135Y-61300720D01*
X38996140Y-61300722D01*
X39244930Y-61360452D01*
X39500000Y-61380526D01*
X39755070Y-61360452D01*
X40003860Y-61300722D01*
X40122051Y-61251765D01*
X40240239Y-61202811D01*
X40240240Y-61202810D01*
X40240243Y-61202809D01*
X40458399Y-61069123D01*
X40652956Y-60902956D01*
X40819123Y-60708399D01*
X40952809Y-60490243D01*
X40972447Y-60442834D01*
X41023481Y-60319625D01*
X41050722Y-60253860D01*
X41110452Y-60005070D01*
X41130526Y-59750000D01*
X41110452Y-59494930D01*
X41050722Y-59246140D01*
X41046963Y-59237064D01*
X40952811Y-59009760D01*
X40952809Y-59009757D01*
X40945474Y-58997787D01*
X40819123Y-58791601D01*
X40819122Y-58791600D01*
X40819121Y-58791598D01*
X40725222Y-58681657D01*
X40652956Y-58597044D01*
X40496822Y-58463693D01*
X40458401Y-58430878D01*
X40458396Y-58430875D01*
X40240242Y-58297190D01*
X40240239Y-58297188D01*
X40003864Y-58199279D01*
X40003860Y-58199278D01*
X39755070Y-58139548D01*
X39755067Y-58139547D01*
X39755064Y-58139547D01*
X39500000Y-58119474D01*
X39244935Y-58139547D01*
X39244931Y-58139547D01*
X39244930Y-58139548D01*
X39208497Y-58148295D01*
X38996135Y-58199279D01*
X38759760Y-58297188D01*
X38759757Y-58297190D01*
X38541603Y-58430875D01*
X38541598Y-58430878D01*
X38347044Y-58597044D01*
X38180878Y-58791598D01*
X38180875Y-58791603D01*
X38047190Y-59009757D01*
X38047188Y-59009760D01*
X37949279Y-59246135D01*
X37889547Y-59494935D01*
X37869474Y-59750000D01*
X35193278Y-59750000D01*
X35200500Y-59713691D01*
X35200500Y-59536309D01*
X35200500Y-59536306D01*
X35200499Y-59536304D01*
X35165896Y-59362341D01*
X35165893Y-59362332D01*
X35098016Y-59198459D01*
X35098014Y-59198455D01*
X35098013Y-59198453D01*
X35011442Y-59068891D01*
X34990564Y-59002214D01*
X35009048Y-58934834D01*
X35011442Y-58931109D01*
X35036505Y-58893599D01*
X35098013Y-58801547D01*
X35147959Y-58680962D01*
X35174835Y-58640740D01*
X36815580Y-56999996D01*
X42189403Y-56999996D01*
X42189403Y-57000003D01*
X42209724Y-57180369D01*
X42209725Y-57180374D01*
X42269677Y-57351706D01*
X42366249Y-57505398D01*
X42494601Y-57633750D01*
X42615513Y-57709725D01*
X42648295Y-57730323D01*
X42704529Y-57750000D01*
X42819625Y-57790274D01*
X42819630Y-57790275D01*
X42999996Y-57810597D01*
X43000000Y-57810597D01*
X43000004Y-57810597D01*
X43180369Y-57790275D01*
X43180372Y-57790274D01*
X43180375Y-57790274D01*
X43351705Y-57730323D01*
X43505399Y-57633750D01*
X43633750Y-57505399D01*
X43730323Y-57351705D01*
X43790274Y-57180375D01*
X43806506Y-57036309D01*
X43810597Y-57000003D01*
X43810597Y-56999996D01*
X43790275Y-56819630D01*
X43790274Y-56819625D01*
X43730323Y-56648295D01*
X43633750Y-56494601D01*
X43505399Y-56366250D01*
X43505398Y-56366249D01*
X43351706Y-56269677D01*
X43180374Y-56209725D01*
X43180369Y-56209724D01*
X43000004Y-56189403D01*
X42999996Y-56189403D01*
X42819630Y-56209724D01*
X42819625Y-56209725D01*
X42648293Y-56269677D01*
X42494601Y-56366249D01*
X42366249Y-56494601D01*
X42269677Y-56648293D01*
X42209725Y-56819625D01*
X42209724Y-56819630D01*
X42189403Y-56999996D01*
X36815580Y-56999996D01*
X37461475Y-56354102D01*
X37537399Y-56222598D01*
X37576700Y-56075924D01*
X37576700Y-55924076D01*
X37576700Y-52077135D01*
X37874500Y-52077135D01*
X37874500Y-54422870D01*
X37874501Y-54422876D01*
X37880908Y-54482483D01*
X37931202Y-54617328D01*
X37931206Y-54617335D01*
X38017452Y-54732544D01*
X38017455Y-54732547D01*
X38132664Y-54818793D01*
X38132671Y-54818797D01*
X38267517Y-54869091D01*
X38267516Y-54869091D01*
X38274444Y-54869835D01*
X38327127Y-54875500D01*
X40672872Y-54875499D01*
X40732483Y-54869091D01*
X40867331Y-54818796D01*
X40982546Y-54732546D01*
X41068796Y-54617331D01*
X41119091Y-54482483D01*
X41125500Y-54422873D01*
X41125499Y-52423796D01*
X43291263Y-52423796D01*
X43291263Y-52423803D01*
X43311584Y-52604169D01*
X43311585Y-52604174D01*
X43371537Y-52775506D01*
X43468109Y-52929198D01*
X43596461Y-53057550D01*
X43748160Y-53152870D01*
X43750155Y-53154123D01*
X43892647Y-53203983D01*
X43921485Y-53214074D01*
X43921490Y-53214075D01*
X44101856Y-53234397D01*
X44101860Y-53234397D01*
X44101864Y-53234397D01*
X44282229Y-53214075D01*
X44282232Y-53214074D01*
X44282235Y-53214074D01*
X44453565Y-53154123D01*
X44607259Y-53057550D01*
X44735610Y-52929199D01*
X44832183Y-52775505D01*
X44892134Y-52604175D01*
X44895317Y-52575924D01*
X44912457Y-52423803D01*
X44912457Y-52423796D01*
X44892135Y-52243430D01*
X44892134Y-52243425D01*
X44875821Y-52196806D01*
X44832183Y-52072095D01*
X44809755Y-52036402D01*
X44735610Y-51918401D01*
X44607258Y-51790049D01*
X44453566Y-51693477D01*
X44282234Y-51633525D01*
X44282229Y-51633524D01*
X44101864Y-51613203D01*
X44101856Y-51613203D01*
X43921490Y-51633524D01*
X43921485Y-51633525D01*
X43750153Y-51693477D01*
X43596461Y-51790049D01*
X43468109Y-51918401D01*
X43371537Y-52072093D01*
X43311585Y-52243425D01*
X43311584Y-52243430D01*
X43291263Y-52423796D01*
X41125499Y-52423796D01*
X41125499Y-52077128D01*
X41119091Y-52017517D01*
X41107532Y-51986527D01*
X41068797Y-51882671D01*
X41068793Y-51882664D01*
X40982547Y-51767455D01*
X40982544Y-51767452D01*
X40867335Y-51681206D01*
X40867328Y-51681202D01*
X40732482Y-51630908D01*
X40732483Y-51630908D01*
X40672883Y-51624501D01*
X40672881Y-51624500D01*
X40672873Y-51624500D01*
X40672864Y-51624500D01*
X38327129Y-51624500D01*
X38327123Y-51624501D01*
X38267516Y-51630908D01*
X38132671Y-51681202D01*
X38132664Y-51681206D01*
X38017455Y-51767452D01*
X38017452Y-51767455D01*
X37931206Y-51882664D01*
X37931202Y-51882671D01*
X37880908Y-52017517D01*
X37875041Y-52072093D01*
X37874501Y-52077123D01*
X37874500Y-52077135D01*
X37576700Y-52077135D01*
X37576700Y-48999996D01*
X42189403Y-48999996D01*
X42189403Y-49000003D01*
X42209724Y-49180369D01*
X42209725Y-49180374D01*
X42269677Y-49351706D01*
X42366249Y-49505398D01*
X42494601Y-49633750D01*
X42627613Y-49717328D01*
X42648295Y-49730323D01*
X42676302Y-49740123D01*
X42819625Y-49790274D01*
X42819630Y-49790275D01*
X42999996Y-49810597D01*
X43000000Y-49810597D01*
X43000004Y-49810597D01*
X43180369Y-49790275D01*
X43180372Y-49790274D01*
X43180375Y-49790274D01*
X43351705Y-49730323D01*
X43505399Y-49633750D01*
X43633750Y-49505399D01*
X43730323Y-49351705D01*
X43790274Y-49180375D01*
X43797539Y-49115894D01*
X43810597Y-49000003D01*
X43810597Y-48999996D01*
X43790275Y-48819630D01*
X43790274Y-48819625D01*
X43730322Y-48648293D01*
X43633750Y-48494601D01*
X43505398Y-48366249D01*
X43351706Y-48269677D01*
X43180374Y-48209725D01*
X43180369Y-48209724D01*
X43000004Y-48189403D01*
X42999996Y-48189403D01*
X42819630Y-48209724D01*
X42819625Y-48209725D01*
X42648293Y-48269677D01*
X42494601Y-48366249D01*
X42366249Y-48494601D01*
X42269677Y-48648293D01*
X42209725Y-48819625D01*
X42209724Y-48819630D01*
X42189403Y-48999996D01*
X37576700Y-48999996D01*
X37576700Y-47499996D01*
X39970887Y-47499996D01*
X39970887Y-47500003D01*
X39989281Y-47663261D01*
X39989282Y-47663265D01*
X40043547Y-47818347D01*
X40130960Y-47957463D01*
X40247137Y-48073640D01*
X40386254Y-48161053D01*
X40541333Y-48215317D01*
X40541334Y-48215317D01*
X40541338Y-48215318D01*
X40704596Y-48233713D01*
X40704600Y-48233713D01*
X40704604Y-48233713D01*
X40867861Y-48215318D01*
X40867863Y-48215317D01*
X40867867Y-48215317D01*
X41022946Y-48161053D01*
X41162063Y-48073640D01*
X41278240Y-47957463D01*
X41365653Y-47818346D01*
X41419917Y-47663267D01*
X41419918Y-47663261D01*
X41438313Y-47500003D01*
X41438313Y-47499996D01*
X41419918Y-47336738D01*
X41419917Y-47336734D01*
X41417981Y-47331202D01*
X41365653Y-47181654D01*
X41354098Y-47163265D01*
X41278239Y-47042536D01*
X41162063Y-46926360D01*
X41022947Y-46838947D01*
X40867865Y-46784682D01*
X40867861Y-46784681D01*
X40704604Y-46766287D01*
X40704596Y-46766287D01*
X40541338Y-46784681D01*
X40541334Y-46784682D01*
X40386252Y-46838947D01*
X40247136Y-46926360D01*
X40130960Y-47042536D01*
X40043547Y-47181652D01*
X39989282Y-47336734D01*
X39989281Y-47336738D01*
X39970887Y-47499996D01*
X37576700Y-47499996D01*
X37576700Y-44999996D01*
X39766287Y-44999996D01*
X39766287Y-45000003D01*
X39784681Y-45163261D01*
X39784682Y-45163265D01*
X39838947Y-45318347D01*
X39904582Y-45422804D01*
X39926360Y-45457463D01*
X40042537Y-45573640D01*
X40181654Y-45661053D01*
X40336733Y-45715317D01*
X40336734Y-45715317D01*
X40336738Y-45715318D01*
X40499996Y-45733713D01*
X40500000Y-45733713D01*
X40500004Y-45733713D01*
X40663261Y-45715318D01*
X40663263Y-45715317D01*
X40663267Y-45715317D01*
X40818346Y-45661053D01*
X40957463Y-45573640D01*
X41073640Y-45457463D01*
X41161053Y-45318346D01*
X41215317Y-45163267D01*
X41215318Y-45163261D01*
X41233713Y-45000003D01*
X41233713Y-44999996D01*
X41215318Y-44836738D01*
X41215317Y-44836734D01*
X41199003Y-44790112D01*
X41161053Y-44681654D01*
X41160249Y-44680375D01*
X41073639Y-44542536D01*
X40957463Y-44426360D01*
X40818347Y-44338947D01*
X40663265Y-44284682D01*
X40663261Y-44284681D01*
X40577301Y-44274996D01*
X43142463Y-44274996D01*
X43142463Y-44275003D01*
X43162784Y-44455369D01*
X43162785Y-44455374D01*
X43222737Y-44626706D01*
X43319309Y-44780398D01*
X43447661Y-44908750D01*
X43592883Y-45000000D01*
X43601355Y-45005323D01*
X43762120Y-45061577D01*
X43772685Y-45065274D01*
X43772690Y-45065275D01*
X43953056Y-45085597D01*
X43953060Y-45085597D01*
X43953064Y-45085597D01*
X44133429Y-45065275D01*
X44133432Y-45065274D01*
X44133435Y-45065274D01*
X44304765Y-45005323D01*
X44458459Y-44908750D01*
X44586810Y-44780399D01*
X44683383Y-44626705D01*
X44743334Y-44455375D01*
X44746603Y-44426360D01*
X44763657Y-44275003D01*
X44763657Y-44274996D01*
X44743335Y-44094630D01*
X44743334Y-44094625D01*
X44685585Y-43929589D01*
X44683383Y-43923295D01*
X44673059Y-43906865D01*
X44586810Y-43769601D01*
X44458458Y-43641249D01*
X44304766Y-43544677D01*
X44133434Y-43484725D01*
X44133429Y-43484724D01*
X43953064Y-43464403D01*
X43953056Y-43464403D01*
X43772690Y-43484724D01*
X43772685Y-43484725D01*
X43601353Y-43544677D01*
X43447661Y-43641249D01*
X43319309Y-43769601D01*
X43222737Y-43923293D01*
X43162785Y-44094625D01*
X43162784Y-44094630D01*
X43142463Y-44274996D01*
X40577301Y-44274996D01*
X40500004Y-44266287D01*
X40499996Y-44266287D01*
X40336738Y-44284681D01*
X40336734Y-44284682D01*
X40181652Y-44338947D01*
X40042536Y-44426360D01*
X39926360Y-44542536D01*
X39838947Y-44681652D01*
X39784682Y-44836734D01*
X39784681Y-44836738D01*
X39766287Y-44999996D01*
X37576700Y-44999996D01*
X37576700Y-44029603D01*
X37596385Y-43962564D01*
X37649189Y-43916809D01*
X37718347Y-43906865D01*
X37766672Y-43924609D01*
X37873295Y-43991605D01*
X38000606Y-44036153D01*
X38044625Y-44051556D01*
X38044630Y-44051557D01*
X38224996Y-44071879D01*
X38225000Y-44071879D01*
X38225004Y-44071879D01*
X38405369Y-44051557D01*
X38405372Y-44051556D01*
X38405375Y-44051556D01*
X38576705Y-43991605D01*
X38730399Y-43895032D01*
X38858750Y-43766681D01*
X38955323Y-43612987D01*
X39015274Y-43441657D01*
X39015275Y-43441651D01*
X39035597Y-43261285D01*
X39035597Y-43261278D01*
X39015275Y-43080912D01*
X39015274Y-43080907D01*
X38986962Y-42999996D01*
X38955323Y-42909577D01*
X38941470Y-42887531D01*
X38858750Y-42755883D01*
X38730398Y-42627531D01*
X38576706Y-42530959D01*
X38403886Y-42470487D01*
X38347110Y-42429765D01*
X38321363Y-42364812D01*
X38334819Y-42296250D01*
X38383206Y-42245848D01*
X38430958Y-42230225D01*
X38563261Y-42215318D01*
X38563263Y-42215317D01*
X38563267Y-42215317D01*
X38718346Y-42161053D01*
X38857463Y-42073640D01*
X38973640Y-41957463D01*
X39061053Y-41818346D01*
X39115317Y-41663267D01*
X39118643Y-41633750D01*
X39133713Y-41500003D01*
X39133713Y-41499996D01*
X39115318Y-41336738D01*
X39115317Y-41336734D01*
X39110873Y-41324035D01*
X39061053Y-41181654D01*
X39060249Y-41180375D01*
X38973639Y-41042536D01*
X38931099Y-40999996D01*
X42189403Y-40999996D01*
X42189403Y-41000003D01*
X42209724Y-41180369D01*
X42209725Y-41180374D01*
X42269677Y-41351706D01*
X42366249Y-41505398D01*
X42494601Y-41633750D01*
X42541573Y-41663265D01*
X42648295Y-41730323D01*
X42819625Y-41790274D01*
X42819630Y-41790275D01*
X42999996Y-41810597D01*
X43000000Y-41810597D01*
X43000004Y-41810597D01*
X43180369Y-41790275D01*
X43180372Y-41790274D01*
X43180375Y-41790274D01*
X43351705Y-41730323D01*
X43505399Y-41633750D01*
X43633750Y-41505399D01*
X43730323Y-41351705D01*
X43790274Y-41180375D01*
X43790705Y-41176553D01*
X43810597Y-41000003D01*
X43810597Y-40999996D01*
X43790275Y-40819630D01*
X43790274Y-40819625D01*
X43778047Y-40784682D01*
X43730323Y-40648295D01*
X43683414Y-40573641D01*
X43633750Y-40494601D01*
X43505398Y-40366249D01*
X43351706Y-40269677D01*
X43180374Y-40209725D01*
X43180369Y-40209724D01*
X43000004Y-40189403D01*
X42999996Y-40189403D01*
X42819630Y-40209724D01*
X42819625Y-40209725D01*
X42648293Y-40269677D01*
X42494601Y-40366249D01*
X42366249Y-40494601D01*
X42269677Y-40648293D01*
X42209725Y-40819625D01*
X42209724Y-40819630D01*
X42189403Y-40999996D01*
X38931099Y-40999996D01*
X38857463Y-40926360D01*
X38718347Y-40838947D01*
X38563265Y-40784682D01*
X38563261Y-40784681D01*
X38400004Y-40766287D01*
X38399996Y-40766287D01*
X38236738Y-40784681D01*
X38236734Y-40784682D01*
X38081652Y-40838947D01*
X37942536Y-40926360D01*
X37826360Y-41042536D01*
X37826358Y-41042539D01*
X37805693Y-41075427D01*
X37753358Y-41121718D01*
X37684304Y-41132365D01*
X37620456Y-41103989D01*
X37582085Y-41045599D01*
X37576700Y-41009454D01*
X37576700Y-40880316D01*
X37596385Y-40813277D01*
X37613019Y-40792635D01*
X37757361Y-40648293D01*
X37928275Y-40477379D01*
X38004199Y-40345875D01*
X38013437Y-40311395D01*
X38049799Y-40251736D01*
X38112645Y-40221205D01*
X38119290Y-40220271D01*
X38163267Y-40215317D01*
X38318346Y-40161053D01*
X38457463Y-40073640D01*
X38573640Y-39957463D01*
X38661053Y-39818346D01*
X38715317Y-39663267D01*
X38715318Y-39663261D01*
X38733713Y-39500003D01*
X38733713Y-39499996D01*
X38715318Y-39336738D01*
X38715317Y-39336734D01*
X38708883Y-39318347D01*
X38661053Y-39181654D01*
X38649498Y-39163265D01*
X38589336Y-39067517D01*
X38573640Y-39042537D01*
X38527620Y-38996517D01*
X38494135Y-38935194D01*
X38499119Y-38865502D01*
X38527618Y-38821157D01*
X39702558Y-37646219D01*
X39763881Y-37612734D01*
X39790239Y-37609900D01*
X39796781Y-37609900D01*
X39796783Y-37609900D01*
X39943457Y-37570599D01*
X40074961Y-37494675D01*
X40494675Y-37074961D01*
X40570599Y-36943457D01*
X40609900Y-36796783D01*
X40609900Y-36644935D01*
X40609900Y-35957276D01*
X40570599Y-35810602D01*
X40570597Y-35810598D01*
X40523775Y-35729500D01*
X40507302Y-35661600D01*
X40530154Y-35595573D01*
X40585076Y-35552383D01*
X40631162Y-35543500D01*
X44077839Y-35543500D01*
X44144878Y-35563185D01*
X44190633Y-35615989D01*
X44200577Y-35685147D01*
X44171552Y-35748703D01*
X44143811Y-35772494D01*
X43994601Y-35866249D01*
X43866249Y-35994601D01*
X43769677Y-36148293D01*
X43709725Y-36319625D01*
X43709724Y-36319630D01*
X43689403Y-36499996D01*
X43689403Y-36500003D01*
X43709724Y-36680369D01*
X43709725Y-36680374D01*
X43769677Y-36851706D01*
X43866249Y-37005398D01*
X43994601Y-37133750D01*
X44111913Y-37207463D01*
X44148295Y-37230323D01*
X44294993Y-37281655D01*
X44319625Y-37290274D01*
X44319630Y-37290275D01*
X44499996Y-37310597D01*
X44500000Y-37310597D01*
X44500004Y-37310597D01*
X44680369Y-37290275D01*
X44680372Y-37290274D01*
X44680375Y-37290274D01*
X44851705Y-37230323D01*
X45005399Y-37133750D01*
X45133750Y-37005399D01*
X45230323Y-36851705D01*
X45290274Y-36680375D01*
X45290275Y-36680369D01*
X45310597Y-36500003D01*
X45310597Y-36499996D01*
X45290275Y-36319630D01*
X45290274Y-36319625D01*
X45278047Y-36284682D01*
X45230323Y-36148295D01*
X45133750Y-35994601D01*
X45005399Y-35866250D01*
X45005398Y-35866249D01*
X44856189Y-35772494D01*
X44809898Y-35720159D01*
X44799250Y-35651105D01*
X44827625Y-35587257D01*
X44886015Y-35548885D01*
X44922161Y-35543500D01*
X46676561Y-35543500D01*
X46743600Y-35563185D01*
X46764242Y-35579819D01*
X49040885Y-37856462D01*
X49074370Y-37917785D01*
X49070246Y-37985097D01*
X49034682Y-38086733D01*
X49034681Y-38086738D01*
X49016287Y-38249996D01*
X49016287Y-38250003D01*
X49030117Y-38372752D01*
X49018062Y-38441574D01*
X48994579Y-38474315D01*
X48926363Y-38542532D01*
X48926362Y-38542533D01*
X48838947Y-38681652D01*
X48784682Y-38836734D01*
X48784681Y-38836738D01*
X48766287Y-38999996D01*
X48766287Y-39000003D01*
X48784681Y-39163261D01*
X48784682Y-39163265D01*
X48838947Y-39318347D01*
X48904294Y-39422345D01*
X48923300Y-39488317D01*
X48923300Y-42525002D01*
X48903615Y-42592041D01*
X48850811Y-42637796D01*
X48781653Y-42647740D01*
X48718097Y-42618715D01*
X48694306Y-42590974D01*
X48633750Y-42494601D01*
X48505398Y-42366249D01*
X48351706Y-42269677D01*
X48180374Y-42209725D01*
X48180369Y-42209724D01*
X48000004Y-42189403D01*
X47999996Y-42189403D01*
X47819630Y-42209724D01*
X47819625Y-42209725D01*
X47648293Y-42269677D01*
X47494601Y-42366249D01*
X47366249Y-42494601D01*
X47269677Y-42648293D01*
X47209725Y-42819625D01*
X47209724Y-42819630D01*
X47189403Y-42999996D01*
X47189403Y-43000003D01*
X47209724Y-43180369D01*
X47209725Y-43180374D01*
X47269677Y-43351706D01*
X47366249Y-43505398D01*
X47494601Y-43633750D01*
X47615513Y-43709725D01*
X47648295Y-43730323D01*
X47752200Y-43766681D01*
X47819625Y-43790274D01*
X47819630Y-43790275D01*
X47999996Y-43810597D01*
X48000000Y-43810597D01*
X48000004Y-43810597D01*
X48180369Y-43790275D01*
X48180372Y-43790274D01*
X48180375Y-43790274D01*
X48351705Y-43730323D01*
X48505399Y-43633750D01*
X48633750Y-43505399D01*
X48694306Y-43409024D01*
X48746641Y-43362734D01*
X48815694Y-43352086D01*
X48879543Y-43380461D01*
X48917915Y-43438850D01*
X48923300Y-43474997D01*
X48923300Y-44424076D01*
X48923300Y-44575924D01*
X48951630Y-44681654D01*
X48962602Y-44722600D01*
X48962602Y-44722601D01*
X49038522Y-44854098D01*
X49038527Y-44854104D01*
X49246000Y-45061577D01*
X49279485Y-45122900D01*
X49281539Y-45135373D01*
X49284681Y-45163264D01*
X49338948Y-45318348D01*
X49421118Y-45449120D01*
X49440118Y-45516356D01*
X49419750Y-45583192D01*
X49382096Y-45620085D01*
X49292542Y-45676355D01*
X49292536Y-45676360D01*
X49176360Y-45792536D01*
X49088947Y-45931652D01*
X49034682Y-46086734D01*
X49034681Y-46086738D01*
X49016287Y-46249996D01*
X49016287Y-46250003D01*
X49030117Y-46372752D01*
X49018062Y-46441574D01*
X48994579Y-46474315D01*
X48926363Y-46542532D01*
X48926362Y-46542533D01*
X48838947Y-46681652D01*
X48784682Y-46836734D01*
X48784681Y-46836738D01*
X48766287Y-46999996D01*
X48766287Y-47000003D01*
X48784681Y-47163261D01*
X48784682Y-47163265D01*
X48838947Y-47318347D01*
X48904294Y-47422345D01*
X48923300Y-47488317D01*
X48923300Y-50525002D01*
X48903615Y-50592041D01*
X48850811Y-50637796D01*
X48781653Y-50647740D01*
X48718097Y-50618715D01*
X48694306Y-50590974D01*
X48633750Y-50494601D01*
X48505398Y-50366249D01*
X48351706Y-50269677D01*
X48180374Y-50209725D01*
X48180369Y-50209724D01*
X48000004Y-50189403D01*
X47999996Y-50189403D01*
X47819630Y-50209724D01*
X47819625Y-50209725D01*
X47648293Y-50269677D01*
X47494601Y-50366249D01*
X47366249Y-50494601D01*
X47269677Y-50648293D01*
X47209725Y-50819625D01*
X47209724Y-50819630D01*
X47189403Y-50999996D01*
X47189403Y-51000003D01*
X47209724Y-51180369D01*
X47209725Y-51180374D01*
X47269677Y-51351706D01*
X47366249Y-51505398D01*
X47494601Y-51633750D01*
X47615513Y-51709725D01*
X47648295Y-51730323D01*
X47754412Y-51767455D01*
X47819625Y-51790274D01*
X47819630Y-51790275D01*
X47999996Y-51810597D01*
X48000000Y-51810597D01*
X48000004Y-51810597D01*
X48180369Y-51790275D01*
X48180372Y-51790274D01*
X48180375Y-51790274D01*
X48351705Y-51730323D01*
X48505399Y-51633750D01*
X48633750Y-51505399D01*
X48694306Y-51409024D01*
X48746641Y-51362734D01*
X48815694Y-51352086D01*
X48879543Y-51380461D01*
X48917915Y-51438850D01*
X48923300Y-51474997D01*
X48923300Y-52424076D01*
X48923300Y-52575924D01*
X48951287Y-52680375D01*
X48962602Y-52722600D01*
X48962602Y-52722601D01*
X49038522Y-52854098D01*
X49038527Y-52854104D01*
X49246000Y-53061577D01*
X49279485Y-53122900D01*
X49281539Y-53135373D01*
X49284681Y-53163264D01*
X49338948Y-53318348D01*
X49421118Y-53449120D01*
X49440118Y-53516356D01*
X49419750Y-53583192D01*
X49382096Y-53620085D01*
X49292542Y-53676355D01*
X49292536Y-53676360D01*
X49176360Y-53792536D01*
X49088947Y-53931652D01*
X49034682Y-54086734D01*
X49034681Y-54086738D01*
X49016287Y-54249996D01*
X49016287Y-54250003D01*
X49030117Y-54372752D01*
X49018062Y-54441574D01*
X48994579Y-54474315D01*
X48926363Y-54542532D01*
X48926362Y-54542533D01*
X48838947Y-54681652D01*
X48784682Y-54836734D01*
X48784681Y-54836738D01*
X48766287Y-54999996D01*
X48766287Y-55000003D01*
X48784681Y-55163261D01*
X48784682Y-55163265D01*
X48838947Y-55318347D01*
X48904294Y-55422345D01*
X48923300Y-55488317D01*
X48923300Y-58701300D01*
X48903615Y-58768339D01*
X48850811Y-58814094D01*
X48781653Y-58824038D01*
X48718097Y-58795013D01*
X48682259Y-58742255D01*
X48661054Y-58681657D01*
X48661053Y-58681653D01*
X48573639Y-58542536D01*
X48457463Y-58426360D01*
X48318347Y-58338947D01*
X48163265Y-58284682D01*
X48163261Y-58284681D01*
X48000004Y-58266287D01*
X47999996Y-58266287D01*
X47836738Y-58284681D01*
X47836734Y-58284682D01*
X47681652Y-58338947D01*
X47542536Y-58426360D01*
X47426360Y-58542536D01*
X47338947Y-58681652D01*
X47284682Y-58836734D01*
X47284681Y-58836738D01*
X47266287Y-58999996D01*
X47266287Y-59000003D01*
X47284681Y-59163261D01*
X47284682Y-59163265D01*
X47338947Y-59318347D01*
X47426360Y-59457463D01*
X47542537Y-59573640D01*
X47681654Y-59661053D01*
X47836733Y-59715317D01*
X47836734Y-59715317D01*
X47836738Y-59715318D01*
X47999996Y-59733713D01*
X48000000Y-59733713D01*
X48000004Y-59733713D01*
X48163261Y-59715318D01*
X48163263Y-59715317D01*
X48163267Y-59715317D01*
X48318346Y-59661053D01*
X48457463Y-59573640D01*
X48573640Y-59457463D01*
X48661053Y-59318346D01*
X48682258Y-59257744D01*
X48722980Y-59200969D01*
X48787932Y-59175221D01*
X48856494Y-59188677D01*
X48906897Y-59237064D01*
X48923300Y-59298699D01*
X48923300Y-60424076D01*
X48923300Y-60575924D01*
X48958796Y-60708399D01*
X48962602Y-60722600D01*
X48962602Y-60722601D01*
X49038522Y-60854098D01*
X49038527Y-60854104D01*
X49246000Y-61061577D01*
X49279485Y-61122900D01*
X49281539Y-61135373D01*
X49284681Y-61163264D01*
X49319565Y-61262954D01*
X49338947Y-61318346D01*
X49426360Y-61457463D01*
X49542537Y-61573640D01*
X49624821Y-61625343D01*
X49638201Y-61633750D01*
X49681654Y-61661053D01*
X49836733Y-61715317D01*
X49836734Y-61715317D01*
X49836738Y-61715318D01*
X49999996Y-61733713D01*
X50000000Y-61733713D01*
X50000004Y-61733713D01*
X50163261Y-61715318D01*
X50163263Y-61715317D01*
X50163267Y-61715317D01*
X50318346Y-61661053D01*
X50457463Y-61573640D01*
X50573640Y-61457463D01*
X50661053Y-61318346D01*
X50680435Y-61262953D01*
X50721156Y-61206177D01*
X50786108Y-61180429D01*
X50811359Y-61180686D01*
X50859598Y-61186122D01*
X50969055Y-61198455D01*
X50969058Y-61198455D01*
X50969062Y-61198455D01*
X51149427Y-61178133D01*
X51149430Y-61178132D01*
X51149433Y-61178132D01*
X51320763Y-61118181D01*
X51474457Y-61021608D01*
X51602808Y-60893257D01*
X51699381Y-60739563D01*
X51759332Y-60568233D01*
X51767020Y-60500000D01*
X51767020Y-60499996D01*
X52189403Y-60499996D01*
X52189403Y-60500003D01*
X52209724Y-60680369D01*
X52209725Y-60680374D01*
X52269677Y-60851706D01*
X52366249Y-61005398D01*
X52494601Y-61133750D01*
X52597577Y-61198455D01*
X52648295Y-61230323D01*
X52741549Y-61262954D01*
X52819625Y-61290274D01*
X52819630Y-61290275D01*
X52999996Y-61310597D01*
X53000000Y-61310597D01*
X53000004Y-61310597D01*
X53180369Y-61290275D01*
X53180372Y-61290274D01*
X53180375Y-61290274D01*
X53351705Y-61230323D01*
X53505399Y-61133750D01*
X53633750Y-61005399D01*
X53730323Y-60851705D01*
X53790274Y-60680375D01*
X53790275Y-60680369D01*
X53810597Y-60500003D01*
X53810597Y-60499996D01*
X53790275Y-60319630D01*
X53790274Y-60319625D01*
X53758442Y-60228655D01*
X53730323Y-60148295D01*
X53633750Y-59994601D01*
X53505399Y-59866250D01*
X53505398Y-59866249D01*
X53351706Y-59769677D01*
X53180374Y-59709725D01*
X53180369Y-59709724D01*
X53000004Y-59689403D01*
X52999996Y-59689403D01*
X52819630Y-59709724D01*
X52819625Y-59709725D01*
X52648293Y-59769677D01*
X52494601Y-59866249D01*
X52366249Y-59994601D01*
X52269677Y-60148293D01*
X52209725Y-60319625D01*
X52209724Y-60319630D01*
X52189403Y-60499996D01*
X51767020Y-60499996D01*
X51779655Y-60387861D01*
X51779655Y-60387854D01*
X51759333Y-60207488D01*
X51759332Y-60207483D01*
X51756111Y-60198279D01*
X51699381Y-60036153D01*
X51679846Y-60005064D01*
X51602808Y-59882459D01*
X51474456Y-59754107D01*
X51320764Y-59657535D01*
X51149432Y-59597583D01*
X51149427Y-59597582D01*
X50969062Y-59577261D01*
X50969054Y-59577261D01*
X50788688Y-59597582D01*
X50788683Y-59597583D01*
X50617351Y-59657535D01*
X50463659Y-59754107D01*
X50335306Y-59882460D01*
X50335305Y-59882462D01*
X50305693Y-59929589D01*
X50253358Y-59975879D01*
X50184305Y-59986527D01*
X50120457Y-59958152D01*
X50082085Y-59899762D01*
X50076700Y-59863616D01*
X50076700Y-58499996D01*
X55414403Y-58499996D01*
X55414403Y-58500003D01*
X55434724Y-58680369D01*
X55434725Y-58680374D01*
X55494677Y-58851706D01*
X55591249Y-59005398D01*
X55719601Y-59133750D01*
X55826578Y-59200969D01*
X55873295Y-59230323D01*
X55951663Y-59257745D01*
X56044625Y-59290274D01*
X56044630Y-59290275D01*
X56224996Y-59310597D01*
X56225000Y-59310597D01*
X56225004Y-59310597D01*
X56405369Y-59290275D01*
X56405372Y-59290274D01*
X56405375Y-59290274D01*
X56576705Y-59230323D01*
X56730399Y-59133750D01*
X56858750Y-59005399D01*
X56955323Y-58851705D01*
X57015274Y-58680375D01*
X57015275Y-58680369D01*
X57035597Y-58500003D01*
X57035597Y-58499996D01*
X57015275Y-58319630D01*
X57015274Y-58319625D01*
X57003047Y-58284682D01*
X56955323Y-58148295D01*
X56939347Y-58122870D01*
X56858750Y-57994601D01*
X56730398Y-57866249D01*
X56576706Y-57769677D01*
X56405374Y-57709725D01*
X56405369Y-57709724D01*
X56225004Y-57689403D01*
X56224996Y-57689403D01*
X56044630Y-57709724D01*
X56044625Y-57709725D01*
X55873293Y-57769677D01*
X55719601Y-57866249D01*
X55591249Y-57994601D01*
X55494677Y-58148293D01*
X55434725Y-58319625D01*
X55434724Y-58319630D01*
X55414403Y-58499996D01*
X50076700Y-58499996D01*
X50076700Y-55553714D01*
X50096385Y-55486675D01*
X50149189Y-55440920D01*
X50218347Y-55430976D01*
X50232777Y-55433935D01*
X50299075Y-55451700D01*
X50299076Y-55451700D01*
X54386683Y-55451700D01*
X54452655Y-55470706D01*
X54497302Y-55498760D01*
X54556654Y-55536053D01*
X54711733Y-55590317D01*
X54711734Y-55590317D01*
X54711738Y-55590318D01*
X54874996Y-55608713D01*
X54875000Y-55608713D01*
X54875004Y-55608713D01*
X55038261Y-55590318D01*
X55038263Y-55590317D01*
X55038267Y-55590317D01*
X55193346Y-55536053D01*
X55332463Y-55448640D01*
X55448640Y-55332463D01*
X55536053Y-55193346D01*
X55590317Y-55038267D01*
X55591077Y-55031522D01*
X55608713Y-54875003D01*
X55608713Y-54874996D01*
X55590318Y-54711738D01*
X55590317Y-54711734D01*
X55586582Y-54701061D01*
X55536053Y-54556654D01*
X55523269Y-54536309D01*
X55451999Y-54422883D01*
X55448640Y-54417537D01*
X55332463Y-54301360D01*
X55250729Y-54250003D01*
X55193347Y-54213947D01*
X55139199Y-54195000D01*
X57997422Y-54195000D01*
X58017943Y-54396819D01*
X58078669Y-54590364D01*
X58078676Y-54590379D01*
X58177118Y-54767738D01*
X58177121Y-54767743D01*
X58309255Y-54921660D01*
X58309256Y-54921662D01*
X58451185Y-55031522D01*
X58469672Y-55045832D01*
X58651799Y-55135170D01*
X58848182Y-55186017D01*
X59050780Y-55196292D01*
X59251299Y-55165573D01*
X59441530Y-55095120D01*
X59613684Y-54987815D01*
X59760715Y-54848052D01*
X59876601Y-54681553D01*
X59956600Y-54495135D01*
X59997435Y-54296429D01*
X59999521Y-54213947D01*
X60000000Y-54195014D01*
X60000000Y-54194985D01*
X59997435Y-54093575D01*
X59997435Y-54093571D01*
X59956600Y-53894865D01*
X59876601Y-53708447D01*
X59872247Y-53702192D01*
X59760715Y-53541948D01*
X59613685Y-53402186D01*
X59613684Y-53402185D01*
X59441530Y-53294880D01*
X59429093Y-53290274D01*
X59251300Y-53224427D01*
X59251294Y-53224426D01*
X59050781Y-53193708D01*
X59050780Y-53193708D01*
X58957181Y-53198455D01*
X58848181Y-53203983D01*
X58651798Y-53254830D01*
X58469668Y-53344170D01*
X58309256Y-53468337D01*
X58309255Y-53468339D01*
X58177121Y-53622256D01*
X58177118Y-53622261D01*
X58078676Y-53799620D01*
X58078669Y-53799635D01*
X58017943Y-53993180D01*
X57997422Y-54195000D01*
X55139199Y-54195000D01*
X55038265Y-54159682D01*
X55038261Y-54159681D01*
X54916353Y-54145946D01*
X54851939Y-54118880D01*
X54812383Y-54061285D01*
X54807017Y-54008836D01*
X54808013Y-54000000D01*
X54804619Y-53969882D01*
X54789618Y-53836738D01*
X54789617Y-53836734D01*
X54785035Y-53823640D01*
X54735353Y-53681654D01*
X54732023Y-53676355D01*
X54673485Y-53583192D01*
X54647940Y-53542537D01*
X54622324Y-53516921D01*
X54588839Y-53455598D01*
X54593823Y-53385906D01*
X54635695Y-53329973D01*
X54696121Y-53306020D01*
X54719063Y-53303435D01*
X54835870Y-53290275D01*
X54835873Y-53290274D01*
X54835875Y-53290274D01*
X55007205Y-53230323D01*
X55160899Y-53133750D01*
X55289250Y-53005399D01*
X55385823Y-52851705D01*
X55445774Y-52680375D01*
X55445775Y-52680369D01*
X55466097Y-52500003D01*
X55466097Y-52499996D01*
X55445775Y-52319630D01*
X55445774Y-52319625D01*
X55433547Y-52284682D01*
X55385823Y-52148295D01*
X55341102Y-52077123D01*
X55289250Y-51994601D01*
X55160898Y-51866249D01*
X55007206Y-51769677D01*
X54835874Y-51709725D01*
X54835869Y-51709724D01*
X54655504Y-51689403D01*
X54655496Y-51689403D01*
X54475130Y-51709724D01*
X54475125Y-51709725D01*
X54303793Y-51769677D01*
X54150101Y-51866249D01*
X54021749Y-51994601D01*
X53925177Y-52148293D01*
X53865225Y-52319625D01*
X53865224Y-52319630D01*
X53844903Y-52499996D01*
X53844903Y-52500003D01*
X53863654Y-52666429D01*
X53851599Y-52735251D01*
X53804250Y-52786630D01*
X53736640Y-52804254D01*
X53699481Y-52797354D01*
X53663269Y-52784683D01*
X53663261Y-52784681D01*
X53500004Y-52766287D01*
X53499996Y-52766287D01*
X53377245Y-52780117D01*
X53308423Y-52768062D01*
X53275681Y-52744578D01*
X53207463Y-52676360D01*
X53068347Y-52588947D01*
X52913265Y-52534682D01*
X52913261Y-52534681D01*
X52750004Y-52516287D01*
X52749996Y-52516287D01*
X52627245Y-52530117D01*
X52558423Y-52518062D01*
X52525681Y-52494578D01*
X52457463Y-52426360D01*
X52318347Y-52338947D01*
X52163265Y-52284682D01*
X52163261Y-52284681D01*
X52000004Y-52266287D01*
X51999996Y-52266287D01*
X51886521Y-52279072D01*
X51817699Y-52267017D01*
X51766320Y-52219668D01*
X51755596Y-52196806D01*
X51699381Y-52036153D01*
X51602808Y-51882459D01*
X51474456Y-51754107D01*
X51320764Y-51657535D01*
X51149432Y-51597583D01*
X51149427Y-51597582D01*
X50969062Y-51577261D01*
X50969054Y-51577261D01*
X50788688Y-51597582D01*
X50788683Y-51597583D01*
X50617351Y-51657535D01*
X50463659Y-51754107D01*
X50335306Y-51882460D01*
X50335305Y-51882462D01*
X50305693Y-51929589D01*
X50253358Y-51975879D01*
X50184305Y-51986527D01*
X50120457Y-51958152D01*
X50082085Y-51899762D01*
X50076700Y-51863616D01*
X50076700Y-49999996D01*
X55414403Y-49999996D01*
X55414403Y-50000003D01*
X55434724Y-50180369D01*
X55434725Y-50180374D01*
X55494677Y-50351706D01*
X55591249Y-50505398D01*
X55719601Y-50633750D01*
X55857803Y-50720589D01*
X55873295Y-50730323D01*
X55954709Y-50758811D01*
X56044625Y-50790274D01*
X56044630Y-50790275D01*
X56224996Y-50810597D01*
X56225000Y-50810597D01*
X56225004Y-50810597D01*
X56405369Y-50790275D01*
X56405372Y-50790274D01*
X56405375Y-50790274D01*
X56576705Y-50730323D01*
X56730399Y-50633750D01*
X56858750Y-50505399D01*
X56955323Y-50351705D01*
X57015274Y-50180375D01*
X57015275Y-50180369D01*
X57035597Y-50000003D01*
X57035597Y-49999996D01*
X57015275Y-49819630D01*
X57015274Y-49819625D01*
X56984026Y-49730323D01*
X56955323Y-49648295D01*
X56876516Y-49522876D01*
X56858750Y-49494601D01*
X56730398Y-49366249D01*
X56576706Y-49269677D01*
X56405374Y-49209725D01*
X56405369Y-49209724D01*
X56225004Y-49189403D01*
X56224996Y-49189403D01*
X56044630Y-49209724D01*
X56044625Y-49209725D01*
X55873293Y-49269677D01*
X55719601Y-49366249D01*
X55591249Y-49494601D01*
X55494677Y-49648293D01*
X55434725Y-49819625D01*
X55434724Y-49819630D01*
X55414403Y-49999996D01*
X50076700Y-49999996D01*
X50076700Y-47553714D01*
X50096385Y-47486675D01*
X50149189Y-47440920D01*
X50218347Y-47430976D01*
X50232777Y-47433935D01*
X50299075Y-47451700D01*
X50299076Y-47451700D01*
X54386683Y-47451700D01*
X54452655Y-47470706D01*
X54551271Y-47532671D01*
X54556654Y-47536053D01*
X54711733Y-47590317D01*
X54711734Y-47590317D01*
X54711738Y-47590318D01*
X54874996Y-47608713D01*
X54875000Y-47608713D01*
X54875004Y-47608713D01*
X55038261Y-47590318D01*
X55038263Y-47590317D01*
X55038267Y-47590317D01*
X55193346Y-47536053D01*
X55332463Y-47448640D01*
X55448640Y-47332463D01*
X55536053Y-47193346D01*
X55590317Y-47038267D01*
X55590318Y-47038261D01*
X55608713Y-46875003D01*
X55608713Y-46874996D01*
X55590318Y-46711738D01*
X55590317Y-46711734D01*
X55541933Y-46573460D01*
X55536053Y-46556654D01*
X55448640Y-46417537D01*
X55332463Y-46301360D01*
X55250729Y-46250003D01*
X55193347Y-46213947D01*
X55038265Y-46159682D01*
X55038261Y-46159681D01*
X54916353Y-46145946D01*
X54851939Y-46118880D01*
X54812383Y-46061285D01*
X54807017Y-46008836D01*
X54808013Y-46000000D01*
X54804619Y-45969882D01*
X54789618Y-45836738D01*
X54789617Y-45836734D01*
X54785035Y-45823640D01*
X54735353Y-45681654D01*
X54732023Y-45676355D01*
X54673485Y-45583192D01*
X54647940Y-45542537D01*
X54551639Y-45446236D01*
X54518154Y-45384913D01*
X54523138Y-45315221D01*
X54565010Y-45259288D01*
X54630474Y-45234871D01*
X54680275Y-45241514D01*
X54819617Y-45290272D01*
X54819623Y-45290273D01*
X54819625Y-45290274D01*
X54819626Y-45290274D01*
X54819630Y-45290275D01*
X54999996Y-45310597D01*
X55000000Y-45310597D01*
X55000004Y-45310597D01*
X55180369Y-45290275D01*
X55180372Y-45290274D01*
X55180375Y-45290274D01*
X55351705Y-45230323D01*
X55505399Y-45133750D01*
X55633750Y-45005399D01*
X55730323Y-44851705D01*
X55790274Y-44680375D01*
X55790275Y-44680369D01*
X55810597Y-44500003D01*
X55810597Y-44499996D01*
X55790275Y-44319630D01*
X55790274Y-44319625D01*
X55778047Y-44284682D01*
X55730323Y-44148295D01*
X55669537Y-44051556D01*
X55633750Y-43994601D01*
X55505398Y-43866249D01*
X55351706Y-43769677D01*
X55180374Y-43709725D01*
X55180369Y-43709724D01*
X55000004Y-43689403D01*
X54999996Y-43689403D01*
X54819630Y-43709724D01*
X54819625Y-43709725D01*
X54648293Y-43769677D01*
X54494601Y-43866249D01*
X54366249Y-43994601D01*
X54269677Y-44148293D01*
X54209725Y-44319625D01*
X54209724Y-44319630D01*
X54189403Y-44499996D01*
X54189403Y-44500003D01*
X54209724Y-44680369D01*
X54209725Y-44680374D01*
X54269677Y-44851706D01*
X54366249Y-45005398D01*
X54480969Y-45120118D01*
X54514454Y-45181441D01*
X54509470Y-45251133D01*
X54467598Y-45307066D01*
X54402134Y-45331483D01*
X54352334Y-45324841D01*
X54296424Y-45305277D01*
X54247822Y-45288271D01*
X54191047Y-45247551D01*
X54171735Y-45212182D01*
X54161054Y-45181656D01*
X54161053Y-45181653D01*
X54087927Y-45065275D01*
X54073640Y-45042537D01*
X53957463Y-44926360D01*
X53925891Y-44906522D01*
X53818347Y-44838947D01*
X53663265Y-44784682D01*
X53663261Y-44784681D01*
X53500004Y-44766287D01*
X53499996Y-44766287D01*
X53377245Y-44780117D01*
X53308423Y-44768062D01*
X53275681Y-44744578D01*
X53207463Y-44676360D01*
X53068347Y-44588947D01*
X52913265Y-44534682D01*
X52913261Y-44534681D01*
X52750004Y-44516287D01*
X52749996Y-44516287D01*
X52627245Y-44530117D01*
X52558423Y-44518062D01*
X52525681Y-44494578D01*
X52457463Y-44426360D01*
X52318347Y-44338947D01*
X52163265Y-44284682D01*
X52163261Y-44284681D01*
X52000004Y-44266287D01*
X51999996Y-44266287D01*
X51886521Y-44279072D01*
X51817699Y-44267017D01*
X51766320Y-44219668D01*
X51755596Y-44196806D01*
X51699381Y-44036153D01*
X51602808Y-43882459D01*
X51474456Y-43754107D01*
X51320764Y-43657535D01*
X51149432Y-43597583D01*
X51149427Y-43597582D01*
X50969062Y-43577261D01*
X50969054Y-43577261D01*
X50788688Y-43597582D01*
X50788683Y-43597583D01*
X50617351Y-43657535D01*
X50463659Y-43754107D01*
X50335306Y-43882460D01*
X50335305Y-43882462D01*
X50305693Y-43929589D01*
X50253358Y-43975879D01*
X50184305Y-43986527D01*
X50120457Y-43958152D01*
X50082085Y-43899762D01*
X50076700Y-43863616D01*
X50076700Y-41499996D01*
X55414403Y-41499996D01*
X55414403Y-41500003D01*
X55434724Y-41680369D01*
X55434725Y-41680374D01*
X55494677Y-41851706D01*
X55591249Y-42005398D01*
X55719601Y-42133750D01*
X55849414Y-42215318D01*
X55873295Y-42230323D01*
X55939937Y-42253642D01*
X56044625Y-42290274D01*
X56044630Y-42290275D01*
X56224996Y-42310597D01*
X56225000Y-42310597D01*
X56225004Y-42310597D01*
X56405369Y-42290275D01*
X56405372Y-42290274D01*
X56405375Y-42290274D01*
X56576705Y-42230323D01*
X56730399Y-42133750D01*
X56858750Y-42005399D01*
X56955323Y-41851705D01*
X57015274Y-41680375D01*
X57017202Y-41663265D01*
X57035597Y-41500003D01*
X57035597Y-41499996D01*
X57015275Y-41319630D01*
X57015274Y-41319625D01*
X57003047Y-41284682D01*
X56955323Y-41148295D01*
X56945313Y-41132365D01*
X56858750Y-40994601D01*
X56730398Y-40866249D01*
X56576706Y-40769677D01*
X56405374Y-40709725D01*
X56405369Y-40709724D01*
X56225004Y-40689403D01*
X56224996Y-40689403D01*
X56044630Y-40709724D01*
X56044625Y-40709725D01*
X55873293Y-40769677D01*
X55719601Y-40866249D01*
X55591249Y-40994601D01*
X55494677Y-41148293D01*
X55434725Y-41319625D01*
X55434724Y-41319630D01*
X55414403Y-41499996D01*
X50076700Y-41499996D01*
X50076700Y-39553714D01*
X50096385Y-39486675D01*
X50149189Y-39440920D01*
X50218347Y-39430976D01*
X50232777Y-39433935D01*
X50299075Y-39451700D01*
X50299076Y-39451700D01*
X54386683Y-39451700D01*
X54452654Y-39470705D01*
X54556654Y-39536053D01*
X54711733Y-39590317D01*
X54711734Y-39590317D01*
X54711738Y-39590318D01*
X54874996Y-39608713D01*
X54875000Y-39608713D01*
X54875004Y-39608713D01*
X55038261Y-39590318D01*
X55038263Y-39590317D01*
X55038267Y-39590317D01*
X55193346Y-39536053D01*
X55332463Y-39448640D01*
X55448640Y-39332463D01*
X55536053Y-39193346D01*
X55590317Y-39038267D01*
X55592808Y-39016162D01*
X55608713Y-38875003D01*
X55608713Y-38874996D01*
X55590318Y-38711738D01*
X55590317Y-38711734D01*
X55577288Y-38674500D01*
X55536053Y-38556654D01*
X55448640Y-38417537D01*
X55332463Y-38301360D01*
X55250729Y-38250003D01*
X55193347Y-38213947D01*
X55038265Y-38159682D01*
X55038261Y-38159681D01*
X54916353Y-38145946D01*
X54851939Y-38118880D01*
X54812383Y-38061285D01*
X54807017Y-38008836D01*
X54808013Y-38000000D01*
X54807980Y-37999710D01*
X54789618Y-37836738D01*
X54789617Y-37836734D01*
X54763909Y-37763265D01*
X54735353Y-37681654D01*
X54647940Y-37542537D01*
X54622324Y-37516921D01*
X54588839Y-37455598D01*
X54593823Y-37385906D01*
X54635695Y-37329973D01*
X54696121Y-37306020D01*
X54719063Y-37303435D01*
X54835870Y-37290275D01*
X54835873Y-37290274D01*
X54835875Y-37290274D01*
X55007205Y-37230323D01*
X55160899Y-37133750D01*
X55289250Y-37005399D01*
X55385823Y-36851705D01*
X55445774Y-36680375D01*
X55445775Y-36680369D01*
X55466097Y-36500003D01*
X55466097Y-36499996D01*
X55445775Y-36319630D01*
X55445774Y-36319625D01*
X55433547Y-36284682D01*
X55385823Y-36148295D01*
X55289250Y-35994601D01*
X55160899Y-35866250D01*
X55160898Y-35866249D01*
X55007206Y-35769677D01*
X54835874Y-35709725D01*
X54835869Y-35709724D01*
X54655504Y-35689403D01*
X54655496Y-35689403D01*
X54475130Y-35709724D01*
X54475125Y-35709725D01*
X54303793Y-35769677D01*
X54150101Y-35866249D01*
X54021749Y-35994601D01*
X53925177Y-36148293D01*
X53865225Y-36319625D01*
X53865224Y-36319630D01*
X53844903Y-36499996D01*
X53844903Y-36500003D01*
X53863654Y-36666429D01*
X53851599Y-36735251D01*
X53804250Y-36786630D01*
X53736640Y-36804254D01*
X53699481Y-36797354D01*
X53663269Y-36784683D01*
X53663261Y-36784681D01*
X53500004Y-36766287D01*
X53499996Y-36766287D01*
X53377245Y-36780117D01*
X53308423Y-36768062D01*
X53275681Y-36744578D01*
X53207463Y-36676360D01*
X53068347Y-36588947D01*
X52913265Y-36534682D01*
X52913261Y-36534681D01*
X52750004Y-36516287D01*
X52749996Y-36516287D01*
X52627245Y-36530117D01*
X52558423Y-36518062D01*
X52525681Y-36494578D01*
X52457463Y-36426360D01*
X52318347Y-36338947D01*
X52163265Y-36284682D01*
X52163261Y-36284681D01*
X52000004Y-36266287D01*
X51999996Y-36266287D01*
X51837044Y-36284647D01*
X51768222Y-36272592D01*
X51716843Y-36225243D01*
X51706121Y-36202386D01*
X51658781Y-36067095D01*
X51562208Y-35913401D01*
X51433857Y-35785050D01*
X51433856Y-35785049D01*
X51280164Y-35688477D01*
X51108832Y-35628525D01*
X51108827Y-35628524D01*
X50928462Y-35608203D01*
X50928454Y-35608203D01*
X50748088Y-35628524D01*
X50748083Y-35628525D01*
X50576751Y-35688477D01*
X50423059Y-35785049D01*
X50294707Y-35913401D01*
X50198133Y-36067097D01*
X50156222Y-36186872D01*
X50115501Y-36243648D01*
X50050548Y-36269395D01*
X50025297Y-36269137D01*
X50000003Y-36266287D01*
X49999996Y-36266287D01*
X49836738Y-36284681D01*
X49836734Y-36284682D01*
X49681652Y-36338947D01*
X49542536Y-36426360D01*
X49479918Y-36488979D01*
X49418595Y-36522464D01*
X49348903Y-36517480D01*
X49304556Y-36488979D01*
X48764712Y-35949135D01*
X48731227Y-35887812D01*
X48736211Y-35818120D01*
X48778083Y-35762187D01*
X48811441Y-35744412D01*
X48851702Y-35730324D01*
X48851701Y-35730324D01*
X48851705Y-35730323D01*
X49005399Y-35633750D01*
X49133750Y-35505399D01*
X49230323Y-35351705D01*
X49290274Y-35180375D01*
X49294932Y-35139032D01*
X49310597Y-35000003D01*
X49310597Y-34999996D01*
X49290275Y-34819630D01*
X49290274Y-34819625D01*
X49278047Y-34784682D01*
X49230323Y-34648295D01*
X49140486Y-34505322D01*
X49133750Y-34494601D01*
X49005398Y-34366249D01*
X48851706Y-34269677D01*
X48680374Y-34209725D01*
X48680369Y-34209724D01*
X48500004Y-34189403D01*
X48499996Y-34189403D01*
X48319630Y-34209724D01*
X48319625Y-34209725D01*
X48148293Y-34269677D01*
X47994601Y-34366249D01*
X47866249Y-34494601D01*
X47769675Y-34648297D01*
X47755586Y-34688561D01*
X47714864Y-34745337D01*
X47649911Y-34771084D01*
X47581350Y-34757627D01*
X47550864Y-34735287D01*
X47320904Y-34505327D01*
X47320898Y-34505322D01*
X47189400Y-34429402D01*
X47189399Y-34429401D01*
X47189398Y-34429401D01*
X47042724Y-34390100D01*
X47042723Y-34390100D01*
X39902898Y-34390100D01*
X39835859Y-34370415D01*
X39790104Y-34317611D01*
X39780160Y-34248453D01*
X39809185Y-34184897D01*
X39815217Y-34178419D01*
X40948440Y-33045196D01*
X42689403Y-33045196D01*
X42689403Y-33045203D01*
X42709724Y-33225569D01*
X42709725Y-33225574D01*
X42769677Y-33396906D01*
X42865631Y-33549614D01*
X42866250Y-33550599D01*
X42994601Y-33678950D01*
X43148295Y-33775523D01*
X43319625Y-33835474D01*
X43319630Y-33835475D01*
X43499996Y-33855797D01*
X43500000Y-33855797D01*
X43500004Y-33855797D01*
X43680369Y-33835475D01*
X43680372Y-33835474D01*
X43680375Y-33835474D01*
X43851705Y-33775523D01*
X44005399Y-33678950D01*
X44133750Y-33550599D01*
X44230323Y-33396905D01*
X44290274Y-33225575D01*
X44310597Y-33045200D01*
X44306112Y-33005398D01*
X44290275Y-32864830D01*
X44290274Y-32864825D01*
X44256327Y-32767810D01*
X44230323Y-32693495D01*
X44222078Y-32680374D01*
X44133750Y-32539801D01*
X44093945Y-32499996D01*
X55414403Y-32499996D01*
X55414403Y-32500003D01*
X55434724Y-32680369D01*
X55434725Y-32680374D01*
X55494677Y-32851706D01*
X55591249Y-33005398D01*
X55719601Y-33133750D01*
X55865738Y-33225575D01*
X55873295Y-33230323D01*
X56035751Y-33287169D01*
X56044625Y-33290274D01*
X56044630Y-33290275D01*
X56224996Y-33310597D01*
X56225000Y-33310597D01*
X56225004Y-33310597D01*
X56405369Y-33290275D01*
X56405372Y-33290274D01*
X56405375Y-33290274D01*
X56576705Y-33230323D01*
X56730399Y-33133750D01*
X56858750Y-33005399D01*
X56955323Y-32851705D01*
X57015274Y-32680375D01*
X57017202Y-32663265D01*
X57035597Y-32500003D01*
X57035597Y-32499996D01*
X57015275Y-32319630D01*
X57015274Y-32319625D01*
X56985523Y-32234603D01*
X56955323Y-32148295D01*
X56858750Y-31994601D01*
X56730399Y-31866250D01*
X56730398Y-31866249D01*
X56576706Y-31769677D01*
X56405374Y-31709725D01*
X56405369Y-31709724D01*
X56225004Y-31689403D01*
X56224996Y-31689403D01*
X56044630Y-31709724D01*
X56044625Y-31709725D01*
X55873293Y-31769677D01*
X55719601Y-31866249D01*
X55591249Y-31994601D01*
X55494677Y-32148293D01*
X55434725Y-32319625D01*
X55434724Y-32319630D01*
X55414403Y-32499996D01*
X44093945Y-32499996D01*
X44005398Y-32411449D01*
X43851706Y-32314877D01*
X43680374Y-32254925D01*
X43680369Y-32254924D01*
X43500004Y-32234603D01*
X43499996Y-32234603D01*
X43319630Y-32254924D01*
X43319625Y-32254925D01*
X43148293Y-32314877D01*
X42994601Y-32411449D01*
X42866249Y-32539801D01*
X42769677Y-32693493D01*
X42709725Y-32864825D01*
X42709724Y-32864830D01*
X42689403Y-33045196D01*
X40948440Y-33045196D01*
X43584217Y-30409419D01*
X43645540Y-30375934D01*
X43671898Y-30373100D01*
X48808463Y-30373100D01*
X48875502Y-30392785D01*
X48921257Y-30445589D01*
X48931201Y-30514747D01*
X48913457Y-30563072D01*
X48838947Y-30681652D01*
X48784682Y-30836734D01*
X48784681Y-30836738D01*
X48766287Y-30999996D01*
X48766287Y-31000003D01*
X48784681Y-31163261D01*
X48784682Y-31163265D01*
X48838947Y-31318347D01*
X48920816Y-31448640D01*
X48926360Y-31457463D01*
X49042537Y-31573640D01*
X49124821Y-31625343D01*
X49138201Y-31633750D01*
X49181654Y-31661053D01*
X49336733Y-31715317D01*
X49336734Y-31715317D01*
X49336738Y-31715318D01*
X49499996Y-31733713D01*
X49500000Y-31733713D01*
X49500004Y-31733713D01*
X49663261Y-31715318D01*
X49663263Y-31715317D01*
X49663267Y-31715317D01*
X49818346Y-31661053D01*
X49957463Y-31573640D01*
X50073640Y-31457463D01*
X50073640Y-31457462D01*
X50075203Y-31455900D01*
X50136526Y-31422415D01*
X50194972Y-31423805D01*
X50299075Y-31451700D01*
X50299076Y-31451700D01*
X54386683Y-31451700D01*
X54452654Y-31470705D01*
X54556654Y-31536053D01*
X54711733Y-31590317D01*
X54711734Y-31590317D01*
X54711738Y-31590318D01*
X54874996Y-31608713D01*
X54875000Y-31608713D01*
X54875004Y-31608713D01*
X55038261Y-31590318D01*
X55038263Y-31590317D01*
X55038267Y-31590317D01*
X55193346Y-31536053D01*
X55332463Y-31448640D01*
X55448640Y-31332463D01*
X55536053Y-31193346D01*
X55590317Y-31038267D01*
X55590318Y-31038261D01*
X55608713Y-30875003D01*
X55608713Y-30874996D01*
X55590318Y-30711738D01*
X55590317Y-30711734D01*
X55568118Y-30648293D01*
X55536053Y-30556654D01*
X55448640Y-30417537D01*
X55332463Y-30301360D01*
X55282040Y-30269677D01*
X55193347Y-30213947D01*
X55038265Y-30159682D01*
X55038261Y-30159681D01*
X54916353Y-30145946D01*
X54851939Y-30118880D01*
X54812383Y-30061285D01*
X54807017Y-30008836D01*
X54808013Y-30000000D01*
X54789617Y-29836733D01*
X54735353Y-29681654D01*
X54647940Y-29542537D01*
X54622324Y-29516921D01*
X54588839Y-29455598D01*
X54593823Y-29385906D01*
X54635695Y-29329973D01*
X54696121Y-29306020D01*
X54719063Y-29303435D01*
X54835870Y-29290275D01*
X54835873Y-29290274D01*
X54835875Y-29290274D01*
X55007205Y-29230323D01*
X55160899Y-29133750D01*
X55289250Y-29005399D01*
X55385823Y-28851705D01*
X55445774Y-28680375D01*
X55445775Y-28680369D01*
X55466097Y-28500003D01*
X55466097Y-28499996D01*
X55445775Y-28319630D01*
X55445774Y-28319625D01*
X55433547Y-28284682D01*
X55385823Y-28148295D01*
X55289250Y-27994601D01*
X55160899Y-27866250D01*
X55160898Y-27866249D01*
X55007206Y-27769677D01*
X54835874Y-27709725D01*
X54835869Y-27709724D01*
X54655504Y-27689403D01*
X54655496Y-27689403D01*
X54475130Y-27709724D01*
X54475125Y-27709725D01*
X54303793Y-27769677D01*
X54150101Y-27866249D01*
X54021749Y-27994601D01*
X53925177Y-28148293D01*
X53865225Y-28319625D01*
X53865224Y-28319630D01*
X53844903Y-28499996D01*
X53844903Y-28500003D01*
X53863654Y-28666429D01*
X53851599Y-28735251D01*
X53804250Y-28786630D01*
X53736640Y-28804254D01*
X53699481Y-28797354D01*
X53663269Y-28784683D01*
X53663261Y-28784681D01*
X53500004Y-28766287D01*
X53499996Y-28766287D01*
X53377245Y-28780117D01*
X53308423Y-28768062D01*
X53275681Y-28744578D01*
X53207463Y-28676360D01*
X53068347Y-28588947D01*
X52913265Y-28534682D01*
X52913261Y-28534681D01*
X52750004Y-28516287D01*
X52749996Y-28516287D01*
X52627245Y-28530117D01*
X52558423Y-28518062D01*
X52525681Y-28494578D01*
X52457463Y-28426360D01*
X52318347Y-28338947D01*
X52163265Y-28284682D01*
X52163261Y-28284681D01*
X52000004Y-28266287D01*
X51999996Y-28266287D01*
X51886521Y-28279072D01*
X51817699Y-28267017D01*
X51766320Y-28219668D01*
X51755596Y-28196806D01*
X51699381Y-28036153D01*
X51602808Y-27882459D01*
X51474456Y-27754107D01*
X51320764Y-27657535D01*
X51149432Y-27597583D01*
X51149427Y-27597582D01*
X50969062Y-27577261D01*
X50969054Y-27577261D01*
X50788688Y-27597582D01*
X50788683Y-27597583D01*
X50617351Y-27657535D01*
X50463659Y-27754107D01*
X50335306Y-27882460D01*
X50335305Y-27882462D01*
X50305693Y-27929589D01*
X50253358Y-27975879D01*
X50184305Y-27986527D01*
X50120457Y-27958152D01*
X50082085Y-27899762D01*
X50076700Y-27863616D01*
X50076700Y-23553714D01*
X50096385Y-23486675D01*
X50149189Y-23440920D01*
X50218347Y-23430976D01*
X50232777Y-23433935D01*
X50299075Y-23451700D01*
X50299076Y-23451700D01*
X54386683Y-23451700D01*
X54452655Y-23470706D01*
X54490683Y-23494601D01*
X54556654Y-23536053D01*
X54711733Y-23590317D01*
X54711734Y-23590317D01*
X54711738Y-23590318D01*
X54874996Y-23608713D01*
X54875000Y-23608713D01*
X54875004Y-23608713D01*
X55038261Y-23590318D01*
X55038263Y-23590317D01*
X55038267Y-23590317D01*
X55193346Y-23536053D01*
X55332463Y-23448640D01*
X55332467Y-23448635D01*
X55337906Y-23444299D01*
X55339731Y-23446587D01*
X55389516Y-23419360D01*
X55459211Y-23424297D01*
X55515173Y-23466130D01*
X55539634Y-23531578D01*
X55524829Y-23599861D01*
X55520951Y-23606479D01*
X55494677Y-23648294D01*
X55434725Y-23819625D01*
X55434724Y-23819630D01*
X55414403Y-23999996D01*
X55414403Y-24000003D01*
X55434724Y-24180369D01*
X55434725Y-24180374D01*
X55494677Y-24351706D01*
X55587859Y-24500003D01*
X55591250Y-24505399D01*
X55719601Y-24633750D01*
X55873295Y-24730323D01*
X56044625Y-24790274D01*
X56044630Y-24790275D01*
X56224996Y-24810597D01*
X56225000Y-24810597D01*
X56225004Y-24810597D01*
X56405369Y-24790275D01*
X56405372Y-24790274D01*
X56405375Y-24790274D01*
X56576705Y-24730323D01*
X56730399Y-24633750D01*
X56858750Y-24505399D01*
X56955323Y-24351705D01*
X57015274Y-24180375D01*
X57015275Y-24180369D01*
X57035597Y-24000003D01*
X57035597Y-23999996D01*
X57015275Y-23819630D01*
X57015274Y-23819625D01*
X56981419Y-23722873D01*
X56955323Y-23648295D01*
X56918893Y-23590318D01*
X56858750Y-23494601D01*
X56730398Y-23366249D01*
X56576706Y-23269677D01*
X56405374Y-23209725D01*
X56405369Y-23209724D01*
X56225004Y-23189403D01*
X56224996Y-23189403D01*
X56044630Y-23209724D01*
X56044625Y-23209725D01*
X55873293Y-23269677D01*
X55719603Y-23366248D01*
X55711609Y-23374242D01*
X55650284Y-23407724D01*
X55580593Y-23402737D01*
X55524661Y-23360864D01*
X55500247Y-23295398D01*
X55515101Y-23227126D01*
X55518925Y-23220603D01*
X55536053Y-23193346D01*
X55590317Y-23038267D01*
X55590318Y-23038261D01*
X55608713Y-22875003D01*
X55608713Y-22874996D01*
X55590318Y-22711738D01*
X55590317Y-22711734D01*
X55536052Y-22556652D01*
X55448639Y-22417536D01*
X55332463Y-22301360D01*
X55193347Y-22213947D01*
X55038265Y-22159682D01*
X55038261Y-22159681D01*
X54916353Y-22145946D01*
X54851939Y-22118880D01*
X54812383Y-22061285D01*
X54807017Y-22008836D01*
X54808013Y-22000000D01*
X54807578Y-21996140D01*
X54789618Y-21836738D01*
X54789617Y-21836734D01*
X54780471Y-21810597D01*
X54735353Y-21681654D01*
X54647940Y-21542537D01*
X54622324Y-21516921D01*
X54588839Y-21455598D01*
X54593823Y-21385906D01*
X54635695Y-21329973D01*
X54696121Y-21306020D01*
X54719063Y-21303435D01*
X54835870Y-21290275D01*
X54835873Y-21290274D01*
X54835875Y-21290274D01*
X55007205Y-21230323D01*
X55160899Y-21133750D01*
X55289250Y-21005399D01*
X55385823Y-20851705D01*
X55445774Y-20680375D01*
X55445775Y-20680369D01*
X55466097Y-20500003D01*
X55466097Y-20499996D01*
X55445775Y-20319630D01*
X55445774Y-20319625D01*
X55433547Y-20284682D01*
X55385823Y-20148295D01*
X55374530Y-20130323D01*
X55289250Y-19994601D01*
X55160898Y-19866249D01*
X55047507Y-19795000D01*
X57997422Y-19795000D01*
X58017943Y-19996819D01*
X58078669Y-20190364D01*
X58078676Y-20190379D01*
X58177118Y-20367738D01*
X58177121Y-20367743D01*
X58309255Y-20521660D01*
X58309256Y-20521662D01*
X58396182Y-20588947D01*
X58469672Y-20645832D01*
X58651799Y-20735170D01*
X58848182Y-20786017D01*
X59050780Y-20796292D01*
X59251299Y-20765573D01*
X59441530Y-20695120D01*
X59613684Y-20587815D01*
X59760715Y-20448052D01*
X59876601Y-20281553D01*
X59956600Y-20095135D01*
X59997435Y-19896429D01*
X59999377Y-19819630D01*
X60000000Y-19795014D01*
X60000000Y-19794985D01*
X59997975Y-19714924D01*
X59997435Y-19693571D01*
X59956600Y-19494865D01*
X59876601Y-19308447D01*
X59849616Y-19269677D01*
X59760715Y-19141948D01*
X59613685Y-19002186D01*
X59613684Y-19002185D01*
X59441530Y-18894880D01*
X59333391Y-18854830D01*
X59251300Y-18824427D01*
X59251294Y-18824426D01*
X59050781Y-18793708D01*
X59050780Y-18793708D01*
X58949481Y-18798845D01*
X58848181Y-18803983D01*
X58651798Y-18854830D01*
X58469668Y-18944170D01*
X58309256Y-19068337D01*
X58309255Y-19068339D01*
X58177121Y-19222256D01*
X58177118Y-19222261D01*
X58078676Y-19399620D01*
X58078669Y-19399635D01*
X58017943Y-19593180D01*
X57997422Y-19795000D01*
X55047507Y-19795000D01*
X55007206Y-19769677D01*
X54835874Y-19709725D01*
X54835869Y-19709724D01*
X54655504Y-19689403D01*
X54655496Y-19689403D01*
X54475130Y-19709724D01*
X54475125Y-19709725D01*
X54303793Y-19769677D01*
X54150101Y-19866249D01*
X54021749Y-19994601D01*
X53925177Y-20148293D01*
X53865225Y-20319625D01*
X53865224Y-20319630D01*
X53844903Y-20499996D01*
X53844903Y-20500003D01*
X53863654Y-20666429D01*
X53851599Y-20735251D01*
X53804250Y-20786630D01*
X53736640Y-20804254D01*
X53699481Y-20797354D01*
X53663269Y-20784683D01*
X53663261Y-20784681D01*
X53500004Y-20766287D01*
X53499996Y-20766287D01*
X53377245Y-20780117D01*
X53308423Y-20768062D01*
X53275681Y-20744578D01*
X53207463Y-20676360D01*
X53068347Y-20588947D01*
X52913265Y-20534682D01*
X52913261Y-20534681D01*
X52750004Y-20516287D01*
X52749996Y-20516287D01*
X52627245Y-20530117D01*
X52558423Y-20518062D01*
X52525681Y-20494578D01*
X52457463Y-20426360D01*
X52318347Y-20338947D01*
X52163265Y-20284682D01*
X52163261Y-20284681D01*
X52000004Y-20266287D01*
X51999996Y-20266287D01*
X51886521Y-20279072D01*
X51817699Y-20267017D01*
X51766320Y-20219668D01*
X51755596Y-20196806D01*
X51699381Y-20036153D01*
X51602808Y-19882459D01*
X51474456Y-19754107D01*
X51320764Y-19657535D01*
X51149432Y-19597583D01*
X51149427Y-19597582D01*
X50969062Y-19577261D01*
X50969054Y-19577261D01*
X50788688Y-19597582D01*
X50788683Y-19597583D01*
X50617351Y-19657535D01*
X50463659Y-19754107D01*
X50335306Y-19882460D01*
X50335305Y-19882462D01*
X50305693Y-19929589D01*
X50253358Y-19975879D01*
X50184305Y-19986527D01*
X50120457Y-19958152D01*
X50082085Y-19899762D01*
X50076700Y-19863616D01*
X50076700Y-15553714D01*
X50096385Y-15486675D01*
X50149189Y-15440920D01*
X50218347Y-15430976D01*
X50232777Y-15433935D01*
X50299075Y-15451700D01*
X50299076Y-15451700D01*
X54386683Y-15451700D01*
X54452655Y-15470706D01*
X54529189Y-15518796D01*
X54556654Y-15536053D01*
X54711733Y-15590317D01*
X54711734Y-15590317D01*
X54711738Y-15590318D01*
X54874996Y-15608713D01*
X54875000Y-15608713D01*
X54875004Y-15608713D01*
X55038261Y-15590318D01*
X55038263Y-15590317D01*
X55038267Y-15590317D01*
X55193346Y-15536053D01*
X55236483Y-15508947D01*
X55303719Y-15489947D01*
X55370555Y-15510314D01*
X55415769Y-15563581D01*
X55425676Y-15600058D01*
X55434724Y-15680369D01*
X55434725Y-15680374D01*
X55494677Y-15851706D01*
X55591249Y-16005398D01*
X55719601Y-16133750D01*
X55837408Y-16207774D01*
X55873295Y-16230323D01*
X56013209Y-16279281D01*
X56044625Y-16290274D01*
X56044630Y-16290275D01*
X56224996Y-16310597D01*
X56225000Y-16310597D01*
X56225004Y-16310597D01*
X56405369Y-16290275D01*
X56405372Y-16290274D01*
X56405375Y-16290274D01*
X56576705Y-16230323D01*
X56730399Y-16133750D01*
X56858750Y-16005399D01*
X56955323Y-15851705D01*
X57015274Y-15680375D01*
X57015275Y-15680369D01*
X57035597Y-15500003D01*
X57035597Y-15499996D01*
X57015275Y-15319630D01*
X57015274Y-15319625D01*
X56986406Y-15237125D01*
X56955323Y-15148295D01*
X56945580Y-15132790D01*
X56858750Y-14994601D01*
X56730398Y-14866249D01*
X56576706Y-14769677D01*
X56405374Y-14709725D01*
X56405369Y-14709724D01*
X56225004Y-14689403D01*
X56224996Y-14689403D01*
X56044630Y-14709724D01*
X56044625Y-14709725D01*
X55873293Y-14769677D01*
X55782220Y-14826903D01*
X55714983Y-14845903D01*
X55648148Y-14825535D01*
X55602934Y-14772267D01*
X55593028Y-14735793D01*
X55590317Y-14711733D01*
X55536053Y-14556654D01*
X55448640Y-14417537D01*
X55332463Y-14301360D01*
X55250729Y-14250003D01*
X55193347Y-14213947D01*
X55038265Y-14159682D01*
X55038261Y-14159681D01*
X54916353Y-14145946D01*
X54851939Y-14118880D01*
X54812383Y-14061285D01*
X54807017Y-14008836D01*
X54808013Y-14000000D01*
X54806977Y-13990808D01*
X54789618Y-13836738D01*
X54789617Y-13836734D01*
X54785035Y-13823640D01*
X54735353Y-13681654D01*
X54647940Y-13542537D01*
X54531763Y-13426360D01*
X54392647Y-13338947D01*
X54315000Y-13311777D01*
X54247822Y-13288271D01*
X54191047Y-13247550D01*
X54171735Y-13212182D01*
X54161054Y-13181656D01*
X54161053Y-13181653D01*
X54073639Y-13042536D01*
X53957463Y-12926360D01*
X53818347Y-12838947D01*
X53663265Y-12784682D01*
X53663261Y-12784681D01*
X53500004Y-12766287D01*
X53499996Y-12766287D01*
X53377245Y-12780117D01*
X53308423Y-12768062D01*
X53275681Y-12744578D01*
X53207463Y-12676360D01*
X53068347Y-12588947D01*
X52913265Y-12534682D01*
X52913261Y-12534681D01*
X52750004Y-12516287D01*
X52749996Y-12516287D01*
X52627245Y-12530117D01*
X52558423Y-12518062D01*
X52525681Y-12494578D01*
X52457463Y-12426360D01*
X52318347Y-12338947D01*
X52163265Y-12284682D01*
X52163261Y-12284681D01*
X52000004Y-12266287D01*
X51999996Y-12266287D01*
X51836738Y-12284681D01*
X51836734Y-12284682D01*
X51681652Y-12338947D01*
X51542536Y-12426360D01*
X51426360Y-12542536D01*
X51338947Y-12681652D01*
X51284682Y-12836734D01*
X51284681Y-12836738D01*
X51266287Y-12999996D01*
X51266287Y-13000003D01*
X51284681Y-13163261D01*
X51284682Y-13163265D01*
X51338947Y-13318347D01*
X51344464Y-13327127D01*
X51426360Y-13457463D01*
X51542537Y-13573640D01*
X51681654Y-13661053D01*
X51836733Y-13715317D01*
X51836734Y-13715317D01*
X51836738Y-13715318D01*
X51999996Y-13733713D01*
X52000000Y-13733713D01*
X52000003Y-13733713D01*
X52122753Y-13719882D01*
X52191575Y-13731936D01*
X52224318Y-13755421D01*
X52292537Y-13823640D01*
X52431654Y-13911053D01*
X52586733Y-13965317D01*
X52586734Y-13965317D01*
X52586738Y-13965318D01*
X52749996Y-13983713D01*
X52750000Y-13983713D01*
X52750003Y-13983713D01*
X52872753Y-13969882D01*
X52941575Y-13981936D01*
X52974318Y-14005421D01*
X53042537Y-14073640D01*
X53042541Y-14073643D01*
X53047196Y-14077355D01*
X53087334Y-14134545D01*
X53090182Y-14204357D01*
X53054835Y-14264625D01*
X52992515Y-14296217D01*
X52969880Y-14298300D01*
X50665239Y-14298300D01*
X50598200Y-14278615D01*
X50577558Y-14261981D01*
X50503998Y-14188421D01*
X50470513Y-14127098D01*
X50468460Y-14114637D01*
X50465317Y-14086733D01*
X50411053Y-13931654D01*
X50323640Y-13792537D01*
X50207463Y-13676360D01*
X50183102Y-13661053D01*
X50068347Y-13588947D01*
X49913265Y-13534682D01*
X49913261Y-13534681D01*
X49750004Y-13516287D01*
X49749996Y-13516287D01*
X49586738Y-13534681D01*
X49586734Y-13534682D01*
X49431652Y-13588947D01*
X49292536Y-13676360D01*
X49176360Y-13792536D01*
X49088947Y-13931652D01*
X49034682Y-14086734D01*
X49034681Y-14086738D01*
X49016287Y-14249996D01*
X49016287Y-14250003D01*
X49030117Y-14372752D01*
X49018062Y-14441574D01*
X48994579Y-14474315D01*
X48926363Y-14542532D01*
X48926362Y-14542533D01*
X48838947Y-14681652D01*
X48784682Y-14836734D01*
X48784681Y-14836738D01*
X48766287Y-14999996D01*
X48766287Y-15000003D01*
X48784681Y-15163261D01*
X48784682Y-15163265D01*
X48838947Y-15318347D01*
X48904294Y-15422345D01*
X48923300Y-15488317D01*
X48923300Y-18119967D01*
X48903615Y-18187006D01*
X48850811Y-18232761D01*
X48781653Y-18242705D01*
X48758345Y-18237008D01*
X48680382Y-18209727D01*
X48680369Y-18209724D01*
X48500004Y-18189403D01*
X48499996Y-18189403D01*
X48319630Y-18209724D01*
X48319625Y-18209725D01*
X48148293Y-18269677D01*
X47994601Y-18366249D01*
X47866249Y-18494601D01*
X47769677Y-18648293D01*
X47709725Y-18819625D01*
X47709724Y-18819630D01*
X47689403Y-18999996D01*
X47689403Y-19000003D01*
X47709724Y-19180369D01*
X47709725Y-19180374D01*
X47769677Y-19351706D01*
X47866249Y-19505398D01*
X47994601Y-19633750D01*
X48123787Y-19714924D01*
X48148295Y-19730323D01*
X48241655Y-19762991D01*
X48319625Y-19790274D01*
X48319630Y-19790275D01*
X48499996Y-19810597D01*
X48500000Y-19810597D01*
X48500004Y-19810597D01*
X48680369Y-19790275D01*
X48680372Y-19790274D01*
X48680375Y-19790274D01*
X48680376Y-19790273D01*
X48680379Y-19790273D01*
X48717109Y-19777420D01*
X48758345Y-19762990D01*
X48828123Y-19759428D01*
X48888751Y-19794157D01*
X48920978Y-19856150D01*
X48923300Y-19880032D01*
X48923300Y-20424076D01*
X48923300Y-20575924D01*
X48955238Y-20695120D01*
X48962602Y-20722600D01*
X48962602Y-20722601D01*
X49038522Y-20854098D01*
X49038527Y-20854104D01*
X49219712Y-21035289D01*
X49253197Y-21096612D01*
X49248213Y-21166304D01*
X49219712Y-21210651D01*
X48612698Y-21817666D01*
X48505327Y-21925036D01*
X48505322Y-21925042D01*
X48429402Y-22056539D01*
X48429402Y-22056540D01*
X48429401Y-22056542D01*
X48429401Y-22056543D01*
X48412698Y-22118880D01*
X48390100Y-22203217D01*
X48390100Y-23488901D01*
X48370415Y-23555940D01*
X48353781Y-23576582D01*
X43510637Y-28419726D01*
X43449314Y-28453211D01*
X43379622Y-28448227D01*
X43335275Y-28419726D01*
X43281798Y-28366249D01*
X43128106Y-28269677D01*
X42956774Y-28209725D01*
X42956769Y-28209724D01*
X42776404Y-28189403D01*
X42776396Y-28189403D01*
X42596030Y-28209724D01*
X42596025Y-28209725D01*
X42424693Y-28269677D01*
X42271001Y-28366249D01*
X42142649Y-28494601D01*
X42046077Y-28648293D01*
X41986125Y-28819625D01*
X41986124Y-28819630D01*
X41965803Y-28999996D01*
X41965803Y-29000003D01*
X41986124Y-29180369D01*
X41986125Y-29180374D01*
X42046077Y-29351706D01*
X42142649Y-29505398D01*
X42196126Y-29558875D01*
X42229611Y-29620198D01*
X42224627Y-29689890D01*
X42196126Y-29734237D01*
X37043383Y-34886981D01*
X36982060Y-34920466D01*
X36955702Y-34923300D01*
X34988317Y-34923300D01*
X34922345Y-34904294D01*
X34818347Y-34838947D01*
X34663265Y-34784682D01*
X34663261Y-34784681D01*
X34500004Y-34766287D01*
X34499996Y-34766287D01*
X34336738Y-34784681D01*
X34336734Y-34784682D01*
X34181652Y-34838947D01*
X34042536Y-34926360D01*
X33926360Y-35042536D01*
X33838948Y-35181651D01*
X33784681Y-35336736D01*
X33783595Y-35346383D01*
X33756529Y-35410797D01*
X33698934Y-35450352D01*
X33660375Y-35456500D01*
X33038646Y-35456500D01*
X32971607Y-35436815D01*
X32961330Y-35429444D01*
X32957464Y-35426361D01*
X32957463Y-35426360D01*
X32905760Y-35393872D01*
X32818347Y-35338947D01*
X32663265Y-35284682D01*
X32663261Y-35284681D01*
X32500004Y-35266287D01*
X32499996Y-35266287D01*
X32336738Y-35284681D01*
X32336734Y-35284682D01*
X32181652Y-35338947D01*
X32042536Y-35426360D01*
X31926360Y-35542536D01*
X31838947Y-35681652D01*
X31784682Y-35836734D01*
X31784681Y-35836738D01*
X31766287Y-35999996D01*
X31766287Y-36000003D01*
X31784681Y-36163261D01*
X31784682Y-36163265D01*
X31838947Y-36318347D01*
X31838947Y-36318348D01*
X31848799Y-36334026D01*
X31867800Y-36401263D01*
X31848802Y-36465968D01*
X31838946Y-36481653D01*
X31784682Y-36636733D01*
X31784681Y-36636737D01*
X31766287Y-36799995D01*
X31766287Y-36800002D01*
X31784681Y-36963260D01*
X31784682Y-36963264D01*
X31838947Y-37118346D01*
X31849779Y-37135585D01*
X31868779Y-37202822D01*
X31849781Y-37267523D01*
X31840903Y-37281654D01*
X31840903Y-37281655D01*
X31840901Y-37281658D01*
X31786638Y-37436734D01*
X31786637Y-37436738D01*
X31768243Y-37599996D01*
X31768243Y-37600003D01*
X31786637Y-37763261D01*
X31786638Y-37763265D01*
X31840903Y-37918347D01*
X31849779Y-37932473D01*
X31868779Y-37999710D01*
X31849779Y-38064415D01*
X31838947Y-38081653D01*
X31784681Y-38236740D01*
X31783517Y-38241839D01*
X31749401Y-38302813D01*
X31703585Y-38331273D01*
X31681652Y-38338947D01*
X31681651Y-38338948D01*
X31542536Y-38426360D01*
X31426360Y-38542536D01*
X31338947Y-38681652D01*
X31284682Y-38836734D01*
X31284681Y-38836738D01*
X31266287Y-38999996D01*
X30054671Y-38999996D01*
X30038855Y-38949485D01*
X30056717Y-38883125D01*
X30143478Y-38739606D01*
X30194086Y-38577196D01*
X30200500Y-38506616D01*
X30200500Y-37993384D01*
X30194086Y-37922804D01*
X30143478Y-37760394D01*
X30055472Y-37614815D01*
X30055470Y-37614813D01*
X30055469Y-37614811D01*
X29935188Y-37494530D01*
X29891876Y-37468347D01*
X29789606Y-37406522D01*
X29627196Y-37355914D01*
X29627194Y-37355913D01*
X29627192Y-37355913D01*
X29577778Y-37351423D01*
X29556616Y-37349500D01*
X28543384Y-37349500D01*
X28524145Y-37351248D01*
X28472807Y-37355913D01*
X28310393Y-37406522D01*
X28164811Y-37494530D01*
X28044530Y-37614811D01*
X27956522Y-37760393D01*
X27905913Y-37922807D01*
X27899500Y-37993386D01*
X27000000Y-37993386D01*
X27000000Y-32229555D01*
X27589403Y-32229555D01*
X27589403Y-32229562D01*
X27609724Y-32409928D01*
X27609725Y-32409933D01*
X27669677Y-32581265D01*
X27756095Y-32718797D01*
X27766250Y-32734958D01*
X27894601Y-32863309D01*
X28048295Y-32959882D01*
X28081992Y-32971673D01*
X28219625Y-33019833D01*
X28219630Y-33019834D01*
X28399996Y-33040156D01*
X28400000Y-33040156D01*
X28400004Y-33040156D01*
X28580369Y-33019834D01*
X28580372Y-33019833D01*
X28580375Y-33019833D01*
X28751705Y-32959882D01*
X28905399Y-32863309D01*
X29033750Y-32734958D01*
X29130323Y-32581264D01*
X29158760Y-32499996D01*
X32766287Y-32499996D01*
X32766287Y-32500003D01*
X32784681Y-32663261D01*
X32784682Y-32663265D01*
X32838947Y-32818347D01*
X32906908Y-32926505D01*
X32926360Y-32957463D01*
X33042537Y-33073640D01*
X33124821Y-33125343D01*
X33138201Y-33133750D01*
X33181654Y-33161053D01*
X33336733Y-33215317D01*
X33336734Y-33215317D01*
X33336738Y-33215318D01*
X33499996Y-33233713D01*
X33500000Y-33233713D01*
X33500004Y-33233713D01*
X33663261Y-33215318D01*
X33663263Y-33215317D01*
X33663267Y-33215317D01*
X33818346Y-33161053D01*
X33957463Y-33073640D01*
X34073640Y-32957463D01*
X34161053Y-32818346D01*
X34215317Y-32663267D01*
X34215318Y-32663261D01*
X34233713Y-32500003D01*
X34233713Y-32499996D01*
X34215318Y-32336738D01*
X34215317Y-32336734D01*
X34209330Y-32319625D01*
X34161053Y-32181654D01*
X34073640Y-32042537D01*
X33957463Y-31926360D01*
X33818347Y-31838947D01*
X33663265Y-31784682D01*
X33663261Y-31784681D01*
X33500004Y-31766287D01*
X33499996Y-31766287D01*
X33336738Y-31784681D01*
X33336734Y-31784682D01*
X33181652Y-31838947D01*
X33042536Y-31926360D01*
X32926360Y-32042536D01*
X32838947Y-32181652D01*
X32784682Y-32336734D01*
X32784681Y-32336738D01*
X32766287Y-32499996D01*
X29158760Y-32499996D01*
X29190274Y-32409934D01*
X29200083Y-32322876D01*
X29210597Y-32229562D01*
X29210597Y-32229555D01*
X29190275Y-32049189D01*
X29190274Y-32049184D01*
X29187948Y-32042536D01*
X29130323Y-31877854D01*
X29075292Y-31790274D01*
X29033750Y-31724160D01*
X28905398Y-31595808D01*
X28751706Y-31499236D01*
X28580374Y-31439284D01*
X28580369Y-31439283D01*
X28400004Y-31418962D01*
X28399996Y-31418962D01*
X28219630Y-31439283D01*
X28219625Y-31439284D01*
X28048293Y-31499236D01*
X27894601Y-31595808D01*
X27766249Y-31724160D01*
X27669677Y-31877852D01*
X27609725Y-32049184D01*
X27609724Y-32049189D01*
X27589403Y-32229555D01*
X27000000Y-32229555D01*
X27000000Y-30999996D01*
X38189403Y-30999996D01*
X38189403Y-31000003D01*
X38209724Y-31180369D01*
X38209725Y-31180374D01*
X38269677Y-31351706D01*
X38366249Y-31505398D01*
X38494601Y-31633750D01*
X38638486Y-31724160D01*
X38648295Y-31730323D01*
X38751074Y-31766287D01*
X38819625Y-31790274D01*
X38819630Y-31790275D01*
X38999996Y-31810597D01*
X39000000Y-31810597D01*
X39000004Y-31810597D01*
X39180369Y-31790275D01*
X39180372Y-31790274D01*
X39180375Y-31790274D01*
X39351705Y-31730323D01*
X39505399Y-31633750D01*
X39633750Y-31505399D01*
X39730323Y-31351705D01*
X39790274Y-31180375D01*
X39792202Y-31163265D01*
X39810597Y-31000003D01*
X39810597Y-30999996D01*
X39790275Y-30819630D01*
X39790274Y-30819625D01*
X39730323Y-30648295D01*
X39676773Y-30563072D01*
X39633750Y-30494601D01*
X39505398Y-30366249D01*
X39351706Y-30269677D01*
X39180374Y-30209725D01*
X39180369Y-30209724D01*
X39000004Y-30189403D01*
X38999996Y-30189403D01*
X38819630Y-30209724D01*
X38819625Y-30209725D01*
X38648293Y-30269677D01*
X38494601Y-30366249D01*
X38366249Y-30494601D01*
X38269677Y-30648293D01*
X38209725Y-30819625D01*
X38209724Y-30819630D01*
X38189403Y-30999996D01*
X27000000Y-30999996D01*
X27000000Y-27499996D01*
X29266287Y-27499996D01*
X29266287Y-27500003D01*
X29284681Y-27663261D01*
X29284682Y-27663265D01*
X29338947Y-27818347D01*
X29426360Y-27957463D01*
X29542537Y-28073640D01*
X29624821Y-28125343D01*
X29661349Y-28148295D01*
X29681654Y-28161053D01*
X29836733Y-28215317D01*
X29836734Y-28215317D01*
X29836738Y-28215318D01*
X29999996Y-28233713D01*
X30000000Y-28233713D01*
X30000004Y-28233713D01*
X30163261Y-28215318D01*
X30163263Y-28215317D01*
X30163267Y-28215317D01*
X30318346Y-28161053D01*
X30457463Y-28073640D01*
X30573640Y-27957463D01*
X30661053Y-27818346D01*
X30715317Y-27663267D01*
X30715318Y-27663261D01*
X30733713Y-27500003D01*
X30733713Y-27499996D01*
X30715318Y-27336738D01*
X30715317Y-27336734D01*
X30708883Y-27318347D01*
X30661053Y-27181654D01*
X30649498Y-27163265D01*
X30573639Y-27042536D01*
X30531099Y-26999996D01*
X39766287Y-26999996D01*
X39766287Y-27000003D01*
X39784681Y-27163261D01*
X39784682Y-27163265D01*
X39838947Y-27318347D01*
X39850503Y-27336738D01*
X39926360Y-27457463D01*
X40042537Y-27573640D01*
X40181654Y-27661053D01*
X40336733Y-27715317D01*
X40336734Y-27715317D01*
X40336738Y-27715318D01*
X40499996Y-27733713D01*
X40500000Y-27733713D01*
X40500004Y-27733713D01*
X40663261Y-27715318D01*
X40663263Y-27715317D01*
X40663267Y-27715317D01*
X40818346Y-27661053D01*
X40957463Y-27573640D01*
X41073640Y-27457463D01*
X41161053Y-27318346D01*
X41215317Y-27163267D01*
X41215318Y-27163261D01*
X41233713Y-27000003D01*
X41233713Y-26999996D01*
X41215318Y-26836738D01*
X41215317Y-26836734D01*
X41197103Y-26784682D01*
X41161053Y-26681654D01*
X41073640Y-26542537D01*
X40957463Y-26426360D01*
X40818347Y-26338947D01*
X40663265Y-26284682D01*
X40663261Y-26284681D01*
X40500004Y-26266287D01*
X40499996Y-26266287D01*
X40336738Y-26284681D01*
X40336734Y-26284682D01*
X40181652Y-26338947D01*
X40042536Y-26426360D01*
X39926360Y-26542536D01*
X39838947Y-26681652D01*
X39784682Y-26836734D01*
X39784681Y-26836738D01*
X39766287Y-26999996D01*
X30531099Y-26999996D01*
X30457463Y-26926360D01*
X30318347Y-26838947D01*
X30163265Y-26784682D01*
X30163261Y-26784681D01*
X30000004Y-26766287D01*
X29999996Y-26766287D01*
X29836738Y-26784681D01*
X29836734Y-26784682D01*
X29681652Y-26838947D01*
X29542536Y-26926360D01*
X29426360Y-27042536D01*
X29338947Y-27181652D01*
X29284682Y-27336734D01*
X29284681Y-27336738D01*
X29266287Y-27499996D01*
X27000000Y-27499996D01*
X27000000Y-24499996D01*
X43399503Y-24499996D01*
X43399503Y-24500003D01*
X43419824Y-24680369D01*
X43419825Y-24680374D01*
X43479777Y-24851706D01*
X43576349Y-25005398D01*
X43576350Y-25005399D01*
X43704701Y-25133750D01*
X43858395Y-25230323D01*
X44029725Y-25290274D01*
X44029730Y-25290275D01*
X44210096Y-25310597D01*
X44210100Y-25310597D01*
X44210104Y-25310597D01*
X44390469Y-25290275D01*
X44390472Y-25290274D01*
X44390475Y-25290274D01*
X44561805Y-25230323D01*
X44715499Y-25133750D01*
X44843850Y-25005399D01*
X44940423Y-24851705D01*
X45000374Y-24680375D01*
X45005124Y-24638218D01*
X45020697Y-24500003D01*
X45020697Y-24499996D01*
X45000375Y-24319630D01*
X45000374Y-24319625D01*
X44975836Y-24249499D01*
X44940423Y-24148295D01*
X44933140Y-24136705D01*
X44843850Y-23994601D01*
X44715498Y-23866249D01*
X44561806Y-23769677D01*
X44390474Y-23709725D01*
X44390469Y-23709724D01*
X44210104Y-23689403D01*
X44210096Y-23689403D01*
X44029730Y-23709724D01*
X44029725Y-23709725D01*
X43858393Y-23769677D01*
X43704701Y-23866249D01*
X43576349Y-23994601D01*
X43479777Y-24148293D01*
X43419825Y-24319625D01*
X43419824Y-24319630D01*
X43399503Y-24499996D01*
X27000000Y-24499996D01*
X27000000Y-24249499D01*
X27019685Y-24182460D01*
X27072489Y-24136705D01*
X27123995Y-24125499D01*
X29422872Y-24125499D01*
X29482483Y-24119091D01*
X29617331Y-24068796D01*
X29732546Y-23982546D01*
X29818796Y-23867331D01*
X29869091Y-23732483D01*
X29875500Y-23672873D01*
X29875499Y-22500000D01*
X33119474Y-22500000D01*
X33139547Y-22755064D01*
X33199279Y-23003864D01*
X33297188Y-23240239D01*
X33297190Y-23240242D01*
X33430875Y-23458396D01*
X33430878Y-23458401D01*
X33456928Y-23488901D01*
X33597044Y-23652956D01*
X33721579Y-23759319D01*
X33791598Y-23819121D01*
X33791600Y-23819122D01*
X33791601Y-23819123D01*
X33870276Y-23867335D01*
X34009757Y-23952809D01*
X34009760Y-23952811D01*
X34246135Y-24050720D01*
X34246140Y-24050722D01*
X34494930Y-24110452D01*
X34750000Y-24130526D01*
X35005070Y-24110452D01*
X35253860Y-24050722D01*
X35389348Y-23994601D01*
X35490239Y-23952811D01*
X35490240Y-23952810D01*
X35490243Y-23952809D01*
X35708399Y-23819123D01*
X35902956Y-23652956D01*
X36069123Y-23458399D01*
X36202809Y-23240243D01*
X36208243Y-23227126D01*
X36286471Y-23038265D01*
X36300722Y-23003860D01*
X36360452Y-22755070D01*
X36380526Y-22500000D01*
X36360452Y-22244930D01*
X36300722Y-21996140D01*
X36272139Y-21927135D01*
X36202811Y-21759760D01*
X36202809Y-21759757D01*
X36115604Y-21617452D01*
X36069123Y-21541601D01*
X36069122Y-21541600D01*
X36069121Y-21541598D01*
X35936147Y-21385906D01*
X35902956Y-21347044D01*
X35743260Y-21210651D01*
X35708401Y-21180878D01*
X35708396Y-21180875D01*
X35490243Y-21047190D01*
X35376306Y-20999996D01*
X41689403Y-20999996D01*
X41689403Y-21000003D01*
X41709724Y-21180369D01*
X41709725Y-21180374D01*
X41769677Y-21351706D01*
X41866249Y-21505398D01*
X41994601Y-21633750D01*
X42146631Y-21729278D01*
X42148295Y-21730323D01*
X42232421Y-21759760D01*
X42319625Y-21790274D01*
X42319630Y-21790275D01*
X42499996Y-21810597D01*
X42500000Y-21810597D01*
X42500004Y-21810597D01*
X42680369Y-21790275D01*
X42680372Y-21790274D01*
X42680375Y-21790274D01*
X42851705Y-21730323D01*
X43005399Y-21633750D01*
X43133750Y-21505399D01*
X43230323Y-21351705D01*
X43290274Y-21180375D01*
X43290275Y-21180369D01*
X43310597Y-21000003D01*
X43310597Y-20999996D01*
X43290275Y-20819630D01*
X43290274Y-20819625D01*
X43279947Y-20790112D01*
X43230323Y-20648295D01*
X43228775Y-20645832D01*
X43133750Y-20494601D01*
X43005398Y-20366249D01*
X42851706Y-20269677D01*
X42680374Y-20209725D01*
X42680369Y-20209724D01*
X42500004Y-20189403D01*
X42499996Y-20189403D01*
X42319630Y-20209724D01*
X42319625Y-20209725D01*
X42148293Y-20269677D01*
X41994601Y-20366249D01*
X41866249Y-20494601D01*
X41769677Y-20648293D01*
X41709725Y-20819625D01*
X41709724Y-20819630D01*
X41689403Y-20999996D01*
X35376306Y-20999996D01*
X35312242Y-20973460D01*
X35257839Y-20929619D01*
X35235774Y-20863325D01*
X35253053Y-20795625D01*
X35304191Y-20748015D01*
X35318743Y-20741857D01*
X35351702Y-20730324D01*
X35351701Y-20730324D01*
X35351705Y-20730323D01*
X35505399Y-20633750D01*
X35633750Y-20505399D01*
X35730323Y-20351705D01*
X35790274Y-20180375D01*
X35790275Y-20180369D01*
X35810597Y-20000003D01*
X35810597Y-19999996D01*
X35790275Y-19819630D01*
X35790274Y-19819625D01*
X35769210Y-19759428D01*
X35730323Y-19648295D01*
X35633750Y-19494601D01*
X35539145Y-19399996D01*
X38589403Y-19399996D01*
X38589403Y-19400003D01*
X38609724Y-19580369D01*
X38609725Y-19580374D01*
X38669677Y-19751706D01*
X38762708Y-19899762D01*
X38766250Y-19905399D01*
X38894601Y-20033750D01*
X39048295Y-20130323D01*
X39191335Y-20180375D01*
X39219625Y-20190274D01*
X39219630Y-20190275D01*
X39399996Y-20210597D01*
X39400000Y-20210597D01*
X39400004Y-20210597D01*
X39580369Y-20190275D01*
X39580372Y-20190274D01*
X39580375Y-20190274D01*
X39751705Y-20130323D01*
X39905399Y-20033750D01*
X40033750Y-19905399D01*
X40130323Y-19751705D01*
X40190274Y-19580375D01*
X40198722Y-19505398D01*
X40210597Y-19400003D01*
X40210597Y-19399996D01*
X40190275Y-19219630D01*
X40190274Y-19219625D01*
X40167836Y-19155500D01*
X40130323Y-19048295D01*
X40126136Y-19041632D01*
X40033750Y-18894601D01*
X39905398Y-18766249D01*
X39751706Y-18669677D01*
X39580374Y-18609725D01*
X39580369Y-18609724D01*
X39400004Y-18589403D01*
X39399996Y-18589403D01*
X39219630Y-18609724D01*
X39219625Y-18609725D01*
X39048293Y-18669677D01*
X38894601Y-18766249D01*
X38766249Y-18894601D01*
X38669677Y-19048293D01*
X38609725Y-19219625D01*
X38609724Y-19219630D01*
X38589403Y-19399996D01*
X35539145Y-19399996D01*
X35505399Y-19366250D01*
X35505398Y-19366249D01*
X35351706Y-19269677D01*
X35180374Y-19209725D01*
X35180369Y-19209724D01*
X35000004Y-19189403D01*
X34999996Y-19189403D01*
X34819630Y-19209724D01*
X34819625Y-19209725D01*
X34648293Y-19269677D01*
X34494601Y-19366249D01*
X34366249Y-19494601D01*
X34269677Y-19648293D01*
X34209725Y-19819625D01*
X34209724Y-19819630D01*
X34189403Y-19999996D01*
X34189403Y-20000003D01*
X34209724Y-20180369D01*
X34209725Y-20180374D01*
X34269677Y-20351706D01*
X34366249Y-20505398D01*
X34494601Y-20633750D01*
X34540053Y-20662310D01*
X34586344Y-20714645D01*
X34596992Y-20783699D01*
X34568617Y-20847547D01*
X34510227Y-20885919D01*
X34499654Y-20888355D01*
X34499668Y-20888411D01*
X34494933Y-20889547D01*
X34494930Y-20889548D01*
X34341599Y-20926360D01*
X34246135Y-20949279D01*
X34009760Y-21047188D01*
X34009757Y-21047190D01*
X33791603Y-21180875D01*
X33791598Y-21180878D01*
X33597044Y-21347044D01*
X33430878Y-21541598D01*
X33430875Y-21541603D01*
X33297190Y-21759757D01*
X33297188Y-21759760D01*
X33199279Y-21996135D01*
X33198351Y-22000000D01*
X33146987Y-22213947D01*
X33139547Y-22244935D01*
X33119474Y-22500000D01*
X29875499Y-22500000D01*
X29875499Y-21327128D01*
X29869091Y-21267517D01*
X29855218Y-21230322D01*
X29818797Y-21132671D01*
X29818793Y-21132664D01*
X29732547Y-21017455D01*
X29732544Y-21017452D01*
X29617335Y-20931206D01*
X29617328Y-20931202D01*
X29482482Y-20880908D01*
X29482483Y-20880908D01*
X29422883Y-20874501D01*
X29422881Y-20874500D01*
X29422873Y-20874500D01*
X29422865Y-20874500D01*
X27124000Y-20874500D01*
X27056961Y-20854815D01*
X27011206Y-20802011D01*
X27000000Y-20750500D01*
X27000000Y-18253543D01*
X31679499Y-18253543D01*
X31717947Y-18446829D01*
X31717950Y-18446839D01*
X31793364Y-18628907D01*
X31793371Y-18628920D01*
X31902860Y-18792781D01*
X31902863Y-18792785D01*
X32042214Y-18932136D01*
X32042218Y-18932139D01*
X32206079Y-19041628D01*
X32206092Y-19041635D01*
X32388160Y-19117049D01*
X32388165Y-19117051D01*
X32388169Y-19117051D01*
X32388170Y-19117052D01*
X32581456Y-19155500D01*
X32581459Y-19155500D01*
X32778543Y-19155500D01*
X32908582Y-19129632D01*
X32971835Y-19117051D01*
X33153914Y-19041632D01*
X33317782Y-18932139D01*
X33457139Y-18792782D01*
X33566632Y-18628914D01*
X33642051Y-18446835D01*
X33668342Y-18314663D01*
X33680500Y-18253543D01*
X33680500Y-17740951D01*
X33700185Y-17673912D01*
X33752989Y-17628157D01*
X33822147Y-17618213D01*
X33866499Y-17633563D01*
X33886322Y-17645008D01*
X34033707Y-17684500D01*
X34033710Y-17684500D01*
X34186290Y-17684500D01*
X34186293Y-17684500D01*
X34333678Y-17645008D01*
X34465821Y-17568715D01*
X34573715Y-17460821D01*
X34650008Y-17328678D01*
X34689500Y-17181293D01*
X34689500Y-17028707D01*
X39310500Y-17028707D01*
X39310500Y-17181293D01*
X39339702Y-17290274D01*
X39349993Y-17328681D01*
X39426282Y-17460817D01*
X39426284Y-17460819D01*
X39426285Y-17460821D01*
X39534179Y-17568715D01*
X39534180Y-17568716D01*
X39534182Y-17568717D01*
X39666318Y-17645006D01*
X39666319Y-17645006D01*
X39666322Y-17645008D01*
X39813707Y-17684500D01*
X39813710Y-17684500D01*
X39966290Y-17684500D01*
X39966293Y-17684500D01*
X40113678Y-17645008D01*
X40133499Y-17633563D01*
X40201399Y-17617091D01*
X40267426Y-17639943D01*
X40310617Y-17694864D01*
X40319500Y-17740951D01*
X40319500Y-18253541D01*
X40319500Y-18253543D01*
X40319499Y-18253543D01*
X40357947Y-18446829D01*
X40357950Y-18446839D01*
X40433364Y-18628907D01*
X40433371Y-18628920D01*
X40542860Y-18792781D01*
X40542863Y-18792785D01*
X40682214Y-18932136D01*
X40682218Y-18932139D01*
X40846079Y-19041628D01*
X40846092Y-19041635D01*
X41028160Y-19117049D01*
X41028165Y-19117051D01*
X41028169Y-19117051D01*
X41028170Y-19117052D01*
X41221456Y-19155500D01*
X41221459Y-19155500D01*
X41418543Y-19155500D01*
X41548582Y-19129632D01*
X41611835Y-19117051D01*
X41793914Y-19041632D01*
X41957782Y-18932139D01*
X42097139Y-18792782D01*
X42206632Y-18628914D01*
X42282051Y-18446835D01*
X42308342Y-18314663D01*
X42320500Y-18253543D01*
X42320500Y-16956456D01*
X42282052Y-16763170D01*
X42282051Y-16763169D01*
X42282051Y-16763165D01*
X42279797Y-16757723D01*
X42206635Y-16581092D01*
X42206628Y-16581079D01*
X42097139Y-16417218D01*
X42097136Y-16417214D01*
X41957785Y-16277863D01*
X41957781Y-16277860D01*
X41793920Y-16168371D01*
X41793907Y-16168364D01*
X41611839Y-16092950D01*
X41611829Y-16092947D01*
X41418543Y-16054500D01*
X41418541Y-16054500D01*
X41221459Y-16054500D01*
X41221457Y-16054500D01*
X41028170Y-16092947D01*
X41028160Y-16092950D01*
X40846092Y-16168364D01*
X40846079Y-16168371D01*
X40682218Y-16277860D01*
X40682214Y-16277863D01*
X40542863Y-16417214D01*
X40542860Y-16417218D01*
X40433371Y-16581079D01*
X40433365Y-16581091D01*
X40431054Y-16586671D01*
X40387212Y-16641074D01*
X40320917Y-16663137D01*
X40253218Y-16645857D01*
X40250192Y-16643809D01*
X40245821Y-16641285D01*
X40174158Y-16599910D01*
X40113681Y-16564993D01*
X40113682Y-16564993D01*
X40101595Y-16561754D01*
X39966293Y-16525500D01*
X39813707Y-16525500D01*
X39678404Y-16561754D01*
X39666318Y-16564993D01*
X39534182Y-16641282D01*
X39534176Y-16641287D01*
X39426287Y-16749176D01*
X39426282Y-16749182D01*
X39349993Y-16881318D01*
X39349992Y-16881322D01*
X39310500Y-17028707D01*
X34689500Y-17028707D01*
X34650008Y-16881322D01*
X34624994Y-16837997D01*
X34573717Y-16749182D01*
X34573712Y-16749176D01*
X34465823Y-16641287D01*
X34465817Y-16641282D01*
X34333681Y-16564993D01*
X34333682Y-16564993D01*
X34321595Y-16561754D01*
X34186293Y-16525500D01*
X34033707Y-16525500D01*
X33898404Y-16561754D01*
X33886318Y-16564993D01*
X33747140Y-16645349D01*
X33745643Y-16642757D01*
X33693795Y-16662788D01*
X33625353Y-16648735D01*
X33575374Y-16599910D01*
X33568943Y-16586666D01*
X33566634Y-16581092D01*
X33566632Y-16581086D01*
X33512452Y-16500000D01*
X33457139Y-16417217D01*
X33317785Y-16277863D01*
X33317781Y-16277860D01*
X33153920Y-16168371D01*
X33153907Y-16168364D01*
X32971839Y-16092950D01*
X32971829Y-16092947D01*
X32778543Y-16054500D01*
X32778541Y-16054500D01*
X32581459Y-16054500D01*
X32581457Y-16054500D01*
X32388170Y-16092947D01*
X32388160Y-16092950D01*
X32206092Y-16168364D01*
X32206079Y-16168371D01*
X32042218Y-16277860D01*
X32042214Y-16277863D01*
X31902863Y-16417214D01*
X31902860Y-16417218D01*
X31793371Y-16581079D01*
X31793364Y-16581092D01*
X31717950Y-16763160D01*
X31717947Y-16763170D01*
X31679500Y-16956456D01*
X31679500Y-16956459D01*
X31679500Y-18253541D01*
X31679500Y-18253543D01*
X31679499Y-18253543D01*
X27000000Y-18253543D01*
X27000000Y-16499996D01*
X28689403Y-16499996D01*
X28689403Y-16500003D01*
X28709724Y-16680369D01*
X28709725Y-16680374D01*
X28769677Y-16851706D01*
X28866249Y-17005398D01*
X28994601Y-17133750D01*
X29145654Y-17228664D01*
X29148295Y-17230323D01*
X29319625Y-17290274D01*
X29319630Y-17290275D01*
X29499996Y-17310597D01*
X29500000Y-17310597D01*
X29500004Y-17310597D01*
X29680369Y-17290275D01*
X29680372Y-17290274D01*
X29680375Y-17290274D01*
X29851705Y-17230323D01*
X30005399Y-17133750D01*
X30133750Y-17005399D01*
X30230323Y-16851705D01*
X30290274Y-16680375D01*
X30290275Y-16680369D01*
X30310597Y-16500003D01*
X30310597Y-16499996D01*
X30290275Y-16319630D01*
X30290274Y-16319625D01*
X30259026Y-16230323D01*
X30230323Y-16148295D01*
X30154357Y-16027396D01*
X43387003Y-16027396D01*
X43387003Y-16027403D01*
X43407324Y-16207769D01*
X43407325Y-16207774D01*
X43467277Y-16379106D01*
X43563849Y-16532798D01*
X43692201Y-16661150D01*
X43832292Y-16749176D01*
X43845895Y-16757723D01*
X44017225Y-16817674D01*
X44017230Y-16817675D01*
X44197596Y-16837997D01*
X44197600Y-16837997D01*
X44197604Y-16837997D01*
X44377969Y-16817675D01*
X44377972Y-16817674D01*
X44377975Y-16817674D01*
X44549305Y-16757723D01*
X44702999Y-16661150D01*
X44831350Y-16532799D01*
X44927923Y-16379105D01*
X44987874Y-16207775D01*
X44992314Y-16168368D01*
X45008197Y-16027403D01*
X45008197Y-16027396D01*
X44987875Y-15847030D01*
X44987874Y-15847025D01*
X44927923Y-15675695D01*
X44927577Y-15675145D01*
X44831350Y-15522001D01*
X44702998Y-15393649D01*
X44549306Y-15297077D01*
X44377974Y-15237125D01*
X44377969Y-15237124D01*
X44197604Y-15216803D01*
X44197596Y-15216803D01*
X44017230Y-15237124D01*
X44017225Y-15237125D01*
X43845893Y-15297077D01*
X43692201Y-15393649D01*
X43563849Y-15522001D01*
X43467277Y-15675693D01*
X43407325Y-15847025D01*
X43407324Y-15847030D01*
X43387003Y-16027396D01*
X30154357Y-16027396D01*
X30133750Y-15994601D01*
X30005399Y-15866250D01*
X30005398Y-15866249D01*
X29851706Y-15769677D01*
X29680374Y-15709725D01*
X29680369Y-15709724D01*
X29500004Y-15689403D01*
X29499996Y-15689403D01*
X29319630Y-15709724D01*
X29319625Y-15709725D01*
X29148293Y-15769677D01*
X28994601Y-15866249D01*
X28866249Y-15994601D01*
X28769677Y-16148293D01*
X28709725Y-16319625D01*
X28709724Y-16319630D01*
X28689403Y-16499996D01*
X27000000Y-16499996D01*
X27000000Y-14342511D01*
X27914403Y-14342511D01*
X27914403Y-14342518D01*
X27934724Y-14522884D01*
X27934725Y-14522889D01*
X27994677Y-14694221D01*
X28091249Y-14847913D01*
X28219601Y-14976265D01*
X28257379Y-15000003D01*
X28373295Y-15072838D01*
X28516278Y-15122870D01*
X28544625Y-15132789D01*
X28544630Y-15132790D01*
X28724996Y-15153112D01*
X28725000Y-15153112D01*
X28725004Y-15153112D01*
X28905369Y-15132790D01*
X28905372Y-15132789D01*
X28905375Y-15132789D01*
X29076705Y-15072838D01*
X29230399Y-14976265D01*
X29358750Y-14847914D01*
X29455323Y-14694220D01*
X29515274Y-14522890D01*
X29522046Y-14462785D01*
X29535597Y-14342518D01*
X29535597Y-14342511D01*
X29515275Y-14162145D01*
X29515274Y-14162140D01*
X29488888Y-14086733D01*
X29455323Y-13990810D01*
X29405207Y-13911052D01*
X29358750Y-13837116D01*
X29230398Y-13708764D01*
X29076706Y-13612192D01*
X28905374Y-13552240D01*
X28905369Y-13552239D01*
X28725004Y-13531918D01*
X28724996Y-13531918D01*
X28544630Y-13552239D01*
X28544625Y-13552240D01*
X28373293Y-13612192D01*
X28219601Y-13708764D01*
X28091249Y-13837116D01*
X27994677Y-13990808D01*
X27934725Y-14162140D01*
X27934724Y-14162145D01*
X27914403Y-14342511D01*
X27000000Y-14342511D01*
X27000000Y-12124000D01*
X27019685Y-12056961D01*
X27072489Y-12011206D01*
X27124000Y-12000000D01*
X32004394Y-12000000D01*
X32071433Y-12019685D01*
G37*
%TD.AperFunction*%
%TD*%
M02*
