%TF.GenerationSoftware,KiCad,Pcbnew,8.0.8*%
%TF.CreationDate,2025-02-02T13:18:11-05:00*%
%TF.ProjectId,CAN Board,43414e20-426f-4617-9264-2e6b69636164,rev?*%
%TF.SameCoordinates,Original*%
%TF.FileFunction,Legend,Bot*%
%TF.FilePolarity,Positive*%
%FSLAX46Y46*%
G04 Gerber Fmt 4.6, Leading zero omitted, Abs format (unit mm)*
G04 Created by KiCad (PCBNEW 8.0.8) date 2025-02-02 13:18:11*
%MOMM*%
%LPD*%
G01*
G04 APERTURE LIST*
%ADD10C,0.150000*%
G04 APERTURE END LIST*
D10*
X58786104Y-22895000D02*
X58824200Y-22856904D01*
X58824200Y-22856904D02*
X58862295Y-22742619D01*
X58862295Y-22742619D02*
X58862295Y-22666428D01*
X58862295Y-22666428D02*
X58824200Y-22552142D01*
X58824200Y-22552142D02*
X58748009Y-22475952D01*
X58748009Y-22475952D02*
X58671819Y-22437857D01*
X58671819Y-22437857D02*
X58519438Y-22399761D01*
X58519438Y-22399761D02*
X58405152Y-22399761D01*
X58405152Y-22399761D02*
X58252771Y-22437857D01*
X58252771Y-22437857D02*
X58176580Y-22475952D01*
X58176580Y-22475952D02*
X58100390Y-22552142D01*
X58100390Y-22552142D02*
X58062295Y-22666428D01*
X58062295Y-22666428D02*
X58062295Y-22742619D01*
X58062295Y-22742619D02*
X58100390Y-22856904D01*
X58100390Y-22856904D02*
X58138485Y-22895000D01*
X58633723Y-23199761D02*
X58633723Y-23580714D01*
X58862295Y-23123571D02*
X58062295Y-23390238D01*
X58062295Y-23390238D02*
X58862295Y-23656904D01*
X58862295Y-23923571D02*
X58062295Y-23923571D01*
X58062295Y-23923571D02*
X58862295Y-24380714D01*
X58862295Y-24380714D02*
X58062295Y-24380714D01*
X58138485Y-25333094D02*
X58100390Y-25371190D01*
X58100390Y-25371190D02*
X58062295Y-25447380D01*
X58062295Y-25447380D02*
X58062295Y-25637856D01*
X58062295Y-25637856D02*
X58100390Y-25714047D01*
X58100390Y-25714047D02*
X58138485Y-25752142D01*
X58138485Y-25752142D02*
X58214676Y-25790237D01*
X58214676Y-25790237D02*
X58290866Y-25790237D01*
X58290866Y-25790237D02*
X58405152Y-25752142D01*
X58405152Y-25752142D02*
X58862295Y-25294999D01*
X58862295Y-25294999D02*
X58862295Y-25790237D01*
X31443247Y-21414285D02*
X31481342Y-21528571D01*
X31481342Y-21528571D02*
X31519438Y-21566666D01*
X31519438Y-21566666D02*
X31595628Y-21604762D01*
X31595628Y-21604762D02*
X31709914Y-21604762D01*
X31709914Y-21604762D02*
X31786104Y-21566666D01*
X31786104Y-21566666D02*
X31824200Y-21528571D01*
X31824200Y-21528571D02*
X31862295Y-21452381D01*
X31862295Y-21452381D02*
X31862295Y-21147619D01*
X31862295Y-21147619D02*
X31062295Y-21147619D01*
X31062295Y-21147619D02*
X31062295Y-21414285D01*
X31062295Y-21414285D02*
X31100390Y-21490476D01*
X31100390Y-21490476D02*
X31138485Y-21528571D01*
X31138485Y-21528571D02*
X31214676Y-21566666D01*
X31214676Y-21566666D02*
X31290866Y-21566666D01*
X31290866Y-21566666D02*
X31367057Y-21528571D01*
X31367057Y-21528571D02*
X31405152Y-21490476D01*
X31405152Y-21490476D02*
X31443247Y-21414285D01*
X31443247Y-21414285D02*
X31443247Y-21147619D01*
X31062295Y-22100000D02*
X31062295Y-22252381D01*
X31062295Y-22252381D02*
X31100390Y-22328571D01*
X31100390Y-22328571D02*
X31176580Y-22404762D01*
X31176580Y-22404762D02*
X31328961Y-22442857D01*
X31328961Y-22442857D02*
X31595628Y-22442857D01*
X31595628Y-22442857D02*
X31748009Y-22404762D01*
X31748009Y-22404762D02*
X31824200Y-22328571D01*
X31824200Y-22328571D02*
X31862295Y-22252381D01*
X31862295Y-22252381D02*
X31862295Y-22100000D01*
X31862295Y-22100000D02*
X31824200Y-22023809D01*
X31824200Y-22023809D02*
X31748009Y-21947619D01*
X31748009Y-21947619D02*
X31595628Y-21909523D01*
X31595628Y-21909523D02*
X31328961Y-21909523D01*
X31328961Y-21909523D02*
X31176580Y-21947619D01*
X31176580Y-21947619D02*
X31100390Y-22023809D01*
X31100390Y-22023809D02*
X31062295Y-22100000D01*
X31062295Y-22938095D02*
X31062295Y-23090476D01*
X31062295Y-23090476D02*
X31100390Y-23166666D01*
X31100390Y-23166666D02*
X31176580Y-23242857D01*
X31176580Y-23242857D02*
X31328961Y-23280952D01*
X31328961Y-23280952D02*
X31595628Y-23280952D01*
X31595628Y-23280952D02*
X31748009Y-23242857D01*
X31748009Y-23242857D02*
X31824200Y-23166666D01*
X31824200Y-23166666D02*
X31862295Y-23090476D01*
X31862295Y-23090476D02*
X31862295Y-22938095D01*
X31862295Y-22938095D02*
X31824200Y-22861904D01*
X31824200Y-22861904D02*
X31748009Y-22785714D01*
X31748009Y-22785714D02*
X31595628Y-22747618D01*
X31595628Y-22747618D02*
X31328961Y-22747618D01*
X31328961Y-22747618D02*
X31176580Y-22785714D01*
X31176580Y-22785714D02*
X31100390Y-22861904D01*
X31100390Y-22861904D02*
X31062295Y-22938095D01*
X31062295Y-23509523D02*
X31062295Y-23966666D01*
X31862295Y-23738094D02*
X31062295Y-23738094D01*
X40362295Y-56561905D02*
X39981342Y-56295238D01*
X40362295Y-56104762D02*
X39562295Y-56104762D01*
X39562295Y-56104762D02*
X39562295Y-56409524D01*
X39562295Y-56409524D02*
X39600390Y-56485714D01*
X39600390Y-56485714D02*
X39638485Y-56523809D01*
X39638485Y-56523809D02*
X39714676Y-56561905D01*
X39714676Y-56561905D02*
X39828961Y-56561905D01*
X39828961Y-56561905D02*
X39905152Y-56523809D01*
X39905152Y-56523809D02*
X39943247Y-56485714D01*
X39943247Y-56485714D02*
X39981342Y-56409524D01*
X39981342Y-56409524D02*
X39981342Y-56104762D01*
X40324200Y-56866666D02*
X40362295Y-56980952D01*
X40362295Y-56980952D02*
X40362295Y-57171428D01*
X40362295Y-57171428D02*
X40324200Y-57247619D01*
X40324200Y-57247619D02*
X40286104Y-57285714D01*
X40286104Y-57285714D02*
X40209914Y-57323809D01*
X40209914Y-57323809D02*
X40133723Y-57323809D01*
X40133723Y-57323809D02*
X40057533Y-57285714D01*
X40057533Y-57285714D02*
X40019438Y-57247619D01*
X40019438Y-57247619D02*
X39981342Y-57171428D01*
X39981342Y-57171428D02*
X39943247Y-57019047D01*
X39943247Y-57019047D02*
X39905152Y-56942857D01*
X39905152Y-56942857D02*
X39867057Y-56904762D01*
X39867057Y-56904762D02*
X39790866Y-56866666D01*
X39790866Y-56866666D02*
X39714676Y-56866666D01*
X39714676Y-56866666D02*
X39638485Y-56904762D01*
X39638485Y-56904762D02*
X39600390Y-56942857D01*
X39600390Y-56942857D02*
X39562295Y-57019047D01*
X39562295Y-57019047D02*
X39562295Y-57209524D01*
X39562295Y-57209524D02*
X39600390Y-57323809D01*
X39562295Y-57552381D02*
X39562295Y-58009524D01*
X40362295Y-57780952D02*
X39562295Y-57780952D01*
X58786104Y-48695000D02*
X58824200Y-48656904D01*
X58824200Y-48656904D02*
X58862295Y-48542619D01*
X58862295Y-48542619D02*
X58862295Y-48466428D01*
X58862295Y-48466428D02*
X58824200Y-48352142D01*
X58824200Y-48352142D02*
X58748009Y-48275952D01*
X58748009Y-48275952D02*
X58671819Y-48237857D01*
X58671819Y-48237857D02*
X58519438Y-48199761D01*
X58519438Y-48199761D02*
X58405152Y-48199761D01*
X58405152Y-48199761D02*
X58252771Y-48237857D01*
X58252771Y-48237857D02*
X58176580Y-48275952D01*
X58176580Y-48275952D02*
X58100390Y-48352142D01*
X58100390Y-48352142D02*
X58062295Y-48466428D01*
X58062295Y-48466428D02*
X58062295Y-48542619D01*
X58062295Y-48542619D02*
X58100390Y-48656904D01*
X58100390Y-48656904D02*
X58138485Y-48695000D01*
X58633723Y-48999761D02*
X58633723Y-49380714D01*
X58862295Y-48923571D02*
X58062295Y-49190238D01*
X58062295Y-49190238D02*
X58862295Y-49456904D01*
X58862295Y-49723571D02*
X58062295Y-49723571D01*
X58062295Y-49723571D02*
X58862295Y-50180714D01*
X58862295Y-50180714D02*
X58062295Y-50180714D01*
X58062295Y-51552142D02*
X58062295Y-51171190D01*
X58062295Y-51171190D02*
X58443247Y-51133094D01*
X58443247Y-51133094D02*
X58405152Y-51171190D01*
X58405152Y-51171190D02*
X58367057Y-51247380D01*
X58367057Y-51247380D02*
X58367057Y-51437856D01*
X58367057Y-51437856D02*
X58405152Y-51514047D01*
X58405152Y-51514047D02*
X58443247Y-51552142D01*
X58443247Y-51552142D02*
X58519438Y-51590237D01*
X58519438Y-51590237D02*
X58709914Y-51590237D01*
X58709914Y-51590237D02*
X58786104Y-51552142D01*
X58786104Y-51552142D02*
X58824200Y-51514047D01*
X58824200Y-51514047D02*
X58862295Y-51437856D01*
X58862295Y-51437856D02*
X58862295Y-51247380D01*
X58862295Y-51247380D02*
X58824200Y-51171190D01*
X58824200Y-51171190D02*
X58786104Y-51133094D01*
X36062295Y-54185713D02*
X36062295Y-54642856D01*
X36862295Y-54414284D02*
X36062295Y-54414284D01*
X36062295Y-54833332D02*
X36862295Y-55366666D01*
X36062295Y-55366666D02*
X36862295Y-54833332D01*
X37128961Y-55861904D02*
X35986104Y-55861904D01*
X36862295Y-56890476D02*
X36481342Y-56623809D01*
X36862295Y-56433333D02*
X36062295Y-56433333D01*
X36062295Y-56433333D02*
X36062295Y-56738095D01*
X36062295Y-56738095D02*
X36100390Y-56814285D01*
X36100390Y-56814285D02*
X36138485Y-56852380D01*
X36138485Y-56852380D02*
X36214676Y-56890476D01*
X36214676Y-56890476D02*
X36328961Y-56890476D01*
X36328961Y-56890476D02*
X36405152Y-56852380D01*
X36405152Y-56852380D02*
X36443247Y-56814285D01*
X36443247Y-56814285D02*
X36481342Y-56738095D01*
X36481342Y-56738095D02*
X36481342Y-56433333D01*
X36062295Y-57157142D02*
X36862295Y-57690476D01*
X36062295Y-57690476D02*
X36862295Y-57157142D01*
X37128961Y-58185714D02*
X35986104Y-58185714D01*
X36824200Y-58719047D02*
X36862295Y-58833333D01*
X36862295Y-58833333D02*
X36862295Y-59023809D01*
X36862295Y-59023809D02*
X36824200Y-59100000D01*
X36824200Y-59100000D02*
X36786104Y-59138095D01*
X36786104Y-59138095D02*
X36709914Y-59176190D01*
X36709914Y-59176190D02*
X36633723Y-59176190D01*
X36633723Y-59176190D02*
X36557533Y-59138095D01*
X36557533Y-59138095D02*
X36519438Y-59100000D01*
X36519438Y-59100000D02*
X36481342Y-59023809D01*
X36481342Y-59023809D02*
X36443247Y-58871428D01*
X36443247Y-58871428D02*
X36405152Y-58795238D01*
X36405152Y-58795238D02*
X36367057Y-58757143D01*
X36367057Y-58757143D02*
X36290866Y-58719047D01*
X36290866Y-58719047D02*
X36214676Y-58719047D01*
X36214676Y-58719047D02*
X36138485Y-58757143D01*
X36138485Y-58757143D02*
X36100390Y-58795238D01*
X36100390Y-58795238D02*
X36062295Y-58871428D01*
X36062295Y-58871428D02*
X36062295Y-59061905D01*
X36062295Y-59061905D02*
X36100390Y-59176190D01*
X37128961Y-59709524D02*
X35986104Y-59709524D01*
X36786104Y-60738096D02*
X36824200Y-60700000D01*
X36824200Y-60700000D02*
X36862295Y-60585715D01*
X36862295Y-60585715D02*
X36862295Y-60509524D01*
X36862295Y-60509524D02*
X36824200Y-60395238D01*
X36824200Y-60395238D02*
X36748009Y-60319048D01*
X36748009Y-60319048D02*
X36671819Y-60280953D01*
X36671819Y-60280953D02*
X36519438Y-60242857D01*
X36519438Y-60242857D02*
X36405152Y-60242857D01*
X36405152Y-60242857D02*
X36252771Y-60280953D01*
X36252771Y-60280953D02*
X36176580Y-60319048D01*
X36176580Y-60319048D02*
X36100390Y-60395238D01*
X36100390Y-60395238D02*
X36062295Y-60509524D01*
X36062295Y-60509524D02*
X36062295Y-60585715D01*
X36062295Y-60585715D02*
X36100390Y-60700000D01*
X36100390Y-60700000D02*
X36138485Y-60738096D01*
X57530149Y-14300000D02*
X57568245Y-14261904D01*
X57568245Y-14261904D02*
X57606340Y-14147619D01*
X57606340Y-14147619D02*
X57606340Y-14071428D01*
X57606340Y-14071428D02*
X57568245Y-13957142D01*
X57568245Y-13957142D02*
X57492054Y-13880952D01*
X57492054Y-13880952D02*
X57415864Y-13842857D01*
X57415864Y-13842857D02*
X57263483Y-13804761D01*
X57263483Y-13804761D02*
X57149197Y-13804761D01*
X57149197Y-13804761D02*
X56996816Y-13842857D01*
X56996816Y-13842857D02*
X56920625Y-13880952D01*
X56920625Y-13880952D02*
X56844435Y-13957142D01*
X56844435Y-13957142D02*
X56806340Y-14071428D01*
X56806340Y-14071428D02*
X56806340Y-14147619D01*
X56806340Y-14147619D02*
X56844435Y-14261904D01*
X56844435Y-14261904D02*
X56882530Y-14300000D01*
X57377768Y-14604761D02*
X57377768Y-14985714D01*
X57606340Y-14528571D02*
X56806340Y-14795238D01*
X56806340Y-14795238D02*
X57606340Y-15061904D01*
X57606340Y-15328571D02*
X56806340Y-15328571D01*
X56806340Y-15328571D02*
X57606340Y-15785714D01*
X57606340Y-15785714D02*
X56806340Y-15785714D01*
X57606340Y-17195237D02*
X57606340Y-16738094D01*
X57606340Y-16966666D02*
X56806340Y-16966666D01*
X56806340Y-16966666D02*
X56920625Y-16890475D01*
X56920625Y-16890475D02*
X56996816Y-16814285D01*
X56996816Y-16814285D02*
X57034911Y-16738094D01*
X58894295Y-13957143D02*
X58094295Y-13957143D01*
X58475247Y-13957143D02*
X58475247Y-14414286D01*
X58894295Y-14414286D02*
X58094295Y-14414286D01*
X59160961Y-15595238D02*
X58018104Y-15595238D01*
X58894295Y-17157143D02*
X58894295Y-16776191D01*
X58894295Y-16776191D02*
X58094295Y-16776191D01*
X31286104Y-49935714D02*
X31324200Y-49897618D01*
X31324200Y-49897618D02*
X31362295Y-49783333D01*
X31362295Y-49783333D02*
X31362295Y-49707142D01*
X31362295Y-49707142D02*
X31324200Y-49592856D01*
X31324200Y-49592856D02*
X31248009Y-49516666D01*
X31248009Y-49516666D02*
X31171819Y-49478571D01*
X31171819Y-49478571D02*
X31019438Y-49440475D01*
X31019438Y-49440475D02*
X30905152Y-49440475D01*
X30905152Y-49440475D02*
X30752771Y-49478571D01*
X30752771Y-49478571D02*
X30676580Y-49516666D01*
X30676580Y-49516666D02*
X30600390Y-49592856D01*
X30600390Y-49592856D02*
X30562295Y-49707142D01*
X30562295Y-49707142D02*
X30562295Y-49783333D01*
X30562295Y-49783333D02*
X30600390Y-49897618D01*
X30600390Y-49897618D02*
X30638485Y-49935714D01*
X31628961Y-50469047D02*
X30486104Y-50469047D01*
X30600390Y-51459523D02*
X30562295Y-51383333D01*
X30562295Y-51383333D02*
X30562295Y-51269047D01*
X30562295Y-51269047D02*
X30600390Y-51154761D01*
X30600390Y-51154761D02*
X30676580Y-51078571D01*
X30676580Y-51078571D02*
X30752771Y-51040476D01*
X30752771Y-51040476D02*
X30905152Y-51002380D01*
X30905152Y-51002380D02*
X31019438Y-51002380D01*
X31019438Y-51002380D02*
X31171819Y-51040476D01*
X31171819Y-51040476D02*
X31248009Y-51078571D01*
X31248009Y-51078571D02*
X31324200Y-51154761D01*
X31324200Y-51154761D02*
X31362295Y-51269047D01*
X31362295Y-51269047D02*
X31362295Y-51345238D01*
X31362295Y-51345238D02*
X31324200Y-51459523D01*
X31324200Y-51459523D02*
X31286104Y-51497619D01*
X31286104Y-51497619D02*
X31019438Y-51497619D01*
X31019438Y-51497619D02*
X31019438Y-51345238D01*
X31628961Y-52030952D02*
X30486104Y-52030952D01*
X31362295Y-52602381D02*
X30562295Y-52602381D01*
X30562295Y-52602381D02*
X30562295Y-52792857D01*
X30562295Y-52792857D02*
X30600390Y-52907143D01*
X30600390Y-52907143D02*
X30676580Y-52983333D01*
X30676580Y-52983333D02*
X30752771Y-53021428D01*
X30752771Y-53021428D02*
X30905152Y-53059524D01*
X30905152Y-53059524D02*
X31019438Y-53059524D01*
X31019438Y-53059524D02*
X31171819Y-53021428D01*
X31171819Y-53021428D02*
X31248009Y-52983333D01*
X31248009Y-52983333D02*
X31324200Y-52907143D01*
X31324200Y-52907143D02*
X31362295Y-52792857D01*
X31362295Y-52792857D02*
X31362295Y-52602381D01*
X31362295Y-55561903D02*
X31362295Y-55104760D01*
X31362295Y-55333332D02*
X30562295Y-55333332D01*
X30562295Y-55333332D02*
X30676580Y-55257141D01*
X30676580Y-55257141D02*
X30752771Y-55180951D01*
X30752771Y-55180951D02*
X30790866Y-55104760D01*
X30562295Y-56285713D02*
X30562295Y-55904761D01*
X30562295Y-55904761D02*
X30943247Y-55866665D01*
X30943247Y-55866665D02*
X30905152Y-55904761D01*
X30905152Y-55904761D02*
X30867057Y-55980951D01*
X30867057Y-55980951D02*
X30867057Y-56171427D01*
X30867057Y-56171427D02*
X30905152Y-56247618D01*
X30905152Y-56247618D02*
X30943247Y-56285713D01*
X30943247Y-56285713D02*
X31019438Y-56323808D01*
X31019438Y-56323808D02*
X31209914Y-56323808D01*
X31209914Y-56323808D02*
X31286104Y-56285713D01*
X31286104Y-56285713D02*
X31324200Y-56247618D01*
X31324200Y-56247618D02*
X31362295Y-56171427D01*
X31362295Y-56171427D02*
X31362295Y-55980951D01*
X31362295Y-55980951D02*
X31324200Y-55904761D01*
X31324200Y-55904761D02*
X31286104Y-55866665D01*
X31628961Y-56857142D02*
X30486104Y-56857142D01*
X30638485Y-57390475D02*
X30600390Y-57428571D01*
X30600390Y-57428571D02*
X30562295Y-57504761D01*
X30562295Y-57504761D02*
X30562295Y-57695237D01*
X30562295Y-57695237D02*
X30600390Y-57771428D01*
X30600390Y-57771428D02*
X30638485Y-57809523D01*
X30638485Y-57809523D02*
X30714676Y-57847618D01*
X30714676Y-57847618D02*
X30790866Y-57847618D01*
X30790866Y-57847618D02*
X30905152Y-57809523D01*
X30905152Y-57809523D02*
X31362295Y-57352380D01*
X31362295Y-57352380D02*
X31362295Y-57847618D01*
X30562295Y-58533333D02*
X30562295Y-58380952D01*
X30562295Y-58380952D02*
X30600390Y-58304761D01*
X30600390Y-58304761D02*
X30638485Y-58266666D01*
X30638485Y-58266666D02*
X30752771Y-58190476D01*
X30752771Y-58190476D02*
X30905152Y-58152380D01*
X30905152Y-58152380D02*
X31209914Y-58152380D01*
X31209914Y-58152380D02*
X31286104Y-58190476D01*
X31286104Y-58190476D02*
X31324200Y-58228571D01*
X31324200Y-58228571D02*
X31362295Y-58304761D01*
X31362295Y-58304761D02*
X31362295Y-58457142D01*
X31362295Y-58457142D02*
X31324200Y-58533333D01*
X31324200Y-58533333D02*
X31286104Y-58571428D01*
X31286104Y-58571428D02*
X31209914Y-58609523D01*
X31209914Y-58609523D02*
X31019438Y-58609523D01*
X31019438Y-58609523D02*
X30943247Y-58571428D01*
X30943247Y-58571428D02*
X30905152Y-58533333D01*
X30905152Y-58533333D02*
X30867057Y-58457142D01*
X30867057Y-58457142D02*
X30867057Y-58304761D01*
X30867057Y-58304761D02*
X30905152Y-58228571D01*
X30905152Y-58228571D02*
X30943247Y-58190476D01*
X30943247Y-58190476D02*
X31019438Y-58152380D01*
X31628961Y-59142857D02*
X30486104Y-59142857D01*
X30638485Y-59676190D02*
X30600390Y-59714286D01*
X30600390Y-59714286D02*
X30562295Y-59790476D01*
X30562295Y-59790476D02*
X30562295Y-59980952D01*
X30562295Y-59980952D02*
X30600390Y-60057143D01*
X30600390Y-60057143D02*
X30638485Y-60095238D01*
X30638485Y-60095238D02*
X30714676Y-60133333D01*
X30714676Y-60133333D02*
X30790866Y-60133333D01*
X30790866Y-60133333D02*
X30905152Y-60095238D01*
X30905152Y-60095238D02*
X31362295Y-59638095D01*
X31362295Y-59638095D02*
X31362295Y-60133333D01*
X30562295Y-60400000D02*
X30562295Y-60933334D01*
X30562295Y-60933334D02*
X31362295Y-60590476D01*
X58786104Y-31495000D02*
X58824200Y-31456904D01*
X58824200Y-31456904D02*
X58862295Y-31342619D01*
X58862295Y-31342619D02*
X58862295Y-31266428D01*
X58862295Y-31266428D02*
X58824200Y-31152142D01*
X58824200Y-31152142D02*
X58748009Y-31075952D01*
X58748009Y-31075952D02*
X58671819Y-31037857D01*
X58671819Y-31037857D02*
X58519438Y-30999761D01*
X58519438Y-30999761D02*
X58405152Y-30999761D01*
X58405152Y-30999761D02*
X58252771Y-31037857D01*
X58252771Y-31037857D02*
X58176580Y-31075952D01*
X58176580Y-31075952D02*
X58100390Y-31152142D01*
X58100390Y-31152142D02*
X58062295Y-31266428D01*
X58062295Y-31266428D02*
X58062295Y-31342619D01*
X58062295Y-31342619D02*
X58100390Y-31456904D01*
X58100390Y-31456904D02*
X58138485Y-31495000D01*
X58633723Y-31799761D02*
X58633723Y-32180714D01*
X58862295Y-31723571D02*
X58062295Y-31990238D01*
X58062295Y-31990238D02*
X58862295Y-32256904D01*
X58862295Y-32523571D02*
X58062295Y-32523571D01*
X58062295Y-32523571D02*
X58862295Y-32980714D01*
X58862295Y-32980714D02*
X58062295Y-32980714D01*
X58062295Y-33894999D02*
X58062295Y-34390237D01*
X58062295Y-34390237D02*
X58367057Y-34123571D01*
X58367057Y-34123571D02*
X58367057Y-34237856D01*
X58367057Y-34237856D02*
X58405152Y-34314047D01*
X58405152Y-34314047D02*
X58443247Y-34352142D01*
X58443247Y-34352142D02*
X58519438Y-34390237D01*
X58519438Y-34390237D02*
X58709914Y-34390237D01*
X58709914Y-34390237D02*
X58786104Y-34352142D01*
X58786104Y-34352142D02*
X58824200Y-34314047D01*
X58824200Y-34314047D02*
X58862295Y-34237856D01*
X58862295Y-34237856D02*
X58862295Y-34009285D01*
X58862295Y-34009285D02*
X58824200Y-33933094D01*
X58824200Y-33933094D02*
X58786104Y-33894999D01*
X30562295Y-43353571D02*
X30562295Y-43810714D01*
X31362295Y-43582142D02*
X30562295Y-43582142D01*
X30562295Y-44001190D02*
X31362295Y-44534524D01*
X30562295Y-44534524D02*
X31362295Y-44001190D01*
X31628961Y-45029762D02*
X30486104Y-45029762D01*
X31362295Y-46058334D02*
X30981342Y-45791667D01*
X31362295Y-45601191D02*
X30562295Y-45601191D01*
X30562295Y-45601191D02*
X30562295Y-45905953D01*
X30562295Y-45905953D02*
X30600390Y-45982143D01*
X30600390Y-45982143D02*
X30638485Y-46020238D01*
X30638485Y-46020238D02*
X30714676Y-46058334D01*
X30714676Y-46058334D02*
X30828961Y-46058334D01*
X30828961Y-46058334D02*
X30905152Y-46020238D01*
X30905152Y-46020238D02*
X30943247Y-45982143D01*
X30943247Y-45982143D02*
X30981342Y-45905953D01*
X30981342Y-45905953D02*
X30981342Y-45601191D01*
X30562295Y-46325000D02*
X31362295Y-46858334D01*
X30562295Y-46858334D02*
X31362295Y-46325000D01*
X58786104Y-57295000D02*
X58824200Y-57256904D01*
X58824200Y-57256904D02*
X58862295Y-57142619D01*
X58862295Y-57142619D02*
X58862295Y-57066428D01*
X58862295Y-57066428D02*
X58824200Y-56952142D01*
X58824200Y-56952142D02*
X58748009Y-56875952D01*
X58748009Y-56875952D02*
X58671819Y-56837857D01*
X58671819Y-56837857D02*
X58519438Y-56799761D01*
X58519438Y-56799761D02*
X58405152Y-56799761D01*
X58405152Y-56799761D02*
X58252771Y-56837857D01*
X58252771Y-56837857D02*
X58176580Y-56875952D01*
X58176580Y-56875952D02*
X58100390Y-56952142D01*
X58100390Y-56952142D02*
X58062295Y-57066428D01*
X58062295Y-57066428D02*
X58062295Y-57142619D01*
X58062295Y-57142619D02*
X58100390Y-57256904D01*
X58100390Y-57256904D02*
X58138485Y-57295000D01*
X58633723Y-57599761D02*
X58633723Y-57980714D01*
X58862295Y-57523571D02*
X58062295Y-57790238D01*
X58062295Y-57790238D02*
X58862295Y-58056904D01*
X58862295Y-58323571D02*
X58062295Y-58323571D01*
X58062295Y-58323571D02*
X58862295Y-58780714D01*
X58862295Y-58780714D02*
X58062295Y-58780714D01*
X58062295Y-60114047D02*
X58062295Y-59961666D01*
X58062295Y-59961666D02*
X58100390Y-59885475D01*
X58100390Y-59885475D02*
X58138485Y-59847380D01*
X58138485Y-59847380D02*
X58252771Y-59771190D01*
X58252771Y-59771190D02*
X58405152Y-59733094D01*
X58405152Y-59733094D02*
X58709914Y-59733094D01*
X58709914Y-59733094D02*
X58786104Y-59771190D01*
X58786104Y-59771190D02*
X58824200Y-59809285D01*
X58824200Y-59809285D02*
X58862295Y-59885475D01*
X58862295Y-59885475D02*
X58862295Y-60037856D01*
X58862295Y-60037856D02*
X58824200Y-60114047D01*
X58824200Y-60114047D02*
X58786104Y-60152142D01*
X58786104Y-60152142D02*
X58709914Y-60190237D01*
X58709914Y-60190237D02*
X58519438Y-60190237D01*
X58519438Y-60190237D02*
X58443247Y-60152142D01*
X58443247Y-60152142D02*
X58405152Y-60114047D01*
X58405152Y-60114047D02*
X58367057Y-60037856D01*
X58367057Y-60037856D02*
X58367057Y-59885475D01*
X58367057Y-59885475D02*
X58405152Y-59809285D01*
X58405152Y-59809285D02*
X58443247Y-59771190D01*
X58443247Y-59771190D02*
X58519438Y-59733094D01*
X30562295Y-37076190D02*
X30562295Y-36695238D01*
X30562295Y-36695238D02*
X30943247Y-36657142D01*
X30943247Y-36657142D02*
X30905152Y-36695238D01*
X30905152Y-36695238D02*
X30867057Y-36771428D01*
X30867057Y-36771428D02*
X30867057Y-36961904D01*
X30867057Y-36961904D02*
X30905152Y-37038095D01*
X30905152Y-37038095D02*
X30943247Y-37076190D01*
X30943247Y-37076190D02*
X31019438Y-37114285D01*
X31019438Y-37114285D02*
X31209914Y-37114285D01*
X31209914Y-37114285D02*
X31286104Y-37076190D01*
X31286104Y-37076190D02*
X31324200Y-37038095D01*
X31324200Y-37038095D02*
X31362295Y-36961904D01*
X31362295Y-36961904D02*
X31362295Y-36771428D01*
X31362295Y-36771428D02*
X31324200Y-36695238D01*
X31324200Y-36695238D02*
X31286104Y-36657142D01*
X31628961Y-37647619D02*
X30486104Y-37647619D01*
X30562295Y-38142857D02*
X30562295Y-38638095D01*
X30562295Y-38638095D02*
X30867057Y-38371429D01*
X30867057Y-38371429D02*
X30867057Y-38485714D01*
X30867057Y-38485714D02*
X30905152Y-38561905D01*
X30905152Y-38561905D02*
X30943247Y-38600000D01*
X30943247Y-38600000D02*
X31019438Y-38638095D01*
X31019438Y-38638095D02*
X31209914Y-38638095D01*
X31209914Y-38638095D02*
X31286104Y-38600000D01*
X31286104Y-38600000D02*
X31324200Y-38561905D01*
X31324200Y-38561905D02*
X31362295Y-38485714D01*
X31362295Y-38485714D02*
X31362295Y-38257143D01*
X31362295Y-38257143D02*
X31324200Y-38180952D01*
X31324200Y-38180952D02*
X31286104Y-38142857D01*
X31286104Y-38980953D02*
X31324200Y-39019048D01*
X31324200Y-39019048D02*
X31362295Y-38980953D01*
X31362295Y-38980953D02*
X31324200Y-38942857D01*
X31324200Y-38942857D02*
X31286104Y-38980953D01*
X31286104Y-38980953D02*
X31362295Y-38980953D01*
X30562295Y-39285714D02*
X30562295Y-39780952D01*
X30562295Y-39780952D02*
X30867057Y-39514286D01*
X30867057Y-39514286D02*
X30867057Y-39628571D01*
X30867057Y-39628571D02*
X30905152Y-39704762D01*
X30905152Y-39704762D02*
X30943247Y-39742857D01*
X30943247Y-39742857D02*
X31019438Y-39780952D01*
X31019438Y-39780952D02*
X31209914Y-39780952D01*
X31209914Y-39780952D02*
X31286104Y-39742857D01*
X31286104Y-39742857D02*
X31324200Y-39704762D01*
X31324200Y-39704762D02*
X31362295Y-39628571D01*
X31362295Y-39628571D02*
X31362295Y-39400000D01*
X31362295Y-39400000D02*
X31324200Y-39323809D01*
X31324200Y-39323809D02*
X31286104Y-39285714D01*
X31628961Y-40314286D02*
X30486104Y-40314286D01*
X30600390Y-41304762D02*
X30562295Y-41228572D01*
X30562295Y-41228572D02*
X30562295Y-41114286D01*
X30562295Y-41114286D02*
X30600390Y-41000000D01*
X30600390Y-41000000D02*
X30676580Y-40923810D01*
X30676580Y-40923810D02*
X30752771Y-40885715D01*
X30752771Y-40885715D02*
X30905152Y-40847619D01*
X30905152Y-40847619D02*
X31019438Y-40847619D01*
X31019438Y-40847619D02*
X31171819Y-40885715D01*
X31171819Y-40885715D02*
X31248009Y-40923810D01*
X31248009Y-40923810D02*
X31324200Y-41000000D01*
X31324200Y-41000000D02*
X31362295Y-41114286D01*
X31362295Y-41114286D02*
X31362295Y-41190477D01*
X31362295Y-41190477D02*
X31324200Y-41304762D01*
X31324200Y-41304762D02*
X31286104Y-41342858D01*
X31286104Y-41342858D02*
X31019438Y-41342858D01*
X31019438Y-41342858D02*
X31019438Y-41190477D01*
X58786104Y-40095000D02*
X58824200Y-40056904D01*
X58824200Y-40056904D02*
X58862295Y-39942619D01*
X58862295Y-39942619D02*
X58862295Y-39866428D01*
X58862295Y-39866428D02*
X58824200Y-39752142D01*
X58824200Y-39752142D02*
X58748009Y-39675952D01*
X58748009Y-39675952D02*
X58671819Y-39637857D01*
X58671819Y-39637857D02*
X58519438Y-39599761D01*
X58519438Y-39599761D02*
X58405152Y-39599761D01*
X58405152Y-39599761D02*
X58252771Y-39637857D01*
X58252771Y-39637857D02*
X58176580Y-39675952D01*
X58176580Y-39675952D02*
X58100390Y-39752142D01*
X58100390Y-39752142D02*
X58062295Y-39866428D01*
X58062295Y-39866428D02*
X58062295Y-39942619D01*
X58062295Y-39942619D02*
X58100390Y-40056904D01*
X58100390Y-40056904D02*
X58138485Y-40095000D01*
X58633723Y-40399761D02*
X58633723Y-40780714D01*
X58862295Y-40323571D02*
X58062295Y-40590238D01*
X58062295Y-40590238D02*
X58862295Y-40856904D01*
X58862295Y-41123571D02*
X58062295Y-41123571D01*
X58062295Y-41123571D02*
X58862295Y-41580714D01*
X58862295Y-41580714D02*
X58062295Y-41580714D01*
X58328961Y-42914047D02*
X58862295Y-42914047D01*
X58024200Y-42723571D02*
X58595628Y-42533094D01*
X58595628Y-42533094D02*
X58595628Y-43028333D01*
M02*
