%TF.GenerationSoftware,KiCad,Pcbnew,8.0.8*%
%TF.CreationDate,2025-02-02T15:52:30-05:00*%
%TF.ProjectId,CAN Board,43414e20-426f-4617-9264-2e6b69636164,rev?*%
%TF.SameCoordinates,Original*%
%TF.FileFunction,Drillmap*%
%TF.FilePolarity,Positive*%
%FSLAX45Y45*%
G04 Gerber Fmt 4.5, Leading zero omitted, Abs format (unit mm)*
G04 Created by KiCad (PCBNEW 8.0.8) date 2025-02-02 15:52:30*
%MOMM*%
%LPD*%
G01*
G04 APERTURE LIST*
%ADD10C,0.050000*%
%ADD11C,0.200000*%
%ADD12C,0.100000*%
%ADD13C,0.130000*%
G04 APERTURE END LIST*
D10*
X2800000Y-1200000D02*
X5500000Y-1200000D01*
X2700000Y-1300000D02*
G75*
G02*
X2800000Y-1200000I100000J0D01*
G01*
X5600000Y-1100000D02*
G75*
G02*
X5500000Y-1200000I-100000J0D01*
G01*
X5500000Y-6200000D02*
G75*
G02*
X5600000Y-6300000I0J-100000D01*
G01*
X3300000Y-6300000D02*
G75*
G02*
X3400000Y-6200000I100000J0D01*
G01*
X5500000Y-6200000D02*
X3400000Y-6200000D01*
X6200000Y-6500000D02*
G75*
G02*
X5600000Y-6500000I-300000J0D01*
G01*
X3300000Y-6500000D02*
G75*
G02*
X2700000Y-6500000I-300000J0D01*
G01*
X5600000Y-6300000D02*
X5600000Y-6500000D01*
X6200000Y-1200000D02*
X6200000Y-6200000D01*
X6200000Y-6200000D02*
X6200000Y-6500000D01*
X5600000Y-900000D02*
G75*
G02*
X6200000Y-900000I300000J0D01*
G01*
X5600000Y-1100000D02*
X5600000Y-900000D01*
X2700000Y-6200000D02*
X2700000Y-6500000D01*
X3300000Y-6300000D02*
X3300000Y-6500000D01*
X6200000Y-1200000D02*
X6200000Y-900000D01*
X2700000Y-6200000D02*
X2700000Y-1300000D01*
D11*
D12*
X2987300Y-2737300D02*
X3012700Y-2762700D01*
X3012700Y-2737300D02*
X2987300Y-2762700D01*
X3187300Y-3887300D02*
X3212700Y-3912700D01*
X3212700Y-3887300D02*
X3187300Y-3912700D01*
X3187300Y-3987300D02*
X3212700Y-4012700D01*
X3212700Y-3987300D02*
X3187300Y-4012700D01*
X3187300Y-6287300D02*
X3212700Y-6312700D01*
X3212700Y-6287300D02*
X3187300Y-6312700D01*
X3237300Y-3587300D02*
X3262700Y-3612700D01*
X3262700Y-3587300D02*
X3237300Y-3612700D01*
X3237300Y-3667300D02*
X3262700Y-3692700D01*
X3262700Y-3667300D02*
X3237300Y-3692700D01*
X3237300Y-3827300D02*
X3262700Y-3852700D01*
X3262700Y-3827300D02*
X3237300Y-3852700D01*
X3237496Y-3747300D02*
X3262896Y-3772700D01*
X3262896Y-3747300D02*
X3237496Y-3772700D01*
X3287300Y-4187300D02*
X3312700Y-4212700D01*
X3312700Y-4187300D02*
X3287300Y-4212700D01*
X3337300Y-3237300D02*
X3362700Y-3262700D01*
X3362700Y-3237300D02*
X3337300Y-3262700D01*
X3337300Y-4037300D02*
X3362700Y-4062700D01*
X3362700Y-4037300D02*
X3337300Y-4062700D01*
X3341580Y-4337300D02*
X3366980Y-4362700D01*
X3366980Y-4337300D02*
X3341580Y-4362700D01*
X3387300Y-4187300D02*
X3412700Y-4212700D01*
X3412700Y-4187300D02*
X3387300Y-4212700D01*
X3437300Y-3537300D02*
X3462700Y-3562700D01*
X3462700Y-3537300D02*
X3437300Y-3562700D01*
X3437300Y-3662300D02*
X3462700Y-3687700D01*
X3462700Y-3662300D02*
X3437300Y-3687700D01*
X3452069Y-3772531D02*
X3477469Y-3797931D01*
X3477469Y-3772531D02*
X3452069Y-3797931D01*
X3487300Y-4137300D02*
X3512700Y-4162700D01*
X3512700Y-4137300D02*
X3487300Y-4162700D01*
X3633869Y-3949215D02*
X3659269Y-3974615D01*
X3659269Y-3949215D02*
X3633869Y-3974615D01*
X3681675Y-2631675D02*
X3707075Y-2657075D01*
X3707075Y-2631675D02*
X3681675Y-2657075D01*
X3787300Y-3937300D02*
X3812700Y-3962700D01*
X3812700Y-3937300D02*
X3787300Y-3962700D01*
X3827300Y-4137300D02*
X3852700Y-4162700D01*
X3852700Y-4137300D02*
X3827300Y-4162700D01*
X3937300Y-3537300D02*
X3962700Y-3562700D01*
X3962700Y-3537300D02*
X3937300Y-3562700D01*
X3937300Y-3637300D02*
X3962700Y-3662700D01*
X3962700Y-3637300D02*
X3937300Y-3662700D01*
X4037300Y-2687300D02*
X4062700Y-2712700D01*
X4062700Y-2687300D02*
X4037300Y-2712700D01*
X4037300Y-3387300D02*
X4062700Y-3412700D01*
X4062700Y-3387300D02*
X4037300Y-3412700D01*
X4037300Y-4487300D02*
X4062700Y-4512700D01*
X4062700Y-4487300D02*
X4037300Y-4512700D01*
X4057760Y-4737300D02*
X4083160Y-4762700D01*
X4083160Y-4737300D02*
X4057760Y-4762700D01*
X4787300Y-5887300D02*
X4812700Y-5912700D01*
X4812700Y-5887300D02*
X4787300Y-5912700D01*
X4837300Y-2687300D02*
X4862700Y-2712700D01*
X4862700Y-2687300D02*
X4837300Y-2712700D01*
X4937300Y-1487300D02*
X4962700Y-1512700D01*
X4962700Y-1487300D02*
X4937300Y-1512700D01*
X4937300Y-2287300D02*
X4962700Y-2312700D01*
X4962700Y-2287300D02*
X4937300Y-2312700D01*
X4937300Y-3087300D02*
X4962700Y-3112700D01*
X4962700Y-3087300D02*
X4937300Y-3112700D01*
X4937300Y-3887300D02*
X4962700Y-3912700D01*
X4962700Y-3887300D02*
X4937300Y-3912700D01*
X4937300Y-4687300D02*
X4962700Y-4712700D01*
X4962700Y-4687300D02*
X4937300Y-4712700D01*
X4937300Y-5487300D02*
X4962700Y-5512700D01*
X4962700Y-5487300D02*
X4937300Y-5512700D01*
X4962300Y-1412300D02*
X4987700Y-1437700D01*
X4987700Y-1412300D02*
X4962300Y-1437700D01*
X4962300Y-2212300D02*
X4987700Y-2237700D01*
X4987700Y-2212300D02*
X4962300Y-2237700D01*
X4962300Y-3012300D02*
X4987700Y-3037700D01*
X4987700Y-3012300D02*
X4962300Y-3037700D01*
X4962300Y-3812300D02*
X4987700Y-3837700D01*
X4987700Y-3812300D02*
X4962300Y-3837700D01*
X4962300Y-4612300D02*
X4987700Y-4637700D01*
X4987700Y-4612300D02*
X4962300Y-4637700D01*
X4962300Y-5412300D02*
X4987700Y-5437700D01*
X4987700Y-5412300D02*
X4962300Y-5437700D01*
X4987300Y-2087300D02*
X5012700Y-2112700D01*
X5012700Y-2087300D02*
X4987300Y-2112700D01*
X4987300Y-2887300D02*
X5012700Y-2912700D01*
X5012700Y-2887300D02*
X4987300Y-2912700D01*
X4987300Y-3687300D02*
X5012700Y-3712700D01*
X5012700Y-3687300D02*
X4987300Y-3712700D01*
X4987300Y-4487300D02*
X5012700Y-4512700D01*
X5012700Y-4487300D02*
X4987300Y-4512700D01*
X4987300Y-5287300D02*
X5012700Y-5312700D01*
X5012700Y-5287300D02*
X4987300Y-5312700D01*
X4987300Y-6087300D02*
X5012700Y-6112700D01*
X5012700Y-6087300D02*
X4987300Y-6112700D01*
X5187300Y-1287300D02*
X5212700Y-1312700D01*
X5212700Y-1287300D02*
X5187300Y-1312700D01*
X5187300Y-2087300D02*
X5212700Y-2112700D01*
X5212700Y-2087300D02*
X5187300Y-2112700D01*
X5187300Y-2887300D02*
X5212700Y-2912700D01*
X5212700Y-2887300D02*
X5187300Y-2912700D01*
X5187300Y-3687300D02*
X5212700Y-3712700D01*
X5212700Y-3687300D02*
X5187300Y-3712700D01*
X5187300Y-4487300D02*
X5212700Y-4512700D01*
X5212700Y-4487300D02*
X5187300Y-4512700D01*
X5187300Y-5287300D02*
X5212700Y-5312700D01*
X5212700Y-5287300D02*
X5187300Y-5312700D01*
X5262300Y-1312300D02*
X5287700Y-1337700D01*
X5287700Y-1312300D02*
X5262300Y-1337700D01*
X5262300Y-2112300D02*
X5287700Y-2137700D01*
X5287700Y-2112300D02*
X5262300Y-2137700D01*
X5262300Y-2912300D02*
X5287700Y-2937700D01*
X5287700Y-2912300D02*
X5262300Y-2937700D01*
X5262300Y-3712300D02*
X5287700Y-3737700D01*
X5287700Y-3712300D02*
X5262300Y-3737700D01*
X5262300Y-4512300D02*
X5287700Y-4537700D01*
X5287700Y-4512300D02*
X5262300Y-4537700D01*
X5262300Y-5312300D02*
X5287700Y-5337700D01*
X5287700Y-5312300D02*
X5262300Y-5337700D01*
X5337300Y-1337300D02*
X5362700Y-1362700D01*
X5362700Y-1337300D02*
X5337300Y-1362700D01*
X5337300Y-2137300D02*
X5362700Y-2162700D01*
X5362700Y-2137300D02*
X5337300Y-2162700D01*
X5337300Y-2937300D02*
X5362700Y-2962700D01*
X5362700Y-2937300D02*
X5337300Y-2962700D01*
X5337300Y-3737300D02*
X5362700Y-3762700D01*
X5362700Y-3737300D02*
X5337300Y-3762700D01*
X5337300Y-4537300D02*
X5362700Y-4562700D01*
X5362700Y-4537300D02*
X5337300Y-4562700D01*
X5337300Y-5337300D02*
X5362700Y-5362700D01*
X5362700Y-5337300D02*
X5337300Y-5362700D01*
X5394730Y-1387300D02*
X5420130Y-1412700D01*
X5420130Y-1387300D02*
X5394730Y-1412700D01*
X5394730Y-2187300D02*
X5420130Y-2212700D01*
X5420130Y-2187300D02*
X5394730Y-2212700D01*
X5394730Y-2987300D02*
X5420130Y-3012700D01*
X5420130Y-2987300D02*
X5394730Y-3012700D01*
X5394730Y-3787300D02*
X5420130Y-3812700D01*
X5420130Y-3787300D02*
X5394730Y-3812700D01*
X5394730Y-4587300D02*
X5420130Y-4612700D01*
X5420130Y-4587300D02*
X5394730Y-4612700D01*
X5394730Y-5387300D02*
X5420130Y-5412700D01*
X5420130Y-5387300D02*
X5394730Y-5412700D01*
X5474800Y-1474800D02*
X5500200Y-1500200D01*
X5500200Y-1474800D02*
X5474800Y-1500200D01*
X5474800Y-2274800D02*
X5500200Y-2300200D01*
X5500200Y-2274800D02*
X5474800Y-2300200D01*
X5474800Y-3074800D02*
X5500200Y-3100200D01*
X5500200Y-3074800D02*
X5474800Y-3100200D01*
X5474800Y-3874800D02*
X5500200Y-3900200D01*
X5500200Y-3874800D02*
X5474800Y-3900200D01*
X5474800Y-4674800D02*
X5500200Y-4700200D01*
X5500200Y-4674800D02*
X5474800Y-4700200D01*
X5474800Y-5474800D02*
X5500200Y-5500200D01*
X5500200Y-5474800D02*
X5474800Y-5500200D01*
X5687300Y-1087300D02*
X5712700Y-1112700D01*
X5712700Y-1087300D02*
X5687300Y-1112700D01*
X5687300Y-6287300D02*
X5712700Y-6312700D01*
X5712700Y-6287300D02*
X5687300Y-6312700D01*
X6037300Y-1987300D02*
X6062700Y-2012700D01*
X6062700Y-1987300D02*
X6037300Y-2012700D01*
X6037300Y-2837300D02*
X6062700Y-2862700D01*
X6062700Y-2837300D02*
X6037300Y-2862700D01*
X6037300Y-3687300D02*
X6062700Y-3712700D01*
X6062700Y-3687300D02*
X6037300Y-3712700D01*
X6037300Y-4537300D02*
X6062700Y-4562700D01*
X6062700Y-4537300D02*
X6037300Y-4562700D01*
X6037300Y-5387300D02*
X6062700Y-5412700D01*
X6062700Y-5387300D02*
X6037300Y-5412700D01*
X2855000Y-3222956D02*
G75*
G02*
X2825000Y-3222956I-15000J0D01*
G01*
X2825000Y-3222956D02*
G75*
G02*
X2855000Y-3222956I15000J0D01*
G01*
X2887500Y-1434251D02*
G75*
G02*
X2857500Y-1434251I-15000J0D01*
G01*
X2857500Y-1434251D02*
G75*
G02*
X2887500Y-1434251I15000J0D01*
G01*
X2965000Y-1650000D02*
G75*
G02*
X2935000Y-1650000I-15000J0D01*
G01*
X2935000Y-1650000D02*
G75*
G02*
X2965000Y-1650000I15000J0D01*
G01*
X3060000Y-1865186D02*
G75*
G02*
X3030000Y-1865186I-15000J0D01*
G01*
X3030000Y-1865186D02*
G75*
G02*
X3060000Y-1865186I15000J0D01*
G01*
X3269369Y-3421880D02*
G75*
G02*
X3239369Y-3421880I-15000J0D01*
G01*
X3239369Y-3421880D02*
G75*
G02*
X3269369Y-3421880I15000J0D01*
G01*
X3515000Y-2000000D02*
G75*
G02*
X3485000Y-2000000I-15000J0D01*
G01*
X3485000Y-2000000D02*
G75*
G02*
X3515000Y-2000000I15000J0D01*
G01*
X3765000Y-5300000D02*
G75*
G02*
X3735000Y-5300000I-15000J0D01*
G01*
X3735000Y-5300000D02*
G75*
G02*
X3765000Y-5300000I15000J0D01*
G01*
X3815000Y-3600000D02*
G75*
G02*
X3785000Y-3600000I-15000J0D01*
G01*
X3785000Y-3600000D02*
G75*
G02*
X3815000Y-3600000I15000J0D01*
G01*
X3837500Y-4326128D02*
G75*
G02*
X3807500Y-4326128I-15000J0D01*
G01*
X3807500Y-4326128D02*
G75*
G02*
X3837500Y-4326128I15000J0D01*
G01*
X3837500Y-4625802D02*
G75*
G02*
X3807500Y-4625802I-15000J0D01*
G01*
X3807500Y-4625802D02*
G75*
G02*
X3837500Y-4625802I15000J0D01*
G01*
X3915000Y-3100000D02*
G75*
G02*
X3885000Y-3100000I-15000J0D01*
G01*
X3885000Y-3100000D02*
G75*
G02*
X3915000Y-3100000I15000J0D01*
G01*
X3955000Y-1940000D02*
G75*
G02*
X3925000Y-1940000I-15000J0D01*
G01*
X3925000Y-1940000D02*
G75*
G02*
X3955000Y-1940000I15000J0D01*
G01*
X4065000Y-2350000D02*
G75*
G02*
X4035000Y-2350000I-15000J0D01*
G01*
X4035000Y-2350000D02*
G75*
G02*
X4065000Y-2350000I15000J0D01*
G01*
X4265000Y-2100000D02*
G75*
G02*
X4235000Y-2100000I-15000J0D01*
G01*
X4235000Y-2100000D02*
G75*
G02*
X4265000Y-2100000I15000J0D01*
G01*
X4292640Y-2900000D02*
G75*
G02*
X4262640Y-2900000I-15000J0D01*
G01*
X4262640Y-2900000D02*
G75*
G02*
X4292640Y-2900000I15000J0D01*
G01*
X4315000Y-4100000D02*
G75*
G02*
X4285000Y-4100000I-15000J0D01*
G01*
X4285000Y-4100000D02*
G75*
G02*
X4315000Y-4100000I15000J0D01*
G01*
X4315000Y-4900000D02*
G75*
G02*
X4285000Y-4900000I-15000J0D01*
G01*
X4285000Y-4900000D02*
G75*
G02*
X4315000Y-4900000I15000J0D01*
G01*
X4315000Y-5700000D02*
G75*
G02*
X4285000Y-5700000I-15000J0D01*
G01*
X4285000Y-5700000D02*
G75*
G02*
X4315000Y-5700000I15000J0D01*
G01*
X4365000Y-3304520D02*
G75*
G02*
X4335000Y-3304520I-15000J0D01*
G01*
X4335000Y-3304520D02*
G75*
G02*
X4365000Y-3304520I15000J0D01*
G01*
X4410306Y-4427500D02*
G75*
G02*
X4380306Y-4427500I-15000J0D01*
G01*
X4380306Y-4427500D02*
G75*
G02*
X4410306Y-4427500I15000J0D01*
G01*
X4415000Y-6100000D02*
G75*
G02*
X4385000Y-6100000I-15000J0D01*
G01*
X4385000Y-6100000D02*
G75*
G02*
X4415000Y-6100000I15000J0D01*
G01*
X4425186Y-5242380D02*
G75*
G02*
X4395186Y-5242380I-15000J0D01*
G01*
X4395186Y-5242380D02*
G75*
G02*
X4425186Y-5242380I15000J0D01*
G01*
X4434760Y-1602740D02*
G75*
G02*
X4404760Y-1602740I-15000J0D01*
G01*
X4404760Y-1602740D02*
G75*
G02*
X4434760Y-1602740I15000J0D01*
G01*
X4436010Y-2450000D02*
G75*
G02*
X4406010Y-2450000I-15000J0D01*
G01*
X4406010Y-2450000D02*
G75*
G02*
X4436010Y-2450000I15000J0D01*
G01*
X4465000Y-3650000D02*
G75*
G02*
X4435000Y-3650000I-15000J0D01*
G01*
X4435000Y-3650000D02*
G75*
G02*
X4465000Y-3650000I15000J0D01*
G01*
X4765000Y-1289060D02*
G75*
G02*
X4735000Y-1289060I-15000J0D01*
G01*
X4735000Y-1289060D02*
G75*
G02*
X4765000Y-1289060I15000J0D01*
G01*
X4765000Y-3721520D02*
G75*
G02*
X4735000Y-3721520I-15000J0D01*
G01*
X4735000Y-3721520D02*
G75*
G02*
X4765000Y-3721520I15000J0D01*
G01*
X4765000Y-5308120D02*
G75*
G02*
X4735000Y-5308120I-15000J0D01*
G01*
X4735000Y-5308120D02*
G75*
G02*
X4765000Y-5308120I15000J0D01*
G01*
X4774050Y-4522850D02*
G75*
G02*
X4744050Y-4522850I-15000J0D01*
G01*
X4744050Y-4522850D02*
G75*
G02*
X4774050Y-4522850I15000J0D01*
G01*
X4815000Y-2121520D02*
G75*
G02*
X4785000Y-2121520I-15000J0D01*
G01*
X4785000Y-2121520D02*
G75*
G02*
X4815000Y-2121520I15000J0D01*
G01*
X4815000Y-2921520D02*
G75*
G02*
X4785000Y-2921520I-15000J0D01*
G01*
X4785000Y-2921520D02*
G75*
G02*
X4815000Y-2921520I15000J0D01*
G01*
X4815000Y-4300000D02*
G75*
G02*
X4785000Y-4300000I-15000J0D01*
G01*
X4785000Y-4300000D02*
G75*
G02*
X4815000Y-4300000I15000J0D01*
G01*
X4815000Y-5100000D02*
G75*
G02*
X4785000Y-5100000I-15000J0D01*
G01*
X4785000Y-5100000D02*
G75*
G02*
X4815000Y-5100000I15000J0D01*
G01*
X4865000Y-1900000D02*
G75*
G02*
X4835000Y-1900000I-15000J0D01*
G01*
X4835000Y-1900000D02*
G75*
G02*
X4865000Y-1900000I15000J0D01*
G01*
X4865000Y-3500000D02*
G75*
G02*
X4835000Y-3500000I-15000J0D01*
G01*
X4835000Y-3500000D02*
G75*
G02*
X4865000Y-3500000I15000J0D01*
G01*
X5107846Y-3641880D02*
G75*
G02*
X5077846Y-3641880I-15000J0D01*
G01*
X5077846Y-3641880D02*
G75*
G02*
X5107846Y-3641880I15000J0D01*
G01*
X5111906Y-2038786D02*
G75*
G02*
X5081906Y-2038786I-15000J0D01*
G01*
X5081906Y-2038786D02*
G75*
G02*
X5111906Y-2038786I15000J0D01*
G01*
X5111906Y-2838786D02*
G75*
G02*
X5081906Y-2838786I-15000J0D01*
G01*
X5081906Y-2838786D02*
G75*
G02*
X5111906Y-2838786I15000J0D01*
G01*
X5111906Y-4438786D02*
G75*
G02*
X5081906Y-4438786I-15000J0D01*
G01*
X5081906Y-4438786D02*
G75*
G02*
X5111906Y-4438786I15000J0D01*
G01*
X5111906Y-5238786D02*
G75*
G02*
X5081906Y-5238786I-15000J0D01*
G01*
X5081906Y-5238786D02*
G75*
G02*
X5111906Y-5238786I15000J0D01*
G01*
X5111906Y-6038786D02*
G75*
G02*
X5081906Y-6038786I-15000J0D01*
G01*
X5081906Y-6038786D02*
G75*
G02*
X5111906Y-6038786I15000J0D01*
G01*
X5315000Y-6050000D02*
G75*
G02*
X5285000Y-6050000I-15000J0D01*
G01*
X5285000Y-6050000D02*
G75*
G02*
X5315000Y-6050000I15000J0D01*
G01*
X5457570Y-5942570D02*
G75*
G02*
X5427570Y-5942570I-15000J0D01*
G01*
X5427570Y-5942570D02*
G75*
G02*
X5457570Y-5942570I15000J0D01*
G01*
X5480550Y-1942570D02*
G75*
G02*
X5450550Y-1942570I-15000J0D01*
G01*
X5450550Y-1942570D02*
G75*
G02*
X5480550Y-1942570I15000J0D01*
G01*
X5480550Y-2050000D02*
G75*
G02*
X5450550Y-2050000I-15000J0D01*
G01*
X5450550Y-2050000D02*
G75*
G02*
X5480550Y-2050000I15000J0D01*
G01*
X5480550Y-2742570D02*
G75*
G02*
X5450550Y-2742570I-15000J0D01*
G01*
X5450550Y-2742570D02*
G75*
G02*
X5480550Y-2742570I15000J0D01*
G01*
X5480550Y-2850000D02*
G75*
G02*
X5450550Y-2850000I-15000J0D01*
G01*
X5450550Y-2850000D02*
G75*
G02*
X5480550Y-2850000I15000J0D01*
G01*
X5480550Y-3542570D02*
G75*
G02*
X5450550Y-3542570I-15000J0D01*
G01*
X5450550Y-3542570D02*
G75*
G02*
X5480550Y-3542570I15000J0D01*
G01*
X5480550Y-3650000D02*
G75*
G02*
X5450550Y-3650000I-15000J0D01*
G01*
X5450550Y-3650000D02*
G75*
G02*
X5480550Y-3650000I15000J0D01*
G01*
X5480550Y-4342570D02*
G75*
G02*
X5450550Y-4342570I-15000J0D01*
G01*
X5450550Y-4342570D02*
G75*
G02*
X5480550Y-4342570I15000J0D01*
G01*
X5480550Y-5142570D02*
G75*
G02*
X5450550Y-5142570I-15000J0D01*
G01*
X5450550Y-5142570D02*
G75*
G02*
X5480550Y-5142570I15000J0D01*
G01*
X5480550Y-5250000D02*
G75*
G02*
X5450550Y-5250000I-15000J0D01*
G01*
X5450550Y-5250000D02*
G75*
G02*
X5480550Y-5250000I15000J0D01*
G01*
X5515000Y-4450000D02*
G75*
G02*
X5485000Y-4450000I-15000J0D01*
G01*
X5485000Y-4450000D02*
G75*
G02*
X5515000Y-4450000I15000J0D01*
G01*
X5637500Y-1550000D02*
G75*
G02*
X5607500Y-1550000I-15000J0D01*
G01*
X5607500Y-1550000D02*
G75*
G02*
X5637500Y-1550000I15000J0D01*
G01*
X5637500Y-2400000D02*
G75*
G02*
X5607500Y-2400000I-15000J0D01*
G01*
X5607500Y-2400000D02*
G75*
G02*
X5637500Y-2400000I15000J0D01*
G01*
X5637500Y-3250000D02*
G75*
G02*
X5607500Y-3250000I-15000J0D01*
G01*
X5607500Y-3250000D02*
G75*
G02*
X5637500Y-3250000I15000J0D01*
G01*
X5637500Y-4150000D02*
G75*
G02*
X5607500Y-4150000I-15000J0D01*
G01*
X5607500Y-4150000D02*
G75*
G02*
X5637500Y-4150000I15000J0D01*
G01*
X5637500Y-5000000D02*
G75*
G02*
X5607500Y-5000000I-15000J0D01*
G01*
X5607500Y-5000000D02*
G75*
G02*
X5637500Y-5000000I15000J0D01*
G01*
X5637500Y-5850000D02*
G75*
G02*
X5607500Y-5850000I-15000J0D01*
G01*
X5607500Y-5850000D02*
G75*
G02*
X5637500Y-5850000I15000J0D01*
G01*
X2905000Y-3750000D02*
X2905000Y-3800000D01*
X2880000Y-3775000D02*
X2930000Y-3775000D01*
X2905000Y-3875000D02*
X2905000Y-3925000D01*
X2880000Y-3900000D02*
X2930000Y-3900000D01*
X2905000Y-4000000D02*
X2905000Y-4050000D01*
X2880000Y-4025000D02*
X2930000Y-4025000D01*
X2905000Y-4425000D02*
X2905000Y-4475000D01*
X2880000Y-4450000D02*
X2930000Y-4450000D01*
X2905000Y-4550000D02*
X2905000Y-4600000D01*
X2880000Y-4575000D02*
X2930000Y-4575000D01*
X2905000Y-4975000D02*
X2905000Y-5025000D01*
X2880000Y-5000000D02*
X2930000Y-5000000D01*
X2905000Y-5100000D02*
X2905000Y-5150000D01*
X2880000Y-5125000D02*
X2930000Y-5125000D01*
X2905000Y-5225000D02*
X2905000Y-5275000D01*
X2880000Y-5250000D02*
X2930000Y-5250000D01*
X2905000Y-5650000D02*
X2905000Y-5700000D01*
X2880000Y-5675000D02*
X2930000Y-5675000D01*
X2905000Y-5775000D02*
X2905000Y-5825000D01*
X2880000Y-5800000D02*
X2930000Y-5800000D01*
X2905000Y-5900000D02*
X2905000Y-5950000D01*
X2880000Y-5925000D02*
X2930000Y-5925000D01*
X3455000Y-5537500D02*
X3455000Y-5587500D01*
X3430000Y-5562500D02*
X3480000Y-5562500D01*
X3455000Y-5662500D02*
X3455000Y-5712500D01*
X3430000Y-5687500D02*
X3480000Y-5687500D01*
X3455000Y-5787500D02*
X3455000Y-5837500D01*
X3430000Y-5812500D02*
X3480000Y-5812500D01*
X3455000Y-5912500D02*
X3455000Y-5962500D01*
X3430000Y-5937500D02*
X3480000Y-5937500D01*
X3289213Y-1363713D02*
X3289213Y-1321287D01*
X3246787Y-1321287D01*
X3246787Y-1363713D01*
X3289213Y-1363713D01*
X3298000Y-1382500D02*
X3298000Y-1302500D01*
X3238000Y-1302500D02*
G75*
G02*
X3298000Y-1302500I30000J0D01*
G01*
X3238000Y-1302500D02*
X3238000Y-1382500D01*
X3238000Y-1382500D02*
G75*
G03*
X3298000Y-1382500I30000J0D01*
G01*
X3289213Y-1781713D02*
X3289213Y-1739287D01*
X3246787Y-1739287D01*
X3246787Y-1781713D01*
X3289213Y-1781713D01*
X3298000Y-1815500D02*
X3298000Y-1705500D01*
X3238000Y-1705500D02*
G75*
G02*
X3298000Y-1705500I30000J0D01*
G01*
X3238000Y-1705500D02*
X3238000Y-1815500D01*
X3238000Y-1815500D02*
G75*
G03*
X3298000Y-1815500I30000J0D01*
G01*
X4153213Y-1363713D02*
X4153213Y-1321287D01*
X4110787Y-1321287D01*
X4110787Y-1363713D01*
X4153213Y-1363713D01*
X4162000Y-1382500D02*
X4162000Y-1302500D01*
X4102000Y-1302500D02*
G75*
G02*
X4162000Y-1302500I30000J0D01*
G01*
X4102000Y-1302500D02*
X4102000Y-1382500D01*
X4102000Y-1382500D02*
G75*
G03*
X4162000Y-1382500I30000J0D01*
G01*
X4153213Y-1781713D02*
X4153213Y-1739287D01*
X4110787Y-1739287D01*
X4110787Y-1781713D01*
X4153213Y-1781713D01*
X4162000Y-1815500D02*
X4162000Y-1705500D01*
X4102000Y-1705500D02*
G75*
G02*
X4162000Y-1705500I30000J0D01*
G01*
X4102000Y-1705500D02*
X4102000Y-1815500D01*
X4102000Y-1815500D02*
G75*
G03*
X4162000Y-1815500I30000J0D01*
G01*
X6050000Y-1472500D02*
X6100000Y-1422500D01*
X6050000Y-1372500D01*
X6000000Y-1422500D01*
X6050000Y-1472500D01*
X6050000Y-1726500D02*
X6100000Y-1676500D01*
X6050000Y-1626500D01*
X6000000Y-1676500D01*
X6050000Y-1726500D01*
X6050000Y-2332500D02*
X6100000Y-2282500D01*
X6050000Y-2232500D01*
X6000000Y-2282500D01*
X6050000Y-2332500D01*
X6050000Y-2586500D02*
X6100000Y-2536500D01*
X6050000Y-2486500D01*
X6000000Y-2536500D01*
X6050000Y-2586500D01*
X6050000Y-3192500D02*
X6100000Y-3142500D01*
X6050000Y-3092500D01*
X6000000Y-3142500D01*
X6050000Y-3192500D01*
X6050000Y-3446500D02*
X6100000Y-3396500D01*
X6050000Y-3346500D01*
X6000000Y-3396500D01*
X6050000Y-3446500D01*
X6050000Y-4052500D02*
X6100000Y-4002500D01*
X6050000Y-3952500D01*
X6000000Y-4002500D01*
X6050000Y-4052500D01*
X6050000Y-4306500D02*
X6100000Y-4256500D01*
X6050000Y-4206500D01*
X6000000Y-4256500D01*
X6050000Y-4306500D01*
X6050000Y-4912500D02*
X6100000Y-4862500D01*
X6050000Y-4812500D01*
X6000000Y-4862500D01*
X6050000Y-4912500D01*
X6050000Y-5166500D02*
X6100000Y-5116500D01*
X6050000Y-5066500D01*
X6000000Y-5116500D01*
X6050000Y-5166500D01*
X6050000Y-5772500D02*
X6100000Y-5722500D01*
X6050000Y-5672500D01*
X6000000Y-5722500D01*
X6050000Y-5772500D01*
X6050000Y-6026500D02*
X6100000Y-5976500D01*
X6050000Y-5926500D01*
X6000000Y-5976500D01*
X6050000Y-6026500D01*
D13*
X2760000Y-2185000D02*
X2890000Y-2315000D01*
X2890000Y-2185000D02*
X2760000Y-2315000D01*
X2890000Y-2250000D02*
G75*
G02*
X2760000Y-2250000I-65000J0D01*
G01*
X2760000Y-2250000D02*
G75*
G02*
X2890000Y-2250000I65000J0D01*
G01*
X3410000Y-2185000D02*
X3540000Y-2315000D01*
X3540000Y-2185000D02*
X3410000Y-2315000D01*
X3540000Y-2250000D02*
G75*
G02*
X3410000Y-2250000I-65000J0D01*
G01*
X3410000Y-2250000D02*
G75*
G02*
X3540000Y-2250000I65000J0D01*
G01*
X3935000Y-5310000D02*
X4065000Y-5440000D01*
X4065000Y-5310000D02*
X3935000Y-5440000D01*
X4065000Y-5375000D02*
G75*
G02*
X3935000Y-5375000I-65000J0D01*
G01*
X3935000Y-5375000D02*
G75*
G02*
X4065000Y-5375000I65000J0D01*
G01*
X3935000Y-5960000D02*
X4065000Y-6090000D01*
X4065000Y-5960000D02*
X3935000Y-6090000D01*
X4065000Y-6025000D02*
G75*
G02*
X3935000Y-6025000I-65000J0D01*
G01*
X3935000Y-6025000D02*
G75*
G02*
X4065000Y-6025000I65000J0D01*
G01*
D11*
X2958277Y-7113984D02*
X2958277Y-6913984D01*
X2958277Y-6913984D02*
X3005896Y-6913984D01*
X3005896Y-6913984D02*
X3034467Y-6923508D01*
X3034467Y-6923508D02*
X3053515Y-6942555D01*
X3053515Y-6942555D02*
X3063039Y-6961603D01*
X3063039Y-6961603D02*
X3072562Y-6999698D01*
X3072562Y-6999698D02*
X3072562Y-7028269D01*
X3072562Y-7028269D02*
X3063039Y-7066365D01*
X3063039Y-7066365D02*
X3053515Y-7085412D01*
X3053515Y-7085412D02*
X3034467Y-7104460D01*
X3034467Y-7104460D02*
X3005896Y-7113984D01*
X3005896Y-7113984D02*
X2958277Y-7113984D01*
X3158277Y-7113984D02*
X3158277Y-6980650D01*
X3158277Y-7018746D02*
X3167801Y-6999698D01*
X3167801Y-6999698D02*
X3177324Y-6990174D01*
X3177324Y-6990174D02*
X3196372Y-6980650D01*
X3196372Y-6980650D02*
X3215420Y-6980650D01*
X3282086Y-7113984D02*
X3282086Y-6980650D01*
X3282086Y-6913984D02*
X3272562Y-6923508D01*
X3272562Y-6923508D02*
X3282086Y-6933031D01*
X3282086Y-6933031D02*
X3291610Y-6923508D01*
X3291610Y-6923508D02*
X3282086Y-6913984D01*
X3282086Y-6913984D02*
X3282086Y-6933031D01*
X3405896Y-7113984D02*
X3386848Y-7104460D01*
X3386848Y-7104460D02*
X3377324Y-7085412D01*
X3377324Y-7085412D02*
X3377324Y-6913984D01*
X3510658Y-7113984D02*
X3491610Y-7104460D01*
X3491610Y-7104460D02*
X3482086Y-7085412D01*
X3482086Y-7085412D02*
X3482086Y-6913984D01*
X3739229Y-7113984D02*
X3739229Y-6913984D01*
X3739229Y-6913984D02*
X3805896Y-7056841D01*
X3805896Y-7056841D02*
X3872562Y-6913984D01*
X3872562Y-6913984D02*
X3872562Y-7113984D01*
X4053515Y-7113984D02*
X4053515Y-7009222D01*
X4053515Y-7009222D02*
X4043991Y-6990174D01*
X4043991Y-6990174D02*
X4024943Y-6980650D01*
X4024943Y-6980650D02*
X3986848Y-6980650D01*
X3986848Y-6980650D02*
X3967801Y-6990174D01*
X4053515Y-7104460D02*
X4034467Y-7113984D01*
X4034467Y-7113984D02*
X3986848Y-7113984D01*
X3986848Y-7113984D02*
X3967801Y-7104460D01*
X3967801Y-7104460D02*
X3958277Y-7085412D01*
X3958277Y-7085412D02*
X3958277Y-7066365D01*
X3958277Y-7066365D02*
X3967801Y-7047317D01*
X3967801Y-7047317D02*
X3986848Y-7037793D01*
X3986848Y-7037793D02*
X4034467Y-7037793D01*
X4034467Y-7037793D02*
X4053515Y-7028269D01*
X4148753Y-6980650D02*
X4148753Y-7180650D01*
X4148753Y-6990174D02*
X4167801Y-6980650D01*
X4167801Y-6980650D02*
X4205896Y-6980650D01*
X4205896Y-6980650D02*
X4224944Y-6990174D01*
X4224944Y-6990174D02*
X4234467Y-6999698D01*
X4234467Y-6999698D02*
X4243991Y-7018746D01*
X4243991Y-7018746D02*
X4243991Y-7075888D01*
X4243991Y-7075888D02*
X4234467Y-7094936D01*
X4234467Y-7094936D02*
X4224944Y-7104460D01*
X4224944Y-7104460D02*
X4205896Y-7113984D01*
X4205896Y-7113984D02*
X4167801Y-7113984D01*
X4167801Y-7113984D02*
X4148753Y-7104460D01*
X4329705Y-7094936D02*
X4339229Y-7104460D01*
X4339229Y-7104460D02*
X4329705Y-7113984D01*
X4329705Y-7113984D02*
X4320182Y-7104460D01*
X4320182Y-7104460D02*
X4329705Y-7094936D01*
X4329705Y-7094936D02*
X4329705Y-7113984D01*
X4329705Y-6990174D02*
X4339229Y-6999698D01*
X4339229Y-6999698D02*
X4329705Y-7009222D01*
X4329705Y-7009222D02*
X4320182Y-6999698D01*
X4320182Y-6999698D02*
X4329705Y-6990174D01*
X4329705Y-6990174D02*
X4329705Y-7009222D01*
D12*
X2672100Y-7429800D02*
X2697500Y-7455200D01*
X2697500Y-7429800D02*
X2672100Y-7455200D01*
D11*
X2996372Y-7333984D02*
X3015420Y-7333984D01*
X3015420Y-7333984D02*
X3034467Y-7343508D01*
X3034467Y-7343508D02*
X3043991Y-7353031D01*
X3043991Y-7353031D02*
X3053515Y-7372079D01*
X3053515Y-7372079D02*
X3063039Y-7410174D01*
X3063039Y-7410174D02*
X3063039Y-7457793D01*
X3063039Y-7457793D02*
X3053515Y-7495888D01*
X3053515Y-7495888D02*
X3043991Y-7514936D01*
X3043991Y-7514936D02*
X3034467Y-7524460D01*
X3034467Y-7524460D02*
X3015420Y-7533984D01*
X3015420Y-7533984D02*
X2996372Y-7533984D01*
X2996372Y-7533984D02*
X2977324Y-7524460D01*
X2977324Y-7524460D02*
X2967801Y-7514936D01*
X2967801Y-7514936D02*
X2958277Y-7495888D01*
X2958277Y-7495888D02*
X2948753Y-7457793D01*
X2948753Y-7457793D02*
X2948753Y-7410174D01*
X2948753Y-7410174D02*
X2958277Y-7372079D01*
X2958277Y-7372079D02*
X2967801Y-7353031D01*
X2967801Y-7353031D02*
X2977324Y-7343508D01*
X2977324Y-7343508D02*
X2996372Y-7333984D01*
X3148753Y-7514936D02*
X3158277Y-7524460D01*
X3158277Y-7524460D02*
X3148753Y-7533984D01*
X3148753Y-7533984D02*
X3139229Y-7524460D01*
X3139229Y-7524460D02*
X3148753Y-7514936D01*
X3148753Y-7514936D02*
X3148753Y-7533984D01*
X3234467Y-7353031D02*
X3243991Y-7343508D01*
X3243991Y-7343508D02*
X3263039Y-7333984D01*
X3263039Y-7333984D02*
X3310658Y-7333984D01*
X3310658Y-7333984D02*
X3329705Y-7343508D01*
X3329705Y-7343508D02*
X3339229Y-7353031D01*
X3339229Y-7353031D02*
X3348753Y-7372079D01*
X3348753Y-7372079D02*
X3348753Y-7391127D01*
X3348753Y-7391127D02*
X3339229Y-7419698D01*
X3339229Y-7419698D02*
X3224943Y-7533984D01*
X3224943Y-7533984D02*
X3348753Y-7533984D01*
X3529705Y-7333984D02*
X3434467Y-7333984D01*
X3434467Y-7333984D02*
X3424943Y-7429222D01*
X3424943Y-7429222D02*
X3434467Y-7419698D01*
X3434467Y-7419698D02*
X3453515Y-7410174D01*
X3453515Y-7410174D02*
X3501134Y-7410174D01*
X3501134Y-7410174D02*
X3520182Y-7419698D01*
X3520182Y-7419698D02*
X3529705Y-7429222D01*
X3529705Y-7429222D02*
X3539229Y-7448269D01*
X3539229Y-7448269D02*
X3539229Y-7495888D01*
X3539229Y-7495888D02*
X3529705Y-7514936D01*
X3529705Y-7514936D02*
X3520182Y-7524460D01*
X3520182Y-7524460D02*
X3501134Y-7533984D01*
X3501134Y-7533984D02*
X3453515Y-7533984D01*
X3453515Y-7533984D02*
X3434467Y-7524460D01*
X3434467Y-7524460D02*
X3424943Y-7514936D01*
X3710658Y-7400650D02*
X3710658Y-7533984D01*
X3663039Y-7324460D02*
X3615420Y-7467317D01*
X3615420Y-7467317D02*
X3739229Y-7467317D01*
X3815420Y-7533984D02*
X3815420Y-7400650D01*
X3815420Y-7419698D02*
X3824943Y-7410174D01*
X3824943Y-7410174D02*
X3843991Y-7400650D01*
X3843991Y-7400650D02*
X3872563Y-7400650D01*
X3872563Y-7400650D02*
X3891610Y-7410174D01*
X3891610Y-7410174D02*
X3901134Y-7429222D01*
X3901134Y-7429222D02*
X3901134Y-7533984D01*
X3901134Y-7429222D02*
X3910658Y-7410174D01*
X3910658Y-7410174D02*
X3929705Y-7400650D01*
X3929705Y-7400650D02*
X3958277Y-7400650D01*
X3958277Y-7400650D02*
X3977324Y-7410174D01*
X3977324Y-7410174D02*
X3986848Y-7429222D01*
X3986848Y-7429222D02*
X3986848Y-7533984D01*
X4082086Y-7533984D02*
X4082086Y-7400650D01*
X4082086Y-7419698D02*
X4091610Y-7410174D01*
X4091610Y-7410174D02*
X4110658Y-7400650D01*
X4110658Y-7400650D02*
X4139229Y-7400650D01*
X4139229Y-7400650D02*
X4158277Y-7410174D01*
X4158277Y-7410174D02*
X4167801Y-7429222D01*
X4167801Y-7429222D02*
X4167801Y-7533984D01*
X4167801Y-7429222D02*
X4177324Y-7410174D01*
X4177324Y-7410174D02*
X4196372Y-7400650D01*
X4196372Y-7400650D02*
X4224944Y-7400650D01*
X4224944Y-7400650D02*
X4243991Y-7410174D01*
X4243991Y-7410174D02*
X4253515Y-7429222D01*
X4253515Y-7429222D02*
X4253515Y-7533984D01*
X4643991Y-7324460D02*
X4472563Y-7581603D01*
X4901134Y-7333984D02*
X4920182Y-7333984D01*
X4920182Y-7333984D02*
X4939229Y-7343508D01*
X4939229Y-7343508D02*
X4948753Y-7353031D01*
X4948753Y-7353031D02*
X4958277Y-7372079D01*
X4958277Y-7372079D02*
X4967801Y-7410174D01*
X4967801Y-7410174D02*
X4967801Y-7457793D01*
X4967801Y-7457793D02*
X4958277Y-7495888D01*
X4958277Y-7495888D02*
X4948753Y-7514936D01*
X4948753Y-7514936D02*
X4939229Y-7524460D01*
X4939229Y-7524460D02*
X4920182Y-7533984D01*
X4920182Y-7533984D02*
X4901134Y-7533984D01*
X4901134Y-7533984D02*
X4882087Y-7524460D01*
X4882087Y-7524460D02*
X4872563Y-7514936D01*
X4872563Y-7514936D02*
X4863039Y-7495888D01*
X4863039Y-7495888D02*
X4853515Y-7457793D01*
X4853515Y-7457793D02*
X4853515Y-7410174D01*
X4853515Y-7410174D02*
X4863039Y-7372079D01*
X4863039Y-7372079D02*
X4872563Y-7353031D01*
X4872563Y-7353031D02*
X4882087Y-7343508D01*
X4882087Y-7343508D02*
X4901134Y-7333984D01*
X5053515Y-7514936D02*
X5063039Y-7524460D01*
X5063039Y-7524460D02*
X5053515Y-7533984D01*
X5053515Y-7533984D02*
X5043991Y-7524460D01*
X5043991Y-7524460D02*
X5053515Y-7514936D01*
X5053515Y-7514936D02*
X5053515Y-7533984D01*
X5186848Y-7333984D02*
X5205896Y-7333984D01*
X5205896Y-7333984D02*
X5224944Y-7343508D01*
X5224944Y-7343508D02*
X5234468Y-7353031D01*
X5234468Y-7353031D02*
X5243991Y-7372079D01*
X5243991Y-7372079D02*
X5253515Y-7410174D01*
X5253515Y-7410174D02*
X5253515Y-7457793D01*
X5253515Y-7457793D02*
X5243991Y-7495888D01*
X5243991Y-7495888D02*
X5234468Y-7514936D01*
X5234468Y-7514936D02*
X5224944Y-7524460D01*
X5224944Y-7524460D02*
X5205896Y-7533984D01*
X5205896Y-7533984D02*
X5186848Y-7533984D01*
X5186848Y-7533984D02*
X5167801Y-7524460D01*
X5167801Y-7524460D02*
X5158277Y-7514936D01*
X5158277Y-7514936D02*
X5148753Y-7495888D01*
X5148753Y-7495888D02*
X5139229Y-7457793D01*
X5139229Y-7457793D02*
X5139229Y-7410174D01*
X5139229Y-7410174D02*
X5148753Y-7372079D01*
X5148753Y-7372079D02*
X5158277Y-7353031D01*
X5158277Y-7353031D02*
X5167801Y-7343508D01*
X5167801Y-7343508D02*
X5186848Y-7333984D01*
X5443991Y-7533984D02*
X5329706Y-7533984D01*
X5386848Y-7533984D02*
X5386848Y-7333984D01*
X5386848Y-7333984D02*
X5367801Y-7362555D01*
X5367801Y-7362555D02*
X5348753Y-7381603D01*
X5348753Y-7381603D02*
X5329706Y-7391127D01*
X5567801Y-7333984D02*
X5586849Y-7333984D01*
X5586849Y-7333984D02*
X5605896Y-7343508D01*
X5605896Y-7343508D02*
X5615420Y-7353031D01*
X5615420Y-7353031D02*
X5624944Y-7372079D01*
X5624944Y-7372079D02*
X5634467Y-7410174D01*
X5634467Y-7410174D02*
X5634467Y-7457793D01*
X5634467Y-7457793D02*
X5624944Y-7495888D01*
X5624944Y-7495888D02*
X5615420Y-7514936D01*
X5615420Y-7514936D02*
X5605896Y-7524460D01*
X5605896Y-7524460D02*
X5586849Y-7533984D01*
X5586849Y-7533984D02*
X5567801Y-7533984D01*
X5567801Y-7533984D02*
X5548753Y-7524460D01*
X5548753Y-7524460D02*
X5539229Y-7514936D01*
X5539229Y-7514936D02*
X5529706Y-7495888D01*
X5529706Y-7495888D02*
X5520182Y-7457793D01*
X5520182Y-7457793D02*
X5520182Y-7410174D01*
X5520182Y-7410174D02*
X5529706Y-7372079D01*
X5529706Y-7372079D02*
X5539229Y-7353031D01*
X5539229Y-7353031D02*
X5548753Y-7343508D01*
X5548753Y-7343508D02*
X5567801Y-7333984D01*
X5758277Y-7333984D02*
X5777325Y-7333984D01*
X5777325Y-7333984D02*
X5796372Y-7343508D01*
X5796372Y-7343508D02*
X5805896Y-7353031D01*
X5805896Y-7353031D02*
X5815420Y-7372079D01*
X5815420Y-7372079D02*
X5824944Y-7410174D01*
X5824944Y-7410174D02*
X5824944Y-7457793D01*
X5824944Y-7457793D02*
X5815420Y-7495888D01*
X5815420Y-7495888D02*
X5805896Y-7514936D01*
X5805896Y-7514936D02*
X5796372Y-7524460D01*
X5796372Y-7524460D02*
X5777325Y-7533984D01*
X5777325Y-7533984D02*
X5758277Y-7533984D01*
X5758277Y-7533984D02*
X5739229Y-7524460D01*
X5739229Y-7524460D02*
X5729706Y-7514936D01*
X5729706Y-7514936D02*
X5720182Y-7495888D01*
X5720182Y-7495888D02*
X5710658Y-7457793D01*
X5710658Y-7457793D02*
X5710658Y-7410174D01*
X5710658Y-7410174D02*
X5720182Y-7372079D01*
X5720182Y-7372079D02*
X5729706Y-7353031D01*
X5729706Y-7353031D02*
X5739229Y-7343508D01*
X5739229Y-7343508D02*
X5758277Y-7333984D01*
X5901134Y-7333984D02*
X5901134Y-7372079D01*
X5977325Y-7333984D02*
X5977325Y-7372079D01*
X6272563Y-7610174D02*
X6263039Y-7600650D01*
X6263039Y-7600650D02*
X6243991Y-7572079D01*
X6243991Y-7572079D02*
X6234468Y-7553031D01*
X6234468Y-7553031D02*
X6224944Y-7524460D01*
X6224944Y-7524460D02*
X6215420Y-7476841D01*
X6215420Y-7476841D02*
X6215420Y-7438746D01*
X6215420Y-7438746D02*
X6224944Y-7391127D01*
X6224944Y-7391127D02*
X6234468Y-7362555D01*
X6234468Y-7362555D02*
X6243991Y-7343508D01*
X6243991Y-7343508D02*
X6263039Y-7314936D01*
X6263039Y-7314936D02*
X6272563Y-7305412D01*
X6377325Y-7419698D02*
X6358277Y-7410174D01*
X6358277Y-7410174D02*
X6348753Y-7400650D01*
X6348753Y-7400650D02*
X6339229Y-7381603D01*
X6339229Y-7381603D02*
X6339229Y-7372079D01*
X6339229Y-7372079D02*
X6348753Y-7353031D01*
X6348753Y-7353031D02*
X6358277Y-7343508D01*
X6358277Y-7343508D02*
X6377325Y-7333984D01*
X6377325Y-7333984D02*
X6415420Y-7333984D01*
X6415420Y-7333984D02*
X6434468Y-7343508D01*
X6434468Y-7343508D02*
X6443991Y-7353031D01*
X6443991Y-7353031D02*
X6453515Y-7372079D01*
X6453515Y-7372079D02*
X6453515Y-7381603D01*
X6453515Y-7381603D02*
X6443991Y-7400650D01*
X6443991Y-7400650D02*
X6434468Y-7410174D01*
X6434468Y-7410174D02*
X6415420Y-7419698D01*
X6415420Y-7419698D02*
X6377325Y-7419698D01*
X6377325Y-7419698D02*
X6358277Y-7429222D01*
X6358277Y-7429222D02*
X6348753Y-7438746D01*
X6348753Y-7438746D02*
X6339229Y-7457793D01*
X6339229Y-7457793D02*
X6339229Y-7495888D01*
X6339229Y-7495888D02*
X6348753Y-7514936D01*
X6348753Y-7514936D02*
X6358277Y-7524460D01*
X6358277Y-7524460D02*
X6377325Y-7533984D01*
X6377325Y-7533984D02*
X6415420Y-7533984D01*
X6415420Y-7533984D02*
X6434468Y-7524460D01*
X6434468Y-7524460D02*
X6443991Y-7514936D01*
X6443991Y-7514936D02*
X6453515Y-7495888D01*
X6453515Y-7495888D02*
X6453515Y-7457793D01*
X6453515Y-7457793D02*
X6443991Y-7438746D01*
X6443991Y-7438746D02*
X6434468Y-7429222D01*
X6434468Y-7429222D02*
X6415420Y-7419698D01*
X6624944Y-7400650D02*
X6624944Y-7533984D01*
X6577325Y-7324460D02*
X6529706Y-7467317D01*
X6529706Y-7467317D02*
X6653515Y-7467317D01*
X6882087Y-7533984D02*
X6882087Y-7333984D01*
X6967801Y-7533984D02*
X6967801Y-7429222D01*
X6967801Y-7429222D02*
X6958277Y-7410174D01*
X6958277Y-7410174D02*
X6939230Y-7400650D01*
X6939230Y-7400650D02*
X6910658Y-7400650D01*
X6910658Y-7400650D02*
X6891610Y-7410174D01*
X6891610Y-7410174D02*
X6882087Y-7419698D01*
X7091610Y-7533984D02*
X7072563Y-7524460D01*
X7072563Y-7524460D02*
X7063039Y-7514936D01*
X7063039Y-7514936D02*
X7053515Y-7495888D01*
X7053515Y-7495888D02*
X7053515Y-7438746D01*
X7053515Y-7438746D02*
X7063039Y-7419698D01*
X7063039Y-7419698D02*
X7072563Y-7410174D01*
X7072563Y-7410174D02*
X7091610Y-7400650D01*
X7091610Y-7400650D02*
X7120182Y-7400650D01*
X7120182Y-7400650D02*
X7139230Y-7410174D01*
X7139230Y-7410174D02*
X7148753Y-7419698D01*
X7148753Y-7419698D02*
X7158277Y-7438746D01*
X7158277Y-7438746D02*
X7158277Y-7495888D01*
X7158277Y-7495888D02*
X7148753Y-7514936D01*
X7148753Y-7514936D02*
X7139230Y-7524460D01*
X7139230Y-7524460D02*
X7120182Y-7533984D01*
X7120182Y-7533984D02*
X7091610Y-7533984D01*
X7272563Y-7533984D02*
X7253515Y-7524460D01*
X7253515Y-7524460D02*
X7243991Y-7505412D01*
X7243991Y-7505412D02*
X7243991Y-7333984D01*
X7424944Y-7524460D02*
X7405896Y-7533984D01*
X7405896Y-7533984D02*
X7367801Y-7533984D01*
X7367801Y-7533984D02*
X7348753Y-7524460D01*
X7348753Y-7524460D02*
X7339230Y-7505412D01*
X7339230Y-7505412D02*
X7339230Y-7429222D01*
X7339230Y-7429222D02*
X7348753Y-7410174D01*
X7348753Y-7410174D02*
X7367801Y-7400650D01*
X7367801Y-7400650D02*
X7405896Y-7400650D01*
X7405896Y-7400650D02*
X7424944Y-7410174D01*
X7424944Y-7410174D02*
X7434468Y-7429222D01*
X7434468Y-7429222D02*
X7434468Y-7448269D01*
X7434468Y-7448269D02*
X7339230Y-7467317D01*
X7510658Y-7524460D02*
X7529706Y-7533984D01*
X7529706Y-7533984D02*
X7567801Y-7533984D01*
X7567801Y-7533984D02*
X7586849Y-7524460D01*
X7586849Y-7524460D02*
X7596372Y-7505412D01*
X7596372Y-7505412D02*
X7596372Y-7495888D01*
X7596372Y-7495888D02*
X7586849Y-7476841D01*
X7586849Y-7476841D02*
X7567801Y-7467317D01*
X7567801Y-7467317D02*
X7539230Y-7467317D01*
X7539230Y-7467317D02*
X7520182Y-7457793D01*
X7520182Y-7457793D02*
X7510658Y-7438746D01*
X7510658Y-7438746D02*
X7510658Y-7429222D01*
X7510658Y-7429222D02*
X7520182Y-7410174D01*
X7520182Y-7410174D02*
X7539230Y-7400650D01*
X7539230Y-7400650D02*
X7567801Y-7400650D01*
X7567801Y-7400650D02*
X7586849Y-7410174D01*
X7663039Y-7610174D02*
X7672563Y-7600650D01*
X7672563Y-7600650D02*
X7691611Y-7572079D01*
X7691611Y-7572079D02*
X7701134Y-7553031D01*
X7701134Y-7553031D02*
X7710658Y-7524460D01*
X7710658Y-7524460D02*
X7720182Y-7476841D01*
X7720182Y-7476841D02*
X7720182Y-7438746D01*
X7720182Y-7438746D02*
X7710658Y-7391127D01*
X7710658Y-7391127D02*
X7701134Y-7362555D01*
X7701134Y-7362555D02*
X7691611Y-7343508D01*
X7691611Y-7343508D02*
X7672563Y-7314936D01*
X7672563Y-7314936D02*
X7663039Y-7305412D01*
D12*
X2697500Y-7706500D02*
G75*
G02*
X2667500Y-7706500I-15000J0D01*
G01*
X2667500Y-7706500D02*
G75*
G02*
X2697500Y-7706500I15000J0D01*
G01*
D11*
X2996372Y-7597984D02*
X3015420Y-7597984D01*
X3015420Y-7597984D02*
X3034467Y-7607508D01*
X3034467Y-7607508D02*
X3043991Y-7617031D01*
X3043991Y-7617031D02*
X3053515Y-7636079D01*
X3053515Y-7636079D02*
X3063039Y-7674174D01*
X3063039Y-7674174D02*
X3063039Y-7721793D01*
X3063039Y-7721793D02*
X3053515Y-7759888D01*
X3053515Y-7759888D02*
X3043991Y-7778936D01*
X3043991Y-7778936D02*
X3034467Y-7788460D01*
X3034467Y-7788460D02*
X3015420Y-7797984D01*
X3015420Y-7797984D02*
X2996372Y-7797984D01*
X2996372Y-7797984D02*
X2977324Y-7788460D01*
X2977324Y-7788460D02*
X2967801Y-7778936D01*
X2967801Y-7778936D02*
X2958277Y-7759888D01*
X2958277Y-7759888D02*
X2948753Y-7721793D01*
X2948753Y-7721793D02*
X2948753Y-7674174D01*
X2948753Y-7674174D02*
X2958277Y-7636079D01*
X2958277Y-7636079D02*
X2967801Y-7617031D01*
X2967801Y-7617031D02*
X2977324Y-7607508D01*
X2977324Y-7607508D02*
X2996372Y-7597984D01*
X3148753Y-7778936D02*
X3158277Y-7788460D01*
X3158277Y-7788460D02*
X3148753Y-7797984D01*
X3148753Y-7797984D02*
X3139229Y-7788460D01*
X3139229Y-7788460D02*
X3148753Y-7778936D01*
X3148753Y-7778936D02*
X3148753Y-7797984D01*
X3224943Y-7597984D02*
X3348753Y-7597984D01*
X3348753Y-7597984D02*
X3282086Y-7674174D01*
X3282086Y-7674174D02*
X3310658Y-7674174D01*
X3310658Y-7674174D02*
X3329705Y-7683698D01*
X3329705Y-7683698D02*
X3339229Y-7693222D01*
X3339229Y-7693222D02*
X3348753Y-7712269D01*
X3348753Y-7712269D02*
X3348753Y-7759888D01*
X3348753Y-7759888D02*
X3339229Y-7778936D01*
X3339229Y-7778936D02*
X3329705Y-7788460D01*
X3329705Y-7788460D02*
X3310658Y-7797984D01*
X3310658Y-7797984D02*
X3253515Y-7797984D01*
X3253515Y-7797984D02*
X3234467Y-7788460D01*
X3234467Y-7788460D02*
X3224943Y-7778936D01*
X3472562Y-7597984D02*
X3491610Y-7597984D01*
X3491610Y-7597984D02*
X3510658Y-7607508D01*
X3510658Y-7607508D02*
X3520182Y-7617031D01*
X3520182Y-7617031D02*
X3529705Y-7636079D01*
X3529705Y-7636079D02*
X3539229Y-7674174D01*
X3539229Y-7674174D02*
X3539229Y-7721793D01*
X3539229Y-7721793D02*
X3529705Y-7759888D01*
X3529705Y-7759888D02*
X3520182Y-7778936D01*
X3520182Y-7778936D02*
X3510658Y-7788460D01*
X3510658Y-7788460D02*
X3491610Y-7797984D01*
X3491610Y-7797984D02*
X3472562Y-7797984D01*
X3472562Y-7797984D02*
X3453515Y-7788460D01*
X3453515Y-7788460D02*
X3443991Y-7778936D01*
X3443991Y-7778936D02*
X3434467Y-7759888D01*
X3434467Y-7759888D02*
X3424943Y-7721793D01*
X3424943Y-7721793D02*
X3424943Y-7674174D01*
X3424943Y-7674174D02*
X3434467Y-7636079D01*
X3434467Y-7636079D02*
X3443991Y-7617031D01*
X3443991Y-7617031D02*
X3453515Y-7607508D01*
X3453515Y-7607508D02*
X3472562Y-7597984D01*
X3663039Y-7597984D02*
X3682086Y-7597984D01*
X3682086Y-7597984D02*
X3701134Y-7607508D01*
X3701134Y-7607508D02*
X3710658Y-7617031D01*
X3710658Y-7617031D02*
X3720182Y-7636079D01*
X3720182Y-7636079D02*
X3729705Y-7674174D01*
X3729705Y-7674174D02*
X3729705Y-7721793D01*
X3729705Y-7721793D02*
X3720182Y-7759888D01*
X3720182Y-7759888D02*
X3710658Y-7778936D01*
X3710658Y-7778936D02*
X3701134Y-7788460D01*
X3701134Y-7788460D02*
X3682086Y-7797984D01*
X3682086Y-7797984D02*
X3663039Y-7797984D01*
X3663039Y-7797984D02*
X3643991Y-7788460D01*
X3643991Y-7788460D02*
X3634467Y-7778936D01*
X3634467Y-7778936D02*
X3624943Y-7759888D01*
X3624943Y-7759888D02*
X3615420Y-7721793D01*
X3615420Y-7721793D02*
X3615420Y-7674174D01*
X3615420Y-7674174D02*
X3624943Y-7636079D01*
X3624943Y-7636079D02*
X3634467Y-7617031D01*
X3634467Y-7617031D02*
X3643991Y-7607508D01*
X3643991Y-7607508D02*
X3663039Y-7597984D01*
X3815420Y-7797984D02*
X3815420Y-7664650D01*
X3815420Y-7683698D02*
X3824943Y-7674174D01*
X3824943Y-7674174D02*
X3843991Y-7664650D01*
X3843991Y-7664650D02*
X3872563Y-7664650D01*
X3872563Y-7664650D02*
X3891610Y-7674174D01*
X3891610Y-7674174D02*
X3901134Y-7693222D01*
X3901134Y-7693222D02*
X3901134Y-7797984D01*
X3901134Y-7693222D02*
X3910658Y-7674174D01*
X3910658Y-7674174D02*
X3929705Y-7664650D01*
X3929705Y-7664650D02*
X3958277Y-7664650D01*
X3958277Y-7664650D02*
X3977324Y-7674174D01*
X3977324Y-7674174D02*
X3986848Y-7693222D01*
X3986848Y-7693222D02*
X3986848Y-7797984D01*
X4082086Y-7797984D02*
X4082086Y-7664650D01*
X4082086Y-7683698D02*
X4091610Y-7674174D01*
X4091610Y-7674174D02*
X4110658Y-7664650D01*
X4110658Y-7664650D02*
X4139229Y-7664650D01*
X4139229Y-7664650D02*
X4158277Y-7674174D01*
X4158277Y-7674174D02*
X4167801Y-7693222D01*
X4167801Y-7693222D02*
X4167801Y-7797984D01*
X4167801Y-7693222D02*
X4177324Y-7674174D01*
X4177324Y-7674174D02*
X4196372Y-7664650D01*
X4196372Y-7664650D02*
X4224944Y-7664650D01*
X4224944Y-7664650D02*
X4243991Y-7674174D01*
X4243991Y-7674174D02*
X4253515Y-7693222D01*
X4253515Y-7693222D02*
X4253515Y-7797984D01*
X4643991Y-7588460D02*
X4472563Y-7845603D01*
X4901134Y-7597984D02*
X4920182Y-7597984D01*
X4920182Y-7597984D02*
X4939229Y-7607508D01*
X4939229Y-7607508D02*
X4948753Y-7617031D01*
X4948753Y-7617031D02*
X4958277Y-7636079D01*
X4958277Y-7636079D02*
X4967801Y-7674174D01*
X4967801Y-7674174D02*
X4967801Y-7721793D01*
X4967801Y-7721793D02*
X4958277Y-7759888D01*
X4958277Y-7759888D02*
X4948753Y-7778936D01*
X4948753Y-7778936D02*
X4939229Y-7788460D01*
X4939229Y-7788460D02*
X4920182Y-7797984D01*
X4920182Y-7797984D02*
X4901134Y-7797984D01*
X4901134Y-7797984D02*
X4882087Y-7788460D01*
X4882087Y-7788460D02*
X4872563Y-7778936D01*
X4872563Y-7778936D02*
X4863039Y-7759888D01*
X4863039Y-7759888D02*
X4853515Y-7721793D01*
X4853515Y-7721793D02*
X4853515Y-7674174D01*
X4853515Y-7674174D02*
X4863039Y-7636079D01*
X4863039Y-7636079D02*
X4872563Y-7617031D01*
X4872563Y-7617031D02*
X4882087Y-7607508D01*
X4882087Y-7607508D02*
X4901134Y-7597984D01*
X5053515Y-7778936D02*
X5063039Y-7788460D01*
X5063039Y-7788460D02*
X5053515Y-7797984D01*
X5053515Y-7797984D02*
X5043991Y-7788460D01*
X5043991Y-7788460D02*
X5053515Y-7778936D01*
X5053515Y-7778936D02*
X5053515Y-7797984D01*
X5186848Y-7597984D02*
X5205896Y-7597984D01*
X5205896Y-7597984D02*
X5224944Y-7607508D01*
X5224944Y-7607508D02*
X5234468Y-7617031D01*
X5234468Y-7617031D02*
X5243991Y-7636079D01*
X5243991Y-7636079D02*
X5253515Y-7674174D01*
X5253515Y-7674174D02*
X5253515Y-7721793D01*
X5253515Y-7721793D02*
X5243991Y-7759888D01*
X5243991Y-7759888D02*
X5234468Y-7778936D01*
X5234468Y-7778936D02*
X5224944Y-7788460D01*
X5224944Y-7788460D02*
X5205896Y-7797984D01*
X5205896Y-7797984D02*
X5186848Y-7797984D01*
X5186848Y-7797984D02*
X5167801Y-7788460D01*
X5167801Y-7788460D02*
X5158277Y-7778936D01*
X5158277Y-7778936D02*
X5148753Y-7759888D01*
X5148753Y-7759888D02*
X5139229Y-7721793D01*
X5139229Y-7721793D02*
X5139229Y-7674174D01*
X5139229Y-7674174D02*
X5148753Y-7636079D01*
X5148753Y-7636079D02*
X5158277Y-7617031D01*
X5158277Y-7617031D02*
X5167801Y-7607508D01*
X5167801Y-7607508D02*
X5186848Y-7597984D01*
X5443991Y-7797984D02*
X5329706Y-7797984D01*
X5386848Y-7797984D02*
X5386848Y-7597984D01*
X5386848Y-7597984D02*
X5367801Y-7626555D01*
X5367801Y-7626555D02*
X5348753Y-7645603D01*
X5348753Y-7645603D02*
X5329706Y-7655127D01*
X5634467Y-7797984D02*
X5520182Y-7797984D01*
X5577325Y-7797984D02*
X5577325Y-7597984D01*
X5577325Y-7597984D02*
X5558277Y-7626555D01*
X5558277Y-7626555D02*
X5539229Y-7645603D01*
X5539229Y-7645603D02*
X5520182Y-7655127D01*
X5748753Y-7683698D02*
X5729706Y-7674174D01*
X5729706Y-7674174D02*
X5720182Y-7664650D01*
X5720182Y-7664650D02*
X5710658Y-7645603D01*
X5710658Y-7645603D02*
X5710658Y-7636079D01*
X5710658Y-7636079D02*
X5720182Y-7617031D01*
X5720182Y-7617031D02*
X5729706Y-7607508D01*
X5729706Y-7607508D02*
X5748753Y-7597984D01*
X5748753Y-7597984D02*
X5786848Y-7597984D01*
X5786848Y-7597984D02*
X5805896Y-7607508D01*
X5805896Y-7607508D02*
X5815420Y-7617031D01*
X5815420Y-7617031D02*
X5824944Y-7636079D01*
X5824944Y-7636079D02*
X5824944Y-7645603D01*
X5824944Y-7645603D02*
X5815420Y-7664650D01*
X5815420Y-7664650D02*
X5805896Y-7674174D01*
X5805896Y-7674174D02*
X5786848Y-7683698D01*
X5786848Y-7683698D02*
X5748753Y-7683698D01*
X5748753Y-7683698D02*
X5729706Y-7693222D01*
X5729706Y-7693222D02*
X5720182Y-7702746D01*
X5720182Y-7702746D02*
X5710658Y-7721793D01*
X5710658Y-7721793D02*
X5710658Y-7759888D01*
X5710658Y-7759888D02*
X5720182Y-7778936D01*
X5720182Y-7778936D02*
X5729706Y-7788460D01*
X5729706Y-7788460D02*
X5748753Y-7797984D01*
X5748753Y-7797984D02*
X5786848Y-7797984D01*
X5786848Y-7797984D02*
X5805896Y-7788460D01*
X5805896Y-7788460D02*
X5815420Y-7778936D01*
X5815420Y-7778936D02*
X5824944Y-7759888D01*
X5824944Y-7759888D02*
X5824944Y-7721793D01*
X5824944Y-7721793D02*
X5815420Y-7702746D01*
X5815420Y-7702746D02*
X5805896Y-7693222D01*
X5805896Y-7693222D02*
X5786848Y-7683698D01*
X5901134Y-7597984D02*
X5901134Y-7636079D01*
X5977325Y-7597984D02*
X5977325Y-7636079D01*
X6272563Y-7874174D02*
X6263039Y-7864650D01*
X6263039Y-7864650D02*
X6243991Y-7836079D01*
X6243991Y-7836079D02*
X6234468Y-7817031D01*
X6234468Y-7817031D02*
X6224944Y-7788460D01*
X6224944Y-7788460D02*
X6215420Y-7740841D01*
X6215420Y-7740841D02*
X6215420Y-7702746D01*
X6215420Y-7702746D02*
X6224944Y-7655127D01*
X6224944Y-7655127D02*
X6234468Y-7626555D01*
X6234468Y-7626555D02*
X6243991Y-7607508D01*
X6243991Y-7607508D02*
X6263039Y-7578936D01*
X6263039Y-7578936D02*
X6272563Y-7569412D01*
X6443991Y-7597984D02*
X6348753Y-7597984D01*
X6348753Y-7597984D02*
X6339229Y-7693222D01*
X6339229Y-7693222D02*
X6348753Y-7683698D01*
X6348753Y-7683698D02*
X6367801Y-7674174D01*
X6367801Y-7674174D02*
X6415420Y-7674174D01*
X6415420Y-7674174D02*
X6434468Y-7683698D01*
X6434468Y-7683698D02*
X6443991Y-7693222D01*
X6443991Y-7693222D02*
X6453515Y-7712269D01*
X6453515Y-7712269D02*
X6453515Y-7759888D01*
X6453515Y-7759888D02*
X6443991Y-7778936D01*
X6443991Y-7778936D02*
X6434468Y-7788460D01*
X6434468Y-7788460D02*
X6415420Y-7797984D01*
X6415420Y-7797984D02*
X6367801Y-7797984D01*
X6367801Y-7797984D02*
X6348753Y-7788460D01*
X6348753Y-7788460D02*
X6339229Y-7778936D01*
X6548753Y-7797984D02*
X6586848Y-7797984D01*
X6586848Y-7797984D02*
X6605896Y-7788460D01*
X6605896Y-7788460D02*
X6615420Y-7778936D01*
X6615420Y-7778936D02*
X6634468Y-7750365D01*
X6634468Y-7750365D02*
X6643991Y-7712269D01*
X6643991Y-7712269D02*
X6643991Y-7636079D01*
X6643991Y-7636079D02*
X6634468Y-7617031D01*
X6634468Y-7617031D02*
X6624944Y-7607508D01*
X6624944Y-7607508D02*
X6605896Y-7597984D01*
X6605896Y-7597984D02*
X6567801Y-7597984D01*
X6567801Y-7597984D02*
X6548753Y-7607508D01*
X6548753Y-7607508D02*
X6539229Y-7617031D01*
X6539229Y-7617031D02*
X6529706Y-7636079D01*
X6529706Y-7636079D02*
X6529706Y-7683698D01*
X6529706Y-7683698D02*
X6539229Y-7702746D01*
X6539229Y-7702746D02*
X6548753Y-7712269D01*
X6548753Y-7712269D02*
X6567801Y-7721793D01*
X6567801Y-7721793D02*
X6605896Y-7721793D01*
X6605896Y-7721793D02*
X6624944Y-7712269D01*
X6624944Y-7712269D02*
X6634468Y-7702746D01*
X6634468Y-7702746D02*
X6643991Y-7683698D01*
X6882087Y-7797984D02*
X6882087Y-7597984D01*
X6967801Y-7797984D02*
X6967801Y-7693222D01*
X6967801Y-7693222D02*
X6958277Y-7674174D01*
X6958277Y-7674174D02*
X6939230Y-7664650D01*
X6939230Y-7664650D02*
X6910658Y-7664650D01*
X6910658Y-7664650D02*
X6891610Y-7674174D01*
X6891610Y-7674174D02*
X6882087Y-7683698D01*
X7091610Y-7797984D02*
X7072563Y-7788460D01*
X7072563Y-7788460D02*
X7063039Y-7778936D01*
X7063039Y-7778936D02*
X7053515Y-7759888D01*
X7053515Y-7759888D02*
X7053515Y-7702746D01*
X7053515Y-7702746D02*
X7063039Y-7683698D01*
X7063039Y-7683698D02*
X7072563Y-7674174D01*
X7072563Y-7674174D02*
X7091610Y-7664650D01*
X7091610Y-7664650D02*
X7120182Y-7664650D01*
X7120182Y-7664650D02*
X7139230Y-7674174D01*
X7139230Y-7674174D02*
X7148753Y-7683698D01*
X7148753Y-7683698D02*
X7158277Y-7702746D01*
X7158277Y-7702746D02*
X7158277Y-7759888D01*
X7158277Y-7759888D02*
X7148753Y-7778936D01*
X7148753Y-7778936D02*
X7139230Y-7788460D01*
X7139230Y-7788460D02*
X7120182Y-7797984D01*
X7120182Y-7797984D02*
X7091610Y-7797984D01*
X7272563Y-7797984D02*
X7253515Y-7788460D01*
X7253515Y-7788460D02*
X7243991Y-7769412D01*
X7243991Y-7769412D02*
X7243991Y-7597984D01*
X7424944Y-7788460D02*
X7405896Y-7797984D01*
X7405896Y-7797984D02*
X7367801Y-7797984D01*
X7367801Y-7797984D02*
X7348753Y-7788460D01*
X7348753Y-7788460D02*
X7339230Y-7769412D01*
X7339230Y-7769412D02*
X7339230Y-7693222D01*
X7339230Y-7693222D02*
X7348753Y-7674174D01*
X7348753Y-7674174D02*
X7367801Y-7664650D01*
X7367801Y-7664650D02*
X7405896Y-7664650D01*
X7405896Y-7664650D02*
X7424944Y-7674174D01*
X7424944Y-7674174D02*
X7434468Y-7693222D01*
X7434468Y-7693222D02*
X7434468Y-7712269D01*
X7434468Y-7712269D02*
X7339230Y-7731317D01*
X7510658Y-7788460D02*
X7529706Y-7797984D01*
X7529706Y-7797984D02*
X7567801Y-7797984D01*
X7567801Y-7797984D02*
X7586849Y-7788460D01*
X7586849Y-7788460D02*
X7596372Y-7769412D01*
X7596372Y-7769412D02*
X7596372Y-7759888D01*
X7596372Y-7759888D02*
X7586849Y-7740841D01*
X7586849Y-7740841D02*
X7567801Y-7731317D01*
X7567801Y-7731317D02*
X7539230Y-7731317D01*
X7539230Y-7731317D02*
X7520182Y-7721793D01*
X7520182Y-7721793D02*
X7510658Y-7702746D01*
X7510658Y-7702746D02*
X7510658Y-7693222D01*
X7510658Y-7693222D02*
X7520182Y-7674174D01*
X7520182Y-7674174D02*
X7539230Y-7664650D01*
X7539230Y-7664650D02*
X7567801Y-7664650D01*
X7567801Y-7664650D02*
X7586849Y-7674174D01*
X7663039Y-7874174D02*
X7672563Y-7864650D01*
X7672563Y-7864650D02*
X7691611Y-7836079D01*
X7691611Y-7836079D02*
X7701134Y-7817031D01*
X7701134Y-7817031D02*
X7710658Y-7788460D01*
X7710658Y-7788460D02*
X7720182Y-7740841D01*
X7720182Y-7740841D02*
X7720182Y-7702746D01*
X7720182Y-7702746D02*
X7710658Y-7655127D01*
X7710658Y-7655127D02*
X7701134Y-7626555D01*
X7701134Y-7626555D02*
X7691611Y-7607508D01*
X7691611Y-7607508D02*
X7672563Y-7578936D01*
X7672563Y-7578936D02*
X7663039Y-7569412D01*
D12*
X2672500Y-7945500D02*
X2672500Y-7995500D01*
X2647500Y-7970500D02*
X2697500Y-7970500D01*
D11*
X2996372Y-7861984D02*
X3015420Y-7861984D01*
X3015420Y-7861984D02*
X3034467Y-7871508D01*
X3034467Y-7871508D02*
X3043991Y-7881031D01*
X3043991Y-7881031D02*
X3053515Y-7900079D01*
X3053515Y-7900079D02*
X3063039Y-7938174D01*
X3063039Y-7938174D02*
X3063039Y-7985793D01*
X3063039Y-7985793D02*
X3053515Y-8023888D01*
X3053515Y-8023888D02*
X3043991Y-8042936D01*
X3043991Y-8042936D02*
X3034467Y-8052460D01*
X3034467Y-8052460D02*
X3015420Y-8061984D01*
X3015420Y-8061984D02*
X2996372Y-8061984D01*
X2996372Y-8061984D02*
X2977324Y-8052460D01*
X2977324Y-8052460D02*
X2967801Y-8042936D01*
X2967801Y-8042936D02*
X2958277Y-8023888D01*
X2958277Y-8023888D02*
X2948753Y-7985793D01*
X2948753Y-7985793D02*
X2948753Y-7938174D01*
X2948753Y-7938174D02*
X2958277Y-7900079D01*
X2958277Y-7900079D02*
X2967801Y-7881031D01*
X2967801Y-7881031D02*
X2977324Y-7871508D01*
X2977324Y-7871508D02*
X2996372Y-7861984D01*
X3148753Y-8042936D02*
X3158277Y-8052460D01*
X3158277Y-8052460D02*
X3148753Y-8061984D01*
X3148753Y-8061984D02*
X3139229Y-8052460D01*
X3139229Y-8052460D02*
X3148753Y-8042936D01*
X3148753Y-8042936D02*
X3148753Y-8061984D01*
X3339229Y-7861984D02*
X3243991Y-7861984D01*
X3243991Y-7861984D02*
X3234467Y-7957222D01*
X3234467Y-7957222D02*
X3243991Y-7947698D01*
X3243991Y-7947698D02*
X3263039Y-7938174D01*
X3263039Y-7938174D02*
X3310658Y-7938174D01*
X3310658Y-7938174D02*
X3329705Y-7947698D01*
X3329705Y-7947698D02*
X3339229Y-7957222D01*
X3339229Y-7957222D02*
X3348753Y-7976269D01*
X3348753Y-7976269D02*
X3348753Y-8023888D01*
X3348753Y-8023888D02*
X3339229Y-8042936D01*
X3339229Y-8042936D02*
X3329705Y-8052460D01*
X3329705Y-8052460D02*
X3310658Y-8061984D01*
X3310658Y-8061984D02*
X3263039Y-8061984D01*
X3263039Y-8061984D02*
X3243991Y-8052460D01*
X3243991Y-8052460D02*
X3234467Y-8042936D01*
X3472562Y-7861984D02*
X3491610Y-7861984D01*
X3491610Y-7861984D02*
X3510658Y-7871508D01*
X3510658Y-7871508D02*
X3520182Y-7881031D01*
X3520182Y-7881031D02*
X3529705Y-7900079D01*
X3529705Y-7900079D02*
X3539229Y-7938174D01*
X3539229Y-7938174D02*
X3539229Y-7985793D01*
X3539229Y-7985793D02*
X3529705Y-8023888D01*
X3529705Y-8023888D02*
X3520182Y-8042936D01*
X3520182Y-8042936D02*
X3510658Y-8052460D01*
X3510658Y-8052460D02*
X3491610Y-8061984D01*
X3491610Y-8061984D02*
X3472562Y-8061984D01*
X3472562Y-8061984D02*
X3453515Y-8052460D01*
X3453515Y-8052460D02*
X3443991Y-8042936D01*
X3443991Y-8042936D02*
X3434467Y-8023888D01*
X3434467Y-8023888D02*
X3424943Y-7985793D01*
X3424943Y-7985793D02*
X3424943Y-7938174D01*
X3424943Y-7938174D02*
X3434467Y-7900079D01*
X3434467Y-7900079D02*
X3443991Y-7881031D01*
X3443991Y-7881031D02*
X3453515Y-7871508D01*
X3453515Y-7871508D02*
X3472562Y-7861984D01*
X3663039Y-7861984D02*
X3682086Y-7861984D01*
X3682086Y-7861984D02*
X3701134Y-7871508D01*
X3701134Y-7871508D02*
X3710658Y-7881031D01*
X3710658Y-7881031D02*
X3720182Y-7900079D01*
X3720182Y-7900079D02*
X3729705Y-7938174D01*
X3729705Y-7938174D02*
X3729705Y-7985793D01*
X3729705Y-7985793D02*
X3720182Y-8023888D01*
X3720182Y-8023888D02*
X3710658Y-8042936D01*
X3710658Y-8042936D02*
X3701134Y-8052460D01*
X3701134Y-8052460D02*
X3682086Y-8061984D01*
X3682086Y-8061984D02*
X3663039Y-8061984D01*
X3663039Y-8061984D02*
X3643991Y-8052460D01*
X3643991Y-8052460D02*
X3634467Y-8042936D01*
X3634467Y-8042936D02*
X3624943Y-8023888D01*
X3624943Y-8023888D02*
X3615420Y-7985793D01*
X3615420Y-7985793D02*
X3615420Y-7938174D01*
X3615420Y-7938174D02*
X3624943Y-7900079D01*
X3624943Y-7900079D02*
X3634467Y-7881031D01*
X3634467Y-7881031D02*
X3643991Y-7871508D01*
X3643991Y-7871508D02*
X3663039Y-7861984D01*
X3815420Y-8061984D02*
X3815420Y-7928650D01*
X3815420Y-7947698D02*
X3824943Y-7938174D01*
X3824943Y-7938174D02*
X3843991Y-7928650D01*
X3843991Y-7928650D02*
X3872563Y-7928650D01*
X3872563Y-7928650D02*
X3891610Y-7938174D01*
X3891610Y-7938174D02*
X3901134Y-7957222D01*
X3901134Y-7957222D02*
X3901134Y-8061984D01*
X3901134Y-7957222D02*
X3910658Y-7938174D01*
X3910658Y-7938174D02*
X3929705Y-7928650D01*
X3929705Y-7928650D02*
X3958277Y-7928650D01*
X3958277Y-7928650D02*
X3977324Y-7938174D01*
X3977324Y-7938174D02*
X3986848Y-7957222D01*
X3986848Y-7957222D02*
X3986848Y-8061984D01*
X4082086Y-8061984D02*
X4082086Y-7928650D01*
X4082086Y-7947698D02*
X4091610Y-7938174D01*
X4091610Y-7938174D02*
X4110658Y-7928650D01*
X4110658Y-7928650D02*
X4139229Y-7928650D01*
X4139229Y-7928650D02*
X4158277Y-7938174D01*
X4158277Y-7938174D02*
X4167801Y-7957222D01*
X4167801Y-7957222D02*
X4167801Y-8061984D01*
X4167801Y-7957222D02*
X4177324Y-7938174D01*
X4177324Y-7938174D02*
X4196372Y-7928650D01*
X4196372Y-7928650D02*
X4224944Y-7928650D01*
X4224944Y-7928650D02*
X4243991Y-7938174D01*
X4243991Y-7938174D02*
X4253515Y-7957222D01*
X4253515Y-7957222D02*
X4253515Y-8061984D01*
X4643991Y-7852460D02*
X4472563Y-8109603D01*
X4901134Y-7861984D02*
X4920182Y-7861984D01*
X4920182Y-7861984D02*
X4939229Y-7871508D01*
X4939229Y-7871508D02*
X4948753Y-7881031D01*
X4948753Y-7881031D02*
X4958277Y-7900079D01*
X4958277Y-7900079D02*
X4967801Y-7938174D01*
X4967801Y-7938174D02*
X4967801Y-7985793D01*
X4967801Y-7985793D02*
X4958277Y-8023888D01*
X4958277Y-8023888D02*
X4948753Y-8042936D01*
X4948753Y-8042936D02*
X4939229Y-8052460D01*
X4939229Y-8052460D02*
X4920182Y-8061984D01*
X4920182Y-8061984D02*
X4901134Y-8061984D01*
X4901134Y-8061984D02*
X4882087Y-8052460D01*
X4882087Y-8052460D02*
X4872563Y-8042936D01*
X4872563Y-8042936D02*
X4863039Y-8023888D01*
X4863039Y-8023888D02*
X4853515Y-7985793D01*
X4853515Y-7985793D02*
X4853515Y-7938174D01*
X4853515Y-7938174D02*
X4863039Y-7900079D01*
X4863039Y-7900079D02*
X4872563Y-7881031D01*
X4872563Y-7881031D02*
X4882087Y-7871508D01*
X4882087Y-7871508D02*
X4901134Y-7861984D01*
X5053515Y-8042936D02*
X5063039Y-8052460D01*
X5063039Y-8052460D02*
X5053515Y-8061984D01*
X5053515Y-8061984D02*
X5043991Y-8052460D01*
X5043991Y-8052460D02*
X5053515Y-8042936D01*
X5053515Y-8042936D02*
X5053515Y-8061984D01*
X5186848Y-7861984D02*
X5205896Y-7861984D01*
X5205896Y-7861984D02*
X5224944Y-7871508D01*
X5224944Y-7871508D02*
X5234468Y-7881031D01*
X5234468Y-7881031D02*
X5243991Y-7900079D01*
X5243991Y-7900079D02*
X5253515Y-7938174D01*
X5253515Y-7938174D02*
X5253515Y-7985793D01*
X5253515Y-7985793D02*
X5243991Y-8023888D01*
X5243991Y-8023888D02*
X5234468Y-8042936D01*
X5234468Y-8042936D02*
X5224944Y-8052460D01*
X5224944Y-8052460D02*
X5205896Y-8061984D01*
X5205896Y-8061984D02*
X5186848Y-8061984D01*
X5186848Y-8061984D02*
X5167801Y-8052460D01*
X5167801Y-8052460D02*
X5158277Y-8042936D01*
X5158277Y-8042936D02*
X5148753Y-8023888D01*
X5148753Y-8023888D02*
X5139229Y-7985793D01*
X5139229Y-7985793D02*
X5139229Y-7938174D01*
X5139229Y-7938174D02*
X5148753Y-7900079D01*
X5148753Y-7900079D02*
X5158277Y-7881031D01*
X5158277Y-7881031D02*
X5167801Y-7871508D01*
X5167801Y-7871508D02*
X5186848Y-7861984D01*
X5443991Y-8061984D02*
X5329706Y-8061984D01*
X5386848Y-8061984D02*
X5386848Y-7861984D01*
X5386848Y-7861984D02*
X5367801Y-7890555D01*
X5367801Y-7890555D02*
X5348753Y-7909603D01*
X5348753Y-7909603D02*
X5329706Y-7919127D01*
X5539229Y-8061984D02*
X5577325Y-8061984D01*
X5577325Y-8061984D02*
X5596372Y-8052460D01*
X5596372Y-8052460D02*
X5605896Y-8042936D01*
X5605896Y-8042936D02*
X5624944Y-8014365D01*
X5624944Y-8014365D02*
X5634467Y-7976269D01*
X5634467Y-7976269D02*
X5634467Y-7900079D01*
X5634467Y-7900079D02*
X5624944Y-7881031D01*
X5624944Y-7881031D02*
X5615420Y-7871508D01*
X5615420Y-7871508D02*
X5596372Y-7861984D01*
X5596372Y-7861984D02*
X5558277Y-7861984D01*
X5558277Y-7861984D02*
X5539229Y-7871508D01*
X5539229Y-7871508D02*
X5529706Y-7881031D01*
X5529706Y-7881031D02*
X5520182Y-7900079D01*
X5520182Y-7900079D02*
X5520182Y-7947698D01*
X5520182Y-7947698D02*
X5529706Y-7966746D01*
X5529706Y-7966746D02*
X5539229Y-7976269D01*
X5539229Y-7976269D02*
X5558277Y-7985793D01*
X5558277Y-7985793D02*
X5596372Y-7985793D01*
X5596372Y-7985793D02*
X5615420Y-7976269D01*
X5615420Y-7976269D02*
X5624944Y-7966746D01*
X5624944Y-7966746D02*
X5634467Y-7947698D01*
X5701134Y-7861984D02*
X5834467Y-7861984D01*
X5834467Y-7861984D02*
X5748753Y-8061984D01*
X5901134Y-7861984D02*
X5901134Y-7900079D01*
X5977325Y-7861984D02*
X5977325Y-7900079D01*
X6272563Y-8138174D02*
X6263039Y-8128650D01*
X6263039Y-8128650D02*
X6243991Y-8100079D01*
X6243991Y-8100079D02*
X6234468Y-8081031D01*
X6234468Y-8081031D02*
X6224944Y-8052460D01*
X6224944Y-8052460D02*
X6215420Y-8004841D01*
X6215420Y-8004841D02*
X6215420Y-7966746D01*
X6215420Y-7966746D02*
X6224944Y-7919127D01*
X6224944Y-7919127D02*
X6234468Y-7890555D01*
X6234468Y-7890555D02*
X6243991Y-7871508D01*
X6243991Y-7871508D02*
X6263039Y-7842936D01*
X6263039Y-7842936D02*
X6272563Y-7833412D01*
X6453515Y-8061984D02*
X6339229Y-8061984D01*
X6396372Y-8061984D02*
X6396372Y-7861984D01*
X6396372Y-7861984D02*
X6377325Y-7890555D01*
X6377325Y-7890555D02*
X6358277Y-7909603D01*
X6358277Y-7909603D02*
X6339229Y-7919127D01*
X6634468Y-7861984D02*
X6539229Y-7861984D01*
X6539229Y-7861984D02*
X6529706Y-7957222D01*
X6529706Y-7957222D02*
X6539229Y-7947698D01*
X6539229Y-7947698D02*
X6558277Y-7938174D01*
X6558277Y-7938174D02*
X6605896Y-7938174D01*
X6605896Y-7938174D02*
X6624944Y-7947698D01*
X6624944Y-7947698D02*
X6634468Y-7957222D01*
X6634468Y-7957222D02*
X6643991Y-7976269D01*
X6643991Y-7976269D02*
X6643991Y-8023888D01*
X6643991Y-8023888D02*
X6634468Y-8042936D01*
X6634468Y-8042936D02*
X6624944Y-8052460D01*
X6624944Y-8052460D02*
X6605896Y-8061984D01*
X6605896Y-8061984D02*
X6558277Y-8061984D01*
X6558277Y-8061984D02*
X6539229Y-8052460D01*
X6539229Y-8052460D02*
X6529706Y-8042936D01*
X6882087Y-8061984D02*
X6882087Y-7861984D01*
X6967801Y-8061984D02*
X6967801Y-7957222D01*
X6967801Y-7957222D02*
X6958277Y-7938174D01*
X6958277Y-7938174D02*
X6939230Y-7928650D01*
X6939230Y-7928650D02*
X6910658Y-7928650D01*
X6910658Y-7928650D02*
X6891610Y-7938174D01*
X6891610Y-7938174D02*
X6882087Y-7947698D01*
X7091610Y-8061984D02*
X7072563Y-8052460D01*
X7072563Y-8052460D02*
X7063039Y-8042936D01*
X7063039Y-8042936D02*
X7053515Y-8023888D01*
X7053515Y-8023888D02*
X7053515Y-7966746D01*
X7053515Y-7966746D02*
X7063039Y-7947698D01*
X7063039Y-7947698D02*
X7072563Y-7938174D01*
X7072563Y-7938174D02*
X7091610Y-7928650D01*
X7091610Y-7928650D02*
X7120182Y-7928650D01*
X7120182Y-7928650D02*
X7139230Y-7938174D01*
X7139230Y-7938174D02*
X7148753Y-7947698D01*
X7148753Y-7947698D02*
X7158277Y-7966746D01*
X7158277Y-7966746D02*
X7158277Y-8023888D01*
X7158277Y-8023888D02*
X7148753Y-8042936D01*
X7148753Y-8042936D02*
X7139230Y-8052460D01*
X7139230Y-8052460D02*
X7120182Y-8061984D01*
X7120182Y-8061984D02*
X7091610Y-8061984D01*
X7272563Y-8061984D02*
X7253515Y-8052460D01*
X7253515Y-8052460D02*
X7243991Y-8033412D01*
X7243991Y-8033412D02*
X7243991Y-7861984D01*
X7424944Y-8052460D02*
X7405896Y-8061984D01*
X7405896Y-8061984D02*
X7367801Y-8061984D01*
X7367801Y-8061984D02*
X7348753Y-8052460D01*
X7348753Y-8052460D02*
X7339230Y-8033412D01*
X7339230Y-8033412D02*
X7339230Y-7957222D01*
X7339230Y-7957222D02*
X7348753Y-7938174D01*
X7348753Y-7938174D02*
X7367801Y-7928650D01*
X7367801Y-7928650D02*
X7405896Y-7928650D01*
X7405896Y-7928650D02*
X7424944Y-7938174D01*
X7424944Y-7938174D02*
X7434468Y-7957222D01*
X7434468Y-7957222D02*
X7434468Y-7976269D01*
X7434468Y-7976269D02*
X7339230Y-7995317D01*
X7510658Y-8052460D02*
X7529706Y-8061984D01*
X7529706Y-8061984D02*
X7567801Y-8061984D01*
X7567801Y-8061984D02*
X7586849Y-8052460D01*
X7586849Y-8052460D02*
X7596372Y-8033412D01*
X7596372Y-8033412D02*
X7596372Y-8023888D01*
X7596372Y-8023888D02*
X7586849Y-8004841D01*
X7586849Y-8004841D02*
X7567801Y-7995317D01*
X7567801Y-7995317D02*
X7539230Y-7995317D01*
X7539230Y-7995317D02*
X7520182Y-7985793D01*
X7520182Y-7985793D02*
X7510658Y-7966746D01*
X7510658Y-7966746D02*
X7510658Y-7957222D01*
X7510658Y-7957222D02*
X7520182Y-7938174D01*
X7520182Y-7938174D02*
X7539230Y-7928650D01*
X7539230Y-7928650D02*
X7567801Y-7928650D01*
X7567801Y-7928650D02*
X7586849Y-7938174D01*
X7663039Y-8138174D02*
X7672563Y-8128650D01*
X7672563Y-8128650D02*
X7691611Y-8100079D01*
X7691611Y-8100079D02*
X7701134Y-8081031D01*
X7701134Y-8081031D02*
X7710658Y-8052460D01*
X7710658Y-8052460D02*
X7720182Y-8004841D01*
X7720182Y-8004841D02*
X7720182Y-7966746D01*
X7720182Y-7966746D02*
X7710658Y-7919127D01*
X7710658Y-7919127D02*
X7701134Y-7890555D01*
X7701134Y-7890555D02*
X7691611Y-7871508D01*
X7691611Y-7871508D02*
X7672563Y-7842936D01*
X7672563Y-7842936D02*
X7663039Y-7833412D01*
D12*
X2688713Y-8255713D02*
X2688713Y-8213287D01*
X2646287Y-8213287D01*
X2646287Y-8255713D01*
X2688713Y-8255713D01*
D11*
X2996372Y-8125984D02*
X3015420Y-8125984D01*
X3015420Y-8125984D02*
X3034467Y-8135508D01*
X3034467Y-8135508D02*
X3043991Y-8145031D01*
X3043991Y-8145031D02*
X3053515Y-8164079D01*
X3053515Y-8164079D02*
X3063039Y-8202174D01*
X3063039Y-8202174D02*
X3063039Y-8249793D01*
X3063039Y-8249793D02*
X3053515Y-8287888D01*
X3053515Y-8287888D02*
X3043991Y-8306936D01*
X3043991Y-8306936D02*
X3034467Y-8316460D01*
X3034467Y-8316460D02*
X3015420Y-8325984D01*
X3015420Y-8325984D02*
X2996372Y-8325984D01*
X2996372Y-8325984D02*
X2977324Y-8316460D01*
X2977324Y-8316460D02*
X2967801Y-8306936D01*
X2967801Y-8306936D02*
X2958277Y-8287888D01*
X2958277Y-8287888D02*
X2948753Y-8249793D01*
X2948753Y-8249793D02*
X2948753Y-8202174D01*
X2948753Y-8202174D02*
X2958277Y-8164079D01*
X2958277Y-8164079D02*
X2967801Y-8145031D01*
X2967801Y-8145031D02*
X2977324Y-8135508D01*
X2977324Y-8135508D02*
X2996372Y-8125984D01*
X3148753Y-8306936D02*
X3158277Y-8316460D01*
X3158277Y-8316460D02*
X3148753Y-8325984D01*
X3148753Y-8325984D02*
X3139229Y-8316460D01*
X3139229Y-8316460D02*
X3148753Y-8306936D01*
X3148753Y-8306936D02*
X3148753Y-8325984D01*
X3329705Y-8125984D02*
X3291610Y-8125984D01*
X3291610Y-8125984D02*
X3272562Y-8135508D01*
X3272562Y-8135508D02*
X3263039Y-8145031D01*
X3263039Y-8145031D02*
X3243991Y-8173603D01*
X3243991Y-8173603D02*
X3234467Y-8211698D01*
X3234467Y-8211698D02*
X3234467Y-8287888D01*
X3234467Y-8287888D02*
X3243991Y-8306936D01*
X3243991Y-8306936D02*
X3253515Y-8316460D01*
X3253515Y-8316460D02*
X3272562Y-8325984D01*
X3272562Y-8325984D02*
X3310658Y-8325984D01*
X3310658Y-8325984D02*
X3329705Y-8316460D01*
X3329705Y-8316460D02*
X3339229Y-8306936D01*
X3339229Y-8306936D02*
X3348753Y-8287888D01*
X3348753Y-8287888D02*
X3348753Y-8240269D01*
X3348753Y-8240269D02*
X3339229Y-8221222D01*
X3339229Y-8221222D02*
X3329705Y-8211698D01*
X3329705Y-8211698D02*
X3310658Y-8202174D01*
X3310658Y-8202174D02*
X3272562Y-8202174D01*
X3272562Y-8202174D02*
X3253515Y-8211698D01*
X3253515Y-8211698D02*
X3243991Y-8221222D01*
X3243991Y-8221222D02*
X3234467Y-8240269D01*
X3472562Y-8125984D02*
X3491610Y-8125984D01*
X3491610Y-8125984D02*
X3510658Y-8135508D01*
X3510658Y-8135508D02*
X3520182Y-8145031D01*
X3520182Y-8145031D02*
X3529705Y-8164079D01*
X3529705Y-8164079D02*
X3539229Y-8202174D01*
X3539229Y-8202174D02*
X3539229Y-8249793D01*
X3539229Y-8249793D02*
X3529705Y-8287888D01*
X3529705Y-8287888D02*
X3520182Y-8306936D01*
X3520182Y-8306936D02*
X3510658Y-8316460D01*
X3510658Y-8316460D02*
X3491610Y-8325984D01*
X3491610Y-8325984D02*
X3472562Y-8325984D01*
X3472562Y-8325984D02*
X3453515Y-8316460D01*
X3453515Y-8316460D02*
X3443991Y-8306936D01*
X3443991Y-8306936D02*
X3434467Y-8287888D01*
X3434467Y-8287888D02*
X3424943Y-8249793D01*
X3424943Y-8249793D02*
X3424943Y-8202174D01*
X3424943Y-8202174D02*
X3434467Y-8164079D01*
X3434467Y-8164079D02*
X3443991Y-8145031D01*
X3443991Y-8145031D02*
X3453515Y-8135508D01*
X3453515Y-8135508D02*
X3472562Y-8125984D01*
X3663039Y-8125984D02*
X3682086Y-8125984D01*
X3682086Y-8125984D02*
X3701134Y-8135508D01*
X3701134Y-8135508D02*
X3710658Y-8145031D01*
X3710658Y-8145031D02*
X3720182Y-8164079D01*
X3720182Y-8164079D02*
X3729705Y-8202174D01*
X3729705Y-8202174D02*
X3729705Y-8249793D01*
X3729705Y-8249793D02*
X3720182Y-8287888D01*
X3720182Y-8287888D02*
X3710658Y-8306936D01*
X3710658Y-8306936D02*
X3701134Y-8316460D01*
X3701134Y-8316460D02*
X3682086Y-8325984D01*
X3682086Y-8325984D02*
X3663039Y-8325984D01*
X3663039Y-8325984D02*
X3643991Y-8316460D01*
X3643991Y-8316460D02*
X3634467Y-8306936D01*
X3634467Y-8306936D02*
X3624943Y-8287888D01*
X3624943Y-8287888D02*
X3615420Y-8249793D01*
X3615420Y-8249793D02*
X3615420Y-8202174D01*
X3615420Y-8202174D02*
X3624943Y-8164079D01*
X3624943Y-8164079D02*
X3634467Y-8145031D01*
X3634467Y-8145031D02*
X3643991Y-8135508D01*
X3643991Y-8135508D02*
X3663039Y-8125984D01*
X3815420Y-8325984D02*
X3815420Y-8192650D01*
X3815420Y-8211698D02*
X3824943Y-8202174D01*
X3824943Y-8202174D02*
X3843991Y-8192650D01*
X3843991Y-8192650D02*
X3872563Y-8192650D01*
X3872563Y-8192650D02*
X3891610Y-8202174D01*
X3891610Y-8202174D02*
X3901134Y-8221222D01*
X3901134Y-8221222D02*
X3901134Y-8325984D01*
X3901134Y-8221222D02*
X3910658Y-8202174D01*
X3910658Y-8202174D02*
X3929705Y-8192650D01*
X3929705Y-8192650D02*
X3958277Y-8192650D01*
X3958277Y-8192650D02*
X3977324Y-8202174D01*
X3977324Y-8202174D02*
X3986848Y-8221222D01*
X3986848Y-8221222D02*
X3986848Y-8325984D01*
X4082086Y-8325984D02*
X4082086Y-8192650D01*
X4082086Y-8211698D02*
X4091610Y-8202174D01*
X4091610Y-8202174D02*
X4110658Y-8192650D01*
X4110658Y-8192650D02*
X4139229Y-8192650D01*
X4139229Y-8192650D02*
X4158277Y-8202174D01*
X4158277Y-8202174D02*
X4167801Y-8221222D01*
X4167801Y-8221222D02*
X4167801Y-8325984D01*
X4167801Y-8221222D02*
X4177324Y-8202174D01*
X4177324Y-8202174D02*
X4196372Y-8192650D01*
X4196372Y-8192650D02*
X4224944Y-8192650D01*
X4224944Y-8192650D02*
X4243991Y-8202174D01*
X4243991Y-8202174D02*
X4253515Y-8221222D01*
X4253515Y-8221222D02*
X4253515Y-8325984D01*
X4643991Y-8116460D02*
X4472563Y-8373603D01*
X4901134Y-8125984D02*
X4920182Y-8125984D01*
X4920182Y-8125984D02*
X4939229Y-8135508D01*
X4939229Y-8135508D02*
X4948753Y-8145031D01*
X4948753Y-8145031D02*
X4958277Y-8164079D01*
X4958277Y-8164079D02*
X4967801Y-8202174D01*
X4967801Y-8202174D02*
X4967801Y-8249793D01*
X4967801Y-8249793D02*
X4958277Y-8287888D01*
X4958277Y-8287888D02*
X4948753Y-8306936D01*
X4948753Y-8306936D02*
X4939229Y-8316460D01*
X4939229Y-8316460D02*
X4920182Y-8325984D01*
X4920182Y-8325984D02*
X4901134Y-8325984D01*
X4901134Y-8325984D02*
X4882087Y-8316460D01*
X4882087Y-8316460D02*
X4872563Y-8306936D01*
X4872563Y-8306936D02*
X4863039Y-8287888D01*
X4863039Y-8287888D02*
X4853515Y-8249793D01*
X4853515Y-8249793D02*
X4853515Y-8202174D01*
X4853515Y-8202174D02*
X4863039Y-8164079D01*
X4863039Y-8164079D02*
X4872563Y-8145031D01*
X4872563Y-8145031D02*
X4882087Y-8135508D01*
X4882087Y-8135508D02*
X4901134Y-8125984D01*
X5053515Y-8306936D02*
X5063039Y-8316460D01*
X5063039Y-8316460D02*
X5053515Y-8325984D01*
X5053515Y-8325984D02*
X5043991Y-8316460D01*
X5043991Y-8316460D02*
X5053515Y-8306936D01*
X5053515Y-8306936D02*
X5053515Y-8325984D01*
X5186848Y-8125984D02*
X5205896Y-8125984D01*
X5205896Y-8125984D02*
X5224944Y-8135508D01*
X5224944Y-8135508D02*
X5234468Y-8145031D01*
X5234468Y-8145031D02*
X5243991Y-8164079D01*
X5243991Y-8164079D02*
X5253515Y-8202174D01*
X5253515Y-8202174D02*
X5253515Y-8249793D01*
X5253515Y-8249793D02*
X5243991Y-8287888D01*
X5243991Y-8287888D02*
X5234468Y-8306936D01*
X5234468Y-8306936D02*
X5224944Y-8316460D01*
X5224944Y-8316460D02*
X5205896Y-8325984D01*
X5205896Y-8325984D02*
X5186848Y-8325984D01*
X5186848Y-8325984D02*
X5167801Y-8316460D01*
X5167801Y-8316460D02*
X5158277Y-8306936D01*
X5158277Y-8306936D02*
X5148753Y-8287888D01*
X5148753Y-8287888D02*
X5139229Y-8249793D01*
X5139229Y-8249793D02*
X5139229Y-8202174D01*
X5139229Y-8202174D02*
X5148753Y-8164079D01*
X5148753Y-8164079D02*
X5158277Y-8145031D01*
X5158277Y-8145031D02*
X5167801Y-8135508D01*
X5167801Y-8135508D02*
X5186848Y-8125984D01*
X5329706Y-8145031D02*
X5339229Y-8135508D01*
X5339229Y-8135508D02*
X5358277Y-8125984D01*
X5358277Y-8125984D02*
X5405896Y-8125984D01*
X5405896Y-8125984D02*
X5424944Y-8135508D01*
X5424944Y-8135508D02*
X5434468Y-8145031D01*
X5434468Y-8145031D02*
X5443991Y-8164079D01*
X5443991Y-8164079D02*
X5443991Y-8183127D01*
X5443991Y-8183127D02*
X5434468Y-8211698D01*
X5434468Y-8211698D02*
X5320182Y-8325984D01*
X5320182Y-8325984D02*
X5443991Y-8325984D01*
X5510658Y-8125984D02*
X5634467Y-8125984D01*
X5634467Y-8125984D02*
X5567801Y-8202174D01*
X5567801Y-8202174D02*
X5596372Y-8202174D01*
X5596372Y-8202174D02*
X5615420Y-8211698D01*
X5615420Y-8211698D02*
X5624944Y-8221222D01*
X5624944Y-8221222D02*
X5634467Y-8240269D01*
X5634467Y-8240269D02*
X5634467Y-8287888D01*
X5634467Y-8287888D02*
X5624944Y-8306936D01*
X5624944Y-8306936D02*
X5615420Y-8316460D01*
X5615420Y-8316460D02*
X5596372Y-8325984D01*
X5596372Y-8325984D02*
X5539229Y-8325984D01*
X5539229Y-8325984D02*
X5520182Y-8316460D01*
X5520182Y-8316460D02*
X5510658Y-8306936D01*
X5805896Y-8125984D02*
X5767801Y-8125984D01*
X5767801Y-8125984D02*
X5748753Y-8135508D01*
X5748753Y-8135508D02*
X5739229Y-8145031D01*
X5739229Y-8145031D02*
X5720182Y-8173603D01*
X5720182Y-8173603D02*
X5710658Y-8211698D01*
X5710658Y-8211698D02*
X5710658Y-8287888D01*
X5710658Y-8287888D02*
X5720182Y-8306936D01*
X5720182Y-8306936D02*
X5729706Y-8316460D01*
X5729706Y-8316460D02*
X5748753Y-8325984D01*
X5748753Y-8325984D02*
X5786848Y-8325984D01*
X5786848Y-8325984D02*
X5805896Y-8316460D01*
X5805896Y-8316460D02*
X5815420Y-8306936D01*
X5815420Y-8306936D02*
X5824944Y-8287888D01*
X5824944Y-8287888D02*
X5824944Y-8240269D01*
X5824944Y-8240269D02*
X5815420Y-8221222D01*
X5815420Y-8221222D02*
X5805896Y-8211698D01*
X5805896Y-8211698D02*
X5786848Y-8202174D01*
X5786848Y-8202174D02*
X5748753Y-8202174D01*
X5748753Y-8202174D02*
X5729706Y-8211698D01*
X5729706Y-8211698D02*
X5720182Y-8221222D01*
X5720182Y-8221222D02*
X5710658Y-8240269D01*
X5901134Y-8125984D02*
X5901134Y-8164079D01*
X5977325Y-8125984D02*
X5977325Y-8164079D01*
X6272563Y-8402174D02*
X6263039Y-8392650D01*
X6263039Y-8392650D02*
X6243991Y-8364079D01*
X6243991Y-8364079D02*
X6234468Y-8345031D01*
X6234468Y-8345031D02*
X6224944Y-8316460D01*
X6224944Y-8316460D02*
X6215420Y-8268841D01*
X6215420Y-8268841D02*
X6215420Y-8230746D01*
X6215420Y-8230746D02*
X6224944Y-8183127D01*
X6224944Y-8183127D02*
X6234468Y-8154555D01*
X6234468Y-8154555D02*
X6243991Y-8135508D01*
X6243991Y-8135508D02*
X6263039Y-8106936D01*
X6263039Y-8106936D02*
X6272563Y-8097412D01*
X6386848Y-8125984D02*
X6405896Y-8125984D01*
X6405896Y-8125984D02*
X6424944Y-8135508D01*
X6424944Y-8135508D02*
X6434468Y-8145031D01*
X6434468Y-8145031D02*
X6443991Y-8164079D01*
X6443991Y-8164079D02*
X6453515Y-8202174D01*
X6453515Y-8202174D02*
X6453515Y-8249793D01*
X6453515Y-8249793D02*
X6443991Y-8287888D01*
X6443991Y-8287888D02*
X6434468Y-8306936D01*
X6434468Y-8306936D02*
X6424944Y-8316460D01*
X6424944Y-8316460D02*
X6405896Y-8325984D01*
X6405896Y-8325984D02*
X6386848Y-8325984D01*
X6386848Y-8325984D02*
X6367801Y-8316460D01*
X6367801Y-8316460D02*
X6358277Y-8306936D01*
X6358277Y-8306936D02*
X6348753Y-8287888D01*
X6348753Y-8287888D02*
X6339229Y-8249793D01*
X6339229Y-8249793D02*
X6339229Y-8202174D01*
X6339229Y-8202174D02*
X6348753Y-8164079D01*
X6348753Y-8164079D02*
X6358277Y-8145031D01*
X6358277Y-8145031D02*
X6367801Y-8135508D01*
X6367801Y-8135508D02*
X6386848Y-8125984D01*
X6691610Y-8325984D02*
X6691610Y-8125984D01*
X6777325Y-8325984D02*
X6777325Y-8221222D01*
X6777325Y-8221222D02*
X6767801Y-8202174D01*
X6767801Y-8202174D02*
X6748753Y-8192650D01*
X6748753Y-8192650D02*
X6720182Y-8192650D01*
X6720182Y-8192650D02*
X6701134Y-8202174D01*
X6701134Y-8202174D02*
X6691610Y-8211698D01*
X6901134Y-8325984D02*
X6882087Y-8316460D01*
X6882087Y-8316460D02*
X6872563Y-8306936D01*
X6872563Y-8306936D02*
X6863039Y-8287888D01*
X6863039Y-8287888D02*
X6863039Y-8230746D01*
X6863039Y-8230746D02*
X6872563Y-8211698D01*
X6872563Y-8211698D02*
X6882087Y-8202174D01*
X6882087Y-8202174D02*
X6901134Y-8192650D01*
X6901134Y-8192650D02*
X6929706Y-8192650D01*
X6929706Y-8192650D02*
X6948753Y-8202174D01*
X6948753Y-8202174D02*
X6958277Y-8211698D01*
X6958277Y-8211698D02*
X6967801Y-8230746D01*
X6967801Y-8230746D02*
X6967801Y-8287888D01*
X6967801Y-8287888D02*
X6958277Y-8306936D01*
X6958277Y-8306936D02*
X6948753Y-8316460D01*
X6948753Y-8316460D02*
X6929706Y-8325984D01*
X6929706Y-8325984D02*
X6901134Y-8325984D01*
X7082087Y-8325984D02*
X7063039Y-8316460D01*
X7063039Y-8316460D02*
X7053515Y-8297412D01*
X7053515Y-8297412D02*
X7053515Y-8125984D01*
X7234468Y-8316460D02*
X7215420Y-8325984D01*
X7215420Y-8325984D02*
X7177325Y-8325984D01*
X7177325Y-8325984D02*
X7158277Y-8316460D01*
X7158277Y-8316460D02*
X7148753Y-8297412D01*
X7148753Y-8297412D02*
X7148753Y-8221222D01*
X7148753Y-8221222D02*
X7158277Y-8202174D01*
X7158277Y-8202174D02*
X7177325Y-8192650D01*
X7177325Y-8192650D02*
X7215420Y-8192650D01*
X7215420Y-8192650D02*
X7234468Y-8202174D01*
X7234468Y-8202174D02*
X7243991Y-8221222D01*
X7243991Y-8221222D02*
X7243991Y-8240269D01*
X7243991Y-8240269D02*
X7148753Y-8259317D01*
X7320182Y-8316460D02*
X7339230Y-8325984D01*
X7339230Y-8325984D02*
X7377325Y-8325984D01*
X7377325Y-8325984D02*
X7396372Y-8316460D01*
X7396372Y-8316460D02*
X7405896Y-8297412D01*
X7405896Y-8297412D02*
X7405896Y-8287888D01*
X7405896Y-8287888D02*
X7396372Y-8268841D01*
X7396372Y-8268841D02*
X7377325Y-8259317D01*
X7377325Y-8259317D02*
X7348753Y-8259317D01*
X7348753Y-8259317D02*
X7329706Y-8249793D01*
X7329706Y-8249793D02*
X7320182Y-8230746D01*
X7320182Y-8230746D02*
X7320182Y-8221222D01*
X7320182Y-8221222D02*
X7329706Y-8202174D01*
X7329706Y-8202174D02*
X7348753Y-8192650D01*
X7348753Y-8192650D02*
X7377325Y-8192650D01*
X7377325Y-8192650D02*
X7396372Y-8202174D01*
X7643992Y-8249793D02*
X7796373Y-8249793D01*
X7720182Y-8325984D02*
X7720182Y-8173603D01*
X8129706Y-8192650D02*
X8129706Y-8325984D01*
X8082087Y-8116460D02*
X8034468Y-8259317D01*
X8034468Y-8259317D02*
X8158277Y-8259317D01*
X8377325Y-8316460D02*
X8396373Y-8325984D01*
X8396373Y-8325984D02*
X8434468Y-8325984D01*
X8434468Y-8325984D02*
X8453516Y-8316460D01*
X8453516Y-8316460D02*
X8463039Y-8297412D01*
X8463039Y-8297412D02*
X8463039Y-8287888D01*
X8463039Y-8287888D02*
X8453516Y-8268841D01*
X8453516Y-8268841D02*
X8434468Y-8259317D01*
X8434468Y-8259317D02*
X8405896Y-8259317D01*
X8405896Y-8259317D02*
X8386849Y-8249793D01*
X8386849Y-8249793D02*
X8377325Y-8230746D01*
X8377325Y-8230746D02*
X8377325Y-8221222D01*
X8377325Y-8221222D02*
X8386849Y-8202174D01*
X8386849Y-8202174D02*
X8405896Y-8192650D01*
X8405896Y-8192650D02*
X8434468Y-8192650D01*
X8434468Y-8192650D02*
X8453516Y-8202174D01*
X8577325Y-8325984D02*
X8558277Y-8316460D01*
X8558277Y-8316460D02*
X8548754Y-8297412D01*
X8548754Y-8297412D02*
X8548754Y-8125984D01*
X8682087Y-8325984D02*
X8663039Y-8316460D01*
X8663039Y-8316460D02*
X8653516Y-8306936D01*
X8653516Y-8306936D02*
X8643992Y-8287888D01*
X8643992Y-8287888D02*
X8643992Y-8230746D01*
X8643992Y-8230746D02*
X8653516Y-8211698D01*
X8653516Y-8211698D02*
X8663039Y-8202174D01*
X8663039Y-8202174D02*
X8682087Y-8192650D01*
X8682087Y-8192650D02*
X8710658Y-8192650D01*
X8710658Y-8192650D02*
X8729706Y-8202174D01*
X8729706Y-8202174D02*
X8739230Y-8211698D01*
X8739230Y-8211698D02*
X8748754Y-8230746D01*
X8748754Y-8230746D02*
X8748754Y-8287888D01*
X8748754Y-8287888D02*
X8739230Y-8306936D01*
X8739230Y-8306936D02*
X8729706Y-8316460D01*
X8729706Y-8316460D02*
X8710658Y-8325984D01*
X8710658Y-8325984D02*
X8682087Y-8325984D01*
X8805897Y-8192650D02*
X8882087Y-8192650D01*
X8834468Y-8125984D02*
X8834468Y-8297412D01*
X8834468Y-8297412D02*
X8843992Y-8316460D01*
X8843992Y-8316460D02*
X8863039Y-8325984D01*
X8863039Y-8325984D02*
X8882087Y-8325984D01*
X8939230Y-8316460D02*
X8958277Y-8325984D01*
X8958277Y-8325984D02*
X8996373Y-8325984D01*
X8996373Y-8325984D02*
X9015420Y-8316460D01*
X9015420Y-8316460D02*
X9024944Y-8297412D01*
X9024944Y-8297412D02*
X9024944Y-8287888D01*
X9024944Y-8287888D02*
X9015420Y-8268841D01*
X9015420Y-8268841D02*
X8996373Y-8259317D01*
X8996373Y-8259317D02*
X8967801Y-8259317D01*
X8967801Y-8259317D02*
X8948754Y-8249793D01*
X8948754Y-8249793D02*
X8939230Y-8230746D01*
X8939230Y-8230746D02*
X8939230Y-8221222D01*
X8939230Y-8221222D02*
X8948754Y-8202174D01*
X8948754Y-8202174D02*
X8967801Y-8192650D01*
X8967801Y-8192650D02*
X8996373Y-8192650D01*
X8996373Y-8192650D02*
X9015420Y-8202174D01*
X9091611Y-8402174D02*
X9101135Y-8392650D01*
X9101135Y-8392650D02*
X9120182Y-8364079D01*
X9120182Y-8364079D02*
X9129706Y-8345031D01*
X9129706Y-8345031D02*
X9139230Y-8316460D01*
X9139230Y-8316460D02*
X9148754Y-8268841D01*
X9148754Y-8268841D02*
X9148754Y-8230746D01*
X9148754Y-8230746D02*
X9139230Y-8183127D01*
X9139230Y-8183127D02*
X9129706Y-8154555D01*
X9129706Y-8154555D02*
X9120182Y-8135508D01*
X9120182Y-8135508D02*
X9101135Y-8106936D01*
X9101135Y-8106936D02*
X9091611Y-8097412D01*
D12*
X2647500Y-8548500D02*
X2697500Y-8498500D01*
X2647500Y-8448500D01*
X2597500Y-8498500D01*
X2647500Y-8548500D01*
D11*
X3063039Y-8589984D02*
X2948753Y-8589984D01*
X3005896Y-8589984D02*
X3005896Y-8389984D01*
X3005896Y-8389984D02*
X2986848Y-8418555D01*
X2986848Y-8418555D02*
X2967801Y-8437603D01*
X2967801Y-8437603D02*
X2948753Y-8447127D01*
X3148753Y-8570936D02*
X3158277Y-8580460D01*
X3158277Y-8580460D02*
X3148753Y-8589984D01*
X3148753Y-8589984D02*
X3139229Y-8580460D01*
X3139229Y-8580460D02*
X3148753Y-8570936D01*
X3148753Y-8570936D02*
X3148753Y-8589984D01*
X3282086Y-8389984D02*
X3301134Y-8389984D01*
X3301134Y-8389984D02*
X3320182Y-8399508D01*
X3320182Y-8399508D02*
X3329705Y-8409031D01*
X3329705Y-8409031D02*
X3339229Y-8428079D01*
X3339229Y-8428079D02*
X3348753Y-8466174D01*
X3348753Y-8466174D02*
X3348753Y-8513793D01*
X3348753Y-8513793D02*
X3339229Y-8551889D01*
X3339229Y-8551889D02*
X3329705Y-8570936D01*
X3329705Y-8570936D02*
X3320182Y-8580460D01*
X3320182Y-8580460D02*
X3301134Y-8589984D01*
X3301134Y-8589984D02*
X3282086Y-8589984D01*
X3282086Y-8589984D02*
X3263039Y-8580460D01*
X3263039Y-8580460D02*
X3253515Y-8570936D01*
X3253515Y-8570936D02*
X3243991Y-8551889D01*
X3243991Y-8551889D02*
X3234467Y-8513793D01*
X3234467Y-8513793D02*
X3234467Y-8466174D01*
X3234467Y-8466174D02*
X3243991Y-8428079D01*
X3243991Y-8428079D02*
X3253515Y-8409031D01*
X3253515Y-8409031D02*
X3263039Y-8399508D01*
X3263039Y-8399508D02*
X3282086Y-8389984D01*
X3472562Y-8389984D02*
X3491610Y-8389984D01*
X3491610Y-8389984D02*
X3510658Y-8399508D01*
X3510658Y-8399508D02*
X3520182Y-8409031D01*
X3520182Y-8409031D02*
X3529705Y-8428079D01*
X3529705Y-8428079D02*
X3539229Y-8466174D01*
X3539229Y-8466174D02*
X3539229Y-8513793D01*
X3539229Y-8513793D02*
X3529705Y-8551889D01*
X3529705Y-8551889D02*
X3520182Y-8570936D01*
X3520182Y-8570936D02*
X3510658Y-8580460D01*
X3510658Y-8580460D02*
X3491610Y-8589984D01*
X3491610Y-8589984D02*
X3472562Y-8589984D01*
X3472562Y-8589984D02*
X3453515Y-8580460D01*
X3453515Y-8580460D02*
X3443991Y-8570936D01*
X3443991Y-8570936D02*
X3434467Y-8551889D01*
X3434467Y-8551889D02*
X3424943Y-8513793D01*
X3424943Y-8513793D02*
X3424943Y-8466174D01*
X3424943Y-8466174D02*
X3434467Y-8428079D01*
X3434467Y-8428079D02*
X3443991Y-8409031D01*
X3443991Y-8409031D02*
X3453515Y-8399508D01*
X3453515Y-8399508D02*
X3472562Y-8389984D01*
X3663039Y-8389984D02*
X3682086Y-8389984D01*
X3682086Y-8389984D02*
X3701134Y-8399508D01*
X3701134Y-8399508D02*
X3710658Y-8409031D01*
X3710658Y-8409031D02*
X3720182Y-8428079D01*
X3720182Y-8428079D02*
X3729705Y-8466174D01*
X3729705Y-8466174D02*
X3729705Y-8513793D01*
X3729705Y-8513793D02*
X3720182Y-8551889D01*
X3720182Y-8551889D02*
X3710658Y-8570936D01*
X3710658Y-8570936D02*
X3701134Y-8580460D01*
X3701134Y-8580460D02*
X3682086Y-8589984D01*
X3682086Y-8589984D02*
X3663039Y-8589984D01*
X3663039Y-8589984D02*
X3643991Y-8580460D01*
X3643991Y-8580460D02*
X3634467Y-8570936D01*
X3634467Y-8570936D02*
X3624943Y-8551889D01*
X3624943Y-8551889D02*
X3615420Y-8513793D01*
X3615420Y-8513793D02*
X3615420Y-8466174D01*
X3615420Y-8466174D02*
X3624943Y-8428079D01*
X3624943Y-8428079D02*
X3634467Y-8409031D01*
X3634467Y-8409031D02*
X3643991Y-8399508D01*
X3643991Y-8399508D02*
X3663039Y-8389984D01*
X3815420Y-8589984D02*
X3815420Y-8456650D01*
X3815420Y-8475698D02*
X3824943Y-8466174D01*
X3824943Y-8466174D02*
X3843991Y-8456650D01*
X3843991Y-8456650D02*
X3872563Y-8456650D01*
X3872563Y-8456650D02*
X3891610Y-8466174D01*
X3891610Y-8466174D02*
X3901134Y-8485222D01*
X3901134Y-8485222D02*
X3901134Y-8589984D01*
X3901134Y-8485222D02*
X3910658Y-8466174D01*
X3910658Y-8466174D02*
X3929705Y-8456650D01*
X3929705Y-8456650D02*
X3958277Y-8456650D01*
X3958277Y-8456650D02*
X3977324Y-8466174D01*
X3977324Y-8466174D02*
X3986848Y-8485222D01*
X3986848Y-8485222D02*
X3986848Y-8589984D01*
X4082086Y-8589984D02*
X4082086Y-8456650D01*
X4082086Y-8475698D02*
X4091610Y-8466174D01*
X4091610Y-8466174D02*
X4110658Y-8456650D01*
X4110658Y-8456650D02*
X4139229Y-8456650D01*
X4139229Y-8456650D02*
X4158277Y-8466174D01*
X4158277Y-8466174D02*
X4167801Y-8485222D01*
X4167801Y-8485222D02*
X4167801Y-8589984D01*
X4167801Y-8485222D02*
X4177324Y-8466174D01*
X4177324Y-8466174D02*
X4196372Y-8456650D01*
X4196372Y-8456650D02*
X4224944Y-8456650D01*
X4224944Y-8456650D02*
X4243991Y-8466174D01*
X4243991Y-8466174D02*
X4253515Y-8485222D01*
X4253515Y-8485222D02*
X4253515Y-8589984D01*
X4643991Y-8380460D02*
X4472563Y-8637603D01*
X4901134Y-8389984D02*
X4920182Y-8389984D01*
X4920182Y-8389984D02*
X4939229Y-8399508D01*
X4939229Y-8399508D02*
X4948753Y-8409031D01*
X4948753Y-8409031D02*
X4958277Y-8428079D01*
X4958277Y-8428079D02*
X4967801Y-8466174D01*
X4967801Y-8466174D02*
X4967801Y-8513793D01*
X4967801Y-8513793D02*
X4958277Y-8551889D01*
X4958277Y-8551889D02*
X4948753Y-8570936D01*
X4948753Y-8570936D02*
X4939229Y-8580460D01*
X4939229Y-8580460D02*
X4920182Y-8589984D01*
X4920182Y-8589984D02*
X4901134Y-8589984D01*
X4901134Y-8589984D02*
X4882087Y-8580460D01*
X4882087Y-8580460D02*
X4872563Y-8570936D01*
X4872563Y-8570936D02*
X4863039Y-8551889D01*
X4863039Y-8551889D02*
X4853515Y-8513793D01*
X4853515Y-8513793D02*
X4853515Y-8466174D01*
X4853515Y-8466174D02*
X4863039Y-8428079D01*
X4863039Y-8428079D02*
X4872563Y-8409031D01*
X4872563Y-8409031D02*
X4882087Y-8399508D01*
X4882087Y-8399508D02*
X4901134Y-8389984D01*
X5053515Y-8570936D02*
X5063039Y-8580460D01*
X5063039Y-8580460D02*
X5053515Y-8589984D01*
X5053515Y-8589984D02*
X5043991Y-8580460D01*
X5043991Y-8580460D02*
X5053515Y-8570936D01*
X5053515Y-8570936D02*
X5053515Y-8589984D01*
X5186848Y-8389984D02*
X5205896Y-8389984D01*
X5205896Y-8389984D02*
X5224944Y-8399508D01*
X5224944Y-8399508D02*
X5234468Y-8409031D01*
X5234468Y-8409031D02*
X5243991Y-8428079D01*
X5243991Y-8428079D02*
X5253515Y-8466174D01*
X5253515Y-8466174D02*
X5253515Y-8513793D01*
X5253515Y-8513793D02*
X5243991Y-8551889D01*
X5243991Y-8551889D02*
X5234468Y-8570936D01*
X5234468Y-8570936D02*
X5224944Y-8580460D01*
X5224944Y-8580460D02*
X5205896Y-8589984D01*
X5205896Y-8589984D02*
X5186848Y-8589984D01*
X5186848Y-8589984D02*
X5167801Y-8580460D01*
X5167801Y-8580460D02*
X5158277Y-8570936D01*
X5158277Y-8570936D02*
X5148753Y-8551889D01*
X5148753Y-8551889D02*
X5139229Y-8513793D01*
X5139229Y-8513793D02*
X5139229Y-8466174D01*
X5139229Y-8466174D02*
X5148753Y-8428079D01*
X5148753Y-8428079D02*
X5158277Y-8409031D01*
X5158277Y-8409031D02*
X5167801Y-8399508D01*
X5167801Y-8399508D02*
X5186848Y-8389984D01*
X5320182Y-8389984D02*
X5443991Y-8389984D01*
X5443991Y-8389984D02*
X5377325Y-8466174D01*
X5377325Y-8466174D02*
X5405896Y-8466174D01*
X5405896Y-8466174D02*
X5424944Y-8475698D01*
X5424944Y-8475698D02*
X5434468Y-8485222D01*
X5434468Y-8485222D02*
X5443991Y-8504270D01*
X5443991Y-8504270D02*
X5443991Y-8551889D01*
X5443991Y-8551889D02*
X5434468Y-8570936D01*
X5434468Y-8570936D02*
X5424944Y-8580460D01*
X5424944Y-8580460D02*
X5405896Y-8589984D01*
X5405896Y-8589984D02*
X5348753Y-8589984D01*
X5348753Y-8589984D02*
X5329706Y-8580460D01*
X5329706Y-8580460D02*
X5320182Y-8570936D01*
X5539229Y-8589984D02*
X5577325Y-8589984D01*
X5577325Y-8589984D02*
X5596372Y-8580460D01*
X5596372Y-8580460D02*
X5605896Y-8570936D01*
X5605896Y-8570936D02*
X5624944Y-8542365D01*
X5624944Y-8542365D02*
X5634467Y-8504270D01*
X5634467Y-8504270D02*
X5634467Y-8428079D01*
X5634467Y-8428079D02*
X5624944Y-8409031D01*
X5624944Y-8409031D02*
X5615420Y-8399508D01*
X5615420Y-8399508D02*
X5596372Y-8389984D01*
X5596372Y-8389984D02*
X5558277Y-8389984D01*
X5558277Y-8389984D02*
X5539229Y-8399508D01*
X5539229Y-8399508D02*
X5529706Y-8409031D01*
X5529706Y-8409031D02*
X5520182Y-8428079D01*
X5520182Y-8428079D02*
X5520182Y-8475698D01*
X5520182Y-8475698D02*
X5529706Y-8494746D01*
X5529706Y-8494746D02*
X5539229Y-8504270D01*
X5539229Y-8504270D02*
X5558277Y-8513793D01*
X5558277Y-8513793D02*
X5596372Y-8513793D01*
X5596372Y-8513793D02*
X5615420Y-8504270D01*
X5615420Y-8504270D02*
X5624944Y-8494746D01*
X5624944Y-8494746D02*
X5634467Y-8475698D01*
X5805896Y-8456650D02*
X5805896Y-8589984D01*
X5758277Y-8380460D02*
X5710658Y-8523317D01*
X5710658Y-8523317D02*
X5834467Y-8523317D01*
X5901134Y-8389984D02*
X5901134Y-8428079D01*
X5977325Y-8389984D02*
X5977325Y-8428079D01*
X6272563Y-8666174D02*
X6263039Y-8656650D01*
X6263039Y-8656650D02*
X6243991Y-8628079D01*
X6243991Y-8628079D02*
X6234468Y-8609031D01*
X6234468Y-8609031D02*
X6224944Y-8580460D01*
X6224944Y-8580460D02*
X6215420Y-8532841D01*
X6215420Y-8532841D02*
X6215420Y-8494746D01*
X6215420Y-8494746D02*
X6224944Y-8447127D01*
X6224944Y-8447127D02*
X6234468Y-8418555D01*
X6234468Y-8418555D02*
X6243991Y-8399508D01*
X6243991Y-8399508D02*
X6263039Y-8370936D01*
X6263039Y-8370936D02*
X6272563Y-8361412D01*
X6453515Y-8589984D02*
X6339229Y-8589984D01*
X6396372Y-8589984D02*
X6396372Y-8389984D01*
X6396372Y-8389984D02*
X6377325Y-8418555D01*
X6377325Y-8418555D02*
X6358277Y-8437603D01*
X6358277Y-8437603D02*
X6339229Y-8447127D01*
X6529706Y-8409031D02*
X6539229Y-8399508D01*
X6539229Y-8399508D02*
X6558277Y-8389984D01*
X6558277Y-8389984D02*
X6605896Y-8389984D01*
X6605896Y-8389984D02*
X6624944Y-8399508D01*
X6624944Y-8399508D02*
X6634468Y-8409031D01*
X6634468Y-8409031D02*
X6643991Y-8428079D01*
X6643991Y-8428079D02*
X6643991Y-8447127D01*
X6643991Y-8447127D02*
X6634468Y-8475698D01*
X6634468Y-8475698D02*
X6520182Y-8589984D01*
X6520182Y-8589984D02*
X6643991Y-8589984D01*
X6882087Y-8589984D02*
X6882087Y-8389984D01*
X6967801Y-8589984D02*
X6967801Y-8485222D01*
X6967801Y-8485222D02*
X6958277Y-8466174D01*
X6958277Y-8466174D02*
X6939230Y-8456650D01*
X6939230Y-8456650D02*
X6910658Y-8456650D01*
X6910658Y-8456650D02*
X6891610Y-8466174D01*
X6891610Y-8466174D02*
X6882087Y-8475698D01*
X7091610Y-8589984D02*
X7072563Y-8580460D01*
X7072563Y-8580460D02*
X7063039Y-8570936D01*
X7063039Y-8570936D02*
X7053515Y-8551889D01*
X7053515Y-8551889D02*
X7053515Y-8494746D01*
X7053515Y-8494746D02*
X7063039Y-8475698D01*
X7063039Y-8475698D02*
X7072563Y-8466174D01*
X7072563Y-8466174D02*
X7091610Y-8456650D01*
X7091610Y-8456650D02*
X7120182Y-8456650D01*
X7120182Y-8456650D02*
X7139230Y-8466174D01*
X7139230Y-8466174D02*
X7148753Y-8475698D01*
X7148753Y-8475698D02*
X7158277Y-8494746D01*
X7158277Y-8494746D02*
X7158277Y-8551889D01*
X7158277Y-8551889D02*
X7148753Y-8570936D01*
X7148753Y-8570936D02*
X7139230Y-8580460D01*
X7139230Y-8580460D02*
X7120182Y-8589984D01*
X7120182Y-8589984D02*
X7091610Y-8589984D01*
X7272563Y-8589984D02*
X7253515Y-8580460D01*
X7253515Y-8580460D02*
X7243991Y-8561412D01*
X7243991Y-8561412D02*
X7243991Y-8389984D01*
X7424944Y-8580460D02*
X7405896Y-8589984D01*
X7405896Y-8589984D02*
X7367801Y-8589984D01*
X7367801Y-8589984D02*
X7348753Y-8580460D01*
X7348753Y-8580460D02*
X7339230Y-8561412D01*
X7339230Y-8561412D02*
X7339230Y-8485222D01*
X7339230Y-8485222D02*
X7348753Y-8466174D01*
X7348753Y-8466174D02*
X7367801Y-8456650D01*
X7367801Y-8456650D02*
X7405896Y-8456650D01*
X7405896Y-8456650D02*
X7424944Y-8466174D01*
X7424944Y-8466174D02*
X7434468Y-8485222D01*
X7434468Y-8485222D02*
X7434468Y-8504270D01*
X7434468Y-8504270D02*
X7339230Y-8523317D01*
X7510658Y-8580460D02*
X7529706Y-8589984D01*
X7529706Y-8589984D02*
X7567801Y-8589984D01*
X7567801Y-8589984D02*
X7586849Y-8580460D01*
X7586849Y-8580460D02*
X7596372Y-8561412D01*
X7596372Y-8561412D02*
X7596372Y-8551889D01*
X7596372Y-8551889D02*
X7586849Y-8532841D01*
X7586849Y-8532841D02*
X7567801Y-8523317D01*
X7567801Y-8523317D02*
X7539230Y-8523317D01*
X7539230Y-8523317D02*
X7520182Y-8513793D01*
X7520182Y-8513793D02*
X7510658Y-8494746D01*
X7510658Y-8494746D02*
X7510658Y-8485222D01*
X7510658Y-8485222D02*
X7520182Y-8466174D01*
X7520182Y-8466174D02*
X7539230Y-8456650D01*
X7539230Y-8456650D02*
X7567801Y-8456650D01*
X7567801Y-8456650D02*
X7586849Y-8466174D01*
X7663039Y-8666174D02*
X7672563Y-8656650D01*
X7672563Y-8656650D02*
X7691611Y-8628079D01*
X7691611Y-8628079D02*
X7701134Y-8609031D01*
X7701134Y-8609031D02*
X7710658Y-8580460D01*
X7710658Y-8580460D02*
X7720182Y-8532841D01*
X7720182Y-8532841D02*
X7720182Y-8494746D01*
X7720182Y-8494746D02*
X7710658Y-8447127D01*
X7710658Y-8447127D02*
X7701134Y-8418555D01*
X7701134Y-8418555D02*
X7691611Y-8399508D01*
X7691611Y-8399508D02*
X7672563Y-8370936D01*
X7672563Y-8370936D02*
X7663039Y-8361412D01*
D13*
X2567500Y-8697500D02*
X2697500Y-8827500D01*
X2697500Y-8697500D02*
X2567500Y-8827500D01*
X2697500Y-8762500D02*
G75*
G02*
X2567500Y-8762500I-65000J0D01*
G01*
X2567500Y-8762500D02*
G75*
G02*
X2697500Y-8762500I65000J0D01*
G01*
D11*
X3063039Y-8853984D02*
X2948753Y-8853984D01*
X3005896Y-8853984D02*
X3005896Y-8653984D01*
X3005896Y-8653984D02*
X2986848Y-8682555D01*
X2986848Y-8682555D02*
X2967801Y-8701603D01*
X2967801Y-8701603D02*
X2948753Y-8711127D01*
X3148753Y-8834936D02*
X3158277Y-8844460D01*
X3158277Y-8844460D02*
X3148753Y-8853984D01*
X3148753Y-8853984D02*
X3139229Y-8844460D01*
X3139229Y-8844460D02*
X3148753Y-8834936D01*
X3148753Y-8834936D02*
X3148753Y-8853984D01*
X3224943Y-8653984D02*
X3348753Y-8653984D01*
X3348753Y-8653984D02*
X3282086Y-8730174D01*
X3282086Y-8730174D02*
X3310658Y-8730174D01*
X3310658Y-8730174D02*
X3329705Y-8739698D01*
X3329705Y-8739698D02*
X3339229Y-8749222D01*
X3339229Y-8749222D02*
X3348753Y-8768270D01*
X3348753Y-8768270D02*
X3348753Y-8815889D01*
X3348753Y-8815889D02*
X3339229Y-8834936D01*
X3339229Y-8834936D02*
X3329705Y-8844460D01*
X3329705Y-8844460D02*
X3310658Y-8853984D01*
X3310658Y-8853984D02*
X3253515Y-8853984D01*
X3253515Y-8853984D02*
X3234467Y-8844460D01*
X3234467Y-8844460D02*
X3224943Y-8834936D01*
X3472562Y-8653984D02*
X3491610Y-8653984D01*
X3491610Y-8653984D02*
X3510658Y-8663508D01*
X3510658Y-8663508D02*
X3520182Y-8673031D01*
X3520182Y-8673031D02*
X3529705Y-8692079D01*
X3529705Y-8692079D02*
X3539229Y-8730174D01*
X3539229Y-8730174D02*
X3539229Y-8777793D01*
X3539229Y-8777793D02*
X3529705Y-8815889D01*
X3529705Y-8815889D02*
X3520182Y-8834936D01*
X3520182Y-8834936D02*
X3510658Y-8844460D01*
X3510658Y-8844460D02*
X3491610Y-8853984D01*
X3491610Y-8853984D02*
X3472562Y-8853984D01*
X3472562Y-8853984D02*
X3453515Y-8844460D01*
X3453515Y-8844460D02*
X3443991Y-8834936D01*
X3443991Y-8834936D02*
X3434467Y-8815889D01*
X3434467Y-8815889D02*
X3424943Y-8777793D01*
X3424943Y-8777793D02*
X3424943Y-8730174D01*
X3424943Y-8730174D02*
X3434467Y-8692079D01*
X3434467Y-8692079D02*
X3443991Y-8673031D01*
X3443991Y-8673031D02*
X3453515Y-8663508D01*
X3453515Y-8663508D02*
X3472562Y-8653984D01*
X3663039Y-8653984D02*
X3682086Y-8653984D01*
X3682086Y-8653984D02*
X3701134Y-8663508D01*
X3701134Y-8663508D02*
X3710658Y-8673031D01*
X3710658Y-8673031D02*
X3720182Y-8692079D01*
X3720182Y-8692079D02*
X3729705Y-8730174D01*
X3729705Y-8730174D02*
X3729705Y-8777793D01*
X3729705Y-8777793D02*
X3720182Y-8815889D01*
X3720182Y-8815889D02*
X3710658Y-8834936D01*
X3710658Y-8834936D02*
X3701134Y-8844460D01*
X3701134Y-8844460D02*
X3682086Y-8853984D01*
X3682086Y-8853984D02*
X3663039Y-8853984D01*
X3663039Y-8853984D02*
X3643991Y-8844460D01*
X3643991Y-8844460D02*
X3634467Y-8834936D01*
X3634467Y-8834936D02*
X3624943Y-8815889D01*
X3624943Y-8815889D02*
X3615420Y-8777793D01*
X3615420Y-8777793D02*
X3615420Y-8730174D01*
X3615420Y-8730174D02*
X3624943Y-8692079D01*
X3624943Y-8692079D02*
X3634467Y-8673031D01*
X3634467Y-8673031D02*
X3643991Y-8663508D01*
X3643991Y-8663508D02*
X3663039Y-8653984D01*
X3815420Y-8853984D02*
X3815420Y-8720650D01*
X3815420Y-8739698D02*
X3824943Y-8730174D01*
X3824943Y-8730174D02*
X3843991Y-8720650D01*
X3843991Y-8720650D02*
X3872563Y-8720650D01*
X3872563Y-8720650D02*
X3891610Y-8730174D01*
X3891610Y-8730174D02*
X3901134Y-8749222D01*
X3901134Y-8749222D02*
X3901134Y-8853984D01*
X3901134Y-8749222D02*
X3910658Y-8730174D01*
X3910658Y-8730174D02*
X3929705Y-8720650D01*
X3929705Y-8720650D02*
X3958277Y-8720650D01*
X3958277Y-8720650D02*
X3977324Y-8730174D01*
X3977324Y-8730174D02*
X3986848Y-8749222D01*
X3986848Y-8749222D02*
X3986848Y-8853984D01*
X4082086Y-8853984D02*
X4082086Y-8720650D01*
X4082086Y-8739698D02*
X4091610Y-8730174D01*
X4091610Y-8730174D02*
X4110658Y-8720650D01*
X4110658Y-8720650D02*
X4139229Y-8720650D01*
X4139229Y-8720650D02*
X4158277Y-8730174D01*
X4158277Y-8730174D02*
X4167801Y-8749222D01*
X4167801Y-8749222D02*
X4167801Y-8853984D01*
X4167801Y-8749222D02*
X4177324Y-8730174D01*
X4177324Y-8730174D02*
X4196372Y-8720650D01*
X4196372Y-8720650D02*
X4224944Y-8720650D01*
X4224944Y-8720650D02*
X4243991Y-8730174D01*
X4243991Y-8730174D02*
X4253515Y-8749222D01*
X4253515Y-8749222D02*
X4253515Y-8853984D01*
X4643991Y-8644460D02*
X4472563Y-8901603D01*
X4901134Y-8653984D02*
X4920182Y-8653984D01*
X4920182Y-8653984D02*
X4939229Y-8663508D01*
X4939229Y-8663508D02*
X4948753Y-8673031D01*
X4948753Y-8673031D02*
X4958277Y-8692079D01*
X4958277Y-8692079D02*
X4967801Y-8730174D01*
X4967801Y-8730174D02*
X4967801Y-8777793D01*
X4967801Y-8777793D02*
X4958277Y-8815889D01*
X4958277Y-8815889D02*
X4948753Y-8834936D01*
X4948753Y-8834936D02*
X4939229Y-8844460D01*
X4939229Y-8844460D02*
X4920182Y-8853984D01*
X4920182Y-8853984D02*
X4901134Y-8853984D01*
X4901134Y-8853984D02*
X4882087Y-8844460D01*
X4882087Y-8844460D02*
X4872563Y-8834936D01*
X4872563Y-8834936D02*
X4863039Y-8815889D01*
X4863039Y-8815889D02*
X4853515Y-8777793D01*
X4853515Y-8777793D02*
X4853515Y-8730174D01*
X4853515Y-8730174D02*
X4863039Y-8692079D01*
X4863039Y-8692079D02*
X4872563Y-8673031D01*
X4872563Y-8673031D02*
X4882087Y-8663508D01*
X4882087Y-8663508D02*
X4901134Y-8653984D01*
X5053515Y-8834936D02*
X5063039Y-8844460D01*
X5063039Y-8844460D02*
X5053515Y-8853984D01*
X5053515Y-8853984D02*
X5043991Y-8844460D01*
X5043991Y-8844460D02*
X5053515Y-8834936D01*
X5053515Y-8834936D02*
X5053515Y-8853984D01*
X5186848Y-8653984D02*
X5205896Y-8653984D01*
X5205896Y-8653984D02*
X5224944Y-8663508D01*
X5224944Y-8663508D02*
X5234468Y-8673031D01*
X5234468Y-8673031D02*
X5243991Y-8692079D01*
X5243991Y-8692079D02*
X5253515Y-8730174D01*
X5253515Y-8730174D02*
X5253515Y-8777793D01*
X5253515Y-8777793D02*
X5243991Y-8815889D01*
X5243991Y-8815889D02*
X5234468Y-8834936D01*
X5234468Y-8834936D02*
X5224944Y-8844460D01*
X5224944Y-8844460D02*
X5205896Y-8853984D01*
X5205896Y-8853984D02*
X5186848Y-8853984D01*
X5186848Y-8853984D02*
X5167801Y-8844460D01*
X5167801Y-8844460D02*
X5158277Y-8834936D01*
X5158277Y-8834936D02*
X5148753Y-8815889D01*
X5148753Y-8815889D02*
X5139229Y-8777793D01*
X5139229Y-8777793D02*
X5139229Y-8730174D01*
X5139229Y-8730174D02*
X5148753Y-8692079D01*
X5148753Y-8692079D02*
X5158277Y-8673031D01*
X5158277Y-8673031D02*
X5167801Y-8663508D01*
X5167801Y-8663508D02*
X5186848Y-8653984D01*
X5434468Y-8653984D02*
X5339229Y-8653984D01*
X5339229Y-8653984D02*
X5329706Y-8749222D01*
X5329706Y-8749222D02*
X5339229Y-8739698D01*
X5339229Y-8739698D02*
X5358277Y-8730174D01*
X5358277Y-8730174D02*
X5405896Y-8730174D01*
X5405896Y-8730174D02*
X5424944Y-8739698D01*
X5424944Y-8739698D02*
X5434468Y-8749222D01*
X5434468Y-8749222D02*
X5443991Y-8768270D01*
X5443991Y-8768270D02*
X5443991Y-8815889D01*
X5443991Y-8815889D02*
X5434468Y-8834936D01*
X5434468Y-8834936D02*
X5424944Y-8844460D01*
X5424944Y-8844460D02*
X5405896Y-8853984D01*
X5405896Y-8853984D02*
X5358277Y-8853984D01*
X5358277Y-8853984D02*
X5339229Y-8844460D01*
X5339229Y-8844460D02*
X5329706Y-8834936D01*
X5634467Y-8853984D02*
X5520182Y-8853984D01*
X5577325Y-8853984D02*
X5577325Y-8653984D01*
X5577325Y-8653984D02*
X5558277Y-8682555D01*
X5558277Y-8682555D02*
X5539229Y-8701603D01*
X5539229Y-8701603D02*
X5520182Y-8711127D01*
X5710658Y-8673031D02*
X5720182Y-8663508D01*
X5720182Y-8663508D02*
X5739229Y-8653984D01*
X5739229Y-8653984D02*
X5786848Y-8653984D01*
X5786848Y-8653984D02*
X5805896Y-8663508D01*
X5805896Y-8663508D02*
X5815420Y-8673031D01*
X5815420Y-8673031D02*
X5824944Y-8692079D01*
X5824944Y-8692079D02*
X5824944Y-8711127D01*
X5824944Y-8711127D02*
X5815420Y-8739698D01*
X5815420Y-8739698D02*
X5701134Y-8853984D01*
X5701134Y-8853984D02*
X5824944Y-8853984D01*
X5901134Y-8653984D02*
X5901134Y-8692079D01*
X5977325Y-8653984D02*
X5977325Y-8692079D01*
X6272563Y-8930174D02*
X6263039Y-8920650D01*
X6263039Y-8920650D02*
X6243991Y-8892079D01*
X6243991Y-8892079D02*
X6234468Y-8873031D01*
X6234468Y-8873031D02*
X6224944Y-8844460D01*
X6224944Y-8844460D02*
X6215420Y-8796841D01*
X6215420Y-8796841D02*
X6215420Y-8758746D01*
X6215420Y-8758746D02*
X6224944Y-8711127D01*
X6224944Y-8711127D02*
X6234468Y-8682555D01*
X6234468Y-8682555D02*
X6243991Y-8663508D01*
X6243991Y-8663508D02*
X6263039Y-8634936D01*
X6263039Y-8634936D02*
X6272563Y-8625412D01*
X6434468Y-8720650D02*
X6434468Y-8853984D01*
X6386848Y-8644460D02*
X6339229Y-8787317D01*
X6339229Y-8787317D02*
X6463039Y-8787317D01*
X6691610Y-8853984D02*
X6691610Y-8653984D01*
X6777325Y-8853984D02*
X6777325Y-8749222D01*
X6777325Y-8749222D02*
X6767801Y-8730174D01*
X6767801Y-8730174D02*
X6748753Y-8720650D01*
X6748753Y-8720650D02*
X6720182Y-8720650D01*
X6720182Y-8720650D02*
X6701134Y-8730174D01*
X6701134Y-8730174D02*
X6691610Y-8739698D01*
X6901134Y-8853984D02*
X6882087Y-8844460D01*
X6882087Y-8844460D02*
X6872563Y-8834936D01*
X6872563Y-8834936D02*
X6863039Y-8815889D01*
X6863039Y-8815889D02*
X6863039Y-8758746D01*
X6863039Y-8758746D02*
X6872563Y-8739698D01*
X6872563Y-8739698D02*
X6882087Y-8730174D01*
X6882087Y-8730174D02*
X6901134Y-8720650D01*
X6901134Y-8720650D02*
X6929706Y-8720650D01*
X6929706Y-8720650D02*
X6948753Y-8730174D01*
X6948753Y-8730174D02*
X6958277Y-8739698D01*
X6958277Y-8739698D02*
X6967801Y-8758746D01*
X6967801Y-8758746D02*
X6967801Y-8815889D01*
X6967801Y-8815889D02*
X6958277Y-8834936D01*
X6958277Y-8834936D02*
X6948753Y-8844460D01*
X6948753Y-8844460D02*
X6929706Y-8853984D01*
X6929706Y-8853984D02*
X6901134Y-8853984D01*
X7082087Y-8853984D02*
X7063039Y-8844460D01*
X7063039Y-8844460D02*
X7053515Y-8825412D01*
X7053515Y-8825412D02*
X7053515Y-8653984D01*
X7234468Y-8844460D02*
X7215420Y-8853984D01*
X7215420Y-8853984D02*
X7177325Y-8853984D01*
X7177325Y-8853984D02*
X7158277Y-8844460D01*
X7158277Y-8844460D02*
X7148753Y-8825412D01*
X7148753Y-8825412D02*
X7148753Y-8749222D01*
X7148753Y-8749222D02*
X7158277Y-8730174D01*
X7158277Y-8730174D02*
X7177325Y-8720650D01*
X7177325Y-8720650D02*
X7215420Y-8720650D01*
X7215420Y-8720650D02*
X7234468Y-8730174D01*
X7234468Y-8730174D02*
X7243991Y-8749222D01*
X7243991Y-8749222D02*
X7243991Y-8768270D01*
X7243991Y-8768270D02*
X7148753Y-8787317D01*
X7320182Y-8844460D02*
X7339230Y-8853984D01*
X7339230Y-8853984D02*
X7377325Y-8853984D01*
X7377325Y-8853984D02*
X7396372Y-8844460D01*
X7396372Y-8844460D02*
X7405896Y-8825412D01*
X7405896Y-8825412D02*
X7405896Y-8815889D01*
X7405896Y-8815889D02*
X7396372Y-8796841D01*
X7396372Y-8796841D02*
X7377325Y-8787317D01*
X7377325Y-8787317D02*
X7348753Y-8787317D01*
X7348753Y-8787317D02*
X7329706Y-8777793D01*
X7329706Y-8777793D02*
X7320182Y-8758746D01*
X7320182Y-8758746D02*
X7320182Y-8749222D01*
X7320182Y-8749222D02*
X7329706Y-8730174D01*
X7329706Y-8730174D02*
X7348753Y-8720650D01*
X7348753Y-8720650D02*
X7377325Y-8720650D01*
X7377325Y-8720650D02*
X7396372Y-8730174D01*
X7472563Y-8930174D02*
X7482087Y-8920650D01*
X7482087Y-8920650D02*
X7501134Y-8892079D01*
X7501134Y-8892079D02*
X7510658Y-8873031D01*
X7510658Y-8873031D02*
X7520182Y-8844460D01*
X7520182Y-8844460D02*
X7529706Y-8796841D01*
X7529706Y-8796841D02*
X7529706Y-8758746D01*
X7529706Y-8758746D02*
X7520182Y-8711127D01*
X7520182Y-8711127D02*
X7510658Y-8682555D01*
X7510658Y-8682555D02*
X7501134Y-8663508D01*
X7501134Y-8663508D02*
X7482087Y-8634936D01*
X7482087Y-8634936D02*
X7472563Y-8625412D01*
M02*
